<svg width="64" height="64" viewBox="0 0 64 64" fill="none" xmlns="http://www.w3.org/2000/svg">
<path d="M20 23.8049C22.2091 23.8049 24 22.0577 24 19.9024C24 17.7472 22.2091 16 20 16C17.7909 16 16 17.7472 16 19.9024C16 22.0577 17.7909 23.8049 20 23.8049Z" fill="#63C740"/>
<path d="M32 23.8049C34.2091 23.8049 36 22.0577 36 19.9024C36 17.7472 34.2091 16 32 16C29.7909 16 28 17.7472 28 19.9024C28 22.0577 29.7909 23.8049 32 23.8049Z" fill="#5CABDF"/>
<path d="M44 23.8049C46.2091 23.8049 48 22.0577 48 19.9024C48 17.7472 46.2091 16 44 16C41.7909 16 40 17.7472 40 19.9024C40 22.0577 41.7909 23.8049 44 23.8049Z" fill="#D66C7B"/>
<path d="M20 35.5122C22.2091 35.5122 24 33.765 24 31.6098C24 29.4545 22.2091 27.7073 20 27.7073C17.7909 27.7073 16 29.4545 16 31.6098C16 33.765 17.7909 35.5122 20 35.5122Z" fill="#C98DEF"/>
<path d="M32 35.5122C34.2091 35.5122 36 33.765 36 31.6098C36 29.4545 34.2091 27.7073 32 27.7073C29.7909 27.7073 28 29.4545 28 31.6098C28 33.765 29.7909 35.5122 32 35.5122Z" fill="#FAA669"/>
<path d="M20 47.2195C22.2091 47.2195 24 45.4723 24 43.3171C24 41.1618 22.2091 39.4146 20 39.4146C17.7909 39.4146 16 41.1618 16 43.3171C16 45.4723 17.7909 47.2195 20 47.2195Z" fill="#3AEFC4"/>
</svg>
