<svg width="1440" height="600" viewBox="0 0 1440 600" fill="none" xmlns="http://www.w3.org/2000/svg">
<g clip-path="url(#clip0_5410_20662)">
<path d="M1574 0H-134V640H1574V0Z" fill="url(#paint0_linear_5410_20662)"/>
<path opacity="0.25" fill-rule="evenodd" clip-rule="evenodd" d="M2184.9 -539.32C1829.17 -563.024 1609.55 -504.139 1526.04 -362.665C1400.79 -150.46 1535.17 -99.1929 1468.29 143.102C1401.41 385.396 1095.54 318.685 972.315 494.658C890.163 611.975 927.427 788.499 1046.31 910.335L2506.02 428.429L2184.9 -539.32Z" fill="url(#paint1_linear_5410_20662)"/>
<path opacity="0.25" fill-rule="evenodd" clip-rule="evenodd" d="M-771.821 -539.32C-416.087 -563.024 -196.466 -504.139 -112.958 -362.665C12.2866 -150.46 -122.092 -99.1929 -55.2101 143.102C11.6719 385.396 317.537 318.685 440.766 494.658C522.917 611.975 485.653 788.499 366.766 910.335L-1092.94 428.429L-771.821 -539.32Z" fill="url(#paint2_linear_5410_20662)"/>
<path opacity="0.25" fill-rule="evenodd" clip-rule="evenodd" d="M2442.6 -502.669C2086.87 -526.374 1867.25 -467.489 1783.74 -326.015C1658.5 -113.809 1792.88 -62.5392 1725.99 179.752C1659.11 422.043 1353.25 355.335 1230.01 531.295C1147.86 648.621 1166.23 768.203 1285.12 890.039L2729.08 360.677L2442.6 -502.669Z" fill="url(#paint3_linear_5410_20662)"/>
<path opacity="0.25" fill-rule="evenodd" clip-rule="evenodd" d="M-1029.52 -502.669C-673.79 -526.374 -454.169 -467.489 -370.661 -326.015C-245.417 -113.809 -379.796 -62.5392 -312.913 179.752C-246.03 422.043 59.8338 355.335 183.067 531.295C265.216 648.621 246.847 768.203 127.96 890.039L-1316 360.677L-1029.52 -502.669Z" fill="url(#paint4_linear_5410_20662)"/>
</g>
<defs>
<linearGradient id="paint0_linear_5410_20662" x1="1574" y1="0" x2="-134" y2="0.000135846" gradientUnits="userSpaceOnUse">
<stop stop-color="#201E43"/>
<stop offset="1" stop-color="#272A5E"/>
</linearGradient>
<linearGradient id="paint1_linear_5410_20662" x1="2422.2" y1="385.259" x2="1496.54" y2="-327.485" gradientUnits="userSpaceOnUse">
<stop stop-color="#3F2B6F" stop-opacity="0"/>
<stop offset="1" stop-color="#3F2B6F"/>
</linearGradient>
<linearGradient id="paint2_linear_5410_20662" x1="-1009.12" y1="385.259" x2="-83.4559" y2="-327.485" gradientUnits="userSpaceOnUse">
<stop stop-color="#3F2B6F" stop-opacity="0"/>
<stop offset="1" stop-color="#3F2B6F"/>
</linearGradient>
<linearGradient id="paint3_linear_5410_20662" x1="2677.58" y1="422.966" x2="1750.92" y2="-289.686" gradientUnits="userSpaceOnUse">
<stop stop-color="#3F2B6F" stop-opacity="0"/>
<stop offset="1" stop-color="#3F2B6F"/>
</linearGradient>
<linearGradient id="paint4_linear_5410_20662" x1="-1264.5" y1="422.966" x2="-337.84" y2="-289.686" gradientUnits="userSpaceOnUse">
<stop stop-color="#3F2B6F" stop-opacity="0"/>
<stop offset="1" stop-color="#3F2B6F"/>
</linearGradient>
<clipPath id="clip0_5410_20662">
<rect width="1708" height="600" fill="white" transform="translate(-134)"/>
</clipPath>
</defs>
</svg>
