<svg width="900" height="281" viewBox="0 0 900 281" fill="none" xmlns="http://www.w3.org/2000/svg">
<path opacity="0.6" fill-rule="evenodd" clip-rule="evenodd" d="M900.364 -126.394C675.48 -218.028 520.872 -227.072 436.54 -153.528C310.054 -43.2121 385.927 18.7557 290.715 161.043C195.504 303.33 12.0844 194.592 -105.326 281.917C-183.6 340.136 -197.377 641.088 -146.656 745.353L900.364 746.945V-126.394Z" fill="url(#paint0_linear_4372_12320)"/>
<path fill-rule="evenodd" clip-rule="evenodd" d="M1054.37 91.2689C829.482 -0.364415 674.874 -9.40902 590.542 64.1351C464.055 174.451 539.929 236.421 444.717 378.706C349.505 520.99 166.086 412.255 48.6753 499.571C-29.5985 557.796 -43.3752 639.041 7.34524 743.306L1054.37 710.841V91.2689Z" fill="url(#paint1_linear_4372_12320)" fill-opacity="0.8"/>
<path opacity="0.05" fill-rule="evenodd" clip-rule="evenodd" d="M1441.28 76.14C1216.39 -15.4933 1061.78 -24.5379 977.453 49.0062C850.966 159.322 926.84 221.29 831.628 363.577C736.416 505.864 552.997 397.126 435.586 484.442C357.313 542.667 343.536 623.912 394.256 728.177L1441.28 725.52V76.14Z" fill="url(#paint2_linear_4372_12320)"/>
<defs>
<linearGradient id="paint0_linear_4372_12320" x1="855.433" y1="331.447" x2="409.921" y2="-327.879" gradientUnits="userSpaceOnUse">
<stop stop-color="#3F2B6F" stop-opacity="0"/>
<stop offset="1" stop-color="#3F2B6F"/>
</linearGradient>
<linearGradient id="paint1_linear_4372_12320" x1="1007.71" y1="740.06" x2="561.531" y2="80.5799" gradientUnits="userSpaceOnUse">
<stop stop-color="#3F2B6F" stop-opacity="0"/>
<stop offset="1" stop-color="#3F2B6F"/>
</linearGradient>
<linearGradient id="paint2_linear_4372_12320" x1="902.809" y1="-0.111328" x2="902.807" y2="728.177" gradientUnits="userSpaceOnUse">
<stop stop-color="#AE6DDF"/>
<stop offset="1" stop-color="#6A67FE"/>
</linearGradient>
</defs>
</svg>
