<svg width="1400" height="360" viewBox="0 0 1400 360" fill="none" xmlns="http://www.w3.org/2000/svg">
<path opacity="0.4" fill-rule="evenodd" clip-rule="evenodd" d="M-0.950195 483.854C289.869 602.336 489.801 614.03 598.845 518.938C762.4 376.299 664.298 296.177 787.421 112.199C910.544 -71.7784 1147.75 68.8201 1299.56 -44.0934C1400.79 -119.367 1418.61 -224.411 1353.02 -359.226L-0.950195 -317.251V483.854Z" fill="url(#paint0_linear_4372_11969)"/>
<path opacity="0.6" fill-rule="evenodd" clip-rule="evenodd" d="M1449.05 -582.05C1118.88 -716.583 891.893 -729.862 768.079 -621.887C582.376 -459.925 693.771 -368.946 553.984 -160.045C414.198 48.8561 144.908 -110.789 -27.4706 17.4192C-142.39 102.894 -162.616 282.17 -88.1501 435.249L1449.05 437.586V-582.05Z" fill="url(#paint1_linear_4372_11969)"/>
<path fill-rule="evenodd" clip-rule="evenodd" d="M1675.15 -315C1344.98 -449.533 1117.99 -462.812 994.18 -354.837C808.477 -192.875 919.871 -101.892 780.085 107.005C640.298 315.903 371.008 156.261 198.629 284.455C83.7105 369.939 63.484 489.22 137.95 642.299L1675.15 594.636V-315Z" fill="url(#paint2_linear_4372_11969)"/>
<path fill-rule="evenodd" clip-rule="evenodd" d="M-646 308.473C-315.833 443.006 -88.8431 456.285 34.9705 348.31C220.674 186.358 109.279 95.3575 249.065 -113.533C388.852 -322.423 658.142 -162.788 830.52 -291C945.439 -376.47 965.671 -495.746 891.214 -648.826L-645.986 -601.163L-646 308.473Z" fill="url(#paint3_linear_4372_11969)"/>
<defs>
<linearGradient id="paint0_linear_4372_11969" x1="44.5884" y1="-181.499" x2="647.605" y2="328.615" gradientUnits="userSpaceOnUse">
<stop stop-color="#3F2B6F" stop-opacity="0"/>
<stop offset="1" stop-color="#3F2B6F"/>
</linearGradient>
<linearGradient id="paint1_linear_4372_11969" x1="1383.08" y1="370.212" x2="728.999" y2="-597.789" gradientUnits="userSpaceOnUse">
<stop stop-color="#3F2B6F" stop-opacity="0"/>
<stop offset="1" stop-color="#3F2B6F"/>
</linearGradient>
<linearGradient id="paint2_linear_4372_11969" x1="1606.65" y1="637.533" x2="951.587" y2="-330.694" gradientUnits="userSpaceOnUse">
<stop stop-color="#3F2B6F" stop-opacity="0"/>
<stop offset="1" stop-color="#3F2B6F"/>
</linearGradient>
<linearGradient id="paint3_linear_4372_11969" x1="935.125" y1="-648.826" x2="-646" y2="-648.826" gradientUnits="userSpaceOnUse">
<stop stop-color="#201E43" stop-opacity="0"/>
<stop offset="1" stop-color="#272A5E"/>
</linearGradient>
</defs>
</svg>
