<svg width="1440" height="576" viewBox="0 0 1440 576" fill="none" xmlns="http://www.w3.org/2000/svg">
<g clip-path="url(#clip0_5358_21353)">
<path d="M1440 0H-1V576H1440V0Z" fill="url(#paint0_linear_5358_21353)"/>
<g clip-path="url(#clip1_5358_21353)">
<path opacity="0.4" fill-rule="evenodd" clip-rule="evenodd" d="M1902 -34.0324C1623 -123.184 1436.23 -119.595 1341.7 -23.2649C1199.92 121.229 1296.96 188.651 1195.77 368.662C1094.59 548.672 863.849 435.075 730.828 551.061C642.149 628.402 633.183 727.391 703.932 848.028L1959.97 711.026L1902 -34.0324Z" fill="url(#paint1_linear_5358_21353)"/>
<path opacity="0.75" fill-rule="evenodd" clip-rule="evenodd" d="M-216.622 440.719C17.85 536.259 179.05 545.689 266.978 469.009C398.857 353.997 319.749 289.372 419.02 141.026C518.291 -7.3201 709.531 106.047 831.948 14.9954C913.559 -45.7022 927.926 -130.407 875.05 -239.119L-216.612 -205.271L-216.622 440.719Z" fill="url(#paint2_linear_5358_21353)"/>
</g>
</g>
<defs>
<linearGradient id="paint0_linear_5358_21353" x1="1440" y1="0" x2="-1" y2="0.000107437" gradientUnits="userSpaceOnUse">
<stop stop-color="#362863"/>
<stop offset="1" stop-color="#272A5E"/>
</linearGradient>
<linearGradient id="paint1_linear_5358_21353" x1="1906.6" y1="750.527" x2="1308.35" y2="-0.775148" gradientUnits="userSpaceOnUse">
<stop stop-color="#3F2B6F" stop-opacity="0"/>
<stop offset="1" stop-color="#3F2B6F"/>
</linearGradient>
<linearGradient id="paint2_linear_5358_21353" x1="906.234" y1="-239.119" x2="-216.622" y2="-239.119" gradientUnits="userSpaceOnUse">
<stop stop-color="#201E43" stop-opacity="0"/>
<stop offset="1" stop-color="#272A5E"/>
</linearGradient>
<clipPath id="clip0_5358_21353">
<rect width="1440" height="576" fill="white"/>
</clipPath>
<clipPath id="clip1_5358_21353">
<rect width="1440" height="576" fill="white"/>
</clipPath>
</defs>
</svg>
