<svg width="320" height="323" viewBox="0 0 320 323" fill="none" xmlns="http://www.w3.org/2000/svg">
<path d="M297.335 215.962L153.64 298.925C148.42 301.938 141.994 301.938 136.773 298.925L21.0582 232.119C16.5769 229.535 16.5816 223.065 21.0582 220.486L163.352 138.467" fill="#C5C7D1"/>
<path d="M272.545 269.362C293.514 269.362 310.513 259.548 310.513 247.441C310.513 235.335 293.514 225.521 272.545 225.521C251.576 225.521 234.577 235.335 234.577 247.441C234.577 259.548 251.576 269.362 272.545 269.362Z" fill="#C5C7D1"/>
<path d="M47.1223 226.432L52.4094 229.507L137.465 278.935C139.825 280.304 142.457 280.995 145.093 281L144.878 236.806C144.769 236.82 144.659 236.839 144.55 236.848C143.782 236.915 143.014 236.925 142.242 236.877C139.935 236.729 137.642 236.057 135.553 234.841L43.3275 181.246C42.7792 180.926 42.2977 180.55 41.8686 180.14L39.5326 175.077V213.245C39.5326 218.68 42.4217 223.705 47.1223 226.436V226.432Z" fill="#E2DED5"/>
<path d="M145.093 281.176C142.385 281.171 139.715 280.446 137.374 279.088L47.0316 226.584C42.2927 223.833 39.3512 218.718 39.3512 213.24V175.072C39.3512 174.986 39.4084 174.915 39.4895 174.896C39.5705 174.877 39.6564 174.919 39.6897 174.996L42.0115 180.03C42.4501 180.445 42.922 180.802 43.4131 181.089L135.639 234.684C137.651 235.852 139.934 236.548 142.251 236.696C143.009 236.743 143.777 236.734 144.53 236.667C144.587 236.662 144.649 236.653 144.707 236.648L144.854 236.629C144.907 236.629 144.955 236.639 144.993 236.672C145.031 236.705 145.05 236.753 145.05 236.805L145.264 281C145.264 281.047 145.245 281.095 145.212 281.128C145.179 281.162 145.131 281.181 145.083 281.181L145.093 281.176ZM47.208 226.274L137.551 278.778C139.787 280.075 142.328 280.78 144.912 280.818L144.702 237.01C144.659 237.015 144.611 237.02 144.568 237.025C143.796 237.091 143.009 237.101 142.232 237.053C139.863 236.901 137.522 236.19 135.463 234.994L43.2367 181.398C42.7075 181.093 42.2069 180.712 41.7445 180.264C41.7302 180.249 41.7159 180.23 41.7063 180.211L39.7136 175.887V213.24C39.7136 218.589 42.5883 223.585 47.2127 226.274H47.208Z" fill="#192147"/>
<path d="M211.441 183.114L100.56 118.678C99.9259 119.684 99.0582 120.699 98.0284 121.705L42.24 168.821C41.7346 169.246 41.3056 169.718 40.9432 170.223C40.3998 170.981 40.0184 171.815 39.7895 172.678C39.637 173.255 39.5512 173.842 39.5369 174.433C39.513 175.4 39.6751 176.368 40.0088 177.284C40.1471 177.665 40.3187 178.032 40.5189 178.39C40.7144 178.742 40.9337 179.086 41.1912 179.405C41.7632 180.12 42.4736 180.75 43.3317 181.245L135.558 234.841C137.646 236.056 139.939 236.729 142.246 236.876C143.014 236.924 143.786 236.915 144.554 236.848C145.321 236.781 146.079 236.657 146.828 236.471C149.073 235.923 151.214 234.865 153.064 233.306L208.909 186.141C209.93 185.279 210.783 184.254 211.441 183.114Z" fill="#F1EEEA"/>
<path d="M264.417 68.0379C264.417 66.622 264.031 65.2585 263.349 64.0714L229.557 83.5797L228.442 84.2233C229.038 85.5773 229.243 87.1029 228.971 88.6284L219.87 139.683L212.79 179.4C212.5 181.04 211.851 182.585 210.912 183.934C210.912 183.934 210.912 183.934 210.912 183.939C210.75 184.172 210.569 184.401 210.388 184.625C210.359 184.659 210.34 184.692 210.311 184.725C210.154 184.916 209.982 185.097 209.811 185.274C209.753 185.336 209.701 185.398 209.644 185.46C209.515 185.593 209.372 185.712 209.234 185.836C209.124 185.936 209.024 186.041 208.91 186.137L153.064 233.301C151.219 234.86 149.078 235.923 146.828 236.466C146.185 236.624 145.531 236.729 144.878 236.8V237.034L145.074 280.994C147.729 281.004 150.385 280.327 152.759 278.954L199.894 251.741L261.003 216.457C261.742 216.028 262.395 215.49 262.939 214.865C263.049 214.741 263.153 214.612 263.254 214.479C263.454 214.217 263.64 213.94 263.802 213.654C263.883 213.511 263.964 213.363 264.035 213.216C264.183 212.92 264.307 212.615 264.417 212.3C264.684 211.514 264.822 210.679 264.822 209.826L264.422 68.0331L264.417 68.0379Z" fill="#8C8679"/>
<path d="M145.131 281.176C145.012 281.176 144.892 281.114 144.892 280.999L144.697 236.805C144.697 236.715 144.764 236.638 144.854 236.624C145.555 236.548 146.184 236.438 146.78 236.295C149.035 235.747 151.166 234.665 152.94 233.163L208.785 185.999C208.852 185.942 208.919 185.88 208.986 185.818L209.224 185.598C209.319 185.513 209.415 185.427 209.51 185.336C209.539 185.308 209.567 185.274 209.591 185.246C209.62 185.217 209.644 185.184 209.672 185.155C209.839 184.979 210.011 184.802 210.163 184.616L210.239 184.516C210.449 184.259 210.616 184.039 210.754 183.839C211.694 182.49 212.318 180.988 212.604 179.372L228.785 88.5955C229.042 87.1414 228.866 85.654 228.265 84.2953C228.227 84.2094 228.265 84.1141 228.341 84.0664L263.249 63.9097C263.334 63.8621 263.444 63.8907 263.492 63.9765C264.202 65.2065 264.579 66.6081 264.583 68.0336L264.984 209.826C264.984 210.689 264.846 211.543 264.569 212.358C264.459 212.677 264.331 212.992 264.178 213.297C264.102 213.45 264.026 213.597 263.94 213.745C263.773 214.036 263.582 214.322 263.377 214.589C263.272 214.723 263.167 214.856 263.058 214.985C262.491 215.633 261.828 216.181 261.079 216.615L152.83 279.111C150.489 280.465 147.82 281.176 145.112 281.176H145.131ZM145.059 236.963V237.034L145.25 280.813C147.853 280.794 150.413 280.098 152.668 278.797L260.917 216.301C261.632 215.891 262.266 215.366 262.805 214.746C262.91 214.622 263.015 214.499 263.11 214.37C263.306 214.112 263.487 213.845 263.644 213.564C263.725 213.426 263.802 213.283 263.873 213.14C264.016 212.849 264.14 212.549 264.245 212.244C264.507 211.466 264.641 210.651 264.641 209.826L264.24 68.0336C264.24 66.7321 263.906 65.4496 263.282 64.3102L228.666 84.2953C229.242 85.6826 229.409 87.1843 229.147 88.6575L212.966 179.434C212.671 181.098 212.027 182.647 211.06 184.039C210.912 184.254 210.74 184.473 210.526 184.74L210.497 184.778C210.497 184.778 210.464 184.821 210.449 184.84C210.287 185.031 210.116 185.217 209.944 185.398C209.92 185.427 209.896 185.451 209.872 185.479C209.839 185.517 209.81 185.551 209.772 185.584C209.677 185.679 209.577 185.77 209.472 185.861L209.238 186.075C209.167 186.142 209.1 186.209 209.024 186.271L153.178 233.435C151.362 234.97 149.178 236.081 146.871 236.638C146.304 236.777 145.712 236.882 145.059 236.958V236.963Z" fill="#192147"/>
<path d="M100.56 118.673L211.441 183.11C212.099 181.97 212.557 180.721 212.79 179.405L228.971 88.6334C229.043 88.2377 229.081 87.842 229.09 87.4511C229.104 86.8647 229.047 86.2831 228.928 85.7158C228.847 85.3391 228.742 84.972 228.609 84.6145C228.475 84.2569 228.313 83.9089 228.127 83.5752C227.474 82.4072 226.511 81.4012 225.3 80.7004L123.744 21.6844C121.456 20.3543 118.538 21.7035 118.071 24.3113L101.91 114.969C101.676 116.285 101.213 117.534 100.56 118.673Z" fill="#E2DED5"/>
<path d="M211.441 183.291C211.407 183.291 211.379 183.281 211.35 183.267L100.469 118.83C100.383 118.783 100.355 118.673 100.402 118.587C101.056 117.452 101.504 116.227 101.733 114.94L117.894 24.2825C118.128 22.981 118.948 21.9179 120.144 21.3601C121.346 20.8023 122.685 20.8643 123.83 21.5317L225.385 80.5477C226.596 81.2533 227.597 82.2688 228.279 83.494C228.47 83.8325 228.637 84.1901 228.775 84.5572C228.913 84.9242 229.023 85.3056 229.104 85.687C229.228 86.2687 229.285 86.8646 229.271 87.4605C229.261 87.8658 229.223 88.271 229.152 88.6667L212.971 179.439C212.733 180.769 212.275 182.032 211.598 183.2C211.574 183.243 211.536 183.272 211.488 183.281C211.474 183.281 211.46 183.286 211.441 183.286V183.291ZM100.803 118.606L211.374 182.866C211.979 181.775 212.394 180.602 212.613 179.377L228.794 88.6047C228.861 88.2233 228.899 87.8372 228.908 87.451C228.923 86.8837 228.866 86.3163 228.751 85.7585C228.675 85.3962 228.57 85.0339 228.436 84.6811C228.303 84.3331 228.146 83.9898 227.965 83.6656C227.311 82.4976 226.358 81.5298 225.204 80.8576L123.648 21.8416C122.609 21.2362 121.384 21.1837 120.292 21.6843C119.2 22.1896 118.452 23.1622 118.242 24.3445L102.081 115.002C101.856 116.27 101.423 117.486 100.798 118.611L100.803 118.606Z" fill="#192147"/>
<path d="M112.441 110.206L125.298 38.0607C125.646 36.106 127.835 35.0906 129.551 36.0917L215.884 86.2641C217.963 87.4703 219.064 89.8492 218.64 92.2139L205.782 164.359C205.434 166.314 203.246 167.329 201.53 166.328L115.196 116.156C113.118 114.95 112.016 112.571 112.441 110.206Z" fill="#8C8679"/>
<path d="M202.97 166.901C202.445 166.901 201.921 166.762 201.449 166.486L115.115 116.314C112.98 115.074 111.84 112.609 112.274 110.178L125.132 38.0324C125.308 37.0408 125.933 36.2303 126.848 35.806C127.763 35.3817 128.784 35.4294 129.651 35.9347L215.985 86.1071C218.121 87.3467 219.26 89.8114 218.831 92.2428L205.973 164.388C205.797 165.38 205.172 166.19 204.262 166.615C203.847 166.805 203.413 166.901 202.979 166.901H202.97ZM128.121 35.8823C127.74 35.8823 127.353 35.9681 126.991 36.135C126.185 36.5068 125.632 37.2219 125.48 38.0991L112.622 110.245C112.217 112.528 113.29 114.845 115.292 116.008L201.625 166.181C202.393 166.629 203.294 166.667 204.1 166.295C204.905 165.923 205.458 165.208 205.611 164.331L218.469 92.1856C218.874 89.902 217.801 87.5851 215.799 86.4218L129.465 36.2494C129.046 36.0062 128.583 35.8823 128.121 35.8823Z" fill="#192147"/>
<path d="M116.146 111.622L129.328 36.177L215.733 86.4591C217.816 87.67 218.913 90.0585 218.484 92.4279L205.593 163.382L116.141 111.622H116.146Z" fill="#192147"/>
<path d="M123.167 103.622L133.617 38.5608L215.732 86.4591C217.815 87.6701 218.911 90.0586 218.482 92.428L206.545 156.23L126.948 111.173C124.192 109.729 122.671 106.692 123.162 103.622H123.167Z" fill="#3E4771"/>
<path d="M133.308 69.8968L134.686 70.7359C136.135 71.6178 136.95 73.0862 136.645 75.0885C136.34 77.0908 135.239 77.4532 133.856 76.6093L132.412 75.7274L133.308 69.8968ZM133.894 75.4699C134.671 75.9419 135.272 75.7798 135.487 74.3829C135.701 72.9861 135.239 72.2328 134.462 71.7609L134.276 71.6464L133.708 75.3555L133.894 75.4699Z" fill="#3DB67B"/>
<path d="M137.209 77.4426L138.377 78.153L138.935 74.5345L137.767 73.8241L137.939 72.7181L141.4 74.8301L141.228 75.9361L140.06 75.2258L139.502 78.8442L140.67 79.5546L140.499 80.6606L137.038 78.5486L137.209 77.4426Z" fill="#3DB67B"/>
<path d="M141.575 80.5098L142.362 79.9997C142.686 80.5909 143.11 81.12 143.596 81.4156C144.083 81.7112 144.331 81.6254 144.373 81.3393C144.44 80.9198 144.159 80.6385 143.72 80.1189L143.12 79.399C142.605 78.8174 142.176 78.0117 142.304 77.1631C142.452 76.1953 143.315 75.8806 144.402 76.5385C145.003 76.9056 145.57 77.5397 145.942 78.312L145.246 78.7983C144.941 78.2882 144.655 77.9402 144.164 77.6398C143.792 77.411 143.511 77.4396 143.458 77.7781C143.406 78.1166 143.72 78.4598 144.168 78.9604L144.731 79.6374C145.341 80.3239 145.68 81.0485 145.556 81.8733C145.408 82.8411 144.583 83.2558 143.344 82.5026C142.667 82.0926 142.014 81.3775 141.57 80.5003L141.575 80.5098Z" fill="#3DB67B"/>
<path d="M147.086 78.2911L148.23 78.9872L147.863 81.3661L147.891 81.3852L149.727 79.9025L150.981 80.6653L147.572 83.2254L147.329 84.8177L146.185 84.1217L147.081 78.2911H147.086ZM148.23 82.4054L149.05 81.7809L150.227 86.5865L148.974 85.8237L148.23 82.4102V82.4054Z" fill="#3DB67B"/>
<path d="M156.483 84.0177L159.796 86.0343L159.624 87.1403L157.446 85.8102L157.265 86.9782L159.119 88.1081L158.947 89.2141L157.093 88.0843L156.888 89.4287L159.143 90.8017L158.971 91.9077L155.582 89.8434L156.478 84.0129L156.483 84.0177Z" fill="#3DB67B"/>
<path d="M160.883 86.6972L162.042 87.4028L162.647 90.9402L162.881 92.4849L162.905 92.4992C162.948 91.8556 162.967 90.9736 163.076 90.2823L163.391 88.2228L164.468 88.8807L163.572 94.7112L162.414 94.0057L161.808 90.4587L161.575 88.9236L161.546 88.9093C161.498 89.5863 161.484 90.4301 161.379 91.1166L161.06 93.1857L159.982 92.5278L160.879 86.6972H160.883Z" fill="#3DB67B"/>
<path d="M164.94 92.3934C165.235 90.4578 166.456 89.9763 167.795 90.7916C168.429 91.1777 168.892 91.8452 169.173 92.4411L168.425 92.8797C168.224 92.4745 167.981 92.1503 167.619 91.931C166.909 91.4971 166.284 91.8881 166.103 93.0561C165.922 94.2241 166.332 95.2682 167.085 95.7259C167.447 95.9452 167.776 95.9213 168.062 95.7592L168.563 96.9368C168.067 97.2514 167.466 97.2037 166.794 96.7937C165.55 96.0357 164.639 94.3624 164.94 92.3934Z" fill="#3DB67B"/>
<path d="M170.108 92.3176L171.881 93.3998C172.94 94.0434 173.745 95.0065 173.531 96.3938C173.316 97.7811 172.367 97.7811 171.309 97.1375L170.665 96.7466L170.341 98.8442L169.207 98.153L170.103 92.3224L170.108 92.3176ZM171.381 96.0315C171.972 96.3938 172.339 96.2889 172.425 95.7168C172.51 95.1447 172.224 94.7538 171.628 94.3915L171.075 94.0577L170.823 95.6977L171.376 96.0315H171.381ZM172.072 96.2937L173.159 100.556L171.895 99.7834L171.161 96.6607L172.072 96.2937Z" fill="#3DB67B"/>
<path d="M175.32 99.7174L174.304 94.8785L175.51 95.6127L175.801 97.3242C175.877 97.8629 175.963 98.3778 176.049 98.9356L176.078 98.9546C176.307 98.5828 176.531 98.2586 176.75 97.901L177.465 96.8045L178.643 97.5244L176.44 100.404L176.135 102.378L175.005 101.686L175.31 99.7127L175.32 99.7174Z" fill="#3DB67B"/>
<path d="M179.352 97.9482L181.126 99.0257C182.208 99.6884 183.014 100.675 182.794 102.096C182.575 103.517 181.593 103.526 180.535 102.883L179.891 102.492L179.586 104.47L178.456 103.784L179.352 97.953V97.9482ZM180.625 101.796C181.245 102.172 181.588 102.029 181.684 101.424C181.779 100.818 181.493 100.403 180.897 100.036L180.32 99.6836L180.048 101.443L180.625 101.796Z" fill="#3DB67B"/>
<path d="M184.944 102.567L183.447 101.657L183.619 100.551L187.743 103.063L187.571 104.169L186.074 103.258L185.349 107.983L184.22 107.296L184.944 102.572V102.567Z" fill="#3DB67B"/>
<path d="M187.824 108.28L188.992 108.99L189.55 105.372L188.382 104.661L188.553 103.555L192.014 105.667L191.843 106.773L190.675 106.063L190.117 109.681L191.285 110.392L191.113 111.498L187.652 109.386L187.824 108.28Z" fill="#3DB67B"/>
<path d="M192.429 109.075C192.729 107.125 193.707 106.577 194.899 107.302C196.09 108.027 196.748 109.576 196.448 111.521C196.148 113.466 195.161 114.072 193.969 113.347C192.777 112.622 192.124 111.068 192.429 109.071V109.075ZM195.29 110.815C195.475 109.605 195.247 108.761 194.722 108.441C194.198 108.122 193.773 108.57 193.588 109.781C193.402 110.992 193.621 111.893 194.145 112.208C194.67 112.522 195.094 112.074 195.29 110.815Z" fill="#3DB67B"/>
<path d="M197.692 109.123L198.85 109.828L199.456 113.366L199.685 114.91L199.709 114.925C199.751 114.281 199.771 113.399 199.88 112.708L200.195 110.648L201.272 111.306L200.376 117.137L199.217 116.431L198.612 112.884L198.378 111.349L198.355 111.335C198.307 112.012 198.293 112.856 198.188 113.542L197.868 115.611L196.791 114.953L197.687 109.123H197.692Z" fill="#3DB67B"/>
<path d="M131.825 80.7475L135.139 82.7641L134.967 83.8702L132.788 82.5401L132.607 83.7081L134.462 84.838L134.29 85.944L132.436 84.8141L132.231 86.1585L134.486 87.5315L134.314 88.6376L130.924 86.5733L131.821 80.7427L131.825 80.7475Z" fill="#3DB67B"/>
<path d="M136.226 83.4268L137.384 84.1323L137.99 87.6698L138.219 89.2144L138.242 89.2287C138.285 88.5851 138.304 87.7031 138.414 87.0119L138.729 84.9523L139.806 85.6102L138.91 91.4408L137.751 90.7352L137.146 87.1883L136.912 85.6531L136.884 85.6388C136.836 86.3158 136.822 87.1596 136.717 87.8462L136.397 89.9152L135.32 89.2573L136.216 83.4268H136.226Z" fill="#3DB67B"/>
<path d="M141.942 86.9117L143.296 87.7365L143.953 94.5157L142.757 93.7863L142.566 90.4396C142.528 89.7817 142.48 89.0046 142.457 88.3133L142.428 88.2943C142.213 88.8377 141.965 89.4337 141.751 89.939L140.65 92.4944L139.491 91.7888L141.942 86.9022V86.9117ZM140.893 90.0058L143.281 91.4598L143.124 92.4896L140.735 91.0355L140.893 90.0058Z" fill="#3DB67B"/>
<path d="M145.484 89.0704L147.162 90.0954C148.201 90.7295 148.94 91.54 148.768 92.6555C148.687 93.18 148.335 93.5757 147.72 93.3945V93.4279C148.406 94.0143 148.711 94.6817 148.592 95.4636C148.411 96.6506 147.496 96.6745 146.409 96.0118L144.587 94.901L145.484 89.0704ZM146.752 92.4029C147.3 92.7366 147.572 92.6079 147.639 92.1645C147.705 91.7211 147.486 91.4112 146.962 91.0918L146.451 90.7819L146.251 92.0978L146.752 92.4029ZM146.475 94.9296C147.09 95.3062 147.424 95.2252 147.505 94.6912C147.586 94.1573 147.329 93.7949 146.709 93.4136L146.108 93.0465L145.875 94.5625L146.475 94.9296Z" fill="#3DB67B"/>
<path d="M150.339 92.0274L151.468 92.7139L150.744 97.4384L152.965 98.7924L152.794 99.8984L149.442 97.858L150.339 92.0274Z" fill="#3DB67B"/>
<path d="M154.828 94.763L158.141 96.7796L157.97 97.8856L155.791 96.5555L155.61 97.7235L157.464 98.8534L157.293 99.9594L155.438 98.8296L155.233 100.174L157.488 101.547L157.317 102.653L153.927 100.589L154.823 94.7582L154.828 94.763Z" fill="#3DB67B"/>
<path d="M159.263 97.4618L160.646 98.3008C162.095 99.1828 162.91 100.651 162.605 102.654C162.3 104.656 161.199 105.018 159.816 104.174L158.372 103.292L159.268 97.4618H159.263ZM159.85 103.035C160.627 103.507 161.227 103.345 161.442 101.948C161.656 100.556 161.194 99.7978 160.417 99.3259L160.231 99.2114L159.664 102.92L159.85 103.035Z" fill="#3DB67B"/>
<path d="M165.846 102.954C165.903 102.587 165.684 102.243 165.364 102.048C165.045 101.852 164.788 101.886 164.516 101.981L163.991 100.932C164.435 100.68 164.997 100.661 165.603 101.028C166.48 101.562 167.1 102.458 166.947 103.445C166.766 104.622 165.493 104.007 165.426 105.099L164.44 104.498C164.459 103.206 165.736 103.621 165.841 102.954H165.846ZM163.977 105.833C164.058 105.299 164.44 105.137 164.883 105.404C165.326 105.671 165.593 106.234 165.512 106.768C165.431 107.302 165.045 107.478 164.606 107.211C164.168 106.944 163.896 106.367 163.982 105.833H163.977Z" fill="#3DB67B"/>
<path d="M125.647 59.4858C158.118 66.1459 188.019 82.4839 215.065 109.611L218.493 92.6576C218.955 90.0879 217.758 87.5087 215.503 86.1977L129.699 36.4543L125.652 59.4906L125.647 59.4858Z" fill="#192147"/>
<path d="M205.744 163.836C205.716 163.836 205.682 163.826 205.654 163.812L116.203 112.052C116.136 112.014 116.102 111.942 116.117 111.866L129.299 36.4216C129.318 36.3262 129.404 36.2547 129.504 36.2785C129.599 36.2976 129.666 36.3882 129.647 36.4835L116.489 111.804L205.83 163.502C205.916 163.55 205.945 163.659 205.897 163.745C205.864 163.802 205.802 163.836 205.744 163.836Z" fill="#192147"/>
<path d="M112.917 113.863C112.855 113.863 112.793 113.829 112.76 113.767C112.712 113.682 112.746 113.572 112.836 113.524L116.211 111.732C116.297 111.684 116.407 111.717 116.455 111.808C116.502 111.894 116.469 112.003 116.378 112.051L113.003 113.844C112.974 113.858 112.946 113.863 112.917 113.863Z" fill="#192147"/>
<path d="M260.45 61.1623L238.802 48.581L160.11 2.85185C157.746 1.47883 154.823 1.47407 152.454 2.84709L120.083 21.5926C121.399 21.2112 122.634 21.1921 123.74 21.6832L225.295 80.6992C226.726 81.5287 227.808 82.7778 228.442 84.2271L263.349 64.0704C262.663 62.8833 261.676 61.8726 260.45 61.1623Z" fill="#F1EEEA"/>
<path d="M228.442 84.4047C228.442 84.4047 228.404 84.4047 228.384 84.3952C228.337 84.3808 228.299 84.3427 228.275 84.295C227.636 82.8362 226.573 81.6443 225.2 80.8482L123.644 21.8322C122.643 21.3888 121.484 21.365 120.126 21.7607C120.04 21.7845 119.949 21.7416 119.911 21.6606C119.878 21.5795 119.911 21.4794 119.987 21.4365L152.358 2.69097C154.775 1.29411 157.779 1.29411 160.191 2.69573L260.531 61.0061C261.761 61.7213 262.786 62.751 263.497 63.981C263.544 64.0668 263.516 64.1765 263.43 64.2242L228.523 84.3808C228.494 84.3952 228.466 84.4047 228.432 84.4047H228.442ZM121.913 21.1266C122.59 21.1266 123.22 21.2553 123.811 21.5175L225.381 80.5431C226.759 81.344 227.841 82.5263 228.518 83.9708L263.101 64.0049C262.424 62.894 261.48 61.9692 260.355 61.316L160.015 3.00562C157.712 1.66597 154.847 1.66597 152.539 3.00085L121.146 21.1791C121.408 21.1457 121.661 21.1266 121.909 21.1266H121.913Z" fill="#192147"/>
<path d="M143.214 237.144C142.885 237.144 142.556 237.134 142.227 237.11C139.848 236.958 137.498 236.243 135.433 235.046L43.2074 181.451C38.4543 178.314 38.8357 175.172 38.8548 175.038L39.3268 175.105C39.3268 175.134 38.9883 178.094 43.4601 181.045L135.676 234.636C137.679 235.799 139.958 236.491 142.265 236.638C143.018 236.686 143.786 236.676 144.534 236.61C144.592 236.605 144.649 236.595 144.711 236.591L144.859 236.572L144.911 237.044L144.777 237.063C144.711 237.072 144.644 237.082 144.577 237.086C144.129 237.125 143.671 237.144 143.219 237.144H143.214Z" fill="#192147"/>
<path d="M144.906 237.044L144.854 236.572C145.555 236.496 146.179 236.391 146.775 236.243C149.021 235.695 151.142 234.617 152.911 233.125L208.757 185.961C208.823 185.904 208.89 185.842 208.952 185.78L209.19 185.561C209.286 185.475 209.381 185.389 209.472 185.298C209.5 185.27 209.524 185.241 209.553 185.208C209.581 185.174 209.61 185.146 209.639 185.112C209.805 184.936 209.972 184.76 210.13 184.574L210.206 184.474C210.416 184.216 210.578 184.002 210.721 183.801L210.749 183.763C211.655 182.457 212.275 180.965 212.561 179.358L228.413 88.7532C228.942 85.7259 227.516 82.6509 224.866 81.1015L125.241 22.8626C122.876 21.5086 121.036 21.0795 119.773 21.5944C118.891 21.952 118.257 22.791 117.889 24.0925L117.432 23.9638C117.842 22.5193 118.571 21.5706 119.596 21.1558C121.003 20.5837 122.981 21.0176 125.484 22.4526L225.114 80.6962C227.936 82.3457 229.452 85.621 228.889 88.839L213.038 179.444C212.737 181.117 212.094 182.676 211.121 184.073C210.973 184.288 210.802 184.512 210.583 184.779C210.54 184.836 210.521 184.86 210.501 184.884C210.339 185.074 210.168 185.26 209.991 185.441L209.92 185.522C209.886 185.561 209.853 185.599 209.82 185.632C209.724 185.727 209.62 185.823 209.519 185.913L209.291 186.123C209.219 186.19 209.148 186.257 209.076 186.323L153.23 233.487C151.404 235.027 149.216 236.143 146.899 236.706C146.284 236.853 145.636 236.963 144.916 237.044H144.906Z" fill="#192147"/>
<path d="M156.277 1.8186C157.602 1.8186 158.923 2.16186 160.11 2.85314L238.801 48.5823L260.45 61.1635C261.675 61.8739 262.667 62.8846 263.348 64.0717C264.035 65.2588 264.412 66.6223 264.416 68.0382L264.817 209.831C264.817 210.684 264.678 211.519 264.412 212.305C264.307 212.62 264.178 212.925 264.03 213.221C263.959 213.368 263.878 213.516 263.797 213.659C263.63 213.945 263.448 214.222 263.248 214.484C263.148 214.618 263.043 214.741 262.934 214.87C262.39 215.495 261.737 216.033 260.998 216.463L199.889 251.746L152.754 278.959C150.394 280.322 147.762 280.999 145.126 280.999C145.111 280.999 145.102 280.999 145.088 280.999C145.088 280.999 145.073 280.999 145.064 280.999C142.437 280.99 139.81 280.303 137.46 278.935L52.404 229.506L47.1169 226.431C42.4163 223.699 39.5272 218.675 39.5272 213.24L39.5463 175.286V175.11C39.532 174.886 39.5272 174.657 39.532 174.428C39.5463 173.837 39.6321 173.251 39.7846 172.674C40.0135 171.811 40.3949 170.976 40.9384 170.218C41.3007 169.713 41.7298 169.241 42.2351 168.817L98.0235 121.7C99.0533 120.694 99.921 119.674 100.555 118.673C101.213 117.534 101.671 116.285 101.904 114.969L118.066 24.3113C118.29 23.0623 119.076 22.1088 120.082 21.5939L120.488 21.3555L152.453 2.8436C153.636 2.15709 154.956 1.8186 156.277 1.8186ZM156.277 1.34186C154.851 1.34186 153.45 1.71849 152.215 2.4336L120.249 20.9455L119.854 21.1791C118.657 21.7989 117.832 22.9097 117.599 24.2303L101.437 114.888C101.213 116.142 100.779 117.333 100.145 118.439C99.573 119.345 98.7482 120.332 97.7041 121.352L41.93 168.455C41.4056 168.898 40.9431 169.398 40.5522 169.942C39.9849 170.733 39.5749 171.611 39.3222 172.55C39.1601 173.155 39.0695 173.785 39.0552 174.414C39.0505 174.638 39.0552 174.867 39.0695 175.119V175.281L39.0504 213.235C39.0504 218.818 42.0492 224.033 46.8786 226.836L52.1656 229.911L137.221 279.34C139.6 280.723 142.313 281.457 145.064 281.471H145.088H145.564V281.462C148.172 281.39 150.732 280.665 152.992 279.364L200.128 252.151L261.236 216.868C262.014 216.42 262.705 215.852 263.291 215.175C263.406 215.042 263.52 214.904 263.625 214.765C263.839 214.489 264.035 214.193 264.207 213.888C264.292 213.736 264.378 213.578 264.454 213.426C264.607 213.111 264.745 212.782 264.855 212.453C265.141 211.605 265.289 210.723 265.284 209.826L264.884 68.0334C264.884 66.5603 264.488 65.1062 263.749 63.8285C263.01 62.5509 261.947 61.4877 260.674 60.744L239.025 48.1628L160.334 2.4336C159.099 1.71372 157.693 1.3371 156.262 1.3371L156.277 1.34186Z" fill="#192147"/>
<path d="M192.762 188.416C192.719 187.458 192.48 186.5 192.051 185.565C191.684 184.764 191.174 183.982 190.521 183.229C189.935 182.552 189.234 181.899 188.419 181.284C187.918 180.907 187.375 180.54 186.788 180.188C186.464 179.997 186.135 179.811 185.797 179.63C184.848 179.129 183.842 178.691 182.788 178.309C181.692 177.914 180.548 177.58 179.37 177.308C178.088 177.012 176.767 176.793 175.427 176.65C173.84 176.479 172.224 176.417 170.612 176.459C167.938 176.526 165.278 176.889 162.794 177.546C160.667 178.109 158.67 178.886 156.896 179.882C156.768 179.954 156.644 180.026 156.52 180.097C154.374 181.36 152.801 182.834 151.8 184.402C151.18 185.37 150.78 186.376 150.599 187.396C150.446 188.245 150.451 189.103 150.603 189.951C150.746 190.724 151.013 191.486 151.404 192.235C151.776 192.94 152.258 193.627 152.854 194.294C153.435 194.948 154.127 195.577 154.927 196.173C155.404 196.526 155.914 196.869 156.467 197.203C156.868 197.441 157.278 197.67 157.702 197.884C158.808 198.447 159.99 198.933 161.23 199.343C162.679 199.82 164.21 200.192 165.778 200.454C167.847 200.802 169.988 200.964 172.124 200.94C177.268 200.878 182.383 199.739 186.364 197.508C189.115 195.963 190.984 194.089 191.961 192.101C192.552 190.9 192.819 189.66 192.762 188.421V188.416Z" fill="#E2DED5"/>
<path d="M171.689 201.123C169.677 201.123 167.68 200.961 165.744 200.632C164.152 200.365 162.612 199.988 161.172 199.511C159.909 199.097 158.712 198.601 157.62 198.043C157.191 197.824 156.772 197.595 156.371 197.356C155.818 197.028 155.299 196.679 154.817 196.317C154.021 195.721 153.311 195.082 152.715 194.415C152.119 193.748 151.623 193.042 151.242 192.322C150.841 191.564 150.565 190.777 150.422 189.986C150.264 189.118 150.259 188.236 150.417 187.364C150.603 186.315 151.013 185.285 151.642 184.308C152.691 182.668 154.297 181.2 156.424 179.946C156.548 179.874 156.676 179.803 156.8 179.727C158.55 178.744 160.548 177.953 162.741 177.371C165.22 176.713 167.861 176.346 170.602 176.275C172.223 176.232 173.849 176.299 175.441 176.47C176.795 176.613 178.13 176.837 179.407 177.128C180.599 177.4 181.758 177.738 182.85 178.134C183.922 178.52 184.942 178.968 185.882 179.464C186.215 179.641 186.554 179.827 186.883 180.027C187.469 180.375 188.022 180.752 188.532 181.133C189.348 181.748 190.063 182.411 190.663 183.107C191.321 183.86 191.841 184.661 192.222 185.481C192.661 186.43 192.904 187.412 192.947 188.398C193.004 189.676 192.728 190.944 192.127 192.165C191.102 194.248 189.143 196.141 186.459 197.652C182.597 199.821 177.51 201.046 172.132 201.108C171.989 201.108 171.842 201.108 171.699 201.108L171.689 201.123ZM171.551 176.628C171.236 176.628 170.926 176.628 170.612 176.642C167.904 176.713 165.286 177.076 162.836 177.724C160.671 178.296 158.703 179.078 156.977 180.046C156.853 180.117 156.729 180.189 156.605 180.26C154.531 181.486 152.963 182.911 151.947 184.508C151.346 185.447 150.951 186.434 150.774 187.435C150.627 188.265 150.631 189.104 150.779 189.929C150.917 190.687 151.18 191.435 151.566 192.165C151.933 192.861 152.41 193.538 152.986 194.186C153.568 194.834 154.255 195.459 155.036 196.041C155.508 196.393 156.023 196.737 156.562 197.056C156.953 197.29 157.368 197.519 157.787 197.733C158.865 198.281 160.042 198.768 161.286 199.178C162.712 199.645 164.233 200.017 165.811 200.284C167.866 200.627 169.997 200.789 172.128 200.765C177.443 200.703 182.473 199.492 186.282 197.352C188.904 195.879 190.816 194.038 191.808 192.022C192.384 190.854 192.647 189.643 192.589 188.427C192.547 187.488 192.313 186.553 191.898 185.643C191.536 184.851 191.03 184.079 190.396 183.35C189.81 182.678 189.114 182.029 188.318 181.428C187.822 181.052 187.278 180.685 186.702 180.342C186.377 180.146 186.049 179.965 185.72 179.788C184.795 179.302 183.789 178.859 182.73 178.477C181.653 178.087 180.509 177.753 179.331 177.481C178.068 177.19 176.747 176.971 175.408 176.828C174.139 176.69 172.848 176.623 171.556 176.623L171.551 176.628Z" fill="#192147"/>
<path d="M190.678 184.579C190.668 184.946 190.625 185.308 190.554 185.67C190.482 186.033 190.377 186.39 190.244 186.743C190.105 187.105 189.939 187.468 189.738 187.825C189.519 188.211 189.262 188.593 188.971 188.965C188.632 189.394 188.241 189.818 187.803 190.223C187.111 190.862 186.296 191.472 185.357 192.035C185.209 192.125 185.062 192.211 184.904 192.297C183.684 192.979 182.349 193.551 180.938 194.009C179.789 194.38 178.592 194.676 177.362 194.895C176.561 195.038 175.751 195.153 174.926 195.234C174.22 195.305 173.51 195.353 172.8 195.377C172.151 195.401 171.503 195.401 170.855 195.386C170.225 195.372 169.601 195.339 168.976 195.286C168.352 195.234 167.737 195.167 167.122 195.081C166.483 194.991 165.854 194.881 165.229 194.752C164.547 194.609 163.88 194.447 163.227 194.261C162.431 194.032 161.658 193.775 160.914 193.479C159.861 193.065 158.86 192.578 157.935 192.025C154.326 189.866 152.533 187.081 152.538 184.302L152.529 187.539C152.519 190.319 154.312 193.107 157.925 195.262C158.85 195.815 159.847 196.297 160.905 196.716C161.649 197.012 162.421 197.269 163.217 197.498C163.87 197.684 164.538 197.846 165.219 197.989C165.839 198.118 166.473 198.228 167.112 198.318C167.727 198.404 168.342 198.476 168.967 198.523C169.591 198.576 170.216 198.609 170.845 198.623C171.493 198.638 172.142 198.638 172.79 198.614C173.5 198.59 174.211 198.542 174.916 198.471C175.736 198.39 176.552 198.275 177.353 198.132C178.583 197.908 179.779 197.613 180.928 197.246C182.344 196.788 183.679 196.221 184.895 195.534C185.047 195.448 185.2 195.363 185.348 195.272C186.287 194.709 187.102 194.104 187.793 193.46C188.232 193.055 188.623 192.631 188.961 192.202C189.257 191.83 189.51 191.448 189.729 191.062C189.929 190.705 190.101 190.342 190.234 189.98C190.368 189.622 190.473 189.265 190.544 188.907C190.616 188.545 190.658 188.178 190.668 187.816C190.668 187.758 190.668 187.701 190.668 187.644L190.678 184.407C190.678 184.464 190.678 184.521 190.678 184.579Z" fill="#BC3857"/>
<path d="M190.673 184.102C190.635 183.239 190.42 182.372 190.034 181.532C189.7 180.813 189.243 180.107 188.656 179.43C188.127 178.82 187.493 178.233 186.759 177.676C186.306 177.332 185.815 177.003 185.286 176.689C184.995 176.517 184.695 176.345 184.389 176.188C183.536 175.74 182.625 175.34 181.677 174.996C180.69 174.639 179.655 174.338 178.592 174.095C177.439 173.828 176.247 173.633 175.036 173.504C173.606 173.352 172.147 173.294 170.697 173.332C168.285 173.394 165.887 173.723 163.646 174.315C161.73 174.82 159.928 175.526 158.326 176.422C158.212 176.484 158.097 176.551 157.987 176.617C156.052 177.757 154.636 179.082 153.73 180.498C153.172 181.37 152.81 182.281 152.648 183.196C152.51 183.964 152.514 184.736 152.653 185.504C152.781 186.2 153.02 186.891 153.377 187.563C153.711 188.197 154.145 188.822 154.684 189.418C155.208 190.004 155.833 190.571 156.552 191.11C156.981 191.43 157.444 191.74 157.94 192.035C158.302 192.25 158.674 192.455 159.055 192.65C160.052 193.16 161.12 193.594 162.235 193.966C163.541 194.395 164.919 194.733 166.335 194.967C168.199 195.282 170.13 195.425 172.061 195.406C176.7 195.353 181.314 194.323 184.904 192.307C187.383 190.915 189.071 189.227 189.953 187.43C190.487 186.348 190.725 185.227 190.678 184.112L190.673 184.102Z" fill="#D66C7B"/>
<path d="M170.83 192.226C170.768 192.226 170.702 192.221 170.635 192.212C169.986 192.107 169.543 191.492 169.648 190.843L172.022 176.26C172.127 175.612 172.737 175.173 173.39 175.273C174.039 175.378 174.482 175.993 174.377 176.641L172.003 191.225C171.908 191.811 171.402 192.226 170.83 192.226Z" fill="white"/>
<path d="M161.711 186.328C161.12 186.328 160.609 185.89 160.528 185.289C160.443 184.636 160.905 184.04 161.558 183.954L182.597 181.213C183.25 181.127 183.846 181.59 183.932 182.243C184.017 182.896 183.555 183.492 182.902 183.578L161.863 186.319C161.811 186.324 161.758 186.328 161.706 186.328H161.711Z" fill="white"/>
<path d="M171.717 198.852C166.445 198.852 161.153 197.617 157.444 195.157C153.382 192.468 151.627 188.702 152.371 184.268L152.724 184.326C151.818 189.741 154.898 193.04 157.644 194.857C164.833 199.62 178.025 199.729 185.319 195.086C188.117 193.303 191.278 190.037 190.53 184.564H190.506V184.397L190.863 184.373C191.54 188.921 189.686 192.731 185.51 195.386C181.877 197.693 176.809 198.842 171.722 198.842L171.717 198.852Z" fill="#192147"/>
<path d="M171.875 195.644C163.356 195.644 154.345 192.359 152.476 185.537C152.162 177.499 160.886 173.881 168.457 173.213C178.602 172.322 189.753 176.136 190.849 184.078V184.097V184.116C190.43 188.96 185.987 194.495 174.783 195.515C173.83 195.601 172.852 195.644 171.875 195.644ZM171.398 173.442C170.426 173.442 169.453 173.485 168.49 173.571C161.077 174.224 152.529 177.738 152.834 185.485C154.86 192.865 165.639 195.987 174.755 195.162C185.724 194.166 190.077 188.807 190.497 184.112C189.515 177.142 180.485 173.447 171.398 173.447V173.442Z" fill="#192147"/>
<path d="M159.39 168.869C159.347 167.911 159.108 166.953 158.679 166.018C158.312 165.217 157.802 164.435 157.149 163.682C156.562 163.005 155.862 162.352 155.046 161.737C154.546 161.36 154.002 160.993 153.416 160.64C153.092 160.45 152.763 160.264 152.424 160.083C151.476 159.582 150.47 159.144 149.416 158.762C148.32 158.366 147.175 158.033 145.998 157.761C144.715 157.465 143.395 157.246 142.055 157.103C140.468 156.931 138.851 156.869 137.24 156.912C134.566 156.979 131.905 157.341 129.421 157.999C127.295 158.562 125.298 159.339 123.524 160.335C123.395 160.407 123.271 160.478 123.148 160.55C121.002 161.813 119.429 163.286 118.428 164.855C117.808 165.823 117.408 166.829 117.226 167.849C117.074 168.697 117.079 169.556 117.231 170.404C117.374 171.177 117.641 171.939 118.032 172.688C118.404 173.393 118.885 174.08 119.481 174.747C120.063 175.4 120.754 176.03 121.555 176.626C122.032 176.978 122.542 177.322 123.095 177.655C123.496 177.894 123.906 178.123 124.33 178.337C125.436 178.9 126.618 179.386 127.858 179.796C129.307 180.273 130.837 180.645 132.406 180.907C134.475 181.255 136.616 181.417 138.751 181.393C143.895 181.331 149.011 180.192 152.992 177.961C155.742 176.416 157.611 174.542 158.589 172.554C159.18 171.353 159.447 170.113 159.39 168.874V168.869Z" fill="#E2DED5"/>
<path d="M138.317 181.575C136.306 181.575 134.308 181.413 132.372 181.084C130.78 180.817 129.24 180.44 127.801 179.963C126.537 179.549 125.341 179.053 124.249 178.495C123.82 178.276 123.4 178.047 123 177.809C122.447 177.48 121.927 177.132 121.446 176.769C120.649 176.173 119.939 175.534 119.343 174.867C118.747 174.2 118.251 173.494 117.87 172.774C117.469 172.016 117.193 171.229 117.05 170.438C116.893 169.57 116.888 168.688 117.045 167.816C117.231 166.767 117.641 165.737 118.27 164.76C119.319 163.12 120.926 161.652 123.052 160.398C123.176 160.326 123.305 160.255 123.429 160.179C125.178 159.196 127.176 158.405 129.369 157.823C131.848 157.166 134.489 156.798 137.231 156.727C138.851 156.689 140.477 156.751 142.069 156.922C143.423 157.065 144.758 157.29 146.036 157.58C147.228 157.852 148.386 158.191 149.478 158.586C150.551 158.972 151.571 159.421 152.51 159.916C152.844 160.093 153.182 160.279 153.511 160.479C154.098 160.827 154.651 161.204 155.161 161.585C155.976 162.2 156.691 162.863 157.292 163.559C157.95 164.312 158.469 165.113 158.851 165.933C159.289 166.882 159.533 167.864 159.575 168.851C159.633 170.128 159.356 171.396 158.755 172.617C157.73 174.7 155.771 176.593 153.087 178.104C149.225 180.273 144.138 181.499 138.761 181.56C138.618 181.56 138.47 181.56 138.327 181.56L138.317 181.575ZM138.179 157.08C137.865 157.08 137.555 157.08 137.24 157.094C134.532 157.166 131.915 157.528 129.464 158.176C127.3 158.748 125.331 159.53 123.605 160.498C123.481 160.57 123.357 160.641 123.233 160.713C121.159 161.938 119.591 163.363 118.576 164.96C117.975 165.899 117.579 166.886 117.403 167.888C117.255 168.717 117.26 169.556 117.408 170.381C117.546 171.139 117.808 171.887 118.194 172.617C118.561 173.313 119.038 173.99 119.615 174.638C120.196 175.287 120.883 175.911 121.665 176.493C122.137 176.845 122.652 177.189 123.19 177.508C123.581 177.742 123.996 177.971 124.416 178.185C125.493 178.733 126.671 179.22 127.915 179.63C129.34 180.097 130.861 180.469 132.439 180.736C134.494 181.079 136.625 181.241 138.756 181.217C144.072 181.155 149.101 179.944 152.911 177.804C155.533 176.331 157.444 174.49 158.436 172.474C159.013 171.306 159.275 170.095 159.218 168.879C159.175 167.94 158.941 167.006 158.527 166.095C158.164 165.304 157.659 164.531 157.025 163.802C156.438 163.13 155.742 162.481 154.946 161.881C154.45 161.504 153.907 161.137 153.33 160.794C153.006 160.598 152.677 160.417 152.348 160.241C151.423 159.754 150.417 159.311 149.359 158.93C148.281 158.539 147.137 158.205 145.96 157.933C144.696 157.642 143.376 157.423 142.036 157.28C140.768 157.142 139.476 157.075 138.184 157.075L138.179 157.08Z" fill="#192147"/>
<path d="M157.32 165.08C157.31 165.447 157.267 165.81 157.196 166.172C157.124 166.534 157.019 166.892 156.886 167.245C156.748 167.607 156.581 167.969 156.381 168.327C156.161 168.713 155.904 169.094 155.613 169.466C155.275 169.895 154.884 170.319 154.445 170.725C153.754 171.364 152.939 171.974 151.999 172.536C151.852 172.627 151.704 172.713 151.546 172.799C150.326 173.48 148.991 174.052 147.58 174.51C146.431 174.882 145.234 175.178 144.004 175.397C143.203 175.54 142.393 175.654 141.568 175.735C140.863 175.807 140.152 175.854 139.442 175.878C138.794 175.902 138.145 175.902 137.497 175.888C136.868 175.874 136.243 175.84 135.618 175.788C134.994 175.735 134.379 175.669 133.764 175.583C133.125 175.492 132.496 175.383 131.871 175.254C131.19 175.111 130.522 174.949 129.869 174.763C129.073 174.534 128.3 174.276 127.557 173.981C126.503 173.566 125.502 173.08 124.577 172.527C120.968 170.367 119.176 167.583 119.18 164.804L119.171 168.041C119.161 170.82 120.954 173.609 124.568 175.764C125.492 176.317 126.489 176.798 127.547 177.218C128.291 177.514 129.063 177.771 129.859 178C130.513 178.186 131.18 178.348 131.862 178.491C132.481 178.62 133.116 178.729 133.754 178.82C134.369 178.906 134.984 178.977 135.609 179.025C136.233 179.077 136.858 179.111 137.487 179.125C138.136 179.139 138.784 179.139 139.432 179.115C140.143 179.092 140.853 179.044 141.559 178.972C142.379 178.891 143.194 178.777 143.995 178.634C145.225 178.41 146.421 178.114 147.57 177.747C148.986 177.289 150.321 176.722 151.537 176.036C151.689 175.95 151.842 175.864 151.99 175.773C152.929 175.211 153.744 174.605 154.435 173.962C154.874 173.557 155.265 173.132 155.603 172.703C155.899 172.331 156.152 171.95 156.371 171.564C156.571 171.206 156.743 170.844 156.876 170.482C157.01 170.124 157.115 169.766 157.186 169.409C157.258 169.047 157.301 168.68 157.31 168.317C157.31 168.26 157.31 168.203 157.31 168.146L157.32 164.908C157.32 164.966 157.32 165.023 157.32 165.08Z" fill="#336C42"/>
<path d="M157.315 164.608C157.277 163.745 157.062 162.877 156.676 162.038C156.343 161.318 155.885 160.613 155.299 159.936C154.769 159.325 154.135 158.739 153.401 158.181C152.948 157.838 152.457 157.509 151.928 157.194C151.637 157.023 151.337 156.851 151.032 156.694C150.178 156.246 149.268 155.845 148.319 155.502C147.332 155.144 146.298 154.844 145.234 154.601C144.081 154.334 142.889 154.139 141.678 154.01C140.248 153.857 138.789 153.8 137.34 153.838C134.927 153.9 132.529 154.229 130.289 154.82C128.372 155.326 126.57 156.031 124.968 156.927C124.854 156.989 124.739 157.056 124.63 157.123C122.694 158.262 121.278 159.588 120.372 161.004C119.815 161.876 119.452 162.787 119.29 163.702C119.152 164.47 119.157 165.242 119.295 166.009C119.424 166.705 119.662 167.397 120.02 168.069C120.353 168.703 120.787 169.328 121.326 169.923C121.85 170.51 122.475 171.077 123.195 171.616C123.624 171.935 124.086 172.245 124.582 172.541C124.944 172.755 125.316 172.96 125.698 173.156C126.694 173.666 127.762 174.1 128.877 174.472C130.184 174.901 131.561 175.239 132.977 175.473C134.841 175.787 136.772 175.93 138.703 175.911C143.342 175.859 147.957 174.829 151.547 172.813C154.026 171.42 155.713 169.733 156.595 167.935C157.129 166.853 157.368 165.733 157.32 164.617L157.315 164.608Z" fill="#3DB67B"/>
<path d="M138.36 179.359C133.087 179.359 127.795 178.124 124.086 175.664C120.024 172.975 118.27 169.209 119.013 164.775L119.366 164.832C118.46 170.248 121.54 173.547 124.286 175.363C131.475 180.126 144.667 180.236 151.961 175.592C154.76 173.809 157.92 170.544 157.172 165.071H157.148V164.904L157.506 164.88C158.183 169.428 156.328 173.237 152.152 175.893C148.519 178.2 143.447 179.349 138.364 179.349L138.36 179.359Z" fill="#192147"/>
<path d="M138.517 176.15C129.998 176.15 120.992 172.865 119.119 166.043C118.804 158.005 127.528 154.387 135.094 153.72C145.244 152.828 156.39 156.642 157.487 164.584V164.604V164.623C157.067 169.466 152.624 175.001 141.421 176.022C140.467 176.107 139.49 176.15 138.513 176.15H138.517ZM138.041 153.944C137.068 153.944 136.095 153.986 135.132 154.072C127.719 154.725 119.171 158.239 119.476 165.986C121.502 173.366 132.286 176.489 141.402 175.664C152.371 174.668 156.724 169.304 157.144 164.613C156.162 157.643 147.132 153.948 138.045 153.948L138.041 153.944Z" fill="#192147"/>
<path d="M131.698 168.885C131.493 168.885 131.288 168.833 131.107 168.728C130.821 168.566 130.616 168.289 130.54 167.965L129.081 161.734C128.933 161.095 129.329 160.451 129.968 160.304C130.612 160.151 131.25 160.552 131.398 161.19L132.566 166.177L147.526 161.534C148.156 161.338 148.823 161.691 149.019 162.32C149.214 162.95 148.861 163.617 148.232 163.812L132.051 168.837C131.937 168.875 131.818 168.89 131.698 168.89V168.885Z" fill="white"/>
<path d="M52.5324 179.84L48.4182 177.452C46.1346 176.126 45.8581 172.937 47.8794 171.235L97.0793 129.83C99.544 127.756 103.039 127.456 105.823 129.072L109.937 131.46C112.221 132.786 112.497 135.975 110.476 137.677L61.2759 179.082C58.8112 181.156 55.3166 181.456 52.5324 179.84Z" fill="#E2DED5"/>
<path d="M56.3601 181.051C55.011 181.051 53.657 180.703 52.4413 179.997L48.327 177.609C47.1876 176.946 46.4677 175.816 46.3533 174.501C46.2389 173.185 46.7538 171.95 47.7597 171.101L96.9595 129.696C99.472 127.58 103.071 127.27 105.908 128.919L110.022 131.308C111.162 131.97 111.882 133.1 111.996 134.416C112.11 135.732 111.596 136.967 110.59 137.815L61.3898 179.22C59.95 180.431 58.1622 181.051 56.3601 181.051ZM101.994 128.223C100.273 128.223 98.5662 128.814 97.1932 129.968L47.9933 171.373C47.0779 172.146 46.6107 173.275 46.7109 174.467C46.8157 175.664 47.4689 176.694 48.5082 177.294L52.6225 179.683C55.3304 181.256 58.7629 180.96 61.1609 178.944L110.361 137.539C111.276 136.766 111.743 135.637 111.643 134.445C111.543 133.253 110.885 132.218 109.846 131.618L105.732 129.229C104.573 128.557 103.281 128.223 101.994 128.223Z" fill="#192147"/>
<path d="M56.3649 176.109C55.8596 176.109 55.3638 175.975 54.93 175.722L53.1612 174.693C52.5891 174.359 52.5224 173.563 53.0277 173.138L100.154 133.478C100.669 133.044 101.322 132.806 101.999 132.806C102.504 132.806 103 132.939 103.434 133.192L105.202 134.222C105.775 134.556 105.841 135.352 105.336 135.776L58.2099 175.436C57.6951 175.87 57.0419 176.109 56.3649 176.109Z" fill="#8C8679"/>
<path d="M56.3654 176.289C55.8314 176.289 55.3022 176.146 54.8398 175.879L53.0711 174.849C52.7469 174.663 52.5467 174.339 52.5133 173.967C52.4799 173.595 52.6277 173.242 52.9137 173.004L100.04 133.344C100.998 132.538 102.443 132.414 103.525 133.043L105.293 134.073C105.618 134.259 105.818 134.583 105.851 134.955C105.885 135.327 105.737 135.68 105.451 135.918L58.3295 175.578C57.7813 176.041 57.0852 176.294 56.3701 176.294L56.3654 176.289ZM101.994 132.991C101.36 132.991 100.75 133.215 100.264 133.62L53.1378 173.281C52.9423 173.443 52.8422 173.686 52.8661 173.938C52.8899 174.191 53.0282 174.41 53.2475 174.539L55.0162 175.569C55.9744 176.127 57.2473 176.012 58.0912 175.302L105.217 135.642C105.413 135.48 105.513 135.237 105.489 134.984C105.465 134.731 105.327 134.512 105.108 134.383L103.339 133.353C102.929 133.115 102.466 132.991 101.994 132.991Z" fill="#192147"/>
<path d="M56.6366 176.478L54.0479 174.995L101.837 134.258C102.356 134.51 104.988 135.821 104.988 135.821L56.6366 176.478Z" fill="#192147"/>
<path d="M92.6535 146.005L86.5703 151.249L92.7679 98.6259H98.8511L92.6535 146.005Z" fill="#E2DED5"/>
<path d="M86.571 151.431C86.5424 151.431 86.5138 151.426 86.4852 151.412C86.4185 151.378 86.3851 151.307 86.3899 151.23L92.5875 98.6076C92.5971 98.517 92.6734 98.4503 92.7639 98.4503H98.8472C98.8996 98.4503 98.9473 98.4741 98.9807 98.5122C99.014 98.5504 99.0283 98.6028 99.0236 98.6553L92.8259 146.034C92.8211 146.077 92.7973 146.115 92.7639 146.148L86.6807 151.393C86.6473 151.421 86.6044 151.435 86.5663 151.435L86.571 151.431ZM92.926 98.8078L86.7999 150.82L92.4827 145.92L98.6469 98.8078H92.926Z" fill="#192147"/>
<path d="M91.7013 109.602C93.0314 110.212 94.5045 110.136 95.6869 110.078L90.8002 147.384L86.8147 150.783L91.7013 109.602Z" fill="white"/>
<path d="M94.6351 107.414C100.954 107.414 106.077 102.291 106.077 95.9721C106.077 89.653 100.954 84.5303 94.6351 84.5303C88.316 84.5303 83.1933 89.653 83.1933 95.9721C83.1933 102.291 88.316 107.414 94.6351 107.414Z" fill="#6A67FE"/>
<path d="M94.6355 107.597C88.2281 107.597 83.0125 102.386 83.0125 95.9738C83.0125 89.5616 88.2233 84.3508 94.6355 84.3508C101.048 84.3508 106.259 89.5616 106.259 95.9738C106.259 102.386 101.048 107.597 94.6355 107.597ZM94.6355 84.7131C88.4236 84.7131 83.3749 89.7666 83.3749 95.9738C83.3749 102.181 88.4283 107.234 94.6355 107.234C100.843 107.234 105.896 102.181 105.896 95.9738C105.896 89.7666 100.843 84.7131 94.6355 84.7131Z" fill="#192147"/>
<path d="M93.1643 101.33C97.377 101.33 100.792 97.9146 100.792 93.7019C100.792 89.4891 97.377 86.074 93.1643 86.074C88.9515 86.074 85.5364 89.4891 85.5364 93.7019C85.5364 97.9146 88.9515 101.33 93.1643 101.33Z" fill="#B4B2FE"/>
<path d="M70.0379 189.935L65.9237 187.546C63.6401 186.221 63.3636 183.032 65.3849 181.33L114.585 139.925C117.05 137.851 120.544 137.55 123.328 139.167L127.443 141.555C129.726 142.88 130.003 146.07 127.981 147.772L78.7814 189.177C76.3167 191.251 72.8221 191.551 70.0379 189.935Z" fill="#E2DED5"/>
<path d="M73.8659 191.14C72.5167 191.14 71.1628 190.792 69.9471 190.087L65.8328 187.698C64.6934 187.036 63.9735 185.906 63.8591 184.59C63.7447 183.274 64.2596 182.039 65.2655 181.191L114.465 139.786C116.978 137.669 120.577 137.359 123.414 139.009L127.528 141.397C128.668 142.06 129.387 143.19 129.497 144.506C129.611 145.817 129.097 147.056 128.091 147.905L78.8908 189.31C77.451 190.521 75.6632 191.14 73.8612 191.14H73.8659ZM119.5 138.313C117.779 138.313 116.072 138.904 114.699 140.058L65.4991 181.463C64.579 182.235 64.1165 183.365 64.2166 184.557C64.3215 185.753 64.9747 186.783 66.014 187.384L70.1283 189.772C72.8362 191.345 76.2687 191.05 78.6667 189.033L127.867 147.628C128.782 146.856 129.249 145.726 129.149 144.534C129.049 143.342 128.391 142.308 127.356 141.707L123.242 139.319C122.084 138.646 120.792 138.313 119.505 138.313H119.5Z" fill="#192147"/>
<path d="M73.8715 186.2C73.3661 186.2 72.8703 186.066 72.4365 185.814L70.6678 184.784C70.0957 184.45 70.0289 183.654 70.5343 183.23L117.66 143.57C118.175 143.136 118.828 142.897 119.505 142.897C120.011 142.897 120.506 143.031 120.94 143.283L122.709 144.313C123.281 144.647 123.348 145.443 122.843 145.867L75.7165 185.528C75.2016 185.962 74.5485 186.2 73.8715 186.2Z" fill="#8C8679"/>
<path d="M73.8709 186.376C73.337 186.376 72.8078 186.233 72.3454 185.966L70.5766 184.936C70.2524 184.75 70.0475 184.426 70.0189 184.054C69.9855 183.683 70.1333 183.33 70.4193 183.091L117.545 143.431C118.504 142.625 119.943 142.501 121.03 143.131L122.799 144.161C123.123 144.346 123.328 144.671 123.357 145.043C123.39 145.414 123.242 145.767 122.956 146.006L75.8351 185.666C75.2868 186.128 74.5908 186.381 73.8757 186.381L73.8709 186.376ZM119.5 143.078C118.866 143.078 118.256 143.302 117.769 143.708L70.6481 183.368C70.4527 183.53 70.3526 183.773 70.3764 184.026C70.4002 184.278 70.5385 184.503 70.7578 184.631L72.5265 185.661C73.4848 186.214 74.7577 186.104 75.6015 185.394L122.728 145.734C122.923 145.572 123.023 145.329 122.999 145.076C122.975 144.823 122.837 144.599 122.618 144.47L120.849 143.441C120.439 143.202 119.977 143.078 119.505 143.078H119.5Z" fill="#192147"/>
<path d="M74.1428 186.572L71.5541 185.089L119.343 144.351C119.862 144.604 122.494 145.915 122.494 145.915L74.1428 186.572Z" fill="#192147"/>
<path d="M95.0001 169.295L90.8906 172.756L57.223 133.763L61.3326 129.277L95.0001 169.295Z" fill="#E2DED5"/>
<path d="M90.8908 172.932C90.8431 172.932 90.7906 172.913 90.7573 172.87L57.0945 133.877C57.0372 133.811 57.0372 133.706 57.0945 133.639L61.204 129.153C61.2373 129.115 61.285 129.096 61.3375 129.096C61.3899 129.096 61.4376 129.12 61.4709 129.158L95.1338 169.18C95.1957 169.257 95.1862 169.366 95.1099 169.433L91.0004 172.889C90.967 172.918 90.9241 172.932 90.886 172.932H90.8908ZM57.4663 133.763L90.9098 172.498L94.7476 169.266L61.3279 129.539L57.4663 133.758V133.763Z" fill="#192147"/>
<path d="M64.5981 141.963C65.9425 141.396 66.8865 140.257 67.6397 139.346L93.6603 170.182L90.9 172.48L64.5981 141.959V141.963Z" fill="white"/>
<path d="M65.3152 138.088C69.7835 133.62 69.7835 126.375 65.3152 121.907C60.8469 117.438 53.6023 117.438 49.134 121.907C44.6657 126.375 44.6657 133.62 49.134 138.088C53.6023 142.556 60.8469 142.556 65.3152 138.088Z" fill="#AE6DDF"/>
<path d="M57.218 141.615C54.4147 141.615 51.6019 140.609 49.3755 138.569C47.0872 136.471 45.7523 133.611 45.614 130.512C45.4758 127.413 46.558 124.443 48.6509 122.154C52.9797 117.43 60.3406 117.106 65.0699 121.43C67.3583 123.527 68.6932 126.388 68.8314 129.487C68.9697 132.586 67.8875 135.556 65.7946 137.844C63.5062 140.342 60.3692 141.61 57.218 141.61V141.615ZM57.2275 118.741C54.1763 118.741 51.1347 119.971 48.9179 122.393C46.8869 124.61 45.8381 127.489 45.9716 130.493C46.1051 133.496 47.3971 136.271 49.6187 138.302C54.2002 142.497 61.337 142.182 65.5324 137.601C67.5633 135.384 68.6121 132.505 68.4786 129.501C68.3451 126.498 67.0532 123.723 64.8316 121.692C62.6719 119.718 59.9497 118.741 57.2323 118.741H57.2275Z" fill="#192147"/>
<path d="M58.3187 134.876C62.0679 132.955 63.55 128.358 61.6289 124.609C59.7078 120.859 55.1111 119.377 51.3619 121.299C47.6126 123.22 46.1306 127.816 48.0517 131.566C49.9727 135.315 54.5694 136.797 58.3187 134.876Z" fill="#C98DEF"/>
<path d="M4.53909 296.871L51.3219 322.677L116.774 285.915L68.4512 258.97L4.53909 296.871Z" fill="#C5C7D1"/>
<path d="M101.513 180.817C103.578 179.201 107.129 178.953 109.399 180.264L158.861 208.816C161.13 210.127 161.321 212.549 159.28 214.193L152.029 220.043C149.989 221.688 146.456 221.969 144.182 220.668L94.2574 192.087C91.9833 190.785 91.8117 188.397 93.876 186.781L101.509 180.817H101.513Z" fill="#8C8679"/>
<path d="M147.543 221.665C146.308 221.665 145.088 221.388 144.096 220.821L94.1718 192.24C93.0181 191.577 92.3411 190.629 92.2649 189.561C92.1886 188.493 92.7225 187.458 93.7714 186.638L101.404 180.674C103.526 179.015 107.154 178.763 109.49 180.107L158.952 208.659C160.101 209.322 160.782 210.285 160.868 211.362C160.954 212.44 160.43 213.493 159.395 214.328L152.144 220.177C150.933 221.155 149.226 221.66 147.543 221.66V221.665ZM101.514 180.813L101.623 180.956L93.9907 186.92C93.042 187.663 92.5557 188.593 92.6224 189.537C92.6892 190.481 93.3042 191.33 94.353 191.93L144.277 220.511C146.499 221.784 149.932 221.512 151.924 219.901L159.176 214.051C160.115 213.293 160.592 212.349 160.515 211.391C160.439 210.433 159.824 209.574 158.78 208.969L109.318 180.417C107.101 179.134 103.649 179.378 101.633 180.956L101.523 180.813H101.514Z" fill="#192147"/>
<path d="M102.786 191.473C100.512 190.171 100.23 187.869 102.161 186.362C104.092 184.856 107.529 184.689 109.799 186L150.46 209.47C152.729 210.781 153.077 213.074 151.228 214.566C149.378 216.059 146.003 216.216 143.729 214.91L102.791 191.473H102.786Z" fill="#192147"/>
<path d="M121.851 269.859L132.83 233.259L123.844 228.034L110.767 262.979L121.851 269.859Z" fill="#847C89"/>
<path opacity="0.25" d="M132.83 233.006C132.83 233.006 138.265 216.306 150.226 214.074L140.358 209.388C140.358 209.388 126.532 205.336 124.864 228.615L132.83 233.006Z" fill="#8C8679"/>
<path d="M103.997 187.381L150.231 214.074C150.231 214.074 147.166 212.306 142.532 212.773C135.109 213.521 128.148 224.315 123.982 232.276C121.689 236.662 119.915 241.296 118.661 246.083C115.977 256.304 109.737 278.287 103.997 285.152C99.3531 290.706 67.378 308.269 57.8765 312.865C55.264 314.128 52.1985 314.023 49.6813 312.579C38.7401 306.305 14.1115 291.941 7.28932 288.251C16.8003 283.755 52.6085 264.595 57.6429 258.564C63.4067 251.661 69.6759 229.502 72.3409 219.333C73.5804 214.594 75.3348 210.008 77.5898 205.66C81.7661 197.603 88.7933 186.638 96.2829 186.085C101.131 185.727 103.992 187.381 103.992 187.381H103.997Z" fill="white"/>
<path d="M89.8756 188.927C86.6099 191.497 83.5969 195.468 81.075 199.515L127.581 225.989C130.137 221.941 133.188 217.984 136.482 215.458L89.8708 188.927H89.8756Z" fill="#F1EEEA"/>
<path d="M59.8555 255.257L106.123 281.992C110.371 274.546 114.619 260.773 117.274 251.204L70.9875 224.368C68.3511 233.889 64.1081 247.71 59.8555 255.252V255.257Z" fill="#F1EEEA"/>
<path d="M144.034 210.5L102.152 186.658C100.827 186.267 98.834 185.9 96.2834 186.086C94.057 186.248 91.8688 187.34 89.7854 188.994L136.392 215.525C138.365 213.999 140.425 212.984 142.523 212.769C147.161 212.302 150.222 214.071 150.222 214.071L144.029 210.495L144.034 210.5Z" fill="#E2DED5"/>
<path d="M52.7045 307.225L52.5376 306.911C52.9571 306.687 94.7246 284.389 98.0379 280.418C101.485 276.294 106.648 262.197 111.52 243.633C112.903 238.365 114.853 233.307 117.322 228.592C121.088 221.388 128.101 207.987 140.211 207.987V208.344C128.321 208.344 121.37 221.626 117.637 228.758C115.182 233.45 113.241 238.484 111.863 243.723C106.977 262.335 101.785 276.485 98.3097 280.647C94.9487 284.671 54.4255 306.305 52.6997 307.225H52.7045Z" fill="#646F71"/>
<path d="M46.0586 303.516L45.8917 303.201C50.9452 300.555 87.3159 280.942 90.8104 276.761C94.5147 272.327 99.7303 258.23 104.76 239.056C105.985 234.388 107.816 229.635 110.362 224.52C116.864 211.443 125.007 204.544 133.922 204.544C134.022 204.544 134.118 204.544 134.213 204.544V204.902C134.113 204.902 134.022 204.902 133.927 204.902C127.744 204.902 118.781 208.391 110.676 224.682C108.145 229.773 106.319 234.507 105.103 239.146C100.059 258.368 94.8198 272.513 91.0822 276.99C87.2158 281.624 46.4638 303.306 46.0586 303.521V303.516Z" fill="#646F71"/>
<path d="M39.4176 299.802L39.2508 299.487C45.7631 296.079 79.6642 277.786 83.5831 273.095C87.5543 268.342 92.8033 254.264 97.995 234.474C99.1011 230.264 100.765 225.94 103.397 220.443C106.972 212.982 114.948 200.554 128.216 201.102L128.201 201.46C127.92 201.445 127.639 201.44 127.362 201.44C114.8 201.44 107.182 213.373 103.721 220.596C101.099 226.069 99.4395 230.374 98.343 234.56C93.1418 254.402 87.8595 268.528 83.8596 273.319C79.9026 278.058 45.9442 296.384 39.4176 299.797V299.802Z" fill="#646F71"/>
<path d="M32.7762 296.093L32.6093 295.778C40.7712 291.507 72.1075 274.525 76.3552 269.438C82.0762 262.583 88.1308 241.721 91.2296 229.897C92.5121 225.006 94.5859 220.353 96.4309 216.372C105.732 196.306 118.137 197.331 122.218 197.665L122.189 198.022C118.175 197.689 105.951 196.683 96.7551 216.52C94.9196 220.482 92.8506 225.12 91.5776 229.983C88.4693 241.84 82.3956 262.754 76.6318 269.662C72.4174 274.706 42.8164 290.839 32.7762 296.088V296.093Z" fill="#646F71"/>
<path d="M26.1303 292.379L25.9634 292.065C38.9928 285.247 64.7798 270.983 69.1229 265.777C75.1346 258.578 81.3132 237.339 84.4645 225.316C85.6564 220.773 87.5919 216.468 89.4655 212.301C98.9289 191.253 111.081 193.346 115.658 194.132C115.863 194.166 116.053 194.199 116.23 194.228L116.173 194.58C115.996 194.552 115.806 194.518 115.596 194.485C111.095 193.713 99.1434 191.653 89.7945 212.444C87.9256 216.601 85.9948 220.892 84.8125 225.406C81.6565 237.454 75.4541 258.75 69.3994 266.006C65.0182 271.255 39.1787 285.557 26.1303 292.384V292.379Z" fill="#646F71"/>
<path d="M19.4892 288.671L19.3223 288.356C27.9323 283.851 56.4511 268.643 61.9002 262.116C67.8833 254.946 73.7997 235.657 77.7042 220.74C78.7245 216.835 80.3597 213.112 81.9425 209.517L82.505 208.23C89.4226 192.378 98.8955 186.305 109.903 190.667C110.046 190.724 110.166 190.772 110.261 190.805L110.137 191.139C110.037 191.101 109.918 191.053 109.775 190.996C102.247 188.016 91.463 188.607 82.834 208.373L82.2667 209.66C80.6934 213.245 79.063 216.954 78.0475 220.83C74.1334 235.786 68.198 255.127 62.172 262.345C56.6799 268.924 28.1135 284.156 19.4892 288.671Z" fill="#646F71"/>
<path d="M55.34 305.829C55.2018 305.829 55.0778 305.733 55.0492 305.59L50.9111 285.801L72.2835 288.184L74.9103 279.117L92.9693 282.854L80.8124 261.053H98.0371L80.76 238.746L98.1372 236.663L92.0206 227.128L89.7752 210.985L108.912 211.224V200.373L112.201 193.756L118.856 196.125C119.014 196.183 119.09 196.349 119.038 196.507C118.985 196.664 118.814 196.74 118.656 196.688L112.501 194.495L109.508 200.511V211.829L90.4617 211.591L92.5975 226.913L99.1527 237.135L81.8755 239.204L99.2528 261.639H81.8279L94.1231 283.693L75.3299 279.803L72.7125 288.823L51.6548 286.473L55.6213 305.457C55.6547 305.619 55.5498 305.776 55.3925 305.81C55.3734 305.81 55.3496 305.814 55.3305 305.814L55.34 305.829Z" fill="#6A67FE"/>
<path d="M54.0488 313.924C52.5089 313.924 50.9691 313.528 49.5913 312.736C46.0777 310.72 41.11 307.85 35.8515 304.808C24.5909 298.296 11.8285 290.911 7.20408 288.408L6.8942 288.241L7.21361 288.089C15.9523 283.955 52.466 264.49 57.51 258.45C63.3072 251.504 69.6955 228.749 72.1698 219.29C73.4189 214.518 75.1876 209.908 77.433 205.584C81.9335 196.912 88.851 186.457 96.2739 185.913C101.118 185.556 103.969 187.162 104.088 187.234L150.322 213.927L150.141 214.237C150.112 214.217 147.071 212.501 142.547 212.959C138.571 213.359 132.154 217.054 124.14 232.372C121.885 236.682 120.102 241.311 118.833 246.14C116.354 255.584 109.961 278.306 104.135 285.281C99.5253 290.801 67.8744 308.241 57.9581 313.037C56.7233 313.633 55.3885 313.933 54.0536 313.933L54.0488 313.924ZM7.68559 288.26C12.5531 290.916 25.0104 298.124 36.0327 304.498C41.2912 307.54 46.2541 310.41 49.7724 312.427C52.2372 313.842 55.2407 313.947 57.8008 312.708C67.7027 307.917 99.2774 290.53 103.859 285.042C109.637 278.125 116.011 255.465 118.485 246.04C119.758 241.187 121.556 236.529 123.82 232.2C128.282 223.667 135.148 213.34 142.508 212.601C144.825 212.368 146.747 212.678 148.101 213.059L103.907 187.544C103.868 187.525 101.022 185.928 96.2978 186.271C92.2931 186.566 85.8237 190.185 77.7477 205.751C75.5165 210.051 73.7574 214.637 72.5131 219.385C70.0292 228.868 63.6218 251.685 57.7817 258.683C52.671 264.805 17.2347 283.703 7.68082 288.265L7.68559 288.26Z" fill="#192147"/>
<path d="M59.1977 312.223C51.8368 315.97 46.8787 309.095 46.8787 309.095L0.644135 282.402C0.644135 282.402 3.27576 286.021 7.28993 288.252C11.3041 290.483 43.7226 309.643 43.7226 309.643C51.0311 314.029 54.8927 315.054 59.1977 312.223Z" fill="#8C8679"/>
<path d="M54.2871 313.986C51.3074 313.986 48.037 312.437 43.6319 309.796C43.3077 309.605 11.1704 290.612 7.20394 288.404C3.1993 286.178 0.524773 282.54 0.496168 282.502L0.000366211 281.821L47.0215 308.985C47.0692 309.052 51.9796 315.693 59.1165 312.06L59.2976 312.37C57.6147 313.476 55.9986 313.986 54.2871 313.986ZM1.37815 283.027C2.365 284.195 4.53418 286.507 7.38034 288.09C11.3516 290.302 43.4936 309.295 43.8178 309.486C49.6722 313 53.1381 314.187 56.2322 313.4C50.7496 314.268 47.093 309.662 46.7641 309.228L1.38292 283.027H1.37815Z" fill="#192147"/>
<path d="M317.243 193.777C316.967 190.754 315.837 188.752 314.659 188.065L304.199 182.526C312.08 191.031 300.018 212.946 292.634 219.659L302.712 225.518C310.883 217.204 317.243 203.631 317.243 193.777Z" fill="#8C8679"/>
<path d="M308.986 185.781C329.934 177.619 315.632 219.778 302.54 228.569L302.707 225.518C311.67 216.15 316.251 204.918 317.191 194.811C317.31 193.543 317.219 192.26 316.843 191.045C314.487 183.469 306.154 190.735 302.445 195.092L302.435 191.693C304.829 188.894 307.022 186.916 308.981 185.786L308.986 185.781Z" fill="#F1EEEA"/>
<path d="M302.345 228.917L302.536 225.441L302.583 225.394C310.864 216.736 315.989 205.871 317.019 194.792C317.143 193.466 317.029 192.222 316.676 191.097C316.118 189.304 315.184 188.26 313.892 187.993C310.416 187.288 305.148 192.189 302.588 195.202L302.273 195.569L302.264 191.617L302.307 191.564C304.71 188.756 306.926 186.759 308.9 185.614L308.924 185.605C312.261 184.303 316.671 183.574 318.707 187.469C320.781 191.44 319.789 199.635 316.113 208.856C312.485 217.957 307.327 225.565 302.645 228.707L302.35 228.907L302.345 228.917ZM302.888 225.594L302.745 228.216C307.289 224.993 312.256 217.58 315.784 208.732C319.422 199.607 320.418 191.526 318.392 187.641C316.857 184.704 313.72 184.132 309.072 185.939C307.146 187.054 304.977 189.009 302.626 191.75L302.636 194.606C304.152 192.894 309.877 186.806 313.973 187.636C315.403 187.927 316.428 189.052 317.029 190.983C317.391 192.155 317.515 193.447 317.386 194.82C316.352 205.957 311.208 216.879 302.898 225.589L302.888 225.594Z" fill="#192147"/>
<path d="M309.543 185.652C311.417 184.88 314.563 184.279 316.394 185.338C305.338 179.049 302.425 174.244 292.361 185.833L302.44 191.693C304.676 189.152 306.416 187.044 309.543 185.657V185.652Z" fill="white"/>
<path d="M302.479 191.917L292.086 185.876L292.229 185.714C300.934 175.693 304.448 177.853 312.147 182.587C313.42 183.369 314.864 184.26 316.452 185.161C316.462 185.166 316.471 185.175 316.485 185.18L316.309 185.49C316.309 185.49 316.29 185.476 316.276 185.471C314.578 184.518 311.642 184.98 309.615 185.814C306.693 187.116 305.029 189.009 302.932 191.402L302.479 191.917ZM292.639 185.786L302.402 191.459L302.66 191.168C304.705 188.837 306.474 186.82 309.472 185.49C311.041 184.842 313.158 184.413 314.874 184.661C313.825 184.041 312.848 183.44 311.956 182.892C304.252 178.153 301.034 176.179 292.634 185.786H292.639Z" fill="#192147"/>
<path d="M305.378 238.348C305.378 238.419 305.378 238.486 305.378 238.558C305.368 239.158 305.306 239.759 305.196 240.355C305.087 240.946 304.925 241.537 304.715 242.119C304.5 242.72 304.233 243.316 303.909 243.902C303.566 244.531 303.161 245.156 302.698 245.761C302.155 246.472 301.53 247.168 300.825 247.845C299.79 248.832 298.579 249.775 297.197 250.657C296.72 250.963 296.219 251.263 295.7 251.549C293.602 252.717 291.295 253.69 288.858 254.457C287.056 255.024 285.183 255.482 283.261 255.83C281.965 256.064 280.649 256.25 279.319 256.388C278.175 256.507 277.021 256.583 275.862 256.631C274.799 256.669 273.736 256.679 272.673 256.66C271.643 256.636 270.618 256.588 269.598 256.507C268.578 256.426 267.562 256.316 266.556 256.183C265.512 256.04 264.478 255.863 263.458 255.658C262.337 255.434 261.231 255.167 260.154 254.867C258.847 254.5 257.579 254.08 256.359 253.609C254.528 252.898 252.802 252.064 251.215 251.11C245.375 247.597 242.467 243.068 242.452 238.539L242.462 241.909C242.476 246.438 245.384 250.963 251.224 254.481C252.812 255.439 254.538 256.269 256.368 256.979C257.589 257.456 258.862 257.875 260.163 258.238C261.241 258.538 262.347 258.805 263.467 259.029C264.487 259.234 265.522 259.41 266.566 259.553C267.572 259.692 268.587 259.801 269.608 259.878C270.628 259.959 271.653 260.006 272.683 260.03C273.746 260.054 274.809 260.045 275.872 260.002C277.03 259.959 278.184 259.878 279.328 259.758C280.658 259.62 281.974 259.439 283.271 259.201C285.192 258.853 287.066 258.395 288.868 257.828C291.309 257.06 293.612 256.092 295.709 254.92C296.229 254.629 296.729 254.333 297.206 254.028C298.589 253.146 299.8 252.202 300.834 251.215C301.54 250.538 302.164 249.847 302.708 249.132C303.17 248.522 303.575 247.902 303.919 247.273C304.238 246.686 304.505 246.09 304.724 245.49C304.934 244.903 305.096 244.317 305.206 243.726C305.316 243.13 305.378 242.529 305.387 241.928C305.387 241.857 305.387 241.79 305.387 241.719L305.378 238.348Z" fill="#F1EEEA"/>
<path d="M273.817 260.216C273.436 260.216 273.055 260.216 272.673 260.201C271.639 260.177 270.599 260.13 269.589 260.049C268.568 259.968 267.539 259.858 266.533 259.72C265.479 259.577 264.43 259.4 263.42 259.195C262.29 258.967 261.174 258.7 260.101 258.399C258.786 258.032 257.503 257.603 256.287 257.131C254.428 256.406 252.688 255.563 251.115 254.619C245.423 251.196 242.281 246.676 242.267 241.894L242.257 238.529H242.615C242.629 243.177 245.709 247.587 251.286 250.943C252.841 251.877 254.562 252.712 256.402 253.427C257.603 253.894 258.876 254.314 260.182 254.681C261.25 254.981 262.356 255.243 263.472 255.472C264.483 255.677 265.522 255.853 266.561 255.992C267.562 256.13 268.583 256.24 269.593 256.316C270.609 256.397 271.639 256.445 272.659 256.468C273.712 256.492 274.78 256.483 275.839 256.445C276.988 256.402 278.146 256.321 279.286 256.206C280.611 256.073 281.931 255.882 283.214 255.653C285.14 255.305 287.018 254.843 288.792 254.285C291.261 253.508 293.554 252.535 295.6 251.391C296.115 251.105 296.615 250.805 297.087 250.504C298.441 249.641 299.652 248.702 300.691 247.711C301.383 247.048 302.007 246.357 302.546 245.651C302.999 245.055 303.404 244.435 303.742 243.811C304.057 243.239 304.324 242.648 304.534 242.056C304.739 241.484 304.901 240.898 305.006 240.316C305.115 239.73 305.177 239.134 305.187 238.548V238.343H305.545L305.554 241.708C305.554 241.78 305.554 241.847 305.554 241.918C305.545 242.524 305.483 243.139 305.368 243.744C305.259 244.345 305.092 244.946 304.877 245.537C304.658 246.142 304.386 246.752 304.062 247.344C303.714 247.978 303.304 248.612 302.837 249.227C302.284 249.947 301.65 250.657 300.944 251.329C299.89 252.335 298.66 253.289 297.287 254.166C296.806 254.471 296.301 254.776 295.781 255.062C293.717 256.216 291.4 257.198 288.906 257.984C287.118 258.547 285.231 259.009 283.285 259.362C281.998 259.596 280.663 259.782 279.328 259.92C278.189 260.039 277.021 260.12 275.858 260.163C275.176 260.187 274.485 260.201 273.798 260.201L273.817 260.216ZM242.634 241.313V241.904C242.648 246.552 245.728 250.962 251.31 254.323C252.864 255.257 254.586 256.092 256.426 256.807C257.627 257.274 258.9 257.698 260.206 258.061C261.269 258.356 262.375 258.623 263.496 258.852C264.502 259.052 265.541 259.229 266.585 259.372C267.586 259.51 268.607 259.62 269.617 259.696C270.623 259.777 271.658 259.825 272.683 259.849C273.736 259.872 274.809 259.863 275.863 259.82C277.016 259.777 278.175 259.696 279.309 259.582C280.635 259.443 281.955 259.257 283.238 259.029C285.164 258.681 287.042 258.218 288.816 257.66C291.29 256.883 293.578 255.911 295.624 254.766C296.138 254.48 296.639 254.18 297.111 253.88C298.465 253.017 299.676 252.078 300.71 251.086C301.402 250.428 302.026 249.732 302.565 249.026C303.023 248.426 303.423 247.806 303.762 247.186C304.076 246.609 304.343 246.018 304.553 245.432C304.758 244.86 304.92 244.273 305.025 243.692C305.135 243.105 305.197 242.509 305.206 241.923C305.206 241.856 305.206 241.785 305.206 241.718V241.122C305.111 241.48 305.006 241.832 304.877 242.18C304.658 242.791 304.381 243.396 304.062 243.987C303.714 244.626 303.299 245.26 302.832 245.87C302.284 246.59 301.65 247.301 300.939 247.973C299.886 248.979 298.656 249.932 297.283 250.809C296.801 251.115 296.296 251.42 295.776 251.706C293.707 252.859 291.395 253.842 288.901 254.628C287.114 255.191 285.226 255.653 283.281 256.006C281.989 256.24 280.659 256.43 279.324 256.564C278.175 256.683 277.011 256.764 275.853 256.807C274.79 256.845 273.712 256.855 272.654 256.831C271.629 256.812 270.59 256.759 269.57 256.678C268.549 256.597 267.52 256.487 266.514 256.349C265.47 256.206 264.421 256.03 263.4 255.825C262.275 255.596 261.16 255.329 260.082 255.029C258.767 254.662 257.484 254.233 256.268 253.765C254.409 253.041 252.669 252.197 251.096 251.253C246.524 248.502 243.592 245.041 242.615 241.308L242.634 241.313Z" fill="#192147"/>
<path d="M303.904 232.522C303.866 219.626 303.832 207.226 303.794 194.359C303.785 190.445 303.77 186.03 303.761 181.987C304.114 176.033 297.129 169.888 290.484 167.604C289.301 167.151 288.1 166.751 286.879 166.407C285.835 166.117 284.782 165.864 283.719 165.649C282.736 165.454 281.745 165.287 280.753 165.149C279.79 165.015 278.818 164.92 277.85 164.839C276.872 164.763 275.895 164.72 274.918 164.696C273.898 164.677 272.882 164.686 271.862 164.72C270.761 164.763 269.659 164.844 268.558 164.949C267.29 165.077 266.031 165.263 264.778 165.483C262.971 165.811 261.188 166.245 259.438 166.794C259.438 166.794 259.438 166.794 259.438 166.798C256.568 167.714 253.96 168.848 251.524 170.402C251.524 170.402 251.524 170.402 251.524 170.398C250.289 171.199 249.097 172.085 248.039 173.096C247.396 173.716 246.8 174.369 246.261 175.075C245.832 175.637 245.436 176.233 245.093 176.858C244.797 177.406 244.54 177.973 244.321 178.56C244.125 179.113 243.968 179.68 243.863 180.262C243.863 180.257 243.863 180.252 243.863 180.247C243.601 181.601 243.706 182.989 243.691 184.366C243.701 187.67 243.71 191.365 243.72 194.535C243.758 208.017 243.796 221.3 243.834 234.758C244.53 223.021 259.519 218.372 269.435 217.476C281.421 216.203 302.955 220.475 303.904 234.582C303.904 233.948 303.904 233.242 303.899 232.517L303.904 232.522Z" fill="#E2DED5"/>
<path d="M303.933 242.719C303.895 229.823 303.862 217.423 303.824 204.556C303.814 200.642 303.8 196.227 303.79 192.184C304.143 186.23 297.159 180.084 290.513 177.801C289.331 177.348 288.129 176.947 286.909 176.604C285.865 176.313 284.811 176.061 283.748 175.846C282.766 175.651 281.774 175.484 280.783 175.346C279.82 175.212 278.847 175.117 277.879 175.036C276.902 174.959 275.925 174.916 274.947 174.893C273.927 174.874 272.912 174.883 271.891 174.916C270.79 174.959 269.689 175.04 268.588 175.145C267.32 175.274 266.061 175.46 264.807 175.679C263 176.008 261.217 176.442 259.468 176.99C259.468 176.99 259.468 176.99 259.468 176.995C256.598 177.91 253.99 179.045 251.554 180.599C251.554 180.599 251.554 180.599 251.554 180.594C250.319 181.395 249.127 182.282 248.069 183.293C247.425 183.913 246.829 184.566 246.29 185.271C245.861 185.834 245.466 186.43 245.122 187.054C244.827 187.603 244.569 188.17 244.35 188.756C244.155 189.309 243.997 189.877 243.892 190.458C243.892 190.454 243.892 190.449 243.892 190.444C243.63 191.798 243.735 193.185 243.721 194.563C243.73 197.867 243.74 201.562 243.749 204.732C243.788 218.214 243.826 231.496 243.864 244.955C244.56 233.217 259.549 228.569 269.465 227.673C281.45 226.4 302.985 230.672 303.933 244.778C303.933 244.144 303.933 243.439 303.929 242.714L303.933 242.719Z" fill="#BD707E"/>
<path d="M279.052 195.134C288.728 195.134 296.572 191.487 296.572 186.987C296.572 182.487 288.728 178.839 279.052 178.839C269.375 178.839 261.531 182.487 261.531 186.987C261.531 191.487 269.375 195.134 279.052 195.134Z" fill="#C67F8F"/>
<path d="M306.192 242.05C306.369 241.516 306.517 240.973 306.617 240.42C306.617 240.425 306.617 240.429 306.617 240.439C307.117 221.045 306.526 201.918 306.65 182.639C304.19 208.311 243.048 207.968 240.855 182.829C240.893 196.002 240.926 208.764 240.964 222.07C241.293 236.992 237.532 247.395 255.553 254.288C256.845 254.789 258.165 255.223 259.5 255.599C260.644 255.914 261.798 256.195 262.961 256.429C264.039 256.643 265.121 256.825 266.213 256.977C267.271 257.125 268.329 257.23 269.393 257.32C270.46 257.406 271.533 257.449 272.606 257.478C273.721 257.497 274.837 257.487 275.953 257.449C277.159 257.401 278.365 257.316 279.571 257.196C280.958 257.053 282.336 256.848 283.709 256.61C285.688 256.252 287.642 255.776 289.559 255.175C289.559 255.175 289.559 255.175 289.559 255.17C292.705 254.169 295.561 252.925 298.226 251.223C298.226 251.223 298.226 251.228 298.226 251.232C299.575 250.355 300.886 249.387 302.045 248.277C302.75 247.6 303.403 246.884 303.99 246.107C303.99 246.107 303.99 246.107 303.99 246.112C304.457 245.488 304.891 244.834 305.267 244.153C305.592 243.552 305.873 242.932 306.111 242.289C306.135 242.212 306.164 242.136 306.192 242.055V242.05Z" fill="white"/>
<path d="M273.765 257.669C273.379 257.669 272.993 257.669 272.602 257.659C271.443 257.63 270.475 257.583 269.57 257.511L269.374 257.497C268.225 257.402 267.272 257.302 266.385 257.182L266.18 257.159C265.145 257.015 264.12 256.844 263.134 256.648L262.919 256.605C261.751 256.367 260.583 256.086 259.444 255.771C258.085 255.39 256.75 254.946 255.482 254.455C240.269 248.634 240.46 240.387 240.727 228.973C240.779 226.771 240.831 224.487 240.779 222.075L240.669 182.83L241.027 182.815C242.143 195.635 258.619 201.546 273.46 201.608C273.541 201.608 273.622 201.608 273.703 201.608C288.654 201.608 305.216 195.687 306.465 182.62L306.822 182.639C306.77 190.291 306.837 198.047 306.898 205.551C306.994 216.955 307.089 228.745 306.789 240.439H306.727L306.784 240.449C306.689 240.978 306.546 241.517 306.355 242.103L306.322 242.203C306.307 242.246 306.293 242.289 306.279 242.332L305.931 243.447V243.195C305.778 243.543 305.607 243.891 305.425 244.229L305.087 244.854V244.806C304.806 245.269 304.491 245.731 304.133 246.208L303.814 246.637V246.613C303.328 247.214 302.789 247.8 302.169 248.391L301.869 248.682V248.672C300.877 249.583 299.714 250.47 298.327 251.366L298.05 251.542V251.528C295.609 253.054 292.849 254.293 289.626 255.318L289.612 255.328C287.762 255.909 285.836 256.381 283.891 256.739L283.743 256.768C282.227 257.035 280.868 257.225 279.591 257.354C278.346 257.473 277.217 257.554 276.134 257.597L275.963 257.607C275.252 257.63 274.518 257.645 273.77 257.645L273.765 257.669ZM269.269 257.13L269.407 257.139C270.356 257.216 271.372 257.268 272.611 257.302C273.698 257.321 274.766 257.311 275.791 257.278L275.944 257.268C277.064 257.23 278.246 257.149 279.548 257.02C280.783 256.896 282.098 256.71 283.562 256.458L283.676 256.434C285.617 256.081 287.533 255.614 289.383 255.042V255.008L289.502 254.999C292.825 253.94 295.643 252.658 298.126 251.07L298.346 250.932C299.757 250.007 300.925 249.092 301.917 248.143L302.007 248.057C302.713 247.371 303.313 246.694 303.847 245.998L304.014 245.783C304.439 245.197 304.801 244.634 305.111 244.067L305.168 243.967C305.473 243.39 305.73 242.809 305.945 242.227C305.959 242.179 305.974 242.136 305.988 242.093L306.021 241.998C306.207 241.436 306.345 240.911 306.436 240.401C306.736 228.721 306.636 216.945 306.546 205.561C306.489 198.786 306.431 191.802 306.46 184.875C303.642 196.622 287.953 201.971 273.708 201.971C273.627 201.971 273.546 201.971 273.465 201.971C259.363 201.909 243.787 196.588 241.041 185.104L241.146 222.075C241.199 224.497 241.146 226.78 241.094 228.988C240.831 240.258 240.636 248.396 255.615 254.126C256.879 254.613 258.199 255.051 259.548 255.433C260.64 255.733 261.761 256.005 262.876 256.238L262.995 256.262C263.982 256.458 265.007 256.634 266.046 256.782L266.232 256.806C267.129 256.93 268.096 257.039 269.264 257.135L269.269 257.13Z" fill="#192147"/>
<path d="M297.826 196.05C302.317 193.223 305.24 189.557 306.398 185.333C306.374 192.108 306.431 198.93 306.489 205.557C306.584 216.941 306.679 228.717 306.379 240.392C306.288 240.898 306.15 241.412 305.964 241.975L305.888 242.199C305.664 242.814 305.383 243.429 305.058 244.035C304.739 244.616 304.372 245.188 303.929 245.789L303.8 245.956C303.247 246.68 302.617 247.381 301.879 248.096C300.911 249.026 299.767 249.922 298.394 250.833L298.098 251.019C298.007 251.076 297.917 251.133 297.826 251.186V196.05Z" fill="#F1EEEA"/>
<path d="M297.492 169.5C310.069 177.071 309.64 189.132 296.529 196.446C283.419 203.759 262.595 203.544 250.018 195.974C237.442 188.403 237.871 176.341 250.981 169.028C264.092 161.72 284.916 161.929 297.492 169.5ZM295.428 170.654C283.943 163.741 264.931 163.55 252.96 170.225C240.989 176.899 240.598 187.912 252.078 194.825C263.563 201.738 282.575 201.928 294.546 195.254C306.517 188.579 306.908 177.567 295.428 170.654Z" fill="white"/>
<path d="M273.65 201.957C264.998 201.957 256.368 200.007 249.923 196.126C243.878 192.488 240.593 187.688 240.679 182.615C240.765 177.376 244.393 172.499 250.891 168.875C264.03 161.548 284.978 161.762 297.583 169.347C303.628 172.985 306.913 177.786 306.827 182.858C306.741 188.098 303.113 192.975 296.615 196.598C290.198 200.178 281.912 201.957 273.65 201.957ZM273.855 163.865C265.655 163.865 257.436 165.634 251.067 169.185C244.684 172.747 241.122 177.514 241.036 182.62C240.955 187.564 244.173 192.25 250.109 195.821C262.619 203.349 283.405 203.558 296.443 196.288C302.827 192.732 306.388 187.959 306.474 182.853C306.555 177.91 303.337 173.223 297.402 169.652C291.004 165.8 282.442 163.865 273.86 163.865H273.855ZM273.66 200.298C265.756 200.298 257.875 198.515 251.987 194.972C246.462 191.649 243.463 187.263 243.539 182.625C243.62 177.838 246.934 173.376 252.869 170.067C264.869 163.374 284.001 163.569 295.514 170.501C301.039 173.824 304.038 178.21 303.962 182.849C303.881 187.635 300.567 192.098 294.632 195.406C288.768 198.677 281.207 200.302 273.66 200.302V200.298ZM273.846 165.519C266.361 165.519 258.862 167.131 253.046 170.372C247.225 173.619 243.973 177.972 243.897 182.625C243.821 187.13 246.762 191.406 252.168 194.662C263.586 201.532 282.556 201.723 294.455 195.091C300.276 191.845 303.528 187.492 303.604 182.839C303.68 178.334 300.739 174.058 295.328 170.801C289.488 167.288 281.674 165.519 273.841 165.519H273.846Z" fill="#192147"/>
<path d="M284.949 220.022C286.792 220.022 288.286 218.528 288.286 216.685C288.286 214.842 286.792 213.348 284.949 213.348C283.106 213.348 281.612 214.842 281.612 216.685C281.612 218.528 283.106 220.022 284.949 220.022Z" fill="#D66C7B"/>
<path d="M275.415 220.022C277.258 220.022 278.752 218.528 278.752 216.685C278.752 214.842 277.258 213.348 275.415 213.348C273.572 213.348 272.077 214.842 272.077 216.685C272.077 218.528 273.572 220.022 275.415 220.022Z" fill="#5CABDF"/>
<path d="M265.879 220.021C267.723 220.021 269.217 218.527 269.217 216.684C269.217 214.841 267.723 213.347 265.879 213.347C264.036 213.347 262.542 214.841 262.542 216.684C262.542 218.527 264.036 220.021 265.879 220.021Z" fill="#63C740"/>
<path d="M265.88 229.557C267.723 229.557 269.217 228.063 269.217 226.22C269.217 224.377 267.723 222.882 265.88 222.882C264.037 222.882 262.542 224.377 262.542 226.22C262.542 228.063 264.037 229.557 265.88 229.557Z" fill="#C98DEF"/>
<path d="M275.415 229.557C277.258 229.557 278.752 228.063 278.752 226.22C278.752 224.377 277.258 222.882 275.415 222.882C273.572 222.882 272.077 224.377 272.077 226.22C272.077 228.063 273.572 229.557 275.415 229.557Z" fill="#FAA669"/>
<path d="M265.88 239.091C267.723 239.091 269.217 237.597 269.217 235.754C269.217 233.911 267.723 232.417 265.88 232.417C264.037 232.417 262.542 233.911 262.542 235.754C262.542 237.597 264.037 239.091 265.88 239.091Z" fill="#3AEFC3"/>
</svg>
