<svg width="387" height="233" viewBox="0 0 387 233" fill="none" xmlns="http://www.w3.org/2000/svg">
<g clip-path="url(#clip0_7808_31656)">
<path d="M300.777 115.028C300.766 115.295 300.754 115.568 300.737 115.834C300.725 116.072 300.708 116.304 300.69 116.536C300.667 116.808 300.644 117.075 300.615 117.348C300.592 117.579 300.569 117.811 300.54 118.043C300.505 118.316 300.47 118.588 300.43 118.861C300.395 119.093 300.366 119.319 300.331 119.551C300.285 119.823 300.232 120.102 300.186 120.374C300.145 120.6 300.105 120.826 300.058 121.052C300 121.325 299.943 121.592 299.879 121.864C299.827 122.09 299.78 122.316 299.722 122.543C299.653 122.815 299.577 123.088 299.502 123.366C299.444 123.586 299.386 123.812 299.322 124.033C299.241 124.311 299.154 124.589 299.061 124.868C298.992 125.082 298.928 125.297 298.858 125.511C298.76 125.801 298.655 126.091 298.551 126.375C298.476 126.578 298.412 126.781 298.336 126.984C298.174 127.413 298.006 127.836 297.826 128.259C297.797 128.329 297.768 128.404 297.739 128.474C297.531 128.973 297.31 129.465 297.078 129.958C297.009 130.109 296.928 130.26 296.858 130.411C296.696 130.753 296.527 131.095 296.354 131.431C296.255 131.622 296.151 131.814 296.046 132.005C295.89 132.306 295.727 132.602 295.565 132.898C295.466 133.072 295.362 133.246 295.263 133.42C295.066 133.756 294.869 134.092 294.666 134.429C294.545 134.626 294.423 134.823 294.295 135.02C294.098 135.333 293.901 135.64 293.692 135.953C293.559 136.156 293.42 136.359 293.281 136.562C293.072 136.87 292.857 137.171 292.637 137.478C292.492 137.675 292.353 137.878 292.202 138.076C291.97 138.389 291.732 138.702 291.489 139.015C291.35 139.195 291.216 139.374 291.072 139.554C290.637 140.099 290.19 140.644 289.732 141.183C289.657 141.276 289.57 141.363 289.494 141.456C289.1 141.908 288.694 142.36 288.283 142.813C288.132 142.975 287.975 143.143 287.819 143.305C287.436 143.711 287.048 144.111 286.653 144.511C286.514 144.651 286.381 144.79 286.242 144.929C285.714 145.456 285.169 145.972 284.612 146.494C284.404 146.686 284.189 146.877 283.98 147.068C283.714 147.312 283.447 147.55 283.175 147.793C282.948 147.99 282.722 148.182 282.49 148.379C282.218 148.616 281.94 148.848 281.661 149.08C281.424 149.277 281.186 149.469 280.942 149.66C280.658 149.892 280.374 150.118 280.084 150.35C279.835 150.547 279.58 150.738 279.325 150.936C279.035 151.156 278.745 151.382 278.449 151.602C278.188 151.799 277.922 151.991 277.655 152.182C277.353 152.402 277.058 152.617 276.75 152.837C276.478 153.029 276.2 153.22 275.927 153.411C275.62 153.626 275.307 153.84 274.994 154.049C274.709 154.24 274.42 154.426 274.135 154.617C273.817 154.826 273.498 155.035 273.173 155.244C272.877 155.429 272.582 155.615 272.28 155.8C271.95 156.003 271.619 156.212 271.289 156.415C270.761 156.734 270.228 157.053 269.688 157.366C268.888 157.829 268.076 158.282 267.259 158.728C267.021 158.856 266.783 158.983 266.546 159.111C265.914 159.453 265.276 159.783 264.632 160.114C264.412 160.224 264.198 160.34 263.977 160.45C263.142 160.873 262.296 161.285 261.443 161.685C261.293 161.755 261.142 161.824 260.991 161.894C260.272 162.23 259.548 162.561 258.817 162.885C258.556 163.001 258.295 163.117 258.034 163.227C257.321 163.535 256.602 163.842 255.877 164.138C255.698 164.213 255.518 164.288 255.338 164.364C254.445 164.723 253.547 165.077 252.642 165.425C252.416 165.512 252.19 165.593 251.964 165.68C251.256 165.947 250.543 166.208 249.824 166.463C249.552 166.561 249.279 166.654 249.007 166.753C248.143 167.054 247.279 167.344 246.409 167.628C246.34 167.651 246.27 167.675 246.195 167.698C245.406 167.953 244.612 168.202 243.812 168.446C243.62 168.504 243.423 168.562 243.226 168.62C242.617 168.799 242.014 168.985 241.4 169.159C241.098 169.246 240.791 169.327 240.489 169.414C239.979 169.553 239.475 169.698 238.964 169.837C238.628 169.93 238.286 170.017 237.944 170.104C237.463 170.231 236.987 170.353 236.506 170.475C236.147 170.562 235.787 170.649 235.428 170.736C234.958 170.852 234.494 170.962 234.025 171.072C233.653 171.159 233.282 171.24 232.911 171.327C232.453 171.432 231.989 171.536 231.526 171.635C231.149 171.716 230.766 171.797 230.383 171.872C229.925 171.971 229.467 172.064 229.003 172.156C228.615 172.232 228.232 172.307 227.844 172.383C227.386 172.47 226.928 172.556 226.464 172.643C226.128 172.707 225.791 172.765 225.455 172.823C224.672 172.962 223.89 173.096 223.101 173.223C222.858 173.264 222.608 173.304 222.365 173.345C221.356 173.507 220.347 173.658 219.332 173.797C219.112 173.826 218.897 173.855 218.677 173.884C217.86 173.994 217.036 174.105 216.219 174.203C215.911 174.238 215.604 174.279 215.291 174.313C214.445 174.412 213.598 174.505 212.746 174.592C212.549 174.609 212.351 174.632 212.154 174.655C211.232 174.748 210.311 174.829 209.389 174.91C209.238 174.922 209.081 174.934 208.931 174.945C208.159 175.009 207.388 175.067 206.611 175.119C206.293 175.142 205.968 175.16 205.649 175.177C205.04 175.218 204.431 175.253 203.817 175.282C203.457 175.299 203.098 175.316 202.738 175.334C202.159 175.363 201.579 175.386 200.999 175.409C200.616 175.421 200.234 175.438 199.851 175.45C199.364 175.467 198.877 175.479 198.39 175.49C197.99 175.502 197.59 175.508 197.19 175.513C196.697 175.519 196.204 175.525 195.717 175.531C195.323 175.531 194.923 175.537 194.528 175.537C194.03 175.537 193.531 175.537 193.032 175.537C192.644 175.537 192.255 175.537 191.867 175.531C191.357 175.525 190.847 175.513 190.336 175.502C189.959 175.496 189.577 175.49 189.2 175.479C188.73 175.467 188.261 175.45 187.791 175.432C187.391 175.421 186.991 175.409 186.591 175.392C186.115 175.374 185.64 175.351 185.164 175.328C184.77 175.311 184.382 175.293 183.987 175.27C183.5 175.241 183.019 175.212 182.538 175.183C182.155 175.16 181.773 175.137 181.396 175.113C180.897 175.079 180.398 175.038 179.894 175.003C179.529 174.974 179.163 174.951 178.804 174.922C178.288 174.882 177.772 174.829 177.256 174.783C176.914 174.754 176.566 174.725 176.224 174.69C175.644 174.632 175.07 174.568 174.49 174.51C174.212 174.481 173.928 174.452 173.65 174.423C172.791 174.325 171.939 174.226 171.087 174.116C170.977 174.105 170.866 174.087 170.756 174.07C170.014 173.977 169.272 173.878 168.536 173.774C168.321 173.745 168.112 173.71 167.898 173.681C167.243 173.589 166.588 173.49 165.938 173.386C165.619 173.333 165.3 173.281 164.981 173.229C164.442 173.142 163.897 173.055 163.358 172.962C163.004 172.899 162.651 172.835 162.297 172.771C161.793 172.678 161.288 172.591 160.789 172.499C160.424 172.429 160.059 172.354 159.694 172.284C159.207 172.191 158.725 172.093 158.244 171.994C157.902 171.925 157.554 171.849 157.212 171.78C156.655 171.664 156.105 171.542 155.548 171.42C155.2 171.345 154.846 171.264 154.499 171.182C153.954 171.055 153.409 170.927 152.869 170.8C152.527 170.719 152.191 170.637 151.849 170.55C151.281 170.411 150.718 170.266 150.15 170.116C149.843 170.034 149.535 169.959 149.234 169.878C148.538 169.692 147.848 169.501 147.158 169.31C146.996 169.263 146.828 169.217 146.665 169.17C145.674 168.886 144.694 168.591 143.714 168.289C143.453 168.208 143.187 168.127 142.926 168.046C142.137 167.796 141.349 167.541 140.566 167.28C140.351 167.211 140.137 167.141 139.922 167.066C138.966 166.741 138.015 166.405 137.07 166.063C136.861 165.987 136.652 165.906 136.449 165.831C135.684 165.547 134.919 165.257 134.165 164.961C133.933 164.868 133.707 164.781 133.475 164.689C132.298 164.219 131.132 163.738 129.979 163.239C129.782 163.152 129.59 163.071 129.393 162.984C128.239 162.479 127.097 161.958 125.972 161.424C125.804 161.343 125.636 161.262 125.462 161.181C124.314 160.63 123.178 160.062 122.064 159.476C121.954 159.418 121.844 159.354 121.728 159.296C120.557 158.676 119.403 158.044 118.267 157.389C97.156 145.201 86.6151 129.205 86.6615 113.231L86.6383 120.792C86.5919 136.765 97.1386 152.762 118.243 164.949C119.374 165.605 120.534 166.237 121.705 166.857C121.815 166.915 121.931 166.979 122.041 167.037C123.16 167.622 124.291 168.191 125.439 168.741C125.607 168.823 125.775 168.904 125.949 168.985C127.074 169.518 128.216 170.04 129.364 170.545C129.561 170.632 129.753 170.713 129.95 170.8C131.104 171.298 132.269 171.78 133.446 172.249C133.527 172.284 133.608 172.319 133.689 172.348C133.84 172.406 133.991 172.458 134.136 172.516C134.895 172.812 135.655 173.102 136.42 173.386C136.629 173.461 136.832 173.542 137.041 173.618C137.986 173.96 138.937 174.296 139.893 174.621C140.108 174.696 140.322 174.766 140.537 174.835C141.32 175.096 142.102 175.351 142.897 175.6C143.158 175.682 143.419 175.769 143.685 175.85C144.665 176.151 145.645 176.447 146.636 176.731C146.654 176.731 146.671 176.743 146.689 176.748C146.839 176.789 146.984 176.83 147.135 176.87C147.825 177.062 148.515 177.253 149.211 177.438C149.518 177.52 149.825 177.595 150.127 177.676C150.689 177.821 151.258 177.966 151.826 178.111C152.162 178.192 152.504 178.279 152.846 178.36C153.391 178.494 153.936 178.621 154.481 178.743C154.829 178.824 155.177 178.9 155.525 178.981C156.076 179.102 156.632 179.224 157.189 179.34C157.415 179.387 157.635 179.439 157.856 179.485C157.977 179.508 158.099 179.532 158.215 179.555C158.696 179.653 159.183 179.746 159.665 179.845C160.03 179.914 160.395 179.99 160.766 180.059C161.265 180.152 161.769 180.245 162.274 180.332C162.627 180.395 162.981 180.459 163.335 180.523C163.874 180.616 164.413 180.703 164.958 180.79C165.277 180.842 165.596 180.894 165.915 180.946C166.57 181.051 167.225 181.143 167.88 181.242C168.078 181.271 168.275 181.3 168.472 181.329C168.483 181.329 168.501 181.329 168.512 181.329C169.255 181.433 170.003 181.532 170.751 181.63C170.855 181.642 170.959 181.659 171.064 181.671C171.916 181.781 172.768 181.88 173.626 181.978C173.905 182.007 174.189 182.036 174.467 182.065C175.047 182.129 175.621 182.187 176.201 182.245C176.543 182.28 176.891 182.309 177.233 182.338C177.749 182.384 178.265 182.436 178.781 182.477C178.816 182.477 178.85 182.483 178.879 182.489C179.21 182.518 179.54 182.535 179.871 182.564C180.369 182.604 180.868 182.645 181.373 182.674C181.755 182.703 182.138 182.72 182.515 182.744C182.996 182.773 183.483 182.807 183.964 182.831C184.359 182.854 184.747 182.871 185.141 182.889C185.617 182.912 186.092 182.935 186.568 182.952C186.968 182.97 187.368 182.981 187.768 182.993C188.237 183.01 188.707 183.028 189.177 183.039C189.264 183.039 189.345 183.045 189.432 183.045C189.728 183.051 190.023 183.057 190.313 183.063C190.823 183.074 191.334 183.086 191.844 183.092C192.232 183.092 192.621 183.097 193.009 183.097C193.508 183.097 194.006 183.097 194.505 183.097C194.899 183.097 195.299 183.097 195.694 183.092C196.187 183.092 196.679 183.08 197.166 183.074C197.566 183.068 197.967 183.057 198.367 183.051C198.854 183.039 199.341 183.028 199.828 183.01C200.019 183.005 200.21 182.999 200.396 182.993C200.587 182.987 200.779 182.976 200.976 182.97C201.556 182.947 202.135 182.923 202.715 182.894C203.075 182.877 203.434 182.86 203.794 182.842C204.402 182.807 205.011 182.773 205.626 182.738C205.95 182.72 206.269 182.697 206.588 182.68C207.359 182.628 208.136 182.57 208.907 182.506C209.058 182.494 209.215 182.483 209.365 182.471C210.287 182.396 211.209 182.309 212.131 182.216C212.178 182.216 212.224 182.21 212.276 182.204C212.427 182.187 212.572 182.17 212.723 182.158C213.575 182.071 214.421 181.978 215.268 181.88C215.575 181.845 215.882 181.804 216.196 181.77C217.019 181.671 217.836 181.561 218.654 181.451C218.874 181.422 219.095 181.393 219.309 181.364C220.324 181.219 221.333 181.068 222.342 180.911C222.585 180.871 222.834 180.83 223.078 180.79C223.866 180.662 224.649 180.529 225.438 180.39C225.6 180.361 225.768 180.337 225.936 180.303C226.104 180.274 226.273 180.239 226.441 180.21C226.905 180.123 227.368 180.036 227.826 179.949C228.209 179.874 228.598 179.798 228.98 179.723C229.444 179.63 229.908 179.537 230.366 179.439C230.743 179.358 231.12 179.282 231.502 179.201C231.966 179.102 232.43 178.998 232.894 178.894C233.265 178.813 233.63 178.726 234.001 178.644C234.471 178.534 234.941 178.418 235.41 178.308C235.77 178.221 236.129 178.134 236.483 178.047C236.964 177.925 237.44 177.804 237.921 177.676C238.263 177.589 238.599 177.502 238.941 177.409C239.452 177.27 239.962 177.131 240.466 176.986C240.768 176.899 241.075 176.818 241.376 176.731C241.991 176.557 242.594 176.377 243.203 176.192C243.394 176.134 243.591 176.076 243.788 176.018C244.589 175.774 245.383 175.525 246.171 175.27C246.183 175.27 246.2 175.264 246.212 175.258C246.27 175.241 246.328 175.218 246.386 175.2C247.256 174.916 248.125 174.621 248.984 174.325C249.256 174.232 249.529 174.134 249.801 174.035C250.52 173.78 251.233 173.519 251.941 173.252C252.167 173.165 252.393 173.084 252.619 172.997C253.523 172.655 254.422 172.301 255.315 171.936C255.495 171.861 255.674 171.785 255.854 171.71C256.579 171.414 257.298 171.107 258.011 170.8C258.272 170.684 258.533 170.574 258.794 170.458C259.524 170.133 260.249 169.802 260.968 169.466C261.119 169.397 261.27 169.327 261.42 169.257C262.273 168.852 263.119 168.44 263.954 168.022C264.174 167.912 264.389 167.796 264.609 167.686C265.253 167.356 265.891 167.025 266.523 166.683C266.76 166.556 266.998 166.428 267.236 166.3C268.053 165.854 268.865 165.402 269.665 164.938C270.106 164.683 270.541 164.422 270.97 164.167C271.068 164.109 271.167 164.045 271.265 163.987C271.602 163.784 271.932 163.581 272.257 163.372C272.553 163.187 272.854 163.001 273.15 162.816C273.474 162.607 273.793 162.398 274.112 162.19C274.402 161.998 274.686 161.813 274.97 161.621C275.283 161.407 275.597 161.192 275.904 160.984C276.182 160.792 276.46 160.601 276.727 160.41C277.034 160.195 277.33 159.975 277.632 159.754C277.898 159.563 278.165 159.366 278.426 159.175C278.722 158.954 279.012 158.728 279.301 158.508C279.557 158.316 279.812 158.119 280.061 157.922C280.351 157.696 280.635 157.464 280.919 157.232C281.157 157.041 281.4 156.844 281.638 156.652C281.922 156.421 282.195 156.183 282.467 155.951C282.693 155.754 282.925 155.562 283.151 155.365C283.424 155.128 283.691 154.884 283.957 154.641C284.149 154.472 284.34 154.298 284.526 154.13C284.549 154.113 284.566 154.09 284.589 154.072C285.146 153.556 285.691 153.034 286.219 152.507C286.358 152.368 286.497 152.229 286.63 152.089C287.03 151.689 287.419 151.283 287.796 150.883C287.952 150.721 288.103 150.553 288.259 150.391C288.671 149.938 289.077 149.486 289.471 149.034C289.547 148.941 289.634 148.854 289.709 148.761C290.173 148.222 290.619 147.677 291.048 147.132C291.083 147.086 291.124 147.039 291.158 146.999C291.263 146.865 291.361 146.732 291.46 146.599C291.703 146.286 291.941 145.972 292.173 145.659C292.318 145.462 292.463 145.259 292.602 145.062C292.823 144.761 293.037 144.453 293.246 144.146C293.385 143.943 293.524 143.74 293.657 143.537C293.86 143.23 294.063 142.917 294.26 142.604C294.382 142.407 294.51 142.21 294.631 142.012C294.834 141.676 295.032 141.34 295.229 141.004C295.31 140.864 295.391 140.731 295.472 140.592C295.495 140.551 295.513 140.516 295.536 140.476C295.704 140.18 295.861 139.879 296.017 139.577C296.116 139.386 296.226 139.195 296.325 139.009C296.498 138.673 296.661 138.331 296.823 137.989C296.899 137.838 296.974 137.681 297.049 137.531C297.281 137.038 297.502 136.545 297.71 136.046C297.739 135.977 297.768 135.901 297.797 135.832C297.971 135.408 298.145 134.979 298.307 134.556C298.313 134.539 298.319 134.521 298.331 134.504C298.4 134.318 298.458 134.133 298.528 133.947C298.632 133.657 298.737 133.368 298.835 133.083C298.905 132.869 298.968 132.654 299.038 132.44C299.125 132.162 299.218 131.883 299.299 131.605C299.363 131.385 299.421 131.158 299.479 130.938C299.554 130.666 299.629 130.393 299.699 130.115C299.757 129.889 299.803 129.663 299.856 129.436C299.919 129.164 299.977 128.897 300.035 128.625C300.047 128.578 300.058 128.532 300.064 128.48C300.099 128.3 300.128 128.12 300.163 127.946C300.215 127.674 300.267 127.396 300.308 127.123C300.343 126.897 300.377 126.665 300.406 126.439C300.447 126.166 300.488 125.894 300.516 125.621C300.545 125.389 300.569 125.157 300.592 124.926C300.621 124.653 300.644 124.386 300.667 124.114C300.685 123.882 300.696 123.644 300.714 123.412C300.731 123.146 300.743 122.873 300.754 122.606C300.754 122.519 300.766 122.432 300.766 122.345C300.777 122.032 300.777 121.719 300.783 121.406L300.806 113.846C300.806 114.246 300.795 114.646 300.777 115.046V115.028Z" fill="#ADADAD"/>
<path d="M269.196 69.6644C311.139 93.8828 311.365 133.147 269.694 157.366C228.018 181.584 160.227 181.584 118.278 157.366C76.3295 133.147 76.1092 93.8828 117.786 69.6586C159.456 45.4402 227.247 45.4402 269.196 69.6586V69.6644Z" fill="white"/>
<path d="M300.777 115.028C300.766 115.295 300.754 115.568 300.737 115.834C300.725 116.072 300.708 116.304 300.69 116.536C300.667 116.808 300.644 117.075 300.615 117.348C300.592 117.579 300.569 117.811 300.54 118.043C300.505 118.316 300.47 118.588 300.43 118.861C300.395 119.093 300.366 119.319 300.331 119.551C300.285 119.823 300.232 120.102 300.186 120.374C300.145 120.6 300.105 120.826 300.058 121.052C300 121.325 299.943 121.592 299.879 121.864C299.827 122.09 299.78 122.316 299.722 122.543C299.653 122.815 299.577 123.088 299.502 123.366C299.444 123.586 299.386 123.812 299.322 124.033C299.241 124.311 299.154 124.589 299.061 124.868C298.992 125.082 298.928 125.297 298.858 125.511C298.76 125.801 298.655 126.091 298.551 126.375C298.476 126.578 298.412 126.781 298.336 126.984C298.174 127.413 298.006 127.836 297.826 128.259C297.797 128.329 297.768 128.404 297.739 128.474C297.531 128.973 297.31 129.465 297.078 129.958C297.009 130.109 296.928 130.26 296.858 130.411C296.696 130.753 296.527 131.095 296.354 131.431C296.255 131.622 296.151 131.814 296.046 132.005C295.89 132.306 295.727 132.602 295.565 132.898C295.466 133.072 295.362 133.246 295.263 133.42C295.066 133.756 294.869 134.092 294.666 134.429C294.545 134.626 294.423 134.823 294.295 135.02C294.098 135.333 293.901 135.64 293.692 135.953C293.559 136.156 293.42 136.359 293.281 136.562C293.072 136.87 292.857 137.171 292.637 137.478C292.492 137.675 292.353 137.878 292.202 138.076C291.97 138.389 291.732 138.702 291.489 139.015C291.35 139.195 291.216 139.374 291.072 139.554C290.637 140.099 290.19 140.644 289.732 141.183C289.657 141.276 289.57 141.363 289.494 141.456C289.1 141.908 288.694 142.36 288.283 142.813C288.132 142.975 287.975 143.143 287.819 143.305C287.436 143.711 287.048 144.111 286.653 144.511C286.514 144.651 286.381 144.79 286.242 144.929C285.714 145.456 285.169 145.972 284.612 146.494C284.404 146.686 284.189 146.877 283.98 147.068C283.714 147.312 283.447 147.55 283.175 147.793C282.948 147.99 282.722 148.182 282.49 148.379C282.218 148.616 281.94 148.848 281.661 149.08C281.424 149.277 281.186 149.469 280.942 149.66C280.658 149.892 280.374 150.118 280.084 150.35C279.835 150.547 279.58 150.738 279.325 150.936C279.035 151.156 278.745 151.382 278.449 151.602C278.188 151.799 277.922 151.991 277.655 152.182C277.353 152.402 277.058 152.617 276.75 152.837C276.478 153.029 276.2 153.22 275.927 153.411C275.62 153.626 275.307 153.84 274.994 154.049C274.709 154.24 274.42 154.426 274.135 154.617C273.817 154.826 273.498 155.035 273.173 155.244C272.877 155.429 272.582 155.615 272.28 155.8C271.95 156.003 271.619 156.212 271.289 156.415C270.761 156.734 270.228 157.053 269.688 157.366C268.888 157.829 268.076 158.282 267.259 158.728C267.021 158.856 266.783 158.983 266.546 159.111C265.914 159.453 265.276 159.783 264.632 160.114C264.412 160.224 264.198 160.34 263.977 160.45C263.142 160.873 262.296 161.285 261.444 161.685C261.293 161.755 261.142 161.824 260.991 161.894C260.272 162.23 259.548 162.561 258.817 162.885C258.556 163.001 258.295 163.117 258.034 163.227C257.321 163.535 256.602 163.842 255.877 164.138C255.698 164.213 255.518 164.288 255.338 164.364C254.445 164.723 253.547 165.077 252.642 165.425C252.416 165.512 252.19 165.593 251.964 165.68C251.256 165.947 250.543 166.208 249.824 166.463C249.552 166.561 249.279 166.654 249.007 166.753C248.143 167.054 247.279 167.344 246.409 167.628C246.34 167.651 246.27 167.675 246.195 167.698C245.406 167.953 244.612 168.202 243.812 168.446C243.62 168.504 243.423 168.562 243.226 168.62C242.617 168.799 242.014 168.985 241.4 169.159C241.098 169.246 240.791 169.327 240.489 169.414C239.979 169.553 239.475 169.698 238.964 169.837C238.628 169.93 238.286 170.017 237.944 170.104C237.463 170.231 236.987 170.353 236.506 170.475C236.147 170.562 235.787 170.649 235.428 170.736C234.958 170.852 234.494 170.962 234.025 171.072C233.653 171.159 233.282 171.24 232.911 171.327C232.453 171.432 231.989 171.536 231.526 171.635C231.149 171.716 230.766 171.797 230.383 171.872C229.925 171.971 229.467 172.064 229.003 172.156C228.615 172.232 228.232 172.307 227.844 172.383C227.386 172.47 226.928 172.556 226.464 172.643C226.128 172.707 225.791 172.765 225.455 172.823C224.672 172.962 223.89 173.096 223.101 173.223C222.858 173.264 222.608 173.304 222.365 173.345C221.356 173.507 220.347 173.658 219.332 173.797C219.112 173.826 218.897 173.855 218.677 173.884C217.86 173.994 217.036 174.105 216.219 174.203C215.911 174.238 215.604 174.279 215.291 174.313C214.445 174.412 213.598 174.505 212.746 174.592C212.549 174.609 212.351 174.632 212.154 174.655C211.232 174.748 210.311 174.829 209.389 174.91C209.238 174.922 209.081 174.934 208.931 174.945C208.159 175.009 207.388 175.067 206.611 175.119C206.293 175.142 205.968 175.16 205.649 175.177C205.04 175.218 204.431 175.253 203.817 175.282C203.457 175.299 203.098 175.316 202.738 175.334C202.159 175.363 201.579 175.386 200.999 175.409C200.616 175.421 200.234 175.438 199.851 175.45C199.364 175.467 198.877 175.479 198.39 175.49C197.99 175.502 197.59 175.508 197.19 175.513C196.697 175.519 196.204 175.525 195.717 175.531C195.323 175.531 194.923 175.537 194.528 175.537C194.03 175.537 193.531 175.537 193.032 175.537C192.644 175.537 192.255 175.537 191.867 175.531C191.357 175.525 190.847 175.513 190.336 175.502C189.959 175.496 189.577 175.49 189.2 175.479C188.73 175.467 188.261 175.45 187.791 175.432C187.391 175.421 186.991 175.409 186.591 175.392C186.115 175.374 185.64 175.351 185.164 175.328C184.77 175.311 184.382 175.293 183.987 175.27C183.5 175.241 183.019 175.212 182.538 175.183C182.155 175.16 181.773 175.137 181.396 175.113C180.897 175.079 180.398 175.038 179.894 175.003C179.529 174.974 179.163 174.951 178.804 174.922C178.288 174.881 177.772 174.829 177.256 174.783C176.914 174.754 176.566 174.725 176.224 174.69C175.644 174.632 175.07 174.568 174.49 174.51C174.212 174.481 173.928 174.452 173.65 174.423C172.791 174.325 171.939 174.226 171.087 174.116C170.977 174.105 170.866 174.087 170.756 174.07C170.014 173.977 169.272 173.878 168.536 173.774C168.321 173.745 168.112 173.71 167.898 173.681C167.243 173.589 166.588 173.49 165.938 173.386C165.619 173.333 165.3 173.281 164.981 173.229C164.442 173.142 163.897 173.055 163.358 172.962C163.004 172.899 162.651 172.835 162.297 172.771C161.793 172.678 161.288 172.591 160.789 172.499C160.424 172.429 160.059 172.354 159.694 172.284C159.207 172.191 158.725 172.093 158.244 171.994C157.902 171.925 157.554 171.849 157.212 171.78C156.655 171.664 156.105 171.542 155.548 171.42C155.2 171.345 154.846 171.264 154.499 171.182C153.954 171.055 153.409 170.927 152.869 170.8C152.527 170.719 152.191 170.637 151.849 170.55C151.281 170.411 150.718 170.266 150.15 170.116C149.843 170.034 149.535 169.959 149.234 169.878C148.538 169.692 147.848 169.501 147.158 169.31C146.996 169.263 146.828 169.217 146.665 169.17C145.674 168.886 144.694 168.591 143.714 168.289C143.453 168.208 143.187 168.127 142.926 168.046C142.137 167.796 141.349 167.541 140.566 167.28C140.351 167.211 140.137 167.141 139.922 167.066C138.966 166.741 138.015 166.405 137.07 166.063C136.861 165.987 136.652 165.906 136.449 165.831C135.684 165.547 134.919 165.257 134.165 164.961C133.933 164.868 133.707 164.781 133.475 164.689C132.298 164.219 131.132 163.738 129.979 163.239C129.782 163.152 129.59 163.071 129.393 162.984C128.239 162.479 127.097 161.958 125.972 161.424C125.804 161.343 125.636 161.262 125.462 161.181C124.314 160.63 123.178 160.062 122.064 159.476C121.954 159.418 121.844 159.354 121.728 159.296C120.557 158.676 119.403 158.044 118.267 157.389C97.156 145.201 86.6151 129.205 86.6615 113.231L86.6383 120.792C86.5919 136.765 97.1386 152.762 118.243 164.949C119.374 165.605 120.534 166.237 121.705 166.857C121.815 166.915 121.931 166.979 122.041 167.037C123.16 167.622 124.291 168.191 125.439 168.741C125.607 168.823 125.775 168.904 125.949 168.985C127.074 169.518 128.216 170.04 129.364 170.545C129.561 170.632 129.753 170.713 129.95 170.8C131.104 171.298 132.269 171.78 133.446 172.249C133.527 172.284 133.608 172.319 133.689 172.348C133.84 172.406 133.991 172.458 134.136 172.516C134.895 172.812 135.655 173.102 136.42 173.386C136.629 173.461 136.832 173.542 137.041 173.618C137.986 173.96 138.937 174.296 139.893 174.621C140.108 174.696 140.322 174.766 140.537 174.835C141.32 175.096 142.102 175.351 142.897 175.6C143.158 175.682 143.419 175.769 143.685 175.85C144.665 176.151 145.645 176.447 146.636 176.731C146.654 176.731 146.671 176.743 146.689 176.748C146.839 176.789 146.984 176.83 147.135 176.87C147.825 177.062 148.515 177.253 149.211 177.438C149.518 177.52 149.825 177.595 150.127 177.676C150.689 177.821 151.258 177.966 151.826 178.111C152.162 178.192 152.504 178.279 152.846 178.36C153.391 178.494 153.936 178.621 154.481 178.743C154.829 178.824 155.177 178.9 155.525 178.981C156.076 179.102 156.632 179.224 157.189 179.34C157.415 179.387 157.635 179.439 157.856 179.485C157.977 179.508 158.099 179.532 158.215 179.555C158.696 179.653 159.183 179.746 159.665 179.845C160.03 179.914 160.395 179.99 160.766 180.059C161.265 180.152 161.769 180.245 162.274 180.332C162.627 180.395 162.981 180.459 163.335 180.523C163.874 180.616 164.413 180.703 164.958 180.79C165.277 180.842 165.596 180.894 165.915 180.946C166.57 181.051 167.225 181.143 167.88 181.242C168.078 181.271 168.275 181.3 168.472 181.329C168.483 181.329 168.501 181.329 168.512 181.329C169.255 181.433 170.003 181.532 170.751 181.63C170.855 181.642 170.959 181.659 171.064 181.671C171.916 181.781 172.768 181.88 173.626 181.978C173.905 182.007 174.189 182.036 174.467 182.065C175.047 182.129 175.621 182.187 176.201 182.245C176.543 182.28 176.891 182.309 177.233 182.338C177.749 182.384 178.265 182.436 178.781 182.477C178.816 182.477 178.85 182.483 178.879 182.489C179.21 182.518 179.54 182.535 179.871 182.564C180.369 182.604 180.868 182.645 181.373 182.674C181.755 182.703 182.138 182.72 182.515 182.744C182.996 182.773 183.483 182.807 183.964 182.831C184.359 182.854 184.747 182.871 185.141 182.889C185.617 182.912 186.092 182.935 186.568 182.952C186.968 182.97 187.368 182.981 187.768 182.993C188.237 183.01 188.707 183.028 189.177 183.039C189.264 183.039 189.345 183.045 189.432 183.045C189.728 183.051 190.023 183.057 190.313 183.063C190.823 183.074 191.334 183.086 191.844 183.092C192.232 183.092 192.621 183.097 193.009 183.097C193.508 183.097 194.006 183.097 194.505 183.097C194.899 183.097 195.299 183.097 195.694 183.092C196.187 183.092 196.679 183.08 197.166 183.074C197.566 183.068 197.967 183.057 198.367 183.051C198.854 183.039 199.341 183.028 199.828 183.01C200.019 183.005 200.21 182.999 200.396 182.993C200.587 182.987 200.779 182.976 200.976 182.97C201.556 182.947 202.135 182.923 202.715 182.894C203.075 182.877 203.434 182.86 203.794 182.842C204.402 182.807 205.011 182.773 205.626 182.738C205.95 182.72 206.269 182.697 206.588 182.68C207.359 182.628 208.136 182.57 208.907 182.506C209.058 182.494 209.215 182.483 209.365 182.471C210.287 182.396 211.209 182.309 212.131 182.216C212.178 182.216 212.224 182.21 212.276 182.204C212.427 182.187 212.572 182.17 212.723 182.158C213.575 182.071 214.421 181.978 215.268 181.88C215.575 181.845 215.882 181.804 216.196 181.77C217.019 181.671 217.836 181.561 218.654 181.451C218.874 181.422 219.095 181.393 219.309 181.364C220.324 181.219 221.333 181.068 222.342 180.911C222.585 180.871 222.834 180.83 223.078 180.79C223.866 180.662 224.649 180.529 225.438 180.39C225.6 180.361 225.768 180.337 225.936 180.303C226.104 180.274 226.273 180.239 226.441 180.21C226.905 180.123 227.368 180.036 227.826 179.949C228.209 179.874 228.598 179.798 228.98 179.723C229.444 179.63 229.908 179.537 230.366 179.439C230.743 179.358 231.12 179.282 231.502 179.201C231.966 179.102 232.43 178.998 232.894 178.894C233.265 178.813 233.63 178.726 234.001 178.644C234.471 178.534 234.941 178.418 235.41 178.308C235.77 178.221 236.129 178.134 236.483 178.047C236.964 177.925 237.44 177.804 237.921 177.676C238.263 177.589 238.599 177.502 238.941 177.409C239.452 177.27 239.962 177.131 240.466 176.986C240.768 176.899 241.075 176.818 241.376 176.731C241.991 176.557 242.594 176.377 243.203 176.192C243.394 176.134 243.591 176.076 243.788 176.018C244.589 175.774 245.383 175.525 246.171 175.27C246.183 175.27 246.2 175.264 246.212 175.258C246.27 175.241 246.328 175.218 246.386 175.2C247.256 174.916 248.125 174.621 248.984 174.325C249.256 174.232 249.529 174.134 249.801 174.035C250.52 173.78 251.233 173.519 251.941 173.252C252.167 173.165 252.393 173.084 252.619 172.997C253.523 172.655 254.422 172.301 255.315 171.936C255.495 171.861 255.674 171.785 255.854 171.71C256.579 171.414 257.298 171.107 258.011 170.8C258.272 170.684 258.533 170.574 258.794 170.458C259.524 170.133 260.249 169.802 260.968 169.466C261.119 169.397 261.27 169.327 261.42 169.257C262.273 168.852 263.119 168.44 263.954 168.022C264.174 167.912 264.389 167.796 264.609 167.686C265.253 167.356 265.891 167.025 266.523 166.683C266.76 166.556 266.998 166.428 267.236 166.3C268.053 165.854 268.865 165.402 269.665 164.938C270.106 164.683 270.541 164.422 270.97 164.167C271.068 164.109 271.167 164.045 271.265 163.987C271.602 163.784 271.932 163.581 272.257 163.372C272.553 163.187 272.854 163.001 273.15 162.816C273.474 162.607 273.793 162.398 274.112 162.19C274.402 161.998 274.686 161.813 274.97 161.621C275.283 161.407 275.597 161.192 275.904 160.984C276.182 160.792 276.46 160.601 276.727 160.41C277.034 160.195 277.33 159.975 277.632 159.754C277.898 159.563 278.165 159.366 278.426 159.175C278.722 158.954 279.012 158.728 279.301 158.508C279.557 158.316 279.812 158.119 280.061 157.922C280.351 157.696 280.635 157.464 280.919 157.232C281.157 157.041 281.4 156.844 281.638 156.652C281.922 156.421 282.195 156.183 282.467 155.951C282.693 155.754 282.925 155.562 283.151 155.365C283.424 155.128 283.691 154.884 283.957 154.641C284.149 154.472 284.34 154.298 284.526 154.13C284.549 154.113 284.566 154.09 284.589 154.072C285.146 153.556 285.691 153.034 286.219 152.507C286.358 152.368 286.497 152.229 286.63 152.089C287.03 151.689 287.419 151.283 287.796 150.883C287.952 150.721 288.103 150.553 288.259 150.391C288.671 149.938 289.077 149.486 289.471 149.034C289.547 148.941 289.634 148.854 289.709 148.761C290.173 148.222 290.619 147.677 291.048 147.132C291.083 147.086 291.124 147.039 291.158 146.999C291.263 146.865 291.361 146.732 291.46 146.599C291.703 146.286 291.941 145.972 292.173 145.659C292.318 145.462 292.463 145.259 292.602 145.062C292.823 144.761 293.037 144.453 293.246 144.146C293.385 143.943 293.524 143.74 293.657 143.537C293.86 143.23 294.063 142.917 294.26 142.604C294.382 142.407 294.51 142.21 294.631 142.012C294.834 141.676 295.032 141.34 295.229 141.004C295.31 140.864 295.391 140.731 295.472 140.592C295.495 140.551 295.513 140.516 295.536 140.476C295.704 140.18 295.861 139.879 296.017 139.577C296.116 139.386 296.226 139.195 296.325 139.009C296.498 138.673 296.661 138.331 296.823 137.989C296.899 137.838 296.974 137.681 297.049 137.531C297.281 137.038 297.502 136.545 297.71 136.046C297.739 135.977 297.768 135.901 297.797 135.832C297.971 135.408 298.145 134.979 298.307 134.556C298.313 134.539 298.319 134.521 298.331 134.504C298.4 134.318 298.458 134.133 298.528 133.947C298.632 133.657 298.737 133.368 298.835 133.083C298.905 132.869 298.968 132.654 299.038 132.44C299.125 132.162 299.218 131.883 299.299 131.605C299.363 131.385 299.421 131.158 299.479 130.938C299.554 130.666 299.629 130.393 299.699 130.115C299.757 129.889 299.803 129.663 299.856 129.436C299.919 129.164 299.977 128.897 300.035 128.625C300.047 128.578 300.058 128.532 300.064 128.48C300.099 128.3 300.128 128.12 300.163 127.946C300.215 127.674 300.267 127.396 300.308 127.123C300.343 126.897 300.377 126.665 300.406 126.439C300.447 126.166 300.488 125.894 300.517 125.621C300.545 125.389 300.569 125.157 300.592 124.926C300.621 124.653 300.644 124.386 300.667 124.114C300.685 123.882 300.696 123.644 300.714 123.412C300.731 123.146 300.743 122.873 300.754 122.606C300.754 122.519 300.766 122.432 300.766 122.345C300.777 122.032 300.777 121.719 300.783 121.406L300.806 113.846C300.806 114.246 300.795 114.646 300.777 115.046V115.028Z" stroke="black" stroke-width="0.579804" stroke-miterlimit="10"/>
<path d="M269.196 69.6644C311.139 93.8828 311.365 133.147 269.694 157.366C228.018 181.584 160.227 181.584 118.278 157.366C76.3295 133.147 76.1092 93.8828 117.786 69.6586C159.456 45.4402 227.247 45.4402 269.196 69.6586V69.6644Z" stroke="black" stroke-width="0.579804" stroke-miterlimit="10"/>
<path d="M200.697 75.59C205.637 78.4426 205.666 83.0694 200.755 85.9279C195.844 88.7805 187.854 88.7805 182.909 85.9279C177.963 83.0752 177.94 78.4426 182.851 75.59C187.762 72.7373 195.751 72.7373 200.697 75.59Z" fill="#63C740"/>
<path d="M226.272 90.3575C231.218 93.2102 231.241 97.837 226.33 100.695C221.419 103.548 213.43 103.548 208.484 100.695C203.538 97.8428 203.515 93.2102 208.426 90.3575C213.337 87.5049 221.327 87.5049 226.272 90.3575Z" fill="#5CABDF"/>
<path d="M251.848 105.125C256.793 107.978 256.816 112.605 251.906 115.463C246.995 118.316 239.005 118.321 234.059 115.463C229.119 112.61 229.09 107.978 234.001 105.125C238.912 102.272 246.902 102.272 251.848 105.125Z" fill="#D66C7B"/>
<path d="M175.284 90.3575C180.224 93.2102 180.259 97.837 175.342 100.695C170.432 103.548 162.442 103.548 157.496 100.695C152.55 97.8428 152.527 93.2102 157.438 90.3575C162.349 87.5049 170.339 87.5049 175.284 90.3575Z" fill="#C98DEF"/>
<path d="M200.859 105.125C205.805 107.978 205.834 112.605 200.917 115.463C196.006 118.316 188.017 118.316 183.071 115.463C178.125 112.61 178.102 107.978 183.013 105.125C187.924 102.272 195.914 102.272 200.859 105.125Z" fill="#FAA669"/>
<path d="M149.877 105.125C154.817 107.978 154.846 112.605 149.935 115.463C145.024 118.316 137.035 118.316 132.089 115.463C127.143 112.61 127.12 107.978 132.031 105.125C136.942 102.273 144.932 102.267 149.877 105.125Z" fill="#00D1A4"/>
<path d="M103.656 195.644C103.168 207.403 83.5305 213.433 75.6916 219.173C68.2411 223.405 59.4802 224.872 50.9861 224.704C43.4603 224.478 35.8126 222.912 29.2203 219.173C21.6654 213.966 -0.309167 205.791 0.960604 194.885C0.537347 203.535 0.64751 210.545 10.597 216.001C23.6831 223.631 38.242 233.819 54.2446 232.259C69.0644 232.804 84.9858 221.422 97.0516 214.059C104.079 209.113 103.922 202.816 103.673 195.076C103.673 195.267 103.656 195.459 103.65 195.656L103.656 195.644Z" fill="#0059C4"/>
<path d="M94.0192 181.514C106.844 188.918 106.908 201.031 94.1699 208.435L75.6916 219.173C62.9533 226.577 42.0397 226.577 29.2203 219.173L10.6201 208.435C-2.19934 201.031 -2.26891 188.918 10.4694 181.52L28.9477 170.782C41.686 163.378 62.5996 163.378 75.4191 170.782L94.0192 181.52V181.514Z" fill="#0082FF"/>
<path d="M103.656 195.644C103.168 207.403 83.5305 213.433 75.6916 219.173C68.2411 223.405 59.4802 224.872 50.9861 224.704C43.4603 224.478 35.8126 222.912 29.2203 219.173C21.6654 213.966 -0.309167 205.791 0.960604 194.885C0.537347 203.535 0.64751 210.545 10.597 216.001C23.6831 223.631 38.242 233.819 54.2446 232.259C69.0644 232.804 84.9858 221.422 97.0516 214.059C104.079 209.113 103.922 202.816 103.673 195.076C103.673 195.267 103.656 195.459 103.65 195.656L103.656 195.644Z" stroke="black" stroke-width="0.579804" stroke-miterlimit="10"/>
<path d="M94.0192 181.514C106.844 188.918 106.908 201.031 94.1699 208.435L75.6916 219.173C62.9533 226.577 42.0397 226.577 29.2203 219.173L10.6201 208.435C-2.19934 201.031 -2.26891 188.918 10.4694 181.52L28.9477 170.782C41.686 163.378 62.5996 163.378 75.4191 170.782L94.0192 181.52V181.514Z" stroke="black" stroke-width="0.579804" stroke-miterlimit="10"/>
<path d="M64.7804 193.75L53.3888 182.359L52.2916 181.241L43.7095 189.816L39.7888 193.75C39.5925 193.947 39.4823 194.213 39.4823 194.491C39.4823 194.769 39.5925 195.036 39.7888 195.232L47.6232 203.066L52.2916 207.728L60.8667 199.153L60.9995 199.02L64.7804 195.218C64.9725 195.022 65.0801 194.759 65.0801 194.484C65.0801 194.21 64.9725 193.946 64.7804 193.75ZM52.2916 198.391L48.3779 194.477L52.2916 190.564L56.2053 194.477L52.2916 198.391Z" fill="white"/>
<path d="M103.655 31.3682C103.168 43.1266 83.5304 49.1566 75.6915 54.8967C68.241 59.1292 59.4802 60.5961 50.986 60.428C43.4602 60.2019 35.8126 58.6364 29.2202 54.8967C21.6653 49.6842 -0.309257 41.509 0.960514 30.6029C0.543055 39.2535 0.64742 46.2576 10.6027 51.7135C23.6888 59.3438 38.2477 69.5309 54.2503 67.9712C69.0701 68.5163 84.9915 57.1347 97.0573 49.7712C104.085 44.8255 103.928 38.5288 103.679 30.7884C103.679 30.9797 103.661 31.1711 103.655 31.3682Z" fill="#03363D"/>
<path d="M94.0191 17.2326C106.844 24.6367 106.908 36.7488 94.1698 44.1529L75.6915 54.8909C62.9532 62.295 42.0396 62.295 29.2202 54.8909L10.62 44.1529C-2.19944 36.7488 -2.26901 24.6367 10.4693 17.2384L28.9476 6.50045C41.6859 -0.903651 62.5995 -0.903651 75.419 6.50045L94.0191 17.2384V17.2326Z" fill="#065056"/>
<path d="M103.655 31.3682C103.168 43.1266 83.5304 49.1566 75.6915 54.8967C68.241 59.1292 59.4802 60.5961 50.986 60.428C43.4602 60.2019 35.8126 58.6364 29.2202 54.8967C21.6653 49.6842 -0.309257 41.509 0.960514 30.6029C0.543055 39.2535 0.64742 46.2576 10.6027 51.7135C23.6888 59.3438 38.2477 69.5309 54.2503 67.9712C69.0701 68.5163 84.9915 57.1347 97.0573 49.7712C104.085 44.8255 103.928 38.5288 103.679 30.7884C103.679 30.9797 103.661 31.1711 103.655 31.3682Z" stroke="black" stroke-width="0.579804" stroke-miterlimit="10"/>
<path d="M94.0191 17.2326C106.844 24.6367 106.908 36.7488 94.1698 44.1529L75.6915 54.8909C62.9532 62.295 42.0396 62.295 29.2202 54.8909L10.62 44.1529C-2.19944 36.7488 -2.26901 24.6367 10.4693 17.2384L28.9476 6.50045C41.6859 -0.903651 62.5995 -0.903651 75.419 6.50045L94.0191 17.2384V17.2326Z" stroke="black" stroke-width="0.579804" stroke-miterlimit="10"/>
<path d="M50.0932 38.6295V24.1917L38.1346 38.6295H50.0932Z" fill="white"/>
<path d="M48.3419 23.2386C49.4633 22.1173 50.0932 20.5964 50.0932 19.0106H38.1346C38.1346 20.5964 38.7646 22.1173 39.8859 23.2386C41.0073 24.36 42.5281 24.9899 44.1139 24.9899C45.6997 24.9899 47.2206 24.36 48.3419 23.2386Z" fill="white"/>
<path d="M53.8146 34.4027C52.6933 35.5241 52.0633 37.0449 52.0633 38.6307H64.0219C64.0219 37.0449 63.3919 35.5241 62.2706 34.4027C61.1492 33.2814 59.6284 32.6514 58.0426 32.6514C56.4568 32.6514 54.9359 33.2814 53.8146 34.4027Z" fill="white"/>
<path d="M52.0633 19.0106V33.4484L64.0244 19.0106H52.0633Z" fill="white"/>
<path d="M386.6 195.644C386.113 207.403 366.475 213.433 358.636 219.173C351.186 223.405 342.425 224.872 333.931 224.704C326.405 224.478 318.757 222.912 312.165 219.173C304.61 213.966 282.635 205.791 283.905 194.885C283.482 203.535 283.592 210.545 293.541 216.001C306.628 223.631 321.187 233.819 337.189 232.259C352.009 232.804 367.93 221.422 379.996 214.059C387.023 209.113 386.867 202.816 386.617 195.076C386.617 195.267 386.6 195.459 386.594 195.656L386.6 195.644Z" fill="#0059C4"/>
<path d="M376.964 181.514C389.789 188.918 389.853 201.031 377.115 208.435L358.636 219.173C345.898 226.577 324.984 226.577 312.165 219.173L293.565 208.435C280.745 201.031 280.676 188.918 293.414 181.52L311.892 170.782C324.631 163.378 345.544 163.378 358.364 170.782L376.964 181.52V181.514Z" fill="#0082FF"/>
<path d="M386.6 195.644C386.113 207.403 366.475 213.433 358.636 219.173C351.186 223.405 342.425 224.872 333.931 224.704C326.405 224.478 318.757 222.912 312.165 219.173C304.61 213.966 282.635 205.791 283.905 194.885C283.482 203.535 283.592 210.545 293.541 216.001C306.628 223.631 321.187 233.819 337.189 232.259C352.009 232.804 367.93 221.422 379.996 214.059C387.023 209.113 386.867 202.816 386.617 195.076C386.617 195.267 386.6 195.459 386.594 195.656L386.6 195.644Z" stroke="black" stroke-width="0.579804" stroke-miterlimit="10"/>
<path d="M376.964 181.514C389.789 188.918 389.853 201.031 377.115 208.435L358.636 219.173C345.898 226.577 324.984 226.577 312.165 219.173L293.565 208.435C280.745 201.031 280.676 188.918 293.414 181.52L311.892 170.782C324.631 163.378 345.544 163.378 358.364 170.782L376.964 181.52V181.514Z" stroke="black" stroke-width="0.579804" stroke-miterlimit="10"/>
<path d="M386.6 195.644C386.113 207.403 366.475 213.433 358.636 219.173C351.186 223.405 342.425 224.872 333.931 224.704C326.405 224.478 318.757 222.912 312.165 219.173C304.61 213.966 282.635 205.791 283.905 194.885C283.482 203.535 283.592 210.545 293.541 216.001C306.628 223.631 321.187 233.819 337.189 232.259C352.009 232.804 367.93 221.422 379.996 214.059C387.023 209.113 386.867 202.816 386.617 195.076C386.617 195.267 386.6 195.459 386.594 195.656L386.6 195.644Z" fill="#5B4FB8"/>
<path d="M376.964 181.514C389.789 188.918 389.853 201.031 377.114 208.435L358.636 219.173C345.898 226.577 324.984 226.577 312.165 219.173L293.565 208.435C280.745 201.031 280.676 188.918 293.414 181.52L311.892 170.782C324.631 163.378 345.544 163.378 358.364 170.782L376.964 181.52V181.514Z" fill="#8578E6"/>
<path d="M386.6 195.644C386.113 207.403 366.475 213.433 358.636 219.173C351.186 223.405 342.425 224.872 333.931 224.704C326.405 224.478 318.757 222.912 312.165 219.173C304.61 213.966 282.635 205.791 283.905 194.885C283.482 203.535 283.592 210.545 293.541 216.001C306.628 223.631 321.187 233.819 337.189 232.259C352.009 232.804 367.93 221.422 379.996 214.059C387.023 209.113 386.867 202.816 386.617 195.076C386.617 195.267 386.6 195.459 386.594 195.656L386.6 195.644Z" stroke="black" stroke-width="0.579804" stroke-miterlimit="10"/>
<path d="M376.964 181.514C389.789 188.918 389.853 201.031 377.114 208.435L358.636 219.173C345.898 226.577 324.984 226.577 312.165 219.173L293.565 208.435C280.745 201.031 280.676 188.918 293.414 181.52L311.892 170.782C324.631 163.378 345.544 163.378 358.364 170.782L376.964 181.52V181.514Z" stroke="black" stroke-width="0.579804" stroke-miterlimit="10"/>
<path d="M337.405 205.218C335.863 205.218 334.322 205.218 332.779 205.218C330.689 205.218 329.012 204.004 328.353 202.021C327.442 199.288 326.519 196.56 325.625 193.823C325.537 193.55 325.535 193.199 325.623 192.927C326.526 190.157 327.454 187.396 328.379 184.635C329.009 182.757 330.682 181.526 332.663 181.517C335.813 181.502 338.963 181.503 342.114 181.517C344.14 181.526 345.807 182.781 346.446 184.711C347.33 187.383 348.215 190.053 349.125 192.716C349.284 193.183 349.269 193.588 349.112 194.048C348.212 196.679 347.305 199.308 346.468 201.959C345.856 203.896 343.984 205.304 341.932 205.228C340.425 205.172 338.915 205.217 337.405 205.217V205.218ZM346.66 192.446C346.091 191.59 345.582 190.817 345.065 190.049C344.504 189.218 343.71 188.796 342.714 188.793C339.167 188.785 335.621 188.783 332.074 188.793C331.079 188.796 330.285 189.218 329.727 190.054C329.276 190.729 328.823 191.403 328.375 192.079C328.308 192.182 328.26 192.297 328.183 192.446H346.66ZM346.681 194.295H328.102C328.811 195.302 329.425 196.262 330.133 197.148C330.583 197.712 331.276 197.937 331.999 197.938C335.595 197.946 339.192 197.946 342.788 197.938C343.531 197.936 344.234 197.7 344.694 197.118C345.386 196.242 345.987 195.292 346.681 194.295ZM345.598 198.907C344.681 199.426 343.779 199.749 342.769 199.748C339.208 199.745 335.647 199.744 332.086 199.748C331.166 199.749 330.323 199.511 329.55 199.018C329.464 198.963 329.375 198.915 329.249 198.843C329.267 198.965 329.268 199.015 329.283 199.059C329.556 199.874 329.818 200.693 330.106 201.503C330.537 202.721 331.494 203.414 332.775 203.418C335.889 203.427 339.003 203.429 342.117 203.415C343.118 203.41 343.975 202.977 344.407 202.088C344.901 201.075 345.209 199.971 345.597 198.906L345.598 198.907ZM345.592 187.818C345.212 186.766 344.908 185.676 344.428 184.672C344.01 183.799 343.18 183.331 342.198 183.324C338.998 183.301 335.798 183.298 332.598 183.324C331.621 183.332 330.787 183.796 330.372 184.675C329.897 185.681 329.589 186.768 329.208 187.819C330.38 187.051 331.63 186.962 332.927 186.975C335.845 187.003 338.763 187.002 341.681 186.976C343.037 186.964 344.363 186.999 345.592 187.818Z" fill="white"/>
<path d="M385.829 32.5279C385.342 44.2863 365.704 50.3163 357.865 56.0563C350.414 60.2889 341.653 61.7558 333.159 61.5876C325.633 61.3615 317.986 59.7961 311.394 56.0563C303.839 50.8497 281.864 42.6744 283.134 31.7683C282.711 40.419 282.821 47.4288 292.77 52.8848C305.856 60.515 320.415 70.7022 336.418 69.1425C351.238 69.6875 367.159 58.306 379.225 50.9424C386.252 45.9967 386.096 39.7 385.846 31.9596C385.846 32.151 385.829 32.3423 385.823 32.5395L385.829 32.5279Z" fill="#AFBEC1"/>
<path d="M376.192 18.3923C389.018 25.7964 389.082 37.9085 376.343 45.3126L357.865 56.0506C345.127 63.4547 324.213 63.4547 311.394 56.0506L292.793 45.3126C279.974 37.9085 279.904 25.7964 292.643 18.3981L311.121 7.66014C323.859 0.256042 344.773 0.256042 357.592 7.66014L376.192 18.3981V18.3923Z" fill="white"/>
<path d="M332.057 32.8899H338.893C339.207 32.5295 339.672 32.3086 340.195 32.3086C341.16 32.3086 341.939 33.0876 341.939 34.0526C341.939 35.0175 341.16 35.7965 340.195 35.7965C339.684 35.7965 339.218 35.5756 338.893 35.2152H334.266C333.731 37.866 331.382 39.8657 328.569 39.8657C325.36 39.8657 322.756 37.2614 322.756 34.0526C322.756 31.239 324.755 28.8905 327.406 28.3557V30.7623C326.058 31.239 325.081 32.5412 325.081 34.0526C325.081 35.9709 326.65 37.5404 328.569 37.5404C330.487 37.5404 332.057 35.9709 332.057 34.0526V32.8899ZM334.963 20.1011C336.882 20.1011 338.451 21.6706 338.451 23.5889H340.776C340.776 20.3801 338.172 17.7758 334.963 17.7758C331.754 17.7758 329.15 20.3801 329.15 23.5889C329.15 25.2515 329.848 26.7397 330.952 27.7976L328.22 32.3319C327.429 32.4946 326.825 33.2038 326.825 34.0526C326.825 35.0175 327.604 35.7965 328.569 35.7965C329.534 35.7965 330.313 35.0175 330.313 34.0526C330.313 33.8665 330.29 33.6921 330.231 33.5294L334.161 26.9838C332.626 26.6234 331.475 25.2399 331.475 23.5889C331.475 21.6706 333.045 20.1011 334.963 20.1011ZM340.195 30.5647C339.451 30.5647 338.765 30.7972 338.195 31.1925L334.649 25.298C333.836 25.1585 333.219 24.4493 333.219 23.5889C333.219 22.624 333.998 21.845 334.963 21.845C335.928 21.845 336.707 22.624 336.707 23.5889C336.707 23.7633 336.684 23.9261 336.637 24.0889L339.184 28.3324C339.509 28.2743 339.846 28.2394 340.195 28.2394C343.404 28.2394 346.008 30.8437 346.008 34.0526C346.008 37.2614 343.404 39.8657 340.195 39.8657C338.044 39.8657 336.161 38.6914 335.161 36.9591H338.265C338.823 37.3312 339.486 37.5404 340.195 37.5404C342.113 37.5404 343.683 35.9709 343.683 34.0526C343.683 32.1342 342.113 30.5647 340.195 30.5647Z" fill="url(#paint0_linear_7808_31656)"/>
<path d="M385.829 32.5279C385.342 44.2863 365.704 50.3163 357.865 56.0563C350.414 60.2889 341.653 61.7558 333.159 61.5876C325.633 61.3615 317.986 59.7961 311.394 56.0563C303.839 50.8497 281.864 42.6744 283.134 31.7683C282.711 40.419 282.821 47.4288 292.77 52.8848C305.856 60.515 320.415 70.7022 336.418 69.1425C351.238 69.6875 367.159 58.306 379.225 50.9424C386.252 45.9967 386.096 39.7 385.846 31.9596C385.846 32.151 385.829 32.3423 385.823 32.5395L385.829 32.5279Z" stroke="black" stroke-width="0.579804" stroke-miterlimit="10"/>
<path d="M376.192 18.3923C389.018 25.7964 389.082 37.9085 376.343 45.3126L357.865 56.0506C345.127 63.4547 324.213 63.4547 311.394 56.0506L292.793 45.3126C279.974 37.9085 279.904 25.7964 292.643 18.3981L311.121 7.66014C323.859 0.256042 344.773 0.256042 357.592 7.66014L376.192 18.3981V18.3923Z" stroke="black" stroke-width="0.579804" stroke-miterlimit="10"/>
</g>
<defs>
<linearGradient id="paint0_linear_7808_31656" x1="346.008" y1="17.7758" x2="322.756" y2="17.7758" gradientUnits="userSpaceOnUse">
<stop stop-color="#201E43"/>
<stop offset="1" stop-color="#272A5E"/>
</linearGradient>
<clipPath id="clip0_7808_31656">
<rect width="386.451" height="232.043" fill="white" transform="translate(0.548828 0.656128)"/>
</clipPath>
</defs>
</svg>
