<svg width="320" height="238" viewBox="0 0 320 238" fill="none" xmlns="http://www.w3.org/2000/svg">
<path d="M315.301 144.451C318.469 146.28 318.473 149.281 315.31 151.118L171.86 234.48C168.697 236.317 163.518 236.325 160.35 234.496L15.9074 151.102C12.7399 149.273 12.7357 146.271 15.8991 144.434L95.9852 97.8937C99.1486 96.0564 104.37 95.9733 107.591 97.7067L161.036 126.526C164.258 128.264 169.491 128.201 172.667 126.389L222.911 97.7358C226.087 95.9234 231.279 95.9359 234.45 97.7649L315.31 144.446L315.301 144.451Z" fill="#C5C7D1"/>
<path d="M19.362 200.802C26.7904 205.175 38.9284 205.249 46.3359 200.976C53.7435 196.703 53.7435 189.682 46.3359 185.384C38.9284 181.081 26.7904 181.007 19.362 185.209C11.9337 189.416 11.9337 196.433 19.362 200.802Z" fill="#C5C7D1"/>
<path d="M313.123 118.279C316.29 120.108 316.295 123.109 313.131 124.947L169.682 208.308C166.519 210.146 161.339 210.154 158.172 208.325L13.7291 124.93C10.5615 123.101 10.5574 120.104 13.7249 118.271L86.1084 76.3113C89.2717 74.4781 94.4429 74.4906 97.5979 76.3404L157.881 111.703C161.036 113.553 166.203 113.561 169.362 111.715L229.474 76.648C232.634 74.8065 237.813 74.7941 240.981 76.6231L313.123 118.275V118.279Z" fill="white"/>
<path d="M315.347 122.353L315.475 130.205C315.251 131.357 314.748 132.392 313.863 133.26L170.484 216.493C168.48 217.707 166.286 218.252 163.92 218.239L163.929 209.622C165.978 209.568 168.019 209.094 170.048 208.096L313.717 124.56C314.415 123.916 314.952 123.176 315.342 122.353H315.347Z" fill="#8C8679"/>
<path d="M163.933 209.622L163.925 218.293C162.221 218.38 160.354 217.989 158.33 217.15L14.0533 133.859C12.694 133.194 11.8045 132.13 11.4886 130.587L11.5966 121.563C11.4886 122.768 12.1453 123.945 13.9702 125.079L158.928 208.749C160.678 209.331 162.333 209.576 163.933 209.622Z" fill="#F1EEEA"/>
<path d="M169.362 111.944C166.203 113.786 161.036 113.769 157.889 111.907L97.5313 76.266C94.3804 74.4079 89.2176 74.3871 86.0542 76.2244L13.7165 118.263C10.5532 120.1 10.5573 123.101 13.7248 124.93L158.167 208.325C161.335 210.154 166.514 210.146 169.678 208.309L313.127 124.947C316.29 123.11 316.286 120.108 313.119 118.279L241.234 76.7773C238.067 74.9483 232.887 74.9566 229.728 76.7981L169.362 111.944Z" stroke="#192147" stroke-width="0.311765" stroke-miterlimit="10"/>
<path d="M11.5345 130.013C11.389 131.385 12.2163 132.782 14.0162 133.821L157.889 216.887C161.215 218.808 166.648 218.8 169.969 216.871L312.849 133.838C314.586 132.827 315.414 131.485 315.33 130.159" stroke="#192147" stroke-width="0.311765" stroke-miterlimit="10"/>
<path d="M11.5132 121.48V130.301" stroke="#192147" stroke-width="0.311765" stroke-miterlimit="10"/>
<path d="M315.31 122.024L315.326 130.45" stroke="#192147" stroke-width="0.311765" stroke-miterlimit="10"/>
<path d="M161.26 200.568C162.449 201.254 164.394 201.254 165.583 200.568L226.855 165.293C228.044 164.607 228.044 163.489 226.855 162.803L165.583 127.528C164.394 126.842 162.449 126.846 161.26 127.528L100.175 162.795C98.9859 163.48 98.9859 164.603 100.175 165.289L161.26 200.56V200.568Z" fill="#8C8679"/>
<path d="M165.87 200.025L224.323 166.254L164.756 131.428C163.932 130.946 162.914 130.95 162.095 131.441L103.201 166.545L161.326 200.17C162.561 200.881 164.527 200.86 165.87 200.025Z" fill="#F1EEEA"/>
<path d="M102.91 166.544L162.075 131.556C162.89 131.074 163.904 131.07 164.723 131.548L224.536 166.399" stroke="#192147" stroke-width="0.311765" stroke-miterlimit="10"/>
<path d="M163.426 127.332C164.19 127.332 164.901 127.499 165.429 127.802L226.701 163.077C227.175 163.352 227.437 163.697 227.437 164.05C227.437 164.403 227.175 164.752 226.701 165.023L165.429 200.298C164.901 200.601 164.19 200.767 163.426 200.767C162.661 200.767 161.946 200.601 161.418 200.294L100.333 165.023C99.8589 164.748 99.597 164.403 99.597 164.046C99.597 163.688 99.8589 163.343 100.333 163.069L161.418 127.802C161.946 127.499 162.661 127.328 163.426 127.328M163.426 127.016C162.64 127.016 161.858 127.187 161.26 127.532L100.175 162.799C98.9859 163.485 98.9859 164.607 100.175 165.293L161.26 200.564C161.854 200.909 162.64 201.079 163.426 201.079C164.211 201.079 164.989 200.909 165.583 200.568L226.855 165.293C228.044 164.607 228.044 163.489 226.855 162.803L165.583 127.528C164.989 127.187 164.207 127.016 163.426 127.016Z" fill="#192147"/>
<path d="M87.543 158.256C88.7318 158.942 90.6773 158.942 91.8661 158.256L153.138 122.981C154.327 122.295 154.327 121.177 153.138 120.491L91.8661 85.2156C90.6773 84.5298 88.7318 84.5339 87.543 85.2156L26.4579 120.482C25.269 121.168 25.269 122.291 26.4579 122.977L87.543 158.248V158.256Z" fill="#8C8679"/>
<path d="M92.1478 157.711L150.602 123.941L91.0338 89.1149C90.2107 88.6327 89.1923 88.6369 88.3734 89.1274L29.479 124.232L87.6044 157.857C88.839 158.568 90.8052 158.547 92.1478 157.711Z" fill="#F1EEEA"/>
<path d="M29.1884 124.232L88.353 89.2437C89.1677 88.7615 90.182 88.7573 91.0009 89.2354L150.814 124.086" stroke="#192147" stroke-width="0.311765" stroke-miterlimit="10"/>
<path d="M89.7038 85.0204C90.4687 85.0204 91.1795 85.1866 91.7074 85.4901L152.98 120.765C153.453 121.04 153.715 121.385 153.715 121.738C153.715 122.091 153.453 122.44 152.98 122.711L91.7074 157.986C91.1795 158.289 90.4687 158.455 89.7038 158.455C88.939 158.455 88.224 158.289 87.6961 157.982L26.611 122.711C26.1371 122.436 25.8752 122.091 25.8752 121.734C25.8752 121.376 26.1371 121.031 26.611 120.757L87.6961 85.4901C88.224 85.1866 88.939 85.0162 89.7038 85.0162M89.7038 84.7044C88.9182 84.7044 88.1367 84.8749 87.5381 85.2199L26.453 120.487C25.2642 121.173 25.2642 122.295 26.453 122.981L87.5381 158.252C88.1325 158.597 88.9182 158.767 89.7038 158.767C90.4895 158.767 91.2668 158.597 91.8612 158.256L153.133 122.981C154.322 122.295 154.322 121.177 153.133 120.491L91.8612 85.2157C91.2668 84.8749 90.4853 84.7044 89.7038 84.7044Z" fill="#192147"/>
<path d="M235.419 157.82C236.608 158.506 238.553 158.506 239.742 157.82L301.014 122.545C302.203 121.859 302.203 120.741 301.014 120.055L239.742 84.7795C238.553 84.0937 236.608 84.0978 235.419 84.7795L174.334 120.046C173.145 120.732 173.145 121.855 174.334 122.54L235.419 157.811V157.82Z" fill="#8C8679"/>
<path d="M240.025 157.275L298.479 123.504L238.911 88.6783C238.088 88.1961 237.069 88.2002 236.25 88.6908L177.356 123.795L235.481 157.42C236.716 158.131 238.682 158.11 240.025 157.275Z" fill="#F1EEEA"/>
<path d="M177.065 123.795L236.229 88.8068C237.044 88.3246 238.058 88.3205 238.877 88.7985L298.69 123.65" stroke="#192147" stroke-width="0.311765" stroke-miterlimit="10"/>
<path d="M237.581 84.5839C238.345 84.5839 239.056 84.7502 239.584 85.0536L300.856 120.329C301.33 120.603 301.592 120.948 301.592 121.301C301.592 121.655 301.33 122.004 300.856 122.274L239.584 157.549C239.056 157.853 238.345 158.019 237.581 158.019C236.816 158.019 236.101 157.853 235.573 157.545L174.488 122.274C174.014 122 173.752 121.655 173.752 121.297C173.752 120.94 174.014 120.595 174.488 120.32L235.573 85.0536C236.101 84.7502 236.816 84.5797 237.581 84.5797M237.581 84.268C236.795 84.268 236.013 84.4384 235.415 84.7834L174.33 120.05C173.141 120.736 173.141 121.858 174.33 122.544L235.415 157.815C236.009 158.16 236.795 158.331 237.581 158.331C238.366 158.331 239.144 158.16 239.738 157.819L301.01 122.544C302.199 121.858 302.199 120.74 301.01 120.054L239.738 84.7793C239.144 84.4384 238.362 84.268 237.581 84.268Z" fill="#192147"/>
<g opacity="0.51">
<path d="M30.5724 39.7523L209.854 94.3527C215.744 96.4353 224.112 95.5374 230.139 91.9542C237.198 103.598 246.118 106.615 254.785 106.786C279.868 103.731 284.885 77.1225 270.053 63.1638C278.995 42.2257 262.85 29.5639 249.331 28.0508L31.1543 24.3429L30.5724 39.7565V39.7523Z" fill="#BEE8EE"/>
<path d="M30.6013 38.9252L30.5722 39.7524L31.3662 39.9977" stroke="#192147" stroke-width="0.311765" stroke-miterlimit="10" stroke-dasharray="2.96 2.96"/>
<path d="M32.95 40.4805L209.854 94.3575C215.283 96.278 222.815 95.6628 228.68 92.7488" stroke="#192147" stroke-width="0.311765" stroke-miterlimit="10" stroke-dasharray="2.96 2.96"/>
<path d="M229.416 92.3661C229.661 92.2331 229.902 92.0959 230.139 91.9546C230.285 92.1957 230.43 92.4284 230.576 92.6612" stroke="#192147" stroke-width="0.311765" stroke-miterlimit="10" stroke-dasharray="2.96 2.96"/>
<path d="M231.481 94.0366C238.307 103.963 246.658 106.624 254.785 106.786C279.181 103.814 284.593 78.5606 271.221 64.3359" stroke="#192147" stroke-width="0.311765" stroke-miterlimit="10" stroke-dasharray="2.96 2.96"/>
<path d="M270.648 63.7419C270.452 63.5466 270.253 63.3553 270.049 63.1641C270.157 62.9064 270.265 62.6528 270.369 62.3951" stroke="#192147" stroke-width="0.311765" stroke-miterlimit="10" stroke-dasharray="2.96 2.96"/>
<path d="M270.955 60.836C277.785 41.2863 262.342 29.5057 249.331 28.0467L32.8167 24.3679" stroke="#192147" stroke-width="0.311765" stroke-miterlimit="10" stroke-dasharray="2.96 2.96"/>
<path d="M31.9857 24.3554L31.1543 24.3429L31.1211 25.1743" stroke="#192147" stroke-width="0.311765" stroke-miterlimit="10" stroke-dasharray="2.96 2.96"/>
<path d="M31.0627 26.7L30.6304 38.1605" stroke="#192147" stroke-width="0.311765" stroke-miterlimit="10" stroke-dasharray="2.96 2.96"/>
</g>
<path opacity="0.5" d="M262.442 122.099C261.427 121.508 260.313 121.01 259.133 120.598C262.837 116.824 261.918 111.906 256.368 108.68C249.713 104.815 238.802 104.744 232.126 108.527C230.243 109.591 228.892 110.859 228.073 112.214C222.112 111.05 215.265 111.794 210.539 114.471C203.863 118.25 203.863 124.56 210.539 128.488C216.716 132.125 226.518 132.454 233.223 129.436C233.443 131.797 235.102 134.133 238.203 135.962C244.879 139.89 255.791 139.961 262.446 136.116C269.101 132.271 269.101 125.965 262.446 122.099H262.442Z" fill="#8C8679"/>
<g clip-path="url(#clip0_7808_31408)">
<path d="M262.699 66.5572C255.171 75.2021 242.013 76.1107 233.368 68.5825C224.723 61.0543 223.814 47.896 231.342 39.251C238.871 30.6061 252.029 29.6975 260.674 37.2257C269.319 44.7539 270.228 57.9122 262.699 66.5572Z" fill="#3E4771" stroke="#192147" stroke-width="0.358529" stroke-miterlimit="10"/>
<path d="M268.464 49.333C267.633 44.6162 265.24 40.1361 261.347 36.7456C252.302 28.8757 238.597 29.822 230.724 38.8635C226.862 43.2977 225.122 48.8561 225.423 54.2973L229.965 53.777C230.004 51.4973 230.809 49.219 232.419 47.3696C236.045 43.2058 242.385 42.768 246.549 46.394C248.153 47.791 249.206 49.5954 249.684 51.5141L268.464 49.333Z" fill="#F1EEEA"/>
<path d="M268.464 49.333C267.633 44.6162 265.24 40.1361 261.347 36.7456C252.302 28.8757 238.597 29.822 230.724 38.8635C226.862 43.2977 225.122 48.8561 225.423 54.2973L229.965 53.777C230.004 51.4973 230.809 49.219 232.419 47.3696C236.045 43.2058 242.385 42.768 246.549 46.394C248.153 47.791 249.206 49.5954 249.684 51.5141L268.464 49.333Z" fill="#ED6E85" stroke="#192147" stroke-width="0.358529" stroke-miterlimit="10"/>
<path d="M247.161 31.4158C249.296 32.2984 251.329 33.5235 253.167 35.1246C257.757 39.121 260.264 44.6131 260.598 50.2417L268.46 49.3295C267.63 44.6127 265.237 40.1326 261.343 36.7421C257.248 33.1758 252.197 31.4272 247.164 31.4122L247.161 31.4158Z" fill="#BC3857"/>
<path d="M249.983 53.8855C250 56.2392 249.191 58.6093 247.524 60.5236C243.898 64.6874 237.559 65.1252 233.395 61.4992C231.729 60.0488 230.66 58.1608 230.207 56.1558L225.681 56.6648C226.47 61.4657 228.876 66.033 232.838 69.4764C241.876 77.3468 255.587 76.4001 263.457 67.3622C267.375 62.863 269.109 57.2102 268.749 51.6919L249.987 53.8819L249.983 53.8855Z" fill="#F1EEEA"/>
<path d="M255.292 65.8496C251.06 70.7092 245.146 73.2353 239.171 73.3192C247.474 76.5747 257.27 74.4752 263.461 67.366C267.379 62.8668 269.113 57.214 268.752 51.6957L260.615 52.6472C260.381 57.3561 258.63 62.0242 255.296 65.8527L255.292 65.8496Z" fill="#E2DED5"/>
<path d="M249.983 53.8855C250 56.2392 249.191 58.6093 247.524 60.5236C243.898 64.6874 237.559 65.1252 233.395 61.4992C231.729 60.0488 230.66 58.1608 230.207 56.1558L225.681 56.6648C226.47 61.4657 228.876 66.033 232.838 69.4764C241.876 77.3468 255.587 76.4001 263.457 67.3622C267.375 62.863 269.109 57.2102 268.749 51.6919L249.987 53.8819L249.983 53.8855Z" stroke="#192147" stroke-width="0.358529" stroke-miterlimit="10"/>
<path d="M246.082 59.2681C243.147 62.6389 238.021 62.9928 234.65 60.0575C231.28 57.1222 230.926 51.9964 233.861 48.6257C236.796 45.2549 241.926 44.9041 245.293 47.8363C248.66 50.7685 249.014 55.901 246.082 59.2681Z" fill="#E2DED5"/>
<path d="M234.647 60.0546C235.682 60.9556 236.877 61.5405 238.127 61.8303C240.29 61.603 242.376 60.6052 243.915 58.8387C247.041 55.248 246.757 49.8464 243.357 46.5879C240.172 45.1204 236.272 45.8505 233.858 48.6228C230.922 51.9935 231.28 57.1225 234.647 60.0546Z" fill="#F1EEEA"/>
<path d="M246.082 59.2681C243.147 62.6389 238.021 62.9928 234.65 60.0575C231.28 57.1222 230.926 51.9964 233.861 48.6257C236.796 45.2549 241.926 44.9041 245.293 47.8363C248.66 50.7685 249.014 55.901 246.082 59.2681Z" stroke="#192147" stroke-width="0.358529" stroke-miterlimit="10"/>
<path d="M243.001 49.0036C242.399 48.4793 241.722 48.0992 241.01 47.8468C238.954 47.5009 236.768 48.1905 235.299 49.8777C233.058 52.4517 233.328 56.3702 235.902 58.6117C236.504 59.136 237.181 59.5162 237.893 59.7686C239.95 60.1145 242.135 59.4248 243.604 57.7377C245.846 55.1636 245.575 51.2451 243.001 49.0036Z" fill="white"/>
<path d="M243.886 49.1532C242.823 48.2846 241.555 47.8267 240.27 47.7663C238.647 47.8682 237.063 48.5807 235.911 49.9037C233.632 52.521 233.907 56.507 236.524 58.7862C237.137 59.3198 237.825 59.7095 238.547 59.9645C240.642 60.318 242.863 59.6157 244.354 57.9032C246.593 55.3328 246.362 51.4556 243.883 49.1568L243.886 49.1532Z" fill="#F1EEEA"/>
<path d="M241.247 47.8878C241.658 48.1067 242.053 48.3742 242.42 48.6945C245.063 50.9956 245.341 55.022 243.04 57.6645C241.75 59.1462 239.916 59.8827 238.094 59.8425C240.374 60.5661 242.972 59.9258 244.639 58.0115C246.881 55.4375 246.61 51.519 244.036 49.2775C243.211 48.5586 242.247 48.0999 241.243 47.8914L241.247 47.8878Z" fill="#E2DED5"/>
<path d="M244.64 58.0119C242.399 60.5859 238.48 60.8565 235.906 58.615C233.332 56.3735 233.061 52.455 235.303 49.8809C237.544 47.3069 241.463 47.0363 244.037 49.2779C246.611 51.5194 246.882 55.4379 244.64 58.0119Z" stroke="#192147" stroke-width="0.358529" stroke-miterlimit="10"/>
</g>
<g clip-path="url(#clip1_7808_31408)">
<path d="M226.068 89.0577C215.89 94.3313 203.318 90.341 198.044 80.1627C192.771 69.9844 196.761 57.4128 206.939 52.1391C217.118 46.8655 229.689 50.8558 234.963 61.0341C240.236 71.2124 236.246 83.784 226.068 89.0577Z" fill="#3E4771" stroke="#192147" stroke-width="0.358529" stroke-miterlimit="10"/>
<path d="M237.758 75.1565C238.719 70.4645 238.139 65.4184 235.764 60.8344C230.244 50.1914 217.151 46.0354 206.506 51.551C201.285 54.256 197.623 58.7858 195.904 63.9569L200.319 65.142C201.193 63.0362 202.779 61.2131 204.957 60.085C209.859 57.5449 215.916 59.4675 218.456 64.3698C219.435 66.2586 219.751 68.3237 219.49 70.2838L237.758 75.1565Z" fill="#F1EEEA"/>
<path d="M237.758 75.1565C238.719 70.4645 238.139 65.4184 235.764 60.8344C230.244 50.1914 217.151 46.0354 206.506 51.551C201.285 54.256 197.623 58.7858 195.904 63.9569L200.319 65.142C201.193 63.0362 202.779 61.2131 204.957 60.085C209.859 57.5449 215.916 59.4675 218.456 64.3698C219.435 66.2586 219.751 68.3237 219.49 70.2838L237.758 75.1565Z" fill="#ED6E85" stroke="#192147" stroke-width="0.358529" stroke-miterlimit="10"/>
<path d="M224.529 50.6653C226.19 52.2706 227.63 54.157 228.752 56.3217C231.551 61.725 231.865 67.7541 230.107 73.1118L237.755 75.1526C238.716 70.4606 238.136 65.4145 235.761 60.8305C233.263 56.0088 229.208 52.5265 224.533 50.6631L224.529 50.6653Z" fill="#BC3857"/>
<path d="M218.897 72.5991C218.048 74.7943 216.425 76.7013 214.171 77.8691C209.269 80.4092 203.212 78.4866 200.672 73.5842C199.656 71.6233 199.355 69.4745 199.67 67.4431L195.274 66.2535C194.244 71.0084 194.803 76.1403 197.222 80.7986C202.735 91.4395 215.835 95.5976 226.476 90.0842C231.774 87.3396 235.464 82.7195 237.156 77.4548L218.902 72.5969L218.897 72.5991Z" fill="#F1EEEA"/>
<path d="M219.438 85.6762C213.716 88.6408 207.287 88.8167 201.7 86.6992C208.225 92.7779 218.108 94.4252 226.478 90.0884C231.775 87.3438 235.465 82.7237 237.158 77.4589L229.24 75.3536C227.292 79.6471 223.948 83.3449 219.44 85.6805L219.438 85.6762Z" fill="#E2DED5"/>
<path d="M218.897 72.5991C218.048 74.7943 216.425 76.7013 214.171 77.8691C209.269 80.4092 203.212 78.4866 200.672 73.5842C199.656 71.6233 199.355 69.4745 199.67 67.4431L195.274 66.2535C194.244 71.0084 194.803 76.1403 197.222 80.7986C202.735 91.4395 215.835 95.5976 226.476 90.0842C231.774 87.3396 235.464 82.7195 237.156 77.4548L218.902 72.5969L218.897 72.5991Z" stroke="#192147" stroke-width="0.358529" stroke-miterlimit="10"/>
<path d="M213.291 76.1721C209.322 78.2283 204.425 76.6739 202.369 72.7053C200.312 68.7367 201.867 63.8395 205.835 61.7833C209.804 59.727 214.703 61.2857 216.757 65.25C218.811 69.2144 217.255 74.118 213.291 76.1721Z" fill="#E2DED5"/>
<path d="M202.366 72.7001C202.997 73.9183 203.895 74.9017 204.951 75.6305C207.046 76.214 209.353 76.0525 211.432 74.9749C215.66 72.7845 217.38 67.6562 215.415 63.3762C212.993 60.8411 209.097 60.0869 205.833 61.7781C201.864 63.8343 200.312 68.7358 202.366 72.7001Z" fill="#F1EEEA"/>
<path d="M213.291 76.1721C209.322 78.2283 204.425 76.6739 202.369 72.7053C200.312 68.7367 201.867 63.8395 205.835 61.7833C209.804 59.727 214.703 61.2857 216.757 65.25C218.811 69.2144 217.255 74.118 213.291 76.1721Z" stroke="#192147" stroke-width="0.358529" stroke-miterlimit="10"/>
<path d="M214.198 65.494C213.831 64.7852 213.341 64.1829 212.772 63.6865C210.986 62.609 208.7 62.4473 206.714 63.4766C203.683 65.0468 202.495 68.7906 204.065 71.8211C204.432 72.53 204.922 73.1323 205.492 73.6286C207.277 74.7062 209.563 74.8678 211.55 73.8386C214.58 72.2684 215.769 68.5246 214.198 65.494Z" fill="white"/>
<path d="M214.966 65.957C214.296 64.7586 213.285 63.8667 212.112 63.3383C210.565 62.8368 208.831 62.9173 207.273 63.7245C204.191 65.3211 202.983 69.1293 204.579 72.2108C204.953 72.9323 205.449 73.5474 206.027 74.05C207.846 75.1485 210.17 75.3117 212.186 74.2671C215.212 72.6991 216.423 69.0084 214.961 65.9592L214.966 65.957Z" fill="#F1EEEA"/>
<path d="M212.977 63.8121C213.279 64.1669 213.548 64.5607 213.772 64.9937C215.384 68.1049 214.163 71.9517 211.052 73.5637C209.307 74.4676 207.332 74.479 205.652 73.7719C207.506 75.2825 210.158 75.642 212.412 74.4742C215.442 72.904 216.631 69.1602 215.061 66.1297C214.557 65.1577 213.829 64.3771 212.972 63.8143L212.977 63.8121Z" fill="#E2DED5"/>
<path d="M212.411 74.4736C209.381 76.0439 205.637 74.8555 204.067 71.825C202.497 68.7944 203.685 65.0506 206.715 63.4804C209.746 61.9102 213.49 63.0985 215.06 66.1291C216.63 69.1596 215.442 72.9034 212.411 74.4736Z" stroke="#192147" stroke-width="0.358529" stroke-miterlimit="10"/>
</g>
<g clip-path="url(#clip2_7808_31408)">
<path d="M253.514 102.046C242.051 102.046 232.724 92.7196 232.724 81.2562C232.724 69.7928 242.051 60.4663 253.514 60.4663C264.978 60.4663 274.304 69.7928 274.304 81.2562C274.304 92.7196 264.978 102.046 253.514 102.046Z" fill="#3E4771" stroke="#192147" stroke-width="0.358529" stroke-miterlimit="10"/>
<path d="M270.288 95.0807C273.3 91.3568 275.107 86.6099 275.107 81.447C275.102 69.4578 265.388 59.7441 253.399 59.7441C247.519 59.7441 242.184 62.0817 238.279 65.8821L241.654 68.9655C243.398 67.4979 245.645 66.6087 248.098 66.6087C253.619 66.6087 258.113 71.1023 258.113 76.6236C258.113 78.7509 257.443 80.73 256.31 82.3505L270.288 95.0807Z" fill="#F1EEEA"/>
<path d="M270.288 95.0807C273.3 91.3568 275.107 86.6099 275.107 81.447C275.102 69.4578 265.388 59.7441 253.399 59.7441C247.519 59.7441 242.184 62.0817 238.279 65.8821L241.654 68.9655C243.398 67.4979 245.645 66.6087 248.098 66.6087C253.619 66.6087 258.113 71.1023 258.113 76.6236C258.113 78.7509 257.443 80.73 256.31 82.3505L270.288 95.0807Z" fill="#ED6E85" stroke="#192147" stroke-width="0.358529" stroke-miterlimit="10"/>
<path d="M269.81 67.251C270.547 69.4404 270.958 71.778 270.958 74.216C270.958 80.3014 268.462 85.7989 264.437 89.7475L270.288 95.0776C273.3 91.3537 275.107 86.6068 275.107 81.444C275.107 76.0134 273.109 71.0562 269.815 67.251H269.81Z" fill="#BC3857"/>
<path d="M254.718 84.1344C252.954 85.6928 250.636 86.6393 248.098 86.6393C242.576 86.6393 238.083 82.1458 238.083 76.6244C238.083 74.4159 238.804 72.3699 240.019 70.7111L236.663 67.6325C233.56 71.3803 231.696 76.1942 231.701 81.4431C231.701 93.4275 241.419 103.146 253.404 103.146C259.37 103.146 264.772 100.741 268.696 96.8455L254.723 84.1344H254.718Z" fill="#F1EEEA"/>
<path d="M249.183 95.9946C242.739 95.9946 236.95 93.1933 232.963 88.7428C235.961 97.1419 243.977 103.151 253.404 103.151C259.37 103.151 264.772 100.746 268.697 96.8503L262.635 91.3385C258.93 94.2546 254.26 95.9994 249.183 95.9994V95.9946Z" fill="#E2DED5"/>
<path d="M254.718 84.1344C252.954 85.6928 250.636 86.6393 248.098 86.6393C242.576 86.6393 238.083 82.1458 238.083 76.6244C238.083 74.4159 238.804 72.3699 240.019 70.7111L236.663 67.6325C233.56 71.3803 231.696 76.1942 231.701 81.4431C231.701 93.4275 241.419 103.146 253.404 103.146C259.37 103.146 264.772 100.741 268.696 96.8455L254.723 84.1344H254.718Z" stroke="#192147" stroke-width="0.358529" stroke-miterlimit="10"/>
<path d="M248.098 84.7268C243.628 84.7268 239.995 81.0937 239.995 76.6241C239.995 72.1544 243.628 68.5213 248.098 68.5213C252.568 68.5213 256.201 72.1592 256.201 76.6241C256.201 81.0889 252.563 84.7268 248.098 84.7268Z" fill="#E2DED5"/>
<path d="M239.995 76.6194C239.995 77.9913 240.339 79.2773 240.942 80.4102C242.534 81.8921 244.656 82.81 246.998 82.81C251.76 82.81 255.646 79.0478 255.871 74.3439C254.886 70.9785 251.774 68.5166 248.098 68.5166C243.628 68.5166 239.995 72.1545 239.995 76.6194Z" fill="#F1EEEA"/>
<path d="M248.098 84.7268C243.628 84.7268 239.995 81.0937 239.995 76.6241C239.995 72.1544 243.628 68.5213 248.098 68.5213C252.568 68.5213 256.201 72.1592 256.201 76.6241C256.201 81.0889 252.563 84.7268 248.098 84.7268Z" stroke="#192147" stroke-width="0.358529" stroke-miterlimit="10"/>
<path d="M253.816 75.6639C253.816 74.8656 253.658 74.1055 253.381 73.4028C252.291 71.6245 250.336 70.4294 248.098 70.4294C244.685 70.4294 241.908 73.2068 241.908 76.62C241.908 77.4183 242.066 78.1784 242.343 78.8811C243.433 80.6594 245.388 81.8545 247.625 81.8545C251.038 81.8545 253.816 79.0771 253.816 75.6639Z" fill="white"/>
<path d="M254.284 76.4288C254.241 75.0568 253.753 73.7995 252.955 72.7909C251.812 71.634 250.235 70.9074 248.48 70.9074C245.01 70.9074 242.185 73.7326 242.185 77.2032C242.185 78.0158 242.342 78.7903 242.625 79.5025C243.734 81.3143 245.722 82.5285 247.993 82.5285C251.401 82.5285 254.174 79.8085 254.279 76.4288H254.284Z" fill="#F1EEEA"/>
<path d="M253.505 73.6074C253.61 74.0615 253.667 74.5348 253.667 75.0224C253.667 78.5264 250.813 81.3803 247.309 81.3803C245.345 81.3803 243.585 80.4816 242.419 79.0809C243.37 81.2751 245.56 82.8144 248.098 82.8144C251.511 82.8144 254.289 80.037 254.289 76.6238C254.289 75.5291 254.002 74.5013 253.5 73.6074H253.505Z" fill="#E2DED5"/>
<path d="M248.098 82.8146C244.685 82.8146 241.907 80.0372 241.907 76.624C241.907 73.2108 244.685 70.4334 248.098 70.4334C251.511 70.4334 254.289 73.2108 254.289 76.624C254.289 80.0372 251.511 82.8146 248.098 82.8146Z" stroke="#192147" stroke-width="0.358529" stroke-miterlimit="10"/>
</g>
<path opacity="0.5" d="M142.941 177.19L162.64 172.069L191.821 180.457L213.346 165.239L180.482 158.044L161.219 159.565L142.941 177.19Z" fill="#8C8679"/>
<g clip-path="url(#clip3_7808_31408)">
<path d="M145.005 150.432L166.692 137.249L188.573 150.432L166.789 163.01L145.005 150.432Z" fill="#02BE9E"/>
<path opacity="0.75" d="M166.739 115.077L166.79 137.248L145.006 150.432L166.739 115.077Z" fill="#02BE9E"/>
<path opacity="0.75" d="M166.739 115.077L166.79 137.248L188.574 150.432L166.739 115.077Z" fill="#02BE9E"/>
<path opacity="0.5" d="M166.739 115.077L166.79 163.01L188.574 150.432L166.739 115.077Z" fill="#02BE9E"/>
<path opacity="0.25" d="M166.739 115.077L166.79 163.01L145.006 150.432L166.739 115.077Z" fill="#02BE9E"/>
<path d="M166.786 162.741L166.692 115.469" stroke="white" stroke-width="0.293059" stroke-miterlimit="10"/>
<path d="M145.006 150.432L166.692 115.077L188.574 150.432L166.79 163.01L145.006 150.432Z" stroke="#192147" stroke-width="0.293059" stroke-miterlimit="10"/>
</g>
<g clip-path="url(#clip4_7808_31408)">
<path d="M121.054 164.388L142.741 151.204L164.622 164.388L142.838 176.966L121.054 164.388Z" fill="#02BE9E"/>
<path opacity="0.5" d="M142.788 129.033L142.839 151.204L121.055 164.388L142.788 129.033Z" fill="#02BE9E"/>
<path opacity="0.75" d="M142.788 129.033L142.838 151.204L164.622 164.388L142.788 129.033Z" fill="#02BE9E"/>
<path opacity="0.5" d="M142.788 129.033L142.838 176.966L164.622 164.388L142.788 129.033Z" fill="#02BE9E"/>
<path opacity="0.25" d="M142.788 129.033L142.839 176.966L121.055 164.388L142.788 129.033Z" fill="#02BE9E"/>
<path d="M142.834 176.696L142.74 129.424" stroke="white" stroke-width="0.293059" stroke-miterlimit="10"/>
<path d="M121.055 164.388L142.741 129.033L164.623 164.388L142.839 176.966L121.055 164.388Z" stroke="#192147" stroke-width="0.293059" stroke-miterlimit="10"/>
</g>
<path d="M206.038 163.613L180.481 158.043L162.64 172.068L191.821 180.457L206.038 163.613Z" fill="#02BE9E"/>
<path opacity="0.75" d="M184.152 133.447L191.821 180.457L206.038 163.613L184.152 133.447Z" fill="#02BE9E"/>
<path opacity="0.5" d="M184.152 133.447L206.038 163.613L180.482 158.043L184.152 133.447Z" fill="#02BE9E"/>
<path opacity="0.75" d="M184.152 133.447L162.64 172.068L180.481 158.043L184.152 133.447Z" fill="#02BE9E"/>
<path opacity="0.5" d="M184.152 133.447L191.821 180.457L162.64 172.068L184.152 133.447Z" fill="#02BE9E"/>
<path d="M191.821 180.457L184.152 133.447" stroke="white" stroke-width="0.311765" stroke-linejoin="round"/>
<path d="M184.152 133.447L206.038 163.613L191.821 180.457L162.64 172.068L184.152 133.447Z" stroke="#192147" stroke-width="0.311765" stroke-linejoin="round"/>
<path d="M59.8866 129.906L87.9329 121.834L108.218 134.267L134.826 118.783L94.2597 100.896L59.8866 129.906Z" fill="#A49DD4"/>
<g clip-path="url(#clip5_7808_31408)">
<path d="M105.407 103.896L83.6752 116.31V111.945L105.407 100.933V103.896Z" fill="#7067AB"/>
<path d="M83.675 116.308L63.8854 104.471L63.7501 100.421L83.675 111.944V116.308Z" fill="#A49DD4"/>
<path d="M84.9928 112.704L107.135 99.9328V78.7596L85.0146 91.5263L84.9928 112.704Z" fill="#9A97F1"/>
<path d="M86.7607 92.5347L105.389 81.78V98.9246L86.7432 109.679L86.7607 92.5347Z" fill="#7067AB" stroke="#192147" stroke-width="0.327353" stroke-linejoin="round"/>
<path d="M86.7607 92.5341L103.757 82.7266L103.643 98.1908L86.7432 107.575L86.7607 92.5341Z" fill="#323A60"/>
<path d="M86.7607 92.5341L103.757 82.7223L103.648 85.9653C98.0391 87.7984 92.4042 91.0414 86.7432 95.3494L86.7607 92.5298V92.5341Z" fill="#192147"/>
<path d="M86.7607 92.5341L103.757 82.7266L103.643 98.1908L86.7432 107.575L86.7607 92.5341Z" stroke="#192147" stroke-width="0.327353" stroke-linejoin="round"/>
<path d="M62.986 99.9803L84.9928 112.703L85.0146 91.5259L65.5611 80.2039C64.5834 79.2262 63.0645 80.5967 63.0602 81.8799L62.986 99.9803Z" fill="#DECEFD"/>
<path d="M81.9421 110.988L84.993 112.703L85.0149 91.5259L81.9421 89.7014V110.988Z" fill="#B3B1FD"/>
<path d="M87.6383 67.6077L107.14 78.7551L85.0195 91.5219L64.4966 79.6979L85.0195 67.6164C85.827 67.145 86.8265 67.1407 87.6383 67.6077Z" fill="#EAE0FF"/>
<path d="M103.844 76.9477L107.139 78.7547L85.0191 91.5214L81.9464 89.7014C81.9464 89.7014 97.7029 80.5267 103.844 76.9477Z" fill="#DECEFD"/>
<path d="M63.0695 82.6827L63.0041 99.9801L63.7504 100.421L63.8857 104.471L83.6753 116.308L105.407 103.9V100.936L107.136 99.9364V78.7589M107.136 78.7589L85.0153 91.5256L65.6272 80.2429M107.136 78.7589L87.8043 67.594C86.9881 67.1226 85.9799 67.1269 85.168 67.6027L63.9818 80.0596" stroke="#192147" stroke-width="0.327353" stroke-linejoin="round"/>
<path d="M62.986 99.9803L84.9928 112.703V91.5258" stroke="#192147" stroke-width="0.327353" stroke-linejoin="round"/>
<path d="M107.135 99.933L84.9932 112.704" stroke="#192147" stroke-width="0.327353" stroke-linejoin="round"/>
<path d="M103.844 76.9477L81.9421 89.7014V110.988" stroke="#192147" stroke-width="0.327353" stroke-linejoin="round"/>
<path d="M83.6752 111.944V116.309" stroke="#192147" stroke-width="0.327353" stroke-linejoin="round"/>
<path d="M105.389 98.9248L103.643 98.1915" stroke="#192147" stroke-width="0.327353" stroke-linejoin="round"/>
<path d="M63.0562 83.2638C63.0562 83.2638 62.8991 78.5587 65.627 80.2434" stroke="#192147" stroke-width="0.327353" stroke-linejoin="round"/>
<path d="M78.5859 91.5263V105.498L69.3109 100.177V86.2886L78.5859 91.5263Z" fill="#C6B4EB"/>
<path d="M78.5859 104.651V105.498L69.3109 100.177V86.2886L70.0572 86.7295V99.9327L78.5859 104.651Z" fill="#A49DD4"/>
<path d="M78.5859 91.5263V105.498L69.3109 100.177V86.2886L78.5859 91.5263Z" stroke="#192147" stroke-width="0.327353" stroke-miterlimit="10"/>
<path d="M70.0569 86.6243V99.9322L78.4895 104.585" stroke="#192147" stroke-width="0.327353" stroke-miterlimit="10"/>
<path d="M69.3109 100.177L70.0572 99.933" stroke="#192147" stroke-width="0.327353" stroke-miterlimit="10"/>
<path d="M72.58 100.404L70.8909 99.4959V96.9862L72.58 97.8941V100.404Z" fill="#F9AE3B" stroke="#192147" stroke-width="0.327353" stroke-linejoin="round"/>
<path d="M72.58 97.3483L70.8909 96.4405V93.9308L72.58 94.8386V97.3483Z" fill="#F5911E" stroke="#192147" stroke-width="0.327353" stroke-linejoin="round"/>
<path d="M74.7802 89.374V102.538" stroke="#192147" stroke-width="0.327353" stroke-miterlimit="10"/>
<path d="M78.4902 100.933L74.7802 99.0077" stroke="#192147" stroke-width="0.327353" stroke-miterlimit="10"/>
</g>
<g clip-path="url(#clip6_7808_31408)">
<path d="M81.6293 117.527L59.8974 129.94V125.576L81.6293 114.564V117.527Z" fill="#7067AB"/>
<path d="M59.8976 129.941L40.1081 118.104L39.9727 114.053L59.8976 125.576V129.941Z" fill="#A49DD4"/>
<path d="M61.2154 126.335L83.3576 113.564V92.3912L61.2372 105.158L61.2154 126.335Z" fill="#9A97F1"/>
<path d="M62.9833 106.166L81.6118 95.4118V112.556L62.9658 123.311L62.9833 106.166Z" fill="#7067AB" stroke="#192147" stroke-width="0.327353" stroke-linejoin="round"/>
<path d="M62.9833 106.166L79.9794 96.3589L79.866 111.823L62.9658 121.207L62.9833 106.166Z" fill="#323A60"/>
<path d="M62.9833 106.166L79.9794 96.3545L79.8703 99.5974C74.2617 101.431 68.6268 104.674 62.9658 108.982L62.9833 106.162V106.166Z" fill="#192147"/>
<path d="M62.9833 106.166L79.9794 96.3589L79.866 111.823L62.9658 121.207L62.9833 106.166Z" stroke="#192147" stroke-width="0.327353" stroke-linejoin="round"/>
<path d="M39.2089 113.613L61.2158 126.336L61.2376 105.158L41.7841 93.8361C40.8064 92.8584 39.2875 94.2289 39.2831 95.5121L39.2089 113.613Z" fill="#DECEFD"/>
<path d="M58.1647 124.62L61.2157 126.335L61.2375 105.157L58.1647 103.333V124.62Z" fill="#B3B1FD"/>
<path d="M63.8601 81.2394L83.3616 92.3868L61.2413 105.154L40.7185 93.3296L61.2413 81.2481C62.0488 80.7767 63.0483 80.7723 63.8601 81.2394Z" fill="#EAE0FF"/>
<path d="M80.0667 90.5795L83.3621 92.3865L61.2417 105.153L58.169 103.333C58.169 103.333 73.9256 94.1586 80.0667 90.5795Z" fill="#DECEFD"/>
<path d="M39.2923 96.3155L39.2269 113.613L39.9732 114.054L40.1085 118.104L59.8981 129.941L81.63 117.532V114.569L83.3584 113.569V92.3916M83.3584 92.3916L61.2381 105.158L41.8501 93.8756M83.3584 92.3916L64.0271 81.2267C63.2109 80.7553 62.2027 80.7597 61.3908 81.2354L40.2046 93.6923" stroke="#192147" stroke-width="0.327353" stroke-linejoin="round"/>
<path d="M39.2089 113.613L61.2158 126.336V105.158" stroke="#192147" stroke-width="0.327353" stroke-linejoin="round"/>
<path d="M83.3576 113.564L61.2154 126.335" stroke="#192147" stroke-width="0.327353" stroke-linejoin="round"/>
<path d="M80.0668 90.5795L58.1647 103.333V124.62" stroke="#192147" stroke-width="0.327353" stroke-linejoin="round"/>
<path d="M59.8974 125.576V129.941" stroke="#192147" stroke-width="0.327353" stroke-linejoin="round"/>
<path d="M81.6118 112.556L79.866 111.823" stroke="#192147" stroke-width="0.327353" stroke-linejoin="round"/>
<path d="M39.2788 96.8954C39.2788 96.8954 39.1217 92.1903 41.8496 93.875" stroke="#192147" stroke-width="0.327353" stroke-linejoin="round"/>
<path d="M54.8084 105.158V119.13L45.5334 113.809V99.9205L54.8084 105.158Z" fill="#C6B4EB"/>
<path d="M54.8084 118.283V119.13L45.5334 113.809V99.9205L46.2798 100.361V113.565L54.8084 118.283Z" fill="#A49DD4"/>
<path d="M54.8084 105.158V119.13L45.5334 113.809V99.9205L54.8084 105.158Z" stroke="#192147" stroke-width="0.327353" stroke-miterlimit="10"/>
<path d="M46.2788 100.257V113.565L54.7114 118.218" stroke="#192147" stroke-width="0.327353" stroke-miterlimit="10"/>
<path d="M45.5334 113.809L46.2798 113.564" stroke="#192147" stroke-width="0.327353" stroke-miterlimit="10"/>
<path d="M48.8022 114.036L47.1131 113.128V110.618L48.8022 111.526V114.036Z" fill="#F9AE3B" stroke="#192147" stroke-width="0.327353" stroke-linejoin="round"/>
<path d="M48.8022 110.981L47.1131 110.073V107.563L48.8022 108.471V110.981Z" fill="#F5911E" stroke="#192147" stroke-width="0.327353" stroke-linejoin="round"/>
<path d="M51.0024 103.006V116.17" stroke="#192147" stroke-width="0.327353" stroke-miterlimit="10"/>
<path d="M54.7124 114.564L51.0024 112.639" stroke="#192147" stroke-width="0.327353" stroke-miterlimit="10"/>
</g>
<g clip-path="url(#clip7_7808_31408)">
<path d="M130.268 116.981L108.536 129.395V125.03L130.268 114.018V116.981Z" fill="#7067AB"/>
<path d="M108.536 129.395L88.7464 117.558L88.6111 113.508L108.536 125.03V129.395Z" fill="#A49DD4"/>
<path d="M109.854 125.79L131.996 113.018V91.8453L109.876 104.612L109.854 125.79Z" fill="#9A97F1"/>
<path d="M111.622 105.621L130.25 94.866V112.011L111.604 122.765L111.622 105.621Z" fill="#7067AB" stroke="#192147" stroke-width="0.327353" stroke-linejoin="round"/>
<path d="M111.622 105.621L128.618 95.813L128.505 111.277L111.604 120.661L111.622 105.621Z" fill="#323A60"/>
<path d="M111.622 105.62L128.618 95.8083L128.509 99.0513C122.9 100.884 117.265 104.127 111.604 108.435L111.622 105.616V105.62Z" fill="#192147"/>
<path d="M111.622 105.621L128.618 95.813L128.505 111.277L111.604 120.661L111.622 105.621Z" stroke="#192147" stroke-width="0.327353" stroke-linejoin="round"/>
<path d="M87.8476 113.066L109.854 125.79L109.876 104.612L90.4227 93.29C89.445 92.3123 87.9261 93.6828 87.9218 94.966L87.8476 113.066Z" fill="#DECEFD"/>
<path d="M106.803 124.074L109.854 125.789L109.876 104.612L106.803 102.787V124.074Z" fill="#B3B1FD"/>
<path d="M112.499 80.6941L132 91.8416L109.88 104.608L89.3571 92.7844L109.88 80.7029C110.687 80.2315 111.687 80.2271 112.499 80.6941Z" fill="#EAE0FF"/>
<path d="M128.705 90.034L132.001 91.841L109.88 104.608L106.808 102.788C106.808 102.788 122.564 93.6131 128.705 90.034Z" fill="#DECEFD"/>
<path d="M87.9304 95.7692L87.8649 113.067L88.6113 113.507L88.7466 117.558L108.536 129.395L130.268 116.986V114.022L131.996 113.023V91.8453M131.996 91.8453L109.876 104.612L90.4881 93.3293M131.996 91.8453L112.665 80.6804C111.849 80.209 110.841 80.2134 110.029 80.6891L88.8426 93.146" stroke="#192147" stroke-width="0.327353" stroke-linejoin="round"/>
<path d="M87.8476 113.066L109.854 125.79V104.612" stroke="#192147" stroke-width="0.327353" stroke-linejoin="round"/>
<path d="M131.996 113.019L109.854 125.79" stroke="#192147" stroke-width="0.327353" stroke-linejoin="round"/>
<path d="M128.705 90.034L106.803 102.788V124.074" stroke="#192147" stroke-width="0.327353" stroke-linejoin="round"/>
<path d="M108.536 125.03V129.395" stroke="#192147" stroke-width="0.327353" stroke-linejoin="round"/>
<path d="M130.251 112.01L128.505 111.277" stroke="#192147" stroke-width="0.327353" stroke-linejoin="round"/>
<path d="M87.9171 96.3495C87.9171 96.3495 87.76 91.6444 90.4879 93.3292" stroke="#192147" stroke-width="0.327353" stroke-linejoin="round"/>
<path d="M103.447 104.612V118.584L94.1721 113.263V99.3746L103.447 104.612Z" fill="#C6B4EB"/>
<path d="M103.447 117.737V118.584L94.1721 113.263V99.3746L94.9185 99.8154V113.019L103.447 117.737Z" fill="#A49DD4"/>
<path d="M103.447 104.612V118.584L94.1721 113.263V99.3746L103.447 104.612Z" stroke="#192147" stroke-width="0.327353" stroke-miterlimit="10"/>
<path d="M94.9182 99.7104V113.018L103.351 117.671" stroke="#192147" stroke-width="0.327353" stroke-miterlimit="10"/>
<path d="M94.1721 113.263L94.9185 113.019" stroke="#192147" stroke-width="0.327353" stroke-miterlimit="10"/>
<path d="M97.4409 113.49L95.7518 112.582V110.073L97.4409 110.98V113.49Z" fill="#F9AE3B" stroke="#192147" stroke-width="0.327353" stroke-linejoin="round"/>
<path d="M97.4409 110.435L95.7518 109.527V107.018L97.4409 107.925V110.435Z" fill="#F5911E" stroke="#192147" stroke-width="0.327353" stroke-linejoin="round"/>
<path d="M99.6414 102.461V115.624" stroke="#192147" stroke-width="0.327353" stroke-miterlimit="10"/>
<path d="M103.351 114.018L99.6414 112.093" stroke="#192147" stroke-width="0.327353" stroke-miterlimit="10"/>
</g>
<path d="M32.8003 63.9163C49.8257 63.9163 63.6275 50.1145 63.6275 33.089C63.6275 16.0636 49.8257 2.26175 32.8003 2.26175C15.7748 2.26175 1.97296 16.0636 1.97296 33.089C1.97296 50.1145 15.7748 63.9163 32.8003 63.9163Z" fill="#F1EEEA" stroke="#192147" stroke-width="0.311765" stroke-miterlimit="10"/>
<path d="M27.0183 57.365C40.5955 57.365 51.602 46.1073 51.602 32.2202C51.602 18.333 40.5955 7.07532 27.0183 7.07532C13.4411 7.07532 2.4346 18.333 2.4346 32.2202C2.4346 46.1073 13.4411 57.365 27.0183 57.365Z" fill="white"/>
<path d="M27.3445 30.6616C28.2877 29.7184 28.3574 28.259 27.5003 27.4018C26.6431 26.5447 25.1837 26.6145 24.2405 27.5576C23.2974 28.5008 23.2276 29.9602 24.0847 30.8174C24.9419 31.6745 26.4013 31.6047 27.3445 30.6616Z" fill="#D66C7B"/>
<path d="M21.4094 28.6104C21.8573 27.354 21.3509 26.0255 20.2783 25.6432C19.2057 25.2608 17.9731 25.9694 17.5252 27.2258C17.0773 28.4822 17.5838 29.8107 18.6564 30.193C19.7289 30.5754 20.9615 29.8668 21.4094 28.6104Z" fill="#5CABDF"/>
<path d="M15.6797 27.3251C16.0957 26.0796 15.6916 24.8222 14.777 24.5167C13.8625 24.2113 12.7838 24.9733 12.3678 26.2189C11.9518 27.4644 12.3559 28.7218 13.2705 29.0272C14.185 29.3327 15.2637 28.5706 15.6797 27.3251Z" fill="#63C740"/>
<path d="M13.0234 35.841C13.9657 35.7934 14.6759 34.6898 14.6096 33.376C14.5432 32.0622 13.7255 31.0357 12.7832 31.0833C11.8408 31.1308 11.1306 32.2344 11.197 33.5483C11.2633 34.8621 12.081 35.8885 13.0234 35.841Z" fill="#C98DEF"/>
<path d="M18.6105 37.1279C19.7345 36.9954 20.5194 35.816 20.3636 34.4936C20.2078 33.1712 19.1703 32.2066 18.0462 32.339C16.9222 32.4715 16.1373 33.6508 16.2931 34.9732C16.4489 36.2956 17.4865 37.2603 18.6105 37.1279Z" fill="#FAA669"/>
<path d="M13.4074 42.1784C14.2702 41.8777 14.6378 40.6815 14.2284 39.5064C13.8189 38.3314 12.7876 37.6226 11.9247 37.9232C11.0619 38.2239 10.6943 39.4201 11.1037 40.5952C11.5132 41.7702 12.5445 42.479 13.4074 42.1784Z" fill="#3AEFC3"/>
<defs>
<clipPath id="clip0_7808_31408">
<rect width="43.7645" height="43.7645" fill="white" transform="translate(216.218 55.2445) rotate(-48.95)"/>
</clipPath>
<clipPath id="clip1_7808_31408">
<rect width="43.7645" height="43.7645" fill="white" transform="translate(186.995 61.4546) rotate(-27.39)"/>
</clipPath>
<clipPath id="clip2_7808_31408">
<rect width="43.7645" height="43.7645" fill="white" transform="translate(231.519 59.5635)"/>
</clipPath>
<clipPath id="clip3_7808_31408">
<rect width="43.9744" height="48.3781" fill="white" transform="translate(144.802 114.8)"/>
</clipPath>
<clipPath id="clip4_7808_31408">
<rect width="43.9744" height="48.3781" fill="white" transform="translate(120.851 128.755)"/>
</clipPath>
<clipPath id="clip5_7808_31408">
<rect width="44.4633" height="49.391" fill="white" transform="translate(62.8378 67.0802)"/>
</clipPath>
<clipPath id="clip6_7808_31408">
<rect width="44.4633" height="49.391" fill="white" transform="translate(39.0609 80.7108)"/>
</clipPath>
<clipPath id="clip7_7808_31408">
<rect width="44.4633" height="49.391" fill="white" transform="translate(87.7 80.1669)"/>
</clipPath>
</defs>
</svg>
