<svg xmlns="http://www.w3.org/2000/svg" xmlns:xlink="http://www.w3.org/1999/xlink" version="1.1" width="486pt" height="564pt" viewBox="0 0 486 564">
<defs>
<clipPath id="clip_0">
<path transform="matrix(1,0,0,-1,0,564)" d="M0 563.234H485.375V.05999756H0Z"/>
</clipPath>
</defs>
<g clip-path="url(#clip_0)">
<path transform="matrix(1,0,0,-1,0,564)" d="M441.297 563.234H44.078C11.882 563.234 0 551.352 0 519.141V130.465C0 126.819 .147 123.435 .469 120.297 1.202 113.267 1.34 106.453 7.879 98.695 8.517 97.936 15.193 92.968 15.193 92.968 18.785 91.207 21.237 89.91 25.287 88.279L220.883 6.332C231.037 1.677 235.283-.138 242.658 .009V.008C242.668 .008 242.677 .008 242.687 .008 242.697 .008 242.706 .008 242.716 .008V.009C250.091-.138 254.337 1.677 264.492 6.332L460.087 88.279C464.138 89.91 466.589 91.207 470.18 92.968 470.18 92.968 476.857 97.936 477.495 98.695 484.034 106.453 484.172 113.267 484.905 120.297 485.226 123.435 485.375 126.819 485.375 130.465V519.141C485.375 551.352 473.492 563.234 441.297 563.234" fill="#ffffff" fill-rule="evenodd"/>
</g>
<path transform="matrix(1,0,0,-1,0,564)" d="M104.622 367.456H143.305V397.378H104.622V458.463H144.846V488.386H71.773V272.435H145.457V302.357H104.622V367.456" fill="#333333"/>
<path transform="matrix(1,0,0,-1,0,564)" d="M381.698 360.974V312.229C381.698 303.591 377.705 299.583 369.42 299.583H363.276C354.68 299.583 350.687 303.591 350.687 312.229V448.591C350.687 457.23 354.68 461.237 363.276 461.237H368.803C377.093 461.237 381.086 457.23 381.086 448.591V406.322H413.318V450.442C413.318 477.28 400.424 490.237 373.719 490.237H357.75C331.043 490.237 317.838 476.974 317.838 450.131V310.689C317.838 283.846 331.043 270.583 357.75 270.583H374.023C400.735 270.583 413.935 283.846 413.935 310.689V360.974H381.698" fill="#333333"/>
<path transform="matrix(1,0,0,-1,0,564)" d="M267.623 488.386H300.47599V272.435H267.623Z" fill="#333333"/>
<path transform="matrix(1,0,0,-1,0,564)" d="M219.953 392.442C219.953 383.803 215.967 379.79 207.676 379.79H194.165V459.387H207.676C215.967 459.387 219.953 455.377 219.953 446.74V392.442ZM212.892 488.386H161.315V272.435H194.165V350.796H212.892C239.604 350.796 252.804 364.059 252.804 390.897V448.28C252.804 475.123 239.604 488.386 212.892 488.386" fill="#333333"/>
<path transform="matrix(1,0,0,-1,0,564)" d="M149.27 77.171H337.324L241.338 45.518 149.27 77.171" fill="#333333" fill-rule="evenodd"/>
<path transform="matrix(1,0,0,-1,0,564)" d="M105.698 153.174C100.604 153.174 95.898 154.016 91.582 155.698 87.264 157.382 83.522 159.72 80.354 162.712 77.186 165.704 74.701 169.272 72.9 173.418 71.098 177.563 70.198 182.098 70.198 187.023V187.21C70.198 192.01 71.083 196.467 72.853 200.581 74.624 204.695 77.061 208.296 80.168 211.381 83.273 214.467 86.984 216.882 91.303 218.628 95.619 220.372 100.294 221.246 105.326 221.246 111.102 221.246 116.088 220.404 120.281 218.722 124.473 217.038 128.308 214.7 131.788 211.708L121.166 198.898C118.805 200.893 116.397 202.419 113.944 203.48 111.49 204.539 108.648 205.069 105.419 205.069 103.057 205.069 100.868 204.602 98.849 203.667 96.831 202.731 95.076 201.453 93.586 199.833 92.094 198.212 90.914 196.311 90.045 194.13 89.174 191.946 88.74 189.609 88.74 187.116V186.93C88.74 184.312 89.174 181.88 90.045 179.636 90.914 177.392 92.141 175.476 93.725 173.886 95.309 172.296 97.173 171.048 99.315 170.146 101.459 169.241 103.835 168.789 106.444 168.789 110.668 168.789 114.145 169.692 116.88 171.501V179.449H104.021V192.727H134.024V163.273C130.545 160.404 126.445 158.004 121.724 156.072 117.004 154.142 111.662 153.174 105.698 153.174" fill="#333333"/>
<path transform="matrix(1,0,0,-1,0,564)" d="M183.377 180.354 176.109 198.961 168.748 180.354H183.377ZM167.537 220.468H184.961L212.727 154.546H193.346L188.595 166.234H163.437L158.778 154.546H139.769L167.537 220.468" fill="#333333"/>
<path transform="matrix(1,0,0,-1,0,564)" d="M219.096 219.994H238.197L253.759 194.654 269.319 219.994H288.42V154.541H270.437V192.13L253.759 166.51H253.386L236.8 191.943V154.541H219.096V219.994" fill="#333333"/>
<path transform="matrix(1,0,0,-1,0,564)" d="M300.501 219.994H352.96V204.566H318.39V194.654H349.698V180.349H318.39V169.969H353.426V154.541H300.501V219.994" fill="#333333"/>
<path transform="matrix(1,0,0,-1,0,564)" d="M388.807 153.361C382.969 153.361 377.425 154.266 372.176 156.072 366.926 157.88 362.283 160.592 358.246 164.208L368.308 176.27C374.831 171.033 381.881 168.415 389.46 168.415 391.883 168.415 393.73 168.804 395.004 169.584 396.276 170.363 396.914 171.469 396.914 172.903V173.091C396.914 173.776 396.759 174.384 396.448 174.914 396.137 175.443 395.563 175.957 394.724 176.457 393.886 176.955 392.767 177.439 391.37 177.906 389.972 178.374 388.156 178.856 385.92 179.356 382.439 180.165 379.211 181.054 376.229 182.021 373.247 182.986 370.653 184.232 368.449 185.761 366.243 187.287 364.503 189.189 363.23 191.465 361.957 193.739 361.32 196.561 361.32 199.927V200.113C361.32 203.167 361.894 205.973 363.045 208.529 364.193 211.085 365.87 213.298 368.076 215.168 370.28 217.038 372.935 218.487 376.043 219.516 379.148 220.545 382.658 221.059 386.571 221.059 392.162 221.059 397.147 220.325 401.526 218.861 405.906 217.397 409.866 215.23 413.407 212.363L404.368 199.553C401.387 201.671 398.327 203.277 395.19 204.368 392.053 205.458 389.025 206.005 386.105 206.005 383.93 206.005 382.3 205.599 381.214 204.789 380.127 203.979 379.583 202.981 379.583 201.797V201.609C379.583 200.861 379.754 200.207 380.096 199.647 380.436 199.085 381.027 198.571 381.866 198.104 382.705 197.636 383.853 197.168 385.313 196.701 386.772 196.233 388.622 195.75 390.858 195.252 394.585 194.44 397.954 193.489 400.968 192.399 403.979 191.309 406.542 189.983 408.655 188.426 410.765 186.866 412.382 184.981 413.5 182.769 414.618 180.555 415.177 177.921 415.177 174.867V174.681C415.177 171.315 414.539 168.322 413.266 165.704 411.993 163.086 410.207 160.856 407.909 159.019 405.61 157.179 402.846 155.776 399.616 154.811 396.386 153.845 392.782 153.361 388.807 153.361" fill="#333333"/>
</svg>
