<svg xmlns="http://www.w3.org/2000/svg" xmlns:xlink="http://www.w3.org/1999/xlink" version="1.1" width="486pt" height="564pt" viewBox="0 0 486 564">
<path transform="matrix(1,0,0,-1,0,564)" d="M441.609 563.617H44.391C12.195 563.617 .313 551.735 .313 519.523V130.847C.313 127.202 .46 123.817 .782 120.679 1.515 113.649 1.652 106.836 8.192 99.078 8.83 98.318 15.506 93.351 15.506 93.351 19.097 91.59 21.55 90.293 25.6 88.662L221.195 6.715C231.35 2.06 235.596 .245 242.971 .391V.39C242.981 .39 242.99 .391 243 .391 243.01 .391 243.019 .39 243.029 .39V.391C250.403 .245 254.65 2.06 264.805 6.715L460.399 88.662C464.45 90.293 466.902 91.59 470.493 93.351 470.493 93.351 477.17 98.318 477.808 99.078 484.347 106.836 484.484 113.649 485.218 120.679 485.539 123.817 485.687 127.202 485.687 130.847V519.523C485.687 551.735 473.804 563.617 441.609 563.617" fill="#333333" fill-rule="evenodd"/>
<path transform="matrix(1,0,0,-1,0,564)" d="M104.935 367.838H143.618V397.761H104.935V458.846H145.158V488.769H72.086V272.817H145.77V302.74H104.935V367.838" fill="#ffffff"/>
<path transform="matrix(1,0,0,-1,0,564)" d="M382.01 361.356V312.612C382.01 303.973 378.018 299.966 369.733 299.966H363.589C354.993 299.966 351 303.973 351 312.612V448.974C351 457.612 354.993 461.62 363.589 461.62H369.116C377.406 461.62 381.398 457.612 381.398 448.974V406.705H413.631V450.825C413.631 477.662 400.737 490.62 374.031 490.62H358.062C331.356 490.62 318.151 477.357 318.151 450.514V311.072C318.151 284.229 331.356 270.966 358.062 270.966H374.336C401.048 270.966 414.248 284.229 414.248 311.072V361.356H382.01" fill="#ffffff"/>
<path transform="matrix(1,0,0,-1,0,564)" d="M267.935 488.769H300.789V272.818H267.935Z" fill="#ffffff"/>
<path transform="matrix(1,0,0,-1,0,564)" d="M213.204 488.769H161.628V272.817H194.478V351.179H213.204C239.916 351.179 253.116 364.442 253.116 391.279V448.663C253.116 475.506 239.916 488.769 213.204 488.769ZM220.266 392.825C220.266 384.186 216.279 380.173 207.989 380.173H194.478V459.769H207.989C216.279 459.769 220.266 455.76 220.266 447.123V392.825" fill="#ffffff"/>
<path transform="matrix(1,0,0,-1,0,564)" d="M149.583 77.554H337.637L241.651 45.9 149.583 77.554" fill="#ffffff" fill-rule="evenodd"/>
<path transform="matrix(1,0,0,-1,0,564)" d="M106.011 153.557C100.917 153.557 96.211 154.399 91.894 156.081 87.576 157.764 83.835 160.102 80.667 163.095 77.499 166.087 75.014 169.655 73.213 173.801 71.41 177.946 70.511 182.481 70.511 187.406V187.593C70.511 192.392 71.395 196.85 73.166 200.964 74.936 205.078 77.374 208.678 80.48 211.764 83.586 214.85 87.297 217.265 91.615 219.011 95.932 220.755 100.606 221.629 105.639 221.629 111.415 221.629 116.4 220.787 120.594 219.104 124.786 217.421 128.621 215.083 132.101 212.091L121.478 199.281C119.117 201.275 116.71 202.802 114.257 203.863 111.803 204.922 108.961 205.452 105.731 205.452 103.37 205.452 101.18 204.985 99.162 204.05 97.143 203.115 95.389 201.836 93.898 200.216 92.407 198.595 91.226 196.694 90.357 194.512 89.486 192.329 89.053 189.992 89.053 187.499V187.312C89.053 184.694 89.486 182.263 90.357 180.019 91.226 177.775 92.454 175.858 94.038 174.268 95.622 172.679 97.485 171.431 99.628 170.528 101.771 169.624 104.147 169.172 106.757 169.172 110.98 169.172 114.458 170.075 117.192 171.884V179.832H104.334V193.11H134.337V163.656C130.857 160.787 126.758 158.387 122.037 156.455 117.316 154.524 111.975 153.557 106.011 153.557" fill="#ffffff"/>
<path transform="matrix(1,0,0,-1,0,564)" d="M167.85 220.85H185.273L213.04 154.929H193.659L188.907 166.617H163.75L159.091 154.929H140.082L167.85 220.85ZM183.69 180.736 176.422 199.344 169.061 180.736H183.69" fill="#ffffff"/>
<path transform="matrix(1,0,0,-1,0,564)" d="M219.409 220.377H238.51L254.071 195.037 269.632 220.377H288.733V154.924H270.75V192.513L254.071 166.892H253.698L237.112 192.326V154.924H219.409V220.377" fill="#ffffff"/>
<path transform="matrix(1,0,0,-1,0,564)" d="M300.814 220.377H353.273V204.949H318.703V195.037H350.011V180.731H318.703V170.352H353.738V154.924H300.814V220.377" fill="#ffffff"/>
<path transform="matrix(1,0,0,-1,0,564)" d="M389.12 153.744C383.281 153.744 377.737 154.648 372.488 156.455 367.238 158.263 362.596 160.974 358.559 164.591L368.621 176.653C375.144 171.416 382.194 168.798 389.773 168.798 392.195 168.798 394.043 169.187 395.317 169.967 396.589 170.746 397.227 171.852 397.227 173.286V173.473C397.227 174.159 397.071 174.766 396.761 175.297 396.449 175.826 395.876 176.34 395.037 176.84 394.198 177.338 393.08 177.822 391.683 178.289 390.285 178.757 388.469 179.239 386.233 179.739 382.752 180.548 379.524 181.436 376.542 182.403 373.56 183.369 370.966 184.615 368.762 186.143 366.556 187.67 364.816 189.571 363.543 191.847 362.27 194.122 361.633 196.944 361.633 200.309V200.496C361.633 203.55 362.207 206.355 363.358 208.912 364.506 211.468 366.183 213.681 368.389 215.551 370.593 217.421 373.248 218.87 376.356 219.899 379.461 220.928 382.971 221.442 386.884 221.442 392.475 221.442 397.46 220.708 401.839 219.244 406.219 217.779 410.179 215.612 413.72 212.746L404.681 199.935C401.699 202.054 398.64 203.66 395.503 204.751 392.365 205.841 389.338 206.387 386.418 206.387 384.243 206.387 382.612 205.981 381.527 205.172 380.44 204.361 379.896 203.363 379.896 202.179V201.992C379.896 201.244 380.066 200.59 380.408 200.029 380.749 199.468 381.34 198.954 382.179 198.486 383.018 198.019 384.166 197.551 385.626 197.084 387.085 196.616 388.935 196.133 391.171 195.635 394.898 194.824 398.267 193.872 401.28 192.782 404.292 191.691 406.855 190.366 408.968 188.808 411.078 187.249 412.695 185.364 413.813 183.151 414.931 180.938 415.489 178.303 415.489 175.25V175.063C415.489 171.697 414.852 168.705 413.579 166.087 412.306 163.469 410.52 161.239 408.222 159.401 405.923 157.562 403.158 156.159 399.929 155.193 396.698 154.227 393.095 153.744 389.12 153.744" fill="#ffffff"/>
</svg>
