<svg width="48" height="25" viewBox="0 0 48 25" fill="none" xmlns="http://www.w3.org/2000/svg">
<g filter="url(#filter0_b_3744_46468)">
<mask id="path-1-outside-1_3744_46468" maskUnits="userSpaceOnUse" x="-0.262695" y="-0.250519" width="49" height="25" fill="black">
<rect fill="white" x="-0.262695" y="-0.250519" width="49" height="25"/>
<path d="M47.2338 11.6334C46.7073 4.74577 40.5457 -0.16809 33.7109 0.893993C30.7151 1.35958 28.5095 3.09004 26.4373 5.16232C24.0594 7.54023 21.6815 9.91813 19.3035 12.296C16.9594 14.6401 14.5373 18.182 10.7493 17.038C6.83514 15.856 6.34337 10.855 9.23256 8.37333C10.7583 7.31696 12.4631 7.1013 14.2078 7.73065C15.7055 8.45902 16.6319 9.96764 18.4871 9.75532C20.001 9.58204 21.2273 8.35571 21.4001 6.84185C21.5839 5.23516 20.5799 4.13547 19.4059 3.2262C13.9431 -1.00262 5.73878 0.491725 2.24928 6.51908C-1.14977 12.3903 1.41285 20.1957 7.62777 22.8964C10.8307 24.2879 14.3173 24.1222 17.455 22.6541C20.0086 21.4592 21.9557 18.9961 23.9065 17.0452C26.3282 14.6235 28.7499 12.2018 31.1712 9.78055C32.3375 8.61421 33.3315 7.66924 35.0191 7.3479C36.9258 7.19651 38.8224 7.92345 39.8602 9.5987C41.1393 11.6634 40.7966 14.265 39.0394 15.936C37.258 17.6298 34.2256 17.6888 32.4094 16.0093C30.8184 14.5378 28.3253 14.3159 27.0404 16.3682C25.8217 18.3148 26.9762 20.1515 28.5491 21.3687C32.1718 24.1732 37.0681 24.5874 41.1398 22.487C45.0221 20.4842 47.5671 15.9974 47.2333 11.6338C47.1957 11.1411 47.2648 12.0475 47.2333 11.6338L47.2338 11.6334Z"/>
</mask>
<path d="M47.2338 11.6334C46.7073 4.74577 40.5457 -0.16809 33.7109 0.893993C30.7151 1.35958 28.5095 3.09004 26.4373 5.16232C24.0594 7.54023 21.6815 9.91813 19.3035 12.296C16.9594 14.6401 14.5373 18.182 10.7493 17.038C6.83514 15.856 6.34337 10.855 9.23256 8.37333C10.7583 7.31696 12.4631 7.1013 14.2078 7.73065C15.7055 8.45902 16.6319 9.96764 18.4871 9.75532C20.001 9.58204 21.2273 8.35571 21.4001 6.84185C21.5839 5.23516 20.5799 4.13547 19.4059 3.2262C13.9431 -1.00262 5.73878 0.491725 2.24928 6.51908C-1.14977 12.3903 1.41285 20.1957 7.62777 22.8964C10.8307 24.2879 14.3173 24.1222 17.455 22.6541C20.0086 21.4592 21.9557 18.9961 23.9065 17.0452C26.3282 14.6235 28.7499 12.2018 31.1712 9.78055C32.3375 8.61421 33.3315 7.66924 35.0191 7.3479C36.9258 7.19651 38.8224 7.92345 39.8602 9.5987C41.1393 11.6634 40.7966 14.265 39.0394 15.936C37.258 17.6298 34.2256 17.6888 32.4094 16.0093C30.8184 14.5378 28.3253 14.3159 27.0404 16.3682C25.8217 18.3148 26.9762 20.1515 28.5491 21.3687C32.1718 24.1732 37.0681 24.5874 41.1398 22.487C45.0221 20.4842 47.5671 15.9974 47.2333 11.6338C47.1957 11.1411 47.2648 12.0475 47.2333 11.6338L47.2338 11.6334Z" fill="#B1CBD7"/>
<path d="M47.2338 11.6334L47.6107 12.0108L47.7843 11.8374L47.7656 11.5927L47.2338 11.6334ZM33.7109 0.893993L33.629 0.366985L33.629 0.366986L33.7109 0.893993ZM10.7493 17.038L10.9035 16.5275H10.9035L10.7493 17.038ZM9.23256 8.37333L8.92897 7.93483L8.90612 7.95065L8.88505 7.96875L9.23256 8.37333ZM14.2078 7.73065L14.4411 7.25103L14.4155 7.2386L14.3888 7.22896L14.2078 7.73065ZM18.4871 9.75532L18.5478 10.2852L18.5478 10.2852L18.4871 9.75532ZM21.4001 6.84185L20.8702 6.78125L20.8702 6.78136L21.4001 6.84185ZM19.4059 3.2262L19.7325 2.80455L19.7324 2.80446L19.4059 3.2262ZM2.24928 6.51908L1.78772 6.25187L1.78772 6.25187L2.24928 6.51908ZM7.62777 22.8964L7.41521 23.3855L7.41525 23.3856L7.62777 22.8964ZM17.455 22.6541L17.681 23.1372L17.6811 23.1371L17.455 22.6541ZM35.0191 7.3479L34.9769 6.81624L34.9479 6.81854L34.9194 6.82398L35.0191 7.3479ZM39.8602 9.5987L39.4068 9.87957L39.4068 9.87959L39.8602 9.5987ZM39.0394 15.936L39.4069 16.3225L39.407 16.3225L39.0394 15.936ZM32.4094 16.0093L32.0473 16.4008L32.0473 16.4008L32.4094 16.0093ZM27.0404 16.3682L26.5884 16.0852V16.0852L27.0404 16.3682ZM28.5491 21.3687L28.8755 20.947L28.8755 20.947L28.5491 21.3687ZM41.1398 22.487L41.3843 22.961L41.3843 22.961L41.1398 22.487ZM47.7656 11.5927C47.2155 4.39684 40.7727 -0.743102 33.629 0.366985L33.7928 1.421C40.3187 0.406922 46.1991 5.09471 46.702 11.674L47.7656 11.5927ZM33.629 0.366986C30.4618 0.859211 28.1553 2.69 26.0601 4.7852L26.8144 5.53944C28.8637 3.49009 30.9684 1.85994 33.7928 1.421L33.629 0.366986ZM26.0601 4.7852C25.9615 4.88382 25.9358 4.9095 25.8372 5.00813C25.7753 5.07004 25.7877 5.05768 25.7257 5.11959C25.701 5.14434 25.6948 5.15057 25.67 5.17532C25.6654 5.17997 25.6607 5.18461 25.6561 5.18926C25.6514 5.1939 25.6468 5.19854 25.6421 5.20319C25.6375 5.20783 25.6329 5.21248 25.6282 5.21712C25.6236 5.22177 25.6189 5.22641 25.6143 5.23105C25.5978 5.24757 25.6029 5.2424 25.5864 5.25892C25.5818 5.26357 25.5771 5.26821 25.5725 5.27285C25.5678 5.2775 25.5632 5.28214 25.5585 5.28679C25.5539 5.29143 25.5493 5.29608 25.5446 5.30072C25.54 5.30536 25.5353 5.31001 25.5307 5.31465C25.526 5.3193 25.5214 5.32394 25.5168 5.32859C25.5121 5.33323 25.5075 5.33787 25.5028 5.34252C25.478 5.36732 25.4719 5.37345 25.4471 5.39825C25.4424 5.4029 25.4378 5.40754 25.4332 5.41218C25.4285 5.41683 25.4239 5.42147 25.4192 5.42612C25.4146 5.43076 25.4099 5.43541 25.4053 5.44005C25.4006 5.44469 25.396 5.44934 25.3914 5.45398C25.3867 5.45863 25.3821 5.46327 25.3774 5.46792C25.3728 5.47256 25.3681 5.4772 25.3635 5.48185C25.3294 5.5159 25.3697 5.47567 25.3356 5.50972C25.2985 5.54686 25.317 5.5283 25.2799 5.56545C25.2752 5.57009 25.2706 5.57474 25.266 5.57938C25.2613 5.58402 25.2567 5.58867 25.252 5.59331C25.2314 5.61396 25.2448 5.60053 25.2242 5.62118C25.187 5.65833 25.2056 5.63977 25.1684 5.67691C25.1638 5.68156 25.1591 5.6862 25.1545 5.69085C25.1498 5.69549 25.1452 5.70013 25.1406 5.70478C25.1183 5.72707 25.135 5.71035 25.1127 5.73264C25.088 5.75737 25.0817 5.76365 25.057 5.78838C25.0523 5.79302 25.0477 5.79766 25.043 5.80231C25.0384 5.80695 25.0337 5.8116 25.0291 5.81624C25.0245 5.82089 25.0198 5.82553 25.0152 5.83018C25.0105 5.83482 25.0059 5.83946 25.0012 5.84411C24.9641 5.88125 25.0105 5.83483 24.9734 5.87197C24.9687 5.87662 24.9641 5.88126 24.9594 5.88591C24.9548 5.89055 24.9501 5.8952 24.9455 5.89984C24.929 5.91634 24.8505 5.9948 24.834 6.0113C24.8294 6.01595 24.8247 6.02059 24.8201 6.02524C24.8155 6.02988 24.8108 6.03453 24.8062 6.03917C24.8 6.04536 24.7845 6.06085 24.7783 6.06704C24.7737 6.07168 24.769 6.07633 24.7644 6.08097C24.7597 6.08561 24.7551 6.09026 24.7504 6.0949C24.7458 6.09955 24.7411 6.10419 24.7365 6.10884C24.7319 6.11348 24.7272 6.11812 24.7226 6.12277C24.7179 6.12741 24.7133 6.13206 24.7086 6.1367C24.704 6.14135 24.6993 6.14599 24.6947 6.15064C24.6576 6.18778 24.704 6.14136 24.6668 6.1785C24.6322 6.21318 24.6458 6.19955 24.6111 6.23423C24.6065 6.23888 24.6018 6.24352 24.5972 6.24817C24.5925 6.25281 24.5879 6.25745 24.5832 6.2621C24.5786 6.26674 24.5739 6.27139 24.5693 6.27603C24.5647 6.28068 24.56 6.28532 24.5554 6.28997C24.5507 6.29461 24.5461 6.29925 24.5414 6.3039C24.5368 6.30854 24.5321 6.31319 24.5275 6.31783C24.5229 6.32248 24.5182 6.32712 24.5136 6.33176C24.5089 6.33641 24.5043 6.34105 24.4996 6.3457C24.495 6.35034 24.4904 6.35499 24.4857 6.35963C24.4811 6.36427 24.4764 6.36892 24.4718 6.37356C24.4671 6.37821 24.4625 6.38285 24.4578 6.3875C24.4532 6.39214 24.4486 6.39679 24.4439 6.40143C24.4109 6.43446 24.4212 6.42413 24.3882 6.45716C24.3835 6.46181 24.3789 6.46645 24.3742 6.4711C24.3696 6.47574 24.365 6.48038 24.3603 6.48503C24.3376 6.50773 24.3551 6.49019 24.3324 6.51289C24.3077 6.53766 24.3293 6.516 24.3046 6.54076C24.2999 6.5454 24.2953 6.55005 24.2906 6.55469C24.286 6.55934 24.2814 6.56398 24.2767 6.56863C24.2721 6.57327 24.2674 6.57792 24.2628 6.58256C24.2581 6.5872 24.2535 6.59185 24.2488 6.59649C24.2442 6.60114 24.2396 6.60578 24.2349 6.61043C24.2303 6.61507 24.2256 6.61971 24.221 6.62436C24.2163 6.629 24.2117 6.63365 24.207 6.63829C24.2024 6.64294 24.1978 6.64758 24.1931 6.65222C24.1885 6.65687 24.1838 6.66151 24.1792 6.66616C24.1745 6.6708 24.1699 6.67545 24.1652 6.68009C24.1606 6.68473 24.156 6.68938 24.1513 6.69402C24.1467 6.69867 24.142 6.70331 24.1374 6.70796C24.1327 6.7126 24.1281 6.71725 24.1234 6.72189C24.1188 6.72653 24.1142 6.73118 24.1095 6.73582C24.1049 6.74047 24.1002 6.74511 24.0956 6.74976C24.0909 6.7544 24.0863 6.75904 24.0816 6.76369C24.077 6.76833 24.0724 6.77298 24.0677 6.77762C24.0631 6.78227 24.0584 6.78691 24.0538 6.79155C24.0043 6.84101 23.9918 6.85356 23.9423 6.90302C23.9377 6.90766 23.933 6.91231 23.9284 6.91695C23.9237 6.9216 23.9191 6.92624 23.9145 6.93089C23.9103 6.93501 23.8907 6.95462 23.8866 6.95875C23.8819 6.9634 23.8773 6.96804 23.8727 6.97268C23.868 6.97733 23.8634 6.98197 23.8587 6.98662C23.8541 6.99126 23.8494 6.99591 23.8448 7.00055C23.8401 7.00519 23.8355 7.00984 23.8309 7.01448C23.6983 7.14701 23.5175 7.32782 23.385 7.46034C23.3804 7.46498 23.3757 7.46963 23.3711 7.47427C23.3664 7.47892 23.3618 7.48356 23.3571 7.48821C23.3525 7.49285 23.3478 7.4975 23.3432 7.50214C23.3386 7.50678 23.3339 7.51143 23.3293 7.51607C23.3246 7.52072 23.32 7.52536 23.3153 7.53001C23.3107 7.53465 23.306 7.53929 23.3014 7.54394C23.289 7.55632 23.2859 7.55942 23.2735 7.57181C23.2689 7.57645 23.2642 7.58109 23.2596 7.58574C23.255 7.59038 23.2503 7.59503 23.2457 7.59967C23.241 7.60432 23.2364 7.60896 23.2317 7.6136C23.2271 7.61825 23.2224 7.62289 23.2178 7.62754C23.2132 7.63218 23.2085 7.63683 23.2039 7.64147C23.1992 7.64611 23.1946 7.65076 23.1899 7.6554C23.1853 7.66005 23.1806 7.66469 23.176 7.66934C23.1714 7.67398 23.1667 7.67863 23.1621 7.68327C23.0627 7.78266 23.0385 7.8068 22.9391 7.9062C22.9345 7.91084 22.9298 7.91549 22.9252 7.92013C22.9206 7.92478 22.9159 7.92942 22.9113 7.93406C22.8865 7.95883 22.9082 7.93717 22.8834 7.96193C22.8788 7.96657 22.8741 7.97122 22.8695 7.97586C22.8648 7.98051 22.8602 7.98515 22.8555 7.9898C22.8184 8.02694 22.8648 7.98052 22.8277 8.01766C22.8194 8.02592 22.7802 8.06514 22.7719 8.07339C22.7673 8.07804 22.7627 8.08268 22.758 8.08733C22.7534 8.09197 22.7487 8.09662 22.7441 8.10126C22.7394 8.10591 22.7348 8.11055 22.7301 8.11519C22.7255 8.11984 22.7209 8.12448 22.7162 8.12913C22.6791 8.16627 22.7255 8.11985 22.6883 8.15699C22.6837 8.16164 22.6791 8.16628 22.6744 8.17093C22.6698 8.17557 22.6651 8.18021 22.6605 8.18486C22.6558 8.1895 22.6512 8.19415 22.6465 8.19879C22.6419 8.20344 22.6373 8.20808 22.6326 8.21272C22.628 8.21737 22.6233 8.22201 22.6187 8.22666C22.614 8.2313 22.6094 8.23595 22.6047 8.24059C22.6001 8.24524 22.5955 8.24988 22.5908 8.25452C22.5862 8.25917 22.5815 8.26381 22.5769 8.26846C22.5722 8.2731 22.5676 8.27775 22.5629 8.28239C22.5583 8.28703 22.5537 8.29168 22.549 8.29632C22.5444 8.30097 22.5397 8.30561 22.5351 8.31026C22.5304 8.3149 22.5258 8.31954 22.5211 8.32419C22.5165 8.32883 22.5119 8.33348 22.5072 8.33812C22.5026 8.34277 22.4979 8.34741 22.4933 8.35206C22.4886 8.3567 22.484 8.36134 22.4793 8.36599C22.4747 8.37063 22.4701 8.37528 22.4654 8.37992C22.4608 8.38457 22.4561 8.38921 22.4515 8.39385C22.4468 8.3985 22.4422 8.40314 22.4375 8.40779C22.419 8.42637 22.4283 8.41707 22.4097 8.43565C22.3849 8.46044 22.4066 8.43874 22.3818 8.46352C22.3772 8.46816 22.3725 8.47281 22.3679 8.47745C22.3632 8.4821 22.3586 8.48674 22.354 8.49139C22.3493 8.49603 22.3447 8.50067 22.34 8.50532C22.3354 8.50996 22.3307 8.51461 22.3261 8.51925C22.3214 8.5239 22.3168 8.52854 22.3122 8.53318C22.3075 8.53783 22.3029 8.54247 22.2982 8.54712C22.2936 8.55176 22.2889 8.55641 22.2843 8.56105C22.2796 8.5657 22.275 8.57034 22.2704 8.57498C22.2518 8.59356 22.2611 8.58428 22.2425 8.60285C22.2378 8.60749 22.2332 8.61214 22.2286 8.61678C22.2239 8.62143 22.2193 8.62607 22.2146 8.63072C22.21 8.63536 22.2053 8.64 22.2007 8.64465C22.196 8.64929 22.1914 8.65394 22.1868 8.65858C22.1821 8.66323 22.1775 8.66787 22.1728 8.67251C22.1682 8.67716 22.1635 8.6818 22.1589 8.68645C22.1217 8.72359 22.1403 8.70503 22.1032 8.74218C22.0985 8.74682 22.0939 8.75147 22.0892 8.75611C22.0846 8.76076 22.0799 8.7654 22.0753 8.77005C22.0505 8.79482 22.0722 8.77314 22.0474 8.79791C22.0227 8.82269 22.0443 8.80101 22.0196 8.82578C22.0072 8.83816 22.0041 8.84126 21.9917 8.85364C21.987 8.85829 21.9824 8.86293 21.9778 8.86758C21.9731 8.87222 21.9685 8.87687 21.9638 8.88151C21.9267 8.91866 21.9731 8.87223 21.936 8.90938C21.8864 8.95898 21.8741 8.97124 21.8245 9.02084C21.7997 9.0456 21.7935 9.05181 21.7688 9.07657C21.7641 9.08122 21.7595 9.08586 21.7548 9.09051C21.7502 9.09515 21.7455 9.0998 21.7409 9.10444C21.7363 9.10908 21.7316 9.11373 21.727 9.11837C21.7223 9.12302 21.7177 9.12766 21.713 9.13231C21.7084 9.13695 21.7037 9.14159 21.6991 9.14624C21.6945 9.15088 21.6898 9.15553 21.6852 9.16017C21.6604 9.18495 21.6821 9.16326 21.6573 9.18804C21.6449 9.20042 21.6418 9.20352 21.6294 9.2159C21.6047 9.24069 21.6263 9.21899 21.6016 9.24377C21.5969 9.24841 21.5923 9.25306 21.5876 9.2577C21.583 9.26235 21.5783 9.26699 21.5737 9.27164C21.5691 9.27628 21.5644 9.28092 21.5598 9.28557C21.5551 9.29021 21.5505 9.29486 21.5458 9.2995C21.5211 9.32428 21.5428 9.30259 21.518 9.32737C21.5087 9.33666 21.4994 9.34595 21.4901 9.35523C21.4777 9.36763 21.4468 9.39857 21.4344 9.41097C21.422 9.42335 21.4189 9.42645 21.4065 9.43883C21.4019 9.44348 21.3972 9.44812 21.3926 9.45277C21.3879 9.45741 21.3833 9.46205 21.3786 9.4667C21.374 9.47134 21.3693 9.47599 21.3647 9.48063C21.3601 9.48528 21.3554 9.48992 21.3508 9.49456C21.3461 9.49921 21.3415 9.50385 21.3368 9.5085C21.3322 9.51314 21.3276 9.51779 21.3229 9.52243C21.2981 9.54719 21.2919 9.5534 21.2672 9.57816C21.2625 9.58281 21.2579 9.58745 21.2532 9.5921C21.2486 9.59674 21.244 9.60138 21.2393 9.60603C21.2347 9.61067 21.23 9.61532 21.2254 9.61996C21.2207 9.62461 21.2161 9.62925 21.2114 9.63389C21.2068 9.63854 21.2022 9.64318 21.1975 9.64783C21.1929 9.65247 21.1882 9.65712 21.1836 9.66176C21.165 9.68033 21.1743 9.67105 21.1557 9.68963C21.1511 9.69427 21.1464 9.69892 21.1418 9.70356C21.1371 9.7082 21.1325 9.71285 21.1278 9.71749C21.1232 9.72214 21.1186 9.72678 21.1139 9.73143C21.1093 9.73607 21.1046 9.74072 21.1 9.74536C21.0876 9.75774 21.0845 9.76084 21.0721 9.77322C21.0597 9.78561 21.0566 9.7887 21.0442 9.80109C21.0396 9.80574 21.035 9.81038 21.0303 9.81502C21.0257 9.81967 21.021 9.82431 21.0164 9.82896C21.0117 9.8336 21.0071 9.83825 21.0024 9.84289C20.9978 9.84754 20.9932 9.85218 20.9885 9.85682C20.9761 9.86921 20.973 9.8723 20.9606 9.88469C20.956 9.88933 20.9514 9.89398 20.9467 9.89862C20.9421 9.90327 20.9374 9.90791 20.9328 9.91256C20.9281 9.9172 20.9235 9.92184 20.9188 9.92649C20.9142 9.93113 20.9096 9.93578 20.9049 9.94042C20.9003 9.94507 20.8956 9.94971 20.891 9.95435C20.8863 9.959 20.8817 9.96364 20.877 9.96829C20.8724 9.97293 20.8678 9.97758 20.8631 9.98222C20.8585 9.98687 20.8538 9.99151 20.8492 9.99615C20.8445 10.0008 20.8399 10.0054 20.8352 10.0101C20.8306 10.0147 20.826 10.0194 20.8213 10.024C20.8167 10.0287 20.812 10.0333 20.8074 10.038C20.8027 10.0426 20.7981 10.0472 20.7935 10.0519C20.7888 10.0565 20.7842 10.0612 20.7795 10.0658C20.7749 10.0705 20.7702 10.0751 20.7656 10.0798C20.7408 10.1045 20.7625 10.0829 20.7377 10.1076C20.7331 10.1123 20.7284 10.1169 20.7238 10.1216C20.7191 10.1262 20.7145 10.1308 20.7099 10.1355C20.7052 10.1401 20.7006 10.1448 20.6959 10.1494C20.6913 10.1541 20.6866 10.1587 20.682 10.1634C20.6773 10.168 20.6727 10.1726 20.6681 10.1773C20.6634 10.1819 20.6588 10.1866 20.6541 10.1912C20.6335 10.2119 20.6469 10.1984 20.6263 10.2191C20.6216 10.2237 20.617 10.2284 20.6123 10.233C20.6077 10.2377 20.603 10.2423 20.5984 10.2469C20.586 10.2593 20.5829 10.2624 20.5705 10.2748C20.5659 10.2795 20.5612 10.2841 20.5566 10.2887C20.5519 10.2934 20.5473 10.298 20.5427 10.3027C20.5179 10.3275 20.5396 10.3058 20.5148 10.3305C20.5101 10.3352 20.5055 10.3398 20.5009 10.3445C20.4962 10.3491 20.4916 10.3538 20.4869 10.3584C20.4745 10.3708 20.4714 10.3739 20.4591 10.3863L20.4312 10.4141C20.4064 10.4389 20.4002 10.4451 20.3755 10.4699C20.3631 10.4823 20.3321 10.5132 20.3197 10.5256C20.3151 10.5303 20.3104 10.5349 20.3058 10.5395C20.3011 10.5442 20.2965 10.5488 20.2919 10.5535C20.2872 10.5581 20.2826 10.5628 20.2779 10.5674C20.2733 10.5721 20.2686 10.5767 20.264 10.5813C20.2593 10.586 20.2547 10.5906 20.2501 10.5953C20.2454 10.5999 20.2408 10.6046 20.2361 10.6092C20.2052 10.6402 20.2392 10.6061 20.2083 10.6371C20.2036 10.6417 20.199 10.6464 20.1943 10.651C20.1897 10.6557 20.185 10.6603 20.1804 10.6649C20.1758 10.6696 20.1711 10.6742 20.1665 10.6789C20.1618 10.6835 20.1572 10.6882 20.1525 10.6928C20.1479 10.6974 20.1432 10.7021 20.1386 10.7067C20.134 10.7114 20.1293 10.716 20.1247 10.7207C20.12 10.7253 20.1154 10.73 20.1107 10.7346C20.1061 10.7392 20.1014 10.7439 20.0968 10.7485C20.072 10.7733 20.0658 10.7795 20.0411 10.8043C19.9419 10.9035 19.9173 10.928 19.8181 11.0272C19.7934 11.052 19.7872 11.0582 19.7624 11.0829C19.7578 11.0876 19.7531 11.0922 19.7485 11.0969C19.7438 11.1015 19.7392 11.1062 19.7345 11.1108C19.7299 11.1154 19.7253 11.1201 19.7206 11.1247C19.716 11.1294 19.7113 11.134 19.7067 11.1387C19.6695 11.1758 19.6881 11.1572 19.6509 11.1944C19.6261 11.2192 19.62 11.2253 19.5952 11.2501C19.5828 11.2625 19.5519 11.2935 19.5395 11.3059C19.5348 11.3105 19.5302 11.3151 19.5255 11.3198C19.5209 11.3244 19.5163 11.3291 19.5116 11.3337C19.507 11.3384 19.5023 11.343 19.4977 11.3477C19.493 11.3523 19.4884 11.3569 19.4837 11.3616C19.4341 11.4112 19.4219 11.4235 19.3723 11.4731C19.3676 11.4777 19.363 11.4823 19.3583 11.487C19.3537 11.4916 19.3491 11.4963 19.3444 11.5009C19.3398 11.5056 19.3351 11.5102 19.3305 11.5149C19.3258 11.5195 19.3212 11.5241 19.3165 11.5288C19.2918 11.5536 19.2856 11.5598 19.2608 11.5845C19.2562 11.5892 19.2515 11.5938 19.2469 11.5985C19.2422 11.6031 19.2376 11.6077 19.233 11.6124C19.2283 11.617 19.2237 11.6217 19.219 11.6263C19.2144 11.631 19.2097 11.6356 19.2051 11.6403C19.2004 11.6449 19.1958 11.6495 19.1912 11.6542C19.1865 11.6588 19.1819 11.6635 19.1772 11.6681C19.1648 11.6805 19.1617 11.6836 19.1494 11.696C19.1447 11.7006 19.1401 11.7053 19.1354 11.7099C19.1308 11.7146 19.1261 11.7192 19.1215 11.7239C19.1168 11.7285 19.1122 11.7331 19.1076 11.7378C19.1029 11.7424 19.0983 11.7471 19.0936 11.7517C19.089 11.7564 19.0843 11.761 19.0797 11.7656C19.075 11.7703 19.0704 11.7749 19.0658 11.7796C19.0286 11.8168 19.0751 11.7703 19.0379 11.8074C18.9884 11.8569 18.9759 11.8695 18.9264 11.9189L19.6807 12.6732C19.7054 12.6484 19.6838 12.6701 19.7085 12.6453C19.7457 12.6081 19.6992 12.6546 19.7364 12.6174C19.741 12.6128 19.7457 12.6081 19.7503 12.6035C19.755 12.5989 19.7596 12.5942 19.7643 12.5896C19.7689 12.5849 19.7736 12.5803 19.7782 12.5756C19.7828 12.571 19.7875 12.5663 19.7921 12.5617C19.8045 12.5493 19.8076 12.5462 19.82 12.5338C19.8246 12.5292 19.8293 12.5245 19.8339 12.5199C19.8386 12.5153 19.8432 12.5106 19.8479 12.506C19.8561 12.4977 19.8675 12.4864 19.8757 12.4781C19.9129 12.441 19.8665 12.4874 19.9036 12.4502C19.916 12.4378 19.9191 12.4347 19.9315 12.4224C19.9562 12.3976 19.9345 12.4193 19.9593 12.3945C19.964 12.3899 19.9686 12.3852 19.9733 12.3806C19.9779 12.3759 19.9826 12.3713 19.9872 12.3666C19.9918 12.362 19.9965 12.3573 20.0011 12.3527C20.0058 12.3481 20.0104 12.3434 20.0151 12.3388C20.0398 12.314 20.0182 12.3357 20.0429 12.3109C20.0476 12.3063 20.0522 12.3016 20.0569 12.297C20.0615 12.2923 20.0662 12.2877 20.0708 12.283C20.0739 12.2799 20.0956 12.2583 20.0987 12.2552C20.1033 12.2505 20.108 12.2459 20.1126 12.2412C20.1172 12.2366 20.1219 12.2319 20.1265 12.2273C20.2255 12.1283 20.2504 12.1034 20.3495 12.0044C20.3541 11.9997 20.3587 11.9951 20.3634 11.9904C20.368 11.9858 20.3727 11.9812 20.3773 11.9765C20.382 11.9719 20.3866 11.9672 20.3913 11.9626C20.3959 11.9579 20.4005 11.9533 20.4052 11.9486C20.4098 11.944 20.4145 11.9394 20.4191 11.9347C20.4238 11.9301 20.4284 11.9254 20.4331 11.9208C20.4702 11.8836 20.4237 11.9301 20.4609 11.8929C20.4656 11.8883 20.4702 11.8836 20.4749 11.879C20.4795 11.8743 20.4841 11.8697 20.4888 11.865C20.4934 11.8604 20.4981 11.8558 20.5027 11.8511C20.5074 11.8465 20.512 11.8418 20.5167 11.8372C20.5249 11.8289 20.5363 11.8176 20.5445 11.8093C20.5492 11.8047 20.5538 11.8 20.5585 11.7954C20.5631 11.7907 20.5677 11.7861 20.5724 11.7814C20.6218 11.732 20.6344 11.7194 20.6838 11.67C20.6885 11.6653 20.6931 11.6607 20.6978 11.656C20.7024 11.6514 20.7071 11.6468 20.7117 11.6421C20.7241 11.6297 20.7272 11.6266 20.7396 11.6142C20.7643 11.5895 20.7427 11.6111 20.7674 11.5864C20.7922 11.5616 20.7705 11.5833 20.7953 11.5585C20.8 11.5539 20.8046 11.5492 20.8092 11.5446C20.8139 11.5399 20.8185 11.5353 20.8232 11.5307C20.8356 11.5183 20.8387 11.5152 20.851 11.5028C20.8557 11.4981 20.8603 11.4935 20.865 11.4889C20.8696 11.4842 20.8743 11.4796 20.8789 11.4749C20.8836 11.4703 20.8882 11.4656 20.8928 11.461C20.8975 11.4563 20.9021 11.4517 20.9068 11.4471C20.9114 11.4424 20.9161 11.4378 20.9207 11.4331C20.9254 11.4285 20.93 11.4238 20.9346 11.4192C20.947 11.4068 20.9501 11.4037 20.9625 11.3913C20.9672 11.3867 20.9718 11.382 20.9764 11.3774C20.9811 11.3727 20.9857 11.3681 20.9904 11.3635C21.0275 11.3263 20.9811 11.3728 21.0182 11.3356C21.0229 11.3309 21.0275 11.3263 21.0322 11.3217C21.0368 11.317 21.0415 11.3124 21.0461 11.3077C21.0508 11.3031 21.0554 11.2984 21.06 11.2938C21.0647 11.2891 21.0693 11.2845 21.074 11.2799C21.0802 11.2737 21.0956 11.2582 21.1018 11.252C21.1266 11.2272 21.1049 11.2489 21.1297 11.2241C21.1421 11.2117 21.1452 11.2086 21.1576 11.1963C21.1622 11.1916 21.1669 11.187 21.1715 11.1823C21.1761 11.1777 21.1808 11.173 21.1854 11.1684C21.1901 11.1637 21.1947 11.1591 21.1994 11.1545C21.204 11.1498 21.2087 11.1452 21.2133 11.1405C21.2179 11.1359 21.2226 11.1312 21.2272 11.1266C21.2319 11.1219 21.2365 11.1173 21.2412 11.1127C21.2536 11.1003 21.2566 11.0972 21.269 11.0848C21.2737 11.0801 21.2783 11.0755 21.283 11.0709C21.2876 11.0662 21.2923 11.0616 21.2969 11.0569C21.3217 11.0322 21.3279 11.026 21.3526 11.0012C21.3573 10.9966 21.3619 10.9919 21.3666 10.9873C21.3712 10.9826 21.3759 10.978 21.3805 10.9733C21.4094 10.9444 21.3795 10.9744 21.4084 10.9455C21.4331 10.9207 21.4115 10.9424 21.4362 10.9176C21.4409 10.913 21.4455 10.9083 21.4502 10.9037C21.4548 10.899 21.4595 10.8944 21.4641 10.8897C21.4889 10.865 21.4672 10.8866 21.492 10.8619C21.4966 10.8572 21.5013 10.8526 21.5059 10.8479C21.5105 10.8433 21.5152 10.8386 21.5198 10.834C21.5245 10.8294 21.5291 10.8247 21.5338 10.8201C21.5384 10.8154 21.5431 10.8108 21.5477 10.8061C21.5523 10.8015 21.557 10.7968 21.5616 10.7922C21.5663 10.7876 21.5709 10.7829 21.5756 10.7783C21.6003 10.7535 21.5787 10.7752 21.6034 10.7504C21.6081 10.7458 21.6127 10.7411 21.6174 10.7365C21.622 10.7318 21.6267 10.7272 21.6313 10.7225C21.6359 10.7179 21.6406 10.7132 21.6452 10.7086C21.6499 10.704 21.6545 10.6993 21.6592 10.6947C21.6963 10.6575 21.6499 10.7039 21.687 10.6668C21.6917 10.6622 21.6963 10.6575 21.701 10.6529C21.7056 10.6482 21.7102 10.6436 21.7149 10.6389C21.7195 10.6343 21.7242 10.6296 21.7288 10.625C21.7335 10.6204 21.7381 10.6157 21.7428 10.6111C21.7474 10.6064 21.752 10.6018 21.7567 10.5971C21.7613 10.5925 21.766 10.5878 21.7706 10.5832C21.7954 10.5584 21.7737 10.5801 21.7985 10.5553C21.8031 10.5507 21.8078 10.5461 21.8124 10.5414C21.8171 10.5368 21.8217 10.5321 21.8264 10.5275C21.8387 10.5151 21.8418 10.512 21.8542 10.4996C21.8589 10.495 21.8635 10.4903 21.8682 10.4857C21.8728 10.481 21.8774 10.4764 21.8821 10.4717C21.8867 10.4671 21.8914 10.4625 21.896 10.4578C21.9007 10.4532 21.9053 10.4485 21.91 10.4439C21.9596 10.3943 21.9718 10.382 22.0214 10.3324C22.0261 10.3278 22.0307 10.3231 22.0354 10.3185C22.04 10.3138 22.0446 10.3092 22.0493 10.3045C22.0539 10.2999 22.0586 10.2953 22.0632 10.2906C22.0679 10.286 22.0725 10.2813 22.0772 10.2767C22.0818 10.272 22.0864 10.2674 22.0911 10.2627C22.0957 10.2581 22.1004 10.2535 22.105 10.2488C22.1174 10.2364 22.1205 10.2333 22.1329 10.2209C22.1375 10.2163 22.1422 10.2117 22.1468 10.207C22.1515 10.2024 22.1561 10.1977 22.1608 10.1931C22.1654 10.1884 22.17 10.1838 22.1747 10.1791C22.1793 10.1745 22.184 10.1699 22.1886 10.1652C22.1933 10.1606 22.1979 10.1559 22.2026 10.1513C22.2072 10.1466 22.2118 10.142 22.2165 10.1373C22.2211 10.1327 22.2258 10.1281 22.2304 10.1234C22.2351 10.1188 22.2397 10.1141 22.2444 10.1095C22.2815 10.0723 22.2629 10.0909 22.3001 10.0537C22.3047 10.0491 22.3094 10.0445 22.314 10.0398C22.3187 10.0352 22.3233 10.0305 22.3279 10.0259C22.3326 10.0212 22.3372 10.0166 22.3419 10.0119C22.3465 10.0073 22.3512 10.0027 22.3558 9.99802C22.3605 9.99337 22.3651 9.98873 22.3697 9.98408C22.3744 9.97944 22.379 9.9748 22.3837 9.97015C22.3883 9.96551 22.393 9.96086 22.3976 9.95622C22.4023 9.95157 22.4069 9.94693 22.4115 9.94228C22.4162 9.93764 22.4208 9.933 22.4255 9.92835C22.4301 9.92371 22.4348 9.91906 22.4394 9.91442C22.4441 9.90977 22.4487 9.90513 22.4533 9.90049C22.458 9.89584 22.4626 9.8912 22.4673 9.88655C22.5167 9.8371 22.5293 9.82454 22.5787 9.77509C22.5911 9.76271 22.5942 9.7596 22.6066 9.74722C22.6113 9.74258 22.6159 9.73793 22.6205 9.73329C22.6252 9.72865 22.6298 9.724 22.6345 9.71936C22.6469 9.70697 22.65 9.70388 22.6623 9.69149C22.6995 9.65434 22.6531 9.70078 22.6902 9.66362C22.6949 9.65898 22.6995 9.65434 22.7041 9.64969C22.7088 9.64505 22.7134 9.6404 22.7181 9.63576C22.7227 9.63111 22.7274 9.62647 22.732 9.62183C22.7367 9.61718 22.7413 9.61254 22.7459 9.60789C22.7707 9.58309 22.7769 9.57696 22.8017 9.55216C22.9009 9.45296 22.9254 9.42843 23.0246 9.32923C23.1238 9.23003 23.1483 9.2055 23.2475 9.1063C23.2522 9.10166 23.2568 9.09701 23.2615 9.09237C23.2661 9.08772 23.2708 9.08308 23.2754 9.07844C23.28 9.07379 23.2847 9.06915 23.2893 9.0645C23.294 9.05986 23.2986 9.05521 23.3033 9.05057C23.3404 9.01342 23.294 9.05985 23.3311 9.0227C23.3358 9.01806 23.3404 9.01342 23.3451 9.00877C23.3497 9.00413 23.3543 8.99948 23.359 8.99484C23.3838 8.97007 23.3621 8.99174 23.3869 8.96697C23.3992 8.95459 23.4023 8.95149 23.4147 8.93911L23.4426 8.91124C23.4472 8.9066 23.4519 8.90195 23.4565 8.89731C23.4612 8.89266 23.4658 8.88802 23.4705 8.88337C23.5697 8.78417 23.5942 8.75965 23.6934 8.66045C23.698 8.6558 23.7027 8.65116 23.7073 8.64651C23.712 8.64187 23.7166 8.63722 23.7213 8.63258C23.7259 8.62793 23.7305 8.62329 23.7352 8.61865C23.7398 8.614 23.7445 8.60936 23.7491 8.60471C23.7615 8.59231 23.7646 8.58925 23.777 8.57685C23.7816 8.5722 23.7863 8.56756 23.7909 8.56291C23.7956 8.55827 23.8002 8.55363 23.8048 8.54898C23.8095 8.54434 23.8141 8.53969 23.8188 8.53505C23.8234 8.5304 23.8281 8.52576 23.8327 8.52111C23.8374 8.51647 23.842 8.51183 23.8466 8.50718C23.8513 8.50254 23.8559 8.49789 23.8606 8.49325C23.8812 8.47261 23.8678 8.48602 23.8884 8.46538C23.8946 8.45919 23.9101 8.44371 23.9163 8.43752C23.921 8.43287 23.9256 8.42823 23.9302 8.42358C23.9349 8.41894 23.9395 8.41429 23.9442 8.40965C23.9483 8.40552 23.9679 8.38591 23.972 8.38178C23.9767 8.37714 23.9813 8.3725 23.986 8.36785C23.9906 8.36321 23.9953 8.35856 23.9999 8.35392C24.0046 8.34927 24.0092 8.34463 24.0138 8.33999C24.0185 8.33534 24.0231 8.3307 24.0278 8.32605C24.0526 8.30128 24.0587 8.2951 24.0835 8.27032C24.0882 8.26568 24.0928 8.26103 24.0974 8.25639C24.1021 8.25174 24.1067 8.2471 24.1114 8.24245C24.1486 8.20525 24.102 8.25179 24.1392 8.21459C24.1439 8.20994 24.1485 8.2053 24.1532 8.20065C24.1578 8.19601 24.1625 8.19137 24.1671 8.18672C24.1718 8.18208 24.1764 8.17743 24.181 8.17279C24.1857 8.16814 24.1903 8.1635 24.195 8.15886C24.2074 8.14647 24.2105 8.14337 24.2228 8.13099C24.2352 8.1186 24.2383 8.11551 24.2507 8.10312C24.3003 8.05352 24.3126 8.04126 24.3622 7.99166C24.3668 7.98702 24.3715 7.98237 24.3761 7.97773C24.3807 7.97308 24.3854 7.96844 24.39 7.96379C24.3947 7.95915 24.3993 7.9545 24.404 7.94986C24.4086 7.94522 24.4133 7.94057 24.4179 7.93593C24.4225 7.93128 24.4272 7.92664 24.4318 7.92199C24.4365 7.91735 24.4411 7.91271 24.4458 7.90806C24.4504 7.90342 24.4551 7.89877 24.4597 7.89413C24.4643 7.88948 24.469 7.88484 24.4736 7.8802C24.4783 7.87555 24.4829 7.87091 24.4876 7.86626C24.4922 7.86162 24.4969 7.85697 24.5015 7.85233C24.5061 7.84768 24.5108 7.84304 24.5154 7.8384C24.5201 7.83375 24.5247 7.82911 24.5294 7.82446C24.534 7.81982 24.5387 7.81517 24.5433 7.81053C24.5479 7.80589 24.5526 7.80124 24.5572 7.7966C24.5696 7.78421 24.5727 7.78111 24.5851 7.76873C24.6347 7.71913 24.7584 7.5954 24.808 7.5458C24.8576 7.4962 24.8699 7.48394 24.9195 7.43434C24.9525 7.40134 24.9422 7.41161 24.9752 7.37861C25.0062 7.34763 24.9721 7.38172 25.0031 7.35074C25.0077 7.3461 25.0124 7.34145 25.017 7.33681C25.0217 7.33216 25.0263 7.32752 25.031 7.32287C25.0356 7.31823 25.0402 7.31358 25.0449 7.30894C25.0495 7.3043 25.0542 7.29965 25.0588 7.29501C25.0712 7.28263 25.0743 7.27952 25.0867 7.26714C25.1094 7.24444 25.0919 7.26198 25.1146 7.23928C25.1192 7.23463 25.1238 7.22999 25.1285 7.22534C25.1331 7.2207 25.1378 7.21605 25.1424 7.21141C25.1548 7.19903 25.1579 7.19593 25.1703 7.18354C25.1749 7.1789 25.1796 7.17425 25.1842 7.16961C25.1889 7.16497 25.1935 7.16032 25.1982 7.15568C25.2031 7.15072 25.2211 7.13276 25.226 7.12781C25.2307 7.12317 25.2353 7.11852 25.24 7.11388C25.2446 7.10923 25.2492 7.10459 25.2539 7.09995C25.2585 7.0953 25.2632 7.09066 25.2678 7.08601C25.2725 7.08137 25.2771 7.07672 25.2818 7.07208C25.3127 7.04112 25.2787 7.07517 25.3096 7.04421C25.3143 7.03957 25.3189 7.03492 25.3236 7.03028C25.3282 7.02564 25.3328 7.02099 25.3375 7.01635C25.3421 7.0117 25.3468 7.00706 25.3514 7.00241C25.3561 6.99777 25.3607 6.99312 25.3654 6.98848C25.3901 6.96375 25.4521 6.90174 25.4768 6.87702C25.4815 6.87237 25.4861 6.86773 25.4907 6.86308C25.4954 6.85844 25.5 6.85379 25.5047 6.84915C25.5295 6.82438 25.5078 6.84606 25.5325 6.82128C25.5372 6.81664 25.5418 6.812 25.5465 6.80735C25.5511 6.80271 25.5558 6.79806 25.5604 6.79342C25.5651 6.78877 25.5697 6.78413 25.5743 6.77949C25.579 6.77484 25.5836 6.7702 25.5883 6.76555C25.5929 6.76091 25.5976 6.75626 25.6022 6.75162C25.6069 6.74697 25.6115 6.74233 25.6161 6.73769C25.6208 6.73304 25.6254 6.7284 25.6301 6.72375C25.6347 6.71911 25.6394 6.71446 25.644 6.70982C25.6626 6.69124 25.6533 6.70053 25.6719 6.68195C25.6765 6.67731 25.6812 6.67267 25.6858 6.66802C25.6905 6.66338 25.6951 6.65873 25.6997 6.65409C25.7039 6.64996 25.7513 6.60248 25.7555 6.59836C25.7601 6.59371 25.7648 6.58907 25.7694 6.58442C25.7741 6.57978 25.7787 6.57513 25.7833 6.57049C25.788 6.56585 25.7926 6.5612 25.7973 6.55656C25.8019 6.55191 25.8066 6.54727 25.8112 6.54262C25.836 6.51782 25.8143 6.53956 25.8391 6.51476C25.8576 6.49618 25.8484 6.50546 25.8669 6.48689C25.8716 6.48225 25.8762 6.4776 25.8809 6.47296C25.8855 6.46831 25.8902 6.46367 25.8948 6.45903C25.8995 6.45438 25.9041 6.44974 25.9087 6.44509C25.9134 6.44045 25.918 6.4358 25.9227 6.43116C25.9598 6.39401 25.9413 6.41257 25.9784 6.37543C25.983 6.37078 25.9877 6.36614 25.9923 6.36149C25.997 6.35685 26.0016 6.35221 26.0063 6.34756C26.0372 6.31658 26.0032 6.35067 26.0341 6.31969C26.0388 6.31505 26.0434 6.31041 26.0481 6.30576C26.0527 6.30112 26.0574 6.29647 26.062 6.29183C26.0666 6.28718 26.0713 6.28254 26.0759 6.2779C26.0806 6.27325 26.0852 6.26861 26.0899 6.26396C26.0945 6.25932 26.0992 6.25467 26.1038 6.25003C26.1084 6.24539 26.1131 6.24074 26.1177 6.2361C26.1549 6.19895 26.1085 6.24538 26.1456 6.20823C26.22 6.13383 26.2941 6.0597 26.3685 5.9853C26.3732 5.98066 26.3778 5.97601 26.3825 5.97137C26.3871 5.96672 26.3918 5.96208 26.3964 5.95744C26.401 5.95279 26.4057 5.94815 26.4103 5.9435C26.415 5.93886 26.4196 5.93421 26.4243 5.92957C26.4325 5.92132 26.4717 5.88209 26.48 5.87384C26.5171 5.83669 26.5543 5.79952 26.5915 5.76237C26.6038 5.74999 26.6069 5.74689 26.6193 5.73451C26.6358 5.71799 26.6307 5.72315 26.6472 5.70664C26.6518 5.702 26.6565 5.69735 26.6611 5.69271C26.6658 5.68806 26.6704 5.68342 26.6751 5.67877C26.6797 5.67413 26.6843 5.66949 26.689 5.66484C26.6936 5.6602 26.6983 5.65555 26.7029 5.65091C26.7153 5.63853 26.7463 5.60756 26.7587 5.59518C26.7633 5.59053 26.7679 5.58589 26.7726 5.58124C26.7772 5.5766 26.7819 5.57196 26.7865 5.56731C26.7958 5.55802 26.8051 5.54873 26.8144 5.53944L26.0601 4.7852ZM18.9264 11.9189C18.338 12.5073 17.721 13.1954 17.1253 13.8181C16.5152 14.4558 15.8979 15.0578 15.2466 15.5494C13.9565 16.523 12.5792 17.0335 10.9035 16.5275L10.5951 17.5486C12.7074 18.1865 14.4351 17.4981 15.8891 16.4008C16.6099 15.8568 17.2744 15.2053 17.8961 14.5554C18.5322 13.8905 19.097 13.2568 19.6807 12.6732L18.9264 11.9189ZM10.9035 16.5275C9.16477 16.0024 8.19158 14.6412 7.96733 13.1155C7.74117 11.5767 8.28286 9.89214 9.58007 8.7779L8.88505 7.96875C7.29307 9.33619 6.63604 11.393 6.912 13.2706C7.18988 15.1613 8.41965 16.8916 10.5951 17.5486L10.9035 16.5275ZM9.53615 8.81182C10.9189 7.85449 12.4429 7.661 14.0269 8.23234L14.3888 7.22896C12.4832 6.54161 10.5978 6.77942 8.92897 7.93483L9.53615 8.81182ZM13.9746 8.21027C14.3052 8.37107 14.6132 8.57929 14.931 8.8135C15.2344 9.03707 15.5785 9.30936 15.9139 9.53703C16.6156 10.0133 17.4404 10.4119 18.5478 10.2852L18.4265 9.22544C17.6786 9.31103 17.1126 9.06151 16.5129 8.65446C16.1976 8.44046 15.9133 8.2123 15.5638 7.95478C15.2288 7.70791 14.8593 7.45441 14.4411 7.25103L13.9746 8.21027ZM18.5478 10.2852C20.3081 10.0837 21.729 8.66287 21.93 6.90234L20.8702 6.78136C20.7256 8.04855 19.6938 9.08038 18.4265 9.22545L18.5478 10.2852ZM21.93 6.90245C22.1481 4.99555 20.9303 3.73231 19.7325 2.80455L19.0793 3.64785C20.2294 4.53862 21.0196 5.47476 20.8702 6.78125L21.93 6.90245ZM19.7324 2.80446C14.0204 -1.61731 5.44278 -0.0614782 1.78772 6.25187L2.71084 6.7863C6.03477 1.04493 13.8659 -0.387931 19.0794 3.64793L19.7324 2.80446ZM1.78772 6.25187C-1.77064 12.3983 0.90719 20.5575 7.41521 23.3855L7.84033 22.4073C1.9185 19.8339 -0.528899 12.3823 2.71084 6.7863L1.78772 6.25187ZM7.41525 23.3856C10.7702 24.8431 14.4169 24.6645 17.681 23.1372L17.229 22.171C14.2178 23.58 10.8912 23.7327 7.84029 22.4072L7.41525 23.3856ZM17.6811 23.1371C19.0348 22.5037 20.2092 21.5433 21.2764 20.5177C21.8109 20.0039 22.3243 19.4679 22.8216 18.9435C23.3215 18.4163 23.8024 17.9036 24.2837 17.4223L23.5294 16.6681C23.0353 17.1622 22.5412 17.6889 22.0475 18.2096C21.5512 18.7331 21.0525 19.2534 20.5372 19.7486C19.5047 20.7409 18.4288 21.6096 17.229 22.171L17.6811 23.1371ZM24.2837 17.4223C25.4945 16.2115 26.7054 15.0006 27.9162 13.7898C29.127 12.579 30.3377 11.3683 31.5483 10.1577L30.7941 9.40343C29.5834 10.614 28.3727 11.8248 27.1619 13.0356C25.9511 14.2464 24.7403 15.4572 23.5294 16.6681L24.2837 17.4223ZM31.5483 10.1577C32.716 8.99001 33.6078 8.15955 35.1189 7.87182L34.9194 6.82398C33.0552 7.17893 31.9591 8.23841 30.7941 9.40343L31.5483 10.1577ZM35.0614 7.87956C36.8141 7.74039 38.4961 8.40958 39.4068 9.87957L40.3136 9.31783C39.1486 7.43733 37.0374 6.65264 34.9769 6.81624L35.0614 7.87956ZM39.4068 9.87959C40.5522 11.7284 40.247 14.0516 38.6719 15.5495L39.407 16.3225C41.3461 14.4784 41.7265 11.5984 40.3135 9.31781L39.4068 9.87959ZM38.6719 15.5495C37.0896 17.054 34.3764 17.1018 32.7715 15.6177L32.0473 16.4008C34.0748 18.2758 37.4265 18.2055 39.4069 16.3225L38.6719 15.5495ZM32.7715 15.6177C31.8893 14.8017 30.7391 14.3142 29.6008 14.3341C28.4425 14.3543 27.3291 14.902 26.5884 16.0852L27.4925 16.6512C28.0366 15.7821 28.8122 15.4147 29.6194 15.4006C30.4466 15.3862 31.3386 15.7453 32.0473 16.4008L32.7715 15.6177ZM26.5884 16.0852C25.8849 17.2088 25.8601 18.3323 26.2509 19.3355C26.6314 20.3122 27.3923 21.1479 28.2226 21.7905L28.8755 20.947C28.1329 20.3723 27.5302 19.681 27.2449 18.9484C26.9699 18.2424 26.9772 17.4742 27.4925 16.6512L26.5884 16.0852ZM28.2226 21.7905C32.0119 24.7238 37.1312 25.1549 41.3843 22.961L40.8953 22.013C37.005 24.0198 32.3318 23.6225 28.8755 20.947L28.2226 21.7905ZM41.3843 22.961C45.4542 20.8614 48.1154 16.1736 47.7651 11.5932L46.7016 11.6745C47.0187 15.8212 44.59 20.107 40.8953 22.013L41.3843 22.961ZM47.7651 11.5933C47.7604 11.5317 47.7574 11.4919 47.7556 11.4687C47.7547 11.4571 47.7541 11.4495 47.7538 11.4454C47.7537 11.4444 47.7537 11.4435 47.7536 11.4428C47.7536 11.4424 47.7535 11.4412 47.7534 11.44C47.7534 11.44 47.7533 11.4385 47.7531 11.4367C47.753 11.4352 47.7524 11.4291 47.7519 11.4245C47.2527 10.9503 46.6906 11.4356 46.6891 11.5086C46.6893 11.5121 46.6895 11.5169 46.6896 11.5181C46.6897 11.5188 46.6897 11.5198 46.6898 11.5202C46.6898 11.5209 46.6899 11.5215 46.6899 11.5217C46.6899 11.5226 46.69 11.5235 46.6901 11.524C46.6908 11.5337 46.6949 11.5883 46.6992 11.6447C46.7035 11.7013 46.7081 11.7606 46.7095 11.7799C46.7097 11.7823 46.7099 11.7842 46.71 11.7855C46.71 11.7858 46.7101 11.7871 46.7102 11.7884C46.7102 11.7884 46.7103 11.7901 46.7105 11.7921C46.7107 11.7938 46.7114 11.801 46.712 11.8066C47.2294 12.2786 47.7743 11.776 47.7746 11.7206C47.7744 11.7169 47.7741 11.712 47.774 11.7106C47.7739 11.7099 47.7739 11.7088 47.7738 11.7084C47.7738 11.7076 47.7737 11.707 47.7737 11.7067C47.7736 11.7053 47.7735 11.7032 47.7733 11.7014C47.7732 11.6992 47.7729 11.6961 47.7726 11.6922C47.7714 11.6763 47.7691 11.6452 47.7651 11.5935L46.7015 11.6742C46.7055 11.7259 46.7078 11.757 46.709 11.7726C46.7093 11.7766 46.7095 11.7795 46.7097 11.7815C46.7099 11.7839 46.7099 11.7843 46.7098 11.7838C46.7098 11.7836 46.7098 11.7831 46.7097 11.7824C46.7097 11.782 46.7096 11.7809 46.7096 11.7802C46.7095 11.7789 46.7092 11.7739 46.709 11.7703C46.7093 11.7148 47.2542 11.2122 47.7716 11.6843C47.7722 11.6898 47.7729 11.697 47.7731 11.6987C47.7732 11.6995 47.7733 11.7008 47.7733 11.7012C47.7733 11.7015 47.7734 11.7021 47.7734 11.7023C47.7735 11.7032 47.7735 11.7038 47.7734 11.703C47.7734 11.7022 47.7733 11.7007 47.7731 11.6983C47.7716 11.6794 47.7671 11.6204 47.7628 11.5637C47.7585 11.5068 47.7544 11.4531 47.7537 11.4443C47.7537 11.4436 47.7537 11.4438 47.7537 11.4442C47.7537 11.4443 47.7538 11.4448 47.7538 11.4455C47.7538 11.4458 47.7539 11.4468 47.754 11.4475C47.754 11.4487 47.7543 11.4535 47.7545 11.457C47.753 11.53 47.1909 12.0152 46.6917 11.5411C46.6912 11.5364 46.6906 11.5303 46.6905 11.5289C46.6904 11.5282 46.6903 11.5271 46.6903 11.5266C46.6902 11.5264 46.6902 11.5259 46.6902 11.5257C46.6901 11.5249 46.6901 11.5244 46.6902 11.5252C46.6902 11.5256 46.6902 11.5263 46.6903 11.5273C46.6906 11.5311 46.6912 11.5384 46.6921 11.55C46.6938 11.5732 46.6969 11.6128 46.7016 11.6744L47.7651 11.5933ZM47.6102 12.0113L47.6107 12.0108L46.857 11.256L46.8565 11.2564L47.6102 12.0113Z" fill="url(#paint0_linear_3744_46468)" mask="url(#path-1-outside-1_3744_46468)"/>
</g>
<defs>
<filter id="filter0_b_3744_46468" x="-7.26281" y="-7.25063" width="62.5255" height="39.1037" filterUnits="userSpaceOnUse" color-interpolation-filters="sRGB">
<feFlood flood-opacity="0" result="BackgroundImageFix"/>
<feGaussianBlur in="BackgroundImageFix" stdDeviation="3.73333"/>
<feComposite in2="SourceAlpha" operator="in" result="effect1_backgroundBlur_3744_46468"/>
<feBlend mode="normal" in="SourceGraphic" in2="effect1_backgroundBlur_3744_46468" result="shape"/>
</filter>
<linearGradient id="paint0_linear_3744_46468" x1="24" y1="0.749481" x2="24" y2="23.8531" gradientUnits="userSpaceOnUse">
<stop stop-color="white" stop-opacity="0"/>
<stop offset="1" stop-color="white"/>
</linearGradient>
</defs>
</svg>
