<svg width="320" height="250" viewBox="0 0 320 250" fill="none" xmlns="http://www.w3.org/2000/svg">
<g clip-path="url(#clip0_3744_29607)">
<path opacity="0.5" d="M134.235 96.9483C92.5812 122.27 93.493 162.116 136.25 185.518C179.008 208.92 248.046 207.353 289.684 182.047C331.322 156.741 330.41 116.879 287.668 93.4772C244.943 70.075 175.888 71.6426 134.235 96.9483Z" fill="#C5C7D1"/>
<path opacity="0.5" d="M59.457 103.375C45.9724 110.99 50.7392 121.547 63.3121 129.929C75.8849 138.311 105.653 145.941 118.69 138.327C131.711 130.713 117.459 113.309 104.422 105.599C91.3851 97.8888 72.9417 95.7613 59.4411 103.375H59.457Z" fill="#C5C7D1"/>
<path d="M58.7532 60.2184C58.7212 67.1446 58.3533 73.9429 63.3761 79.3336C68.5748 84.9322 74.3333 85.1721 81.3396 84.3083C84.0109 83.9724 84.0429 79.7335 81.3396 80.0694C75.4851 80.7892 72.0299 80.8852 67.1511 77.0622C62.0644 73.0791 62.9602 65.9129 62.9762 60.2024C62.9762 57.467 58.7532 57.467 58.7372 60.2024L58.7532 60.2184Z" fill="#7E5227"/>
<path d="M103.062 59.9462C104.63 66.0087 105.734 72.871 103.75 78.9495C102.63 82.3726 99.927 85.6358 96.9837 87.6033C93.5126 89.9227 88.6658 88.883 84.7628 88.787C82.0275 88.723 82.0435 92.962 84.7628 93.026C89.4816 93.1379 93.8165 93.6498 98.2794 91.7303C102.39 89.9707 104.822 85.7478 106.949 82.1007C110.804 75.5103 108.949 65.7528 107.157 58.8265C106.469 56.1872 102.39 57.3069 103.062 59.9462Z" fill="#6C4722"/>
<path d="M90.0734 93.4097C88.9857 93.4097 87.898 93.3777 86.7783 93.3297C86.1064 93.2977 85.4346 93.2817 84.7468 93.2657C83.883 93.2497 83.1792 92.8338 82.7793 92.098C82.3474 91.3142 82.3634 90.2905 82.8273 89.5546C83.2272 88.8988 83.883 88.5469 84.6988 88.5469C84.7148 88.5469 84.7468 88.5469 84.7628 88.5469C85.5946 88.5629 86.4584 88.6269 87.3861 88.6909C90.7293 88.9308 94.1844 89.1867 96.8557 87.3952C99.911 85.3477 102.47 82.0685 103.526 78.8693C105.606 72.5349 104.246 65.4647 102.838 60.01C102.454 58.5384 103.43 57.4507 104.582 57.1627C105.654 56.8908 106.997 57.2587 107.397 58.7623C109.173 65.6406 111.076 75.5422 107.157 82.2285L107.077 82.3564C104.934 86.0195 102.502 90.1785 98.3754 91.954C95.5921 93.1538 92.8568 93.4097 90.0734 93.4097ZM84.6988 89.0268C83.883 89.0268 83.4511 89.4427 83.2272 89.8106C82.8592 90.4184 82.8433 91.2502 83.1952 91.8741C83.5151 92.4499 84.059 92.7698 84.7628 92.7858C85.4506 92.8018 86.1224 92.8338 86.7943 92.8498C90.7133 92.9938 94.4244 93.1218 98.1834 91.5062C102.166 89.7946 104.55 85.7156 106.661 82.1165L106.741 81.9885C110.564 75.4622 108.677 65.6726 106.917 58.8903C106.613 57.7066 105.59 57.4027 104.694 57.6266C103.798 57.8506 102.982 58.6664 103.302 59.8981C104.726 65.4167 106.085 72.5669 103.974 79.0293C102.886 82.3405 100.263 85.6996 97.1117 87.8111C94.3124 89.6826 90.6173 89.4107 87.3541 89.1867C86.4424 89.1228 85.5786 89.0588 84.7628 89.0428C84.7468 89.0428 84.7308 89.0428 84.6988 89.0428V89.0268Z" fill="black"/>
<path d="M121.698 70.1038C120.018 80.1013 111.956 87.0755 103.67 85.6839C95.4002 84.2922 90.0415 75.0625 91.7211 65.065C93.4007 55.0675 101.463 48.0933 109.749 49.4849C118.035 50.8766 123.377 60.1063 121.698 70.1038Z" fill="#3DB67B"/>
<path d="M86.3943 115.293C84.7148 116.172 82.7473 116.236 80.7318 115.293C80.1079 115.005 79.692 114.381 79.692 113.693V36.6562H87.2581V113.853C87.2581 114.445 86.9222 115.005 86.3943 115.277V115.293Z" fill="#7E5227"/>
<path d="M86.5063 115.197C85.8985 115.533 85.2587 115.804 84.4749 115.916V36.6562H87.2742V113.885C87.2742 114.429 86.9862 114.941 86.5063 115.197Z" fill="#6C4722"/>
<path d="M76.1569 84.9157C71.1502 84.9157 67.0072 83.604 63.1842 79.493C58.4014 74.3423 58.4494 68.0719 58.4974 61.4495V60.2178C58.4974 58.7142 59.6971 57.9304 60.8808 57.9304C62.0485 57.9304 63.2162 58.7302 63.2162 60.2178C63.2162 60.9217 63.2002 61.6575 63.1842 62.3933C63.0722 67.576 62.9283 73.4625 67.2952 76.8857C72.2219 80.7567 75.6611 80.5328 81.3077 79.8449C82.6993 79.669 83.4511 80.6127 83.5791 81.6205C83.7391 82.9162 82.9552 84.3718 81.3716 84.5638C79.5321 84.7877 77.8045 84.9317 76.1569 84.9317V84.9157ZM60.8808 58.4103C59.969 58.4103 58.9932 58.9702 58.9932 60.2178V61.4495C58.9293 67.9919 58.8813 74.1504 63.5521 79.1731C68.5109 84.4998 73.8215 85.0117 81.3237 84.0679C82.6193 83.9079 83.2432 82.7242 83.1152 81.6525C83.0192 80.9007 82.5074 80.1649 81.3876 80.3088C75.789 80.9966 72.094 81.2206 67.0232 77.2536C62.4804 73.6865 62.6083 67.672 62.7363 62.3773C62.7523 61.6415 62.7683 60.9217 62.7683 60.2178C62.7683 58.9862 61.8085 58.4103 60.9128 58.4103H60.8808Z" fill="black"/>
<path d="M83.6431 116.22C82.6673 116.22 81.6596 115.98 80.6359 115.516C79.916 115.18 79.4521 114.477 79.4521 113.709V84.5641H79.932V113.709C79.932 114.301 80.2839 114.829 80.8278 115.084C82.7153 115.964 84.6029 115.964 86.2824 115.084C86.7463 114.845 87.0183 114.381 87.0183 113.869V36.896H79.932V80.1812H79.4521V36.4161H87.4981V113.853C87.4981 114.541 87.1142 115.164 86.5064 115.484C85.5946 115.964 84.6349 116.204 83.6271 116.204L83.6431 116.22Z" fill="black"/>
<path d="M109.269 42.4466C109.269 60.5541 98.9992 75.2384 86.3304 75.2384C73.6615 75.2384 63.3921 60.5541 63.3921 42.4466C63.3921 24.3391 73.6615 9.65479 86.3304 9.65479C98.9992 9.65479 109.269 24.3391 109.269 42.4466Z" fill="#3DB67B"/>
<path d="M71.1022 65.4489C72.8138 73.2549 69.8065 80.5491 64.3839 81.7328C58.9612 82.9165 53.1867 77.5418 51.4911 69.7358C49.7795 61.9297 52.7868 54.6356 58.2094 53.4519C63.6321 52.2682 69.4066 57.6428 71.1022 65.4489Z" fill="#3DB67B"/>
<path d="M121.698 70.1038C118.45 86.8356 99.2551 93.17 92.1369 74.1827C92.1369 74.1827 82.1394 79.2375 71.4221 67.4004C73.9335 78.7416 61.2806 90.1147 52.3708 72.7431C58.4333 77.8938 71.918 82.9485 69.7905 64.1852C76.3329 67.8803 90.1534 76.8381 108.229 52.1882C98.1994 82.4047 111.86 86.2277 121.698 70.1197V70.1038Z" fill="#27935A"/>
<path d="M105.781 86.0995C105.078 86.0995 104.358 86.0355 103.638 85.9235C98.1354 84.9957 93.6405 80.5488 91.913 74.2944L92.3768 74.1664C94.0404 80.2289 98.3913 84.5478 103.702 85.4436C111.86 86.8033 119.794 79.909 121.458 70.0555C122.257 65.2727 121.474 60.5218 119.25 56.6828C117.027 52.8598 113.636 50.3804 109.717 49.7245C109.365 49.6606 109.013 49.6286 108.677 49.5966L108.725 49.1167C109.077 49.1487 109.445 49.1967 109.812 49.2447C113.891 49.9325 117.395 52.4919 119.682 56.4429C121.969 60.3779 122.769 65.2407 121.953 70.1354C120.402 79.3811 113.396 86.0995 105.797 86.0995H105.781Z" fill="black"/>
<path d="M86.3304 75.4784C80.8438 75.4784 75.5171 72.6951 71.3262 67.6404L71.6941 67.3364C75.7731 72.2792 80.9718 74.9985 86.3144 74.9985C98.8393 74.9985 109.013 60.3942 109.013 42.4467C109.013 24.4991 98.8233 9.89479 86.3144 9.89479C73.8056 9.89479 63.6161 24.4991 63.6161 42.4467C63.6161 46.9255 64.24 51.2605 65.4716 55.3554L65.0078 55.4994C63.7601 51.3724 63.1362 46.9895 63.1362 42.4627C63.1362 24.2592 73.5336 9.43091 86.3144 9.43091C99.0952 9.43091 109.493 24.2432 109.493 42.4627C109.493 60.6821 99.0952 75.4944 86.3144 75.4944L86.3304 75.4784Z" fill="black"/>
<path d="M62.8803 82.1326C57.8255 82.1326 52.8188 76.9659 51.2512 69.7837C49.5236 61.8497 52.6108 54.4275 58.1454 53.2118C63.6801 51.9961 69.5986 57.4668 71.3261 65.4008C73.0537 73.3348 69.9665 80.7569 64.4319 81.9726C63.92 82.0846 63.3921 82.1326 62.8803 82.1326ZM59.713 53.5157C59.2172 53.5157 58.7373 53.5637 58.2574 53.6757C52.9787 54.8274 50.0515 62.0096 51.715 69.6717C53.3946 77.3498 59.0572 82.6445 64.3199 81.4928C69.5986 80.341 72.5258 73.1588 70.8623 65.4967C69.3426 58.5385 64.5278 53.5157 59.713 53.5157Z" fill="black"/>
<path opacity="0.5" d="M165.431 135.159L7.47009 225.393L48.8038 249.259L159.384 185.835L159.352 175.757C162.951 173.678 165.91 171.966 165.91 171.966C165.91 171.966 170.309 140.182 165.415 135.175L165.431 135.159Z" fill="#C5C7D1"/>
<path d="M311.634 116.012C312.002 132.168 301.589 148.372 280.378 160.625C238.66 184.715 170.357 184.715 128.608 160.625C108.133 148.82 97.7355 133.32 97.3356 117.756V126.01C96.9197 142.198 107.333 158.465 128.608 170.75C170.357 194.84 238.66 194.84 280.378 170.75C301.269 158.689 311.698 142.773 311.666 126.857L311.874 116.012H311.634Z" fill="#E2DED5"/>
<path d="M128.624 72.9991C93.5446 93.2501 87.866 124.074 111.812 148.02C111.828 148.036 117.555 144.917 117.555 144.917L117.619 155.155C126.72 164.256 138.621 170.927 152.346 176.013C152.346 176.013 152.074 170.863 152.202 170.895C174.436 177.005 191.904 178.941 213.083 178.205C237.077 177.357 262.03 171.215 280.378 160.625C322.095 136.535 322.095 97.1051 280.378 73.0151C238.66 48.9092 170.357 48.9092 128.608 73.0151L128.624 72.9991Z" fill="white"/>
<path d="M133.615 75.0944C94.6163 97.6008 94.6163 134.424 133.615 156.93C172.613 179.436 236.405 179.436 275.387 156.93C314.353 134.424 314.353 97.6008 275.387 75.0944C236.421 52.588 172.613 52.572 133.615 75.0944Z" fill="#E2DED5"/>
<path d="M134.206 86.3395C115.971 96.8649 106.357 110.286 105.318 124.154C107.125 132.424 112.42 139.174 117.619 144.773C117.619 148.564 117.571 151.139 117.571 155.074C121.921 159.569 127.616 163.744 134.206 167.551C139.789 170.766 145.772 173.854 152.314 175.821C152.618 175.917 151.738 171.342 152.538 170.926C154.313 169.999 155.881 168.783 158.408 167.407C195.551 177.981 235.413 174.717 266.205 161.825C270.012 160.225 275.323 157.378 278.682 155.17C294.886 144.549 303.668 129.385 303.668 123.978C303.668 110.206 292.839 96.7529 274.795 86.3395C236.133 64.0091 172.853 64.0091 134.174 86.3395H134.206Z" fill="#8C8679"/>
<mask id="mask0_3744_29607" style="mask-type:luminance" maskUnits="userSpaceOnUse" x="105" y="69" width="199" height="107">
<path d="M134.206 86.3395C115.971 96.8649 106.357 110.286 105.318 124.154C107.125 132.424 112.42 139.174 117.619 144.773C117.619 148.564 117.571 151.139 117.571 155.074C121.921 159.569 127.616 163.744 134.206 167.551C139.789 170.766 145.772 173.854 152.314 175.821C152.618 175.917 151.738 171.342 152.538 170.926C154.313 169.999 155.881 168.783 158.408 167.407C195.551 177.981 235.413 174.717 266.205 161.825C270.012 160.225 275.323 157.378 278.682 155.17C294.886 144.549 303.668 129.385 303.668 123.978C303.668 110.206 292.839 96.7529 274.795 86.3395C236.133 64.0091 172.853 64.0091 134.174 86.3395H134.206Z" fill="white"/>
</mask>
<g mask="url(#mask0_3744_29607)">
<path d="M134.206 86.3391C95.528 108.67 95.528 145.22 134.206 167.551C172.885 189.881 236.165 189.881 274.827 167.551C313.49 145.22 313.49 108.67 274.827 86.3391C236.165 64.0087 172.885 64.0087 134.206 86.3391Z" fill="#8C8679"/>
</g>
<path d="M133.934 145.173V117.772C133.934 117.772 134.078 103.376 141.485 101.408C148.891 99.4405 156.921 120.443 156.921 120.443L133.934 145.173Z" fill="#686358"/>
<path d="M117.555 144.853L117.619 155.25L112.036 158.226L111.94 147.86L117.555 144.853Z" fill="#8C8679"/>
<path d="M153.514 170.431C148.747 168.56 144.188 166.384 140.317 164.145C123.201 154.259 113.764 141.047 113.764 126.938C113.764 112.83 123.201 99.6169 140.317 89.7313C175.716 69.2884 233.302 69.2884 268.685 89.7313C283.737 98.4172 293.159 109.774 295.238 121.707C296.886 131.225 293.911 140.807 286.6 149.428L286.232 149.124C293.431 140.631 296.39 131.177 294.758 121.803C292.711 110.014 283.369 98.7691 268.445 90.1472C233.19 69.7843 175.828 69.7843 140.557 90.1472C123.585 99.9368 114.243 113.006 114.243 126.938C114.243 140.871 123.585 153.923 140.557 163.729C144.396 165.952 148.939 168.112 153.69 169.983L153.514 170.431Z" fill="black"/>
<path d="M204.365 189.018C186.545 189.018 168.614 186.491 152.33 181.292L152.474 180.828C194.144 194.137 246.69 189.898 280.25 170.511C300.389 158.882 311.458 143.382 311.41 126.826V122.651C309.123 137.111 298.373 150.468 280.49 160.801C246.802 180.252 194.08 184.507 152.282 171.151L152.426 170.687C194.112 184.011 246.674 179.772 280.25 160.385C300.405 148.74 311.442 133.256 311.394 116.716V115.996H311.858C311.858 116.236 311.858 116.492 311.858 116.732L311.89 118.604V126.842C311.922 143.557 300.773 159.218 280.474 170.943C259.919 182.812 232.262 189.018 204.333 189.018H204.365Z" fill="black"/>
<path d="M111.668 158.322C101.847 148.58 96.8238 137.399 97.1117 125.978V117.724H97.5916C97.8635 128.329 102.854 138.759 112.004 147.845L111.668 148.181C103.878 140.438 99.0792 131.737 97.5916 122.763V125.978C97.3036 137.255 102.278 148.324 112.004 157.97L111.668 158.306V158.322Z" fill="black"/>
<path d="M111.652 148.196C102.758 139.367 97.7196 129.241 97.1277 118.924C96.5199 108.638 100.327 98.3688 108.101 89.2351L108.469 89.539C100.775 98.5928 97.0158 108.734 97.6076 118.892C98.1995 129.081 103.174 139.095 111.988 147.844L111.652 148.18V148.196Z" fill="black"/>
<path d="M204.365 178.909C186.529 178.909 168.582 176.381 152.298 171.167L152.442 170.703C194.128 184.027 246.69 179.788 280.266 160.401C297.654 150.356 308.547 137.015 310.93 122.827C312.898 111.166 309.171 99.5046 300.149 89.1072L300.517 88.7872C309.619 99.2966 313.394 111.086 311.41 122.891C308.995 137.223 298.022 150.676 280.506 160.801C259.951 172.67 232.294 178.877 204.365 178.877V178.909Z" fill="black"/>
<path d="M112.164 158.114H111.684V147.797L111.796 147.733L117.491 144.565L117.715 144.981L112.164 148.069V158.114Z" fill="black"/>
<path d="M204.445 174.03C188.433 174.03 172.485 171.871 158.36 167.712C158.232 167.68 158.168 167.536 158.2 167.408C158.232 167.28 158.376 167.2 158.504 167.248C176.948 172.671 198.51 174.686 219.257 172.91C240.724 171.087 260.095 165.472 275.275 156.707C294.039 145.877 304.388 131.417 304.388 115.997C304.388 100.577 294.055 86.1161 275.275 75.2709C236.277 52.7485 172.789 52.7325 133.743 75.2709C116.995 84.9324 106.741 97.8092 104.918 111.486C103.35 123.115 107.797 134.568 117.747 144.614L117.811 144.677V155.027C117.811 155.155 117.699 155.267 117.571 155.267C117.443 155.267 117.331 155.155 117.331 155.027V144.869C107.317 134.728 102.87 123.163 104.438 111.406C106.293 97.5693 116.611 84.5805 133.503 74.839C172.661 52.2366 236.373 52.2366 275.515 74.839C294.438 85.7642 304.868 100.385 304.868 115.981C304.868 131.577 294.438 146.181 275.515 157.106C260.271 165.904 240.836 171.535 219.289 173.374C214.378 173.79 209.404 173.998 204.445 173.998V174.03Z" fill="black"/>
<path d="M152.362 181.437C152.234 181.437 152.122 181.325 152.122 181.197V170.815L158.249 167.248C158.361 167.184 158.504 167.216 158.584 167.328C158.648 167.44 158.616 167.584 158.504 167.664L152.634 171.087V181.197C152.634 181.325 152.522 181.437 152.394 181.437H152.362Z" fill="black"/>
<path d="M303.348 124.299C303.012 110.622 292.567 96.8659 274.699 86.5484C236.005 64.202 173.029 64.202 134.318 86.5484C116.819 96.6419 106.597 110.015 105.542 124.171L105.062 124.139C106.133 109.807 116.435 96.306 134.079 86.1325C172.917 63.7061 236.117 63.7061 274.939 86.1325C292.951 96.5299 303.476 110.446 303.828 124.299H303.348Z" fill="black"/>
<path d="M158.44 130.408L0.479858 220.626L41.8135 244.492L152.394 181.068L152.362 170.99C155.961 168.911 158.92 167.199 158.92 167.199C158.92 167.199 163.319 135.415 158.424 130.408H158.44Z" fill="#E36479"/>
<path d="M41.8135 244.78L41.6856 244.716L0 220.626L0.367908 220.418L158.488 130.105L158.616 130.233C163.543 135.272 159.352 165.92 159.176 167.232V167.344L159.064 167.408C159.064 167.408 156.169 169.087 152.618 171.135L152.65 181.212L152.522 181.276L41.8135 244.78ZM0.95976 220.626L41.8135 244.22L152.154 180.924L152.122 170.863L152.25 170.799C155.449 168.943 158.168 167.376 158.712 167.072C159 164.976 162.807 135.847 158.392 130.729L0.95976 220.626Z" fill="black"/>
<path opacity="0.15" d="M152.154 180.972C152.154 180.972 127.072 173.214 111.284 157.682L158.376 130.776C161.48 133.944 161.208 147.188 158.712 167.007L152.138 170.99L152.17 180.956L152.154 180.972Z" fill="black"/>
<path d="M160.92 131.465L2.95923 221.698L4.51084 222.61L161.512 132.84C161.512 132.84 161.064 133.576 160.92 131.481V131.465Z" fill="#FFA05C"/>
<path d="M152.138 176.621L37.6865 241.725L39.2381 242.637L152.154 178.429C152.154 178.429 152.154 177.645 152.154 176.621H152.138Z" fill="#FFA05C"/>
<path d="M162.727 117.852C162.727 117.852 162.663 117.82 162.631 117.788C162.343 117.628 162.039 117.484 161.736 117.34C161.432 117.212 161.112 117.1 160.792 117.004C160.472 116.908 160.136 116.828 159.784 116.764C159.432 116.7 159.064 116.668 158.696 116.636C158.312 116.604 157.912 116.604 157.513 116.636C157.081 116.652 156.633 116.7 156.169 116.764C155.657 116.844 155.129 116.956 154.585 117.1C153.897 117.292 153.194 117.532 152.474 117.836C151.658 118.171 150.81 118.587 149.962 119.083C147.867 120.299 145.835 121.882 143.964 123.722C143.292 124.378 142.636 125.082 142.012 125.802C141.517 126.377 141.021 126.969 140.557 127.577C140.141 128.105 139.757 128.649 139.357 129.193C139.005 129.705 138.653 130.216 138.317 130.744C137.997 131.24 137.694 131.752 137.39 132.264C137.102 132.76 136.814 133.272 136.542 133.768C136.27 134.279 136.014 134.775 135.774 135.287C135.518 135.799 135.294 136.327 135.054 136.839C134.83 137.367 134.606 137.91 134.398 138.454C134.174 139.014 133.982 139.59 133.79 140.15C133.583 140.758 133.407 141.366 133.231 141.973C133.039 142.661 132.879 143.349 132.719 144.037C132.543 144.869 132.399 145.701 132.287 146.532C132.127 147.716 132.047 148.9 132.063 150.051C132.079 155.714 134.078 159.681 137.294 161.553L141.757 164.144C138.541 162.272 136.542 158.289 136.526 152.643C136.526 151.491 136.606 150.323 136.75 149.124C136.862 148.292 137.006 147.46 137.182 146.628C137.326 145.94 137.502 145.253 137.694 144.565C137.869 143.957 138.045 143.349 138.253 142.741C138.445 142.181 138.637 141.606 138.861 141.046C139.069 140.502 139.293 139.974 139.517 139.43C139.741 138.902 139.981 138.39 140.237 137.878C140.477 137.367 140.749 136.855 141.005 136.359C141.277 135.847 141.549 135.351 141.852 134.855C142.156 134.343 142.46 133.832 142.78 133.336C143.116 132.808 143.468 132.296 143.82 131.784C144.204 131.24 144.604 130.696 145.02 130.168C145.484 129.561 145.979 128.969 146.475 128.393C147.115 127.673 147.755 126.969 148.427 126.313C150.298 124.474 152.314 122.89 154.425 121.675C155.273 121.179 156.121 120.763 156.937 120.427C157.657 120.123 158.36 119.883 159.048 119.691C159.592 119.547 160.104 119.435 160.632 119.355C161.08 119.291 161.528 119.243 161.975 119.227C162.375 119.211 162.775 119.227 163.159 119.227C163.527 119.243 163.895 119.291 164.247 119.355C164.599 119.419 164.935 119.499 165.255 119.595C165.575 119.691 165.894 119.803 166.198 119.931C166.502 120.059 166.806 120.203 167.094 120.379C167.126 120.395 167.158 120.411 167.19 120.443L162.727 117.852Z" fill="#E2DED5"/>
<path d="M154.409 121.69C164.327 115.964 172.389 120.571 172.421 131.944C172.453 143.333 164.439 157.186 154.537 162.912C144.62 168.639 136.574 164.048 136.542 152.659C136.51 141.27 144.508 127.401 154.425 121.69H154.409Z" fill="white"/>
<path opacity="0.15" d="M162.599 154.962C157.848 163.072 149.307 164.752 149.307 164.752V126.713L144.46 123.594C147.243 121.035 150.074 118.971 153.002 117.979C164.951 122.042 170.037 132.584 162.583 154.946L162.599 154.962Z" fill="black"/>
<path d="M146.475 165.631C144.732 165.631 143.1 165.215 141.677 164.399C138.221 162.416 136.318 158.241 136.302 152.674C136.27 141.221 144.348 127.241 154.297 121.482C159.176 118.667 163.783 118.203 167.27 120.218C170.725 122.202 172.645 126.377 172.661 131.959C172.693 143.397 164.615 157.393 154.649 163.136C151.77 164.799 148.987 165.631 146.475 165.631ZM162.455 119.467C160.024 119.467 157.321 120.282 154.521 121.898C144.7 127.561 136.734 141.365 136.766 152.658C136.766 158.065 138.605 162.08 141.9 163.983C145.228 165.903 149.659 165.439 154.393 162.72C164.215 157.041 172.197 143.253 172.165 131.959C172.165 126.553 170.325 122.538 167.014 120.634C165.655 119.85 164.119 119.467 162.439 119.467H162.455Z" fill="black"/>
<path d="M141.645 164.384L137.182 161.793C133.742 159.793 131.855 155.634 131.839 150.083C131.807 138.63 139.885 124.65 149.834 118.891C154.745 116.06 159.368 115.612 162.839 117.644L167.286 120.235L167.046 120.651C163.719 118.715 159.272 119.163 154.521 121.899C144.7 127.561 136.734 141.366 136.766 152.659C136.766 158.034 138.589 162.049 141.868 163.952L141.629 164.368L141.645 164.384ZM158.008 116.876C155.577 116.876 152.89 117.692 150.074 119.307C140.253 124.986 132.287 138.774 132.319 150.068C132.319 155.442 134.142 159.457 137.422 161.361L139.373 162.496C137.374 160.225 136.302 156.834 136.286 152.659C136.254 141.206 144.332 127.225 154.281 121.467C157.976 119.339 161.528 118.555 164.535 119.163L162.599 118.028C161.24 117.228 159.688 116.844 157.992 116.844L158.008 116.876Z" fill="black"/>
<path d="M150.874 152.755L153.626 143.205L163.335 142.07L159.816 154.259L150.874 152.755Z" fill="#0078DB"/>
<path d="M156.649 132.664L167.126 128.857L163.623 141.014L153.913 142.166L156.649 132.664Z" fill="#0078DB"/>
<path d="M146.651 144.021L152.666 143.317L149.994 152.627L144.444 151.683L146.651 144.021Z" fill="#0078DB"/>
<path d="M155.625 133.032L152.97 142.278L146.939 142.997L149.131 135.383L155.625 133.032Z" fill="#0078DB"/>
<path d="M304.708 116.604C304.74 115.388 304.708 97.4089 304.612 96.1932C302.148 42.9265 258.207 0.505127 204.333 0.505127C150.458 0.505127 106.629 42.7985 104.038 95.9533C103.942 97.121 103.926 115.052 103.942 116.22C103.942 116.716 103.91 117.212 103.91 117.708H104.022C104.646 127.177 109.269 136.583 117.827 145.013V119.659L117.907 119.691C118.706 108.766 130.719 102.16 140.445 107.758C150.314 113.437 158.392 125.738 158.632 135.287H158.648V167.359C196.495 178.637 244.019 175.117 275.579 156.786C294.23 145.941 303.908 131.896 304.692 117.692H304.756C304.756 117.324 304.74 116.956 304.724 116.604H304.708Z" fill="white"/>
<path d="M304.708 116.604C304.74 115.388 304.708 97.4089 304.612 96.1932C302.148 42.9265 258.207 0.505127 204.333 0.505127C150.458 0.505127 106.629 42.7985 104.038 95.9533C103.942 97.121 103.926 115.052 103.942 116.22C103.942 116.716 103.91 117.212 103.91 117.708H104.022C104.646 127.177 109.269 136.583 117.827 145.013V119.659L117.907 119.691C118.706 108.766 130.719 102.16 140.445 107.758C150.314 113.437 158.392 125.738 158.632 135.287H158.648V167.359C196.495 178.637 244.019 175.117 275.579 156.786C294.23 145.941 303.908 131.896 304.692 117.692H304.756C304.756 117.324 304.74 116.956 304.724 116.604H304.708Z" fill="url(#paint0_linear_3744_29607)"/>
<path d="M204.333 3.70433C256.368 3.70433 299.029 44.3981 301.429 96.3532V96.4331V96.4651C301.509 97.7448 301.541 115.148 301.509 116.556V116.604V116.652C301.509 116.716 301.509 116.78 301.509 116.844L301.477 117.532C300.725 131.192 290.951 144.149 273.964 154.035C255.552 164.736 230.95 170.623 204.701 170.623C189.889 170.623 175.124 168.671 161.848 164.976V133.112L161.656 133.048C160.376 122.779 152.138 110.83 142.028 105.007C139.229 103.391 136.094 102.544 132.943 102.544C124.849 102.544 117.843 107.918 115.507 115.356L114.643 115.02V136.503C110.196 130.473 107.669 124.01 107.237 117.516L107.173 116.508C107.173 116.508 107.173 116.364 107.173 116.3V116.236V116.172C107.141 114.797 107.173 97.5209 107.253 96.2252V96.1772V96.1292C109.781 44.3182 152.426 3.72032 204.349 3.72032M204.349 0.521123C150.554 0.521123 106.645 42.8145 104.054 95.9693C103.958 97.137 103.942 115.068 103.958 116.236C103.958 116.732 103.926 117.228 103.926 117.724H104.038C104.662 127.193 109.285 136.599 117.843 145.029V119.675L117.923 119.707C118.514 111.517 125.441 105.743 132.959 105.743C135.454 105.743 138.029 106.383 140.461 107.774C150.33 113.453 158.408 125.754 158.648 135.319H158.664V167.391C173.077 171.694 188.913 173.838 204.717 173.838C230.406 173.838 256.064 168.159 275.595 156.818C294.246 145.973 303.924 131.928 304.708 117.724H304.772C304.772 117.356 304.756 116.988 304.74 116.636C304.772 115.42 304.74 97.4409 304.644 96.2252C302.148 42.9265 258.207 0.505127 204.333 0.505127L204.349 0.521123Z" fill="white"/>
<path opacity="0.25" d="M220.073 51.5162C220.073 51.5162 231.19 65.4647 236.661 81.8606C244.195 73.3828 250.801 65.4647 263.422 63.0174C260.975 56.9869 250.977 38.1436 246.082 33.6167C239.668 37.1998 232.134 38.7034 220.073 51.5162Z" fill="#56C2D1"/>
<path opacity="0.1" d="M198.558 29.4261C198.558 29.4261 214.186 41.1191 220.553 51.4206C226.423 45.9499 233.222 39.4236 246.546 33.697C243.475 28.4983 232.55 18.6288 226.951 14.2299C218.025 17.1571 207.484 22.0999 198.558 29.4261Z" fill="#56C2D1"/>
<path opacity="0.1" d="M188.017 169.583C188.017 169.583 205.005 171.422 218.969 169.823C218.969 165.696 221.641 127.018 201.374 82.6287C192.304 102.896 189.089 125.594 188.017 169.583Z" fill="#56C2D1"/>
<path opacity="0.25" d="M278.938 150.596C278.938 150.596 297.062 138.871 300.661 121.931C300.661 114.061 289.864 89.011 272.54 91.6663C275.867 110.19 277.611 116.06 278.938 150.58V150.596Z" fill="#56C2D1"/>
<path opacity="0.15" d="M152.714 41.295C152.714 41.295 168.438 46.7656 177.907 54.7636C182.834 46.4937 187.377 38.7676 198.302 29.4419C191.376 24.5152 183.106 20.3722 175.572 17.4929C169.158 21.076 158.84 31.7134 152.714 41.311V41.295Z" fill="#56C2D1"/>
<path opacity="0.15" d="M116.259 112.509C116.259 112.509 121.458 100.816 136.11 102.656C136.302 95.3135 136.206 89.0591 139.053 74.4067C133.455 72.3113 123.809 73.7029 118.45 78.9016C117.459 86.7556 116.803 95.9533 116.243 112.493L116.259 112.509Z" fill="#56C2D1"/>
<path d="M219.193 172.862H218.713C218.713 134.696 223.656 106.111 233.398 87.9074C242.723 70.4718 254.992 65.0811 263.406 62.5378C274.987 59.7225 286.408 64.4733 292.663 69.4001C296.902 72.7432 299.445 76.5343 299.445 79.5575H298.965C298.965 76.6782 296.502 73.0152 292.375 69.768C286.2 64.9212 274.955 60.2184 263.55 62.9857C255.232 65.497 243.091 70.8557 233.845 88.1314C224.136 106.271 219.209 134.776 219.209 172.862H219.193Z" fill="white"/>
<path d="M250.657 164.864H250.177C250.177 107.694 261.311 95.4734 272.188 91.0585C276.475 90.0188 281.834 91.7303 286.92 95.7294C295.67 102.608 301.317 114.045 301.317 124.874H300.837C300.837 111.885 293.175 101.264 286.632 96.0973C281.658 92.1942 276.459 90.5147 272.348 91.5064C261.647 95.8413 250.673 107.966 250.673 164.848L250.657 164.864Z" fill="white"/>
<path d="M188.273 169.999H187.793C187.793 129.721 192.896 99.1204 203.405 76.4541C212.923 55.9312 226.951 41.8868 246.322 33.4729C259.647 28.4021 273.052 32.3371 278.378 36.0002C280.266 37.3119 281.322 38.6556 281.322 39.8233H280.842C280.842 38.8475 279.85 37.5998 278.106 36.4001C272.86 32.785 259.631 28.914 246.514 33.9207C227.271 42.2707 213.323 56.2512 203.853 76.6461C193.376 99.2484 188.273 129.785 188.273 169.983V169.999Z" fill="white"/>
<path d="M161.608 131.001H161.128C161.128 98.5607 167.334 71.7834 179.555 51.4365C190.576 33.0891 206.668 20.2283 226.071 14.2778C236.277 10.1348 249.474 14.1978 255.808 16.1493L255.664 16.6132C249.378 14.6777 236.309 10.6467 226.231 14.7417C206.908 20.6762 190.912 33.457 179.955 51.6924C167.766 71.9754 161.592 98.6567 161.592 131.017L161.608 131.001Z" fill="white"/>
<path d="M136.558 104.879H136.078C136.078 79.8771 141.517 58.5704 152.25 41.5667C161.959 26.1785 175.764 14.5654 193.28 7.07932C203.357 2.98434 219.849 2.28052 226.775 4.40799L226.631 4.87187C219.785 2.7604 203.453 3.48022 193.472 7.52721C176.052 14.9813 162.311 26.5145 152.666 41.8226C141.996 58.7464 136.574 79.9731 136.574 104.879H136.558Z" fill="white"/>
<path d="M116.291 114.221H115.811C116.323 76.3262 118.722 49.3249 146.267 20.4681L146.619 20.8041C119.202 49.5329 116.803 76.4381 116.291 114.221Z" fill="white"/>
<path d="M188.273 171.391H187.793C187.793 145.461 184.674 126.298 177.987 111.054C170.213 93.378 157.593 81.333 139.357 74.2308C131.903 72.3433 124.961 73.6709 119.298 78.0698C109.573 85.6359 104.214 101.296 104.214 122.139H103.734C103.734 101.136 109.157 85.348 118.994 77.6859C124.769 73.1911 131.855 71.8314 139.485 73.7669C157.864 80.9171 170.581 93.0421 178.403 110.846C185.122 126.138 188.257 145.381 188.257 171.375L188.273 171.391Z" fill="white"/>
<path d="M219.225 172.926H218.745C218.745 139.366 214.458 112.909 205.612 92.0662C194.975 66.9684 177.332 50.0127 153.162 41.6468C141.421 37.7757 131.247 39.1354 122.929 45.7097L122.625 45.3258C131.071 38.6555 141.389 37.2639 153.306 41.1989C177.603 49.6128 195.343 66.6645 206.044 91.8902C214.906 112.797 219.209 139.302 219.209 172.926H219.225Z" fill="white"/>
<path d="M250.385 164.864H249.905C249.905 128.921 243.827 96.9132 232.326 72.2793C219.513 44.8302 200.366 26.5468 175.428 17.9249C168.438 15.6215 160.84 15.3815 152.858 17.2211L152.746 16.7572C160.808 14.9017 168.502 15.1416 175.572 17.477C200.638 26.1469 219.881 44.5263 232.758 72.0874C244.291 96.7692 250.385 128.857 250.385 164.864Z" fill="white"/>
<path d="M278.65 151.795H278.17C278.17 116.684 272.46 84.9639 261.647 60.0741C249.106 31.2013 230.326 12.2621 205.805 3.78419L205.964 3.3363C230.614 11.8622 249.49 30.8974 262.078 59.8822C272.908 84.8199 278.634 116.604 278.634 151.795H278.65Z" fill="white"/>
<path d="M204.333 0.985007C257.823 0.985007 301.668 42.8145 304.148 96.2412C304.244 97.3609 304.276 114.972 304.244 116.62C304.244 116.796 304.244 116.956 304.244 117.132C304.244 117.164 304.244 117.196 304.244 117.228H304.212L304.18 117.676C303.38 132.28 293.127 146.021 275.307 156.37C256.48 167.311 231.398 173.326 204.669 173.326C188.865 173.326 173.125 171.134 159.096 167.007V134.967H159.064C158.648 125.322 150.458 113.005 140.653 107.342C138.237 105.951 135.63 105.247 132.927 105.247C124.817 105.247 118.002 111.581 117.411 119.675L117.331 126.106V143.845C109.525 135.863 105.094 126.826 104.486 117.66C104.486 117.66 104.406 116.684 104.422 116.204C104.39 114.701 104.422 97.073 104.502 95.9693C107.109 42.7026 150.954 0.985007 204.333 0.985007ZM204.333 0.505127C150.538 0.505127 106.629 42.7985 104.038 95.9533C103.942 97.121 103.926 115.052 103.942 116.22C103.942 116.716 104.006 117.708 104.006 117.708C104.63 127.177 109.253 136.583 117.81 145.013V126.122L117.89 119.691C118.482 111.501 125.409 105.727 132.927 105.727C135.422 105.727 137.997 106.367 140.429 107.758C150.298 113.437 158.376 125.738 158.616 135.287H158.632V167.359C173.045 171.662 188.881 173.806 204.685 173.806C230.374 173.806 256.032 168.127 275.563 156.786C294.214 145.941 303.892 131.896 304.676 117.692H304.74C304.74 117.324 304.724 116.956 304.708 116.604C304.74 115.388 304.708 97.4089 304.612 96.1932C302.148 42.9265 258.207 0.505127 204.333 0.505127Z" fill="black"/>
<path d="M142.62 193.241V194.217C142.604 194.68 142.3 195.128 141.708 195.48C140.493 196.184 138.525 196.184 137.31 195.48C136.702 195.128 136.398 194.664 136.398 194.201V193.225C136.398 193.689 136.718 194.153 137.326 194.505C138.541 195.208 140.525 195.208 141.724 194.505C142.316 194.153 142.62 193.705 142.62 193.241Z" fill="#D1D1D1"/>
<path d="M139.501 196.232C138.653 196.232 137.822 196.04 137.182 195.672C136.51 195.288 136.142 194.76 136.142 194.184V193.209H136.638C136.638 193.609 136.926 193.993 137.438 194.28C138.589 194.952 140.461 194.952 141.597 194.28C142.092 193.993 142.364 193.625 142.38 193.257V193.225H142.86C142.86 193.225 142.86 193.257 142.86 193.273V194.2C142.86 194.76 142.476 195.288 141.821 195.672C141.181 196.04 140.349 196.232 139.501 196.232ZM136.622 194.28C136.654 194.648 136.942 194.984 137.422 195.272C138.573 195.944 140.445 195.944 141.581 195.272C142.028 195.016 142.3 194.68 142.348 194.328C142.204 194.472 142.028 194.6 141.837 194.712C140.557 195.448 138.477 195.448 137.198 194.712C136.974 194.584 136.782 194.44 136.622 194.28Z" fill="black"/>
<path d="M141.693 191.961C142.908 192.665 142.924 193.801 141.709 194.505C140.493 195.209 138.525 195.209 137.31 194.505C136.094 193.801 136.078 192.665 137.31 191.961C138.525 191.258 140.493 191.258 141.709 191.961H141.693Z" fill="#E8E8E8"/>
<path d="M139.517 195.272C138.669 195.272 137.838 195.08 137.198 194.713C136.526 194.329 136.158 193.801 136.158 193.225C136.158 192.649 136.526 192.137 137.182 191.753C138.461 191.017 140.541 191.017 141.821 191.753C142.492 192.137 142.86 192.665 142.86 193.241C142.86 193.817 142.492 194.329 141.837 194.713C141.197 195.08 140.365 195.272 139.517 195.272ZM139.485 191.673C138.733 191.673 137.982 191.833 137.422 192.169C136.91 192.457 136.638 192.841 136.638 193.225C136.638 193.625 136.926 193.993 137.438 194.297C138.589 194.968 140.461 194.968 141.597 194.297C142.108 194.009 142.38 193.625 142.38 193.241C142.38 192.841 142.092 192.457 141.581 192.169C141.005 191.833 140.253 191.673 139.501 191.673H139.485Z" fill="black"/>
<path d="M140.301 175.374V192.505C140.301 192.665 140.157 192.825 139.853 192.921C139.629 192.985 139.389 192.985 139.165 192.921C138.861 192.825 138.717 192.665 138.717 192.505V175.374C138.717 175.533 138.877 175.693 139.165 175.789C139.389 175.853 139.629 175.853 139.853 175.789C140.141 175.693 140.285 175.533 140.301 175.374Z" fill="#D1D1D1"/>
<path d="M139.501 193.209C139.357 193.209 139.229 193.193 139.085 193.145C138.701 193.033 138.461 192.793 138.461 192.505V175.374H138.941C138.941 175.374 139.005 175.502 139.213 175.565C139.389 175.613 139.597 175.613 139.757 175.565C139.965 175.502 140.029 175.422 140.029 175.39H140.509V192.521C140.509 192.809 140.285 193.049 139.901 193.161C139.773 193.209 139.629 193.225 139.485 193.225L139.501 193.209ZM138.957 175.965V192.505C138.957 192.505 139.021 192.633 139.229 192.697C139.405 192.745 139.597 192.745 139.773 192.697C139.981 192.633 140.045 192.553 140.045 192.521V175.981C140.045 175.981 139.965 176.013 139.917 176.029C139.645 176.109 139.373 176.109 139.101 176.029C139.053 176.029 139.005 175.997 138.957 175.981V175.965Z" fill="black"/>
<path d="M139.501 177.597C140.773 177.597 141.804 176.566 141.804 175.293C141.804 174.021 140.773 172.99 139.501 172.99C138.229 172.99 137.198 174.021 137.198 175.293C137.198 176.566 138.229 177.597 139.501 177.597Z" fill="#E8E8E8"/>
<path d="M139.501 172.99C140.781 172.99 141.805 174.014 141.805 175.293C141.805 176.573 140.765 177.597 139.501 177.597C138.237 177.597 137.198 176.573 137.198 175.293C137.198 174.014 138.237 172.99 139.501 172.99ZM139.501 172.51C137.965 172.51 136.718 173.758 136.718 175.293C136.718 176.829 137.965 178.077 139.501 178.077C141.037 178.077 142.284 176.829 142.284 175.293C142.284 173.758 141.037 172.51 139.501 172.51Z" fill="black"/>
<path d="M140.765 173.662C140.685 173.662 140.605 173.662 140.509 173.662C139.213 173.662 138.157 174.717 138.157 176.013C138.157 176.269 138.205 176.525 138.285 176.765C137.901 176.429 137.661 175.901 137.661 175.341C137.661 174.238 138.557 173.342 139.645 173.342C140.061 173.342 140.445 173.47 140.765 173.678V173.662Z" fill="white"/>
<path d="M106.485 197.927C105.318 197.927 104.134 197.88 102.902 197.8C102.454 197.768 102.134 197.384 102.166 196.952C102.198 196.504 102.63 196.184 103.014 196.216C119.586 197.384 130.847 190.665 137.406 175.693C137.582 175.293 138.061 175.101 138.461 175.277C138.861 175.453 139.053 175.933 138.877 176.333C132.591 190.681 121.698 197.943 106.485 197.943V197.927Z" fill="#9F4566"/>
<path d="M103.878 215.715V216.691C103.862 217.155 103.558 217.603 102.966 217.955C101.75 218.659 99.783 218.659 98.5673 217.955C97.9594 217.603 97.6555 217.139 97.6555 216.675V215.699C97.6555 216.163 97.9754 216.627 98.5833 216.979C99.799 217.683 101.782 217.683 102.982 216.979C103.574 216.627 103.878 216.179 103.878 215.715Z" fill="#D1D1D1"/>
<path d="M100.775 218.707C99.927 218.707 99.0952 218.515 98.4554 218.147C97.7836 217.763 97.4156 217.235 97.4156 216.659V215.683H97.9115C97.9115 216.083 98.1994 216.467 98.7113 216.755C99.863 217.427 101.735 217.427 102.87 216.755C103.366 216.467 103.638 216.099 103.654 215.731V215.699H104.134V215.731V216.675C104.118 217.235 103.75 217.763 103.094 218.147C102.454 218.515 101.623 218.707 100.775 218.707ZM97.8955 216.755C97.9275 217.123 98.2154 217.459 98.6953 217.747C99.847 218.419 101.719 218.419 102.854 217.747C103.302 217.491 103.574 217.155 103.622 216.803C103.478 216.947 103.302 217.075 103.11 217.187C101.831 217.923 99.7511 217.923 98.4714 217.187C98.2474 217.059 98.0555 216.915 97.8955 216.755Z" fill="black"/>
<path d="M102.966 214.436C104.182 215.139 104.198 216.275 102.982 216.979C101.767 217.683 99.799 217.683 98.5833 216.979C97.3676 216.275 97.3516 215.139 98.5833 214.436C99.799 213.732 101.767 213.732 102.982 214.436H102.966Z" fill="#E8E8E8"/>
<path d="M100.775 217.747C99.927 217.747 99.0952 217.555 98.4554 217.187C97.7836 216.803 97.4156 216.275 97.4156 215.699C97.4156 215.123 97.7836 214.611 98.4394 214.227C99.7191 213.492 101.799 213.492 103.078 214.227C103.75 214.611 104.118 215.139 104.118 215.715C104.118 216.291 103.75 216.803 103.094 217.187C102.454 217.555 101.623 217.747 100.775 217.747ZM100.743 214.147C99.991 214.147 99.2392 214.307 98.6793 214.643C98.1675 214.931 97.8955 215.315 97.8955 215.699C97.8955 216.099 98.1835 216.483 98.6953 216.771C99.847 217.443 101.719 217.443 102.854 216.771C103.366 216.483 103.638 216.099 103.638 215.715C103.638 215.315 103.35 214.931 102.838 214.643C102.262 214.307 101.511 214.147 100.759 214.147H100.743Z" fill="black"/>
<path d="M101.559 197.848V214.98C101.559 215.14 101.415 215.3 101.111 215.396C100.887 215.459 100.647 215.459 100.423 215.396C100.119 215.3 99.975 215.14 99.975 214.98V197.848C99.975 198.008 100.135 198.168 100.423 198.264C100.647 198.328 100.887 198.328 101.111 198.264C101.399 198.168 101.543 198.008 101.559 197.848Z" fill="#D1D1D1"/>
<path d="M100.775 215.683C100.631 215.683 100.503 215.667 100.359 215.619C99.9749 215.507 99.735 215.268 99.735 214.98V197.848H100.215C100.215 197.848 100.279 197.976 100.487 198.04C100.663 198.088 100.855 198.088 101.047 198.04C101.255 197.976 101.319 197.896 101.319 197.864H101.798V214.996C101.798 215.284 101.559 215.523 101.191 215.635C101.063 215.683 100.919 215.699 100.775 215.699V215.683ZM100.231 198.44V214.98C100.231 214.98 100.295 215.108 100.503 215.172C100.679 215.22 100.887 215.22 101.047 215.172C101.255 215.108 101.319 215.028 101.319 214.98V198.44C101.319 198.44 101.239 198.472 101.191 198.488C100.919 198.568 100.631 198.568 100.375 198.488C100.327 198.488 100.279 198.456 100.231 198.44Z" fill="black"/>
<path d="M100.775 200.071C102.047 200.071 103.078 199.04 103.078 197.768C103.078 196.495 102.047 195.464 100.775 195.464C99.5026 195.464 98.4713 196.495 98.4713 197.768C98.4713 199.04 99.5026 200.071 100.775 200.071Z" fill="#E8E8E8"/>
<path d="M100.775 195.464C102.054 195.464 103.078 196.488 103.078 197.768C103.078 199.048 102.038 200.071 100.775 200.071C99.5111 200.071 98.4713 199.048 98.4713 197.768C98.4713 196.488 99.5111 195.464 100.775 195.464ZM100.775 194.985C99.2391 194.985 97.9915 196.232 97.9915 197.768C97.9915 199.304 99.2391 200.551 100.775 200.551C102.31 200.551 103.558 199.304 103.558 197.768C103.558 196.232 102.31 194.985 100.775 194.985Z" fill="black"/>
<path d="M102.022 196.136C101.942 196.136 101.862 196.136 101.766 196.136C100.471 196.136 99.4151 197.192 99.4151 198.488C99.4151 198.744 99.4631 199 99.543 199.24C99.1591 198.904 98.9192 198.376 98.9192 197.816C98.9192 196.712 99.815 195.816 100.903 195.816C101.319 195.816 101.702 195.944 102.022 196.152V196.136Z" fill="white"/>
<path d="M67.679 220.578C66.5113 220.578 65.3276 220.53 64.0959 220.45C63.648 220.418 63.3281 220.034 63.3601 219.602C63.3921 219.154 63.808 218.819 64.2079 218.867C80.7958 220.034 92.0409 213.316 98.5993 198.344C98.7753 197.944 99.2551 197.752 99.655 197.928C100.055 198.104 100.247 198.584 100.071 198.984C93.7845 213.332 82.8912 220.594 67.679 220.594V220.578Z" fill="#9F4566"/>
<path d="M65.1516 238.19V239.166C65.1356 239.629 64.8317 240.077 64.2399 240.429C63.0242 241.133 61.0567 241.133 59.841 240.429C59.2331 240.077 58.9292 239.613 58.9292 239.15V238.174C58.9292 238.638 59.2491 239.102 59.857 239.454C61.0727 240.157 63.0562 240.157 64.2559 239.454C64.8477 239.102 65.1516 238.654 65.1516 238.19Z" fill="#D1D1D1"/>
<path d="M62.0325 241.181C61.1847 241.181 60.3529 240.989 59.7131 240.621C59.0413 240.237 58.6733 239.71 58.6733 239.134V238.158H59.1692C59.1692 238.558 59.4571 238.942 59.969 239.23C61.1207 239.902 62.9923 239.902 64.128 239.23C64.6239 238.942 64.8958 238.574 64.9118 238.19V238.158H65.3917V238.19V239.134C65.3757 239.694 65.0078 240.221 64.3519 240.605C63.7121 240.973 62.8803 241.165 62.0325 241.165V241.181ZM59.1532 239.23C59.1852 239.598 59.4731 239.934 59.953 240.221C61.1047 240.893 62.9763 240.893 64.112 240.221C64.5599 239.965 64.8318 239.63 64.8798 239.278C64.7358 239.422 64.5599 239.55 64.3679 239.662C63.0882 240.397 61.0088 240.397 59.7291 239.662C59.5051 239.534 59.3132 239.39 59.1532 239.23Z" fill="black"/>
<path d="M64.2239 236.91C65.4396 237.614 65.4556 238.749 64.2399 239.453C63.0242 240.157 61.0567 240.157 59.841 239.453C58.6253 238.749 58.6093 237.614 59.841 236.91C61.0567 236.206 63.0242 236.206 64.2399 236.91H64.2239Z" fill="#E8E8E8"/>
<path d="M62.0485 240.221C61.2007 240.221 60.3689 240.029 59.7291 239.661C59.0572 239.277 58.6893 238.749 58.6893 238.174C58.6893 237.598 59.0572 237.07 59.7131 236.686C60.9928 235.95 63.0722 235.95 64.3519 236.686C65.0237 237.07 65.3917 237.598 65.3917 238.174C65.3917 238.749 65.0238 239.261 64.3679 239.645C63.7281 240.013 62.8963 240.205 62.0485 240.205V240.221ZM62.0165 236.622C61.2647 236.622 60.5129 236.782 59.953 237.118C59.4411 237.406 59.1692 237.79 59.1692 238.19C59.1692 238.589 59.4571 238.957 59.969 239.261C61.1207 239.933 62.9923 239.933 64.128 239.261C64.6398 238.973 64.9118 238.589 64.9118 238.206C64.9118 237.806 64.6239 237.422 64.112 237.134C63.5361 236.798 62.7843 236.638 62.0325 236.638L62.0165 236.622Z" fill="black"/>
<path d="M62.8323 220.322V237.454C62.8323 237.614 62.6883 237.774 62.3844 237.87C62.1604 237.934 61.9205 237.934 61.6965 237.87C61.3926 237.774 61.2487 237.614 61.2487 237.454V220.322C61.2487 220.482 61.4086 220.642 61.6965 220.738C61.9205 220.802 62.1604 220.802 62.3844 220.738C62.6723 220.642 62.8163 220.482 62.8323 220.322Z" fill="#D1D1D1"/>
<path d="M62.0484 238.158C61.9044 238.158 61.7765 238.142 61.6325 238.094C61.2486 237.982 61.0087 237.742 61.0087 237.454V220.322H61.4885C61.4885 220.322 61.5525 220.45 61.7605 220.514C61.9364 220.562 62.1444 220.562 62.3043 220.514C62.5123 220.45 62.5763 220.37 62.5763 220.338H63.0562V237.47C63.0562 237.758 62.8162 237.998 62.4483 238.11C62.3203 238.158 62.1764 238.174 62.0324 238.174L62.0484 238.158ZM61.5045 220.914V237.454C61.5045 237.454 61.5685 237.582 61.7765 237.646C61.9524 237.694 62.1604 237.694 62.3203 237.646C62.5283 237.582 62.5923 237.502 62.5923 237.47V220.93C62.5923 220.93 62.5123 220.962 62.4643 220.978C62.1924 221.058 61.9044 221.058 61.6485 220.978C61.6005 220.978 61.5525 220.946 61.5045 220.93V220.914Z" fill="black"/>
<path d="M62.0324 222.546C63.3046 222.546 64.3359 221.514 64.3359 220.242C64.3359 218.97 63.3046 217.939 62.0324 217.939C60.7603 217.939 59.729 218.97 59.729 220.242C59.729 221.514 60.7603 222.546 62.0324 222.546Z" fill="#E8E8E8"/>
<path d="M62.0324 217.939C63.3121 217.939 64.3359 218.963 64.3359 220.242C64.3359 221.522 63.3121 222.546 62.0324 222.546C60.7528 222.546 59.729 221.522 59.729 220.242C59.729 218.963 60.7688 217.939 62.0324 217.939ZM62.0324 217.459C60.4968 217.459 59.2491 218.707 59.2491 220.242C59.2491 221.778 60.4968 223.026 62.0324 223.026C63.5681 223.026 64.8158 221.778 64.8158 220.242C64.8158 218.707 63.5681 217.459 62.0324 217.459Z" fill="black"/>
<path d="M63.2961 218.61C63.2161 218.61 63.1361 218.61 63.0402 218.61C61.7445 218.61 60.6887 219.666 60.6887 220.962C60.6887 221.218 60.7367 221.474 60.8167 221.714C60.4328 221.378 60.1929 220.85 60.1929 220.29C60.1929 219.186 61.0886 218.291 62.1764 218.291C62.5923 218.291 62.9762 218.419 63.2961 218.626V218.61Z" fill="white"/>
<path d="M95.2082 161.569V162.545C95.1922 163.008 94.8882 163.456 94.2964 163.808C93.0807 164.512 91.1132 164.512 89.8975 163.808C89.2896 163.456 88.9857 162.992 88.9857 162.529V161.553C88.9857 162.017 89.3056 162.481 89.9135 162.833C91.1292 163.536 93.1127 163.536 94.3124 162.833C94.9042 162.481 95.2082 162.033 95.2082 161.569Z" fill="#D1D1D1"/>
<path d="M92.0889 164.56C91.2411 164.56 90.4093 164.368 89.7695 164C89.0976 163.616 88.7297 163.088 88.7297 162.513V161.537H89.2256C89.2256 161.937 89.5135 162.321 90.0254 162.608C91.1771 163.28 93.0487 163.28 94.1844 162.608C94.6802 162.321 94.9522 161.953 94.9682 161.569V161.537H95.4481V161.569V162.513C95.4481 163.072 95.0642 163.6 94.4083 163.984C93.7685 164.352 92.9367 164.544 92.0889 164.544V164.56ZM89.2096 162.608C89.2416 162.976 89.5295 163.312 90.0094 163.6C91.1611 164.272 93.0327 164.272 94.1684 163.6C94.6163 163.344 94.8882 163.008 94.9362 162.656C94.7922 162.8 94.6163 162.928 94.4243 163.04C93.1446 163.776 91.0652 163.776 89.7855 163.04C89.5615 162.912 89.3696 162.768 89.2096 162.608Z" fill="black"/>
<path d="M94.2964 160.289C95.5121 160.993 95.5281 162.129 94.3124 162.832C93.0967 163.536 91.1292 163.536 89.9135 162.832C88.6978 162.129 88.6818 160.993 89.9135 160.289C91.1292 159.585 93.0967 159.585 94.3124 160.289H94.2964Z" fill="#E8E8E8"/>
<path d="M92.1049 163.6C91.2571 163.6 90.4253 163.408 89.7855 163.041C89.1136 162.657 88.7457 162.129 88.7457 161.553C88.7457 160.977 89.1136 160.465 89.7695 160.081C91.0492 159.345 93.1286 159.345 94.4083 160.081C95.0801 160.465 95.4481 160.993 95.4481 161.569C95.4481 162.129 95.0801 162.657 94.4243 163.041C93.7845 163.408 92.9527 163.6 92.1049 163.6ZM92.0729 160.001C91.3211 160.001 90.5693 160.161 90.0094 160.497C89.4975 160.785 89.2256 161.169 89.2256 161.553C89.2256 161.953 89.5135 162.321 90.0254 162.625C91.1771 163.296 93.0487 163.296 94.1844 162.625C94.6962 162.337 94.9682 161.953 94.9682 161.569C94.9682 161.169 94.6802 160.801 94.1684 160.497C93.5925 160.161 92.8407 160.001 92.0889 160.001H92.0729Z" fill="black"/>
<path d="M92.8888 143.701V160.833C92.8888 160.993 92.7448 161.153 92.4409 161.249C92.2169 161.313 91.977 161.313 91.7531 161.249C91.4491 161.153 91.3052 160.993 91.3052 160.833V143.701C91.3052 143.861 91.4651 144.021 91.7531 144.117C91.977 144.181 92.2169 144.181 92.4409 144.117C92.7288 144.021 92.8728 143.861 92.8888 143.701Z" fill="#D1D1D1"/>
<path d="M92.1049 161.537C91.961 161.537 91.833 161.521 91.689 161.473C91.3051 161.361 91.0652 161.121 91.0652 160.833V143.701H91.5451C91.5451 143.701 91.6091 143.829 91.817 143.893C91.993 143.941 92.2009 143.941 92.3609 143.893C92.5688 143.829 92.6328 143.749 92.6328 143.717H93.1127V160.849C93.1127 161.137 92.8727 161.377 92.5048 161.489C92.3769 161.537 92.2329 161.553 92.0889 161.553L92.1049 161.537ZM91.5611 144.293V160.833C91.5611 160.833 91.625 160.961 91.833 161.025C92.0089 161.073 92.2009 161.073 92.3769 161.025C92.5688 160.961 92.6488 160.881 92.6488 160.833V144.293C92.6488 144.293 92.5688 144.325 92.5208 144.341C92.2489 144.421 91.961 144.421 91.705 144.341C91.657 144.341 91.6091 144.309 91.5611 144.293Z" fill="black"/>
<path d="M92.1049 145.925C93.3771 145.925 94.4084 144.894 94.4084 143.621C94.4084 142.349 93.3771 141.318 92.1049 141.318C90.8328 141.318 89.8015 142.349 89.8015 143.621C89.8015 144.894 90.8328 145.925 92.1049 145.925Z" fill="#E8E8E8"/>
<path d="M92.105 141.318C93.3846 141.318 94.4084 142.342 94.4084 143.621C94.4084 144.901 93.3686 145.925 92.105 145.925C90.8413 145.925 89.8015 144.901 89.8015 143.621C89.8015 142.342 90.8413 141.318 92.105 141.318ZM92.105 140.838C90.5693 140.838 89.3217 142.086 89.3217 143.621C89.3217 145.157 90.5693 146.405 92.105 146.405C93.6406 146.405 94.8883 145.157 94.8883 143.621C94.8883 142.086 93.6406 140.838 92.105 140.838Z" fill="black"/>
<path d="M93.3526 141.99C93.2726 141.99 93.1927 141.99 93.0967 141.99C91.801 141.99 90.7453 143.045 90.7453 144.341C90.7453 144.597 90.7933 144.853 90.8732 145.093C90.4893 144.757 90.2494 144.229 90.2494 143.669C90.2494 142.566 91.1452 141.67 92.2329 141.67C92.6488 141.67 93.0327 141.798 93.3526 142.006V141.99Z" fill="white"/>
<path d="M59.0732 166.256C57.9055 166.256 56.7058 166.208 55.4901 166.128C55.0422 166.096 54.7223 165.712 54.7543 165.28C54.7863 164.832 55.2182 164.496 55.6021 164.544C72.1579 165.712 83.4351 158.993 89.9935 144.021C90.1694 143.621 90.6493 143.429 91.0492 143.605C91.4491 143.781 91.6411 144.261 91.4651 144.661C85.1787 159.009 74.2854 166.271 59.0732 166.271V166.256Z" fill="#9F4566"/>
<path d="M56.4818 184.043V185.019C56.4658 185.483 56.1619 185.931 55.5701 186.283C54.3544 186.986 52.3869 186.986 51.1712 186.283C50.5633 185.931 50.2594 185.467 50.2594 185.003V184.027C50.2594 184.491 50.5793 184.955 51.1872 185.307C52.4029 186.011 54.3864 186.011 55.5861 185.307C56.1779 184.955 56.4818 184.507 56.4818 184.043Z" fill="#D1D1D1"/>
<path d="M53.3626 187.034C52.5148 187.034 51.683 186.842 51.0432 186.474C50.3713 186.09 50.0034 185.563 50.0034 184.987V184.011H50.4993C50.4993 184.411 50.7872 184.795 51.2991 185.083C52.4508 185.755 54.3223 185.755 55.4581 185.083C55.9539 184.795 56.2259 184.427 56.2419 184.043V184.011H56.7217V184.043V184.987C56.7057 185.547 56.3378 186.074 55.682 186.458C55.0422 186.826 54.2104 187.018 53.3626 187.018V187.034ZM50.4833 185.083C50.5153 185.451 50.8032 185.787 51.2831 186.074C52.4348 186.746 54.3063 186.746 55.4421 186.074C55.8899 185.803 56.1619 185.483 56.2099 185.131C56.0659 185.275 55.8899 185.403 55.698 185.515C54.4183 186.25 52.3388 186.25 51.0592 185.515C50.8352 185.387 50.6433 185.243 50.4833 185.083Z" fill="black"/>
<path d="M55.5541 182.764C56.7698 183.468 56.7858 184.603 55.5701 185.307C54.3544 186.011 52.3869 186.011 51.1712 185.307C49.9555 184.603 49.9395 183.468 51.1712 182.764C52.3869 182.06 54.3544 182.06 55.5701 182.764H55.5541Z" fill="#E8E8E8"/>
<path d="M53.3786 186.075C52.5308 186.075 51.699 185.883 51.0591 185.515C50.3873 185.131 50.0194 184.603 50.0194 184.027C50.0194 183.452 50.3873 182.94 51.0432 182.556C52.3228 181.82 54.4023 181.82 55.682 182.556C56.3538 182.94 56.7217 183.468 56.7217 184.043C56.7217 184.619 56.3538 185.131 55.698 185.515C55.0581 185.883 54.2264 186.075 53.3786 186.075ZM53.3466 182.476C52.5948 182.476 51.843 182.636 51.2831 182.972C50.7712 183.26 50.4993 183.644 50.4993 184.027C50.4993 184.427 50.7872 184.795 51.2991 185.099C52.4508 185.771 54.3223 185.771 55.458 185.099C55.9699 184.811 56.2419 184.427 56.2419 184.043C56.2419 183.643 55.9539 183.26 55.4421 182.972C54.8662 182.636 54.1144 182.476 53.3626 182.476H53.3466Z" fill="black"/>
<path d="M54.1625 166.176V183.307C54.1625 183.467 54.0185 183.627 53.7146 183.723C53.4906 183.787 53.2507 183.787 53.0267 183.723C52.7228 183.627 52.5789 183.467 52.5789 183.307V166.176C52.5789 166.336 52.7388 166.496 53.0267 166.592C53.2507 166.656 53.4906 166.656 53.7146 166.592C54.0025 166.496 54.1465 166.336 54.1625 166.176Z" fill="#D1D1D1"/>
<path d="M53.3626 184.011C53.2187 184.011 53.0907 183.995 52.9467 183.947C52.5628 183.835 52.3229 183.595 52.3229 183.307V166.176H52.8028C52.8028 166.176 52.8667 166.304 53.0747 166.368C53.2506 166.416 53.4586 166.416 53.6186 166.368C53.8105 166.304 53.8905 166.224 53.8905 166.176H54.3704V183.307C54.3704 183.595 54.1464 183.835 53.7625 183.947C53.6346 183.979 53.4906 184.011 53.3466 184.011H53.3626ZM52.8188 166.768V183.307C52.8188 183.307 52.8827 183.435 53.0907 183.499C53.2666 183.547 53.4746 183.547 53.6345 183.499C53.8265 183.435 53.9065 183.355 53.9065 183.323V166.784C53.9065 166.784 53.8265 166.816 53.7785 166.832C53.5066 166.912 53.2347 166.912 52.9627 166.832C52.9147 166.832 52.8667 166.8 52.8188 166.784V166.768Z" fill="black"/>
<path d="M53.3626 168.399C54.6348 168.399 55.6661 167.368 55.6661 166.096C55.6661 164.824 54.6348 163.792 53.3626 163.792C52.0905 163.792 51.0592 164.824 51.0592 166.096C51.0592 167.368 52.0905 168.399 53.3626 168.399Z" fill="#E8E8E8"/>
<path d="M53.3626 163.792C54.6423 163.792 55.6661 164.816 55.6661 166.096C55.6661 167.375 54.6423 168.399 53.3626 168.399C52.083 168.399 51.0592 167.375 51.0592 166.096C51.0592 164.816 52.083 163.792 53.3626 163.792ZM53.3626 163.312C51.827 163.312 50.5793 164.56 50.5793 166.096C50.5793 167.631 51.827 168.879 53.3626 168.879C54.8983 168.879 56.146 167.631 56.146 166.096C56.146 164.56 54.8983 163.312 53.3626 163.312Z" fill="black"/>
<path d="M54.6103 164.464C54.5303 164.464 54.4503 164.464 54.3544 164.464C53.0587 164.464 52.003 165.52 52.003 166.816C52.003 167.072 52.0509 167.327 52.1309 167.567C51.747 167.232 51.5071 166.704 51.5071 166.144C51.5071 165.04 52.4029 164.144 53.4906 164.144C53.9065 164.144 54.2904 164.272 54.6103 164.48V164.464Z" fill="white"/>
<path d="M20.2669 188.906C19.0992 188.906 17.8995 188.858 16.6838 188.778C16.2359 188.746 15.916 188.362 15.948 187.93C15.98 187.482 16.3959 187.162 16.7958 187.194C33.3676 188.362 44.6288 181.644 51.1872 166.672C51.3631 166.272 51.843 166.08 52.2429 166.256C52.6428 166.432 52.8348 166.912 52.6588 167.311C46.3724 181.66 35.4791 188.922 20.2669 188.922V188.906Z" fill="#9F4566"/>
<path d="M17.7395 206.518V207.493C17.7235 207.957 17.4196 208.405 16.8278 208.757C15.6121 209.461 13.6446 209.461 12.4289 208.757C11.821 208.405 11.5171 207.941 11.5171 207.477V206.502C11.5171 206.966 11.837 207.429 12.4449 207.781C13.6606 208.485 15.6441 208.485 16.8438 207.781C17.4356 207.429 17.7395 206.982 17.7395 206.518Z" fill="#D1D1D1"/>
<path d="M14.6203 209.509C13.7725 209.509 12.9407 209.317 12.3008 208.949C11.629 208.565 11.2611 208.037 11.2611 207.461V206.486H11.757C11.757 206.885 12.0449 207.269 12.5568 207.557C13.7085 208.229 15.58 208.229 16.7157 207.557C17.2116 207.269 17.4836 206.901 17.4995 206.534V206.502H17.9794V206.534V207.477C17.9634 208.037 17.5955 208.565 16.9397 208.949C16.2998 209.317 15.4681 209.509 14.6203 209.509ZM11.741 207.557C11.773 207.925 12.0609 208.261 12.5408 208.549C13.6925 209.221 15.564 209.221 16.6997 208.549C17.1476 208.293 17.4196 207.957 17.4676 207.605C17.3236 207.749 17.1476 207.877 16.9557 207.989C15.676 208.725 13.5965 208.725 12.3168 207.989C12.0929 207.861 11.9009 207.717 11.741 207.557Z" fill="black"/>
<path d="M16.8278 205.238C18.0435 205.942 18.0595 207.077 16.8438 207.781C15.6281 208.485 13.6606 208.485 12.4449 207.781C11.2292 207.077 11.2132 205.942 12.4449 205.238C13.6606 204.534 15.6281 204.534 16.8438 205.238H16.8278Z" fill="#E8E8E8"/>
<path d="M14.6363 208.549C13.7885 208.549 12.9567 208.357 12.3168 207.989C11.645 207.605 11.2771 207.077 11.2771 206.502C11.2771 205.926 11.645 205.414 12.3008 205.03C13.5805 204.294 15.66 204.294 16.9397 205.03C17.6115 205.414 17.9794 205.942 17.9794 206.518C17.9794 207.077 17.6115 207.605 16.9557 207.989C16.3158 208.357 15.484 208.549 14.6363 208.549ZM14.6043 204.95C13.8525 204.95 13.1006 205.11 12.5408 205.446C12.0289 205.734 11.757 206.118 11.757 206.518C11.757 206.917 12.0449 207.285 12.5568 207.589C13.7085 208.261 15.58 208.261 16.7157 207.589C17.2276 207.301 17.4995 206.917 17.4995 206.534C17.4995 206.134 17.2116 205.75 16.6997 205.462C16.1239 205.126 15.3721 204.966 14.6203 204.966L14.6043 204.95Z" fill="black"/>
<path d="M15.4202 188.65V205.782C15.4202 205.942 15.2762 206.102 14.9723 206.198C14.7483 206.262 14.5084 206.262 14.2844 206.198C13.9805 206.102 13.8365 205.942 13.8365 205.782V188.65C13.8365 188.81 13.9965 188.97 14.2844 189.066C14.5084 189.13 14.7483 189.13 14.9723 189.066C15.2602 188.97 15.4042 188.81 15.4202 188.65Z" fill="#D1D1D1"/>
<path d="M14.6363 206.486C14.4923 206.486 14.3644 206.47 14.2204 206.422C13.8365 206.31 13.5966 206.07 13.5966 205.782V188.65H14.0764C14.0764 188.65 14.1404 188.778 14.3484 188.842C14.5243 188.89 14.7323 188.89 14.8922 188.842C15.1002 188.778 15.1642 188.698 15.1642 188.666H15.644V205.798C15.644 206.086 15.4041 206.326 15.0362 206.438C14.9082 206.486 14.7643 206.502 14.6203 206.502L14.6363 206.486ZM14.0924 189.242V205.782C14.0924 205.782 14.1564 205.91 14.3644 205.974C14.5403 206.022 14.7323 206.022 14.9242 205.974C15.1322 205.91 15.1962 205.83 15.1962 205.798V189.258C15.1962 189.258 15.1162 189.29 15.0682 189.306C14.7963 189.386 14.5243 189.386 14.2524 189.306C14.2044 189.306 14.1564 189.274 14.1084 189.258L14.0924 189.242Z" fill="black"/>
<path d="M14.6363 190.873C15.9085 190.873 16.9397 189.842 16.9397 188.57C16.9397 187.298 15.9085 186.266 14.6363 186.266C13.3642 186.266 12.3329 187.298 12.3329 188.57C12.3329 189.842 13.3642 190.873 14.6363 190.873Z" fill="#E8E8E8"/>
<path d="M14.6363 186.267C15.916 186.267 16.9398 187.29 16.9398 188.57C16.9398 189.85 15.9 190.874 14.6363 190.874C13.3726 190.874 12.3329 189.85 12.3329 188.57C12.3329 187.29 13.3726 186.267 14.6363 186.267ZM14.6363 185.787C13.1007 185.787 11.853 187.035 11.853 188.57C11.853 190.106 13.1007 191.353 14.6363 191.353C16.1719 191.353 17.4196 190.106 17.4196 188.57C17.4196 187.035 16.1719 185.787 14.6363 185.787Z" fill="black"/>
<path d="M15.884 186.939C15.804 186.939 15.724 186.939 15.6281 186.939C14.3324 186.939 13.2766 187.995 13.2766 189.29C13.2766 189.546 13.3246 189.802 13.4046 190.042C13.0207 189.706 12.7808 189.178 12.7808 188.618C12.7808 187.515 13.6765 186.619 14.7643 186.619C15.1802 186.619 15.5641 186.747 15.884 186.955V186.939Z" fill="white"/>
<path d="M74.9093 168.751C74.9093 168.751 74.8453 168.719 74.8133 168.687C74.5254 168.527 74.2214 168.383 73.9175 168.239C73.6136 168.111 73.2937 167.999 72.9737 167.903C72.6538 167.807 72.3179 167.727 71.966 167.663C71.6141 167.599 71.2462 167.567 70.8783 167.535C70.4944 167.503 70.0945 167.503 69.6946 167.535C69.2627 167.551 68.8148 167.599 68.3509 167.663C67.839 167.743 67.3112 167.855 66.7673 167.999C66.0795 168.191 65.3756 168.431 64.6558 168.735C63.84 169.071 62.9922 169.487 62.1445 169.983C60.049 171.199 58.0175 172.782 56.146 174.622C55.4741 175.278 54.8183 175.981 54.1944 176.701C53.6986 177.277 53.2027 177.869 52.7388 178.477C52.3229 179.005 51.939 179.548 51.5391 180.092C51.1872 180.604 50.8353 181.116 50.4994 181.644C50.1794 182.14 49.8755 182.652 49.5716 183.164C49.2837 183.659 48.9957 184.171 48.7238 184.667C48.4519 185.179 48.1959 185.675 47.956 186.187C47.7001 186.699 47.4761 187.227 47.2362 187.738C47.0122 188.266 46.7883 188.81 46.5803 189.354C46.3564 189.914 46.1644 190.49 45.9725 191.05C45.7645 191.657 45.5886 192.265 45.4126 192.873C45.2207 193.561 45.0607 194.249 44.9008 194.937C44.7248 195.768 44.5808 196.6 44.4689 197.432C44.3089 198.616 44.2289 199.799 44.2449 200.951C44.2609 206.614 46.2604 210.581 49.4756 212.452L53.9385 215.044C50.7233 213.172 48.7238 209.189 48.7078 203.542C48.7078 202.391 48.7878 201.223 48.9318 200.023C49.0437 199.192 49.1877 198.36 49.3637 197.528C49.5076 196.84 49.6836 196.152 49.8755 195.464C50.0515 194.857 50.2274 194.249 50.4354 193.641C50.6273 193.081 50.8193 192.505 51.0432 191.945C51.2512 191.402 51.4751 190.874 51.6991 190.33C51.923 189.802 52.163 189.29 52.4189 188.778C52.6588 188.266 52.9308 187.754 53.1867 187.259C53.4586 186.747 53.7306 186.251 54.0345 185.755C54.3384 185.243 54.6423 184.731 54.9623 184.235C55.2982 183.707 55.6501 183.196 56.002 182.684C56.3859 182.14 56.7858 181.596 57.2017 181.068C57.6656 180.46 58.1614 179.868 58.6573 179.293C59.2972 178.573 59.937 177.869 60.6088 177.213C62.4804 175.374 64.4959 173.79 66.6073 172.574C67.4551 172.078 68.3029 171.662 69.1187 171.327C69.8385 171.023 70.5424 170.783 71.2302 170.591C71.774 170.447 72.2859 170.335 72.8138 170.255C73.2617 170.191 73.7096 170.143 74.1574 170.127C74.5574 170.111 74.9572 170.127 75.3412 170.127C75.7091 170.143 76.077 170.191 76.4289 170.255C76.7808 170.319 77.1167 170.399 77.4366 170.495C77.7565 170.591 78.0765 170.703 78.3804 170.831C78.6843 170.959 78.9882 171.103 79.2762 171.279C79.3082 171.295 79.3402 171.311 79.3721 171.343L74.9093 168.751Z" fill="#E2DED5"/>
<path d="M66.5913 172.59C76.5088 166.863 84.5708 171.47 84.6028 182.843C84.6348 194.233 76.6208 208.085 66.7192 213.812C56.8177 219.538 48.7557 214.947 48.7237 203.558C48.6917 192.169 56.6897 178.301 66.6073 172.59H66.5913Z" fill="white"/>
<path d="M58.6573 216.531C56.9138 216.531 55.2822 216.131 53.8585 215.299C50.4034 213.316 48.4999 209.141 48.4679 203.574C48.4359 192.121 56.5139 178.141 66.4634 172.398C71.3422 169.583 75.949 169.135 79.4361 171.134C82.8913 173.118 84.8108 177.293 84.8268 182.876C84.8588 194.313 76.7808 208.309 66.8153 214.052C63.936 215.715 61.1527 216.547 58.6413 216.547L58.6573 216.531ZM74.6373 170.367C72.2059 170.367 69.5026 171.182 66.7033 172.798C56.8818 178.461 48.9158 192.265 48.9478 203.558C48.9478 208.965 50.7873 212.98 54.0825 214.884C57.4096 216.803 61.8405 216.339 66.5753 213.62C76.4129 207.941 84.3789 194.153 84.3469 182.86C84.3469 177.453 82.5074 173.438 79.1962 171.534C77.8365 170.751 76.3009 170.367 74.6213 170.367H74.6373Z" fill="black"/>
<path d="M53.8265 215.283L49.3796 212.692C45.9405 210.693 44.053 206.534 44.037 200.983C44.005 189.53 52.0829 175.549 62.0325 169.807C66.9432 166.976 71.5661 166.528 75.0372 168.559L79.4841 171.15L79.2442 171.566C75.917 169.631 71.4701 170.079 66.7193 172.814C56.8977 178.477 48.9317 192.281 48.9637 203.574C48.9637 208.949 50.7873 212.964 54.0665 214.868L53.8265 215.283ZM70.1904 167.775C67.759 167.775 65.0557 168.591 62.2564 170.207C52.4349 175.885 44.4689 189.674 44.5008 200.967C44.5008 206.342 46.3244 210.357 49.6036 212.26L51.5551 213.396C49.5556 211.124 48.4838 207.733 48.4679 203.558C48.4359 192.105 56.5138 178.125 66.4634 172.382C70.1744 170.239 73.7095 169.471 76.7168 170.079L74.7813 168.943C73.4216 168.143 71.87 167.759 70.1744 167.759L70.1904 167.775Z" fill="black"/>
<path d="M121.33 143.589C121.33 143.589 121.266 143.557 121.234 143.525C120.946 143.365 120.642 143.222 120.338 143.078C120.034 142.95 119.714 142.838 119.394 142.742C119.074 142.646 118.738 142.566 118.386 142.502C118.034 142.438 117.667 142.406 117.299 142.374C116.915 142.342 116.515 142.342 116.115 142.374C115.683 142.39 115.235 142.438 114.771 142.502C114.259 142.582 113.732 142.694 113.188 142.838C112.5 143.03 111.796 143.27 111.076 143.573C110.26 143.909 109.413 144.325 108.565 144.821C106.469 146.037 104.438 147.62 102.566 149.46C101.895 150.116 101.239 150.82 100.615 151.539C100.119 152.115 99.6231 152.707 99.1592 153.315C98.7433 153.843 98.3594 154.387 97.9595 154.931C97.6076 155.442 97.2557 155.954 96.9198 156.482C96.5999 156.978 96.2959 157.49 95.992 158.002C95.7041 158.498 95.4161 159.01 95.1442 159.505C94.8723 160.017 94.6164 160.513 94.3764 161.025C94.1205 161.537 93.8965 162.065 93.6566 162.577C93.4326 163.105 93.2087 163.648 93.0008 164.192C92.7768 164.752 92.5849 165.328 92.3929 165.888C92.185 166.496 92.009 167.104 91.833 167.711C91.6411 168.399 91.4811 169.087 91.3212 169.775C91.1452 170.607 91.0013 171.438 90.8893 172.27C90.7293 173.454 90.6493 174.638 90.6653 175.789C90.6813 181.452 92.6808 185.419 95.896 187.29L100.359 189.882C97.1437 188.01 95.1442 184.027 95.1282 178.381C95.1282 177.229 95.2082 176.061 95.3522 174.862C95.4641 174.03 95.6081 173.198 95.7841 172.366C95.928 171.678 96.104 170.991 96.2959 170.303C96.4719 169.695 96.6478 169.087 96.8558 168.479C97.0477 167.919 97.2397 167.343 97.4636 166.784C97.6716 166.24 97.8955 165.712 98.1195 165.168C98.3434 164.64 98.5834 164.128 98.8393 163.616C99.0792 163.105 99.3512 162.593 99.6071 162.097C99.879 161.585 100.151 161.089 100.455 160.593C100.759 160.081 101.063 159.569 101.383 159.074C101.719 158.546 102.07 158.034 102.422 157.522C102.806 156.978 103.206 156.434 103.622 155.906C104.086 155.298 104.582 154.707 105.078 154.131C105.718 153.411 106.357 152.707 107.029 152.051C108.901 150.212 110.916 148.628 113.028 147.412C113.876 146.917 114.723 146.501 115.539 146.165C116.259 145.861 116.963 145.621 117.651 145.429C118.194 145.285 118.706 145.173 119.234 145.093C119.682 145.029 120.13 144.981 120.578 144.965C120.978 144.949 121.378 144.965 121.762 144.965C122.129 144.981 122.497 145.029 122.849 145.093C123.201 145.157 123.537 145.237 123.857 145.333C124.177 145.429 124.497 145.541 124.801 145.669C125.105 145.797 125.409 145.941 125.697 146.117C125.729 146.133 125.761 146.149 125.793 146.181L121.33 143.589Z" fill="#E2DED5"/>
<path d="M113.012 147.428C122.929 141.702 130.991 146.309 131.023 157.682C131.055 169.071 123.041 182.924 113.14 188.65C103.238 194.377 95.1763 189.786 95.1443 178.397C95.1123 167.007 103.11 153.139 113.028 147.428H113.012Z" fill="white"/>
<path d="M105.078 191.369C103.334 191.369 101.703 190.953 100.279 190.138C96.8238 188.154 94.9203 183.979 94.9043 178.413C94.8723 166.959 102.95 152.979 112.9 147.22C117.779 144.405 122.385 143.941 125.873 145.957C129.328 147.94 131.247 152.115 131.263 157.698C131.295 169.135 123.217 183.131 113.252 188.874C110.372 190.538 107.589 191.369 105.078 191.369ZM121.058 145.205C118.626 145.205 115.923 146.021 113.124 147.636C103.302 153.315 95.3362 167.103 95.3681 178.413C95.3681 183.819 97.2077 187.834 100.503 189.738C103.83 191.657 108.261 191.193 112.996 188.474C122.817 182.795 130.799 169.007 130.767 157.714C130.767 152.307 128.928 148.292 125.617 146.389C124.257 145.605 122.721 145.221 121.042 145.221L121.058 145.205Z" fill="black"/>
<path d="M100.247 190.106L95.784 187.514C92.3449 185.515 90.4574 181.356 90.4414 175.805C90.4094 164.352 98.4874 150.372 108.437 144.613C113.348 141.782 117.97 141.334 121.442 143.365L125.905 145.957L125.665 146.373C122.337 144.437 117.891 144.885 113.14 147.62C103.318 153.299 95.3522 167.087 95.3841 178.397C95.3841 183.771 97.2077 187.786 100.487 189.69L100.247 190.106ZM116.611 142.598C114.179 142.598 111.492 143.413 108.677 145.029C98.8553 150.708 90.8893 164.496 90.9213 175.805C90.9213 181.18 92.7448 185.195 96.024 187.098L97.9755 188.234C95.976 185.963 94.9043 182.572 94.8883 178.397C94.8563 166.944 102.934 152.963 112.884 147.204C116.579 145.061 120.13 144.293 123.137 144.917L121.202 143.781C119.842 142.982 118.29 142.598 116.595 142.598H116.611Z" fill="black"/>
<path d="M116.403 157.378C115.731 158.85 114.547 160.401 113.364 161.089C113.108 159.938 113.588 158.194 114.227 156.898C114.931 155.427 116.179 153.859 117.267 153.059C117.507 154.291 117.075 155.955 116.403 157.378Z" fill="black"/>
<path d="M120.402 165.504C120.85 166.144 122.065 166.704 123.009 166.416L122.961 166.608L122.929 166.8C122.753 167.76 122.177 169.551 121.778 170.575C120.978 172.558 120.178 174.494 118.706 175.566C118.61 175.63 118.514 175.694 118.418 175.742C117.874 176.062 117.459 176.158 117.027 176.253C116.579 176.349 116.131 176.445 115.507 176.813C115.363 176.893 115.219 176.989 115.059 177.101C114.179 177.677 113.652 178.317 113.14 178.909C112.708 179.437 112.26 179.949 111.636 180.396C111.54 180.46 111.46 180.524 111.364 180.572C110.068 181.324 108.965 180.572 108.005 179.901C107.509 179.501 106.693 178.589 106.389 178.029C106.069 177.517 105.606 176.413 105.478 175.758C105.318 175.07 105.11 173.678 105.158 173.038C105.158 172.079 105.446 170.415 105.766 169.583C106.549 167.328 108.021 165.184 109.812 163.937L110.084 163.713C110.228 163.601 110.372 163.521 110.5 163.441C111.124 163.073 111.748 162.929 112.308 162.785C112.756 162.673 113.172 162.577 113.508 162.385C113.556 162.353 113.604 162.321 113.652 162.289C114.003 162.065 114.467 161.553 114.995 160.961C115.763 160.114 116.675 159.106 117.603 158.578C117.731 158.498 117.858 158.418 117.986 158.338C119.41 157.522 120.802 157.346 121.762 158.05C121.522 158.402 121.186 158.962 121.074 159.186C120.498 160.082 119.858 161.761 119.826 163.025C119.762 164.033 120.018 165.024 120.418 165.504H120.402Z" fill="black"/>
<path d="M71.6462 192.825C71.7901 192.745 71.9501 192.681 72.11 192.633C72.254 192.585 72.414 192.569 72.5739 192.553C72.5739 192.553 72.5899 192.553 72.6059 192.553C72.6539 192.553 72.7179 192.553 72.7659 192.553C73.8376 192.537 74.2055 192.841 73.9656 193.705C73.9496 193.705 73.9336 193.721 73.9176 193.737C73.8696 193.769 73.8216 193.801 73.7736 193.817C73.9816 193.113 73.6616 192.873 72.7499 192.937C72.398 192.969 72.0621 193.049 71.7901 193.209C71.3742 193.449 71.0703 193.865 71.0063 194.473C71.0063 194.553 70.9903 194.649 70.9743 194.729C70.9263 194.777 70.8623 194.841 70.8144 194.905C70.7824 194.952 70.7504 194.984 70.7184 195.032C70.7184 194.825 70.7184 194.601 70.7504 194.377C70.8304 193.641 71.1503 193.161 71.6142 192.873C71.6142 192.873 71.6462 192.857 71.6621 192.841L71.6462 192.825Z" fill="black"/>
<path d="M66.4634 203.542C67.5831 202.887 68.6868 201.735 69.5826 200.471C69.3587 201.463 69.1347 202.487 69.2947 203.095C69.1827 203.175 69.0707 203.238 68.9747 203.302C68.5748 203.542 68.1909 203.702 67.839 203.846C67.4711 203.99 67.1512 204.134 66.8473 204.31C66.7833 204.342 66.7353 204.374 66.6713 204.422C65.6476 205.078 65.0077 205.734 64.4159 206.07C64.3999 206.07 64.3679 206.102 64.3519 206.102C64.4319 205.83 64.4959 205.558 64.5119 205.286C64.5599 204.774 64.3359 204.374 64.016 204.022C64.7998 204.246 65.6476 204.038 66.4794 203.558L66.4634 203.542Z" fill="black"/>
<path d="M70.8943 188.474C70.8943 188.474 70.9103 188.474 70.9263 188.474C71.6781 188.81 72.7178 189.93 72.6698 191.769C72.6698 192.025 72.6379 192.297 72.5739 192.569C72.4139 192.569 72.254 192.617 72.11 192.649C72.7338 190.378 71.5501 189.018 71.0223 188.746C70.8143 188.634 70.7983 188.538 70.8943 188.474Z" fill="black"/>
<path d="M70.6864 186.171C70.9583 186.011 71.2782 186.027 71.5662 186.219C72.222 186.682 73.5817 187.658 74.2695 189.322C74.7814 190.553 74.8293 191.945 74.4294 193.497C74.2695 193.529 74.1255 193.593 73.9656 193.673C74.2055 192.809 73.8376 192.505 72.7659 192.521C72.7179 192.521 72.6539 192.521 72.6059 192.521C72.6539 192.249 72.6859 191.977 72.7019 191.705C72.7499 189.754 71.5822 188.602 70.8303 188.33C70.3984 188.186 69.9826 187.786 70.0945 187.082C70.1425 186.762 70.3025 186.443 70.5264 186.251C70.5744 186.203 70.6384 186.171 70.6864 186.123V186.171Z" fill="black"/>
<path d="M73.5816 194.169L73.7255 193.625C73.8055 193.321 73.8055 193.113 73.7255 193.001C73.6136 192.857 73.2937 192.761 72.7658 192.793L72.3019 192.825L72.3659 192.521C72.4139 192.249 72.4459 191.993 72.4459 191.737C72.4938 189.914 71.4221 188.842 70.7343 188.602C70.2384 188.442 69.7105 187.946 69.8385 187.098C69.9025 186.731 70.0944 186.363 70.3504 186.123C70.4144 186.075 70.4784 186.027 70.5583 185.979C70.9102 185.771 71.3261 185.787 71.694 186.043C72.3819 186.523 73.7735 187.53 74.4774 189.258C75.0052 190.538 75.0532 191.993 74.6533 193.577L74.6213 193.721L74.4774 193.753C74.3654 193.769 74.2374 193.817 74.0934 193.913L73.5976 194.185L73.5816 194.169ZM72.8778 192.297C73.5016 192.297 73.8855 192.425 74.0934 192.697C74.1894 192.825 74.2374 192.969 74.2534 193.129C74.5573 191.769 74.4774 190.522 74.0295 189.418C73.3736 187.818 72.046 186.874 71.4221 186.411C71.2782 186.315 71.0382 186.219 70.7983 186.363C70.7503 186.395 70.7183 186.427 70.6703 186.443C70.4943 186.603 70.3504 186.874 70.3184 187.13C70.2064 187.834 70.7183 188.058 70.8783 188.106C71.6941 188.394 72.9737 189.626 72.9257 191.705C72.9257 191.881 72.9097 192.073 72.8778 192.265V192.297Z" fill="black"/>
<path d="M63.5681 190.09C63.6961 190.138 62.7203 192.569 62.3044 193.609L62.1925 193.881C61.4087 195.816 59.5691 200.359 62.0965 200.711C63.1522 200.839 63.6641 201.191 63.92 201.479C64.224 201.815 64.3199 202.231 64.16 202.615C64.032 202.919 63.8081 203.159 63.5041 203.319C63.4561 203.351 63.3922 203.383 63.3442 203.399C63.0083 203.111 62.7043 202.855 62.5444 202.567C61.9525 201.463 61.3447 200.503 60.4329 200.871C60.3689 200.903 60.3049 200.935 60.241 200.967C59.937 201.143 59.6971 201.415 59.5051 201.735C59.5051 201.735 59.5051 201.719 59.5051 201.703C59.0732 198.84 61.5686 193.689 62.6563 191.609C63.3602 190.282 63.5201 190.106 63.5521 190.09H63.5681Z" fill="black"/>
<path d="M63.3122 203.686L63.1362 203.542C62.8163 203.27 62.5124 202.998 62.3364 202.694C61.6806 201.463 61.2007 200.839 60.5289 201.111C60.4809 201.127 60.4329 201.159 60.3849 201.191C60.145 201.335 59.937 201.543 59.7291 201.878L59.3772 202.454L59.2972 201.783C58.8493 198.823 61.3607 193.625 62.4644 191.513C63.2642 190.009 63.3921 189.945 63.4561 189.897L63.5521 189.833L63.7601 189.913L63.808 190.009C63.872 190.153 63.92 190.265 62.5444 193.705L62.4324 193.976C61.8565 195.368 60.5449 198.647 61.2807 199.943C61.4566 200.247 61.7446 200.423 62.1445 200.471C63.2642 200.615 63.824 200.999 64.112 201.303C64.4959 201.703 64.5918 202.214 64.3999 202.694C64.2719 203.03 64.016 203.318 63.6481 203.526C63.5841 203.558 63.5201 203.59 63.4721 203.622L63.3282 203.686H63.3122ZM61.5686 200.807C62.0965 201.191 62.4804 201.91 62.7683 202.454C62.8803 202.662 63.1202 202.886 63.3922 203.11C63.6641 202.95 63.84 202.758 63.936 202.518C64.064 202.214 63.984 201.894 63.7441 201.623C63.5201 201.383 63.0562 201.063 62.0805 200.935C61.8885 200.903 61.7286 200.871 61.5686 200.791V200.807ZM62.5284 192.441C61.4246 194.632 59.6491 198.551 59.7131 201.111C59.841 200.967 59.985 200.855 60.145 200.775C60.2089 200.743 60.2729 200.695 60.3529 200.663C60.7048 200.519 61.0088 200.535 61.2807 200.663C61.1047 200.535 60.9768 200.391 60.8648 200.199C60.001 198.695 61.2807 195.512 61.9845 193.816L62.0965 193.545C62.2564 193.129 62.4004 192.777 62.5284 192.457V192.441Z" fill="black"/>
<path d="M68.7669 185.931C69.1348 187.338 69.9666 189.21 70.5104 190.042C70.7984 190.49 71.3582 191.449 71.6142 192.857C71.1503 193.145 70.8304 193.625 70.7504 194.361C70.7184 194.585 70.7184 194.792 70.7184 195.016C69.9826 196.008 69.9346 197.4 69.8706 198.855C69.8546 199.271 69.7266 199.863 69.5827 200.471C68.7029 201.751 67.5992 202.902 66.4635 203.542C65.6317 204.022 64.7839 204.23 64.0001 204.006C63.8561 203.862 63.7121 203.718 63.5522 203.574C63.6162 203.542 63.6801 203.51 63.7441 203.478C65.4237 202.503 65.0238 200.247 62.8324 200.167C62.3365 200.151 61.9846 199.991 61.7286 199.767C61.7446 198.647 61.9846 197.384 62.3685 196.12C62.9283 194.345 64.096 191.113 64.176 189.05C64.256 189.082 64.352 189.098 64.464 189.098C64.6079 189.098 64.7199 189.162 64.8479 189.226C65.1038 189.354 65.3757 189.482 65.9196 189.194C65.9516 189.178 65.9996 189.162 66.0316 189.13C66.5914 188.81 66.9753 188.298 67.2952 187.882C67.4552 187.674 67.6152 187.466 67.7591 187.322C68.207 186.89 68.5749 186.395 68.7829 185.931H68.7669Z" fill="white"/>
<path d="M68.2869 185.515V185.643C68.1429 185.739 67.887 186.059 67.5991 186.427C67.1032 187.051 66.4954 187.818 65.8555 188.186C65.1037 188.618 64.5598 188.362 64.2719 188.202C64.1919 188.154 64.096 188.122 64.064 188.122V187.994C64.064 187.994 64.2079 187.994 64.3519 188.058C64.6398 188.202 65.1517 188.458 65.8555 188.058C66.4634 187.706 67.0552 186.955 67.5351 186.347C67.855 185.947 68.095 185.627 68.2869 185.515Z" fill="#B26C31"/>
<path d="M71.0223 188.746C71.5662 189.002 72.7499 190.378 72.1101 192.649C71.9501 192.697 71.7901 192.761 71.6462 192.841C71.6462 192.841 71.6142 192.857 71.5982 192.873C71.3422 191.465 70.7824 190.506 70.4945 190.058C69.9506 189.226 69.1188 187.354 68.7509 185.947C68.8629 185.691 68.9269 185.467 68.9428 185.259C68.9428 184.875 68.7669 184.683 68.383 184.683C68.6229 184.219 68.7509 183.675 68.7509 183.163C68.7349 182.22 68.207 181.772 67.5672 182.14C66.8954 182.556 66.3835 183.643 66.3995 184.603C66.3995 184.699 66.3995 184.779 66.4155 184.859C66.2555 184.907 66.1276 184.971 65.9836 185.051C65.8236 185.147 65.6797 185.259 65.5357 185.387C65.5357 185.275 65.5357 185.163 65.5357 185.051C65.4877 184.267 65.1038 183.851 64.6399 184.107C64.1281 184.427 63.7921 185.323 63.8401 186.139C63.8721 186.635 64.0321 186.986 64.272 187.114C64.176 187.242 64.0641 187.402 63.9201 187.61C63.7282 187.898 63.6162 188.202 63.6322 188.442C63.6482 188.746 63.8241 188.954 64.144 189.05C64.0641 191.113 62.8964 194.329 62.3365 196.12C61.9526 197.4 61.7287 198.648 61.6967 199.767C60.6729 198.808 61.4087 196.392 61.8086 195.304C62.1925 194.249 62.2885 193.897 62.2405 193.929C62.2405 193.929 62.2245 193.945 62.1925 193.977C62.1925 193.945 62.2085 193.929 62.2245 193.897L62.3365 193.625C63.2803 191.273 63.7282 190.058 63.5842 190.026C63.4562 190.09 63.2483 190.394 62.6084 191.593C62.5444 191.705 62.4805 191.817 62.4165 191.945C63.1523 190.314 63.3602 189.226 63.4242 187.946C63.4722 186.203 62.3525 181.756 66.5434 178.956C66.7034 178.844 66.8634 178.749 67.0073 178.669C70.7664 176.493 70.5744 181.164 70.5584 183.627C70.5584 185.499 71.5822 186.059 72.478 186.89C72.1261 186.587 71.8061 186.347 71.5662 186.187C71.2623 185.979 70.9423 185.963 70.6544 186.123C70.5904 186.155 70.5425 186.203 70.4785 186.251C70.2385 186.459 70.0786 186.795 70.0146 187.13C69.9026 187.85 70.3185 188.266 70.7664 188.41C70.7984 188.41 70.8464 188.442 70.8784 188.458C70.7504 188.522 70.7664 188.634 70.9743 188.746H71.0223Z" fill="black"/>
<path d="M62.2564 193.913C62.2564 193.913 62.2085 194.233 61.8246 195.288C61.4247 196.376 60.7048 198.791 61.7126 199.751C61.9685 199.991 62.3204 200.135 62.8163 200.151C65.0238 200.215 65.4237 202.487 63.7281 203.462C63.6641 203.494 63.6001 203.526 63.5361 203.558C63.4881 203.51 63.4402 203.478 63.3922 203.43C63.4242 203.43 63.4562 203.398 63.4721 203.382C63.8401 203.174 64.08 202.886 64.208 202.599C64.5279 201.783 63.92 200.855 62.1285 200.615C59.6811 200.279 61.4247 195.912 62.2085 193.945C62.2245 193.913 62.2405 193.897 62.2564 193.897V193.913Z" fill="black"/>
<path d="M67.4871 183.228C67.791 183.052 68.015 183.356 68.015 183.883C68.015 184.187 67.919 184.507 67.807 184.763C67.807 184.763 67.791 184.763 67.775 184.763C67.5831 184.795 67.4391 184.827 67.2951 184.795C67.1832 184.779 67.0712 184.763 66.9752 184.763C66.9752 184.683 66.9592 184.587 66.9592 184.491C66.9592 183.963 67.2152 183.388 67.5031 183.212L67.4871 183.228Z" fill="black"/>
<path d="M68.239 184.907C68.5909 184.875 68.7829 185.019 68.7829 185.339C68.7669 185.819 68.303 186.587 67.6791 187.179C67.5032 187.339 67.3432 187.562 67.1673 187.786C66.8633 188.202 66.5114 188.65 65.9996 188.954C65.9676 188.97 65.9356 188.986 65.9036 189.002C65.4237 189.242 65.1838 189.13 64.9278 189.002C64.7999 188.954 64.6719 188.89 64.5119 188.874C64.08 188.842 63.8241 188.634 63.8081 188.314C63.8081 188.122 63.8721 187.898 64.032 187.674C64.256 187.339 64.416 187.115 64.5279 186.971C64.6239 186.827 64.6719 186.763 64.6879 186.731L64.7519 186.635C64.9758 186.251 65.3757 185.579 65.9996 185.227C66.3355 185.035 66.7354 184.939 67.1993 185.003C67.3592 185.035 67.5192 185.003 67.7111 184.971C67.8551 184.939 68.0151 184.923 68.239 184.891V184.907ZM67.5992 186.427C67.8871 186.059 68.143 185.739 68.287 185.643V185.515C68.095 185.643 67.8391 185.947 67.5352 186.347C67.0553 186.955 66.4634 187.706 65.8556 188.058C65.1518 188.474 64.6399 188.218 64.352 188.058C64.208 187.994 64.144 187.962 64.08 187.994V188.122C64.08 188.122 64.208 188.154 64.288 188.202C64.5759 188.346 65.1198 188.618 65.8716 188.186C66.5114 187.818 67.1193 187.051 67.6152 186.427" fill="#FFE445"/>
<path d="M67.5671 182.14C68.207 181.772 68.7348 182.22 68.7508 183.164C68.7508 183.675 68.6229 184.219 68.3829 184.683C68.3509 184.683 68.3349 184.683 68.3029 184.683C68.095 184.699 67.919 184.731 67.7911 184.747C67.919 184.491 67.999 184.187 67.999 183.867C67.999 183.34 67.7751 183.036 67.4712 183.212C67.1672 183.388 66.9273 183.947 66.9113 184.491C66.9113 184.587 66.9113 184.683 66.9273 184.763C66.7353 184.763 66.5594 184.795 66.3834 184.843C66.3834 184.763 66.3674 184.683 66.3674 184.587C66.3514 183.643 66.8633 182.54 67.5031 182.14C67.5031 182.14 67.5191 182.14 67.5351 182.124L67.5671 182.14Z" fill="white"/>
<path d="M68.3989 184.683C68.7668 184.683 68.9587 184.875 68.9587 185.259C68.9587 185.467 68.8788 185.691 68.7668 185.947C68.5588 186.411 68.1909 186.923 67.743 187.338C67.5991 187.482 67.4391 187.69 67.2792 187.898C66.9592 188.314 66.5753 188.826 66.0155 189.146C65.9835 189.162 65.9355 189.194 65.9035 189.21C65.3596 189.482 65.0877 189.354 64.8318 189.242C64.7038 189.178 64.5918 189.13 64.4479 189.114C64.3359 189.114 64.2399 189.082 64.1599 189.066C63.856 188.97 63.6641 188.762 63.6481 188.458C63.6321 188.202 63.7281 187.914 63.936 187.626C64.08 187.418 64.1919 187.258 64.2879 187.13C64.3519 187.051 64.3839 186.987 64.4319 186.923C64.5279 186.795 64.5598 186.731 64.5758 186.715L64.6398 186.619C64.7358 186.443 64.8798 186.203 65.0717 185.947C65.2157 185.755 65.3756 185.579 65.5516 185.403C65.6796 185.275 65.8395 185.163 65.9995 185.067C66.1275 184.987 66.2714 184.923 66.4314 184.875C66.5913 184.827 66.7833 184.795 66.9752 184.795C67.0872 184.795 67.1832 184.795 67.2952 184.827C67.4551 184.859 67.5831 184.827 67.775 184.795C67.775 184.795 67.791 184.795 67.807 184.795C67.935 184.763 68.111 184.747 68.3189 184.731C68.3509 184.731 68.3829 184.731 68.3989 184.731V184.683ZM67.6791 187.178C68.3029 186.603 68.7668 185.819 68.7828 185.339C68.7828 185.019 68.6068 184.859 68.2389 184.907C68.015 184.923 67.855 184.955 67.7111 184.987C67.5191 185.019 67.3591 185.051 67.1992 185.019C66.7193 184.939 66.3354 185.051 65.9995 185.243C65.3756 185.595 64.9917 186.267 64.7518 186.651L64.6878 186.747C64.6878 186.747 64.6238 186.843 64.5279 186.987C64.4159 187.13 64.2719 187.354 64.032 187.69C63.872 187.914 63.808 188.138 63.808 188.33C63.824 188.65 64.096 188.858 64.5119 188.89C64.6718 188.89 64.7998 188.97 64.9278 189.018C65.1837 189.13 65.4236 189.242 65.9035 189.018C65.9355 189.002 65.9675 188.986 65.9995 188.97C66.5114 188.682 66.8473 188.218 67.1672 187.802C67.3432 187.578 67.5031 187.354 67.6791 187.194" fill="#E68C3F"/>
<path d="M64.6239 185.099C64.8318 184.987 65.0238 185.195 65.0558 185.595C65.0558 185.707 65.0558 185.803 65.0558 185.915C64.8638 186.17 64.7198 186.41 64.6239 186.586L64.5759 186.682C64.4319 186.65 64.3199 186.458 64.2879 186.154C64.256 185.739 64.3839 185.275 64.6079 185.131C64.6079 185.131 64.6239 185.131 64.6399 185.115L64.6239 185.099Z" fill="black"/>
<path d="M64.6559 184.091C65.1038 183.835 65.5037 184.235 65.5516 185.035C65.5516 185.147 65.5516 185.259 65.5516 185.371C65.3597 185.547 65.1997 185.723 65.0718 185.915C65.0718 185.803 65.0718 185.707 65.0718 185.595C65.0398 185.195 64.8478 184.987 64.6399 185.099C64.6399 185.099 64.6239 185.099 64.6079 185.115C64.3999 185.275 64.256 185.739 64.288 186.139C64.32 186.443 64.4319 186.635 64.5759 186.667L64.6239 186.715L64.5599 186.683C64.5599 186.683 64.4959 186.779 64.4159 186.891C64.3839 186.939 64.336 187.019 64.272 187.099C64.032 186.971 63.8721 186.635 63.8401 186.123C63.7921 185.323 64.144 184.411 64.6079 184.107C64.6079 184.107 64.6239 184.107 64.6399 184.091H64.6559Z" fill="white"/>
<path d="M70.9583 194.921C70.9743 195.641 71.2783 196.232 71.8381 196.072C71.9181 196.056 71.9981 196.024 72.0781 195.976C72.6699 195.625 73.4057 194.649 73.6777 194.057C73.7576 194.009 73.8376 193.961 73.9176 193.913C74.1895 193.753 74.4615 193.641 74.7174 193.753C74.9733 193.849 75.0533 194.249 75.1493 194.633C75.2293 194.985 75.3093 195.353 75.5332 195.513C76.0291 195.848 76.237 196.216 76.173 196.6C76.0931 197.096 75.5972 197.656 75.0053 198.328C74.3975 199.016 73.7256 199.784 73.2298 200.743C72.5899 201.991 71.7581 202.999 71.0063 203.431C70.9263 203.479 70.8624 203.511 70.7984 203.543C70.2385 203.783 69.8066 203.671 69.5347 203.207C69.2308 202.727 69.5027 201.511 69.7426 200.439C69.8866 199.815 70.0146 199.208 70.0306 198.776C70.0946 197.048 70.1905 195.864 70.8944 195.017C70.9263 194.985 70.9423 194.953 70.9743 194.921H70.9583Z" fill="#FFE445"/>
<path d="M70.9583 194.697C70.9583 194.697 70.9583 194.841 70.9583 194.905C70.9263 194.937 70.9103 194.969 70.8783 195.001C70.1905 195.832 70.0945 197.032 70.0145 198.76C69.9985 199.208 69.8546 199.799 69.7266 200.423C69.4867 201.495 69.2307 202.711 69.5187 203.191C69.7906 203.654 70.2225 203.766 70.7823 203.526C70.8463 203.494 70.9263 203.462 70.9903 203.414C71.7421 202.983 72.5739 201.975 73.2137 200.727C73.6936 199.767 74.3814 199 74.9893 198.312C75.5651 197.656 76.077 197.08 76.157 196.584C76.221 196.2 76.013 195.832 75.5172 195.496C75.3092 195.353 75.2292 194.985 75.1333 194.617C75.0533 194.233 74.9573 193.833 74.7014 193.737C74.4454 193.625 74.1735 193.737 73.9016 193.897C73.8216 193.945 73.7416 193.993 73.6776 194.041C73.6936 193.993 73.7096 193.961 73.7256 193.913C73.7256 193.865 73.7576 193.833 73.7736 193.785C73.8216 193.753 73.8696 193.721 73.9176 193.705C73.9335 193.705 73.9495 193.689 73.9655 193.673C74.1255 193.593 74.2695 193.513 74.4294 193.497C74.4294 193.497 74.4454 193.497 74.4614 193.497C74.5894 193.481 74.7014 193.497 74.8293 193.545C75.1332 193.657 75.2292 194.089 75.3092 194.505C75.3892 194.857 75.4692 195.177 75.6451 195.321C76.189 195.688 76.3969 196.088 76.333 196.552C76.237 197.144 75.7091 197.752 75.0853 198.472C74.4934 199.144 73.8376 199.895 73.3737 200.807C72.6859 202.135 71.8381 203.159 71.0383 203.622C70.9583 203.67 70.8783 203.718 70.7983 203.75C70.1905 204.022 69.6946 203.894 69.3907 203.382C69.3427 203.303 69.3107 203.223 69.2787 203.111C69.1348 202.503 69.3587 201.479 69.5666 200.487C69.7106 199.863 69.8386 199.272 69.8546 198.856C69.9186 197.4 69.9665 196.008 70.7024 195.017C70.7344 194.969 70.7663 194.937 70.7983 194.889C70.8463 194.825 70.9103 194.761 70.9583 194.713V194.697Z" fill="#E68C3F"/>
<path d="M71.7741 193.193C72.046 193.033 72.3819 192.953 72.7338 192.921C73.6616 192.873 73.9655 193.097 73.7576 193.801C73.7576 193.849 73.7256 193.881 73.7096 193.929C73.7096 193.961 73.6776 194.009 73.6616 194.057C73.3897 194.633 72.6538 195.625 72.062 195.976C71.982 196.024 71.902 196.056 71.822 196.072C71.2622 196.232 70.9583 195.641 70.9423 194.921C70.9423 194.857 70.9423 194.777 70.9423 194.713C70.9423 194.633 70.9423 194.537 70.9743 194.457C71.0542 193.849 71.3422 193.449 71.7581 193.193H71.7741Z" fill="black"/>
<path d="M60.241 201.159C60.241 201.159 60.353 201.095 60.4009 201.079C61.2327 200.743 61.8246 201.671 62.3845 202.742C62.5444 203.046 62.8643 203.318 63.1843 203.59C63.7281 204.07 64.352 204.598 64.304 205.35C64.272 205.989 64.016 206.597 63.6001 207.125C63.3282 207.461 62.9763 207.749 62.6084 207.957C62.0325 208.293 61.3767 208.469 60.7209 208.453C60.081 208.437 59.3452 208.757 58.6894 209.061C58.0015 209.365 57.3937 209.637 57.1538 209.349C56.9938 209.141 57.0098 208.629 57.2497 207.765C57.3457 207.381 57.2817 207.013 57.2497 206.645C57.1858 206.245 57.1218 205.829 57.2817 205.398C57.4737 204.854 57.7936 204.534 58.1455 204.214C58.4014 203.958 58.6734 203.702 58.8813 203.334C58.9933 203.126 59.1053 202.886 59.2172 202.646C59.5052 202.022 59.7771 201.447 60.257 201.159H60.241Z" fill="#FFE445"/>
<path d="M63.984 204.006C64.304 204.358 64.5119 204.758 64.4799 205.27C64.4639 205.542 64.4159 205.814 64.32 206.086C64.192 206.501 63.968 206.885 63.6801 207.253C63.3762 207.621 63.0083 207.925 62.6084 208.165C62.0005 208.517 61.3127 208.709 60.6409 208.693C60.017 208.677 59.2972 208.997 58.6734 209.285C57.9375 209.621 57.2977 209.909 57.0258 209.557C56.8178 209.301 56.8498 208.757 57.1058 207.829C57.1857 207.493 57.1377 207.157 57.0738 206.805C57.0098 206.373 56.9458 205.926 57.1218 205.43C57.3457 204.79 57.7136 204.438 58.0815 204.086C58.3375 203.846 58.5774 203.606 58.7533 203.286C58.8653 203.094 58.9613 202.87 59.0733 202.63C59.2012 202.374 59.3292 202.087 59.4732 201.831C59.4892 201.799 59.5052 201.783 59.5212 201.751C59.7131 201.431 59.953 201.159 60.257 200.983C60.321 200.951 60.3849 200.919 60.4489 200.887C61.3767 200.519 61.9685 201.479 62.5604 202.582C62.7204 202.87 63.0243 203.126 63.3442 203.398C63.3762 203.43 63.3922 203.43 63.4082 203.446C63.4562 203.494 63.5042 203.526 63.5521 203.574C63.7121 203.718 63.8721 203.862 64 204.006H63.984ZM64.304 205.35C64.3679 204.582 63.7441 204.054 63.1842 203.59C62.8483 203.318 62.5444 203.046 62.3844 202.742C61.8086 201.671 61.2327 200.743 60.4009 201.079C60.3369 201.095 60.289 201.127 60.241 201.159C59.7451 201.447 59.4732 202.023 59.2012 202.646C59.0893 202.87 58.9773 203.11 58.8653 203.334C58.6574 203.702 58.3854 203.958 58.1295 204.214C57.7776 204.55 57.4577 204.854 57.2657 205.398C57.1058 205.83 57.1697 206.245 57.2337 206.645C57.2817 207.013 57.3457 207.381 57.2337 207.765C57.0098 208.613 56.9778 209.125 57.1378 209.349C57.3617 209.637 57.9695 209.365 58.6734 209.061C59.3292 208.773 60.065 208.437 60.7049 208.453C61.3607 208.453 62.0165 208.293 62.5924 207.957C62.9763 207.733 63.3122 207.461 63.5841 207.125C64 206.613 64.256 206.006 64.288 205.35" fill="#E68C3F"/>
<path d="M164.567 79.4615C164.599 68.1843 156.665 54.4597 146.843 48.7811C142.476 46.2698 138.477 45.7739 135.39 46.9896L135.07 47.2135L127.712 51.5804L129.887 53.196C129.328 54.8436 129.024 56.7631 129.024 58.9386C128.992 70.2318 136.926 83.9563 146.731 89.6189C148.891 90.8666 150.938 91.5864 152.858 91.8904L153.146 94.9296L160.168 90.3228L160.552 90.0188C163.047 87.9394 164.551 84.3243 164.551 79.4455L164.567 79.4615Z" fill="#E2DED5"/>
<path d="M138.909 46.8293C141.309 46.8293 143.9 47.6291 146.619 49.1967C156.281 54.7793 164.135 68.3599 164.103 79.4611C164.103 83.988 162.727 87.6031 160.28 89.6506L159.928 89.9225L153.562 94.0814L153.354 91.826L153.322 91.4581L152.954 91.3941C151.018 91.0902 149.003 90.3544 146.987 89.1867C137.326 83.6041 129.488 70.0395 129.52 58.9222C129.52 56.8588 129.808 54.9872 130.367 53.3236L130.479 52.9877L130.191 52.7798L128.592 51.5961L135.358 47.5651L135.63 47.3731C136.638 46.9892 137.742 46.7973 138.909 46.7973M138.909 46.3174C137.646 46.3174 136.478 46.5253 135.406 46.9572L135.086 47.1812L127.728 51.5481L129.903 53.1637C129.344 54.8113 129.04 56.7308 129.04 58.9062C129.008 70.1994 136.942 83.924 146.747 89.5866C148.907 90.8343 150.954 91.5541 152.874 91.858L153.162 94.8972L160.184 90.2904L160.568 89.9865C163.063 87.907 164.567 84.2919 164.567 79.4131C164.599 68.1359 156.665 54.4114 146.843 48.7328C143.98 47.0852 141.277 46.3014 138.893 46.3014L138.909 46.3174Z" fill="black"/>
<path d="M140.573 52.8438C150.394 58.5064 158.328 72.247 158.296 83.5242C158.264 94.8014 150.282 99.3602 140.461 93.6816C130.639 88.0031 122.721 74.2785 122.753 63.0013C122.785 51.7241 130.767 47.1813 140.573 52.8438Z" fill="white"/>
<path d="M132.607 50.8925C135.006 50.8925 137.614 51.6923 140.333 53.2599C149.994 58.8425 157.849 72.4231 157.817 83.5243C157.801 91.0104 154.201 95.6493 148.443 95.6493C146.043 95.6493 143.436 94.8495 140.701 93.2659C131.039 87.6833 123.201 74.1187 123.233 63.0014C123.249 55.5313 126.848 50.8925 132.607 50.8925ZM132.607 50.4126C126.784 50.4126 122.785 55.0194 122.753 63.0014C122.721 74.2946 130.655 88.0192 140.461 93.6818C143.324 95.3454 146.043 96.1292 148.443 96.1292C154.265 96.1292 158.28 91.5223 158.296 83.5243C158.328 72.2471 150.394 58.5226 140.573 52.844C137.71 51.1964 135.006 50.4126 132.607 50.4126Z" fill="black"/>
<path d="M135.166 76.1341C136.43 76.8699 137.454 78.6295 137.438 80.0691C137.422 81.5087 136.414 82.1166 135.15 81.3808C133.886 80.645 132.863 78.8854 132.879 77.4298C132.895 75.9741 133.902 75.3983 135.166 76.1181V76.1341Z" fill="#00F2BE"/>
<path d="M135.198 68.6318C136.462 69.3676 137.486 71.1272 137.47 72.5668C137.454 74.0065 136.446 74.5983 135.182 73.8785C133.918 73.1587 132.895 71.3831 132.911 69.9435C132.927 68.5039 133.934 67.912 135.198 68.6318Z" fill="#D285F3"/>
<path d="M135.214 61.1297C136.478 61.8656 137.502 63.6251 137.486 65.0648C137.47 66.5044 136.462 67.0963 135.198 66.3764C133.934 65.6566 132.911 63.8811 132.927 62.4414C132.943 61.0018 133.95 60.4099 135.214 61.1297Z" fill="#28C916"/>
<path d="M141.725 72.4071C142.972 73.1269 144.012 74.9025 143.996 76.3421C143.98 77.7817 142.956 78.3736 141.709 77.6538C140.461 76.934 139.421 75.1584 139.437 73.7188C139.453 72.2791 140.461 71.6873 141.725 72.4071Z" fill="#FFA05C"/>
<path d="M141.74 64.905C142.988 65.6248 144.028 67.4004 144.012 68.84C143.996 70.2797 142.972 70.8715 141.724 70.1517C140.477 69.4319 139.437 67.6563 139.453 66.2167C139.469 64.777 140.477 64.1852 141.74 64.905Z" fill="#3DAAE2"/>
<path d="M148.267 68.6639C149.531 69.3997 150.554 71.1593 150.538 72.5989C150.522 74.0386 149.515 74.6304 148.251 73.9106C146.987 73.1908 145.963 71.4152 145.979 69.9756C145.995 68.536 147.019 67.9441 148.267 68.6639Z" fill="#E36479"/>
</g>
<defs>
<linearGradient id="paint0_linear_3744_29607" x1="103.91" y1="87.1555" x2="304.74" y2="87.1555" gradientUnits="userSpaceOnUse">
<stop stop-color="#F4FFFF"/>
<stop offset="0.29" stop-color="#81DBEA" stop-opacity="0.3"/>
<stop offset="0.59" stop-color="#5AB9DB" stop-opacity="0.4"/>
</linearGradient>
<clipPath id="clip0_3744_29607">
<rect width="320" height="248.754" fill="white" transform="translate(0 0.505127)"/>
</clipPath>
</defs>
</svg>
