<svg width="320" height="295" viewBox="0 0 320 295" fill="none" xmlns="http://www.w3.org/2000/svg">
<path d="M294.241 229.045C297.835 231.114 297.854 234.482 294.26 236.571L197.246 292.943C193.69 295.013 187.876 295.013 184.282 292.943L42.693 211.207C39.0992 209.137 39.0804 205.769 42.6554 203.7L139.67 147.328C143.245 145.239 149.059 145.239 152.652 147.328L294.241 229.082V229.045Z" fill="#E2E2E2"/>
<path d="M317.893 78.5183C317.761 78.3113 317.629 78.1043 317.479 77.9162C317.366 77.7657 317.253 77.6151 317.121 77.4646C317.008 77.3329 316.914 77.22 316.801 77.0883C316.707 76.9942 316.613 76.8813 316.5 76.7872C316.406 76.6931 316.312 76.5991 316.218 76.5238C316.124 76.4485 316.03 76.3545 315.936 76.2792C315.842 76.2039 315.766 76.1475 315.672 76.0722C315.578 76.0158 315.503 75.9405 315.409 75.8841C315.315 75.8276 315.24 75.7712 315.146 75.7147C315.089 75.6771 315.033 75.6395 314.976 75.6018L186.201 1.26069C186.201 1.26069 186.145 1.22306 186.107 1.20424C186.013 1.14779 185.938 1.11016 185.843 1.07253C185.749 1.0349 185.674 0.997267 185.58 0.94082C185.486 0.903188 185.411 0.865556 185.317 0.827925C185.279 0.827925 185.241 0.809109 185.204 0.790293C185.204 0.790293 185.185 0.790293 185.166 0.790293C185.128 0.790293 185.091 0.771478 185.053 0.752662C184.959 0.71503 184.865 0.696214 184.79 0.677399C184.696 0.658583 184.602 0.620951 184.508 0.602136C184.413 0.58332 184.319 0.564504 184.225 0.545688C184.225 0.545688 184.225 0.545688 184.206 0.545688C184.112 0.545688 184.018 0.526872 183.943 0.508057C183.83 0.508057 183.717 0.508057 183.623 0.508057C183.51 0.508057 183.397 0.508057 183.285 0.508057C183.153 0.508057 183.021 0.526872 182.889 0.564504C182.72 0.602136 182.551 0.639767 182.381 0.696214L170.847 4.32766C171.13 4.23358 171.431 4.17713 171.75 4.15832C172.051 4.1395 172.371 4.15832 172.691 4.19595C173.011 4.23358 173.331 4.32766 173.651 4.44055C173.651 4.44055 173.67 4.44055 173.688 4.44055C174.008 4.55345 174.347 4.70398 174.667 4.89213L303.442 79.2333C303.442 79.2333 303.555 79.3085 303.611 79.3462C303.706 79.4026 303.781 79.4591 303.875 79.5155C303.969 79.572 304.044 79.6472 304.138 79.7037C304.232 79.7789 304.308 79.8354 304.402 79.9106C304.496 79.9859 304.59 80.0612 304.684 80.1553C304.778 80.2493 304.872 80.3246 304.966 80.4187C305.06 80.5127 305.154 80.6256 305.267 80.7197C305.38 80.8326 305.493 80.9643 305.587 81.096C305.719 81.2466 305.832 81.3971 305.945 81.5476C306.095 81.7358 306.227 81.9428 306.359 82.1497C306.773 82.7895 307.111 83.5045 307.375 84.2571L318.946 80.7385C318.664 79.9671 318.307 79.2145 317.874 78.5371L317.893 78.5183Z" fill="#F1EEEA"/>
<path d="M319.699 84.4264C319.699 84.2947 319.699 84.1818 319.699 84.0501C319.699 83.9184 319.699 83.7867 319.661 83.655C319.661 83.5233 319.624 83.3916 319.624 83.2598C319.605 83.1093 319.586 82.9588 319.548 82.8271C319.53 82.6766 319.492 82.5072 319.454 82.3567C319.417 82.1685 319.379 81.9992 319.323 81.811C319.266 81.5852 319.191 81.3594 319.116 81.1337C319.078 81.0019 319.003 80.8702 318.965 80.7385L307.393 84.2571C307.45 84.4264 307.544 84.5958 307.6 84.7651C307.676 84.9909 307.732 85.2167 307.807 85.4425C307.864 85.6118 307.901 85.8 307.939 85.9881C307.977 86.1387 307.995 86.308 308.033 86.4585C308.052 86.6091 308.09 86.7596 308.108 86.8913C308.108 87.023 308.146 87.1547 308.146 87.2864C308.146 87.4181 308.165 87.5498 308.184 87.6815C308.184 87.8133 308.184 87.9262 308.184 88.0579C308.184 88.1708 308.184 88.3025 308.184 88.4154C308.184 88.5283 308.184 88.6412 308.184 88.7729C308.184 88.8858 308.184 88.9987 308.165 89.1115C308.165 89.2244 308.165 89.3373 308.127 89.4502C308.127 89.5631 308.108 89.676 308.09 89.7889C308.09 89.883 308.052 89.9959 308.033 90.09L287.9 201.047C287.787 201.649 287.618 202.194 287.411 202.702C287.204 203.173 286.959 203.606 286.677 203.982C286.658 204.02 286.64 204.038 286.602 204.076C286.395 204.339 286.15 204.546 285.906 204.753C285.793 204.847 285.699 204.96 285.586 205.036C285.228 205.28 284.852 205.487 284.457 205.6L295.991 201.969C296.386 201.837 296.762 201.649 297.12 201.404C297.233 201.329 297.327 201.216 297.44 201.122C297.628 200.953 297.835 200.821 298.004 200.614C298.042 200.557 298.08 200.501 298.136 200.445C298.155 200.407 298.174 200.388 298.211 200.35C298.268 200.275 298.324 200.219 298.362 200.143C298.437 200.012 298.531 199.899 298.606 199.748C298.663 199.635 298.738 199.523 298.795 199.391C298.851 199.278 298.889 199.184 298.945 199.071C298.983 198.958 299.039 198.864 299.077 198.751C299.114 198.638 299.152 198.544 299.19 198.431C299.227 198.318 299.246 198.224 299.284 198.111C299.303 197.998 299.34 197.904 299.359 197.791C299.378 197.679 299.397 197.566 299.434 197.472C299.434 197.472 299.434 197.472 299.434 197.453L319.567 86.4961C319.567 86.4021 319.605 86.2892 319.624 86.1951C319.624 86.0822 319.661 85.9693 319.661 85.8564C319.661 85.7435 319.68 85.6306 319.699 85.5177C319.699 85.4048 319.699 85.2919 319.718 85.1791C319.718 85.0662 319.718 84.9533 319.718 84.8215C319.718 84.7087 319.718 84.5769 319.718 84.464L319.699 84.4264Z" fill="#8C8679"/>
<path d="M284.57 205.845L284.401 205.299C284.758 205.186 285.116 204.998 285.454 204.772C285.511 204.735 285.567 204.678 285.624 204.622C285.661 204.584 285.718 204.528 285.755 204.49C285.981 204.302 286.207 204.095 286.395 203.85L286.452 203.775C286.715 203.417 286.96 203.022 287.129 202.608V202.552C287.355 202.063 287.524 201.536 287.618 200.953L307.845 89.375C307.845 89.281 307.864 89.1681 307.883 89.0552C307.883 88.9423 307.883 88.8294 307.883 88.7353C307.883 88.6224 307.883 88.5095 307.883 88.3966C307.883 88.2837 307.883 88.1708 307.883 88.0579C307.883 87.945 307.883 87.8133 307.883 87.7004C307.883 87.5687 307.883 87.4558 307.845 87.3241C307.845 87.1924 307.807 87.0607 307.807 86.929C307.789 86.7973 307.77 86.6467 307.732 86.4962C307.713 86.3457 307.676 86.1764 307.638 86.0258C307.6 85.8565 307.563 85.6683 307.506 85.499C307.45 85.2732 307.375 85.0474 307.299 84.8404C307.262 84.7464 307.224 84.6335 307.186 84.5394L307.111 84.3324C306.81 83.5421 306.472 82.8648 306.114 82.2815C305.982 82.0745 305.851 81.8864 305.7 81.6982C305.587 81.5477 305.474 81.3971 305.361 81.2654C305.267 81.1337 305.154 81.0208 305.041 80.9079C304.947 80.8139 304.853 80.7198 304.759 80.6257C304.665 80.5316 304.571 80.4564 304.477 80.3623C304.383 80.287 304.289 80.2118 304.214 80.1365C304.138 80.0612 304.044 80.0048 303.969 79.9483C303.894 79.8919 303.8 79.8166 303.706 79.7602C303.63 79.7037 303.536 79.6473 303.461 79.5908L303.329 79.5156L174.535 5.13679C174.234 4.96745 173.914 4.81692 173.594 4.70403C173.256 4.59113 172.955 4.51587 172.654 4.45942C172.353 4.42179 172.07 4.40297 171.807 4.42179H171.769C171.487 4.4406 171.205 4.49705 170.941 4.59113L170.772 4.06429L182.287 0.451659C182.457 0.395212 182.645 0.35758 182.814 0.319949C182.965 0.301133 183.096 0.282317 183.247 0.263501C183.492 0.244686 183.717 0.244686 183.962 0.263501C184.056 0.263501 184.15 0.263501 184.244 0.301133C184.376 0.301133 184.47 0.338765 184.583 0.35758C184.677 0.376396 184.79 0.395212 184.884 0.432844C184.978 0.451659 185.072 0.489291 185.166 0.508107L185.336 0.564554C185.336 0.564554 185.411 0.58337 185.448 0.602186C185.542 0.639817 185.618 0.677449 185.712 0.71508C185.806 0.752712 185.9 0.790343 185.994 0.846791C186.088 0.884422 186.163 0.94087 186.257 0.997317L186.352 1.05376L315.108 75.3949C315.108 75.3949 315.24 75.4702 315.296 75.5078C315.39 75.5643 315.484 75.6207 315.56 75.6771C315.654 75.7336 315.748 75.8089 315.842 75.8653C315.936 75.9406 316.03 75.997 316.105 76.0723C316.199 76.1475 316.293 76.2416 316.387 76.3169C316.481 76.411 316.594 76.505 316.688 76.5991C316.783 76.6932 316.895 76.8061 316.99 76.919C317.102 77.0319 317.215 77.1636 317.328 77.2953C317.46 77.4458 317.573 77.5964 317.705 77.7657C317.855 77.9727 318.006 78.1796 318.137 78.3866C318.551 79.0264 318.909 79.779 319.229 80.6445C319.247 80.701 319.266 80.7574 319.304 80.8139C319.341 80.8891 319.379 80.9832 319.398 81.0585C319.473 81.2842 319.548 81.5289 319.605 81.7547C319.661 81.9428 319.699 82.131 319.737 82.3003C319.774 82.4696 319.812 82.6202 319.831 82.7895C319.85 82.94 319.887 83.0906 319.906 83.2411C319.906 83.3728 319.944 83.5233 319.962 83.655C319.962 83.7868 319.981 83.9185 320 84.0502C320 84.1819 320 84.2948 320 84.4265C320 84.5394 320 84.6711 320 84.784C320 84.8969 320 85.0286 320 85.1415V85.499C319.962 85.6307 319.962 85.7436 319.944 85.8565C319.944 85.9694 319.925 86.0823 319.906 86.1952C319.906 86.3081 319.868 86.4021 319.85 86.515L299.717 197.472C299.698 197.603 299.66 197.716 299.641 197.829C299.623 197.942 299.585 198.055 299.566 198.168L299.472 198.507C299.434 198.619 299.397 198.732 299.359 198.845C299.322 198.958 299.284 199.071 299.227 199.184L299.19 199.259C299.152 199.353 299.096 199.447 299.058 199.541C299.002 199.673 298.926 199.786 298.87 199.918C298.795 200.049 298.701 200.2 298.625 200.313C298.588 200.369 298.55 200.407 298.512 200.463L298.343 200.689C298.343 200.689 298.287 200.764 298.268 200.802C298.117 200.971 297.967 201.103 297.816 201.235L297.685 201.348C297.685 201.348 297.609 201.423 297.572 201.461C297.496 201.536 297.421 201.611 297.346 201.668C296.951 201.931 296.556 202.138 296.142 202.27L284.626 205.901L284.57 205.845ZM287.712 202.74V202.797C287.486 203.267 287.223 203.719 286.922 204.132L286.847 204.227C286.715 204.396 286.564 204.546 286.414 204.678L295.935 201.686C296.292 201.574 296.65 201.404 296.988 201.16C297.045 201.122 297.101 201.066 297.139 201.009C297.177 200.971 297.233 200.915 297.289 200.877L297.44 200.746C297.572 200.633 297.703 200.52 297.816 200.388L298.061 200.068C298.061 200.068 298.117 199.993 298.136 199.955C298.211 199.842 298.287 199.711 298.362 199.579C298.418 199.466 298.475 199.353 298.531 199.24C298.588 199.146 298.625 199.033 298.682 198.939V198.883C298.757 198.789 298.776 198.695 298.813 198.601C298.851 198.507 298.889 198.394 298.926 198.281L299.02 197.961C299.039 197.867 299.077 197.754 299.096 197.66C299.115 197.566 299.133 197.453 299.152 197.34L319.285 86.3645C319.304 86.2704 319.323 86.1575 319.341 86.0635C319.341 85.9506 319.379 85.8565 319.379 85.7436C319.379 85.6307 319.398 85.5366 319.417 85.4237V85.085C319.436 84.9721 319.436 84.8592 319.436 84.7464C319.436 84.6335 319.436 84.5206 319.436 84.4077C319.436 84.2948 319.436 84.1631 319.436 84.0502C319.436 83.9185 319.436 83.8056 319.398 83.6739C319.398 83.5421 319.379 83.4104 319.36 83.2787C319.341 83.1282 319.323 82.9965 319.285 82.846C319.266 82.6954 319.229 82.5261 319.191 82.3756C319.153 82.2062 319.116 82.0181 319.059 81.8487C319.003 81.6229 318.928 81.3971 318.871 81.1902C318.852 81.1149 318.815 81.0585 318.796 80.9832C318.777 80.9268 318.739 80.8515 318.721 80.795C318.401 79.9671 318.062 79.2522 317.686 78.65C317.554 78.4431 317.422 78.2549 317.272 78.0667C317.159 77.9162 317.046 77.7657 316.933 77.634C316.839 77.5211 316.726 77.3894 316.613 77.2765C316.519 77.1824 316.425 77.0883 316.331 76.9754C316.237 76.8814 316.143 76.8061 316.049 76.712C315.955 76.6368 315.879 76.5615 315.785 76.4862C315.71 76.411 315.616 76.3545 315.541 76.2981C315.447 76.2416 315.371 76.1664 315.277 76.1099C315.202 76.0535 315.108 75.997 315.033 75.9594C314.976 75.9218 314.92 75.8841 314.863 75.8465L185.975 1.46771C185.975 1.46771 185.806 1.37363 185.731 1.336C185.655 1.29837 185.561 1.26074 185.486 1.22311C185.411 1.18547 185.317 1.14784 185.241 1.12903L185.034 1.05376C184.903 1.01613 184.809 0.978501 184.733 0.959685C184.639 0.94087 184.545 0.922054 184.47 0.903238C184.376 0.903238 184.301 0.865606 184.207 0.865606C184.075 0.865606 184 0.846791 183.906 0.827975C183.699 0.827975 183.473 0.827975 183.285 0.827975C183.153 0.827975 183.021 0.846791 182.908 0.884422C182.758 0.922054 182.588 0.959685 182.438 0.997317L172.974 3.97021C173.237 4.02666 173.482 4.0831 173.745 4.17718C174.14 4.30889 174.479 4.47824 174.817 4.66639L303.781 79.1204C303.781 79.1204 303.95 79.2333 304.044 79.2898C304.138 79.3462 304.232 79.4215 304.327 79.4779C304.421 79.5532 304.515 79.6285 304.609 79.6849C304.703 79.7602 304.797 79.8543 304.891 79.9295C304.985 80.0236 305.098 80.1177 305.192 80.2117C305.286 80.3058 305.399 80.4187 305.493 80.5128C305.606 80.6445 305.719 80.7574 305.832 80.8891C305.963 81.0396 306.076 81.1902 306.208 81.3595C306.359 81.5665 306.509 81.7735 306.641 81.9804C307.036 82.6014 307.375 83.2975 307.695 84.1254L307.77 84.3136C307.807 84.4265 307.864 84.5394 307.902 84.6523C307.977 84.8781 308.052 85.1227 308.108 85.3485C308.165 85.5366 308.203 85.706 308.24 85.8941C308.278 86.0635 308.315 86.214 308.334 86.3833C308.353 86.5339 308.391 86.6844 308.41 86.8349C308.41 86.9666 308.447 87.1171 308.466 87.2489C308.466 87.3806 308.485 87.5123 308.504 87.644C308.504 87.7757 308.504 87.9074 308.504 88.0391C308.504 88.152 308.504 88.2837 308.504 88.3966C308.504 88.5283 308.504 88.6412 308.504 88.7541C308.504 88.867 308.504 88.9799 308.485 89.0928C308.485 89.2057 308.485 89.3186 308.447 89.4315L308.353 90.09L288.22 201.047C288.107 201.649 287.957 202.213 287.731 202.702L287.712 202.74Z" fill="black"/>
<path d="M303.442 79.2334C306.716 81.1338 308.767 85.9694 308.033 90.0712L287.9 201.028C287.166 205.13 283.911 206.898 280.637 205.017L151.862 130.676C148.588 128.775 146.537 123.94 147.271 119.838L167.404 8.88115C168.138 4.77931 171.393 3.01063 174.667 4.8922L303.442 79.2334Z" fill="#E2DED5"/>
<path d="M283.234 206.052C282.331 206.052 281.39 205.788 280.487 205.261L151.712 130.92C148.344 128.982 146.236 123.996 146.989 119.8L167.122 8.8435C167.517 6.66087 168.646 5.00508 170.207 4.27127C171.619 3.61272 173.237 3.76324 174.799 4.6664L303.574 79.0076C306.942 80.9456 309.049 85.9318 308.297 90.1277L288.164 201.084C287.768 203.267 286.64 204.923 285.078 205.657C284.495 205.92 283.874 206.052 283.234 206.052ZM172.07 4.42179C171.506 4.42179 170.979 4.53469 170.471 4.77929C169.06 5.43785 168.063 6.94311 167.686 8.93758L147.553 119.894C146.838 123.864 148.833 128.606 151.994 130.431L280.769 204.772C282.161 205.581 283.61 205.713 284.852 205.149C286.263 204.49 287.26 202.985 287.637 200.99L307.77 90.0336C308.485 86.0635 306.49 81.3219 303.329 79.4968L174.535 5.13679C173.707 4.6664 172.861 4.42179 172.07 4.42179Z" fill="black"/>
<path d="M155.004 117.486L172.522 19.2112C172.992 16.5394 175.984 15.1658 178.317 16.5206L295.916 84.8595C298.738 86.4965 300.243 89.7328 299.679 92.9691L282.161 191.244C281.691 193.916 278.699 195.289 276.366 193.935L158.768 125.596C155.945 123.959 154.44 120.722 155.004 117.486Z" fill="#8C8679"/>
<path d="M278.304 194.744C277.589 194.744 276.855 194.555 276.216 194.179L158.617 125.84C155.701 124.147 154.139 120.76 154.722 117.448L172.24 19.1735C172.484 17.8187 173.331 16.6898 174.592 16.1253C175.852 15.542 177.263 15.6173 178.449 16.2946L296.047 84.6336C298.964 86.327 300.526 89.7138 299.942 93.0254L282.425 191.3C282.18 192.655 281.334 193.784 280.073 194.348C279.508 194.612 278.906 194.744 278.304 194.744ZM155.268 117.542C154.722 120.628 156.171 123.77 158.88 125.351L276.479 193.69C277.514 194.292 278.737 194.348 279.809 193.84C280.901 193.332 281.635 192.373 281.842 191.187L299.359 92.9125C299.905 89.8267 298.456 86.6845 295.746 85.104L178.167 16.765C177.132 16.1629 175.909 16.1065 174.836 16.6145C173.745 17.1225 173.011 18.0821 172.804 19.2675L155.287 117.542H155.268Z" fill="black"/>
<path d="M160.047 119.405L177.997 16.6334L295.69 85.1229C298.531 86.7786 300.018 90.015 299.434 93.2513L282.086 189.908L160.028 119.405H160.047Z" fill="#EDEEF2"/>
<path d="M169.605 108.511L180.726 35.6561C181.328 31.7236 185.712 29.6163 189.155 31.6296L298.795 95.5844C296.217 111.183 283.798 180.293 283.798 180.293L174.761 118.803C171.017 116.846 168.928 112.688 169.605 108.511Z" fill="white"/>
<path d="M183.153 77.4835L184.489 78.255L184.903 85.3861L183.792 84.7464L183.717 83.1471L181.948 82.1122L181.29 83.2976L180.18 82.6579L183.153 77.4835ZM182.419 81.2467L183.661 81.9617L183.548 79.2898H183.51L182.419 81.2467Z" fill="#323A60"/>
<path d="M189.23 82.9213C189.399 83.2224 189.55 83.5987 189.606 84.0315C189.663 84.4642 189.644 84.9346 189.531 85.4615C189.418 85.9883 189.268 86.3646 189.061 86.6469C188.854 86.9291 188.628 87.0796 188.365 87.1549C188.101 87.1925 187.838 87.1361 187.556 86.9667C187.349 86.8538 187.198 86.7221 187.085 86.5528C186.953 86.4023 186.878 86.2329 186.803 86.0636L186.671 85.5555H186.634L186.126 88.0204L185.109 87.4371L186.427 81.0774L187.424 81.6607L187.273 82.4321H187.33L187.593 82.1875C187.706 82.0934 187.857 82.0558 187.988 82.0558C188.139 82.0558 188.327 82.0934 188.534 82.2252C188.797 82.3757 189.023 82.6203 189.23 82.9213ZM188.252 85.5367C188.365 85.3674 188.421 85.1228 188.478 84.8782C188.534 84.6148 188.553 84.3513 188.534 84.1255C188.515 83.8998 188.459 83.674 188.365 83.5046C188.289 83.3165 188.158 83.1848 187.988 83.0719C187.819 82.959 187.668 82.959 187.537 82.9966C187.386 83.0531 187.273 83.1471 187.179 83.3165C187.066 83.4858 187.01 83.7116 186.953 83.9938C186.897 84.2573 186.878 84.5207 186.897 84.7465C186.897 84.9911 186.972 85.198 187.066 85.3862C187.16 85.5555 187.292 85.7061 187.461 85.8002C187.631 85.8942 187.781 85.913 187.913 85.8754C188.045 85.819 188.176 85.7061 188.271 85.5367" fill="#323A60"/>
<path d="M193.483 85.3862C193.671 85.7061 193.802 86.0636 193.859 86.4963C193.934 86.9291 193.897 87.3995 193.784 87.9263C193.671 88.4532 193.52 88.8483 193.313 89.1117C193.106 89.3939 192.88 89.5445 192.598 89.6197C192.335 89.6574 192.071 89.6197 191.789 89.4316C191.601 89.3187 191.432 89.187 191.319 89.0176C191.206 88.8671 191.112 88.6978 191.037 88.5284L190.924 88.0204H190.886L190.378 90.4853L189.362 89.902L190.679 83.5422L191.695 84.1255L191.545 84.897H191.601L191.864 84.6524C191.977 84.5583 192.109 84.5207 192.26 84.5207C192.41 84.5207 192.579 84.5583 192.805 84.69C193.069 84.8405 193.294 85.0663 193.483 85.3674V85.3862ZM192.504 88.0016C192.617 87.8322 192.692 87.6064 192.749 87.343C192.805 87.0796 192.824 86.8162 192.805 86.5716C192.786 86.3458 192.73 86.12 192.655 85.9507C192.561 85.7625 192.429 85.612 192.26 85.5179C192.109 85.4238 191.94 85.405 191.808 85.4426C191.676 85.4991 191.563 85.612 191.45 85.7625C191.338 85.9318 191.262 86.1388 191.206 86.4399C191.149 86.7033 191.131 86.9667 191.149 87.2113C191.149 87.4559 191.225 87.6629 191.319 87.8511C191.413 88.0204 191.545 88.1709 191.695 88.2462C191.864 88.3403 192.015 88.3591 192.147 88.3214C192.297 88.265 192.41 88.1521 192.504 87.9828" fill="#323A60"/>
<path d="M193.991 90.6357L195.27 84.4641L196.286 85.0662L195.025 91.219L193.991 90.6357Z" fill="#323A60"/>
<path d="M195.816 91.6895L196.775 87.0608L197.791 87.6629L196.851 92.2728L195.816 91.6895Z" fill="#323A60"/>
<path d="M201.366 90.2972C201.479 90.5794 201.555 90.8993 201.592 91.2568C201.611 91.5955 201.592 91.9718 201.517 92.3669L201.442 92.7056L198.939 91.2568C198.902 91.5014 198.883 91.7083 198.92 91.9153C198.958 92.1223 199.033 92.2916 199.127 92.461C199.221 92.6303 199.372 92.762 199.541 92.8561L199.861 92.969L200.143 92.9314L200.35 92.7432L201.272 93.3641C201.159 93.6276 201.028 93.8157 200.821 93.9286C200.633 94.0603 200.407 94.1168 200.162 94.098C199.918 94.098 199.635 93.9851 199.316 93.7969C198.939 93.5899 198.638 93.3077 198.394 92.9502C198.168 92.5927 198.017 92.1976 197.942 91.7648C197.867 91.3132 197.886 90.8616 197.98 90.3724C198.074 89.8832 198.243 89.5257 198.45 89.2435C198.676 88.9612 198.92 88.8107 199.24 88.7731C199.541 88.7166 199.88 88.8107 200.237 89.0177C200.482 89.1494 200.689 89.3376 200.877 89.5634C201.065 89.7703 201.216 90.0337 201.348 90.2972H201.366ZM199.09 90.4853L200.633 91.3697C200.67 91.1815 200.67 90.9934 200.633 90.824L200.444 90.3348C200.35 90.2031 200.237 90.0714 200.068 89.9773C199.918 89.902 199.767 89.8644 199.635 89.8832L199.278 90.0902C199.203 90.2031 199.127 90.316 199.09 90.4853Z" fill="#323A60"/>
<path d="M205.393 90.3158L206.409 90.8991L205.13 97.0519L204.113 96.4686L204.264 95.7348H204.208L203.925 95.9794C203.812 96.0546 203.681 96.0923 203.53 96.0923C203.38 96.0923 203.21 96.0358 203.003 95.9229C202.721 95.7536 202.476 95.5278 202.307 95.2267C202.119 94.9069 201.987 94.5305 201.931 94.0978C201.874 93.665 201.893 93.1946 202.006 92.6866C202.119 92.1786 202.27 91.7458 202.477 91.4824C202.683 91.2002 202.909 91.0496 203.192 90.9932C203.436 90.9556 203.718 90.9932 203.982 91.1625C204.189 91.2942 204.358 91.4259 204.471 91.5953C204.603 91.7458 204.678 91.9152 204.734 92.1033L204.847 92.5925H204.885L205.355 90.297L205.393 90.3158ZM204.377 94.8504C204.471 94.6811 204.565 94.4741 204.622 94.1919C204.678 93.9096 204.697 93.665 204.678 93.4016C204.659 93.1758 204.603 92.9688 204.509 92.7807C204.415 92.6113 204.283 92.4608 204.132 92.3855C203.963 92.2915 203.812 92.2727 203.662 92.3103C203.53 92.3479 203.417 92.4796 203.304 92.6302C203.21 92.7995 203.116 93.0065 203.06 93.2887C203.003 93.5521 202.985 93.8155 203.003 94.0602C203.022 94.2859 203.079 94.5117 203.154 94.6811C203.248 94.8504 203.38 95.0009 203.549 95.095C203.7 95.1891 203.869 95.2079 204.001 95.1703C204.151 95.1138 204.264 95.0198 204.358 94.8316" fill="#323A60"/>
<path d="M197.678 85.4802C197.829 85.5743 197.942 85.706 198.017 85.8753C198.092 86.0823 198.13 86.2517 198.092 86.421C198.055 86.6092 197.961 86.722 197.829 86.7973C197.697 86.8538 197.566 86.8538 197.415 86.7597C197.265 86.6656 197.152 86.5339 197.076 86.3645C197.001 86.1576 196.963 85.9882 197.001 85.8001C197.039 85.6307 197.133 85.5178 197.265 85.4426C197.396 85.3861 197.528 85.3861 197.678 85.4802Z" fill="#323A60"/>
<path d="M181.591 94.1919C181.93 94.4553 182.193 94.7752 182.325 95.1327C182.457 95.4902 182.475 95.8665 182.4 96.2616C182.325 96.6003 182.174 96.8637 181.967 97.0519C181.76 97.2401 181.478 97.3153 181.158 97.2965C180.857 97.2965 180.5 97.1836 180.142 96.9766C179.785 96.7697 179.484 96.5062 179.239 96.1864C178.994 95.8665 178.825 95.5466 178.712 95.1703C178.618 94.8128 178.599 94.4365 178.675 94.079L179.709 94.6811L179.747 95.1515C179.804 95.3209 179.879 95.4526 179.992 95.5843C180.105 95.7348 180.236 95.8477 180.387 95.923C180.556 96.017 180.688 96.0547 180.838 96.0547C180.97 96.0547 181.083 96.017 181.196 95.923C181.29 95.8477 181.365 95.7348 181.384 95.5655C181.403 95.3961 181.384 95.2268 181.346 95.0574C181.309 94.8881 181.234 94.7376 181.102 94.587C180.97 94.4365 180.82 94.3048 180.65 94.2107L180.199 93.9473L180.387 92.9877L180.838 93.2511C180.989 93.3452 181.139 93.364 181.271 93.3828C181.403 93.3828 181.516 93.3452 181.61 93.2699C181.704 93.1759 181.76 93.063 181.798 92.8936C181.836 92.7431 181.836 92.5926 181.798 92.442L181.61 92.0281C181.535 91.8964 181.422 91.8023 181.271 91.7082C181.121 91.6141 181.008 91.5765 180.857 91.5953L180.519 91.6894C180.424 91.7647 180.349 91.8776 180.312 92.0281L179.333 91.4636C179.408 91.1249 179.559 90.8427 179.766 90.6734C179.973 90.504 180.218 90.3911 180.519 90.3911C180.82 90.3911 181.139 90.504 181.459 90.6922C181.817 90.8991 182.08 91.1438 182.306 91.426C182.532 91.7459 182.682 92.0469 182.758 92.4044C182.852 92.7431 182.871 93.0818 182.795 93.4016C182.72 93.7215 182.588 93.9849 182.363 94.1166C182.137 94.2484 181.892 94.2672 181.591 94.1731V94.2107V94.1919Z" fill="#7067AB"/>
<path d="M184.451 98.1431V98.1807L186.502 99.3661L186.276 100.42L182.776 98.4065L182.965 97.4657L185.128 96.4497C185.317 96.3556 185.486 96.2615 185.599 96.1674L185.919 95.8664C186.013 95.7723 186.069 95.6218 186.088 95.4524C186.126 95.2643 186.126 95.0949 186.088 94.9256L185.881 94.474C185.768 94.3423 185.655 94.2294 185.505 94.1353C185.354 94.0413 185.223 94.0224 185.091 94.0413L184.752 94.2106C184.658 94.3235 184.602 94.474 184.564 94.681L183.586 94.1165C183.661 93.7026 183.811 93.4015 184.018 93.1946C184.225 92.9688 184.47 92.8747 184.771 92.8559C185.072 92.8371 185.392 92.9311 185.731 93.1381C186.069 93.3451 186.37 93.5897 186.596 93.8907C186.822 94.2106 186.991 94.5305 187.066 94.888C187.161 95.2455 187.161 95.603 187.085 95.9605C187.048 96.1863 186.954 96.3932 186.841 96.5814C186.728 96.7695 186.54 96.9389 186.295 97.1082C186.05 97.2776 185.731 97.4657 185.317 97.6539L184.413 98.1243L184.451 98.1431Z" fill="#7067AB"/>
<path d="M187.386 100.514L187.462 100.175L188.308 100.664L188.214 100.984C188.139 101.248 188.045 101.473 187.932 101.718C187.819 101.944 187.706 102.151 187.612 102.32C187.499 102.49 187.405 102.621 187.349 102.753L186.69 102.377C186.747 102.264 186.803 102.132 186.897 101.925C186.991 101.737 187.066 101.511 187.16 101.285C187.255 101.041 187.33 100.796 187.405 100.533L187.386 100.514Z" fill="#7067AB"/>
<path d="M193.05 97.7668C193.294 98.1807 193.445 98.6699 193.52 99.2344C193.577 99.7989 193.539 100.42 193.389 101.097C193.257 101.756 193.05 102.32 192.805 102.697C192.542 103.092 192.241 103.317 191.883 103.412C191.545 103.506 191.149 103.412 190.754 103.186C190.359 102.96 190.021 102.602 189.776 102.188C189.531 101.756 189.381 101.267 189.324 100.683C189.268 100.1 189.306 99.479 189.437 98.8205C189.569 98.1619 189.776 97.6163 190.039 97.24C190.303 96.8636 190.604 96.6378 190.943 96.5626C191.281 96.4685 191.676 96.5626 192.071 96.7884C192.467 97.0142 192.805 97.3528 193.05 97.7856V97.7668ZM191.752 101.925C191.996 101.68 192.184 101.191 192.335 100.476C192.429 100.006 192.467 99.5919 192.467 99.2344C192.467 98.8957 192.391 98.5947 192.278 98.3501C192.184 98.1243 192.034 97.955 191.846 97.8421C191.563 97.6915 191.3 97.7103 191.074 97.9738C190.83 98.2372 190.641 98.7076 190.491 99.4226C190.397 99.893 190.34 100.307 190.359 100.664C190.359 101.022 190.434 101.342 190.529 101.568C190.641 101.793 190.773 101.982 190.98 102.094C191.262 102.245 191.526 102.207 191.77 101.944" fill="#7067AB"/>
<path d="M197.697 100.458C197.942 100.872 198.092 101.361 198.168 101.925C198.224 102.49 198.168 103.092 198.036 103.788C197.904 104.484 197.697 105.011 197.434 105.369C197.171 105.764 196.869 105.989 196.531 106.084C196.173 106.159 195.797 106.084 195.402 105.858C195.007 105.632 194.668 105.274 194.405 104.86C194.179 104.428 194.009 103.939 193.953 103.374C193.897 102.791 193.934 102.17 194.066 101.511C194.198 100.853 194.405 100.307 194.668 99.9307C194.913 99.5544 195.232 99.3286 195.571 99.2534C195.91 99.1593 196.305 99.2534 196.7 99.4792C197.095 99.705 197.434 100.044 197.679 100.476L197.697 100.458ZM196.399 104.616C196.644 104.371 196.813 103.882 196.964 103.167C197.058 102.697 197.114 102.283 197.095 101.925C197.095 101.587 197.02 101.285 196.907 101.041C196.813 100.815 196.662 100.646 196.474 100.533C196.192 100.382 195.929 100.401 195.703 100.665C195.458 100.928 195.27 101.398 195.12 102.113C195.026 102.584 194.969 102.998 194.988 103.355C194.988 103.713 195.063 104.033 195.157 104.258C195.27 104.484 195.402 104.672 195.609 104.785C195.891 104.936 196.154 104.898 196.399 104.635" fill="#7067AB"/>
<path d="M202.778 104.597C202.853 105.161 202.796 105.782 202.665 106.46C202.533 107.137 202.326 107.664 202.063 108.04C201.799 108.435 201.498 108.661 201.159 108.755C200.802 108.831 200.426 108.755 200.012 108.511C199.598 108.266 199.278 107.946 199.033 107.513C198.808 107.081 198.638 106.591 198.582 106.008C198.525 105.425 198.582 104.823 198.713 104.145C198.845 103.468 199.052 102.941 199.316 102.565C199.579 102.189 199.88 101.963 200.219 101.887C200.576 101.812 200.953 101.887 201.348 102.113C201.743 102.339 202.1 102.678 202.326 103.111C202.571 103.524 202.721 104.014 202.796 104.578L202.778 104.597ZM201.028 107.288C201.272 107.043 201.461 106.554 201.611 105.839C201.705 105.368 201.762 104.954 201.743 104.597C201.724 104.239 201.668 103.938 201.555 103.713C201.442 103.487 201.31 103.317 201.103 103.205C200.821 103.054 200.576 103.092 200.332 103.336C200.087 103.6 199.899 104.07 199.748 104.785C199.654 105.256 199.598 105.669 199.617 106.027C199.635 106.384 199.673 106.686 199.786 106.93C199.88 107.156 200.031 107.344 200.219 107.457C200.501 107.626 200.764 107.57 201.009 107.306" fill="#7067AB"/>
<path d="M199.466 57.6518C203.925 60.2295 206.597 66.8715 205.431 72.4974C204.264 78.1233 199.711 80.5694 195.251 78.0105C190.792 75.4515 188.12 68.7907 189.287 63.1836C190.453 57.5765 195.007 55.0928 199.466 57.6706V57.6518ZM201.517 66.3635C201.743 66.1565 201.762 65.7238 201.555 65.3851C201.479 65.2722 201.404 65.1781 201.31 65.1216C201.141 65.0276 200.971 65.0276 200.821 65.1593L195.684 70.0137L194.518 67.1161C194.442 66.928 194.329 66.7962 194.198 66.721C194.066 66.6457 193.934 66.6269 193.803 66.721C193.558 66.8527 193.483 67.2666 193.614 67.6053L195.101 71.312C195.176 71.4814 195.289 71.6319 195.402 71.7072C195.421 71.7072 195.44 71.726 195.458 71.7448C195.609 71.8201 195.778 71.7824 195.891 71.6884L201.498 66.4011" fill="#28C916"/>
<path d="M221.273 99.799C221.499 100.119 221.65 100.495 221.725 100.871C221.8 101.267 221.782 101.662 221.706 102.076C221.631 102.49 221.48 102.81 221.273 103.054C221.067 103.28 220.822 103.393 220.502 103.43C220.182 103.468 219.862 103.355 219.486 103.129L218.62 102.621L218.207 104.616L217.153 104.014L218.432 97.861L220.37 98.9711C220.747 99.1781 221.029 99.4603 221.255 99.799H221.273ZM220.427 101.944C220.54 101.812 220.615 101.662 220.653 101.455C220.69 101.248 220.69 101.06 220.653 100.871C220.634 100.665 220.558 100.495 220.446 100.345C220.333 100.175 220.182 100.044 219.975 99.9307L219.279 99.5356L218.846 101.586L219.542 101.982C219.749 102.095 219.919 102.151 220.069 102.151C220.22 102.151 220.333 102.076 220.427 101.963" fill="#323A60"/>
<path d="M225.168 104.033C225.281 104.315 225.357 104.635 225.375 104.973C225.413 105.312 225.375 105.688 225.3 106.083L225.225 106.422L222.722 104.973C222.685 105.218 222.666 105.425 222.722 105.632C222.741 105.839 222.816 106.008 222.929 106.178C223.023 106.347 223.174 106.46 223.324 106.573L223.644 106.686L223.927 106.648L224.134 106.46L225.056 107.081C224.961 107.344 224.811 107.532 224.623 107.664C224.435 107.796 224.209 107.852 223.964 107.833C223.701 107.833 223.419 107.702 223.118 107.532C222.741 107.325 222.421 107.024 222.196 106.686C221.951 106.328 221.819 105.933 221.744 105.5C221.669 105.049 221.688 104.578 221.782 104.089C221.876 103.6 222.045 103.242 222.271 102.96C222.497 102.678 222.741 102.527 223.061 102.49C223.381 102.433 223.72 102.527 224.077 102.734C224.322 102.866 224.529 103.054 224.717 103.28C224.905 103.487 225.056 103.75 225.187 104.014L225.168 104.033ZM222.892 104.202L224.435 105.086C224.472 104.898 224.491 104.729 224.453 104.541L224.246 104.051C224.152 103.92 224.039 103.788 223.889 103.713C223.738 103.619 223.588 103.6 223.456 103.619L223.099 103.826C223.005 103.92 222.948 104.051 222.892 104.221" fill="#323A60"/>
<path d="M229.195 105.952C229.364 106.196 229.458 106.479 229.515 106.817C229.571 107.137 229.552 107.476 229.477 107.833L228.875 110.769L227.859 110.185L228.424 107.476C228.48 107.194 228.461 106.949 228.386 106.704C228.311 106.497 228.16 106.309 227.953 106.178C227.821 106.102 227.69 106.083 227.577 106.083L227.276 106.272C227.182 106.366 227.106 106.535 227.069 106.723L226.523 109.395L225.507 108.812L226.467 104.202L227.426 104.748L227.257 105.557H227.313C227.445 105.368 227.633 105.218 227.859 105.18C228.085 105.124 228.329 105.18 228.612 105.35C228.856 105.5 229.082 105.688 229.233 105.952H229.195Z" fill="#323A60"/>
<path d="M232.902 108.793L233.372 106.479L234.388 107.062L233.109 113.215L232.093 112.631L232.243 111.897H232.205L231.923 112.161C231.81 112.217 231.679 112.274 231.528 112.274C231.359 112.274 231.189 112.217 231.001 112.104C230.719 111.954 230.493 111.709 230.305 111.408C230.117 111.088 229.985 110.712 229.929 110.279C229.872 109.847 229.891 109.376 230.004 108.868C230.117 108.36 230.267 107.927 230.474 107.664C230.681 107.382 230.907 107.231 231.189 107.175C231.453 107.137 231.716 107.175 231.98 107.344C232.187 107.457 232.337 107.607 232.45 107.777C232.582 107.927 232.657 108.097 232.714 108.285L232.845 108.774H232.864L232.902 108.793ZM232.356 111.013C232.45 110.844 232.544 110.637 232.601 110.355C232.657 110.072 232.676 109.828 232.657 109.564C232.638 109.339 232.582 109.132 232.488 108.943C232.394 108.774 232.262 108.624 232.111 108.548C231.942 108.454 231.792 108.435 231.641 108.473C231.509 108.511 231.396 108.642 231.284 108.793C231.189 108.962 231.095 109.169 231.039 109.451C230.982 109.715 230.964 109.978 230.982 110.223C231.001 110.449 231.058 110.674 231.133 110.844C231.227 111.013 231.359 111.164 231.528 111.258C231.679 111.352 231.848 111.371 231.98 111.333C232.13 111.277 232.243 111.182 232.337 110.994" fill="#323A60"/>
<path d="M233.955 113.704L234.915 109.075L235.931 109.677L234.971 114.287L233.955 113.704Z" fill="#323A60"/>
<path d="M239.506 111.898C239.675 112.142 239.769 112.425 239.826 112.763C239.864 113.083 239.864 113.422 239.788 113.779L239.186 116.715L238.17 116.131L238.735 113.422C238.791 113.14 238.772 112.895 238.697 112.65C238.603 112.425 238.471 112.255 238.264 112.123C238.114 112.048 237.982 112.011 237.869 112.029L237.568 112.218C237.474 112.312 237.417 112.481 237.38 112.688L236.834 115.36L235.818 114.776L236.778 110.167L237.756 110.731L237.587 111.54H237.624C237.756 111.333 237.944 111.201 238.17 111.164C238.396 111.107 238.659 111.164 238.923 111.333C239.186 111.503 239.393 111.672 239.544 111.935L239.506 111.898Z" fill="#323A60"/>
<path d="M243.382 113.967L244.398 114.551L243.439 119.217C243.363 119.612 243.213 119.894 243.006 120.082C242.799 120.252 242.535 120.327 242.253 120.308C241.952 120.289 241.632 120.176 241.275 119.969C240.955 119.781 240.673 119.574 240.466 119.311C240.24 119.066 240.089 118.803 239.995 118.539C239.901 118.257 239.864 117.975 239.864 117.73L240.823 118.126L240.898 118.464L241.105 118.803C241.199 118.897 241.312 119.01 241.463 119.085C241.689 119.217 241.896 119.254 242.065 119.198C242.234 119.142 242.347 118.953 242.422 118.634L242.592 117.787H242.535L242.272 118.013C242.159 118.069 242.027 118.107 241.858 118.107C241.707 118.107 241.519 118.031 241.331 117.919C241.049 117.768 240.823 117.542 240.635 117.241C240.447 116.94 240.315 116.601 240.24 116.188C240.165 115.774 240.183 115.322 240.296 114.795C240.409 114.268 240.56 113.873 240.767 113.591C240.974 113.328 241.199 113.158 241.463 113.121C241.726 113.083 241.99 113.139 242.253 113.29C242.46 113.403 242.611 113.553 242.742 113.723C242.874 113.873 242.949 114.043 243.006 114.231L243.119 114.72H243.175L243.326 113.967H243.382ZM242.686 116.921C242.78 116.752 242.855 116.545 242.912 116.282C242.968 116.018 242.987 115.755 242.968 115.529C242.949 115.303 242.893 115.096 242.799 114.908C242.705 114.739 242.573 114.588 242.404 114.494C242.234 114.4 242.084 114.381 241.952 114.438C241.802 114.475 241.689 114.569 241.595 114.758C241.5 114.927 241.425 115.134 241.369 115.397C241.312 115.661 241.294 115.905 241.312 116.131C241.331 116.357 241.388 116.564 241.482 116.733C241.576 116.903 241.707 117.034 241.877 117.128C242.046 117.222 242.178 117.26 242.328 117.222C242.46 117.185 242.592 117.091 242.686 116.94" fill="#323A60"/>
<path d="M235.818 107.495C235.969 107.589 236.082 107.721 236.157 107.89C236.232 108.097 236.27 108.266 236.232 108.436C236.195 108.624 236.1 108.737 235.969 108.812C235.837 108.868 235.705 108.868 235.555 108.774C235.404 108.68 235.291 108.548 235.216 108.379C235.141 108.172 235.103 108.003 235.141 107.815C235.178 107.645 235.273 107.532 235.404 107.457C235.536 107.401 235.668 107.401 235.818 107.495Z" fill="#323A60"/>
<path d="M218.188 117.618V117.655L220.239 118.841L220.013 119.894L216.532 117.881L216.72 116.94L218.884 115.924C219.072 115.83 219.223 115.736 219.354 115.642L219.674 115.341C219.749 115.228 219.825 115.096 219.843 114.927C219.881 114.739 219.881 114.57 219.843 114.4L219.636 113.949C219.542 113.817 219.411 113.704 219.279 113.629C219.147 113.554 218.997 113.516 218.865 113.535L218.526 113.704C218.432 113.817 218.357 113.967 218.319 114.156L217.341 113.591C217.416 113.177 217.567 112.876 217.774 112.669C217.981 112.443 218.225 112.349 218.526 112.33C218.809 112.312 219.128 112.406 219.486 112.613C219.843 112.82 220.126 113.064 220.351 113.365C220.577 113.685 220.747 114.005 220.822 114.363C220.916 114.72 220.916 115.078 220.841 115.435C220.803 115.661 220.709 115.868 220.596 116.056C220.483 116.244 220.295 116.413 220.05 116.583C219.806 116.752 219.486 116.94 219.072 117.128L218.169 117.599L218.188 117.618Z" fill="#7067AB"/>
<path d="M225.206 116.018L224.378 120.045L224.98 120.384L224.773 121.418L224.171 121.08L223.945 122.171L222.948 121.588L223.174 120.496L220.822 119.142L221.029 118.126L223.908 115.247L224.604 115.642L225.206 115.981V116.018ZM223.4 119.48L223.945 116.865H223.908L222.083 118.671V118.709L223.4 119.48Z" fill="#7067AB"/>
<path d="M225.507 122.51L225.582 122.171L226.429 122.66L226.335 122.98C226.26 123.243 226.166 123.469 226.053 123.714C225.94 123.94 225.827 124.147 225.733 124.316C225.62 124.485 225.526 124.617 225.469 124.749L224.811 124.372C224.867 124.259 224.924 124.128 225.018 123.921C225.112 123.733 225.187 123.507 225.281 123.281C225.375 123.036 225.451 122.792 225.526 122.528L225.507 122.51Z" fill="#7067AB"/>
<path d="M231.697 119.763L230.87 123.789L231.49 124.147L231.283 125.182L230.663 124.824L230.437 125.915L229.458 125.351L229.684 124.26L227.332 122.905L227.539 121.889L230.437 119.029L231.133 119.424L231.716 119.763H231.697ZM229.91 123.225L230.456 120.609H230.399L228.574 122.416V122.453L229.891 123.225" fill="#7067AB"/>
<path d="M232.676 121.4L234.087 121.136L235.065 121.701L233.786 127.872L232.77 127.27L233.786 122.34L233.748 122.322L232.45 122.566L232.676 121.4Z" fill="#7067AB"/>
<path d="M239.619 125.859C239.675 126.423 239.638 127.044 239.487 127.722C239.355 128.38 239.148 128.945 238.885 129.302C238.622 129.697 238.339 129.942 237.982 130.017C237.624 130.092 237.248 130.017 236.853 129.791C236.458 129.566 236.119 129.208 235.856 128.794C235.611 128.361 235.461 127.872 235.404 127.308C235.348 126.724 235.385 126.103 235.517 125.445C235.649 124.786 235.856 124.241 236.119 123.864C236.364 123.488 236.684 123.262 237.022 123.187C237.361 123.093 237.756 123.187 238.151 123.413C238.546 123.639 238.885 123.977 239.13 124.41C239.374 124.824 239.525 125.313 239.6 125.878L239.619 125.859ZM237.869 128.549C238.114 128.305 238.302 127.816 238.433 127.101C238.527 126.63 238.584 126.216 238.565 125.859C238.565 125.52 238.49 125.219 238.377 124.974C238.283 124.749 238.132 124.579 237.944 124.466C237.662 124.316 237.399 124.335 237.173 124.598C236.928 124.862 236.74 125.332 236.589 126.047C236.495 126.517 236.439 126.931 236.458 127.289C236.458 127.646 236.533 127.966 236.627 128.192C236.74 128.418 236.872 128.606 237.079 128.719C237.361 128.869 237.624 128.832 237.869 128.568" fill="#7067AB"/>
<path d="M236.966 79.3088C241.425 81.8865 244.097 88.5285 242.93 94.1544C241.764 99.7803 237.21 102.226 232.751 99.6674C228.292 97.1085 225.601 90.4477 226.768 84.8406C227.934 79.2335 232.488 76.7498 236.966 79.3276V79.3088ZM231.227 88.8107C231.791 89.1306 232.356 88.8107 232.506 88.1145C232.657 87.4184 232.337 86.5717 231.754 86.2518C231.171 85.9319 230.625 86.2518 230.474 86.948C230.324 87.6442 230.663 88.4909 231.227 88.8107ZM234.275 90.5606C234.821 90.8805 235.404 90.5606 235.555 89.8644C235.705 89.1682 235.367 88.3215 234.802 88.0017C234.238 87.6818 233.673 88.0017 233.523 88.6978C233.372 89.394 233.711 90.2219 234.275 90.5606ZM237.305 92.3105C237.85 92.6303 238.433 92.3105 238.584 91.6143C238.735 90.9181 238.396 90.0714 237.831 89.7515C237.267 89.4317 236.702 89.7515 236.552 90.4477C236.401 91.1439 236.74 91.9718 237.305 92.3105Z" fill="#727289"/>
<path d="M255.537 126.16L256.798 119.988L260.034 121.87L259.808 122.942L257.607 121.663L257.306 123.131L259.3 124.278L259.074 125.351L257.08 124.203L256.553 126.743L255.537 126.16Z" fill="#323A60"/>
<path d="M262.932 125.595C263.045 125.821 263.139 126.028 263.176 126.292C263.214 126.536 263.214 126.781 263.157 127.063L262.518 130.187L261.558 129.641L261.69 129.001H261.652L261.351 129.227C261.219 129.265 261.088 129.302 260.937 129.283C260.787 129.283 260.617 129.208 260.429 129.095C260.203 128.964 259.996 128.794 259.827 128.587C259.677 128.38 259.564 128.136 259.488 127.891C259.432 127.609 259.432 127.327 259.488 127.026C259.545 126.762 259.62 126.574 259.733 126.442C259.846 126.311 259.978 126.235 260.128 126.198C260.279 126.16 260.448 126.179 260.617 126.235C260.805 126.273 260.975 126.329 261.163 126.405C261.389 126.499 261.577 126.574 261.69 126.63C261.822 126.668 261.934 126.706 262.01 126.668L262.141 126.499C262.179 126.311 262.16 126.122 262.085 125.953C262.028 125.802 261.897 125.671 261.727 125.577C261.558 125.483 261.389 125.426 261.257 125.483C261.125 125.52 261.031 125.614 260.956 125.727L260.034 125.087C260.147 124.824 260.279 124.636 260.467 124.504C260.636 124.391 260.862 124.335 261.107 124.354C261.351 124.372 261.615 124.467 261.916 124.636C262.123 124.749 262.311 124.899 262.48 125.069C262.668 125.238 262.8 125.426 262.932 125.633V125.595ZM261.84 127.947L261.934 127.458H261.784L261.596 127.402L261.389 127.327L261.182 127.251L260.843 127.176L260.599 127.251L260.467 127.515C260.429 127.703 260.467 127.853 260.523 128.004C260.617 128.154 260.73 128.267 260.881 128.361C261.031 128.455 261.182 128.474 261.295 128.474L261.633 128.324C261.633 128.324 261.784 128.098 261.822 127.947" fill="#323A60"/>
<path d="M263.308 130.638L264.249 126.028L265.284 126.611L264.324 131.24L263.308 130.638Z" fill="#323A60"/>
<path d="M265.171 124.429C265.321 124.504 265.434 124.655 265.509 124.824C265.585 125.031 265.603 125.2 265.566 125.37C265.528 125.558 265.453 125.671 265.321 125.746C265.189 125.802 265.039 125.784 264.907 125.708C264.757 125.614 264.625 125.483 264.55 125.294C264.474 125.087 264.456 124.918 264.493 124.73C264.531 124.561 264.606 124.448 264.738 124.372C264.87 124.316 265.02 124.335 265.171 124.429Z" fill="#323A60"/>
<path d="M265.133 131.711L266.413 125.539L267.429 126.122L266.149 132.294L265.133 131.711Z" fill="#323A60"/>
<path d="M270.665 130.299C270.778 130.582 270.872 130.901 270.891 131.259C270.909 131.598 270.891 131.974 270.815 132.369L270.74 132.708L268.238 131.259C268.2 131.504 268.181 131.711 268.219 131.917C268.256 132.124 268.332 132.294 268.426 132.463C268.539 132.633 268.67 132.764 268.84 132.858L269.16 132.971L269.442 132.934L269.649 132.745L270.571 133.366C270.458 133.63 270.326 133.818 270.138 133.95C269.931 134.063 269.724 134.138 269.461 134.119C269.216 134.119 268.934 134.006 268.633 133.837C268.256 133.611 267.937 133.329 267.711 132.971C267.485 132.614 267.334 132.219 267.259 131.786C267.184 131.334 267.203 130.883 267.297 130.393C267.391 129.904 267.56 129.547 267.767 129.264C267.993 128.982 268.256 128.832 268.557 128.794C268.859 128.738 269.197 128.832 269.555 129.039C269.799 129.17 270.006 129.359 270.213 129.584C270.401 129.791 270.552 130.055 270.665 130.318V130.299ZM268.388 130.488L269.931 131.372C269.969 131.184 269.969 130.996 269.931 130.826L269.743 130.337C269.649 130.205 269.536 130.074 269.385 129.998C269.235 129.904 269.084 129.867 268.934 129.885L268.576 130.092C268.501 130.205 268.426 130.318 268.388 130.488Z" fill="#323A60"/>
<path d="M274.692 130.318L275.708 130.902L274.428 137.054L273.412 136.471L273.563 135.737H273.525L273.243 136.001C273.13 136.076 272.998 136.114 272.848 136.114C272.678 136.114 272.509 136.057 272.321 135.944C272.038 135.794 271.813 135.549 271.625 135.248C271.436 134.928 271.305 134.552 271.248 134.119C271.192 133.686 271.211 133.216 271.323 132.708C271.436 132.2 271.587 131.767 271.794 131.504C272.001 131.221 272.227 131.071 272.509 131.014C272.772 130.977 273.036 131.014 273.299 131.184C273.506 131.297 273.657 131.447 273.77 131.617C273.901 131.767 273.977 131.936 274.033 132.125L274.165 132.614H274.183L274.654 130.318H274.692ZM273.675 134.853C273.77 134.684 273.864 134.477 273.92 134.194C273.977 133.912 273.995 133.667 273.977 133.404C273.958 133.178 273.901 132.971 273.807 132.783C273.713 132.614 273.581 132.463 273.431 132.388C273.262 132.294 273.111 132.275 272.96 132.313C272.829 132.35 272.716 132.482 272.603 132.633C272.509 132.802 272.415 133.009 272.358 133.291C272.302 133.555 272.283 133.818 272.302 134.063C272.321 134.288 272.377 134.514 272.452 134.683C272.547 134.853 272.678 135.003 272.848 135.097C272.998 135.192 273.167 135.21 273.299 135.173C273.45 135.116 273.563 135.022 273.657 134.834" fill="#323A60"/>
<path d="M254.615 134.063L256.026 133.818L257.005 134.364L255.725 140.535L254.69 139.933L255.725 135.004L255.687 134.985L254.37 135.229L254.615 134.063Z" fill="#7067AB"/>
<path d="M257.005 140.705L257.08 140.366L257.927 140.855L257.832 141.175C257.757 141.438 257.663 141.664 257.55 141.909C257.437 142.135 257.324 142.342 257.23 142.511C257.117 142.68 257.023 142.812 256.967 142.944L256.308 142.567C256.365 142.454 256.421 142.323 256.515 142.116C256.609 141.928 256.685 141.702 256.779 141.476C256.873 141.231 256.948 140.987 257.023 140.723L257.005 140.705Z" fill="#7067AB"/>
<path d="M262.235 140.027C262.423 140.328 262.555 140.667 262.63 141.043C262.706 141.401 262.687 141.796 262.612 142.191C262.536 142.586 262.386 142.944 262.16 143.17C261.934 143.414 261.671 143.546 261.351 143.565C261.031 143.583 260.711 143.489 260.354 143.282C260.109 143.132 259.865 142.925 259.658 142.699C259.451 142.455 259.262 142.172 259.131 141.815C258.98 141.476 258.905 141.081 258.886 140.629C258.867 140.178 258.905 139.67 259.018 139.105C259.131 138.597 259.262 138.165 259.451 137.807C259.62 137.45 259.827 137.186 260.071 136.998C260.316 136.81 260.561 136.716 260.824 136.716C261.106 136.716 261.389 136.791 261.708 136.96C262.028 137.13 262.311 137.393 262.518 137.694C262.725 137.976 262.875 138.334 262.988 138.691C263.082 139.049 263.101 139.406 263.082 139.764L262.066 139.181C262.066 138.955 262.028 138.729 261.915 138.541C261.803 138.353 261.671 138.202 261.483 138.089C261.163 137.901 260.881 137.939 260.636 138.183C260.391 138.428 260.203 138.861 260.09 139.482H260.128C260.241 139.35 260.373 139.256 260.523 139.199C260.674 139.124 260.843 139.124 261.012 139.143C261.2 139.162 261.37 139.237 261.558 139.331C261.84 139.5 262.085 139.726 262.273 140.027H262.235ZM261.389 142.135C261.483 142.003 261.558 141.834 261.596 141.627C261.633 141.42 261.633 141.213 261.596 141.025C261.558 140.818 261.483 140.629 261.37 140.46C261.276 140.291 261.144 140.159 260.975 140.065L260.617 139.971L260.297 140.046L260.053 140.291L259.902 140.686C259.865 140.874 259.865 141.081 259.902 141.288C259.94 141.495 260.015 141.683 260.128 141.852C260.222 142.022 260.354 142.153 260.523 142.248C260.692 142.342 260.824 142.379 260.993 142.342C261.125 142.323 261.276 142.248 261.37 142.135" fill="#7067AB"/>
<path d="M266.582 142.511C266.77 142.831 266.921 143.169 266.977 143.565C267.052 143.941 267.033 144.317 266.958 144.712C266.864 145.145 266.732 145.465 266.507 145.691C266.281 145.935 266.017 146.048 265.716 146.086C265.396 146.105 265.058 146.011 264.7 145.804C264.362 145.615 264.079 145.352 263.854 145.032C263.628 144.731 263.44 144.392 263.364 144.016C263.27 143.659 263.251 143.282 263.327 142.944L264.324 143.527C264.286 143.772 264.324 143.997 264.437 144.242C264.55 144.468 264.719 144.656 264.926 144.769C265.077 144.863 265.227 144.9 265.378 144.882C265.509 144.863 265.641 144.788 265.735 144.675C265.848 144.543 265.923 144.374 265.961 144.167C265.999 143.96 266.017 143.734 265.961 143.546C265.923 143.339 265.848 143.151 265.735 142.981C265.641 142.812 265.491 142.68 265.34 142.586C265.189 142.511 265.039 142.454 264.888 142.454C264.738 142.454 264.606 142.492 264.512 142.567L263.628 141.815L264.531 138.71L267.523 140.441L267.297 141.495L265.152 140.253L264.7 141.721H264.719C264.851 141.645 264.983 141.589 265.189 141.589C265.378 141.589 265.585 141.645 265.792 141.777C266.093 141.946 266.337 142.191 266.525 142.492L266.582 142.511Z" fill="#7067AB"/>
<path d="M271.907 144.505C271.963 145.07 271.925 145.691 271.794 146.368C271.662 147.046 271.455 147.572 271.192 147.949C270.928 148.344 270.627 148.57 270.27 148.664C269.931 148.758 269.536 148.664 269.141 148.438C268.746 148.212 268.407 147.855 268.162 147.441C267.918 147.008 267.767 146.519 267.711 145.935C267.654 145.352 267.692 144.731 267.824 144.073C267.955 143.414 268.162 142.868 268.426 142.492C268.67 142.116 268.99 141.89 269.329 141.815C269.686 141.739 270.063 141.815 270.458 142.041C270.853 142.266 271.192 142.605 271.436 143.038C271.681 143.452 271.831 143.941 271.907 144.505ZM270.157 147.196C270.401 146.951 270.59 146.462 270.74 145.747C270.834 145.277 270.872 144.863 270.872 144.505C270.872 144.167 270.796 143.866 270.684 143.621C270.59 143.395 270.439 143.226 270.251 143.113C269.969 142.962 269.705 142.981 269.479 143.245C269.235 143.508 269.047 143.979 268.896 144.694C268.802 145.164 268.746 145.578 268.764 145.935C268.764 146.293 268.821 146.594 268.934 146.82C269.047 147.046 269.197 147.234 269.385 147.347C269.668 147.497 269.931 147.459 270.176 147.196" fill="#7067AB"/>
<path d="M271.662 99.3288C276.122 101.907 278.793 108.549 277.627 114.174C276.46 119.8 271.907 122.246 267.447 119.687C262.988 117.129 260.298 110.468 261.464 104.861C262.631 99.2535 267.184 96.7698 271.662 99.3476V99.3288ZM270.101 104.127L268.783 110.505C268.708 110.844 268.878 111.277 269.16 111.427C269.442 111.578 269.724 111.427 269.799 111.089L271.117 104.71C271.192 104.371 271.022 103.939 270.74 103.788C270.458 103.638 270.176 103.788 270.101 104.127ZM268.238 115.868C268.783 116.188 269.367 115.868 269.517 115.172C269.668 114.475 269.329 113.629 268.765 113.309C268.2 112.989 267.636 113.29 267.485 114.005C267.335 114.72 267.673 115.529 268.238 115.868Z" fill="#D56C7B"/>
<path d="M282.086 190.566C282.086 190.566 281.992 190.566 281.936 190.529L160.103 120.026C160.009 119.97 159.953 119.857 159.972 119.725L177.922 16.9533C177.941 16.8027 178.091 16.7087 178.242 16.7275C178.392 16.7463 178.505 16.8968 178.468 17.0473L160.555 119.612L282.218 190.021C282.35 190.096 282.406 190.265 282.312 190.416C282.255 190.51 282.161 190.566 282.067 190.566H282.086Z" fill="black"/>
<path d="M155.644 122.491C155.55 122.491 155.437 122.435 155.399 122.34C155.324 122.209 155.381 122.039 155.512 121.964L160.103 119.518C160.235 119.443 160.404 119.499 160.48 119.631C160.555 119.763 160.499 119.932 160.367 120.007L155.776 122.453C155.776 122.453 155.682 122.491 155.644 122.491Z" fill="black"/>
<path d="M280.807 205.13C284.062 207.012 284.081 210.079 280.825 211.96L192.579 263.233C189.343 265.115 184.056 265.115 180.782 263.233L52.0067 188.892C48.7516 187.01 48.7328 183.943 51.9691 182.062L140.215 130.789C143.47 128.888 148.757 128.888 152.013 130.789L280.788 205.149L280.807 205.13Z" fill="#F1EEEA"/>
<path d="M283.121 209.42C283.121 209.42 283.121 209.476 283.102 209.514C283.008 209.777 282.876 210.041 282.707 210.285C282.669 210.323 282.651 210.379 282.613 210.417C282.425 210.662 282.218 210.906 281.954 211.151C281.785 211.301 281.559 211.452 281.371 211.584C281.202 211.715 281.051 211.847 280.844 211.96L192.598 263.233C192.109 263.515 191.545 263.76 190.961 263.948C190.754 264.023 190.547 264.08 190.34 264.136C190.058 264.211 189.795 264.287 189.513 264.343C189.174 264.418 188.835 264.475 188.496 264.512C188.421 264.512 188.327 264.531 188.252 264.55C187.781 264.606 187.311 264.625 186.859 264.625C186.803 264.625 186.765 264.625 186.709 264.625V278.229C186.709 278.229 186.784 278.229 186.822 278.229C186.954 278.229 187.066 278.229 187.198 278.229C187.499 278.229 187.819 278.191 188.12 278.173C188.158 278.173 188.195 278.173 188.214 278.173C188.29 278.173 188.384 278.154 188.459 278.135C188.703 278.097 188.929 278.079 189.174 278.041C189.268 278.041 189.381 277.985 189.475 277.966C189.757 277.909 190.039 277.834 190.303 277.759C190.453 277.721 190.604 277.702 190.754 277.646C190.83 277.627 190.867 277.589 190.943 277.571C191.526 277.364 192.09 277.138 192.579 276.856L280.826 225.583C280.826 225.583 280.901 225.545 280.92 225.526C281.07 225.432 281.202 225.319 281.334 225.225C281.541 225.075 281.747 224.943 281.917 224.792C281.917 224.792 281.954 224.773 281.973 224.755C282.161 224.567 282.35 224.378 282.5 224.19C282.538 224.153 282.557 224.096 282.594 224.058C282.632 224.021 282.651 223.964 282.688 223.927C282.745 223.852 282.801 223.776 282.839 223.701C282.933 223.55 283.008 223.381 283.065 223.231C283.065 223.212 283.065 223.174 283.083 223.155C283.083 223.118 283.083 223.099 283.102 223.061C283.14 222.967 283.177 222.854 283.196 222.76C283.234 222.61 283.253 222.44 283.253 222.29C283.253 222.271 283.253 222.233 283.253 222.215L283.29 208.611C283.29 208.893 283.234 209.194 283.14 209.476L283.121 209.42Z" fill="#8C8679"/>
<path d="M186.596 264.644C186.126 264.644 185.674 264.607 185.223 264.569C185.147 264.569 185.091 264.569 185.016 264.55C184.564 264.494 184.112 264.418 183.68 264.324C183.604 264.324 183.529 264.287 183.435 264.268C183.04 264.174 182.645 264.061 182.287 263.91C182.212 263.892 182.156 263.873 182.08 263.835C181.629 263.666 181.215 263.459 180.82 263.233L52.0068 188.892C50.3698 187.951 49.5419 186.69 49.5419 185.449L49.5043 199.052C49.5043 200.294 50.3134 201.536 51.9691 202.496L180.744 276.856C181.121 277.081 181.516 277.27 181.949 277.439C181.967 277.439 181.986 277.439 182.024 277.458C182.099 277.477 182.156 277.495 182.231 277.533C182.475 277.627 182.72 277.702 182.965 277.778C183.096 277.815 183.247 277.853 183.379 277.872C183.454 277.891 183.529 277.909 183.623 277.928C183.698 277.928 183.755 277.966 183.83 277.985C184.094 278.041 184.376 278.098 184.658 278.135C184.752 278.135 184.865 278.154 184.959 278.173C185.034 278.173 185.091 278.173 185.166 278.192C185.26 278.192 185.373 278.21 185.467 278.229C185.749 278.248 186.013 278.267 186.295 278.267C186.389 278.267 186.464 278.267 186.558 278.267C186.596 278.267 186.634 278.267 186.671 278.267V264.663C186.671 264.663 186.615 264.663 186.596 264.663V264.644Z" fill="#E2DED5"/>
<path d="M186.295 278.549C186.013 278.549 185.731 278.53 185.448 278.511L184.809 278.436C184.809 278.436 184.677 278.436 184.62 278.417C184.338 278.38 184.056 278.323 183.774 278.267C183.717 278.267 183.68 278.248 183.623 278.229L183.153 278.116C183.153 278.116 182.965 278.079 182.889 278.041C182.626 277.966 182.381 277.872 182.137 277.778L182.043 277.74C182.043 277.74 181.967 277.721 181.93 277.702L181.967 277.42L181.854 277.684C181.403 277.514 180.989 277.307 180.613 277.081L51.8374 202.74C50.1628 201.762 49.2408 200.464 49.2408 199.052L49.2785 185.449H49.8429C49.8429 186.634 50.6708 187.782 52.1573 188.647L180.933 263.007C181.309 263.214 181.723 263.421 182.156 263.591L182.362 263.666C182.739 263.798 183.115 263.91 183.491 264.005L183.717 264.061C184.15 264.155 184.583 264.23 185.034 264.287H185.241C185.693 264.362 186.144 264.381 186.596 264.381H186.822C187.292 264.381 187.763 264.343 188.195 264.306L188.421 264.268C188.76 264.23 189.099 264.174 189.418 264.099C189.701 264.042 189.964 263.967 190.227 263.892C190.434 263.835 190.641 263.779 190.848 263.703C191.488 263.478 192.015 263.252 192.448 263.007L280.694 211.734C280.807 211.659 280.92 211.584 281.014 211.508L281.334 211.283C281.484 211.189 281.635 211.076 281.747 210.963C281.992 210.756 282.199 210.511 282.368 210.267L282.425 210.191C282.632 209.89 282.745 209.646 282.82 209.42H282.97V209.382L282.839 209.345C282.933 209.062 282.97 208.818 282.97 208.573H283.535L283.497 222.271C283.497 222.44 283.479 222.629 283.441 222.798C283.441 222.892 283.384 222.986 283.366 223.099L283.29 223.325C283.234 223.494 283.14 223.663 283.046 223.833C283.008 223.889 282.97 223.946 282.933 224.002L282.782 224.228C282.782 224.228 282.707 224.341 282.688 224.378C282.519 224.585 282.331 224.792 282.143 224.962L282.086 224.999C281.936 225.131 281.766 225.244 281.597 225.376L281.465 225.47C281.465 225.47 281.371 225.545 281.315 225.583C281.221 225.658 281.145 225.714 281.032 225.79L280.92 225.846L192.674 277.119C192.203 277.383 191.676 277.627 190.98 277.853C190.886 277.909 190.83 277.928 190.792 277.928C190.717 277.947 190.623 277.985 190.529 278.003C190.472 278.003 190.416 278.022 190.359 278.041C190.077 278.116 189.795 278.192 189.494 278.248C189.456 278.248 189.418 278.267 189.381 278.286C189.324 278.286 189.268 278.323 189.193 278.323C188.986 278.361 188.76 278.399 188.534 278.417L188.101 278.474C187.781 278.511 187.48 278.53 187.161 278.53C187.085 278.53 186.991 278.53 186.897 278.53H186.295V278.549ZM188.045 277.928L188.177 278.192L188.139 277.909L188.459 277.872C188.666 277.853 188.873 277.815 189.08 277.778C189.117 277.778 189.174 277.759 189.211 277.74C189.268 277.74 189.324 277.702 189.362 277.702C189.644 277.646 189.908 277.571 190.171 277.495C190.246 277.495 190.303 277.458 190.378 277.439C190.453 277.439 190.529 277.401 190.604 277.383H190.679C190.679 277.383 190.754 277.326 190.792 277.307C191.451 277.081 191.959 276.856 192.391 276.611L280.637 225.338L280.882 225.526L280.731 225.282C280.731 225.282 280.882 225.169 280.957 225.112C281.014 225.075 281.07 225.018 281.127 224.981L281.258 224.886C281.409 224.774 281.559 224.68 281.691 224.567L281.747 224.529C281.917 224.378 282.086 224.19 282.237 224.002L282.462 223.663C282.462 223.663 282.519 223.588 282.538 223.551C282.613 223.4 282.688 223.268 282.745 223.118C282.745 223.099 282.745 223.061 282.764 223.043V222.967C282.82 222.854 282.839 222.779 282.858 222.685C282.895 222.535 282.895 222.403 282.914 222.252L282.952 210.398C282.952 210.398 282.914 210.455 282.914 210.474C282.858 210.549 282.839 210.586 282.82 210.624C282.613 210.888 282.387 211.151 282.124 211.396C281.992 211.527 281.823 211.64 281.653 211.753L281.352 211.96C281.239 212.054 281.108 212.148 280.976 212.223L192.73 263.496C192.26 263.76 191.714 264.004 191.037 264.23C190.83 264.306 190.604 264.362 190.397 264.418C190.115 264.494 189.832 264.569 189.55 264.625C189.211 264.701 188.873 264.757 188.515 264.795L188.271 264.832C187.819 264.889 187.33 264.908 186.841 264.908H186.615C186.144 264.908 185.674 264.87 185.204 264.832H184.997C184.526 264.757 184.075 264.682 183.623 264.569C183.567 264.569 183.529 264.55 183.473 264.531H183.379C182.983 264.418 182.588 264.287 182.193 264.155H182.118C182.118 264.155 182.024 264.099 181.986 264.08C181.516 263.892 181.064 263.685 180.669 263.459L51.8751 189.136C50.9719 188.61 50.2757 187.989 49.8429 187.293L49.8053 199.052C49.8053 200.257 50.6332 201.386 52.1197 202.251L180.895 276.611C181.252 276.818 181.648 277.006 182.061 277.176L182.024 277.458L182.118 277.194L182.193 277.232C182.193 277.232 182.268 277.251 182.306 277.27C182.532 277.345 182.776 277.439 183.021 277.514C183.096 277.533 183.19 277.552 183.266 277.571L183.868 277.721C184.131 277.778 184.413 277.815 184.677 277.872L185.467 277.966C185.731 277.985 185.994 278.003 186.276 278.003H186.878C186.878 278.003 187.029 278.003 187.123 278.003C187.424 278.003 187.725 277.966 188.026 277.947L188.045 277.928Z" fill="black"/>
<path d="M186.69 264.926C184.508 264.926 182.306 264.437 180.65 263.478L51.8751 189.137C50.2005 188.177 49.2786 186.86 49.2786 185.467C49.2786 184.075 50.1817 182.777 51.8375 181.817L140.084 130.544C143.414 128.606 148.833 128.606 152.163 130.544L280.938 204.904C282.613 205.864 283.535 207.181 283.535 208.573C283.535 209.966 282.632 211.264 280.957 212.224L192.711 263.497C191.055 264.456 188.873 264.945 186.69 264.945V264.926ZM146.105 129.641C144.016 129.641 141.927 130.111 140.347 131.033L52.1009 182.306C50.6333 183.172 49.8242 184.282 49.8242 185.467C49.8242 186.653 50.6521 187.782 52.1386 188.647L180.914 263.007C184.094 264.851 189.249 264.851 192.429 263.007L280.675 211.734C282.161 210.869 282.971 209.759 282.971 208.573C282.971 207.388 282.143 206.259 280.656 205.393L151.881 131.033C150.3 130.111 148.212 129.66 146.123 129.66L146.105 129.641Z" fill="black"/>
<path d="M164.563 146.237L164.544 151.336L143.527 163.566V158.467L164.563 146.237Z" fill="#8C8679"/>
<path d="M143.527 158.467V163.566L119.988 149.981L120.007 144.882L143.527 158.467Z" fill="#8C8679"/>
<path d="M143.527 163.886L143.376 163.81L119.706 150.15V144.393L143.527 158.128L164.845 145.747V151.505L164.694 151.58L143.527 163.886ZM120.289 149.812L143.527 163.227L164.281 151.166V146.726L143.546 158.787L143.395 158.711L120.289 145.371V149.83V149.812Z" fill="black"/>
<path d="M164.563 146.237L143.527 158.467L120.007 144.882L141.043 132.652L164.563 146.237Z" fill="white"/>
<path d="M143.527 158.787L143.376 158.711L119.424 144.882L141.024 132.332L165.108 146.237L143.508 158.787H143.527ZM120.571 144.882L143.527 158.128L163.998 146.237L141.024 132.971L120.553 144.863L120.571 144.882Z" fill="black"/>
<path d="M190.322 161.12V166.219L169.286 178.449L169.304 173.331L190.322 161.12Z" fill="#8C8679"/>
<path d="M169.304 173.331L169.285 178.449L145.766 164.864L145.785 159.765L169.304 173.331Z" fill="#8C8679"/>
<path d="M169.286 178.769L169.135 178.694L145.484 165.033V159.276L169.286 173.011L190.604 160.63V166.388L190.453 166.463L169.286 178.769ZM146.048 164.695L169.286 178.11L190.039 166.049V161.609L169.304 173.67L169.154 173.595L146.067 160.273V164.732L146.048 164.695Z" fill="black"/>
<path d="M190.322 161.12L169.304 173.331L145.785 159.765L166.821 147.535L190.322 161.12Z" fill="white"/>
<path d="M169.304 173.67L169.154 173.595L145.22 159.784L166.821 147.234L190.886 161.139L169.286 173.689L169.304 173.67ZM146.349 159.765L169.304 173.011L189.776 161.12L166.821 147.874L146.349 159.765Z" fill="black"/>
<path d="M216.099 176.003V181.102L195.063 193.332L195.082 188.214L216.099 176.003Z" fill="#8C8679"/>
<path d="M195.082 188.214L195.063 193.332L171.543 179.747V174.629L195.082 188.214Z" fill="#8C8679"/>
<path d="M195.063 193.652L194.913 193.577L171.242 179.917V174.159L195.063 187.895L216.381 175.514V181.271L216.231 181.347L195.063 193.652ZM171.826 179.578L195.063 192.994L215.817 180.933V176.492L195.082 188.553L194.931 188.478L171.826 175.137V179.597V179.578Z" fill="black"/>
<path d="M216.099 176.003L195.082 188.214L171.543 174.629L192.58 162.418L216.099 176.003Z" fill="white"/>
<path d="M195.082 188.553L194.931 188.478L170.979 174.648L192.58 162.098L192.73 162.173L216.683 176.003L195.082 188.553ZM172.108 174.648L195.082 187.895L215.554 176.003L192.598 162.757L172.127 174.648H172.108Z" fill="black"/>
<path d="M156.434 169.267L156.416 174.366L135.398 186.596V181.497L156.434 169.267Z" fill="#8C8679"/>
<path d="M135.398 181.497V186.596L96.0734 163.886V158.786L135.398 181.497Z" fill="#8C8679"/>
<path d="M135.398 186.916L135.248 186.841L95.7723 164.055V158.297L135.398 181.159L156.717 168.778V174.535L156.566 174.611L135.398 186.916ZM96.3556 163.716L135.398 186.258L156.152 174.197V169.756L135.417 181.817L135.267 181.742L96.3556 159.276V163.735V163.716Z" fill="black"/>
<path d="M156.434 169.267L135.398 181.497L96.0734 158.787L117.109 146.556L156.434 169.267Z" fill="white"/>
<path d="M135.398 181.779C135.398 181.779 135.304 181.779 135.248 181.742L95.9229 159.031C95.9229 159.031 95.7723 158.881 95.7723 158.787C95.7723 158.692 95.8288 158.598 95.9229 158.542L116.959 146.312C116.959 146.312 117.147 146.255 117.241 146.312L156.566 169.022C156.566 169.022 156.717 169.173 156.717 169.267C156.717 169.361 156.66 169.455 156.566 169.512L135.53 181.742C135.53 181.742 135.436 181.779 135.38 181.779H135.398ZM96.6379 158.787L135.398 181.159L155.87 169.267L117.109 146.895L96.6379 158.787Z" fill="black"/>
<path d="M182.306 184.207L182.287 189.306L161.27 201.536V196.437L182.306 184.207Z" fill="#8C8679"/>
<path d="M161.27 196.437V201.536L137.732 187.951L137.75 182.852L161.27 196.437Z" fill="#8C8679"/>
<path d="M161.27 201.856L161.119 201.781L137.449 188.12V182.363L161.27 196.098L182.588 183.717V189.475L182.438 189.55L161.27 201.856ZM138.033 187.782L161.27 201.197L182.024 189.136V184.696L161.289 196.757L161.138 196.681L138.033 183.341V187.8V187.782Z" fill="black"/>
<path d="M182.306 184.207L161.27 196.437L137.75 182.852L158.786 170.622L182.306 184.207Z" fill="white"/>
<path d="M161.27 196.719C161.27 196.719 161.176 196.719 161.119 196.682L137.6 183.097C137.6 183.097 137.449 182.946 137.449 182.852C137.449 182.758 137.506 182.664 137.6 182.607L158.636 170.377C158.636 170.377 158.824 170.321 158.918 170.377L182.438 183.962C182.438 183.962 182.588 184.113 182.588 184.207C182.588 184.301 182.532 184.395 182.438 184.451L161.402 196.682C161.402 196.682 161.308 196.719 161.251 196.719H161.27ZM138.296 182.852L161.27 196.098L181.742 184.207L158.767 170.96L138.296 182.852Z" fill="black"/>
<path d="M242.197 190.98L242.178 196.08L221.142 208.31L221.161 203.211L242.197 190.98Z" fill="#8C8679"/>
<path d="M221.161 203.211L221.142 208.31L197.622 194.725L197.641 189.626L221.161 203.211Z" fill="#8C8679"/>
<path d="M221.142 208.63L220.991 208.554L197.321 194.894V189.136L221.142 202.872L242.46 190.491V196.249L242.31 196.324L221.142 208.63ZM197.904 194.555L221.142 207.971L241.896 195.91V191.47L221.161 203.53L221.01 203.455L197.904 190.115V194.574V194.555Z" fill="black"/>
<path d="M242.197 190.98L221.161 203.211L197.641 189.626L218.658 177.395L242.197 190.98Z" fill="white"/>
<path d="M221.161 203.493C221.161 203.493 221.067 203.493 221.01 203.455L197.49 189.87C197.49 189.87 197.34 189.72 197.34 189.626C197.34 189.532 197.396 189.438 197.49 189.381L218.526 177.151C218.526 177.151 218.715 177.094 218.809 177.151L242.328 190.736C242.328 190.736 242.479 190.886 242.479 190.98C242.479 191.074 242.422 191.169 242.328 191.225L221.292 203.455C221.292 203.455 221.198 203.493 221.142 203.493H221.161ZM198.205 189.626L221.161 202.872L241.632 190.98L218.658 177.734L198.187 189.626H198.205Z" fill="black"/>
<path d="M187.368 211.414L187.349 216.513L163.81 202.928L163.829 197.829L187.368 211.414Z" fill="#8C8679"/>
<path d="M208.385 199.184V204.283L187.349 216.513L187.368 211.414L208.385 199.184Z" fill="#8C8679"/>
<path d="M187.349 216.833L187.198 216.758L163.528 203.098V197.34L187.349 211.076L208.667 198.695V204.453L208.517 204.528L187.349 216.833ZM164.111 202.759L187.349 216.175L208.103 204.114V199.673L187.368 211.734L187.217 211.659L164.111 198.319V202.778V202.759Z" fill="black"/>
<path d="M208.385 199.184L187.368 211.414L163.829 197.829L184.865 185.599L208.385 199.184Z" fill="white"/>
<path d="M187.368 211.697C187.368 211.697 187.273 211.697 187.217 211.659L163.697 198.074C163.697 198.074 163.547 197.923 163.547 197.829C163.547 197.735 163.603 197.641 163.697 197.585L184.733 185.354C184.733 185.354 184.921 185.298 185.016 185.354L208.535 198.939C208.535 198.939 208.686 199.09 208.686 199.184C208.686 199.278 208.629 199.372 208.535 199.429L187.499 211.659C187.499 211.659 187.405 211.697 187.349 211.697H187.368ZM164.393 197.829L187.368 211.076L207.839 199.184L184.884 185.938L164.412 197.829H164.393Z" fill="black"/>
<path d="M268.125 206.033L244.229 219.919L243.401 220.408L223.212 232.13L189.682 212.788L210.699 200.558L220.709 206.353L244.624 192.467L268.125 206.033Z" fill="white"/>
<path d="M223.212 232.131L223.193 237.248L268.106 211.132L268.125 206.033L223.212 232.131Z" fill="#8C8679"/>
<path d="M223.212 232.131L223.193 237.248L189.663 217.887L189.682 212.788L223.212 232.131Z" fill="#8C8679"/>
<path d="M223.212 232.432C223.212 232.432 223.118 232.432 223.061 232.394L189.531 213.032C189.531 213.032 189.381 212.882 189.381 212.788C189.381 212.694 189.437 212.6 189.531 212.543L210.549 200.332C210.549 200.332 210.737 200.275 210.831 200.332L220.709 206.033L244.473 192.222C244.473 192.222 244.662 192.166 244.756 192.222L268.275 205.788C268.275 205.788 268.426 205.939 268.426 206.033C268.426 206.127 268.37 206.221 268.275 206.278L223.362 232.375C223.362 232.375 223.268 232.413 223.212 232.413V232.432ZM190.246 212.788L223.212 231.829L267.579 206.052L244.624 192.806L220.86 206.616C220.86 206.616 220.672 206.673 220.577 206.616L210.699 200.915L190.246 212.807V212.788Z" fill="black"/>
<path d="M223.193 237.531C223.193 237.531 223.099 237.53 223.042 237.493L189.513 218.131C189.513 218.131 189.362 217.981 189.362 217.887V212.788C189.362 212.694 189.437 212.6 189.513 212.543C189.607 212.487 189.701 212.487 189.795 212.543L223.174 231.81L267.956 205.788C267.956 205.788 268.144 205.732 268.238 205.788C268.332 205.845 268.388 205.939 268.388 206.033V211.132C268.388 211.226 268.313 211.32 268.238 211.377L223.325 237.474C223.325 237.474 223.23 237.512 223.174 237.512L223.193 237.531ZM189.945 217.717L223.193 236.91L267.824 210.963V206.522L223.325 232.375C223.23 232.431 223.136 232.431 223.042 232.375L189.945 213.258V217.717Z" fill="black"/>
<path d="M116.827 173.99L95.7911 186.201L72.2714 172.616L93.3074 160.405L116.827 173.99Z" fill="white"/>
<path d="M116.827 173.99L116.808 179.089L95.7723 191.3L95.7912 186.201L116.827 173.99Z" fill="#8C8679"/>
<path d="M95.7912 186.201L95.7724 191.3L72.2527 177.734L72.2715 172.616L95.7912 186.201Z" fill="#8C8679"/>
<path d="M95.7912 186.201L72.2715 172.616L72.2527 177.734L95.7724 191.3L116.808 179.089L116.827 173.99L95.7912 186.201Z" fill="#8C8679"/>
<path d="M95.7723 191.601C95.7723 191.601 95.6782 191.601 95.6218 191.564L72.1021 177.979C72.1021 177.979 71.9515 177.828 71.9515 177.734V172.635C71.9515 172.541 72.0268 172.447 72.1021 172.39C72.1961 172.334 72.2902 172.334 72.3843 172.39L95.7723 185.881L116.658 173.745C116.658 173.745 116.846 173.689 116.94 173.745C117.034 173.802 117.091 173.896 117.091 173.99V179.089C117.091 179.183 117.015 179.277 116.94 179.333L95.904 191.564C95.904 191.564 95.8099 191.601 95.7535 191.601H95.7723ZM72.5348 177.565L95.7723 190.98L116.526 178.919V174.479L95.9228 186.446C95.8288 186.502 95.7347 186.502 95.6406 186.446L72.5348 173.105V177.565Z" fill="black"/>
<path d="M95.7911 186.483C95.7911 186.483 95.697 186.483 95.6406 186.446L72.1209 172.861C72.1209 172.861 71.9703 172.71 71.9703 172.616C71.9703 172.522 72.0268 172.428 72.1209 172.371L93.1569 160.141C93.1569 160.141 93.3451 160.085 93.4391 160.141L116.959 173.726C116.959 173.726 117.109 173.877 117.109 173.971C117.109 174.065 117.053 174.159 116.959 174.215L95.9228 186.446C95.9228 186.446 95.8288 186.483 95.7723 186.483H95.7911ZM72.8359 172.616L95.7911 185.862L116.263 173.971L93.2886 160.706L72.817 172.597L72.8359 172.616Z" fill="black"/>
<path d="M194.311 218.715L173.274 230.945L98.1431 187.556L119.179 175.344L194.311 218.715Z" fill="white"/>
<path d="M194.311 218.715L194.292 223.814L173.256 236.044L173.275 230.945L194.311 218.715Z" fill="#8C8679"/>
<path d="M173.275 230.945L173.256 236.044L98.1244 192.655L98.1432 187.556L173.275 230.945Z" fill="#8C8679"/>
<path d="M173.275 230.945L98.1432 187.556L98.1244 192.655L173.256 236.044L194.292 223.814L194.311 218.715L173.275 230.945Z" fill="#8C8679"/>
<path d="M173.256 236.326C173.256 236.326 173.162 236.326 173.105 236.289L97.9738 192.918C97.9738 192.918 97.8232 192.768 97.8232 192.674V187.575C97.8232 187.481 97.8985 187.387 97.9738 187.33C98.0678 187.274 98.1619 187.274 98.256 187.33L173.256 230.625L194.141 218.489C194.141 218.489 194.329 218.433 194.423 218.489C194.518 218.546 194.574 218.64 194.574 218.734V223.833C194.574 223.927 194.499 224.021 194.423 224.077L173.387 236.308C173.387 236.308 173.293 236.345 173.237 236.345L173.256 236.326ZM98.4065 192.505L173.256 235.724L194.01 223.663V219.223L173.425 231.209C173.331 231.265 173.237 231.265 173.143 231.209L98.4253 188.083V192.542L98.4065 192.505Z" fill="black"/>
<path d="M173.274 231.227C173.274 231.227 173.18 231.227 173.124 231.19L97.9926 187.819C97.9926 187.819 97.842 187.669 97.842 187.575C97.842 187.481 97.8985 187.387 97.9926 187.33L119.029 175.1C119.029 175.1 119.217 175.043 119.311 175.1L194.442 218.47C194.442 218.47 194.593 218.621 194.593 218.715C194.593 218.809 194.536 218.903 194.442 218.959L173.406 231.19C173.406 231.19 173.312 231.227 173.256 231.227H173.274ZM98.7076 187.556L173.274 230.606L193.746 218.715L119.179 175.664L98.7076 187.556Z" fill="black"/>
<path d="M220.182 233.655L199.146 245.885L175.626 232.3L196.663 220.088L220.182 233.655Z" fill="white"/>
<path d="M220.182 233.655L220.163 238.754L199.127 250.984L199.146 245.885L220.182 233.655Z" fill="#8C8679"/>
<path d="M199.146 245.885L199.127 250.984L175.626 237.399V232.3L199.146 245.885Z" fill="#8C8679"/>
<path d="M199.146 245.885L175.626 232.3V237.399L199.127 250.984L220.163 238.754L220.182 233.655L199.146 245.885Z" fill="#8C8679"/>
<path d="M199.127 251.266C199.127 251.266 199.033 251.266 198.977 251.229L175.457 237.662C175.457 237.662 175.307 237.512 175.307 237.418V232.319C175.307 232.225 175.382 232.131 175.457 232.074C175.551 232.018 175.645 232.018 175.739 232.074L199.109 245.565L219.994 233.429C219.994 233.429 220.182 233.372 220.276 233.429C220.37 233.485 220.427 233.579 220.427 233.674V238.773C220.427 238.867 220.352 238.961 220.276 239.017L199.24 251.247C199.24 251.247 199.146 251.285 199.09 251.285L199.127 251.266ZM175.89 237.249L199.127 250.664L219.881 238.603V234.163L199.278 246.148C199.184 246.205 199.09 246.205 198.996 246.148L175.909 232.827V237.286L175.89 237.249Z" fill="black"/>
<path d="M199.146 246.167C199.146 246.167 199.052 246.167 198.996 246.13L175.476 232.563C175.476 232.563 175.325 232.413 175.325 232.319C175.325 232.225 175.382 232.131 175.476 232.074L196.512 219.844C196.512 219.844 196.7 219.787 196.794 219.844L220.314 233.41C220.314 233.41 220.464 233.561 220.464 233.655C220.464 233.749 220.408 233.843 220.314 233.899L199.278 246.13C199.278 246.13 199.184 246.167 199.127 246.167H199.146ZM176.191 232.3L199.146 245.546L219.618 233.655L196.663 220.408L176.191 232.3Z" fill="black"/>
<path opacity="0.75" d="M82.225 51.8752L178.298 16.5204L300.808 87.3806L282.143 191.244L160.047 119.405L82.225 71.82V51.8752Z" fill="url(#paint0_linear_3744_29407)"/>
<path d="M281.691 191.244C281.691 191.244 281.597 191.244 281.541 191.206L276.667 188.346C276.536 188.271 276.498 188.101 276.573 187.951C276.648 187.819 276.818 187.763 276.968 187.857L281.842 190.717C281.973 190.792 282.011 190.961 281.936 191.112C281.879 191.206 281.785 191.244 281.691 191.244ZM283.065 186.483C283.065 186.483 283.027 186.483 283.008 186.483C282.858 186.464 282.745 186.314 282.782 186.163L283.78 180.613C283.798 180.462 283.949 180.349 284.1 180.387C284.25 180.406 284.363 180.556 284.325 180.707L283.328 186.258C283.309 186.389 283.178 186.483 283.046 186.483H283.065ZM271.963 185.524C271.963 185.524 271.869 185.524 271.813 185.486L266.958 182.626C266.827 182.551 266.789 182.381 266.864 182.231C266.939 182.099 267.109 182.043 267.259 182.137L272.114 184.997C272.246 185.072 272.283 185.241 272.208 185.392C272.151 185.486 272.057 185.524 271.963 185.524ZM262.236 179.804C262.236 179.804 262.141 179.804 262.085 179.766L257.212 176.906C257.08 176.831 257.042 176.661 257.118 176.511C257.193 176.379 257.362 176.323 257.513 176.417L262.386 179.277C262.518 179.352 262.555 179.521 262.48 179.672C262.424 179.766 262.33 179.804 262.236 179.804ZM285.059 175.382C285.059 175.382 285.021 175.382 285.003 175.382C284.852 175.363 284.739 175.213 284.777 175.062L285.774 169.511C285.793 169.361 285.962 169.248 286.094 169.286C286.244 169.304 286.357 169.455 286.32 169.606L285.323 175.156C285.304 175.288 285.172 175.382 285.04 175.382H285.059ZM252.508 174.084C252.508 174.084 252.414 174.084 252.357 174.046L247.484 171.186C247.352 171.111 247.315 170.941 247.39 170.791C247.465 170.659 247.635 170.603 247.785 170.697L252.658 173.557C252.79 173.632 252.828 173.801 252.752 173.952C252.696 174.046 252.602 174.084 252.508 174.084ZM242.78 168.364C242.78 168.364 242.686 168.364 242.63 168.326L237.756 165.466C237.625 165.391 237.587 165.221 237.662 165.071C237.737 164.939 237.907 164.883 238.057 164.977L242.931 167.837C243.062 167.912 243.1 168.081 243.025 168.232C242.968 168.326 242.874 168.364 242.78 168.364ZM287.072 164.281C287.072 164.281 287.035 164.281 287.016 164.281C286.865 164.262 286.753 164.111 286.79 163.961L287.787 158.41C287.806 158.26 287.976 158.166 288.107 158.184C288.258 158.203 288.371 158.354 288.333 158.504L287.336 164.055C287.317 164.187 287.185 164.281 287.054 164.281H287.072ZM233.052 162.644C233.052 162.644 232.958 162.644 232.902 162.606L228.028 159.746C227.897 159.671 227.859 159.501 227.934 159.351C228.01 159.219 228.179 159.163 228.33 159.257L233.203 162.117C233.335 162.192 233.372 162.361 233.297 162.512C233.24 162.606 233.146 162.644 233.052 162.644ZM223.325 156.924C223.325 156.924 223.23 156.924 223.174 156.886L218.301 154.026C218.169 153.951 218.131 153.781 218.207 153.631C218.282 153.499 218.451 153.443 218.602 153.537L223.475 156.397C223.607 156.472 223.644 156.641 223.569 156.792C223.513 156.886 223.419 156.924 223.325 156.924ZM289.067 153.179C289.067 153.179 289.029 153.179 289.01 153.179C288.86 153.161 288.747 153.01 288.785 152.859L289.782 147.309C289.801 147.158 289.951 147.045 290.102 147.083C290.252 147.102 290.365 147.252 290.328 147.403L289.33 152.954C289.311 153.085 289.18 153.179 289.048 153.179H289.067ZM213.597 151.204C213.597 151.204 213.503 151.204 213.446 151.166L208.573 148.306C208.441 148.231 208.404 148.061 208.479 147.911C208.554 147.779 208.723 147.723 208.874 147.817L213.747 150.677C213.879 150.752 213.917 150.921 213.841 151.072C213.785 151.166 213.691 151.204 213.597 151.204ZM203.869 145.484C203.869 145.484 203.775 145.484 203.718 145.446L198.845 142.586C198.713 142.511 198.676 142.341 198.751 142.191C198.826 142.059 198.996 142.003 199.146 142.097L204.02 144.957C204.151 145.032 204.189 145.201 204.114 145.352C204.057 145.446 203.963 145.484 203.869 145.484ZM291.061 142.078C291.061 142.078 291.024 142.078 291.005 142.078C290.854 142.059 290.741 141.909 290.779 141.758L291.776 136.208C291.795 136.057 291.964 135.944 292.096 135.982C292.247 136.001 292.36 136.151 292.322 136.302L291.325 141.852C291.306 141.984 291.174 142.078 291.042 142.078H291.061ZM194.122 139.764C194.122 139.764 194.028 139.764 193.972 139.726L189.117 136.866C188.986 136.791 188.948 136.621 189.023 136.471C189.099 136.339 189.268 136.302 189.418 136.377L194.273 139.237C194.405 139.312 194.442 139.481 194.367 139.632C194.311 139.726 194.217 139.764 194.122 139.764ZM184.395 134.044C184.395 134.044 184.301 134.044 184.244 134.006L179.371 131.146C179.239 131.071 179.202 130.901 179.277 130.751C179.352 130.619 179.521 130.563 179.672 130.657L184.545 133.517C184.677 133.592 184.715 133.761 184.639 133.912C184.583 134.006 184.489 134.044 184.395 134.044ZM293.056 130.977C293.056 130.977 293.018 130.977 292.999 130.977C292.849 130.958 292.736 130.807 292.774 130.657L293.771 125.106C293.79 124.956 293.959 124.843 294.091 124.88C294.241 124.899 294.354 125.05 294.316 125.2L293.319 130.751C293.3 130.883 293.169 130.977 293.037 130.977H293.056ZM174.667 128.324C174.667 128.324 174.573 128.324 174.516 128.286L169.643 125.426C169.511 125.351 169.474 125.181 169.549 125.031C169.624 124.899 169.794 124.862 169.944 124.937L174.817 127.797C174.949 127.872 174.987 128.041 174.912 128.192C174.855 128.286 174.761 128.324 174.667 128.324ZM164.939 122.604C164.939 122.604 164.845 122.604 164.789 122.566L159.915 119.706C159.784 119.631 159.746 119.461 159.821 119.311C159.897 119.179 160.066 119.123 160.216 119.217L165.09 122.077C165.221 122.152 165.259 122.321 165.184 122.472C165.127 122.566 165.033 122.604 164.939 122.604ZM295.05 119.875C295.05 119.875 295.013 119.875 294.994 119.875C294.843 119.857 294.73 119.706 294.768 119.556L295.765 114.005C295.784 113.854 295.935 113.741 296.085 113.779C296.236 113.798 296.349 113.948 296.311 114.099L295.314 119.65C295.295 119.781 295.163 119.875 295.031 119.875H295.05ZM155.249 116.808C155.249 116.808 155.155 116.808 155.099 116.771L150.282 113.836C150.15 113.76 150.112 113.572 150.188 113.44C150.263 113.309 150.432 113.271 150.583 113.346L155.4 116.282C155.531 116.357 155.569 116.545 155.494 116.677C155.437 116.771 155.343 116.808 155.249 116.808ZM145.615 110.919C145.615 110.919 145.521 110.919 145.465 110.881L140.648 107.946C140.516 107.871 140.479 107.683 140.554 107.551C140.629 107.419 140.799 107.382 140.949 107.457L145.766 110.392C145.898 110.468 145.935 110.656 145.86 110.787C145.804 110.881 145.709 110.919 145.615 110.919ZM297.045 108.774C297.045 108.774 297.007 108.774 296.988 108.774C296.838 108.755 296.725 108.605 296.763 108.454L297.76 102.904C297.779 102.753 297.948 102.659 298.08 102.678C298.23 102.697 298.343 102.847 298.305 102.998L297.308 108.548C297.289 108.68 297.158 108.774 297.026 108.774H297.045ZM135.982 105.03C135.982 105.03 135.888 105.03 135.831 104.992L131.014 102.038C130.883 101.963 130.845 101.775 130.92 101.643C130.995 101.511 131.165 101.474 131.315 101.549L136.132 104.503C136.264 104.578 136.302 104.766 136.226 104.898C136.17 104.992 136.076 105.03 135.982 105.03ZM126.348 99.1404C126.348 99.1404 126.254 99.1404 126.197 99.1028L121.381 96.1487C121.249 96.0735 121.211 95.8853 121.287 95.7536C121.362 95.6219 121.531 95.5843 121.682 95.6595L126.499 98.6136C126.63 98.6889 126.668 98.877 126.593 99.0087C126.536 99.1028 126.442 99.1404 126.348 99.1404ZM299.039 97.654C299.039 97.654 299.002 97.654 298.983 97.654C298.832 97.6352 298.719 97.4846 298.757 97.3341L299.754 91.7835C299.773 91.6329 299.942 91.5201 300.074 91.5577C300.225 91.5765 300.338 91.727 300.3 91.8775L299.303 97.4282C299.284 97.5599 299.152 97.654 299.02 97.654H299.039ZM116.714 93.2511C116.714 93.2511 116.62 93.2511 116.564 93.2135L111.747 90.2594C111.615 90.1841 111.578 89.996 111.653 89.8643C111.728 89.7325 111.897 89.6949 112.048 89.7702L116.865 92.7243C116.997 92.7995 117.034 92.9877 116.959 93.1194C116.902 93.2135 116.808 93.2511 116.714 93.2511ZM107.081 87.3618C107.081 87.3618 106.987 87.3618 106.93 87.3241L102.113 84.37C101.982 84.2948 101.944 84.1066 102.019 83.9749C102.094 83.8432 102.264 83.8056 102.414 83.8808L107.231 86.8349C107.363 86.9102 107.401 87.0983 107.325 87.23C107.269 87.3241 107.175 87.3618 107.081 87.3618ZM299.792 87.1172C299.792 87.1172 299.698 87.1171 299.641 87.0795L294.749 84.2572C294.618 84.1819 294.561 84.0126 294.655 83.862C294.73 83.7303 294.919 83.6739 295.05 83.7679L299.942 86.5903C300.074 86.6656 300.131 86.8349 300.036 86.9854C299.98 87.0795 299.886 87.1172 299.792 87.1172ZM290.026 81.4724C290.026 81.4724 289.932 81.4724 289.876 81.4348L284.984 78.6124C284.852 78.5372 284.796 78.3678 284.89 78.2173C284.965 78.0856 285.134 78.0291 285.285 78.1232L290.177 80.9456C290.309 81.0208 290.365 81.1902 290.271 81.3407C290.215 81.4348 290.121 81.4724 290.026 81.4724ZM97.447 81.4724C97.447 81.4724 97.3529 81.4724 97.2964 81.4348L92.4796 78.4807C92.3479 78.4054 92.3102 78.2173 92.3855 78.0856C92.4608 77.9539 92.6489 77.9162 92.7806 77.9915L97.5975 80.9456C97.7292 81.0208 97.7668 81.209 97.6916 81.3407C97.6351 81.4348 97.541 81.4724 97.447 81.4724ZM280.242 75.8277C280.242 75.8277 280.148 75.8277 280.092 75.7901L275.2 72.9677C275.068 72.8924 275.011 72.7231 275.106 72.5726C275.181 72.4408 275.35 72.3844 275.501 72.4785L280.393 75.3008C280.525 75.3761 280.581 75.5454 280.487 75.696C280.43 75.7901 280.336 75.8277 280.242 75.8277ZM87.8133 75.5831C87.8133 75.5831 87.7192 75.5831 87.6627 75.5454L82.8459 72.6102C82.7142 72.5349 82.6766 72.3468 82.7518 72.215C82.8271 72.0833 82.9964 72.0457 83.147 72.121L87.9638 75.0562C88.0955 75.1315 88.1331 75.3197 88.0579 75.4514C88.0014 75.5454 87.9073 75.5831 87.8133 75.5831ZM270.477 70.1641C270.477 70.1641 270.383 70.1641 270.326 70.1265L265.434 67.3041C265.303 67.2289 265.246 67.0595 265.34 66.909C265.415 66.7773 265.585 66.7208 265.735 66.8149L270.627 69.6373C270.759 69.7126 270.816 69.8819 270.721 70.0324C270.665 70.1265 270.571 70.1641 270.477 70.1641ZM82.225 67.4358C82.0745 67.4358 81.9427 67.3041 81.9427 67.1536V61.5089C81.9427 61.3583 82.0745 61.2266 82.225 61.2266C82.3755 61.2266 82.5072 61.3583 82.5072 61.5089V67.1536C82.5072 67.3041 82.3755 67.4358 82.225 67.4358ZM260.711 64.5194C260.711 64.5194 260.617 64.5194 260.561 64.4818L255.669 61.6594C255.537 61.5841 255.481 61.4148 255.575 61.2643C255.65 61.1326 255.819 61.0761 255.97 61.1702L260.862 63.9926C260.994 64.0678 261.05 64.2372 260.956 64.3877C260.9 64.4818 260.806 64.5194 260.711 64.5194ZM250.946 58.8747C250.946 58.8747 250.852 58.8747 250.796 58.837L245.903 56.0147C245.772 55.9394 245.715 55.7701 245.809 55.6195C245.885 55.4878 246.073 55.4502 246.205 55.5255L251.097 58.3478C251.228 58.4231 251.285 58.5924 251.191 58.743C251.134 58.837 251.04 58.8747 250.946 58.8747ZM82.225 56.1464C82.0745 56.1464 81.9427 56.0147 81.9427 55.8641V51.7435L87.4181 49.7302C87.5499 49.6738 87.7192 49.749 87.7756 49.8995C87.8321 50.0501 87.7568 50.2006 87.6063 50.257L82.4884 52.1386V55.8641C82.4884 56.0147 82.3567 56.1464 82.2062 56.1464H82.225ZM241.162 53.2111C241.162 53.2111 241.068 53.2111 241.011 53.1735L236.119 50.3511C235.988 50.2759 235.931 50.1065 236.025 49.956C236.1 49.8243 236.27 49.7678 236.42 49.8619L241.312 52.6843C241.444 52.7595 241.501 52.9289 241.406 53.0794C241.35 53.1735 241.256 53.2111 241.162 53.2111ZM92.8183 48.319C92.7054 48.319 92.5925 48.2437 92.5548 48.1309C92.4984 47.9803 92.5737 47.8298 92.7242 47.7734L98.0302 45.8165C98.1808 45.7601 98.3313 45.8353 98.3877 45.9859C98.4442 46.1364 98.3689 46.2869 98.2184 46.3434L92.9124 48.3002C92.9124 48.3002 92.8559 48.3002 92.8183 48.3002V48.319ZM231.397 47.5664C231.397 47.5664 231.302 47.5664 231.246 47.5287L226.354 44.7064C226.222 44.6311 226.166 44.4618 226.26 44.3113C226.335 44.1795 226.504 44.1419 226.655 44.2172L231.547 47.0395C231.679 47.1148 231.735 47.2841 231.641 47.4347C231.585 47.5288 231.491 47.5664 231.397 47.5664ZM103.43 44.4241C103.317 44.4241 103.205 44.3489 103.167 44.236C103.111 44.0855 103.186 43.9349 103.336 43.8785L108.642 41.9216C108.774 41.8652 108.943 41.9405 109 42.091C109.056 42.2415 108.981 42.392 108.831 42.4485L103.524 44.4053C103.524 44.4053 103.468 44.4053 103.43 44.4053V44.4241ZM221.631 41.9028C221.631 41.9028 221.537 41.9028 221.481 41.8652L216.588 39.0428C216.457 38.9676 216.4 38.7982 216.494 38.6477C216.57 38.516 216.739 38.4595 216.89 38.5536L221.782 41.376C221.913 41.4513 221.97 41.6206 221.876 41.7711C221.819 41.8652 221.725 41.9028 221.631 41.9028ZM114.024 40.5293C113.911 40.5293 113.798 40.454 113.76 40.3411C113.704 40.1906 113.779 40.0401 113.93 39.9836L119.236 38.0268C119.367 37.9703 119.537 38.0456 119.593 38.1961C119.65 38.3467 119.574 38.4972 119.424 38.5536L114.118 40.5105C114.118 40.5105 114.061 40.5105 114.024 40.5105V40.5293ZM124.617 36.6344C124.504 36.6344 124.391 36.5592 124.354 36.4463C124.297 36.2957 124.372 36.1452 124.523 36.0888L129.829 34.1319C129.961 34.0755 130.13 34.1507 130.186 34.3013C130.243 34.4518 130.168 34.6023 130.017 34.6588L124.711 36.6156C124.711 36.6156 124.655 36.6156 124.617 36.6156V36.6344ZM211.847 36.2581C211.847 36.2581 211.753 36.2581 211.696 36.2205L206.804 33.3981C206.673 33.3228 206.616 33.1535 206.71 33.003C206.785 32.8713 206.955 32.8148 207.105 32.9089L211.997 35.7313C212.129 35.8065 212.186 35.9759 212.092 36.1264C212.035 36.2205 211.941 36.2581 211.847 36.2581ZM135.21 32.7395C135.097 32.7395 134.984 32.6643 134.947 32.5514C134.89 32.4009 134.966 32.2503 135.116 32.1939L140.422 30.237C140.573 30.1806 140.723 30.2559 140.78 30.4064C140.836 30.5569 140.761 30.7074 140.61 30.7639L135.304 32.7207C135.304 32.7207 135.248 32.7207 135.21 32.7207V32.7395ZM202.082 30.6134C202.082 30.6134 201.987 30.6134 201.931 30.5757L197.039 27.7534C196.907 27.6781 196.851 27.5088 196.945 27.3582C197.02 27.2265 197.189 27.1701 197.34 27.2642L202.232 30.0865C202.364 30.1618 202.42 30.3311 202.326 30.4817C202.27 30.5757 202.176 30.6134 202.082 30.6134ZM145.804 28.8447C145.691 28.8447 145.578 28.7694 145.54 28.6565C145.484 28.506 145.559 28.3555 145.709 28.299L151.015 26.3422C151.147 26.2857 151.317 26.361 151.373 26.5115C151.429 26.6621 151.354 26.8126 151.204 26.869L145.898 28.8259C145.898 28.8259 145.841 28.8259 145.804 28.8259V28.8447ZM192.297 24.9686C192.297 24.9686 192.203 24.9686 192.147 24.931L187.255 22.1086C187.123 22.0334 187.067 21.864 187.161 21.7135C187.236 21.5818 187.405 21.5253 187.556 21.6194L192.448 24.4418C192.58 24.5171 192.636 24.6864 192.542 24.8369C192.485 24.931 192.391 24.9686 192.297 24.9686ZM156.397 24.9498C156.284 24.9498 156.171 24.8746 156.133 24.7617C156.077 24.6111 156.152 24.4606 156.303 24.4042L161.609 22.4473C161.74 22.3909 161.91 22.4661 161.966 22.6167C162.023 22.7672 161.947 22.9177 161.797 22.9742L156.491 24.931C156.491 24.931 156.434 24.931 156.397 24.931V24.9498ZM166.99 21.0549C166.877 21.0549 166.764 20.9797 166.727 20.8668C166.67 20.7163 166.745 20.5657 166.896 20.5093L172.202 18.5524C172.353 18.496 172.503 18.5713 172.56 18.7218C172.616 18.8723 172.541 19.0228 172.39 19.0793L167.084 21.0361C167.084 21.0361 167.028 21.0361 166.99 21.0361V21.0549ZM182.532 19.3239C182.532 19.3239 182.438 19.3239 182.381 19.2863L178.28 16.9155L177.677 17.1413C177.527 17.1977 177.376 17.1224 177.32 16.9719C177.263 16.8214 177.339 16.6709 177.489 16.6144L178.355 16.2946L182.682 18.7971C182.814 18.8723 182.871 19.0417 182.777 19.1922C182.72 19.2863 182.626 19.3239 182.532 19.3239Z" fill="#7067AB"/>
<path d="M48.7186 107.301C74.835 106.645 95.4743 84.9411 94.8178 58.8247C94.1613 32.7083 72.4576 12.0689 46.3412 12.7255C20.2248 13.382 -0.414567 35.0857 0.241948 61.2021C0.898463 87.3185 22.6022 107.958 48.7186 107.301Z" fill="#F1EEEA"/>
<path d="M38.6476 97.259C59.4829 97.259 76.3733 79.9895 76.3733 58.6866C76.3733 37.3837 59.4829 20.1143 38.6476 20.1143C17.8123 20.1143 0.921997 37.3837 0.921997 58.6866C0.921997 79.9895 17.8123 97.259 38.6476 97.259Z" fill="white"/>
<path d="M47.5287 107.551C21.3183 107.551 0 86.2328 0 60.0224C0 33.8121 21.3183 12.4938 47.5287 12.4938C73.739 12.4938 95.0573 33.8121 95.0573 60.0224C95.0573 86.2328 73.739 107.551 47.5287 107.551ZM47.5287 12.9642C21.5817 12.9642 0.451579 34.0755 0.451579 60.0224C0.451579 85.9694 21.5629 107.081 47.5098 107.081C73.4568 107.081 94.5681 85.9694 94.5681 60.0224C94.5681 34.0755 73.4756 12.9642 47.5287 12.9642Z" fill="black"/>
<path d="M39.1621 56.3152C40.6097 54.8676 40.7169 52.6279 39.4016 51.3126C38.0863 49.9973 35.8466 50.1045 34.399 51.5521C32.9514 52.9996 32.8442 55.2394 34.1595 56.5547C35.4748 57.8699 37.7145 57.7627 39.1621 56.3152Z" fill="#D66C7B"/>
<path d="M30.0379 53.1429C30.7253 51.2146 29.9495 49.1762 28.3051 48.59C26.6606 48.0038 24.7703 49.0918 24.0829 51.0201C23.3955 52.9484 24.1713 54.9868 25.8158 55.573C27.4602 56.1592 29.3505 55.0712 30.0379 53.1429Z" fill="#5CABDF"/>
<path d="M21.257 51.1772C21.8956 49.2651 21.2788 47.336 19.8792 46.8685C18.4796 46.401 16.8272 47.5722 16.1885 49.4843C15.5499 51.3964 16.1667 53.3255 17.5663 53.793C18.9659 54.2605 20.6183 53.0894 21.257 51.1772Z" fill="#63C740"/>
<path d="M17.168 64.2589C18.6106 64.186 19.6977 62.4948 19.596 60.4814C19.4944 58.468 18.2425 56.8948 16.7999 56.9676C15.3573 57.0404 14.2703 58.7317 14.3719 60.7451C14.4736 62.7585 15.7254 64.3317 17.168 64.2589Z" fill="#C98DEF"/>
<path d="M25.7657 66.2203C27.4892 66.0172 28.6922 64.2044 28.4526 62.1713C28.2131 60.1382 26.6217 58.6547 24.8982 58.8578C23.1747 59.0608 21.9718 60.8736 22.2113 62.9067C22.4509 64.9398 24.0422 66.4233 25.7657 66.2203Z" fill="#FAA669"/>
<path d="M17.7809 73.9651C19.098 73.4947 19.6625 71.6696 19.0416 69.8632C18.4206 68.0569 16.8401 66.9656 15.5042 67.436C14.1871 67.9064 13.6226 69.7315 14.2435 71.5379C14.8645 73.3442 16.445 74.4355 17.7809 73.9651Z" fill="#3AEFC3"/>
<path d="M23.7832 238.133C10.4616 245.828 10.3675 258.36 23.5574 265.98C36.7661 273.6 58.3102 273.563 71.4247 265.886C84.5393 258.209 84.6522 245.678 71.6505 238.039C58.6488 230.399 37.1048 230.437 23.7832 238.133Z" fill="#E2E2E2"/>
<defs>
<linearGradient id="paint0_linear_3744_29407" x1="82.225" y1="103.882" x2="300.808" y2="103.882" gradientUnits="userSpaceOnUse">
<stop stop-color="#BEE8EE"/>
<stop offset="1" stop-color="#BEE8EE" stop-opacity="0"/>
</linearGradient>
</defs>
</svg>
