<svg width="748" height="803" viewBox="0 0 748 803" fill="none" xmlns="http://www.w3.org/2000/svg">
<path fill-rule="evenodd" clip-rule="evenodd" d="M683.488 69.2682C703.479 90.6871 719.175 115.642 730.155 143.449L730.168 143.435C741.549 172.266 747.317 202.834 747.317 234.322C747.317 265.81 741.542 296.385 730.168 325.209C719.187 353.015 703.492 377.971 683.501 399.39C663.51 420.808 640.218 437.625 614.265 449.39C587.829 461.37 559.828 467.545 530.985 467.758L530.985 467.773L436.064 467.773L436.064 570.146C435.909 601.163 430.135 631.281 418.922 659.697C407.941 687.504 392.246 712.459 372.255 733.878C352.264 755.297 328.972 772.113 303.019 783.878C276.111 796.072 247.581 802.252 218.192 802.252C188.803 802.252 160.266 796.065 133.364 783.878C107.411 772.114 84.1196 755.297 64.1286 733.878C44.1376 712.459 28.4355 687.497 17.455 659.704C6.07399 630.873 0.305992 600.305 0.305997 568.817C0.306002 537.329 6.074 506.747 17.455 477.93C28.4355 450.124 44.1312 425.169 64.1222 403.75C84.1132 382.331 107.411 365.507 133.351 353.756C159.775 341.777 187.782 335.603 216.616 335.382H218.179V335.773L311.552 335.773L311.552 233C311.713 201.99 317.488 171.872 328.701 143.456C339.681 115.649 355.377 90.6941 375.368 69.2752C395.359 47.8563 418.651 31.0394 444.604 19.2746C471.506 7.07378 500.042 0.90069 529.431 0.900679C558.814 0.893763 587.35 7.08064 614.253 19.2676C640.205 31.0325 663.497 47.8493 683.488 69.2682ZM311.552 469.161L311.552 568.81C311.552 623.98 269.664 668.86 218.179 668.853C166.687 668.853 124.799 623.973 124.806 568.81C124.799 516.075 163.087 472.732 211.439 469.025L211.439 469.161H311.552ZM529.438 334.385L436.065 334.385L436.065 234.336C436.065 179.166 477.952 134.286 529.438 134.293C580.93 134.293 622.811 179.166 622.811 234.336C622.804 289.499 580.917 334.378 529.438 334.378L529.438 334.385Z" fill="white"/>
</svg>
