<svg width="22" height="18" viewBox="0 0 22 18" fill="none" xmlns="http://www.w3.org/2000/svg">
<path d="M3.6 1.66C4.13333 0.966665 4.66667 0.593332 5.2 0.539999C5.78667 0.433334 6.26667 0.540001 6.64 0.86C7.06667 1.12667 7.30667 1.55333 7.36 2.14C7.41333 2.72667 7.17333 3.36667 6.64 4.06C5.78667 5.18 5.17333 6.32667 4.8 7.5C4.48 8.62 4.32 9.66 4.32 10.62L4.08 9.02C5.46667 9.02 6.58667 9.42 7.44 10.22C8.29333 10.9667 8.72 12.0067 8.72 13.34C8.72 14.62 8.32 15.6867 7.52 16.54C6.72 17.34 5.68 17.74 4.4 17.74C3.01333 17.74 1.92 17.2867 1.12 16.38C0.373333 15.42 0 14.06 0 12.3C0 11.18 0.0799998 10.0333 0.24 8.86C0.453333 7.63333 0.826667 6.40667 1.36 5.18C1.94667 3.95333 2.69333 2.78 3.6 1.66ZM16.88 1.66C17.4133 0.966665 17.9467 0.593332 18.48 0.539999C19.0667 0.433334 19.5467 0.540001 19.92 0.86C20.3467 1.12667 20.5867 1.55333 20.64 2.14C20.6933 2.72667 20.4533 3.36667 19.92 4.06C19.0667 5.18 18.4533 6.32667 18.08 7.5C17.76 8.62 17.6 9.66 17.6 10.62L17.36 9.02C18.7467 9.02 19.8667 9.42 20.72 10.22C21.5733 10.9667 22 12.0067 22 13.34C22 14.62 21.6 15.6867 20.8 16.54C20 17.34 18.96 17.74 17.68 17.74C16.2933 17.74 15.2 17.2867 14.4 16.38C13.6533 15.42 13.28 14.06 13.28 12.3C13.28 11.18 13.36 10.0333 13.52 8.86C13.7333 7.63333 14.1067 6.40667 14.64 5.18C15.2267 3.95333 15.9733 2.78 16.88 1.66Z" fill="#515774"/>
</svg>
