<svg width="1080" height="200" viewBox="0 0 1080 200" fill="none" xmlns="http://www.w3.org/2000/svg">
<path opacity="0.6" fill-rule="evenodd" clip-rule="evenodd" d="M1080.36 -127.037C855.48 -218.67 700.872 -227.715 616.54 -154.171C490.054 -43.8547 565.927 18.1131 470.715 160.4C375.504 302.687 192.084 193.949 74.6736 281.275C-3.60016 339.493 -17.3769 640.446 33.3435 744.711L1080.36 746.302V-127.037Z" fill="url(#paint0_linear_4280_12200)"/>
<path fill-rule="evenodd" clip-rule="evenodd" d="M1234.37 90.6261C1009.48 -1.00724 854.874 -10.0518 770.542 63.4923C644.055 173.808 719.928 235.779 624.717 378.063C529.505 520.348 346.086 411.612 228.675 498.928C150.401 557.153 136.625 638.398 187.345 742.663L1234.37 710.199V90.6261Z" fill="url(#paint1_linear_4280_12200)" fill-opacity="0.5"/>
<path opacity="0.05" fill-rule="evenodd" clip-rule="evenodd" d="M1621.28 75.4972C1396.39 -16.1361 1241.78 -25.1807 1157.45 48.3633C1030.97 158.679 1106.84 220.647 1011.63 362.934C916.416 505.221 732.997 396.483 615.586 483.799C537.313 542.024 523.536 623.269 574.256 727.534L1621.28 724.877V75.4972Z" fill="url(#paint2_linear_4280_12200)"/>
<defs>
<linearGradient id="paint0_linear_4280_12200" x1="1035.43" y1="330.804" x2="589.921" y2="-328.522" gradientUnits="userSpaceOnUse">
<stop stop-color="#3F2B6F" stop-opacity="0"/>
<stop offset="1" stop-color="#3F2B6F"/>
</linearGradient>
<linearGradient id="paint1_linear_4280_12200" x1="1187.71" y1="739.417" x2="741.531" y2="79.937" gradientUnits="userSpaceOnUse">
<stop stop-color="#3F2B6F" stop-opacity="0"/>
<stop offset="1" stop-color="#3F2B6F"/>
</linearGradient>
<linearGradient id="paint2_linear_4280_12200" x1="1082.81" y1="-0.75415" x2="1082.81" y2="727.534" gradientUnits="userSpaceOnUse">
<stop stop-color="#AE6DDF"/>
<stop offset="1" stop-color="#6A67FE"/>
</linearGradient>
</defs>
</svg>
