<svg width="320" height="296" viewBox="0 0 320 296" fill="none" xmlns="http://www.w3.org/2000/svg">
<g clip-path="url(#clip0_3744_29164)">
<path opacity="0.5" d="M306.571 178.438C298.661 173.861 288.463 171.373 278.065 170.912L289.353 164.093L295.712 160.253C298.261 158.717 298.185 155 295.589 153.557L147.208 69.0526L6.87487 147.567C1.09997 150.807 1.06925 159.116 6.82879 162.388L142.385 239.289C149.42 243.421 158.159 243.375 165.132 239.151L229.685 200.14C230.867 205.73 235.122 211.152 242.509 215.422C260.126 225.589 288.939 225.589 306.555 215.422C324.172 205.254 324.172 188.605 306.555 178.438H306.571Z" fill="#C5C7D1"/>
<path opacity="0.5" d="M141.331 293.844L127.77 285.335C126.019 284.23 126.126 281.649 127.954 280.697L166.182 260.884L179.805 268.994C182.017 270.299 182.078 273.478 179.928 274.876L151.161 293.737C148.181 295.687 144.342 295.733 141.331 293.829V293.844Z" fill="#C5C7D1"/>
<path opacity="0.5" d="M0.230347 188.253L145.371 278.071L164.231 272.465L12.9781 179.729L0.230347 188.253Z" fill="#C5C7D1"/>
<path d="M262.159 102.935C263.311 103.595 263.311 104.67 262.159 105.346L150.362 170.314C149.21 170.974 147.367 170.974 146.215 170.314L33.6818 105.346C32.5452 104.686 32.5299 103.61 33.6818 102.935L145.478 37.967C146.63 37.3066 148.489 37.3066 149.625 37.967L262.159 102.935Z" fill="#666054"/>
<path d="M149.625 37.967L149.518 76.2871C148.381 75.6267 146.507 75.6267 145.371 76.2871L145.478 37.967C146.63 37.3066 148.489 37.3066 149.625 37.967Z" fill="#8C8679"/>
<mask id="mask0_3744_29164" style="mask-type:luminance" maskUnits="userSpaceOnUse" x="145" y="37" width="5" height="40">
<path d="M149.625 37.967L149.518 76.2871C148.381 75.6267 146.507 75.6267 145.371 76.2871L145.478 37.967C146.63 37.3066 148.489 37.3066 149.625 37.967Z" fill="white"/>
</mask>
<g mask="url(#mask0_3744_29164)">
<path d="M149.625 37.9669L149.518 76.287C149.379 76.2102 149.241 76.1488 149.103 76.0873L149.211 37.7672C149.364 37.8286 149.502 37.8901 149.625 37.9669Z" fill="#8C8679"/>
<path d="M149.195 37.7672L149.088 76.0873C148.98 76.0412 148.857 75.9951 148.734 75.9644L148.842 37.6443C148.965 37.675 149.088 37.7211 149.195 37.7672Z" fill="#8C8679"/>
<path d="M148.842 37.6444L148.734 75.9646C148.627 75.9338 148.535 75.9185 148.427 75.8878L148.535 37.5676C148.642 37.583 148.734 37.6137 148.842 37.6444Z" fill="#8C8679"/>
<path d="M148.535 37.5676L148.427 75.8877C148.335 75.8723 148.228 75.857 148.135 75.8416L148.243 37.5215C148.335 37.5215 148.443 37.5522 148.535 37.5676Z" fill="#8C8679"/>
<path d="M148.243 37.5214L148.135 75.8416C148.043 75.8416 147.951 75.8109 147.844 75.8109L147.951 37.4907C148.043 37.4907 148.135 37.5061 148.243 37.5214Z" fill="#8C8679"/>
<path d="M147.966 37.4908L147.859 75.811C147.767 75.811 147.659 75.811 147.567 75.7956L147.675 37.4755C147.767 37.4755 147.874 37.4755 147.966 37.4908Z" fill="#8C8679"/>
<path d="M147.675 37.4755L147.567 75.7956C147.46 75.7956 147.367 75.7956 147.26 75.7956L147.367 37.4755C147.475 37.4755 147.567 37.4755 147.675 37.4755Z" fill="#8C8679"/>
<path d="M147.367 37.4755L147.26 75.7956C147.152 75.7956 147.045 75.7956 146.937 75.811L147.045 37.4908C147.152 37.4908 147.26 37.4755 147.367 37.4755Z" fill="#8C8679"/>
<path d="M147.045 37.4907L146.937 75.8109C146.814 75.8109 146.692 75.8416 146.569 75.8569L146.676 37.5368C146.799 37.5214 146.922 37.4907 147.045 37.4907Z" fill="#8C8679"/>
<path d="M146.676 37.5369L146.569 75.857C146.384 75.8877 146.185 75.9338 146.016 75.9952L146.123 37.6751C146.308 37.6137 146.492 37.5676 146.676 37.5369Z" fill="#8C8679"/>
<path d="M146.108 37.675L146.001 75.9952C145.77 76.072 145.555 76.1641 145.355 76.2716L145.463 37.9515C145.663 37.844 145.878 37.7365 146.108 37.675Z" fill="#8C8679"/>
</g>
<path d="M262.159 102.935L262.051 141.239L149.518 76.2718L149.625 37.967L262.159 102.935Z" fill="#8C8679"/>
<path d="M145.478 37.967L145.371 76.2718L33.559 141.255L33.6665 102.935L145.478 37.967Z" fill="#8C8679"/>
<path d="M263.019 104.148L262.911 142.468C262.911 142.038 262.62 141.593 262.036 141.255L262.144 102.935C262.727 103.272 263.019 103.703 263.019 104.148Z" fill="#EAE6DF"/>
<mask id="mask1_3744_29164" style="mask-type:luminance" maskUnits="userSpaceOnUse" x="262" y="102" width="2" height="41">
<path d="M263.019 104.148L262.911 142.468C262.911 142.038 262.62 141.593 262.036 141.255L262.144 102.935C262.727 103.272 263.019 103.703 263.019 104.148Z" fill="white"/>
</mask>
<g mask="url(#mask1_3744_29164)">
<path d="M263.019 104.148L262.911 142.468C262.911 142.038 262.62 141.593 262.036 141.255L262.144 102.935C262.727 103.272 263.019 103.703 263.019 104.148Z" fill="#EAE6DF"/>
</g>
<path d="M32.7142 142.437L32.8217 104.117C32.8217 103.687 33.0982 103.257 33.6665 102.919L33.559 141.239C32.9907 141.562 32.7142 142.007 32.7142 142.437Z" fill="#EAE6DF"/>
<mask id="mask2_3744_29164" style="mask-type:luminance" maskUnits="userSpaceOnUse" x="32" y="102" width="2" height="41">
<path d="M32.7142 142.437L32.8217 104.117C32.8217 103.687 33.0982 103.257 33.6665 102.919L33.559 141.239C32.9907 141.562 32.7142 142.007 32.7142 142.437Z" fill="white"/>
</mask>
<g mask="url(#mask2_3744_29164)">
<path d="M33.6664 102.935L33.5589 141.255C33.5589 141.255 33.5282 141.255 33.5282 141.27L33.6357 102.95C33.6357 102.95 33.6664 102.95 33.6664 102.935Z" fill="#EAE6DF"/>
<path d="M33.6358 102.95L33.5283 141.27C33.39 141.362 33.2672 141.455 33.1597 141.547L33.2672 103.227C33.3747 103.134 33.4976 103.042 33.6358 102.95Z" fill="#EAE6DF"/>
<path d="M33.2672 103.226L33.1596 141.546C33.1596 141.546 33.0368 141.669 32.9753 141.746L33.0829 103.426C33.0829 103.426 33.1904 103.288 33.2672 103.226Z" fill="#EAE6DF"/>
<path d="M33.0828 103.426L32.9753 141.746C32.9753 141.746 32.8985 141.869 32.8524 141.915L32.9599 103.595C32.9599 103.595 33.0367 103.472 33.0828 103.426Z" fill="#EAE6DF"/>
<path d="M32.9599 103.595L32.8524 141.915C32.8524 141.915 32.791 142.023 32.7756 142.084L32.8831 103.764C32.8831 103.764 32.9292 103.657 32.9599 103.595Z" fill="#EAE6DF"/>
<path d="M32.8832 103.764L32.7757 142.084C32.7757 142.084 32.745 142.192 32.7296 142.253L32.8371 103.933C32.8371 103.933 32.8678 103.825 32.8832 103.764Z" fill="#EAE6DF"/>
<path d="M32.8371 103.933L32.7296 142.253C32.7296 142.253 32.7142 142.361 32.7142 142.422L32.8217 104.102C32.8217 104.102 32.8217 103.994 32.8371 103.933Z" fill="#EAE6DF"/>
<path d="M32.8217 104.102L32.7142 142.422C32.7142 142.422 32.7142 142.437 32.7142 142.453L32.8217 104.133C32.8217 104.133 32.8217 104.117 32.8217 104.102Z" fill="#EAE6DF"/>
</g>
<path d="M262.051 143.651C262.082 130.872 262.128 118.109 262.159 105.331C262.727 104.993 263.019 104.563 263.019 104.133L262.911 142.453C262.911 142.883 262.62 143.313 262.051 143.651Z" fill="#EAE6DF"/>
<mask id="mask3_3744_29164" style="mask-type:luminance" maskUnits="userSpaceOnUse" x="262" y="104" width="2" height="40">
<path d="M262.051 143.651C262.082 130.872 262.128 118.109 262.159 105.331C262.727 104.993 263.019 104.563 263.019 104.133L262.911 142.453C262.911 142.883 262.62 143.313 262.051 143.651Z" fill="white"/>
</mask>
<g mask="url(#mask3_3744_29164)">
<path d="M263.019 104.148L262.911 142.468C262.911 142.468 262.911 142.484 262.911 142.499L263.019 104.179C263.019 104.179 263.019 104.163 263.019 104.148Z" fill="#EAE6DF"/>
<path d="M263.019 104.163L262.911 142.484C262.911 142.484 262.911 142.591 262.896 142.653L263.004 104.332C263.004 104.332 263.019 104.225 263.019 104.163Z" fill="#EAE6DF"/>
<path d="M263.004 104.332L262.896 142.653C262.896 142.653 262.865 142.76 262.85 142.821L262.958 104.501C262.958 104.501 262.988 104.394 263.004 104.332Z" fill="#EAE6DF"/>
<path d="M262.958 104.501L262.85 142.821C262.85 142.821 262.804 142.929 262.773 142.99L262.881 104.67C262.881 104.67 262.942 104.563 262.958 104.501Z" fill="#EAE6DF"/>
<path d="M262.881 104.67L262.773 142.99C262.773 142.99 262.696 143.113 262.65 143.159L262.758 104.839C262.758 104.839 262.85 104.716 262.881 104.67Z" fill="#EAE6DF"/>
<path d="M262.758 104.839L262.65 143.159C262.65 143.159 262.543 143.297 262.466 143.359L262.574 105.039C262.574 105.039 262.696 104.916 262.758 104.839Z" fill="#EAE6DF"/>
<path d="M262.574 105.039L262.466 143.359C262.359 143.451 262.236 143.543 262.097 143.635L262.205 105.315C262.343 105.223 262.466 105.131 262.574 105.039Z" fill="#EAE6DF"/>
<path d="M262.205 105.315L262.097 143.636C262.097 143.636 262.067 143.636 262.067 143.651L262.174 105.331C262.174 105.331 262.205 105.331 262.205 105.315Z" fill="#EAE6DF"/>
</g>
<path d="M32.7142 142.437L32.8217 104.117C32.8217 104.563 33.1136 104.993 33.6818 105.331L33.5743 143.651C32.9907 143.313 32.7142 142.883 32.7142 142.437Z" fill="#EAE6DF"/>
<mask id="mask4_3744_29164" style="mask-type:luminance" maskUnits="userSpaceOnUse" x="32" y="104" width="2" height="40">
<path d="M32.7142 142.437L32.8217 104.117C32.8217 104.563 33.1136 104.993 33.6818 105.331L33.5743 143.651C32.9907 143.313 32.7142 142.883 32.7142 142.437Z" fill="white"/>
</mask>
<g mask="url(#mask4_3744_29164)">
<path d="M33.6818 105.346L33.5743 143.666C32.9907 143.328 32.7142 142.898 32.7142 142.453L32.8217 104.133C32.8217 104.578 33.1136 105.008 33.6818 105.346Z" fill="#EAE6DF"/>
</g>
<path d="M274.768 104.179L274.661 142.499C274.661 144.664 273.233 146.83 270.391 148.473L270.499 110.153C273.34 108.51 274.753 106.344 274.768 104.179Z" fill="#8C8679"/>
<mask id="mask5_3744_29164" style="mask-type:luminance" maskUnits="userSpaceOnUse" x="270" y="104" width="5" height="45">
<path d="M274.768 104.179L274.661 142.499C274.661 144.664 273.233 146.83 270.391 148.473L270.499 110.153C273.34 108.51 274.753 106.344 274.768 104.179Z" fill="white"/>
</mask>
<g mask="url(#mask5_3744_29164)">
<path d="M274.768 104.179L274.661 142.499C274.661 142.499 274.661 142.591 274.661 142.622L274.768 104.302C274.768 104.302 274.768 104.209 274.768 104.179Z" fill="#8C8679"/>
<path d="M274.768 104.301L274.661 142.622C274.661 142.898 274.615 143.19 274.569 143.466L274.676 105.146C274.738 104.87 274.768 104.578 274.768 104.301Z" fill="#8C8679"/>
<path d="M274.661 105.146L274.553 143.466C274.492 143.743 274.415 144.019 274.323 144.296L274.431 105.976C274.538 105.699 274.615 105.423 274.661 105.146Z" fill="#8C8679"/>
<path d="M274.431 105.976L274.323 144.296C274.216 144.572 274.093 144.849 273.939 145.125L274.047 106.805C274.2 106.529 274.338 106.252 274.431 105.976Z" fill="#8C8679"/>
<path d="M274.031 106.82L273.924 145.14C273.755 145.432 273.555 145.724 273.34 146.016L273.448 107.696C273.678 107.404 273.878 107.112 274.031 106.82Z" fill="#8C8679"/>
<path d="M273.448 107.696L273.34 146.016C273.079 146.354 272.772 146.676 272.434 146.999L272.541 108.679C272.879 108.356 273.187 108.034 273.448 107.696Z" fill="#8C8679"/>
<path d="M272.541 108.679L272.434 146.999C271.912 147.49 271.297 147.951 270.576 148.366L270.683 110.046C271.39 109.616 272.019 109.155 272.541 108.679Z" fill="#8C8679"/>
<path d="M270.683 110.046L270.576 148.366C270.576 148.366 270.453 148.443 270.391 148.473L270.499 110.153C270.499 110.153 270.622 110.076 270.683 110.046Z" fill="#8C8679"/>
</g>
<path d="M20.9647 142.407L21.0722 104.087C21.0722 106.283 22.516 108.479 25.4034 110.138L25.2959 148.458C22.4084 146.784 20.9647 144.588 20.9647 142.407Z" fill="#E2DED5"/>
<mask id="mask6_3744_29164" style="mask-type:luminance" maskUnits="userSpaceOnUse" x="20" y="104" width="6" height="45">
<path d="M20.9647 142.407L21.0722 104.087C21.0722 106.283 22.516 108.479 25.4034 110.138L25.2959 148.458C22.4084 146.784 20.9647 144.588 20.9647 142.407Z" fill="white"/>
</mask>
<g mask="url(#mask6_3744_29164)">
<path d="M25.4034 110.153L25.2959 148.474C22.4084 146.799 20.9647 144.603 20.9647 142.422L21.0722 104.102C21.0722 106.298 22.516 108.495 25.4034 110.153Z" fill="#E2DED5"/>
</g>
<path d="M270.437 98.1273C276.181 101.445 276.212 106.836 270.499 110.153L158.702 175.121C152.989 178.438 143.681 178.438 137.937 175.121L25.4035 110.153C19.6593 106.836 19.6286 101.445 25.342 98.1273L137.139 33.1444C142.852 29.8269 152.175 29.8269 157.904 33.1444L270.437 98.112V98.1273ZM150.362 170.314L262.159 105.346C263.311 104.686 263.295 103.61 262.159 102.935L149.625 37.967C148.489 37.3066 146.615 37.3066 145.478 37.967L33.6665 102.935C32.5146 103.595 32.5299 104.686 33.6665 105.346L146.2 170.314C147.352 170.974 149.21 170.974 150.347 170.314" fill="#F1EEEA"/>
<path d="M270.499 110.153L270.391 148.473L157.212 214.147C154.202 215.407 151.069 216.021 147.813 215.929L147.997 177.609C152.743 177.532 156.214 176.657 158.702 175.136L270.499 110.169V110.153Z" fill="#8C8679"/>
<path d="M147.982 177.594L147.874 215.914C144.68 215.883 141.577 215.161 138.505 214.101L25.2959 148.458L25.4034 110.138L138.613 175.781L147.982 177.594Z" fill="#E2DED5"/>
<path d="M86.4085 91.0623L65.8892 47.8734L78.0226 58.5324L76.671 47.7659L84.9801 58.7782L81.8469 41.945L93.4889 60.268L89.4495 44.4945L99.2177 58.3788L95.6545 37.967L113.148 75.2889" fill="#3DB67B"/>
<path d="M113.148 75.2888L109.723 68.6538C104.639 70.2511 90.801 60.8669 76.5481 69.7135L86.3931 91.0469L113.148 75.2734V75.2888Z" fill="#27935A"/>
<path d="M86.1934 91.1545L65.198 46.9673L77.7154 57.9642L76.3485 46.952L84.5808 57.8567L81.4015 40.8238L92.9052 58.9318L88.9119 43.3427L98.8183 57.3959L95.1169 36.3083L113.363 75.1814L112.948 75.3811L96.1766 39.6258L99.6324 59.3465L89.9871 45.6618L94.0725 61.6196L82.2923 43.0816L85.3948 59.6844L77.0089 48.5954L78.3144 59.1161L66.5649 48.7797L86.6081 90.9549L86.1934 91.1545Z" fill="black"/>
<path d="M162.957 107.081L106.129 105.73C103.057 105.653 100.615 103.104 100.692 100.032L104.47 5.71355C104.547 2.64179 107.097 0.199749 110.168 0.276543L155.246 1.3363C156.721 1.36702 158.119 1.99673 159.148 3.05648L170.636 15.0978C171.65 16.1729 172.203 17.6012 172.172 19.0757L168.67 101.629C168.593 104.701 166.044 107.143 162.972 107.066L162.957 107.081Z" fill="white"/>
<path d="M163.095 107.327C163.095 107.327 163.003 107.327 162.957 107.327L106.129 105.976C104.578 105.945 103.119 105.3 102.044 104.179C100.969 103.057 100.4 101.583 100.431 100.016L104.209 5.68287C104.24 4.13163 104.885 2.68791 106.006 1.61279C107.097 0.568397 108.525 0.00012207 110.03 0.00012207C110.076 0.00012207 110.122 0.00012207 110.168 0.00012207L155.246 1.05988C156.798 1.09059 158.241 1.73566 159.317 2.85685L170.805 14.8981C171.865 16.004 172.448 17.5245 172.418 19.0604L168.916 101.629C168.839 104.793 166.243 107.312 163.095 107.312V107.327ZM162.972 106.82C162.972 106.82 163.064 106.82 163.095 106.82C165.967 106.82 168.347 104.517 168.409 101.629L171.911 19.0604C171.941 17.6627 171.404 16.2804 170.436 15.2667L158.948 3.22546C157.965 2.19643 156.644 1.61279 155.231 1.58208L110.153 0.52232C108.74 0.460885 107.389 1.0138 106.359 1.99676C105.33 2.97972 104.747 4.30058 104.716 5.71358L100.938 100.047C100.907 101.46 101.429 102.812 102.412 103.841C103.395 104.87 104.716 105.453 106.129 105.484L162.957 106.836L162.972 106.82Z" fill="black"/>
<path d="M153.557 1.56689L155.6 1.64369L155.323 14.6986C155.293 16.4803 156.706 17.9701 158.487 18.0008L171.865 18.308V20.7039L157.719 20.4121C155.17 20.3507 153.158 18.2465 153.219 15.697L153.557 1.56689Z" fill="#E8EAEF"/>
<path d="M172.372 18.3231L158.549 18.0006C156.721 17.9545 155.262 16.434 155.308 14.591L155.615 1.53601H156.122L155.815 14.6063C155.784 16.1576 157.013 17.4477 158.564 17.4938L172.387 17.8163V18.3231H172.372Z" fill="#192147"/>
<mask id="mask7_3744_29164" style="mask-type:luminance" maskUnits="userSpaceOnUse" x="116" y="20" width="43" height="57">
<path d="M117.381 20.6162L116.069 75.9076L157.541 76.8922L158.854 21.6008L117.381 20.6162Z" fill="white"/>
</mask>
<g mask="url(#mask7_3744_29164)">
<path d="M132.792 61.8961C134.666 63.8006 136.278 65.4594 137.338 66.5037C138.567 67.7325 139.227 69.4066 139.12 71.1267C138.997 72.8316 137.999 74.8436 134.62 75.5193C127.846 76.8556 127.324 70.3742 127.324 70.3742L127.171 68.485L132.838 61.8961H132.807H132.792Z" fill="#8B8FA2"/>
<path d="M119.03 39.7793L138.582 22.4546C138.582 22.4546 143.405 20.5194 145.801 23.3301C148.197 26.1561 146.799 29.7808 146.799 29.7808L129.106 46.1839L119.015 39.764L119.03 39.7793Z" fill="#E2E4EA"/>
<path d="M132.792 61.896C127.432 56.4437 120.121 48.9793 119.184 47.9502C117.694 46.3069 115.913 41.7146 119.845 39.165C121.089 38.3664 122.64 38.0746 124.114 38.3049C130.35 39.3033 129.09 46.1994 129.09 46.1994L143.006 33.3901L155.63 46.3529C155.63 46.3529 158.81 49.9008 156.951 52.2046C155.093 54.5084 138.106 73.7069 138.106 73.7069C138.106 73.7069 140.487 70.758 137.952 67.1794C136.493 65.0906 132.777 61.896 132.777 61.896H132.807H132.792Z" fill="#C5C7D1"/>
<path d="M132.792 76.2873C131.379 76.2873 130.166 75.9187 129.183 75.1661C126.956 73.492 126.695 70.5584 126.679 70.4356L126.618 68.3314L131.978 61.9422C126.664 56.5205 119.645 49.3633 118.723 48.3497C117.326 46.7831 115.391 42.3444 118.631 39.3648L119.522 38.5354L138.352 21.9326C138.567 21.8404 143.589 19.8745 146.231 22.977C148.827 26.018 147.398 29.8577 147.337 30.0113L147.199 30.2263L143.82 33.4209L156.03 45.9691C156.183 46.138 159.562 49.9316 157.381 52.5887C156.045 54.2321 147.352 64.0924 142.161 69.9902C140.502 71.8639 139.243 73.3077 138.751 73.8606L138.567 74.0602H138.521L138.337 74.2446C137.507 75.1354 136.263 75.7497 134.666 76.0876C134.005 76.2258 133.376 76.2873 132.792 76.2873ZM127.831 70.3741C127.831 70.3741 128.061 72.893 129.874 74.2599C131.01 75.1046 132.546 75.3504 134.435 74.9664C135.787 74.69 136.831 74.1831 137.507 73.4613L138.06 72.9083C138.644 72.2479 139.811 70.9271 141.301 69.2376C146.492 63.3552 155.17 53.4949 156.491 51.8822C158.042 49.9931 155.216 46.8138 155.185 46.7831L142.176 33.4056L146.308 29.5045C146.507 28.8901 147.275 25.9873 145.371 23.7449C143.436 21.4718 139.519 22.762 138.889 22.9923L119.43 40.2402C116.819 42.6516 118.447 46.307 119.599 47.6124C120.52 48.6261 127.831 56.0905 133.176 61.5429L133.545 61.9115L127.785 68.7615L127.831 70.4049V70.3741Z" fill="white"/>
<path d="M138.966 73.5842L137.999 72.9544C139.519 70.6199 138.26 68.7001 137.415 67.4099C136.77 66.4116 133.575 63.4013 132.393 62.3262L133.176 61.4814C133.36 61.6504 137.523 65.4594 138.383 66.7802C139.197 68.0396 140.886 70.6353 138.966 73.5842Z" fill="white"/>
<path d="M129.029 46.8751C128.922 46.8751 128.814 46.8444 128.707 46.7829C128.492 46.6294 128.399 46.3529 128.476 46.1072C128.522 45.9997 129.459 43.2965 127.416 40.6855C125.082 37.6598 121.38 38.9346 121.35 38.95C121.196 39.0114 120.474 39.3339 119.921 39.7026C119.66 39.8869 119.292 39.8101 119.123 39.549C118.938 39.2879 119.015 38.9346 119.276 38.7503C119.921 38.3049 120.735 37.9363 120.966 37.8595C120.997 37.8595 125.497 36.2929 128.323 39.979C129.674 41.6992 129.92 43.4655 129.859 44.7249L142.806 32.7604C143.036 32.5454 143.405 32.5607 143.62 32.7911C143.835 33.0215 143.82 33.3901 143.589 33.6051L129.398 46.7215C129.29 46.829 129.152 46.8751 129.014 46.8751H129.029Z" fill="white"/>
</g>
<path d="M242.899 89.1118L253.205 49.2097L242.945 67.2102L244.266 50.2848L237.308 65.0139L240.027 43.4809L231.733 58.4403L232.348 44.6635L226.511 53.8173L223.962 37.8596L216.605 57.4113L214.9 40.7777L211.644 50.377L209.156 34.5881L199.234 80.6644L242.899 89.1118Z" fill="#3DB67B"/>
<path d="M243.114 89.1731L242.669 89.0656L252.56 50.8223L242.638 68.2237L243.943 51.5288L236.909 66.4268L239.658 44.6327L231.457 59.4078L232.071 45.5081L226.373 54.4469L223.869 38.7503L216.467 58.4095L214.792 41.8527L211.567 51.3291L209.125 35.8321L199.449 80.7104L199.004 80.6183L209.187 33.3286L211.721 49.4092L215.023 39.7025L216.728 56.4128L224.054 36.9686L226.634 53.1721L232.609 43.8187L232.01 57.4726L240.411 42.3135L237.723 63.6007L244.588 49.056L243.252 66.1964L253.865 47.5969L243.114 89.1731Z" fill="black"/>
<path d="M199.234 80.6645L204.072 58.2253C204.072 58.2253 239.29 66.3501 242.899 89.1118L199.234 80.6645Z" fill="#27935A"/>
<path d="M189.815 34.0172L145.456 48.439C138.857 50.5843 135.247 57.6726 137.392 64.2713L151.814 108.63C153.959 115.229 161.048 118.839 167.646 116.694L212.005 102.272C218.604 100.127 222.214 93.0385 220.069 86.4398L205.647 42.0807C203.502 35.4821 196.414 31.8719 189.815 34.0172Z" fill="#F05133"/>
<path d="M144.265 85.4255L151.806 108.648C153.956 115.237 161.037 118.846 167.626 116.711L211.997 102.289C218.586 100.139 222.195 93.0588 220.06 86.4699L215.576 72.6777L144.265 85.4409V85.4255Z" fill="#D8402B"/>
<path d="M202.586 86.7974C204.728 83.6177 203.887 79.3034 200.708 77.1611C197.528 75.0187 193.214 75.8597 191.071 79.0394C188.929 82.2191 189.77 86.5334 192.95 88.6757C196.129 90.8181 200.444 89.9771 202.586 86.7974Z" fill="white"/>
<path d="M194.086 60.3734C196.228 57.1937 195.387 52.8794 192.207 50.7371C189.028 48.5948 184.713 49.4358 182.571 52.6155C180.429 55.7951 181.27 60.1095 184.449 62.2518C187.629 64.3941 191.944 63.5531 194.086 60.3734Z" fill="white"/>
<path d="M176.564 94.7753C178.706 91.5956 177.865 87.2813 174.685 85.139C171.506 82.9966 167.191 83.8376 165.049 87.0173C162.907 90.197 163.748 94.5113 166.928 96.6537C170.107 98.796 174.422 97.955 176.564 94.7753Z" fill="white"/>
<path d="M183.441 36.1376L180.14 37.2108L195.165 83.4249L198.466 82.3517L183.441 36.1376Z" fill="white"/>
<path d="M186.846 55.594L169.107 90.4248L172.2 92.0001L189.94 57.1693L186.846 55.594Z" fill="white"/>
<path d="M163.663 117.51C161.666 117.51 159.7 117.034 157.873 116.112C154.832 114.561 152.574 111.92 151.514 108.679L137.092 64.3074C136.033 61.0667 136.309 57.5956 137.86 54.5545C139.412 51.5135 142.053 49.2558 145.294 48.196L189.665 33.7741C196.362 31.5932 203.596 35.2793 205.777 41.9757L220.199 86.3472C222.38 93.059 218.694 100.278 211.997 102.459L167.626 116.88C166.32 117.31 164.984 117.51 163.663 117.51ZM145.448 48.626C142.314 49.6397 139.765 51.8207 138.275 54.7542C136.785 57.6877 136.524 61.0359 137.538 64.1538L151.96 108.525C152.973 111.658 155.154 114.208 158.088 115.698C161.021 117.188 164.37 117.449 167.487 116.435L211.859 102.013C218.325 99.909 221.873 92.9361 219.769 86.4701L205.347 42.0986C203.243 35.6325 196.27 32.0847 189.804 34.1888L145.432 48.6107L145.448 48.626Z" fill="black"/>
<path d="M37.9977 107.527L38.397 107.051C39.6871 105.53 41.438 104.47 43.3732 104.025L46.5679 103.303C48.5491 99.9242 51.2676 98.1734 54.7234 98.1273C56.9504 96.1153 59.0392 94.8866 60.9283 94.6408C62.0188 92.1527 63.8925 91.1698 66.4575 91.523C68.5616 88.9734 70.5736 87.8215 72.5242 88.1134C73.7375 85.656 75.4731 84.3351 78.084 84.9955C79.0977 82.3538 81.0176 81.2326 83.905 81.7241C85.3795 79.3896 87.1611 78.3913 89.2499 78.7138C90.5247 76.3639 92.2141 75.2581 94.4565 75.7956C95.0555 73.1232 96.2535 72.6624 98.6494 73.63C99.9857 72.6624 101.66 73.031 102.689 74.3673C104.701 74.0601 105.546 75.3963 105.561 77.1165C107.742 76.2871 109.692 76.6404 111.382 78.4066C114.408 78.0687 116.128 79.3281 116.588 82.1388C118.478 81.5705 120.075 81.5859 120.996 83.6132C124.053 83.0603 125.466 85.0109 125.282 87.6219C128.691 86.2396 130.519 87.6526 131.287 90.8933C133.898 90.5554 135.679 91.2312 136.14 93.535C138.444 92.9207 139.949 94.0879 141.04 96.2074C143.267 95.6545 145.064 96.7143 146.461 99.1717C149.379 98.1426 151.13 99.0027 151.56 101.952C152.897 101.568 153.618 101.982 153.772 103.165C157.335 101.537 159.332 103.964 161.021 107.128L169.438 111.72L115.099 152.359L37.9823 107.558L37.9977 107.527Z" fill="white"/>
<path d="M141.838 107.865C138.475 106.344 136.217 107.296 134.466 109.17C132.562 107.604 128.707 109.17 127.831 111.305C125.358 111.029 123.254 111.996 121.534 114.407C119.507 113.563 116.757 115.483 116.466 117.909C114.008 117.31 111.443 119.614 111.797 122.317C109.324 121.995 109.047 125.911 109.047 125.911C108.633 124.283 107.404 123.408 105.085 123.561C103.948 121.273 102.121 120.044 99.4328 120.198C98.542 117.018 96.8679 115.851 94.2415 117.111C93.32 115.206 92.1681 113.609 89.4189 114.254C88.5127 112.334 87.0997 111.182 84.7498 111.474C83.8897 108.725 82.2924 107.634 79.8043 108.54C79.6814 105.622 77.8844 105.069 75.1659 105.791C74.1522 103.073 71.9252 102.289 69.2221 102.259C68.8381 99.5401 67.8859 97.7585 64.7066 99.5709C64.7066 97.6971 63.4011 97.0213 61.0359 97.3899C60.6826 95.9308 59.2389 95.7619 57.5341 95.9769C56.6279 96.5298 55.7064 97.2517 54.7388 98.1118C51.283 98.1579 48.5645 99.9088 46.5833 103.288L43.3886 104.01C41.4534 104.455 39.7025 105.515 38.4124 107.035L38.0131 107.511L115.129 152.313L162.634 116.788C164.477 114.377 165.89 112.134 166.704 110.168L161.052 107.081C159.347 103.917 157.366 101.491 153.803 103.119C153.649 101.951 152.927 101.537 151.591 101.905C151.422 101.567 148.596 101.276 146.338 105.745C144.772 105.069 142.944 105.622 141.854 107.819L141.838 107.865Z" fill="#F2F2F2"/>
<path d="M56.7174 106.282C56.477 105.504 55.6547 105.067 54.8808 105.307C54.1068 105.546 53.6742 106.37 53.9146 107.148L54.3182 108.454C54.5586 109.232 55.3809 109.669 56.1548 109.43C56.9288 109.191 57.3613 108.366 57.121 107.588L56.7174 106.282Z" fill="white"/>
<path d="M74.1708 118.775C73.9304 117.997 73.1081 117.56 72.3341 117.8C71.5602 118.039 71.1276 118.863 71.368 119.641L71.7715 120.947C72.0119 121.725 72.8342 122.162 73.6082 121.923C74.3822 121.684 74.8147 120.859 74.5743 120.081L74.1708 118.775Z" fill="white"/>
<path d="M99.1349 127.043C98.8945 126.265 98.0722 125.828 97.2982 126.067C96.5243 126.307 96.0917 127.131 96.3321 127.909L96.7356 129.215C96.976 129.993 97.7983 130.43 98.5723 130.191C99.3463 129.952 99.7788 129.127 99.5384 128.349L99.1349 127.043Z" fill="white"/>
<path d="M121.626 120.052C121.386 119.274 120.563 118.837 119.789 119.076C119.015 119.315 118.583 120.14 118.823 120.918L119.227 122.224C119.467 123.002 120.29 123.439 121.064 123.2C121.837 122.96 122.27 122.136 122.03 121.358L121.626 120.052Z" fill="white"/>
<path d="M109.233 138.787C108.993 138.009 108.171 137.572 107.397 137.812C106.623 138.051 106.19 138.875 106.431 139.653L106.834 140.959C107.075 141.737 107.897 142.174 108.671 141.935C109.445 141.696 109.877 140.871 109.637 140.093L109.233 138.787Z" fill="white"/>
<path d="M90.7721 106.658C90.5317 105.88 89.7094 105.443 88.9355 105.682C88.1615 105.921 87.7289 106.746 87.9693 107.524L88.3729 108.83C88.6132 109.608 89.4355 110.045 90.2095 109.806C90.9835 109.566 91.416 108.742 91.1756 107.964L90.7721 106.658Z" fill="#F2F2F2"/>
<path d="M84.9044 100.773C84.664 99.9949 83.8417 99.5581 83.0678 99.7972C82.2938 100.036 81.8613 100.861 82.1016 101.639L82.5052 102.945C82.7456 103.723 83.5679 104.16 84.3418 103.921C85.1158 103.682 85.5484 102.857 85.308 102.079L84.9044 100.773Z" fill="#1E1E1E"/>
<path d="M121.203 97.5297C120.963 96.7516 120.141 96.3148 119.367 96.5539C118.593 96.7931 118.16 97.6176 118.401 98.3957L118.804 99.7017C119.045 100.48 119.867 100.917 120.641 100.677C121.415 100.438 121.847 99.6137 121.607 98.8357L121.203 97.5297Z" fill="#1E1E1E"/>
<path d="M110.058 129.481C109.818 128.703 108.995 128.266 108.221 128.505C107.447 128.744 107.015 129.569 107.255 130.347L107.659 131.653C107.899 132.431 108.722 132.868 109.496 132.629C110.269 132.389 110.702 131.565 110.462 130.787L110.058 129.481Z" fill="#1E1E1E"/>
<path d="M67.4575 107.454C67.2171 106.676 66.3948 106.239 65.6209 106.478C64.8469 106.717 64.4144 107.542 64.6547 108.32L65.0583 109.626C65.2987 110.404 66.121 110.84 66.8949 110.601C67.6689 110.362 68.1015 109.538 67.8611 108.76L67.4575 107.454Z" fill="#1E1E1E"/>
<path d="M88.0918 120.474C87.8514 119.696 87.0291 119.259 86.2552 119.498C85.4812 119.737 85.0486 120.562 85.289 121.34L85.6926 122.646C85.9329 123.424 86.7552 123.861 87.5292 123.622C88.3032 123.382 88.7357 122.558 88.4953 121.78L88.0918 120.474Z" fill="#1E1E1E"/>
<path d="M140.973 110.205C140.733 109.427 139.91 108.99 139.136 109.229C138.362 109.469 137.93 110.293 138.17 111.071L138.574 112.377C138.814 113.155 139.636 113.592 140.41 113.353C141.184 113.114 141.617 112.289 141.377 111.511L140.973 110.205Z" fill="#1E1E1E"/>
<path d="M93.9756 83.7587C93.7352 82.9807 92.9129 82.5438 92.1389 82.7829C91.365 83.0221 90.9324 83.8467 91.1728 84.6247L91.5763 85.9307C91.8167 86.7087 92.639 87.1456 93.413 86.9064C94.187 86.6673 94.6195 85.8427 94.3791 85.0647L93.9756 83.7587Z" fill="#1E1E1E"/>
<path d="M76.0001 95.6448C75.7597 94.8668 74.9374 94.4299 74.1635 94.6691C73.3895 94.9082 72.957 95.7328 73.1974 96.5108L73.6009 97.8168C73.8413 98.5948 74.6636 99.0317 75.4375 98.7925C76.2115 98.5534 76.6441 97.7288 76.4037 96.9508L76.0001 95.6448Z" fill="#F2F2F2"/>
<path d="M88.0308 94.3484C87.7904 93.5704 86.9681 93.1335 86.1941 93.3727C85.4201 93.6118 84.9876 94.4364 85.228 95.2144L85.6315 96.5204C85.8719 97.2984 86.6942 97.7353 87.4682 97.4961C88.2421 97.257 88.6747 96.4324 88.4343 95.6544L88.0308 94.3484Z" fill="#F2F2F2"/>
<path d="M107.124 85.5425C106.884 84.7645 106.061 84.3276 105.287 84.5668C104.514 84.8059 104.081 85.6305 104.321 86.4085L104.725 87.7145C104.965 88.4925 105.788 88.9294 106.562 88.6902C107.336 88.4511 107.768 87.6265 107.528 86.8485L107.124 85.5425Z" fill="#F2F2F2"/>
<path d="M136.504 98.7645C136.264 97.9865 135.441 97.5497 134.668 97.7888C133.894 98.0279 133.461 98.8525 133.701 99.6305L134.105 100.937C134.345 101.715 135.168 102.151 135.942 101.912C136.716 101.673 137.148 100.849 136.908 100.071L136.504 98.7645Z" fill="#F2F2F2"/>
<path d="M127.595 101.429C127.354 100.651 126.532 100.215 125.758 100.454C124.984 100.693 124.552 101.517 124.792 102.295L125.196 103.601C125.436 104.379 126.258 104.816 127.032 104.577C127.806 104.338 128.239 103.513 127.998 102.735L127.595 101.429Z" fill="#F2F2F2"/>
<path d="M115.483 107.926C115.713 113.532 111.443 117.679 105.776 116.819C100.108 115.959 94.61 112.211 94.3796 106.605C94.1493 100.999 96.8831 94.7636 102.535 95.6083C108.187 96.453 115.237 102.305 115.467 107.911L115.483 107.926Z" fill="#F2F2F2"/>
<path d="M113.64 103.856C113.64 108.986 109.539 113.409 104.332 113.409C99.1256 113.409 94.1801 110.706 94.1801 105.576C94.1801 100.446 96.9293 94.3182 102.136 94.3182C107.343 94.3182 113.64 98.7262 113.64 103.871V103.856Z" fill="#771334"/>
<path d="M112.718 100.477C110.783 96.9292 106.145 94.3029 102.136 94.3029C96.9293 94.3029 94.1801 100.431 94.1801 105.561C94.1801 105.791 94.1954 106.022 94.2261 106.237C96.3764 107.65 99.3406 108.371 102.382 108.371C107.619 108.371 111.858 104.87 112.718 100.462V100.477Z" fill="#961D42"/>
<path d="M104.332 113.639C97.1904 113.639 93.9497 109.462 93.9497 105.576C93.9497 99.9241 97.0061 94.0878 102.136 94.0878C107.266 94.0878 113.87 98.6033 113.87 103.871C113.87 109.139 109.585 113.655 104.332 113.655V113.639ZM102.136 94.5485C96.8064 94.5485 94.4105 100.999 94.4105 105.576C94.4105 110.798 99.5557 113.179 104.332 113.179C109.109 113.179 113.409 109.001 113.409 103.856C113.409 98.7108 107.204 94.5332 102.136 94.5332V94.5485Z" fill="black"/>
<path d="M115.129 152.605L114.991 152.528L37.6444 107.588L38.228 106.897C39.5335 105.346 41.3459 104.256 43.3272 103.795L46.4143 103.088C48.4263 99.7094 51.1908 97.9585 54.6312 97.8817C56.9197 95.839 58.9317 94.687 60.7747 94.4106C61.8805 91.9993 63.7697 90.9395 66.3653 91.262C68.4387 88.7893 70.4507 87.6374 72.3859 87.8524C73.7375 85.226 75.5652 84.197 77.9305 84.7038C78.9902 82.1082 80.9408 81.0177 83.7822 81.4478C85.2412 79.1901 87.0229 78.1764 89.1116 78.4375C90.4325 76.0722 92.1834 75.0893 94.2722 75.4886C94.5794 74.2445 95.0401 73.4919 95.7159 73.1387C96.4224 72.7701 97.3132 72.8315 98.6034 73.3384C99.9396 72.4476 101.66 72.7547 102.766 74.0909C103.61 73.9834 104.301 74.1524 104.824 74.5978C105.377 75.0585 105.699 75.8111 105.761 76.7634C107.926 76.0415 109.831 76.5023 111.443 78.1303C114.408 77.8231 116.205 79.0672 116.742 81.8164C118.278 81.3864 120.075 81.2635 121.104 83.3216C122.44 83.1219 123.546 83.3676 124.329 84.0741C125.113 84.7806 125.527 85.8865 125.497 87.238C126.986 86.7005 128.23 86.6851 129.198 87.192C130.242 87.7295 130.995 88.8814 131.44 90.6016C134.144 90.2944 135.772 91.1852 136.294 93.228C138.336 92.7672 139.934 93.6427 141.147 95.9158C143.313 95.455 145.125 96.438 146.553 98.8646C148.074 98.3578 149.287 98.3732 150.163 98.9107C150.961 99.4022 151.499 100.308 151.745 101.645C152.405 101.491 152.927 101.552 153.311 101.798C153.634 102.013 153.833 102.336 153.956 102.796C157.55 101.322 159.578 103.887 161.206 106.913L169.868 111.643L115.114 152.59L115.129 152.605ZM38.3509 107.466L115.083 152.052L169.023 111.72L160.868 107.266L160.837 107.204C159.009 103.81 157.136 101.86 153.88 103.349L153.588 103.472L153.542 103.165C153.48 102.689 153.311 102.366 153.05 102.182C152.743 101.982 152.252 101.967 151.622 102.151L151.376 102.228L151.33 101.967C151.13 100.646 150.67 99.7554 149.932 99.31C149.149 98.8339 147.997 98.8493 146.538 99.3715L146.354 99.4329L146.262 99.264C144.864 96.8219 143.175 95.885 141.086 96.4072L140.901 96.4533L140.825 96.2844C139.657 93.9959 138.183 93.1819 136.186 93.7348L135.956 93.7962L135.91 93.5505C135.51 91.5385 134.005 90.7398 131.318 91.0931L131.118 91.1238L131.072 90.9242C130.672 89.2193 129.981 88.1135 129.014 87.6067C128.092 87.1305 126.864 87.192 125.358 87.8063L125.02 87.9446L125.051 87.5759C125.143 86.209 124.79 85.0878 124.053 84.4274C123.346 83.7977 122.317 83.5827 121.043 83.813L120.874 83.8438L120.797 83.6748C120.06 82.0621 118.862 81.6628 116.665 82.3232L116.42 82.4L116.373 82.1389C115.928 79.4358 114.315 78.2685 111.428 78.5911H111.32L111.244 78.5143C109.662 76.8709 107.849 76.4715 105.684 77.2856L105.377 77.4084V77.0859C105.377 76.4101 105.223 75.4886 104.578 74.9357C104.133 74.5671 103.518 74.4288 102.75 74.5517H102.612L102.535 74.4596C101.537 73.1848 100.016 72.893 98.8184 73.7684L98.7109 73.8452L98.588 73.7991C97.3747 73.3076 96.5453 73.2155 95.9617 73.5227C95.378 73.8298 94.9787 74.5517 94.7022 75.7958L94.6562 76.0261L94.4258 75.9801C92.3831 75.5039 90.7704 76.4255 89.4803 78.7907L89.4035 78.929L89.2499 78.8982C87.2225 78.5911 85.5484 79.5279 84.1354 81.801L84.0586 81.9239L83.905 81.8932C81.1404 81.4171 79.3127 82.4461 78.3451 85.0264L78.2684 85.2107L78.0687 85.1646C75.7802 84.5963 74.0601 85.5793 72.7699 88.1749L72.6931 88.3285L72.5242 88.2978C70.6811 88.0213 68.7306 89.1425 66.6725 91.6307L66.5957 91.7228H66.4728C63.9386 91.3542 62.2184 92.3372 61.1894 94.687L61.1433 94.8099H61.0205C59.2542 95.071 57.2115 96.2229 54.9384 98.2656L54.8769 98.3271H54.7848C51.4519 98.3732 48.7642 100.078 46.8136 103.395L46.7675 103.488L43.4807 104.24C41.607 104.67 39.8714 105.715 38.6274 107.189L38.397 107.45L38.3509 107.466Z" fill="black"/>
<mask id="mask8_3744_29164" style="mask-type:luminance" maskUnits="userSpaceOnUse" x="94" y="73" width="169" height="98">
<path d="M94.5486 140.21L144.726 169.469C144.726 169.469 148.012 172.31 151.914 169.561C156.137 166.581 262.466 105.208 262.466 105.208C262.343 100.616 259.317 91.0163 252.252 84.1817C249.073 80.8027 245.372 78.33 240.872 76.2873C232.086 72.7701 225.881 72.9544 222.241 73.3537C206.069 71.8946 142.453 112.58 94.5486 140.21Z" fill="white"/>
</mask>
<g mask="url(#mask8_3744_29164)">
<path d="M225.666 148.043C246.194 148.043 262.835 131.403 262.835 110.875C262.835 90.3478 246.194 73.707 225.666 73.707C205.139 73.707 188.498 90.3478 188.498 110.875C188.498 131.403 205.139 148.043 225.666 148.043Z" fill="white"/>
<path d="M207.558 78.4221C207.558 78.4221 238.092 87.2995 233.592 121.949L223.224 127.908L192.292 94.9174C196.331 87.0384 201.415 81.5246 207.574 78.4221H207.558Z" fill="#EDEDED"/>
<path d="M225.666 148.289C205.04 148.289 188.268 131.517 188.268 110.891C188.268 90.2637 205.04 73.4919 225.666 73.4919C246.293 73.4919 263.065 90.2637 263.065 110.891C263.065 131.517 246.293 148.289 225.666 148.289ZM225.666 73.9373C205.301 73.9373 188.729 90.5095 188.729 110.875C188.729 131.241 205.301 147.813 225.666 147.813C246.032 147.813 262.604 131.241 262.604 110.875C262.604 90.5095 246.032 73.9373 225.666 73.9373Z" fill="black"/>
<path d="M228.247 122.256C222.18 122.256 217.234 117.326 217.234 111.244C217.234 105.162 222.18 100.232 228.247 100.232C233.254 100.232 237.493 103.595 238.814 108.187H243.068C241.655 101.291 235.542 96.1001 228.231 96.1001C219.876 96.1001 213.088 102.889 213.088 111.244C213.088 119.599 219.876 126.388 228.231 126.388C235.542 126.388 241.64 121.196 243.068 114.3H238.814C237.493 118.893 233.254 122.256 228.247 122.256Z" fill="#435363"/>
<path d="M220.828 118.678C222.733 120.582 225.359 121.749 228.247 121.749V117.357C226.557 117.357 225.037 116.666 223.931 115.56L220.828 118.662V118.678Z" fill="#435363"/>
<path d="M217.741 111.259C217.741 112.764 218.064 114.193 218.632 115.483L222.641 113.717C222.303 112.964 222.119 112.135 222.119 111.259C222.119 107.88 224.852 105.146 228.231 105.146V100.754C222.441 100.754 217.741 105.469 217.741 111.244" fill="#F38B00"/>
<path d="M232.056 101.476L230.458 105.561C231.764 106.068 232.839 107.005 233.53 108.203H238.276C237.339 105.116 235.02 102.643 232.04 101.476" fill="#435363"/>
<path d="M230.458 116.942L232.056 121.027C235.035 119.86 237.354 117.387 238.291 114.3H233.545C232.854 115.498 231.764 116.435 230.474 116.942" fill="#F38B00"/>
<path d="M208.818 117.126C208.741 116.896 208.68 116.665 208.618 116.435C208.618 116.435 208.618 116.404 208.618 116.389C208.557 116.174 208.511 115.959 208.465 115.744C208.465 115.698 208.449 115.652 208.434 115.606C208.388 115.421 208.357 115.237 208.311 115.037C208.296 114.961 208.28 114.868 208.265 114.792C208.234 114.638 208.219 114.485 208.188 114.346C208.173 114.223 208.157 114.085 208.127 113.962C208.004 113.072 207.942 112.181 207.942 111.275H203.796C203.796 112.273 203.857 113.256 203.98 114.223C203.98 114.223 203.98 114.269 203.98 114.285C204.011 114.546 204.041 114.807 204.087 115.068C204.087 115.145 204.118 115.206 204.118 115.283C204.149 115.498 204.195 115.713 204.226 115.928C204.241 116.036 204.272 116.159 204.302 116.266C204.333 116.435 204.379 116.604 204.41 116.773C204.441 116.927 204.487 117.065 204.517 117.218C204.548 117.357 204.579 117.479 204.625 117.618C204.671 117.787 204.717 117.971 204.778 118.14C204.794 118.217 204.825 118.293 204.84 118.355C205.132 119.307 205.47 120.229 205.854 121.12L209.647 119.445C209.325 118.708 209.033 117.94 208.802 117.157L208.818 117.126Z" fill="#435363"/>
<path d="M228.247 131.548C222.656 131.548 217.588 129.275 213.902 125.589L210.968 128.522C215.391 132.946 221.504 135.68 228.247 135.68C240.703 135.68 250.993 126.357 252.498 114.3H248.321C246.846 124.038 238.414 131.533 228.262 131.533" fill="#F38B00"/>
<path d="M228.247 90.9704C232.793 90.9704 236.986 92.4755 240.38 95.0097L242.868 91.6769C238.798 88.6358 233.73 86.8235 228.247 86.8235C217.88 86.8235 209.018 93.2895 205.47 102.397L209.34 103.902C212.289 96.3459 219.661 90.9704 228.247 90.9704Z" fill="#F38B00"/>
<path d="M248.305 108.203H252.483C252.037 104.609 250.809 101.261 248.966 98.3119L245.448 100.508C246.892 102.797 247.875 105.408 248.305 108.188" fill="#435363"/>
<path d="M243.59 108.203H247.783C246.693 101.168 241.87 95.3475 235.404 92.8286L233.899 96.6837C238.814 98.6035 242.53 102.935 243.575 108.203" fill="#F38B00"/>
<path d="M228.247 95.6086V91.4771C219.861 91.4771 212.688 96.7144 209.816 104.087L213.671 105.592C215.944 99.7554 221.627 95.6239 228.262 95.6239" fill="#435363"/>
<path d="M212.596 111.259H208.465C208.465 119.568 213.625 126.695 220.905 129.628L222.441 125.789C216.682 123.469 212.596 117.833 212.596 111.259Z" fill="#F38B00"/>
<path d="M228.247 126.91V131.041C238.122 131.041 246.324 123.777 247.798 114.316H243.605C242.177 121.488 235.834 126.91 228.262 126.91" fill="#435363"/>
<path d="M187.469 167.503C207.997 167.503 224.637 150.862 224.637 130.335C224.637 109.808 207.997 93.1667 187.469 93.1667C166.942 93.1667 150.301 109.808 150.301 130.335C150.301 150.862 166.942 167.503 187.469 167.503Z" fill="white"/>
<path d="M158.84 107.727C158.84 107.727 192.584 108.525 200.186 141.24L184.705 150.178L153.219 117.311C153.219 117.311 154.724 108.387 158.84 107.727Z" fill="#EDEDED"/>
<path d="M187.469 167.733C166.842 167.733 150.071 150.962 150.071 130.335C150.071 109.708 166.842 92.9363 187.469 92.9363C208.096 92.9363 224.868 109.708 224.868 130.335C224.868 150.962 208.096 167.733 187.469 167.733ZM187.469 93.3817C167.103 93.3817 150.531 109.954 150.531 130.32C150.531 150.685 167.103 167.257 187.469 167.257C207.835 167.257 224.407 150.685 224.407 130.32C224.407 109.954 207.835 93.3817 187.469 93.3817Z" fill="black"/>
<path d="M200.063 116.189L189.543 120.659L193.981 131.072L204.502 126.603L200.063 116.189Z" fill="#FFA61A"/>
<path d="M191.939 142.714L188.652 144.112L187.27 140.856L190.556 139.458L191.939 142.714ZM192.829 133.867L181.664 138.629L186.379 149.702L197.545 144.941L192.829 133.867Z" fill="#FFA61A"/>
<path d="M190.894 123.209L181.449 119.461L182.938 115.836L192.384 119.584L190.894 123.209Z" fill="#FFA61A"/>
<path d="M193.812 136.448L190.172 135.004L193.213 127.555L196.853 128.999L193.812 136.448Z" fill="#FFA61A"/>
<path d="M181.126 117.311L177.839 118.708L176.457 115.452L179.744 114.055L181.126 117.311ZM182.017 108.464L170.851 113.225L175.566 124.299L186.732 119.538L182.017 108.464Z" fill="#FFA61A"/>
<path d="M150.024 190.265C170.552 190.265 187.193 173.624 187.193 153.097C187.193 132.569 170.552 115.928 150.024 115.928C129.497 115.928 112.856 132.569 112.856 153.097C112.856 173.624 129.497 190.265 150.024 190.265Z" fill="white"/>
<path d="M150.024 190.495C129.398 190.495 112.626 173.708 112.626 153.096C112.626 132.485 129.398 115.698 150.024 115.698C170.651 115.698 187.423 132.47 187.423 153.096C187.423 173.723 170.651 190.495 150.024 190.495ZM150.024 116.143C129.659 116.143 113.087 132.715 113.087 153.081C113.087 173.447 129.659 190.019 150.024 190.019C170.39 190.019 186.962 173.447 186.962 153.081C186.962 132.715 170.39 116.143 150.024 116.143Z" fill="black"/>
<path d="M177.098 159.156C178.134 156.464 175.81 153.064 171.908 151.562C168.005 150.059 164.002 151.023 162.965 153.714C161.929 156.405 164.252 159.805 168.155 161.308C172.057 162.811 176.061 161.847 177.098 159.156Z" fill="white"/>
<path d="M171.834 162.834C170.544 162.834 169.177 162.573 167.856 162.066C163.54 160.407 161.006 156.537 162.204 153.434C163.402 150.332 167.871 149.165 172.187 150.823C174.23 151.607 175.935 152.912 177.01 154.479C178.146 156.138 178.438 157.904 177.839 159.47C177.24 161.022 175.827 162.143 173.877 162.604C173.216 162.757 172.525 162.834 171.819 162.834H171.834ZM168.194 151.668C166.059 151.668 164.293 152.513 163.709 154.018C162.834 156.291 164.953 159.225 168.44 160.576C170.175 161.252 171.972 161.406 173.508 161.037C174.936 160.699 175.935 159.931 176.334 158.887C176.733 157.842 176.503 156.598 175.674 155.385C174.783 154.079 173.339 153.004 171.604 152.329C170.436 151.883 169.254 151.668 168.179 151.668H168.194Z" fill="black"/>
<path d="M140.251 144.434C141.235 141.878 138.87 138.587 134.967 137.084C131.065 135.581 127.103 136.436 126.118 138.993C125.134 141.549 127.499 144.84 131.402 146.343C135.304 147.846 139.266 146.991 140.251 144.434Z" fill="white"/>
<path d="M135.219 147.905C133.882 147.905 132.469 147.629 131.102 147.107C126.71 145.417 124.191 141.731 125.343 138.706C126.51 135.695 130.857 134.651 135.234 136.34C137.261 137.124 138.982 138.383 140.072 139.904C141.239 141.516 141.562 143.236 140.978 144.742C140.395 146.247 139.012 147.291 137.062 147.721C136.463 147.844 135.833 147.905 135.188 147.905H135.219ZM131.149 137.17C129.09 137.17 127.386 137.922 126.863 139.289C126.049 141.393 128.261 144.281 131.686 145.602C133.437 146.277 135.234 146.462 136.755 146.139C138.152 145.832 139.135 145.141 139.504 144.158C139.872 143.19 139.627 142.008 138.797 140.84C137.891 139.581 136.432 138.506 134.681 137.845C133.483 137.385 132.27 137.17 131.164 137.17H131.149Z" fill="black"/>
<path d="M175.146 158.66C176.377 155.462 174.212 151.651 170.309 150.149C166.407 148.646 162.245 150.02 161.014 153.218C159.782 156.416 161.948 160.227 165.85 161.73C169.753 163.232 173.914 161.858 175.146 158.66Z" fill="black"/>
<path d="M141.966 145.493C143.112 142.517 140.878 138.886 136.975 137.383C133.073 135.88 128.98 137.075 127.834 140.051C126.688 143.028 128.923 146.659 132.825 148.161C136.728 149.664 140.82 148.469 141.966 145.493Z" fill="black"/>
<path d="M172.67 159.127C174.819 153.546 166.897 145.301 154.975 140.711C143.054 136.12 131.648 136.923 129.499 142.504C127.35 148.084 135.272 156.33 147.193 160.92C159.115 165.511 170.521 164.708 172.67 159.127Z" fill="black"/>
<path d="M160.572 166.657C162.572 161.465 158.058 154.893 150.49 151.979C142.923 149.065 135.167 150.912 133.168 156.105C131.168 161.298 135.682 167.869 143.249 170.783C150.817 173.697 158.572 171.85 160.572 166.657Z" fill="white"/>
<path d="M150.393 172.541C148.074 172.541 145.601 172.095 143.128 171.143C139.396 169.715 136.278 167.349 134.328 164.523C132.346 161.651 131.824 158.61 132.838 155.984C134.911 150.608 142.898 148.658 150.639 151.637C158.38 154.617 163.003 161.421 160.929 166.797C159.516 170.467 155.354 172.541 150.393 172.541ZM143.359 150.977C138.705 150.977 134.835 152.866 133.544 156.245C132.623 158.641 133.13 161.421 134.957 164.093C136.816 166.812 139.826 169.054 143.405 170.437C150.777 173.278 158.318 171.512 160.253 166.52C162.173 161.529 157.75 155.155 150.393 152.313C148.012 151.392 145.601 150.962 143.374 150.962L143.359 150.977Z" fill="#BA7435"/>
<path d="M172.539 158.535C173.621 155.724 171.193 152.174 167.117 150.604C163.04 149.034 158.858 150.04 157.776 152.85C156.694 155.66 159.121 159.211 163.198 160.78C167.275 162.35 171.457 161.345 172.539 158.535Z" fill="white"/>
<path d="M167.042 161.79C165.767 161.79 164.416 161.529 163.11 161.022C158.902 159.409 156.414 155.708 157.535 152.774C158.671 149.841 163.003 148.781 167.196 150.393C171.404 152.006 173.892 155.708 172.771 158.641C172.218 160.085 170.897 161.114 169.054 161.559C168.409 161.713 167.733 161.79 167.042 161.79ZM163.264 150.132C160.776 150.132 158.702 151.146 157.996 152.958C156.967 155.631 159.332 159.056 163.279 160.576C165.199 161.314 167.211 161.498 168.931 161.083C170.621 160.684 171.819 159.747 172.31 158.472C173.339 155.8 170.974 152.375 167.027 150.87C165.752 150.378 164.462 150.148 163.264 150.148V150.132Z" fill="#BA7435"/>
<path d="M144.623 147.809C145.702 145.006 143.304 141.475 139.267 139.92C135.23 138.365 131.082 139.377 130.003 142.179C128.924 144.981 131.322 148.513 135.359 150.068C139.396 151.622 143.544 150.611 144.623 147.809Z" fill="white"/>
<path d="M139.15 151.054C137.891 151.054 136.555 150.808 135.28 150.301C131.118 148.704 128.645 145.018 129.782 142.084C130.903 139.166 135.219 138.091 139.365 139.688C141.362 140.456 143.036 141.731 144.081 143.252C145.14 144.818 145.417 146.462 144.864 147.89C144.311 149.318 143.005 150.363 141.162 150.808C140.517 150.962 139.842 151.038 139.15 151.038V151.054ZM135.48 139.443C133.007 139.443 130.933 140.456 130.227 142.269C129.198 144.941 131.548 148.335 135.449 149.841C137.353 150.578 139.35 150.747 141.04 150.332C142.714 149.933 143.896 148.996 144.388 147.721C144.879 146.446 144.618 144.956 143.651 143.543C142.668 142.1 141.07 140.886 139.166 140.164C137.906 139.673 136.632 139.443 135.464 139.443H135.48Z" fill="#BA7435"/>
<path d="M161.206 158.195C162.622 158.195 163.771 157.047 163.771 155.631C163.771 154.214 162.622 153.066 161.206 153.066C159.789 153.066 158.641 154.214 158.641 155.631C158.641 157.047 159.789 158.195 161.206 158.195Z" fill="black"/>
<path d="M160.591 156.276C161.007 156.276 161.344 155.939 161.344 155.523C161.344 155.108 161.007 154.771 160.591 154.771C160.176 154.771 159.839 155.108 159.839 155.523C159.839 155.939 160.176 156.276 160.591 156.276Z" fill="white"/>
<path d="M140.487 150.224C141.903 150.224 143.052 149.076 143.052 147.66C143.052 146.243 141.903 145.095 140.487 145.095C139.07 145.095 137.922 146.243 137.922 147.66C137.922 149.076 139.07 150.224 140.487 150.224Z" fill="black"/>
<path d="M141.07 148.627C141.486 148.627 141.823 148.29 141.823 147.875C141.823 147.459 141.486 147.122 141.07 147.122C140.655 147.122 140.318 147.459 140.318 147.875C140.318 148.29 140.655 148.627 141.07 148.627Z" fill="white"/>
<path d="M149.026 133.729C148.642 133.161 148.304 133.36 148.135 133.729C147.966 134.113 147.966 134.328 148.135 134.651C149.441 136.417 150.439 138.552 151.192 140.456C151.545 140.533 151.837 140.625 152.175 140.702C150.746 136.57 149.026 133.714 149.026 133.714V133.729Z" fill="black"/>
<path d="M153.434 145.233C153.096 143.62 152.651 142.1 152.175 140.717C151.852 140.641 151.545 140.548 151.192 140.472C152.252 143.19 152.774 145.479 152.82 145.678C152.897 146.016 153.019 146.093 153.019 146.093C153.019 146.093 153.219 145.97 153.388 145.755C153.557 145.54 153.434 145.233 153.434 145.233Z" fill="white"/>
<path d="M154.233 142.269C154.279 142.668 154.386 142.775 154.494 142.791C154.601 142.806 154.878 142.376 154.893 141.854C154.893 141.777 154.924 141.685 154.909 141.455C154.663 141.393 154.371 141.286 154.125 141.224C154.171 141.547 154.202 141.9 154.233 142.253V142.269Z" fill="white"/>
<path d="M153.879 135.511C153.572 135.204 153.449 135.173 153.327 135.28C153.204 135.388 152.897 136.002 152.881 136.171C152.866 136.34 152.927 136.571 152.989 136.74C152.989 136.74 153.787 138.383 154.125 141.24C154.371 141.301 154.632 141.332 154.893 141.409C154.862 140.18 154.647 137.093 153.879 135.526V135.511Z" fill="black"/>
<path d="M151.008 165.513C152.026 162.869 150.657 159.881 147.95 158.838C145.242 157.796 142.222 159.094 141.204 161.738C140.186 164.382 141.556 167.37 144.263 168.413C146.97 169.455 149.99 168.157 151.008 165.513Z" fill="black"/>
<path d="M148.852 154.784C149.029 154.325 148.851 153.829 148.455 153.677C148.059 153.524 147.595 153.773 147.418 154.232C147.242 154.691 147.419 155.187 147.815 155.339C148.211 155.492 148.675 155.243 148.852 154.784Z" fill="black"/>
<path d="M151.637 155.847C151.814 155.388 151.637 154.892 151.241 154.74C150.845 154.588 150.381 154.836 150.204 155.295C150.027 155.755 150.205 156.25 150.601 156.403C150.996 156.555 151.461 156.306 151.637 155.847Z" fill="black"/>
</g>
<path d="M148.166 216.144C148.074 216.144 147.982 216.144 147.89 216.144H147.598C147.521 216.144 147.444 216.144 147.367 216.144H147.229C146.983 216.129 146.722 216.114 146.477 216.098H146.338C146.338 216.098 146.216 216.098 146.154 216.083C146.077 216.083 146.016 216.083 145.939 216.052H145.801C145.555 216.006 145.309 215.991 145.064 215.96H144.941C144.941 215.96 144.787 215.929 144.71 215.914C144.649 215.914 144.587 215.899 144.541 215.883C144.495 215.883 144.449 215.868 144.403 215.852C144.142 215.806 143.881 215.76 143.605 215.714L143.451 215.684C143.451 215.684 143.313 215.668 143.236 215.653L142.99 215.591C142.683 215.53 142.376 215.453 142.069 215.361L141.915 215.33C141.915 215.33 141.761 215.3 141.685 215.269C141.654 215.269 141.639 215.269 141.608 215.238C141.086 215.085 140.625 214.931 140.195 214.777L139.903 214.67C139.903 214.67 139.888 214.67 139.872 214.67L139.734 214.608C138.966 214.286 138.321 213.979 137.737 213.641L25.173 148.658C22.301 146.999 20.719 144.772 20.7344 142.407L20.8419 104.102H21.3026C21.3026 106.314 22.7924 108.387 25.5109 109.954L138.045 174.921C138.613 175.244 139.258 175.551 139.995 175.858L140.21 175.95C140.686 176.135 141.209 176.319 141.761 176.473C141.869 176.503 141.977 176.534 142.084 176.565L142.253 176.611C142.545 176.688 142.852 176.764 143.159 176.826C143.359 176.872 143.558 176.903 143.758 176.949C144.019 176.995 144.265 177.041 144.526 177.087C144.741 177.118 144.956 177.148 145.171 177.179C145.417 177.21 145.663 177.241 145.908 177.256C146.139 177.271 146.354 177.302 146.584 177.317C146.83 177.333 147.076 177.348 147.321 177.363C147.552 177.363 147.767 177.363 147.982 177.379C148.243 177.379 148.519 177.379 148.78 177.379C148.995 177.379 149.195 177.379 149.41 177.379C149.733 177.379 150.071 177.333 150.393 177.317H150.501C150.639 177.302 150.777 177.287 150.915 177.271C151.484 177.21 152.036 177.133 152.574 177.041C152.697 177.026 152.804 176.995 152.927 176.964L153.127 176.918C153.403 176.857 153.665 176.81 153.926 176.749C154.064 176.718 154.202 176.672 154.34 176.642L154.509 176.595C154.755 176.534 155.016 176.457 155.262 176.38C155.339 176.35 155.415 176.334 155.492 176.304L155.677 176.242C156.06 176.119 156.444 175.966 156.813 175.812L156.905 175.781C157.013 175.735 157.12 175.689 157.228 175.643C157.781 175.397 158.211 175.182 158.595 174.952L270.391 109.984C270.529 109.908 270.652 109.816 270.775 109.739L271.036 109.57C271.174 109.478 271.313 109.385 271.451 109.293C271.558 109.217 271.666 109.124 271.773 109.048L271.942 108.909C272.065 108.817 272.188 108.71 272.296 108.618C272.342 108.571 272.388 108.525 272.434 108.479L272.526 108.387C272.741 108.172 272.941 107.957 273.125 107.742C273.202 107.65 273.279 107.558 273.355 107.45C273.478 107.281 273.586 107.128 273.693 106.959L273.739 106.882C273.785 106.805 273.832 106.728 273.878 106.636C273.954 106.498 274.016 106.344 274.077 106.191L274.108 106.114C274.154 106.022 274.185 105.93 274.216 105.853C274.262 105.73 274.292 105.607 274.323 105.5L274.369 105.346C274.4 105.254 274.415 105.162 274.431 105.085C274.461 104.947 274.461 104.809 274.477 104.686H274.507V104.655H274.477V104.501C274.477 104.425 274.492 104.332 274.492 104.24H274.953L274.845 142.683C274.845 142.745 274.845 142.822 274.83 142.883C274.83 142.914 274.83 142.96 274.83 142.99V143.052C274.815 143.19 274.799 143.328 274.768 143.467V143.543C274.768 143.543 274.722 143.682 274.707 143.743C274.707 143.774 274.676 143.82 274.676 143.851C274.63 144.02 274.6 144.173 274.538 144.311C274.538 144.357 274.523 144.388 274.507 144.403C274.492 144.465 274.461 144.526 274.431 144.572C274.415 144.603 274.4 144.634 274.384 144.665C274.323 144.818 274.246 144.987 274.169 145.141C274.139 145.202 274.123 145.233 274.108 145.264C274.077 145.31 274.047 145.356 274.016 145.402C274.001 145.433 273.97 145.448 273.954 145.479C273.847 145.663 273.724 145.832 273.601 146.001L273.57 146.062C273.57 146.062 273.524 146.124 273.509 146.154C273.494 146.185 273.448 146.216 273.417 146.247C273.402 146.262 273.386 146.277 273.371 146.293C273.186 146.523 272.971 146.753 272.726 146.984C272.71 146.999 272.68 147.03 272.664 147.045C272.634 147.076 272.603 147.107 272.572 147.153L272.511 147.199C272.357 147.337 272.219 147.445 272.081 147.552L271.912 147.69C271.804 147.767 271.712 147.859 271.589 147.936C271.451 148.028 271.313 148.12 271.174 148.212L270.929 148.381C270.852 148.443 270.775 148.489 270.683 148.55L270.499 148.658L158.702 213.625C158.303 213.856 157.842 214.086 157.305 214.332C157.212 214.378 157.105 214.424 156.997 214.455L156.875 214.501C156.491 214.654 156.107 214.808 155.707 214.946C155.661 214.946 155.63 214.977 155.584 214.992C155.538 215.008 155.492 215.023 155.446 215.054C155.415 215.054 155.369 215.069 155.339 215.085H155.277C155.031 215.177 154.77 215.253 154.525 215.315L154.371 215.361C154.233 215.407 154.079 215.438 153.941 215.469C153.726 215.515 153.511 215.561 153.281 215.607L152.927 215.684C152.835 215.699 152.743 215.73 152.635 215.745H152.574C152.021 215.852 151.453 215.929 150.869 215.991H150.746C150.67 216.021 150.593 216.021 150.516 216.021H150.347C150.009 216.067 149.687 216.083 149.349 216.098H149.118C149.042 216.114 148.949 216.114 148.873 216.114H148.719C148.535 216.114 148.366 216.114 148.181 216.114L148.166 216.144ZM140.118 214.255C140.594 214.439 141.116 214.624 141.669 214.777C141.7 214.777 141.715 214.777 141.746 214.808C141.869 214.839 141.93 214.854 141.992 214.87L142.161 214.916C142.453 214.992 142.76 215.069 143.067 215.131L143.313 215.192C143.313 215.192 143.436 215.207 143.497 215.223L143.666 215.253C143.927 215.3 144.188 215.346 144.434 215.392C144.48 215.392 144.526 215.407 144.587 215.422C144.634 215.422 144.695 215.438 144.741 215.453C144.818 215.453 144.879 215.468 144.956 215.484H145.094C145.34 215.53 145.586 215.561 145.832 215.576H145.985C145.985 215.576 146.108 215.607 146.185 215.622C146.246 215.622 146.308 215.622 146.354 215.622H146.507C146.753 215.653 146.999 215.668 147.245 215.668H147.398C147.398 215.668 147.536 215.684 147.613 215.684H147.905C148.166 215.684 148.443 215.684 148.704 215.684H148.873C148.873 215.684 149.026 215.684 149.103 215.684H149.333C149.656 215.653 149.994 215.637 150.316 215.607H150.501C150.501 215.607 150.639 215.591 150.716 215.576H150.839C151.407 215.499 151.975 215.422 152.497 215.33H152.574C152.666 215.3 152.758 215.284 152.835 215.269L153.204 215.192C153.419 215.146 153.634 215.1 153.849 215.054C153.987 215.023 154.125 214.977 154.264 214.946L154.417 214.9C154.663 214.839 154.924 214.762 155.17 214.685L155.339 214.639C155.339 214.639 155.415 214.608 155.462 214.593C155.508 214.578 155.554 214.562 155.6 214.532C155.984 214.409 156.352 214.255 156.736 214.102L156.859 214.055C156.951 214.009 157.059 213.979 157.151 213.933C157.673 213.702 158.119 213.472 158.518 213.241L270.499 148.166C270.575 148.12 270.652 148.074 270.714 148.013L270.975 147.844C271.113 147.752 271.251 147.66 271.374 147.567C271.482 147.491 271.574 147.414 271.666 147.337L271.85 147.199C271.973 147.091 272.096 146.999 272.219 146.892L272.28 146.846C272.28 146.846 272.357 146.769 272.372 146.753C272.403 146.723 272.434 146.692 272.465 146.661C272.68 146.446 272.895 146.231 273.064 146.016C273.079 145.985 273.11 145.955 273.14 145.939C273.156 145.924 273.171 145.909 273.186 145.878C273.202 145.863 273.217 145.832 273.233 145.816C273.248 145.786 273.263 145.755 273.294 145.724C273.417 145.555 273.524 145.402 273.632 145.233C273.647 145.202 273.678 145.156 273.709 145.125C273.739 145.095 273.755 145.064 273.77 145.018C273.801 144.956 273.816 144.926 273.832 144.91C273.908 144.772 273.97 144.618 274.031 144.48C274.047 144.434 274.077 144.403 274.093 144.357C274.108 144.311 274.139 144.265 274.154 144.219L274.185 144.127C274.231 143.989 274.262 143.866 274.292 143.743C274.308 143.666 274.323 143.62 274.338 143.574C274.338 143.528 274.369 143.482 274.384 143.436V143.359C274.415 143.236 274.431 143.098 274.431 142.975V142.914C274.431 142.914 274.446 142.822 274.446 142.775C274.446 142.729 274.446 142.668 274.461 142.622V142.499L274.569 106.314V106.344C274.492 106.498 274.415 106.667 274.338 106.821C274.292 106.913 274.231 107.005 274.185 107.082L274.139 107.158C274.031 107.343 273.908 107.512 273.785 107.681C273.709 107.788 273.632 107.88 273.54 107.988C273.34 108.218 273.125 108.449 272.895 108.679L272.803 108.771C272.803 108.771 272.695 108.879 272.649 108.925C272.526 109.032 272.403 109.14 272.265 109.247L272.111 109.37C272.004 109.462 271.896 109.554 271.773 109.631C271.635 109.723 271.482 109.831 271.343 109.923L271.082 110.092C270.944 110.184 270.821 110.276 270.668 110.353L158.871 175.321C158.472 175.551 158.026 175.781 157.458 176.027C157.351 176.073 157.243 176.119 157.12 176.165L157.028 176.196C156.644 176.35 156.26 176.503 155.861 176.642L155.677 176.703C155.6 176.734 155.508 176.764 155.431 176.795C155.185 176.872 154.924 176.949 154.663 177.01L154.509 177.056C154.371 177.102 154.233 177.133 154.079 177.164C153.818 177.225 153.542 177.287 153.281 177.333L153.066 177.379C152.943 177.409 152.82 177.425 152.697 177.456C152.159 177.548 151.591 177.624 151.007 177.686C150.869 177.686 150.731 177.717 150.577 177.717H150.47C150.132 177.747 149.809 177.778 149.472 177.793C149.257 177.793 149.042 177.793 148.827 177.809C148.565 177.809 148.289 177.809 148.012 177.809C147.782 177.809 147.567 177.809 147.337 177.793C147.091 177.793 146.83 177.778 146.584 177.747C146.354 177.732 146.123 177.717 145.893 177.686C145.647 177.655 145.402 177.64 145.14 177.609C144.925 177.578 144.695 177.548 144.48 177.517C144.219 177.471 143.958 177.425 143.697 177.379C143.497 177.333 143.282 177.302 143.082 177.256C142.775 177.194 142.468 177.118 142.161 177.025L141.992 176.979C141.884 176.949 141.761 176.918 141.654 176.887C141.086 176.718 140.548 176.534 140.057 176.35L139.842 176.258C139.074 175.95 138.413 175.628 137.83 175.29L25.2959 110.353C23.33 109.217 21.9631 107.819 21.3026 106.283L21.1951 142.407C21.1951 144.618 22.6849 146.692 25.4034 148.259L137.937 213.226C138.521 213.564 139.15 213.871 139.888 214.163C139.918 214.163 139.949 214.194 139.98 214.209L139.934 214.439L140.026 214.224V214.439L140.103 214.255H140.118Z" fill="black"/>
<path d="M148.335 177.824C144.541 177.824 140.732 176.995 137.814 175.321L25.2959 110.353C22.4391 108.694 20.8572 106.483 20.8572 104.117C20.8572 101.767 22.4084 99.5712 25.2344 97.9278L75.7187 68.5925L75.9491 68.9919L25.4648 98.3271C22.7924 99.8783 21.3179 101.936 21.3179 104.117C21.3179 106.314 22.8231 108.387 25.5262 109.954L138.06 174.921C143.758 178.193 152.973 178.193 158.595 174.921L270.391 109.954C273.064 108.402 274.538 106.344 274.538 104.163C274.538 101.967 273.033 99.8937 270.314 98.3271L256.246 90.2023L256.476 89.803L270.545 97.9278C273.401 99.5865 274.983 101.798 274.999 104.163C274.999 106.513 273.448 108.71 270.622 110.353L158.825 175.321C155.938 176.995 152.144 177.824 148.35 177.824H148.335ZM148.289 171.036C147.506 171.036 146.707 170.851 146.093 170.498L33.5742 105.546C32.9445 105.177 32.5913 104.686 32.5913 104.133C32.5913 103.595 32.9292 103.104 33.5589 102.735L79.4355 76.0722L79.6659 76.4716L33.7893 103.134C33.3131 103.411 33.052 103.764 33.052 104.133C33.052 104.501 33.3131 104.855 33.8046 105.146L146.338 170.114C147.429 170.744 149.18 170.744 150.255 170.114L150.485 170.513C149.871 170.867 149.088 171.051 148.289 171.051V171.036ZM150.485 170.498L150.255 170.099L262.051 105.131C262.527 104.855 262.789 104.501 262.789 104.133C262.789 103.764 262.527 103.411 262.036 103.119L262.266 102.72C262.896 103.088 263.249 103.58 263.249 104.133C263.249 104.67 262.911 105.162 262.282 105.53L150.485 170.498Z" fill="black"/>
<path d="M241.225 210.508C253.435 218.172 273.371 218.279 286.272 211.859C310.263 199.91 310.508 160.545 310.508 160.545H217.234C217.234 160.545 217.234 195.425 241.225 210.508Z" fill="white"/>
<path d="M264.816 216.728C256.092 216.728 247.445 214.7 241.087 210.707C217.265 195.732 216.989 160.899 216.989 160.545V160.315H310.723V160.545C310.723 160.945 310.201 200.186 286.349 212.059C280.067 215.192 272.403 216.728 264.801 216.728H264.816ZM217.449 160.776C217.511 163.832 218.74 196.116 241.332 210.308C253.113 217.711 272.802 218.294 286.149 211.644C308.788 200.371 310.17 164.032 310.247 160.776H217.449Z" fill="black"/>
<path d="M263.864 182.693C286.944 182.693 305.655 171.89 305.655 158.564C305.655 145.238 286.944 134.436 263.864 134.436C240.783 134.436 222.072 145.238 222.072 158.564C222.072 171.89 240.783 182.693 263.864 182.693Z" fill="#E2DED5"/>
<path d="M290.496 149.595C275.782 141.101 251.93 141.101 237.216 149.595C222.502 158.088 222.502 171.865 237.216 180.358C245.203 183.338 254.648 184.075 264.509 183.983C273.939 183.891 282.325 183.983 290.496 180.358C305.209 171.865 305.209 158.088 290.496 149.595Z" fill="#8EC165"/>
<path d="M268.656 159.225C261.637 155.17 250.271 155.17 243.252 159.225C236.233 163.279 236.233 169.838 243.252 173.892C247.061 175.305 251.561 175.659 256.261 175.612C260.761 175.566 264.755 175.612 268.656 173.892C275.675 169.838 275.675 163.279 268.656 159.225Z" fill="#AED88B"/>
<path d="M296.946 139.458C278.7 128.922 249.012 128.922 230.781 139.458C212.535 149.994 212.535 167.134 230.781 177.655C249.027 188.191 278.716 188.191 296.946 177.655C315.193 167.119 315.193 149.979 296.946 139.458ZM292.615 175.167C276.765 184.321 250.962 184.321 235.097 175.167C219.246 166.013 219.246 151.115 235.097 141.961C250.947 132.807 276.75 132.807 292.615 141.961C308.466 151.115 308.466 166.013 292.615 175.167Z" fill="white"/>
<path d="M263.864 185.795C251.838 185.795 239.812 183.153 230.658 177.87C221.765 172.74 216.866 165.875 216.866 158.564C216.866 151.253 221.765 144.403 230.658 139.258C248.966 128.691 278.746 128.691 297.054 139.258C305.947 144.388 310.846 151.253 310.846 158.564C310.846 165.875 305.947 172.725 297.054 177.87C287.9 183.153 275.874 185.795 263.848 185.795H263.864ZM263.864 131.794C251.93 131.794 239.981 134.42 230.888 139.673C222.134 144.726 217.327 151.438 217.327 158.579C217.327 165.721 222.149 172.433 230.888 177.486C249.058 187.976 278.654 187.976 296.824 177.486C305.578 172.433 310.385 165.721 310.385 158.579C310.385 151.438 305.563 144.726 296.824 139.673C287.731 134.42 275.797 131.794 263.848 131.794H263.864ZM263.864 182.263C253.404 182.263 242.945 179.959 234.989 175.367C227.248 170.897 222.979 164.938 222.979 158.564C222.979 152.206 227.248 146.231 234.989 141.762C250.916 132.577 276.811 132.577 292.738 141.762C300.479 146.231 304.749 152.206 304.749 158.564C304.749 164.923 300.479 170.897 292.738 175.367C284.782 179.959 274.323 182.263 263.864 182.263ZM263.864 135.326C253.497 135.326 243.114 137.599 235.22 142.161C227.617 146.538 223.439 152.375 223.439 158.564C223.439 164.754 227.617 170.575 235.22 174.967C251.008 184.09 276.704 184.09 292.508 174.967C300.11 170.59 304.288 164.754 304.288 158.564C304.288 152.375 300.11 146.538 292.508 142.161C284.613 137.599 274.231 135.326 263.864 135.326Z" fill="black"/>
<path d="M264.816 216.728C256.092 216.728 247.445 214.7 241.087 210.707C217.265 195.732 216.989 160.899 216.989 160.545C215.99 152.62 220.967 144.849 230.643 139.258C248.95 128.691 278.731 128.691 297.039 139.258C306.684 144.833 311.676 152.559 310.708 160.484V160.545C310.708 160.945 310.201 200.186 286.349 212.059C280.067 215.192 272.403 216.728 264.801 216.728H264.816ZM263.848 131.778C251.915 131.778 239.965 134.405 230.873 139.657C221.351 145.156 216.467 152.758 217.434 160.515C217.434 160.899 217.711 195.471 241.317 210.308C253.097 217.711 272.772 218.294 286.134 211.644C308.773 200.371 310.155 164.032 310.232 160.776H310.201V160.515C311.199 152.758 306.315 145.156 296.793 139.657C287.701 134.405 275.767 131.778 263.818 131.778H263.848Z" fill="black"/>
<path d="M263.864 185.795C251.838 185.795 239.812 183.153 230.658 177.87C221.765 172.74 216.866 165.875 216.866 158.564C216.866 151.253 221.765 144.403 230.658 139.258C248.966 128.691 278.746 128.691 297.054 139.258C305.947 144.388 310.846 151.253 310.846 158.564C310.846 165.875 305.947 172.725 297.054 177.87C287.9 183.153 275.874 185.795 263.848 185.795H263.864ZM263.864 131.794C251.93 131.794 239.981 134.42 230.888 139.673C222.134 144.726 217.327 151.438 217.327 158.579C217.327 165.721 222.149 172.433 230.888 177.486C249.058 187.976 278.654 187.976 296.824 177.486C305.578 172.433 310.385 165.721 310.385 158.579C310.385 151.438 305.563 144.726 296.824 139.673C287.731 134.42 275.797 131.794 263.848 131.794H263.864ZM263.864 182.263C253.404 182.263 242.945 179.959 234.989 175.367C227.248 170.897 222.979 164.938 222.979 158.564C222.979 152.206 227.248 146.231 234.989 141.762C250.916 132.577 276.811 132.577 292.738 141.762C300.479 146.231 304.749 152.206 304.749 158.564C304.749 164.923 300.479 170.897 292.738 175.367C284.782 179.959 274.323 182.263 263.864 182.263ZM263.864 135.326C253.497 135.326 243.114 137.599 235.22 142.161C227.617 146.538 223.439 152.375 223.439 158.564C223.439 164.754 227.617 170.575 235.22 174.967C251.008 184.09 276.704 184.09 292.508 174.967C300.11 170.59 304.288 164.754 304.288 158.564C304.288 152.375 300.11 146.538 292.508 142.161C284.613 137.599 274.231 135.326 263.864 135.326Z" fill="black"/>
<path d="M271.866 195.425C272.968 195.425 273.862 194.531 273.862 193.429C273.862 192.326 272.968 191.432 271.866 191.432C270.763 191.432 269.869 192.326 269.869 193.429C269.869 194.531 270.763 195.425 271.866 195.425Z" fill="#E36479"/>
<path d="M266.183 195.425C267.286 195.425 268.18 194.531 268.18 193.429C268.18 192.326 267.286 191.432 266.183 191.432C265.08 191.432 264.186 192.326 264.186 193.429C264.186 194.531 265.08 195.425 266.183 195.425Z" fill="#3DAAE2"/>
<path d="M260.5 195.425C261.603 195.425 262.497 194.531 262.497 193.429C262.497 192.326 261.603 191.432 260.5 191.432C259.397 191.432 258.503 192.326 258.503 193.429C258.503 194.531 259.397 195.425 260.5 195.425Z" fill="#28C916"/>
<path d="M260.5 201.108C261.603 201.108 262.497 200.214 262.497 199.111C262.497 198.009 261.603 197.115 260.5 197.115C259.397 197.115 258.503 198.009 258.503 199.111C258.503 200.214 259.397 201.108 260.5 201.108Z" fill="#D285F3"/>
<path d="M266.183 201.108C267.286 201.108 268.18 200.214 268.18 199.111C268.18 198.009 267.286 197.115 266.183 197.115C265.08 197.115 264.186 198.009 264.186 199.111C264.186 200.214 265.08 201.108 266.183 201.108Z" fill="#FFA05C"/>
<path d="M260.5 206.791C261.603 206.791 262.497 205.897 262.497 204.794C262.497 203.691 261.603 202.797 260.5 202.797C259.397 202.797 258.503 203.691 258.503 204.794C258.503 205.897 259.397 206.791 260.5 206.791Z" fill="#00F2BE"/>
<path d="M171.481 258.949C171.834 264.309 171.773 264.355 171.511 270.069C166.704 271.758 161.897 274.001 157.09 276.765C152.282 279.53 147.49 282.847 142.683 286.702C142.099 281.465 142.069 281.481 142.652 275.583C147.46 273.663 152.267 271.313 157.074 268.533C161.881 265.753 166.689 262.559 171.481 258.934V258.949Z" fill="#8C8679"/>
<path d="M142.698 286.933C142.698 286.933 142.637 286.933 142.606 286.917C142.529 286.887 142.483 286.81 142.468 286.733L142.422 286.364C141.869 281.45 141.854 281.342 142.422 275.552C142.422 275.46 142.483 275.398 142.56 275.368C147.337 273.463 152.175 271.098 156.951 268.333C161.728 265.569 166.566 262.343 171.342 258.749C171.419 258.703 171.496 258.688 171.573 258.719C171.65 258.749 171.696 258.826 171.711 258.918C172.034 263.741 172.003 264.278 171.819 268.456L171.742 270.069C171.742 270.161 171.68 270.238 171.588 270.268C166.827 271.943 161.989 274.2 157.212 276.949C152.436 279.699 147.598 283.047 142.837 286.871C142.791 286.902 142.744 286.917 142.698 286.917V286.933ZM142.883 275.736C142.33 281.327 142.345 281.465 142.883 286.257C147.567 282.525 152.313 279.269 156.997 276.566C161.743 273.816 166.566 271.574 171.312 269.9L171.373 268.441C171.558 264.417 171.588 263.787 171.296 259.379C166.627 262.881 161.881 266.029 157.212 268.733C152.467 271.482 147.644 273.832 142.898 275.736H142.883Z" fill="black"/>
<path d="M142.698 286.702L130.765 279.76C130.181 274.523 130.15 274.538 130.734 268.641L142.668 275.583C142.084 281.496 142.115 281.465 142.698 286.702Z" fill="#E2DED5"/>
<path d="M142.698 286.933C142.698 286.933 142.622 286.933 142.575 286.902L130.642 279.96C130.642 279.96 130.534 279.852 130.534 279.791L130.488 279.422C129.935 274.507 129.92 274.4 130.488 268.61C130.488 268.533 130.55 268.456 130.611 268.425C130.688 268.395 130.765 268.395 130.826 268.425L142.76 275.368C142.837 275.414 142.883 275.506 142.867 275.583C142.299 281.327 142.314 281.419 142.867 286.288L142.913 286.656C142.913 286.748 142.883 286.825 142.806 286.871C142.76 286.902 142.729 286.902 142.683 286.902L142.698 286.933ZM130.98 279.622L142.422 286.272C141.884 281.48 141.869 281.311 142.422 275.705L130.918 269.024C130.396 274.415 130.411 274.6 130.949 279.376L130.98 279.622Z" fill="black"/>
<path d="M159.547 252.007C154.74 255.632 149.948 258.826 145.14 261.606C140.686 264.171 136.248 266.383 131.794 268.21C131.44 268.364 131.087 268.502 130.719 268.64L142.652 275.583C143.006 275.444 143.359 275.291 143.727 275.153C148.181 273.31 152.62 271.113 157.074 268.548C161.881 265.768 166.689 262.574 171.481 258.949L159.547 252.007Z" fill="#F1EEEA"/>
<path d="M142.668 275.813C142.668 275.813 142.591 275.813 142.545 275.782L130.611 268.84C130.611 268.84 130.488 268.717 130.504 268.625C130.504 268.533 130.565 268.456 130.642 268.425C135.418 266.521 140.256 264.156 145.033 261.391C149.809 258.627 154.648 255.401 159.424 251.807C159.501 251.746 159.593 251.746 159.685 251.807L171.619 258.749C171.619 258.749 171.726 258.857 171.726 258.934C171.726 259.011 171.696 259.087 171.634 259.133C166.858 262.743 161.989 265.983 157.197 268.748C152.405 271.513 147.536 273.893 142.744 275.813C142.714 275.813 142.683 275.828 142.652 275.828L142.668 275.813ZM131.256 268.687L142.683 275.337C147.414 273.432 152.221 271.083 156.967 268.349C161.651 265.646 166.397 262.482 171.081 258.98L159.578 252.299C154.832 255.877 150.025 259.072 145.263 261.821C140.61 264.509 135.91 266.813 131.256 268.702V268.687Z" fill="black"/>
<path d="M165.982 270.944C165.982 270.944 165.967 270.944 165.952 270.96C165.844 271.052 165.706 271.113 165.552 271.175C165.521 271.175 165.506 271.205 165.475 271.205C165.291 271.267 165.091 271.313 164.907 271.313C164.707 271.313 164.523 271.282 164.385 271.205L12.9935 176.089V179.729L164.37 272.618C164.4 272.634 164.431 272.649 164.462 272.664C164.492 272.664 164.508 272.68 164.539 272.695C164.569 272.695 164.585 272.695 164.615 272.711C164.631 272.711 164.661 272.711 164.677 272.711C164.707 272.711 164.723 272.711 164.754 272.711C164.784 272.711 164.8 272.711 164.83 272.711C164.846 272.711 164.876 272.711 164.892 272.711C164.892 272.711 164.892 272.711 164.907 272.711C164.938 272.711 164.984 272.711 165.015 272.711C165.061 272.711 165.122 272.711 165.168 272.695C165.26 272.68 165.353 272.649 165.429 272.634C165.429 272.634 165.445 272.634 165.46 272.634C165.491 272.634 165.506 272.603 165.537 272.603C165.629 272.572 165.737 272.526 165.813 272.48C165.859 272.449 165.89 272.419 165.936 272.388C165.936 272.388 165.952 272.388 165.967 272.373C165.982 272.357 165.982 272.373 165.998 272.357C166.028 272.327 166.059 272.296 166.074 272.28C166.09 272.265 166.105 272.234 166.12 272.219C166.12 272.204 166.136 272.188 166.151 272.158C166.151 272.142 166.151 272.127 166.151 272.112C166.151 272.096 166.151 272.081 166.151 272.065V270.668C166.151 270.775 166.09 270.898 165.967 270.99L165.982 270.944Z" fill="#966D36"/>
<path d="M17.9391 173.493L165.998 270.33C166.735 270.837 165.076 271.62 164.37 271.206L12.9935 176.089L17.9391 173.493Z" fill="#B78B47"/>
<path d="M164.846 272.956C164.846 272.956 164.815 272.956 164.8 272.956H164.631C164.631 272.956 164.569 272.941 164.539 272.925C164.508 272.925 164.477 272.925 164.446 272.91C164.416 272.91 164.385 272.895 164.354 272.879C164.324 272.879 164.277 272.849 164.231 272.818L12.8553 179.928C12.8553 179.928 12.7478 179.805 12.7478 179.728V176.088C12.7478 176.012 12.8092 175.919 12.8707 175.889C12.9475 175.858 13.0396 175.858 13.1011 175.889L164.477 271.006C164.569 271.052 164.707 271.098 164.876 271.082C165.045 271.082 165.214 271.052 165.383 270.99L165.445 270.96C165.598 270.898 165.706 270.837 165.798 270.775L165.936 270.898L165.829 270.76C165.921 270.683 165.952 270.622 165.952 270.606C165.952 270.483 166.059 270.376 166.182 270.376C166.305 270.376 166.412 270.483 166.412 270.606V272.019C166.412 272.019 166.412 272.096 166.412 272.111C166.412 272.142 166.412 272.173 166.382 272.204C166.382 272.234 166.351 272.265 166.336 272.296C166.32 272.326 166.289 272.357 166.274 272.388C166.243 272.419 166.213 272.465 166.182 272.495L166.013 272.342L166.136 272.542C166.059 272.603 166.013 272.634 165.967 272.664C165.875 272.71 165.783 272.757 165.675 272.803L165.552 272.849C165.429 272.895 165.337 272.91 165.23 272.941C165.168 272.941 165.107 272.956 165.061 272.972H164.938C164.938 272.972 164.876 272.972 164.861 272.972L164.846 272.956ZM13.2086 179.59L164.477 272.403C164.477 272.403 164.508 272.419 164.523 272.434L164.585 272.449L164.661 272.695L164.692 272.465H164.876H164.999C165.045 272.465 165.091 272.465 165.122 272.449C165.199 272.449 165.276 272.419 165.353 272.388L165.445 272.342C165.552 272.296 165.629 272.28 165.69 272.234C165.721 272.219 165.737 272.204 165.767 272.173L165.813 272.142C165.859 272.111 165.875 272.096 165.89 272.065L166.136 272.096L165.921 272.019V271.221C165.844 271.282 165.737 271.328 165.614 271.374C165.568 271.39 165.552 271.405 165.521 271.42C165.306 271.497 165.091 271.528 164.876 271.543C164.615 271.543 164.4 271.497 164.231 271.405L13.2239 176.503V179.59H13.2086Z" fill="black"/>
<path d="M164.861 271.543C164.631 271.543 164.416 271.497 164.247 271.405L12.8707 176.288C12.8707 176.288 12.7632 176.165 12.7632 176.089C12.7632 176.012 12.8093 175.935 12.8861 175.889L17.8316 173.293C17.8316 173.293 18.0005 173.263 18.062 173.293L166.121 270.13C166.474 270.376 166.458 270.683 166.32 270.898C166.09 271.252 165.445 271.543 164.861 271.543ZM13.4543 176.104L164.492 271.006C164.892 271.236 165.752 270.944 165.936 270.653C165.967 270.606 165.982 270.576 165.875 270.514L17.9237 173.754L13.439 176.104H13.4543Z" fill="black"/>
<path d="M164.431 272.88C164.431 272.88 164.416 272.926 164.4 272.941C164.4 272.972 164.37 272.987 164.354 273.018C164.323 273.049 164.308 273.079 164.277 273.11C164.216 273.156 164.155 273.217 164.078 273.264C163.97 273.325 163.847 273.386 163.709 273.432C163.632 273.463 163.54 273.479 163.448 273.494C163.402 273.494 163.356 273.509 163.31 273.509C163.279 273.509 163.233 273.509 163.202 273.509C163.172 273.509 163.141 273.509 163.125 273.509C163.095 273.509 163.079 273.509 163.049 273.509C163.018 273.509 163.003 273.509 162.972 273.509C162.941 273.509 162.926 273.509 162.895 273.509C162.864 273.509 162.849 273.509 162.818 273.494C162.788 273.494 162.757 273.479 162.726 273.463C162.711 273.463 162.68 273.448 162.665 273.432L0.245728 184.628V188.268L162.665 274.815C162.68 274.815 162.711 274.83 162.726 274.845C162.757 274.845 162.788 274.861 162.818 274.876C162.849 274.876 162.864 274.876 162.895 274.892C162.926 274.892 162.941 274.892 162.972 274.892C163.003 274.892 163.018 274.892 163.049 274.892C163.079 274.892 163.095 274.892 163.125 274.892C163.156 274.892 163.187 274.892 163.202 274.892C163.233 274.892 163.279 274.892 163.31 274.892C163.356 274.892 163.402 274.892 163.448 274.876C163.54 274.861 163.617 274.845 163.709 274.815C163.847 274.769 163.97 274.707 164.078 274.646C164.155 274.6 164.216 274.554 164.277 274.492C164.308 274.462 164.339 274.431 164.354 274.4C164.37 274.369 164.385 274.354 164.4 274.323C164.4 274.308 164.416 274.277 164.431 274.262C164.431 274.246 164.431 274.231 164.431 274.216C164.431 274.2 164.431 274.185 164.431 274.17V273.31V272.772C164.431 272.787 164.431 272.803 164.431 272.818C164.431 272.833 164.431 272.849 164.431 272.864V272.88Z" fill="#966D36"/>
<path d="M163.187 275.137H163.079C163.079 275.137 163.018 275.137 162.987 275.137H162.834C162.834 275.137 162.757 275.106 162.726 275.091C162.695 275.091 162.665 275.076 162.619 275.06L162.542 275.03L0.12287 188.468C0.12287 188.468 0 188.345 0 188.268V184.628C0 184.551 0.0614351 184.474 0.12287 184.428C0.184305 184.382 0.276458 184.382 0.353252 184.428L162.788 273.217C162.788 273.217 162.864 273.248 162.895 273.263H162.957C162.957 273.263 163.064 273.294 163.079 273.294H163.218H163.31C163.341 273.294 163.387 273.294 163.433 273.279C163.509 273.279 163.586 273.248 163.663 273.217C163.771 273.187 163.893 273.125 163.986 273.079C164.047 273.048 164.108 273.002 164.155 272.956C164.17 272.941 164.185 272.91 164.216 272.895H164.262V272.833L164.477 272.91L164.262 272.818C164.262 272.68 164.37 272.588 164.492 272.588C164.615 272.588 164.723 272.695 164.723 272.818V274.216C164.723 274.216 164.707 274.292 164.707 274.308C164.707 274.338 164.707 274.354 164.692 274.385C164.677 274.431 164.661 274.461 164.646 274.492C164.631 274.523 164.6 274.554 164.585 274.584C164.554 274.63 164.508 274.661 164.477 274.707C164.416 274.769 164.323 274.83 164.231 274.876C164.108 274.953 163.97 275.014 163.817 275.06C163.725 275.091 163.632 275.122 163.525 275.137C163.479 275.137 163.417 275.152 163.371 275.168H163.248L163.187 275.137ZM0.460763 188.114L162.772 274.6C162.772 274.6 162.864 274.63 162.88 274.646H162.941C162.941 274.646 163.049 274.676 163.064 274.676C163.079 274.676 163.126 274.676 163.126 274.676L163.187 274.907V274.676H163.279C163.31 274.676 163.356 274.676 163.402 274.661C163.479 274.661 163.556 274.63 163.632 274.6C163.755 274.569 163.863 274.507 163.955 274.461C164.016 274.431 164.078 274.385 164.124 274.338C164.155 274.323 164.17 274.292 164.185 274.277H164.446L164.231 274.216V273.432C164.231 273.432 164.231 273.432 164.231 273.448C164.108 273.524 163.955 273.586 163.817 273.632C163.725 273.663 163.632 273.693 163.525 273.709C163.479 273.709 163.417 273.724 163.371 273.739H163.156C163.156 273.739 163.079 273.739 163.049 273.739C163.033 273.739 163.003 273.739 162.972 273.739H162.895C162.895 273.739 162.818 273.709 162.788 273.693C162.757 273.693 162.726 273.678 162.68 273.663L162.603 273.632L0.476122 185.012V188.114H0.460763Z" fill="black"/>
<path d="M164.231 272.465C165.03 272.941 163.448 273.801 162.68 273.402L0.245728 184.628L4.89943 181.848L164.231 272.48V272.465Z" fill="#B78B47"/>
<path d="M163.141 273.74C162.926 273.74 162.726 273.709 162.557 273.617L0.12287 184.828C0.12287 184.828 0 184.705 0 184.628C0 184.551 0.0460763 184.474 0.107511 184.428L4.76122 181.648C4.76122 181.648 4.91481 181.602 4.9916 181.648L164.324 272.281C164.707 272.511 164.707 272.833 164.585 273.064C164.37 273.448 163.725 273.755 163.126 273.755L163.141 273.74ZM0.706504 184.613L162.788 273.202C163.218 273.417 164.047 273.11 164.201 272.818C164.216 272.772 164.247 272.741 164.108 272.664L4.89945 182.109L0.706504 184.613Z" fill="black"/>
</g>
<defs>
<clipPath id="clip0_3744_29164">
<rect width="320" height="295.226" fill="white"/>
</clipPath>
</defs>
</svg>
