<svg id="logo-26" width="138" height="36" viewBox="0 0 138 36" fill="none" xmlns="http://www.w3.org/2000/svg"> <path d="M11.3078 32.6547L8.05536 27.0213L12.8285 18.7767L15.8616 24.0306L33.7668 24.021L28.6861 32.7325L11.3078 32.6547Z" class="ccompli2" fill="#FFAD64"></path> <path d="M36.9641 18.4272L33.7117 24.0605L24.1851 24.0493L27.2185 18.7955L18.2576 3.29395L28.3423 3.3382L36.9641 18.4272Z" class="ccompli1" fill="#ADD4D3"></path> <path d="M11.8091 3.26395H18.314L23.0675 11.52L17.0008 11.5197L8.05663 27.0309L3.05255 18.2752L11.8091 3.26395Z" class="ccustom" fill="#FB8351"></path> <path fill-rule="evenodd" clip-rule="evenodd" d="M19.107 1.95961L19.0876 1.92596H11.0406L1.50755 18.2684L8.05149 29.7184L8.05952 29.7045L10.5334 33.9894L29.4528 34.074L36.0969 22.6817H36.0527L38.5071 18.4306L29.1207 2.00354L19.107 1.95961ZM25.3318 12.858H25.382L20.6517 4.64252L27.5638 4.67283L35.421 18.4237L32.9617 22.6835L26.5167 22.6869L28.7638 18.795L25.3318 12.858ZM17.4683 4.60202L20.6937 10.1818L16.2279 10.1817L8.58236 23.4406L8.06084 24.3415L4.59771 18.282L12.5777 4.60202H17.4683ZM14.3672 18.7656L17.7738 12.8578L22.2408 12.858L25.6732 18.7958L23.4256 22.6886L16.6341 22.6923L14.3672 18.7656ZM9.60358 27.0267L10.8996 24.7792L12.8269 21.4501L15.0894 25.3692L21.8799 25.3655L21.8689 25.3845L31.4161 25.3958L27.9196 31.3911L12.0824 31.3202L9.60358 27.0267Z" class="cneutral" fill="#333237"></path> <path d="M87.2459 11.7188C88.1623 11.7188 88.9068 10.9742 88.9068 10.0388C88.9068 9.10333 88.1623 8.37788 87.2459 8.37788C86.3105 8.37788 85.5659 9.10333 85.5659 10.0388C85.5659 10.9742 86.3105 11.7188 87.2459 11.7188ZM85.7568 22.7533H88.7159V13.2079H85.7568V22.7533Z" class="ccustom" fill="#FB8351"></path> <path d="M90.4384 27.3352H93.3403V21.7988C93.8939 22.5243 95.1539 23.0206 96.4712 23.0206C99.3157 23.0206 101.034 20.8443 100.958 17.8279C100.881 14.7542 99.1057 12.9024 96.4521 12.9024C95.0966 12.9024 93.8175 13.4942 93.283 14.3724L93.1303 13.2079H90.4384V27.3352ZM93.3975 17.9806C93.3975 16.5488 94.3521 15.5943 95.7266 15.5943C97.1203 15.5943 97.9985 16.5679 97.9985 17.9806C97.9985 19.3933 97.1203 20.367 95.7266 20.367C94.3521 20.367 93.3975 19.4124 93.3975 17.9806Z" class="ccustom" fill="#FB8351"></path> <path d="M101.271 19.737C101.347 21.6652 102.875 23.0015 105.28 23.0015C107.59 23.0015 109.194 21.7797 109.194 19.8133C109.194 18.4006 108.354 17.4652 106.788 17.0833L105.089 16.6633C104.478 16.5106 104.096 16.3579 104.096 15.8615C104.096 15.3652 104.497 15.0406 105.089 15.0406C105.757 15.0406 106.196 15.4797 106.177 16.1288H108.831C108.755 14.1433 107.246 12.9024 105.146 12.9024C103.027 12.9024 101.443 14.1624 101.443 16.0715C101.443 17.3506 102.149 18.4006 104.039 18.897L105.719 19.3361C106.215 19.4697 106.425 19.6988 106.425 20.0233C106.425 20.5006 105.986 20.8061 105.242 20.8061C104.383 20.8061 103.925 20.4052 103.925 19.737H101.271Z" class="ccustom" fill="#FB8351"></path> <path d="M113.694 23.0015C114.858 23.0015 116.023 22.467 116.615 21.6843L116.806 22.7533H119.574V13.2079H116.634V18.1715C116.634 19.6033 116.214 20.3861 114.858 20.3861C113.808 20.3861 113.121 19.9088 113.121 18.1333V13.2079H110.181V19.2024C110.181 21.4743 111.441 23.0015 113.694 23.0015Z" class="ccustom" fill="#FB8351"></path> <path d="M124.236 22.7533V17.5415C124.236 15.9379 125.095 15.4797 125.935 15.4797C126.871 15.4797 127.482 16.0524 127.482 17.2361V22.7533H130.383V17.5415C130.383 15.9188 131.223 15.4606 132.063 15.4606C132.999 15.4606 133.629 16.0333 133.629 17.2361V22.7533H136.492V16.5106C136.492 14.3342 135.347 12.8833 132.884 12.8833C131.51 12.8833 130.383 13.5515 129.887 14.5824C129.314 13.5515 128.322 12.8833 126.737 12.8833C125.687 12.8833 124.713 13.3606 124.141 14.1242L124.026 13.2079H121.277V22.7533H124.236Z" class="ccustom" fill="#FB8351"></path> <path d="M46.9241 8.62749H43.7932V22.7548H52.4605V19.9866H46.9241V8.62749Z" class="cneutral" fill="#333237"></path> <path d="M52.7595 17.963C52.7595 20.9793 54.7832 22.9839 57.8377 22.9839C60.8732 22.9839 62.8968 20.9793 62.8968 17.963C62.8968 14.9466 60.8732 12.9229 57.8377 12.9229C54.7832 12.9229 52.7595 14.9466 52.7595 17.963ZM55.7186 17.9439C55.7186 16.512 56.5586 15.5575 57.8377 15.5575C59.0977 15.5575 59.9377 16.512 59.9377 17.9439C59.9377 19.3948 59.0977 20.3493 57.8377 20.3493C56.5586 20.3493 55.7186 19.3948 55.7186 17.9439Z" class="cneutral" fill="#333237"></path> <path d="M63.3697 17.8102C63.3697 20.693 65.2407 22.6402 67.8943 22.6402C69.1734 22.6402 70.2807 22.1821 70.8343 21.4375V22.7548C70.8343 24.0721 70.0134 24.9502 68.5625 24.9502C67.2643 24.9502 66.367 24.3393 66.3097 23.2511H63.3316C63.5988 25.8666 65.6225 27.623 68.3907 27.623C71.6552 27.623 73.717 25.5039 73.717 22.1439V13.2093H71.0634L70.9107 14.183C70.3761 13.4002 69.2498 12.8848 67.9516 12.8848C65.2788 12.8848 63.3697 14.8893 63.3697 17.8102ZM66.3479 17.7339C66.3479 16.3593 67.2643 15.443 68.4288 15.443C69.7843 15.443 70.777 16.3402 70.777 17.7339C70.777 19.1275 69.8034 20.082 68.4479 20.082C67.2834 20.082 66.3479 19.1275 66.3479 17.7339Z" class="cneutral" fill="#333237"></path> <path d="M74.5739 17.963C74.5739 20.9793 76.5975 22.9839 79.6521 22.9839C82.6875 22.9839 84.7112 20.9793 84.7112 17.963C84.7112 14.9466 82.6875 12.9229 79.6521 12.9229C76.5975 12.9229 74.5739 14.9466 74.5739 17.963ZM77.533 17.9439C77.533 16.512 78.373 15.5575 79.6521 15.5575C80.9121 15.5575 81.7521 16.512 81.7521 17.9439C81.7521 19.3948 80.9121 20.3493 79.6521 20.3493C78.373 20.3493 77.533 19.3948 77.533 17.9439Z" class="cneutral" fill="#333237"></path> </svg>