<svg width="84" height="30" viewBox="0 0 84 30" fill="none" xmlns="http://www.w3.org/2000/svg">
<g clip-path="url(#clip0_3744_46429)">
<path d="M4.92716 21.2299C5.2815 22.17 5.77144 22.9727 6.39787 23.6398C7.0243 24.307 7.76644 24.8177 8.62428 25.172C9.48212 25.5264 10.415 25.7035 11.4229 25.7035C12.4308 25.7035 13.3221 25.52 14.1808 25.1521C15.0395 24.7842 15.788 24.2672 16.428 23.6001C17.068 22.933 17.5652 22.1366 17.9195 21.2101C18.2738 20.2835 18.451 19.2494 18.451 18.105V0.456482H22.7402V29.0526H18.4917V26.3969C17.5389 27.4048 16.4153 28.1803 15.1209 28.7254C13.8274 29.2696 12.4317 29.5426 10.9338 29.5426C9.43602 29.5426 7.98519 29.2768 6.66453 28.7462C5.34388 28.2147 4.19949 27.4599 3.23318 26.4791C2.26686 25.4983 1.50394 24.3205 0.945302 22.9456C0.385763 21.5698 0.106445 20.0385 0.106445 18.35V0.456482H4.39564V18.105C4.39564 19.2494 4.57282 20.2907 4.92716 21.2299Z" fill="#192147"/>
<path d="M30.1328 0.456482V10.8735C31.0864 9.92074 32.1893 9.16504 33.4421 8.60641C34.695 8.04777 36.0563 7.76936 37.527 7.76936C38.9977 7.76936 40.482 8.05501 41.8162 8.6272C43.1504 9.19939 44.3084 9.97498 45.2883 10.9558C46.2681 11.9365 47.0446 13.0936 47.6168 14.4278C48.189 15.762 48.4746 17.1785 48.4746 18.6763C48.4746 20.1741 48.189 21.5834 47.6168 22.904C47.0446 24.2247 46.269 25.3754 45.2883 26.3562C44.3075 27.337 43.1504 28.1125 41.8162 28.6847C40.482 29.2569 39.052 29.5426 37.527 29.5426C36.0021 29.5426 34.6877 29.2633 33.4213 28.7046C32.1549 28.146 31.0449 27.3903 30.0921 26.4375V29.0517H26.0072V0.456482H30.1328ZM30.6028 21.4957C30.9707 22.3671 31.4815 23.13 32.135 23.7836C32.7886 24.4371 33.5515 24.9551 34.4229 25.3356C35.2943 25.7171 36.2344 25.9078 37.2414 25.9078C38.2484 25.9078 39.1478 25.7171 40.0192 25.3356C40.8906 24.9542 41.6463 24.4371 42.2863 23.7836C42.9263 23.13 43.437 22.3671 43.8184 21.4957C44.1999 20.6243 44.3906 19.6842 44.3906 18.6772C44.3906 17.6702 44.1999 16.7229 43.8184 15.8379C43.437 14.953 42.9263 14.1837 42.2863 13.5302C41.6463 12.8766 40.8906 12.3659 40.0192 11.998C39.1478 11.6301 38.2212 11.4466 37.2414 11.4466C36.2615 11.4466 35.335 11.6301 34.4636 11.998C33.5922 12.3659 32.8292 12.8766 32.1757 13.5302C31.5221 14.1837 31.0051 14.953 30.6236 15.8379C30.2422 16.7229 30.0514 17.6693 30.0514 18.6772C30.0514 19.6851 30.2349 20.6243 30.6028 21.4957Z" fill="#192147"/>
<path d="M50.8028 14.4685C51.3479 13.1614 52.0964 12.0107 53.05 11.0163C54.0037 10.022 55.1336 9.23918 56.4407 8.66698C57.7478 8.09479 59.1643 7.80914 60.6892 7.80914C62.2142 7.80914 63.5764 8.08123 64.8564 8.62631C66.1364 9.17138 67.2392 9.92708 68.1657 10.8934C69.0914 11.8597 69.8136 13.0041 70.3307 14.3247C70.8477 15.6454 71.1071 17.0827 71.1071 18.6347V19.9825H54.1537C54.2902 20.8268 54.5623 21.6096 54.9709 22.3319C55.3795 23.0532 55.8902 23.6796 56.5031 24.2111C57.116 24.7427 57.8102 25.1576 58.5867 25.4568C59.3631 25.756 60.1866 25.906 61.058 25.906C63.5366 25.906 65.538 24.8846 67.0629 22.8417L70.045 25.0473C69.01 26.4366 67.73 27.5259 66.2051 28.315C64.6801 29.1051 62.9644 29.5001 61.058 29.5001C59.506 29.5001 58.0551 29.228 56.7074 28.6829C55.3596 28.1379 54.1881 27.3758 53.1938 26.3951C52.1994 25.4143 51.4166 24.2636 50.8444 22.9429C50.2722 21.6223 49.9866 20.185 49.9866 18.6329C49.9866 17.1622 50.2587 15.7738 50.8037 14.4658L50.8028 14.4685ZM56.5429 12.8549C55.3858 13.8222 54.6157 15.1085 54.2351 16.7157H66.94C66.5856 15.1085 65.8299 13.8222 64.6729 12.8549C63.5159 11.8886 62.1608 11.405 60.6079 11.405C59.0558 11.405 57.7008 11.8886 56.5429 12.8549Z" fill="#192147"/>
<path d="M78.828 13.325C77.9566 14.2778 77.5209 15.5722 77.5209 17.2056V29.0527H73.3944V8.21866H77.4793V10.7922C77.9964 9.94789 78.6707 9.28079 79.5014 8.78995C80.3322 8.30001 81.3193 8.05414 82.4636 8.05414H83.8937V11.8941H82.178C80.8167 11.8941 79.6994 12.3705 78.828 13.3241V13.325Z" fill="#192147"/>
</g>
<defs>
<clipPath id="clip0_3744_46429">
<rect width="83.7871" height="29.087" fill="white" transform="translate(0.106445 0.456482)"/>
</clipPath>
</defs>
</svg>
