<svg width="29" height="21" viewBox="0 0 29 21" fill="none" xmlns="http://www.w3.org/2000/svg">
<g clip-path="url(#clip0_3744_31466)">
<path fill-rule="evenodd" clip-rule="evenodd" d="M27.4873 2.08296C27.9289 2.52424 28.2474 3.07332 28.4113 3.67571C29.0233 5.91126 28.9999 10.5698 28.9999 10.5698C28.9999 10.5698 28.9999 15.2055 28.4113 17.4427C28.248 18.0456 27.9297 18.5953 27.4881 19.037C27.0464 19.4787 26.4968 19.7971 25.894 19.9606C23.6584 20.5486 14.7173 20.5486 14.7173 20.5486C14.7173 20.5486 5.79969 20.5486 3.5407 19.9349C2.93786 19.7713 2.38831 19.4528 1.94661 19.0112C1.50492 18.5695 1.18646 18.0199 1.02285 17.4171C0.434814 15.2055 0.434814 10.5464 0.434814 10.5464C0.434814 10.5464 0.434814 5.91126 1.02285 3.67571C1.1894 3.07183 1.50848 2.52094 1.94943 2.07599C2.39037 1.63104 2.93835 1.30699 3.5407 1.13498C5.7757 0.546387 14.7173 0.546387 14.7173 0.546387C14.7173 0.546387 23.6584 0.546387 25.894 1.16009C26.4965 1.32353 27.0458 1.64168 27.4873 2.08296ZM19.3073 10.5462L11.872 14.8287V6.26367L19.3073 10.5462Z" fill="#515774"/>
</g>
<defs>
<clipPath id="clip0_3744_31466">
<rect width="28.5651" height="20" fill="white" transform="translate(0.434814 0.546387)"/>
</clipPath>
</defs>
</svg>
