<svg width="26" height="21" viewBox="0 0 26 21" fill="none" xmlns="http://www.w3.org/2000/svg">
<path d="M25.4348 2.9112C24.5251 3.31495 23.553 3.57931 22.5379 3.70909C23.5818 3.08424 24.3766 2.1037 24.7501 0.921297C23.7781 1.50289 22.7055 1.91144 21.5611 2.14216C20.6417 1.15682 19.325 0.546387 17.8932 0.546387C15.1112 0.546387 12.8703 2.81507 12.8703 5.59325C12.8703 5.99219 12.9038 6.37672 12.9852 6.74201C8.80504 6.54014 5.10847 4.5262 2.62334 1.46444C2.1876 2.21906 1.93382 3.08424 1.93382 4.01671C1.93382 5.76629 2.82924 7.31399 4.16517 8.20801C3.35595 8.19359 2.56588 7.95807 1.89552 7.58796C1.89552 7.60238 1.89552 7.62161 1.89552 7.64564C1.89552 10.097 3.63846 12.1349 5.92248 12.6012C5.51548 12.7117 5.06537 12.7694 4.6057 12.7694C4.28488 12.7694 3.95928 12.7502 3.65282 12.6829C4.30403 14.6824 6.15232 16.1484 8.35015 16.1965C6.64073 17.5375 4.46684 18.3498 2.12057 18.3498C1.70877 18.3498 1.31134 18.3306 0.918701 18.2825C3.14526 19.7245 5.78362 20.5464 8.62787 20.5464C17.8789 20.5464 22.9353 12.8559 22.9353 6.18926C22.9353 5.96816 22.9258 5.75187 22.9162 5.53557C23.9121 4.8242 24.7501 3.935 25.4348 2.9112Z" fill="#515774"/>
</svg>
