<svg width="24" height="25" viewBox="0 0 24 25" fill="none" xmlns="http://www.w3.org/2000/svg">
<path fill-rule="evenodd" clip-rule="evenodd" d="M11.9634 0.87207C5.35786 0.87207 6.10352e-05 6.22987 6.10352e-05 12.8354C6.10352e-05 18.1198 3.4496 22.5968 8.14685 24.2115C8.73401 24.2849 8.95419 23.9179 8.95419 23.6244C8.95419 23.3308 8.95419 22.5968 8.95419 21.5693C5.65144 22.3033 4.91749 19.9546 4.91749 19.9546C4.40373 18.5601 3.59639 18.1932 3.59639 18.1932C2.49547 17.4592 3.66979 17.4592 3.66979 17.4592C4.8441 17.5326 5.50465 18.7069 5.50465 18.7069C6.60557 20.5418 8.29364 20.028 8.95419 19.7345C9.02758 18.9271 9.39456 18.4134 9.68813 18.1198C7.04593 17.8262 4.25694 16.7987 4.25694 12.1748C4.25694 10.8537 4.69731 9.8262 5.50465 8.94547C5.43125 8.72528 4.99089 7.47757 5.65144 5.8629C5.65144 5.8629 6.67896 5.56932 8.95419 7.1106C9.90832 6.81702 10.9358 6.74363 11.9634 6.74363C12.9909 6.74363 14.0184 6.89042 14.9725 7.1106C17.2478 5.56932 18.2753 5.8629 18.2753 5.8629C18.9358 7.47757 18.4955 8.72528 18.4221 9.01886C19.156 9.8262 19.6698 10.9271 19.6698 12.2482C19.6698 16.8721 16.8808 17.8262 14.2386 18.1198C14.679 18.4867 15.0459 19.2207 15.0459 20.3216C15.0459 21.9363 15.0459 23.184 15.0459 23.6244C15.0459 23.9179 15.2661 24.2849 15.8533 24.2115C20.6239 22.5968 24.0001 18.1198 24.0001 12.8354C23.9267 6.22987 18.5689 0.87207 11.9634 0.87207Z" fill="#515774"/>
</svg>
