<svg width="140" height="28" viewBox="0 0 140 28" fill="none" xmlns="http://www.w3.org/2000/svg">
<g clip-path="url(#clip0_3744_46402)">
<path d="M16.289 14.2848V13.7232C16.289 13.5848 16.2321 13.4464 16.1344 13.3406L14.0181 11.143C13.9204 11.0453 13.7902 10.9883 13.6518 10.9802H13.1146C12.9763 10.9802 12.846 11.0453 12.7483 11.143L10.6321 13.3406C10.5425 13.4464 10.4856 13.5848 10.4774 13.7232V14.2848C10.4774 14.4232 10.5344 14.5616 10.6321 14.6674L12.7483 16.865C12.846 16.9627 12.9763 17.0197 13.1146 17.0278H13.6518C13.7902 17.0278 13.9204 16.9627 14.0181 16.865L16.1344 14.6674C16.2239 14.5616 16.2809 14.4232 16.289 14.2848ZM14.4007 14.0162C14.4007 14.122 14.36 14.2197 14.2867 14.3011L13.66 14.9523C13.5867 15.0174 13.489 15.0581 13.3914 15.0662H13.3669C13.2693 15.0662 13.1716 15.0174 13.0983 14.9523L12.4716 14.3011C12.4065 14.2197 12.3658 14.122 12.3576 14.0162V13.9918C12.3576 13.886 12.3983 13.7883 12.4716 13.715L13.0983 13.0639C13.1716 12.9988 13.2693 12.9581 13.3669 12.9499H13.3914C13.489 12.9499 13.5867 12.9988 13.66 13.0639L14.2867 13.715C14.3518 13.7964 14.3925 13.8941 14.4007 13.9918V14.0162Z" fill="#192147"/>
<path d="M22.4586 20.886L17.1191 17.6871C16.3865 17.2557 15.4423 17.4918 15.011 18.2244C15.0028 18.2488 14.9865 18.2651 14.9784 18.2895C14.8156 18.5825 14.7423 18.9244 14.7749 19.2662V25.5255C14.7423 26.3883 15.4098 27.1127 16.2726 27.1453C16.5737 27.1534 16.8749 27.0802 17.1354 26.9255C17.6319 26.6325 17.9249 26.0953 17.9005 25.5255V21.9278L20.8958 23.7185C21.6284 24.1499 22.5726 23.9139 23.004 23.1813C23.0121 23.1569 23.0284 23.1406 23.0365 23.1162C23.4679 22.343 23.2156 21.3581 22.4586 20.8941V20.886Z" fill="#192147"/>
<path d="M8.93908 13.1046C8.80885 12.8929 8.62978 12.722 8.41815 12.5836L3.07862 9.37666C2.34607 8.94526 1.40188 9.18131 0.970486 9.91387C0.962347 9.93829 0.946068 9.95456 0.937928 9.97898C0.506533 10.7522 0.758859 11.7371 1.51583 12.2011L4.5356 14.0162L1.51583 15.8313C0.758859 16.3034 0.506533 17.2801 0.937928 18.0615C1.33676 18.8104 2.27281 19.0953 3.02165 18.6883C3.04606 18.6801 3.06234 18.6639 3.08676 18.6557L8.42629 15.4569C9.21583 14.9522 9.45187 13.9022 8.94722 13.1046H8.93908Z" fill="#192147"/>
<path d="M17.054 10.3778C17.054 10.3778 17.0947 10.3534 17.1191 10.3453L22.4586 7.14645C23.2156 6.67435 23.4679 5.69761 23.0365 4.91622C22.6377 4.16738 21.7016 3.8825 20.9528 4.28947C20.9284 4.29761 20.9121 4.31389 20.8958 4.32203L17.9005 6.11273V2.4825C17.933 1.61971 17.2656 0.89529 16.4028 0.862732C16.1017 0.854593 15.8005 0.927848 15.54 1.0825C15.0435 1.37552 14.7505 1.91273 14.7749 2.4825V8.77435C14.7423 9.10807 14.8156 9.44993 14.9784 9.74295C15.3772 10.4918 16.3133 10.7767 17.0621 10.3778H17.054Z" fill="#192147"/>
<path d="M10.6889 17.4918C10.3227 17.4266 9.9401 17.4918 9.61452 17.6871L4.27499 20.8859C3.51801 21.358 3.26569 22.3348 3.69708 23.108C4.09592 23.8569 5.03197 24.1418 5.7808 23.7348C5.80522 23.7266 5.8215 23.7104 5.84592 23.7022L8.88196 21.8871V25.5092C8.8494 26.372 9.51684 27.0964 10.3796 27.129C10.6808 27.1371 10.982 27.0638 11.2424 26.9092C11.7389 26.6162 12.032 26.079 12.0075 25.5011V19.079C12.0238 18.2976 11.4622 17.6139 10.6889 17.4755V17.4918Z" fill="#192147"/>
<path d="M4.27503 7.14642L9.61456 10.3453C10.225 10.7115 11.0064 10.6057 11.5029 10.1011C11.8285 9.79177 12.0076 9.36037 12.0076 8.90456V2.49062C12.0401 1.62783 11.3727 0.903408 10.5099 0.87085C10.2087 0.86271 9.90758 0.935966 9.64712 1.09062C9.1506 1.38364 8.85758 1.92085 8.882 2.49062V6.13712L5.84596 4.32201C5.1134 3.89061 4.16922 4.12666 3.73782 4.85922C3.72968 4.88364 3.7134 4.89991 3.70526 4.92433C3.27387 5.69759 3.52619 6.68247 4.28317 7.14642H4.27503Z" fill="#192147"/>
<path d="M25.788 9.97901C25.3891 9.23017 24.4531 8.94529 23.7042 9.34413C23.6798 9.35226 23.6635 9.36854 23.6391 9.37668L18.2996 12.5755C17.8031 12.8848 17.5019 13.4302 17.5182 14.0162C17.5101 14.5941 17.8112 15.1395 18.2996 15.4406L23.6391 18.6395C24.3717 19.0709 25.3159 18.8348 25.7473 18.1023C25.7554 18.086 25.7717 18.0616 25.7798 18.0453C26.2112 17.272 25.9589 16.2871 25.2019 15.815L22.1822 13.9999L25.2019 12.1848C25.9589 11.7127 26.2112 10.736 25.7798 9.96273L25.788 9.97901Z" fill="#192147"/>
<path d="M112.339 7.77161C112.143 7.89182 112.023 8.1172 112.023 8.34258V10.3259L111.948 10.2208L111.903 10.1607C110.791 8.62807 109.033 7.69648 107.14 7.68146C103.579 7.86176 100.829 10.8669 100.98 14.4429C100.829 18.004 103.579 21.0241 107.14 21.2044C109.033 21.1744 110.806 20.2428 111.903 18.6952L111.948 18.6351L112.023 18.5449V20.5583C112.023 20.7987 112.128 21.0091 112.339 21.1293C112.534 21.2495 112.79 21.2495 112.985 21.1293C113.18 21.0091 113.3 20.7987 113.3 20.5583V8.34258C113.3 8.1172 113.195 7.89182 112.985 7.77161C112.79 7.65141 112.534 7.65141 112.339 7.77161V7.77161ZM112.023 14.4279C112.174 17.2677 109.98 19.7019 107.14 19.8521C104.3 19.6868 102.121 17.2677 102.257 14.4279C101.956 11.7383 103.894 9.30421 106.584 8.98868C109.274 8.68817 111.708 10.6265 112.023 13.316C112.068 13.6766 112.068 14.0523 112.023 14.4129V14.4279Z" fill="#192147"/>
<path d="M97.8242 1.88159C97.4636 1.91164 97.1931 2.19713 97.1931 2.55774V20.5132C97.1931 20.8738 97.4636 21.1744 97.8242 21.1744C97.9444 21.1744 98.0646 21.1443 98.1848 21.0842C98.3952 20.964 98.5154 20.7386 98.5003 20.5132V2.54271C98.5003 2.1821 98.1998 1.88159 97.8392 1.88159H97.8242Z" fill="#192147"/>
<path d="M121.129 13.7067L126.148 8.67317C126.403 8.43276 126.418 8.01204 126.178 7.75661C126.178 7.75661 126.178 7.74158 126.148 7.72656C126.028 7.59133 125.877 7.5162 125.697 7.5162C125.517 7.5162 125.351 7.59133 125.246 7.72656L117.658 15.4046L117.583 15.4948L117.538 15.5398V2.57281C117.538 2.21219 117.268 1.91168 116.907 1.91168C116.787 1.91168 116.652 1.94173 116.546 2.00184C116.336 2.12204 116.216 2.34742 116.231 2.57281V20.5283C116.231 20.8889 116.501 21.1894 116.862 21.1894C116.982 21.1894 117.102 21.1594 117.223 21.0993C117.433 20.9791 117.553 20.7687 117.538 20.5283V17.418L120.198 14.6683L120.273 14.7585L125.186 20.919C125.291 21.0842 125.487 21.1894 125.697 21.1594C125.847 21.1594 125.997 21.1143 126.118 21.0241C126.388 20.7687 126.403 20.348 126.178 20.0625L121.129 13.7067V13.7067Z" fill="#192147"/>
<path d="M85.5187 7.74152C85.1881 7.60629 84.8275 7.77158 84.6923 8.10214L80.996 18.62L80.9359 18.7552V18.7853L80.9059 18.8304V18.7853L80.8307 18.6501L77.9007 11.4378C77.7805 11.1824 77.5401 11.0321 77.2697 11.0171C76.9992 11.0171 76.7738 11.1824 76.6536 11.4378L73.6636 18.8454V18.8003L69.8771 8.13219C69.7569 7.81665 69.4113 7.65137 69.0958 7.75655H69.0657C68.7502 7.92183 68.615 8.28244 68.7502 8.613L73.1076 20.7686C73.1527 20.9039 73.2428 21.0091 73.3781 21.0692C73.4081 21.0992 73.4382 21.1293 73.4833 21.1293C73.5584 21.1593 73.6335 21.1743 73.7237 21.1894C73.9791 21.1743 74.1895 21.0091 74.2796 20.7837C74.2796 20.7686 74.2796 20.7386 74.3097 20.7236L77.3148 13.2859L80.3499 20.7236C80.4401 20.949 80.6354 21.1293 80.8758 21.1593H80.9509C81.1012 21.1593 81.2214 21.1142 81.3266 21.0241C81.4317 20.9339 81.5219 20.8287 81.567 20.6935L85.8943 8.59798C86.0296 8.26742 85.8643 7.89178 85.5487 7.74152H85.5187Z" fill="#192147"/>
<path d="M47.3229 7.69659C45.7453 7.69659 44.2728 8.41782 43.2961 9.64991V8.35772C43.3111 8.13234 43.1909 7.90695 42.9956 7.78675C42.8003 7.66654 42.5448 7.66654 42.3495 7.78675C42.1542 7.90695 42.034 8.13234 42.049 8.35772V20.6636C42.049 20.6636 42.079 20.6937 42.079 20.7237C42.079 20.7538 42.079 20.7838 42.1091 20.8139C42.1992 20.9792 42.3495 21.1144 42.5298 21.1745H42.6951C42.8904 21.1745 43.0707 21.0843 43.1759 20.919C43.251 20.8289 43.2961 20.7237 43.3111 20.6185V13.1809C43.3111 10.9271 45.0992 9.09397 47.338 9.01884C49.5918 9.06392 51.3798 10.9271 51.3498 13.1809V20.5134C51.3498 20.7387 51.455 20.9641 51.6653 21.0843C51.8607 21.2045 52.1161 21.2045 52.3114 21.0843C52.5067 20.9641 52.627 20.7387 52.627 20.5134V13.1809C52.672 10.2059 50.313 7.7567 47.353 7.69659H47.3229Z" fill="#192147"/>
<path d="M61.1024 7.65149C57.5564 7.86185 54.8217 10.8669 54.9419 14.413C54.7316 16.7419 55.8585 18.9958 57.8419 20.2429C59.8402 21.475 62.3495 21.475 64.3479 20.2429C66.3463 19.0108 67.4582 16.757 67.2478 14.413C67.3831 10.8519 64.6484 7.84682 61.0874 7.65149H61.1024ZM65.9857 14.413C66.1209 17.2528 63.9422 19.6719 61.1024 19.8372C58.2626 19.6719 56.0989 17.2528 56.2191 14.413C55.9186 11.7234 57.8569 9.28927 60.5464 8.97373C63.236 8.67322 65.6701 10.6115 65.9857 13.3011C66.0308 13.6617 66.0308 14.0373 65.9857 14.3979V14.413Z" fill="#192147"/>
<path d="M94.0225 1.9568H93.8122C93.8122 1.9568 93.7521 1.9568 93.737 1.9568C93.707 1.9568 93.6769 1.9568 93.6619 1.9568C92.7003 1.88168 91.7537 2.24229 91.0925 2.93346C90.4464 3.83499 90.1309 4.96191 90.2361 6.0738V7.51625H88.5232C88.3579 7.51625 88.1926 7.57635 88.0574 7.69655C87.9372 7.81676 87.8621 7.99706 87.8621 8.14732C87.8621 8.52296 88.1325 8.83849 88.5082 8.86854H90.2211V20.5584C90.191 20.904 90.4615 21.2045 90.8071 21.2345C90.9423 21.2345 91.0775 21.2195 91.1827 21.1444C91.3931 21.0242 91.4982 20.7988 91.4832 20.5584V8.86854H93.3163C93.692 8.85352 93.9925 8.52296 93.9624 8.14732C93.9624 7.98204 93.9023 7.80173 93.7671 7.69655C93.6469 7.57635 93.4816 7.51625 93.3163 7.51625H91.4832V6.0738C91.4081 5.29247 91.6034 4.49612 92.0091 3.81997C92.4448 3.41428 93.0459 3.23397 93.6469 3.3091C93.6769 3.3091 93.692 3.3091 93.722 3.3091C93.7521 3.3091 93.7821 3.3091 93.8122 3.3091H94.0225C94.3831 3.3091 94.6836 2.99357 94.6686 2.63295C94.6686 2.27234 94.3831 1.97183 94.0225 1.9568V1.9568Z" fill="#192147"/>
<path d="M133.719 7.68146C132.502 7.68146 131.315 8.02704 130.279 8.68817C128.34 9.93529 127.243 12.1591 127.409 14.458C127.304 18.034 130.098 21.0391 133.674 21.1744H134.275C136.484 21.0391 138.467 19.762 139.534 17.8237C139.715 17.5081 139.624 17.1025 139.324 16.8921C139.189 16.8019 139.008 16.7719 138.858 16.817C138.693 16.8621 138.558 16.9672 138.482 17.1025C137.656 18.6801 136.063 19.7169 134.275 19.8521H133.659C130.925 19.747 128.746 17.5382 128.671 14.8036H128.701V14.6833H139.354C139.504 14.6833 139.685 14.6232 139.805 14.5181C139.925 14.3979 139.985 14.2476 140 14.0823V14.0072C140 10.5363 137.19 7.71151 133.719 7.69648V7.68146ZM128.776 13.3912V13.286H128.791V13.2559C129.212 10.8368 131.285 9.06381 133.734 9.0037C136.169 9.07883 138.197 10.8518 138.588 13.2559V13.286L138.618 13.3912H128.776V13.3912Z" fill="#192147"/>
<path d="M34.9723 13.4813C33.4397 12.9404 31.7869 12.5497 31.7869 11.2425C31.7869 9.58972 33.7402 8.91357 34.792 8.91357C37.3614 8.91357 37.9173 11.0171 38.6235 10.371C39.3448 9.72495 36.8054 7.68148 34.9723 7.68148C33.8454 7.6364 32.7185 7.93691 31.7869 8.55296C30.8704 9.12393 30.3294 10.1607 30.3895 11.2425C30.3144 14.0072 33.575 14.473 34.9723 14.9538C36.3697 15.4346 38.0075 16.0206 38.0225 17.388C38.0375 19.2812 35.7987 19.8672 34.792 19.8672C31.9221 19.8672 31.1408 18.1843 30.5849 18.7102C30.0289 19.2361 30.7351 19.8972 32.0724 20.5584C32.9289 20.949 33.8454 21.1744 34.777 21.1894C35.934 21.2345 37.0759 20.8889 38.0225 20.1977C38.909 19.5366 39.4199 18.4848 39.4199 17.388C39.4199 14.8487 37.2262 14.2627 34.9723 13.4813V13.4813Z" fill="#192147"/>
</g>
<defs>
<clipPath id="clip0_3744_46402">
<rect width="140" height="27.6744" fill="white" transform="translate(0 0.162781)"/>
</clipPath>
</defs>
</svg>
