<svg width="140" height="32" viewBox="0 0 140 32" fill="none" xmlns="http://www.w3.org/2000/svg">
<g clip-path="url(#clip0_3744_46454)">
<path d="M26.6909 10.9303H11.0459C10.7475 10.9303 10.5056 11.1719 10.5056 11.4699V13.2887C10.5056 13.5867 10.7475 13.8283 11.0459 13.8283H26.6909C26.9894 13.8283 27.2313 13.5867 27.2313 13.2887V11.4699C27.2313 11.1719 26.9894 10.9303 26.6909 10.9303Z" fill="#192147"/>
<path d="M16.342 18.1716H0.697011C0.398559 18.1716 0.156616 18.4132 0.156616 18.7112V20.5301C0.156616 20.8281 0.398559 21.0697 0.697011 21.0697H16.342C16.6405 21.0697 16.8824 20.8281 16.8824 20.5301V18.7112C16.8824 18.4132 16.6405 18.1716 16.342 18.1716Z" fill="#192147"/>
<path fill-rule="evenodd" clip-rule="evenodd" d="M2.16349 12.9133C2.30073 12.9487 2.4464 12.929 2.5693 12.8585C2.6922 12.7879 2.78256 12.6722 2.82103 12.5359C3.68733 9.82819 5.53547 7.54134 8.00297 6.12386C10.4705 4.70639 13.3793 4.26058 16.1589 4.87386C16.2935 4.90154 16.4335 4.87667 16.5502 4.80436C16.6669 4.73206 16.7514 4.61783 16.7863 4.48519L17.2586 2.72486C17.2771 2.6542 17.2811 2.58053 17.2703 2.50829C17.2595 2.43605 17.2342 2.36673 17.1959 2.30451C17.1576 2.24229 17.1071 2.18846 17.0474 2.14624C16.9877 2.10402 16.9201 2.07429 16.8486 2.05884C13.336 1.26933 9.6544 1.83058 6.53772 3.63073C3.42103 5.43089 1.09817 8.33771 0.0321389 11.7718C0.0120681 11.8407 0.00595239 11.9129 0.0141495 11.9841C0.0223466 12.0554 0.0446919 12.1243 0.0798787 12.1868C0.115066 12.2494 0.162387 12.3043 0.219077 12.3484C0.275766 12.3924 0.340685 12.4248 0.410037 12.4435L2.16349 12.9133Z" fill="#192147"/>
<path fill-rule="evenodd" clip-rule="evenodd" d="M25.2285 19.0792C25.0902 19.0421 24.9428 19.0608 24.8183 19.1315C24.6938 19.2021 24.6022 19.3189 24.5634 19.4565C23.699 22.166 21.8516 24.4551 19.3839 25.8744C16.9162 27.2937 14.0064 27.7409 11.2255 27.128C11.0909 27.0999 10.9507 27.1245 10.8339 27.1969C10.7171 27.2693 10.6326 27.3838 10.5982 27.5167L10.1352 29.2676C10.1165 29.3384 10.1123 29.4122 10.1229 29.4847C10.1336 29.5572 10.1588 29.6267 10.1971 29.6891C10.2355 29.7516 10.2861 29.8056 10.3459 29.848C10.4058 29.8903 10.4736 29.9201 10.5453 29.9355C14.058 30.7231 17.739 30.1608 20.8553 28.3605C23.9716 26.5603 26.2946 23.6541 27.3617 20.2207C27.3821 20.1519 27.3883 20.0798 27.3802 20.0086C27.3722 19.9373 27.3498 19.8685 27.3146 19.806C27.2793 19.7435 27.2319 19.6888 27.1751 19.645C27.1183 19.6011 27.0533 19.5692 26.9838 19.5509L25.2285 19.0792Z" fill="#192147"/>
<path d="M21.9634 7.74929C22.8421 7.74929 23.5544 7.03804 23.5544 6.16066C23.5544 5.28328 22.8421 4.57202 21.9634 4.57202C21.0848 4.57202 20.3725 5.28328 20.3725 6.16066C20.3725 7.03804 21.0848 7.74929 21.9634 7.74929Z" fill="#192147"/>
<path d="M5.42854 27.4261C6.3072 27.4261 7.01949 26.7149 7.01949 25.8375C7.01949 24.9601 6.3072 24.2488 5.42854 24.2488C4.54988 24.2488 3.83759 24.9601 3.83759 25.8375C3.83759 26.7149 4.54988 27.4261 5.42854 27.4261Z" fill="#192147"/>
<path fill-rule="evenodd" clip-rule="evenodd" d="M66.1946 13.1189C66.7747 12.4828 67.4835 11.9769 68.274 11.6348C69.0646 11.2926 69.9189 11.1219 70.7804 11.1341C72.4545 11.1341 73.7582 11.6511 74.5821 12.6435V11.8209C74.5875 11.7072 74.6349 11.5995 74.7152 11.5187C74.7954 11.4378 74.9028 11.3895 75.0166 11.3831H77.2236C77.3373 11.3899 77.4444 11.4384 77.5246 11.5191C77.6048 11.5999 77.6523 11.7073 77.6582 11.8209V24.0564C77.7266 25.7829 77.1923 27.4796 76.1466 28.8563C74.9562 30.3015 73.1498 31.0336 70.7766 31.0336C67.4776 31.0336 64.8739 28.9487 64.4449 25.9714C64.4345 25.864 64.4621 25.7564 64.5228 25.6671C64.5836 25.5779 64.6737 25.5126 64.7775 25.4828L66.9334 24.9771C66.9447 24.9762 66.9561 24.9762 66.9674 24.9771C67.0236 24.9686 67.081 24.9712 67.1362 24.9849C67.1914 24.9986 67.2434 25.0231 67.289 25.057C67.3347 25.0908 67.3732 25.1334 67.4023 25.1822C67.4314 25.231 67.4506 25.285 67.4587 25.3413C67.5549 26.1468 67.9488 26.8875 68.5632 27.4183C69.1776 27.949 69.9682 28.2317 70.7804 28.211C73.3577 28.211 74.5594 26.8903 74.5594 24.13V23.0583C74.0864 23.5875 73.5028 24.0064 72.8498 24.2855C72.1968 24.5646 71.4903 24.697 70.7804 24.6733C67.1129 24.6733 64.4525 21.83 64.4525 17.9169C64.4199 16.1577 65.0405 14.4486 66.1946 13.1189V13.1189ZM108.99 10.9662H109.105C113.048 11.019 115.491 13.7604 115.491 18.1471C115.491 18.3797 115.479 18.6121 115.454 18.8433C115.441 18.9469 115.391 19.0424 115.313 19.1119C115.236 19.1813 115.135 19.22 115.03 19.2207H105.657C105.685 20.1655 106.084 21.0614 106.768 21.7149C107.452 22.3683 108.366 22.7268 109.313 22.713C110.054 22.7593 110.789 22.5533 111.398 22.1288C112.007 21.7042 112.455 21.0862 112.667 20.3753C112.706 20.2714 112.784 20.1865 112.884 20.1384C112.984 20.0903 113.099 20.0825 113.205 20.1169L115.07 20.7772C115.124 20.7948 115.174 20.8235 115.216 20.8616C115.258 20.8996 115.291 20.9461 115.314 20.998C115.339 21.0481 115.355 21.1028 115.358 21.1589C115.362 21.215 115.355 21.2712 115.337 21.3244C114.913 22.5758 114.099 23.6584 113.013 24.4125C111.927 25.1666 110.627 25.5524 109.305 25.5129C108.424 25.5215 107.55 25.3555 106.734 25.0245C105.918 24.6935 105.175 24.2042 104.549 23.5847C103.867 22.8677 103.334 22.0216 102.983 21.0963C102.633 20.1709 102.471 19.1849 102.507 18.1962C102.507 13.668 105.802 10.9567 108.986 10.9567L108.99 10.9662ZM55.9555 10.9662C59.9687 10.9662 62.4629 13.7189 62.4629 18.149C62.4625 18.3816 62.4499 18.614 62.4251 18.8452C62.4138 18.9493 62.3643 19.0455 62.2862 19.1152C62.208 19.1849 62.1067 19.2232 62.0018 19.2225H52.6281C52.6543 20.1727 53.0558 21.074 53.745 21.7297C54.4342 22.3854 55.3552 22.7422 56.3069 22.7225C57.0484 22.7694 57.7839 22.5637 58.3931 22.1391C59.0023 21.7144 59.4492 21.096 59.6607 20.3848C59.6988 20.2799 59.7765 20.1942 59.8772 20.1458C59.9779 20.0975 60.0935 20.0905 60.1993 20.1263L62.0717 20.7848C62.1258 20.8021 62.1754 20.8308 62.2175 20.8689C62.2595 20.9069 62.2929 20.9535 62.3155 21.0055C62.3369 21.0573 62.348 21.1127 62.348 21.1687C62.348 21.2247 62.3369 21.2802 62.3155 21.3319C61.8926 22.5827 61.0787 23.6648 59.9936 24.4189C58.9084 25.173 57.6095 25.5591 56.288 25.5205C55.4054 25.53 54.5298 25.3645 53.7117 25.0335C52.8937 24.7025 52.1497 24.2126 51.5227 23.5922C50.8412 22.8744 50.3095 22.0282 49.9589 21.103C49.6082 20.1779 49.4455 19.1923 49.4802 18.2037C49.4802 13.6755 52.7754 10.9643 55.9611 10.9643L55.9555 10.9662ZM41.7578 10.9662C43.5585 10.9662 45.0153 11.402 46.0942 12.2642C46.8228 12.8445 47.3631 13.627 47.6474 14.5132C47.6563 14.5509 47.6577 14.59 47.6514 14.6282C47.6451 14.6664 47.6312 14.703 47.6107 14.7358C47.5901 14.7686 47.5632 14.797 47.5316 14.8194C47.4999 14.8417 47.4641 14.8576 47.4263 14.8661L45.191 15.6038C45.0918 15.6415 44.9822 15.6415 44.883 15.6038C44.8409 15.5843 44.8034 15.5561 44.773 15.5209C44.7427 15.4858 44.7203 15.4445 44.7073 15.4C44.5184 14.6774 43.8684 13.4642 41.754 13.4642C40.2783 13.4642 39.3941 14.3095 39.3941 15.1283C39.3941 15.6717 39.6756 16.3717 41.0058 16.6245L43.4621 17.0849C46.2076 17.6377 47.7796 19.1376 47.7796 21.2263V21.1904C47.7796 23.2658 45.7805 25.4828 42.0658 25.4828C37.7578 25.4828 36.0648 23.0489 35.753 21.6131C35.7427 21.5381 35.7603 21.4619 35.8024 21.399C35.8445 21.336 35.9083 21.2907 35.9816 21.2716L38.2868 20.5546C38.328 20.547 38.3703 20.547 38.4115 20.5546C38.4773 20.5534 38.5424 20.569 38.6005 20.5999C38.6423 20.62 38.6792 20.6489 38.7086 20.6848C38.7379 20.7207 38.7591 20.7625 38.7705 20.8074C39.0615 22.1885 40.3105 23.0111 42.1074 23.0111C43.7796 23.0111 44.541 22.1376 44.541 21.3451C44.541 20.5527 43.8627 19.9697 42.6969 19.7357L40.1121 19.2339C37.7011 18.7792 36.1989 17.283 36.1989 15.3359C36.1989 12.9661 38.7479 10.9662 41.7578 10.9662ZM136.714 7.12665C136.832 7.13386 136.942 7.18553 137.022 7.2711C137.102 7.35666 137.147 7.46967 137.147 7.58701V11.3605H139.571C139.688 11.3691 139.797 11.4213 139.876 11.5066C139.956 11.592 140 11.7043 140 11.8209V13.8321C140.001 13.9466 139.956 14.0566 139.875 14.1382C139.795 14.2198 139.686 14.2665 139.571 14.268H137.147V20.9829C137.147 22.0961 137.589 22.5564 138.727 22.5564C138.986 22.5521 139.245 22.5306 139.501 22.4923C139.563 22.4817 139.627 22.4848 139.688 22.5015C139.748 22.5181 139.805 22.5478 139.853 22.5885C139.899 22.631 139.935 22.6823 139.961 22.7394C139.986 22.7965 139.999 22.8581 140 22.9206V24.8073C140.001 24.9012 139.971 24.9928 139.915 25.0683C139.859 25.1438 139.78 25.1992 139.69 25.2262C139.137 25.381 138.564 25.4554 137.99 25.4469C135.56 25.4469 134.054 23.8866 134.054 21.3697V14.2963H131.956C131.843 14.2894 131.736 14.2409 131.656 14.1601C131.576 14.0793 131.529 13.9719 131.524 13.8585V11.8435C131.523 11.726 131.568 11.6128 131.648 11.5271C131.729 11.4414 131.839 11.3899 131.956 11.3831H132.501C133.16 11.3831 134.271 11.153 134.271 9.58318V7.58701C134.27 7.46953 134.315 7.35627 134.395 7.27061C134.476 7.18495 134.586 7.13341 134.704 7.12665H136.714ZM91.2153 13.2152C91.6892 12.4919 92.3434 11.9043 93.1136 11.5099C93.8839 11.1156 94.7436 10.9282 95.6083 10.9662V10.9662C98.0042 10.9662 100.425 12.651 100.425 16.3321V24.8526C100.419 24.9661 100.371 25.0736 100.291 25.1543C100.211 25.2351 100.104 25.2835 99.9901 25.2903H97.7812C97.6679 25.2831 97.5612 25.2344 97.4814 25.1537C97.4016 25.073 97.3544 24.9658 97.3486 24.8526V16.6056C97.3486 15.5623 97.0217 13.8038 94.8091 13.8038C93.1917 13.8038 92.0429 15.0736 92.0429 16.9151V24.8526C92.0375 24.966 91.9903 25.0734 91.9105 25.1542C91.8306 25.235 91.7236 25.2835 91.6102 25.2903H89.373C89.2593 25.2835 89.1522 25.2351 89.072 25.1543C88.9918 25.0736 88.9443 24.9661 88.9384 24.8526V16.6056C88.9422 15.5623 88.6172 13.7963 86.4027 13.7963C84.7211 13.7963 83.5874 15.0566 83.5874 16.9339V24.8526C83.5816 24.9658 83.5343 25.073 83.4545 25.1537C83.3747 25.2344 83.268 25.2831 83.1547 25.2903H80.9478C80.835 25.2826 80.7289 25.2337 80.6498 25.153C80.5708 25.0723 80.5241 24.9654 80.5189 24.8526V11.7926C80.5246 11.6799 80.5713 11.5732 80.6503 11.4926C80.7293 11.412 80.8351 11.363 80.9478 11.3548H83.0716C83.1849 11.3621 83.2916 11.4107 83.3714 11.4914C83.4512 11.5721 83.4985 11.6793 83.5042 11.7926V12.5793C83.9773 12.0626 84.5546 11.6516 85.1981 11.3736C85.8416 11.0956 86.5368 10.9567 87.2379 10.9662C88.0433 10.9426 88.8398 11.1398 89.541 11.5363C90.2421 11.9327 90.8212 12.5134 91.2153 13.2152V13.2152ZM124.869 10.9662C125.575 10.936 126.279 11.0666 126.928 11.348C127.576 11.6294 128.152 12.0543 128.612 12.5907C129.47 13.7183 129.906 15.1097 129.846 16.5245V24.8526C129.841 24.9652 129.795 25.0721 129.716 25.1528C129.637 25.2336 129.532 25.2825 129.419 25.2903H127.184C127.07 25.2831 126.963 25.2346 126.883 25.1539C126.803 25.0732 126.755 24.966 126.749 24.8526V16.9698C126.749 14.9076 125.778 13.8585 123.934 13.8585C123.532 13.8456 123.133 13.9272 122.769 14.0966C122.405 14.2661 122.086 14.5187 121.838 14.834C121.338 15.552 121.086 16.4129 121.118 17.2868V24.8526C121.113 24.9658 121.065 25.073 120.985 25.1537C120.906 25.2344 120.799 25.2831 120.686 25.2903H118.454C118.341 25.2831 118.234 25.2344 118.154 25.1537C118.075 25.073 118.027 24.9658 118.021 24.8526V11.7831C118.026 11.6693 118.073 11.5612 118.153 11.4799C118.233 11.3986 118.34 11.35 118.454 11.3435H120.635C120.747 11.3508 120.853 11.3993 120.932 11.4797C121.012 11.5601 121.058 11.6668 121.064 11.7794V12.7001C121.526 12.1431 122.108 11.6978 122.767 11.3976C123.426 11.0973 124.145 10.9498 124.869 10.9662ZM71.164 13.8868C68.9873 13.8868 67.6061 15.4321 67.6061 17.9169C67.6061 20.4018 68.9703 21.9451 71.164 21.9451C73.2556 21.9451 74.6652 20.3244 74.6652 17.9169C74.6652 15.5094 73.2556 13.8868 71.164 13.8868ZM55.9781 13.7623C55.175 13.7485 54.3956 14.0344 53.7924 14.5641C53.1892 15.0938 52.8057 15.8292 52.7169 16.6264H59.2734C59.1166 14.8585 57.8582 13.7623 55.9781 13.7623V13.7623ZM109.026 13.7623C108.223 13.7498 107.445 14.0363 106.843 14.5659C106.24 15.0954 105.857 15.83 105.768 16.6264H112.327C112.164 14.8585 110.913 13.7623 109.024 13.7623H109.026Z" fill="#192147"/>
<path d="M39.4507 2.13437V6.52294H38.2055V2.13437H36.4842V1.07025H41.1909V2.13437H39.4507Z" fill="#192147"/>
<path d="M48.9624 6.5418H47.6681L46.4815 2.52304L45.2741 6.5418H44.0063L42.4002 1.07025H43.7229L44.7413 5.01165L45.8901 1.07025H47.2127L48.3464 5.01165L49.3328 1.07025H50.5496L48.9624 6.5418Z" fill="#192147"/>
<path d="M52.2634 6.52294V1.07025H53.4896V6.52294H52.2634Z" fill="#192147"/>
<path d="M55.6966 6.52294V1.07025H56.9418V5.44938H59.0731V6.52294H55.6966Z" fill="#192147"/>
<path d="M60.9286 6.52294V1.07025H62.1643V6.52294H60.9286Z" fill="#192147"/>
<path d="M66.7879 6.62662C65.2764 6.62662 64.0671 5.54363 64.0671 3.80594C64.0671 2.06825 65.2934 0.97583 66.7974 0.97583C68.3014 0.97583 69.5164 2.05882 69.5164 3.80594C69.5164 5.55307 68.2995 6.62662 66.7879 6.62662ZM66.7879 1.97392C65.8432 1.97392 65.2934 2.75125 65.2934 3.79651C65.2934 4.84176 65.8602 5.62854 66.7879 5.62854C67.7157 5.62854 68.2617 4.83233 68.2617 3.80594C68.2617 2.77956 67.71 1.97392 66.7974 1.97392H66.7879Z" fill="#192147"/>
</g>
<defs>
<clipPath id="clip0_3744_46454">
<rect width="140" height="30.0671" fill="white" transform="translate(0 0.966431)"/>
</clipPath>
</defs>
</svg>
