<svg width="141" height="32" viewBox="0 0 141 32" fill="none" xmlns="http://www.w3.org/2000/svg">
<g clip-path="url(#clip0_3744_46419)">
<path d="M49.1858 8.09785H43.0227C42.4624 8.09785 42.0088 8.55254 42.0077 9.11282V10.4898C42.0185 10.8562 42.3191 11.1482 42.6855 11.1471H43.7015C43.7317 11.1471 43.7608 11.1611 43.778 11.1859C43.7996 11.2171 43.806 11.257 43.7953 11.2936L41.3828 18.5299C41.3602 18.5752 41.3138 18.6021 41.2632 18.5999C41.219 18.6032 41.1792 18.573 41.1705 18.5299L37.5664 8.74433V8.73894C37.4673 8.49759 37.2399 8.33381 36.9803 8.3155H34.8038C34.5419 8.3295 34.3114 8.4922 34.209 8.73355V8.73894L30.6049 18.5299C30.5973 18.5762 30.5564 18.6086 30.5101 18.6064C30.4594 18.6086 30.4131 18.5816 30.3905 18.5364L27.9769 11.2947C27.9661 11.2581 27.9737 11.2182 27.9963 11.187C28.0136 11.1622 28.0416 11.1471 28.0717 11.1482H29.0889C29.4552 11.1482 29.7558 10.8572 29.7666 10.4909V9.11282C29.7666 8.55254 29.3108 8.09785 28.7505 8.09785H22.5874C22.3698 8.09785 22.165 8.20236 22.039 8.38014C21.9183 8.54284 21.8817 8.75403 21.942 8.94797C22.0293 9.19902 22.1327 9.50179 22.2372 9.80995C22.3418 10.1181 22.442 10.4144 22.5357 10.6849C22.6241 10.9564 22.8751 11.1406 23.1596 11.1449H24.1972C24.2209 11.1449 24.2737 11.1449 24.3189 11.2279L29.0996 25.318C29.1869 25.5906 29.438 25.777 29.7235 25.7802H31.2061C31.483 25.7791 31.7297 25.6078 31.8278 25.3492C33.1477 21.5371 35.6657 14.2728 35.7649 14.025C35.7789 13.9701 35.8295 13.9313 35.8866 13.9323C35.9405 13.9302 35.9901 13.9647 36.0062 14.0164C36.1075 14.2728 38.6266 21.5371 39.9444 25.3438C40.0403 25.6057 40.2892 25.7813 40.5682 25.7834H42.0498C42.3364 25.7802 42.5874 25.5927 42.6747 25.3201L47.4543 11.2301C47.5007 11.1471 47.5535 11.1471 47.5772 11.1471H48.6148C48.8982 11.1439 49.1481 10.9607 49.2365 10.6913C49.3302 10.4187 49.4337 10.1149 49.5339 9.81857C49.6416 9.5061 49.744 9.2001 49.8302 8.95013C49.8927 8.75618 49.856 8.54392 49.7343 8.38014C49.6082 8.20236 49.4035 8.09677 49.1858 8.09785ZM121.333 22.9411H120.21C120.037 22.9378 119.897 22.7967 119.894 22.6232V8.73248C119.889 8.48358 119.685 8.28425 119.435 8.28856C119.433 8.28856 119.429 8.28856 119.427 8.28856H116.167C116.028 8.29071 115.897 8.35213 115.807 8.45772C115.637 8.67322 114.79 9.72806 114.451 10.1515C114.295 10.3498 114.329 10.6374 114.527 10.7948C114.602 10.854 114.694 10.8885 114.79 10.8928H115.213C115.386 10.9014 115.526 11.0383 115.536 11.2107V22.5812C115.532 22.6739 115.502 22.7633 115.45 22.8398C115.089 23.3053 114.306 24.2793 113.926 24.7663C113.759 24.9581 113.778 25.2479 113.969 25.416C114.051 25.4871 114.155 25.5281 114.264 25.5292H119.976C120.097 25.5378 120.216 25.4914 120.299 25.402L121.633 23.7287C121.926 23.3861 121.715 22.9411 121.333 22.9411Z" fill="#192147"/>
<path d="M117.691 6.42455C119.048 6.42455 120.148 5.32468 120.148 3.96792C120.148 2.61116 119.048 1.51129 117.691 1.51129C116.335 1.51129 115.235 2.61116 115.235 3.96792C115.235 5.32468 116.335 6.42455 117.691 6.42455Z" fill="#192147"/>
<path d="M139.311 9.7281C139.311 9.49537 139.184 9.26263 138.866 9.26263H138.292V10.7711H138.508V10.2151H138.699L139.08 10.7657H139.334L138.931 10.1936C139.205 10.1731 139.311 9.93929 139.311 9.7281ZM138.508 10.0029V9.45227H138.889C139.024 9.45766 139.13 9.57187 139.124 9.70655C139.124 9.71409 139.124 9.72056 139.122 9.7281C139.137 9.86386 139.039 9.98669 138.902 10.0018C138.89 10.0029 138.879 10.0039 138.868 10.0029H138.508Z" fill="#192147"/>
<path d="M138.76 8.71201C138.046 8.71201 137.467 9.29062 137.467 10.005C137.467 10.7193 138.046 11.2979 138.76 11.2979C139.475 11.2979 140.053 10.7193 140.053 10.005C140.053 9.29062 139.475 8.71201 138.76 8.71201ZM138.76 11.104C138.156 11.1083 137.663 10.6224 137.659 10.0179C137.659 10.0125 137.659 10.0082 137.659 10.0028C137.646 9.40806 138.117 8.91458 138.713 8.90165C138.729 8.90165 138.745 8.90165 138.76 8.90165C139.368 8.90165 139.861 9.39513 139.861 10.0028C139.861 10.6105 139.368 11.104 138.76 11.104ZM65.2789 23.0047C64.3264 23.0467 63.8598 22.6028 63.8598 21.5221V13.7298C63.8598 10.3207 61.0013 8.16143 57.7829 8.16143C52.7856 8.16143 50.9862 10.5319 50.7794 13.1792C50.7654 13.4335 50.9593 13.6511 51.2136 13.6651C51.2244 13.6651 51.234 13.6651 51.2448 13.6651H53.7015C53.9363 13.6587 54.1281 13.4755 54.1465 13.2417C54.2736 11.8658 55.2045 10.8497 56.7507 10.8497C58.466 10.8497 59.5036 11.7117 59.5036 13.6867V15.3805H58.6147C55.5439 15.3805 53.4267 15.7834 52.0077 16.6734C50.5886 17.5634 49.8689 19.2141 49.8689 21.1417C49.8689 22.5597 50.3559 23.7276 51.3299 24.6564C52.304 25.5852 53.4472 25.9903 54.9513 25.9903C55.8467 25.9903 56.7313 25.7888 57.5373 25.3977C58.3303 25.0432 59.0662 24.5713 59.718 23.997C59.8473 23.8742 60.0521 23.8796 60.1749 24.0089C60.1954 24.0304 60.2126 24.0541 60.2266 24.081C60.9259 25.3094 61.6877 25.7123 63.1487 25.7123C64.4621 25.7123 65.0968 24.484 65.6689 23.7427C65.8715 23.4486 65.6387 22.982 65.2789 23.0036V23.0047ZM59.5198 21.7559H59.4982C59.4982 21.8636 59.3291 22.0091 59.2655 22.0726C58.8647 22.4088 58.424 22.6933 57.9521 22.9195C57.5243 23.1027 57.0621 23.1889 56.5966 23.1738C55.92 23.1738 55.2422 22.9195 54.7972 22.4325C54.3458 21.9347 54.1034 21.2829 54.1195 20.6116C54.1195 19.5955 54.5009 18.9178 55.2627 18.4092C56.0245 17.9007 57.2743 17.6679 58.7753 17.6679H59.5166L59.5198 21.7559ZM112.122 23.0047C111.169 23.0467 110.703 22.6028 110.703 21.5221V13.7298C110.703 10.3207 107.844 8.16143 104.626 8.16143C99.6286 8.16143 97.8292 10.5319 97.6224 13.1792C97.6083 13.4335 97.8023 13.6511 98.0566 13.6651C98.0674 13.6651 98.0781 13.6651 98.0889 13.6651H100.544C100.779 13.6587 100.971 13.4755 100.989 13.2417C101.117 11.8658 102.049 10.8497 103.594 10.8497C105.309 10.8497 106.347 11.7117 106.347 13.6867V15.3805H105.458C102.387 15.3805 100.27 15.7834 98.8507 16.6734C97.4316 17.5634 96.7022 19.213 96.7022 21.1406C96.7022 22.5586 97.1892 23.7266 98.1632 24.6553C99.1373 25.5841 100.28 25.9892 101.785 25.9892C102.68 25.9892 103.565 25.7878 104.371 25.3966C105.164 25.0421 105.899 24.5702 106.552 23.9959C106.683 23.8731 106.886 23.8796 107.009 24.0089C107.03 24.0304 107.046 24.0541 107.06 24.08C107.759 25.3083 108.521 25.7113 109.982 25.7113C111.295 25.7113 111.93 24.4829 112.502 23.7416C112.714 23.4486 112.482 22.982 112.122 23.0036V23.0047ZM106.363 21.7559H106.341C106.341 21.8636 106.172 22.0091 106.109 22.0726C105.708 22.4088 105.267 22.6933 104.795 22.9195C104.367 23.1027 103.905 23.1889 103.441 23.1738C102.763 23.1738 102.085 22.9195 101.64 22.4325C101.189 21.9347 100.946 21.2829 100.963 20.6116C100.963 19.5955 101.344 18.9178 102.107 18.4092C102.87 17.9007 104.117 17.6679 105.621 17.6679H106.363V21.7559ZM135.342 8.22715C135.115 8.10648 134.544 8.0526 134.049 8.0526C133.247 8.0526 132.615 8.16035 132.063 8.39632L132.018 8.41571C131.809 8.50945 131.611 8.62366 131.425 8.75727C130.73 9.18933 130.106 9.72807 129.576 10.3519C129.576 10.3519 129.338 10.5308 129.297 10.2291V8.684C129.294 8.43295 129.091 8.23039 128.84 8.22715H125.559C125.428 8.22715 125.304 8.28749 125.222 8.38985C125.222 8.38985 124.193 9.67635 123.854 10.1138C123.654 10.3702 123.776 10.8583 124.214 10.8583H124.624C124.802 10.8616 124.944 11.0038 124.947 11.1816V22.6028C124.948 22.6933 124.922 22.7816 124.872 22.857C124.548 23.2546 123.728 24.2879 123.328 24.7965C123.172 24.9969 123.209 25.2846 123.408 25.4408C123.486 25.5012 123.581 25.5346 123.679 25.5367H130.75C131.002 25.5367 131.207 25.332 131.207 25.0799V23.3785C131.207 23.1264 131.002 22.9217 130.75 22.9217H129.628C129.449 22.9217 129.304 22.7773 129.304 22.5984V15.9526C129.434 12.7913 131.319 11.8259 132.225 11.5436L132.356 11.5059L132.391 11.4962C132.638 11.4315 132.891 11.3981 133.145 11.396C134.223 11.396 134.624 11.5576 135.21 11.7074C135.453 11.7699 135.667 11.5027 135.667 11.2505V8.66461C135.662 8.46527 135.502 8.31227 135.342 8.22715ZM96.8423 8.29396H91.7092C91.5325 8.29072 91.3913 8.14742 91.3913 7.97072V5.42896C91.3913 4.20173 92.0271 2.97341 93.3394 2.97341C94.822 2.97341 95.0547 4.2222 95.1183 5.17576C95.1345 5.41388 95.3252 5.60351 95.5633 5.61968H97.6805C97.9176 5.6089 98.104 5.4128 98.1029 5.17576C98.062 1.99938 96.0557 0.643921 92.8104 0.643921C90.8408 0.643921 89.55 1.25808 88.5759 2.4433C87.6019 3.62851 87.1127 4.94303 87.1127 7.31346V7.94917C87.1127 8.12587 86.9716 8.26918 86.7949 8.27241L78.0372 8.29396C77.7883 8.28534 77.5793 8.48036 77.5706 8.73033C77.5706 8.73249 77.5706 8.73572 77.5706 8.73787V10.4489C77.5728 10.7053 77.7808 10.9122 78.0372 10.9144H78.9767C79.1556 10.9165 79.2989 11.062 79.2968 11.2408C79.2968 11.2818 79.2881 11.3216 79.273 11.3594C79.273 11.3594 76.8595 16.9708 75.8855 19.2152C75.8144 19.379 75.6237 19.4533 75.4599 19.3822C75.3855 19.3499 75.3252 19.2895 75.2929 19.2152C74.2973 16.9525 71.8622 11.3594 71.8622 11.3594C71.7954 11.1945 71.8741 11.0059 72.04 10.9381C72.0777 10.923 72.1176 10.9144 72.1585 10.9144H72.8147C73.0722 10.9144 73.2812 10.7064 73.2834 10.4489V8.73249C73.2769 8.48359 73.069 8.28641 72.819 8.29396H72.8168H64.8974C64.6421 8.29827 64.4384 8.50837 64.4427 8.76266C64.4438 8.83592 64.4621 8.90704 64.4956 8.97169C64.7283 9.39405 65.2573 10.3896 65.406 10.6859C65.4847 10.8239 65.629 10.9111 65.7874 10.9187H67.3121C67.4392 10.9165 67.5566 10.9887 67.6105 11.104C67.6105 11.104 73.2424 23.7546 73.4547 24.1996C73.6702 24.7642 73.6691 25.3891 73.4493 25.9526C73.1907 26.9859 71.4549 28.8359 70.5003 28.5073C69.8387 28.2789 69.7536 27.0872 68.9714 26.9353C68.8259 26.9094 68.6761 26.9266 68.5404 26.9859C68.4035 27.0387 67.1235 28.684 66.8423 28.9728C66.6979 29.1516 66.6979 29.4081 66.8423 29.5869C67.5448 30.3067 68.7214 31.2807 70.4141 31.3443C72.5001 31.4294 74.5645 31.1503 76.4641 27.5289C76.4641 27.5289 82.5302 12.7062 83.2521 11.104C83.3157 10.9963 83.4321 10.9316 83.5571 10.9348H86.7582C86.9349 10.9348 87.0782 11.076 87.0815 11.2527V22.6448C87.0826 22.7364 87.0535 22.8258 86.9974 22.8991C86.616 23.3861 85.8532 24.3386 85.4728 24.8256C85.3133 25.0195 85.3424 25.305 85.5353 25.4645C85.6193 25.5335 85.7239 25.5701 85.8327 25.5669H92.9892C93.2457 25.5647 93.4525 25.3578 93.4558 25.1014V23.4065C93.4525 23.1501 93.2457 22.9432 92.9892 22.9411H91.7609C91.5874 22.9378 91.4474 22.7967 91.4441 22.6232V11.2311C91.4441 11.0555 91.5853 10.9111 91.7609 10.9079H95.5385C95.6775 10.9057 95.809 10.8443 95.8984 10.7387C96.2163 10.3153 96.8681 9.4684 97.2118 9.0234C97.3616 8.81868 97.3164 8.531 97.1116 8.38231C97.033 8.3252 96.9392 8.29396 96.8423 8.29396Z" fill="#192147"/>
<path d="M19.6179 13.7697L18.3831 9.10857C18.3422 8.95018 18.2183 8.82627 18.0599 8.78533L13.402 7.5527C13.2479 7.51283 13.0841 7.55809 12.971 7.67014L9.84631 10.7948L16.3812 17.3286L19.5058 14.2039C19.6179 14.0897 19.661 13.9238 19.6179 13.7697Z" fill="#192147" fill-opacity="0.6"/>
<path d="M0.0682966 20.8875L1.30415 25.5464C1.3451 25.7048 1.46901 25.8287 1.6274 25.8697L6.28745 27.1055C6.44153 27.1443 6.60531 27.1001 6.71844 26.9881L9.8431 23.8634L3.3104 17.3264L0.185741 20.4511C0.071529 20.5653 0.0262753 20.7312 0.0682966 20.8875Z" fill="#192147" fill-opacity="0.6"/>
<path d="M6.28425 7.55161L1.62419 8.78639C1.4658 8.82733 1.34189 8.95124 1.30095 9.10963L0.0683254 13.7665C0.0284591 13.9205 0.0737128 14.0843 0.18577 14.1974L3.31043 17.3221L9.84421 10.7937L6.71955 7.66905C6.60533 7.55484 6.4394 7.51067 6.28425 7.55161Z" fill="#192147" fill-opacity="0.7"/>
<path d="M19.4574 20.4069L16.3791 17.3275L9.84424 23.8613L12.9236 26.9407C13.0648 27.0818 13.2695 27.1368 13.4624 27.0872L17.9996 25.8837C18.1946 25.832 18.3466 25.6801 18.3983 25.485L19.6018 20.9489C19.6535 20.7549 19.5986 20.5491 19.4574 20.4069Z" fill="#192147" fill-opacity="0.5"/>
<path d="M9.8442 10.7937L3.31042 17.3264L9.8442 23.8613L16.3791 17.3275L9.8442 10.7937Z" fill="#192147"/>
</g>
<defs>
<clipPath id="clip0_3744_46419">
<rect width="140" height="30.7122" fill="white" transform="translate(0.0532227 0.643921)"/>
</clipPath>
</defs>
</svg>
