<svg width="141" height="18" viewBox="0 0 141 18" fill="none" xmlns="http://www.w3.org/2000/svg">
<g clip-path="url(#clip0_3744_46434)">
<path d="M6.26794 8.29905C6.00885 8.01399 5.62018 8.03995 5.43881 8.37678L1.24146 16.7974C1.086 17.1342 1.31917 17.5229 1.68191 17.5229H7.53752C7.71889 17.5229 7.90025 17.4193 7.97798 17.2379C9.24758 14.621 8.4703 10.6568 6.26794 8.29905Z" fill="url(#paint0_linear_3744_46434)"/>
<path d="M9.3513 0.629805C6.99351 4.3608 7.14897 8.48045 8.70353 11.5896C10.2581 14.6988 11.4499 17.0565 11.5277 17.2379C11.6054 17.4193 11.7868 17.5229 11.9681 17.5229H17.8238C18.1865 17.5229 18.4456 17.1343 18.2642 16.7974C18.2642 16.7974 10.3877 1.04436 10.1804 0.655714C10.025 0.292979 9.58451 0.267069 9.3513 0.629805Z" fill="#192147"/>
<path d="M88.7907 13.3514C88.7907 10.89 87.469 9.72403 83.7901 8.92086C81.7428 8.4804 81.2509 8.01399 81.2509 7.36628C81.2509 6.56308 81.9765 6.20035 83.3234 6.20035C84.9557 6.20035 86.5622 6.69263 88.091 7.39219V4.15348C87.0289 3.60938 85.3707 3.19482 83.4269 3.19482C79.7738 3.19482 77.8826 4.77531 77.8826 7.39219C77.8826 9.46493 78.8412 11.1232 82.6237 11.8486C84.8781 12.315 85.3448 12.6778 85.3448 13.4292C85.3448 14.1546 84.8781 14.621 83.2716 14.621C81.4321 14.621 79.2302 13.9992 77.8049 13.1442V16.5383C78.9447 17.1083 80.4476 17.7301 83.2457 17.7301C87.2101 17.7301 88.7907 15.9683 88.7907 13.3514Z" fill="#192147"/>
<path d="M128.64 3.4021V17.5229H131.645V6.77036L132.915 9.62041L137.164 17.5229H140.947V3.4021H137.941V12.5223L136.801 9.8795L133.381 3.4021H128.64Z" fill="#192147"/>
<path d="M109.545 3.4021H106.254V17.497H109.545V3.4021Z" fill="#192147"/>
<path d="M102.446 13.3514C102.446 10.89 101.124 9.72403 97.4451 8.92086C95.3985 8.4804 94.9059 8.01399 94.9059 7.36628C94.9059 6.56308 95.6315 6.20035 96.9784 6.20035C98.6108 6.20035 100.217 6.69263 101.746 7.39219V4.15348C100.684 3.60938 99.0257 3.19482 97.0827 3.19482C93.4289 3.19482 91.5376 4.77531 91.5376 7.39219C91.5376 9.46493 92.4962 11.1232 96.2794 11.8486C98.5331 12.315 98.9998 12.6778 98.9998 13.4292C98.9998 14.1546 98.5331 14.621 96.9266 14.621C95.0871 14.621 92.8852 13.9992 91.46 13.1442V16.5383C92.5997 17.1083 94.1027 17.7301 96.9007 17.7301C100.891 17.7301 102.446 15.9683 102.446 13.3514Z" fill="#192147"/>
<path d="M52.3877 3.4021V17.5229H59.1242L60.1866 14.4655H55.6783V3.4021H52.3877Z" fill="#192147"/>
<path d="M39.0441 3.4021V6.45945H42.6973V17.5229H45.9878V6.45945H49.9002V3.4021H39.0441Z" fill="#192147"/>
<path d="M34.2504 3.4021H29.9235L25.0006 17.497H28.7575L29.4571 15.1133C30.2862 15.3464 31.1672 15.5019 32.0999 15.5019C33.0067 15.5019 33.8877 15.3724 34.7427 15.1133L35.4423 17.497H39.1992L34.2504 3.4021ZM32.074 12.6C31.4521 12.6 30.8303 12.4964 30.2603 12.3409L32.074 6.17444L33.8877 12.3409C33.3177 12.4964 32.7217 12.6 32.074 12.6Z" fill="#192147"/>
<path d="M70.7832 3.4021H66.4562L61.5334 17.497H65.2904L65.9899 15.1133C66.819 15.3464 67.6999 15.5019 68.6327 15.5019C69.5396 15.5019 70.4205 15.3724 71.2755 15.1133L71.975 17.497H75.7316L70.7832 3.4021ZM68.6068 12.6C67.9849 12.6 67.3631 12.4964 66.7931 12.3409L68.6068 6.17444L70.4205 12.3409C69.8504 12.4964 69.2286 12.6 68.6068 12.6Z" fill="#192147"/>
<path d="M121.359 3.4021H117.032L112.109 17.497H115.866L116.566 15.1133C117.395 15.3464 118.276 15.5019 119.208 15.5019C120.115 15.5019 120.996 15.3724 121.851 15.1133L122.551 17.497H126.308L121.359 3.4021ZM119.208 12.6C118.587 12.6 117.965 12.4964 117.395 12.3409L119.208 6.17444L121.023 12.3409C120.427 12.4964 119.83 12.6 119.208 12.6Z" fill="#192147"/>
</g>
<defs>
<linearGradient id="paint0_linear_3744_46434" x1="8.56954" y1="9.58647" x2="4.13091" y2="17.2744" gradientUnits="userSpaceOnUse">
<stop stop-color="#192147" stop-opacity="0.4"/>
<stop offset="0.9228" stop-color="#192147"/>
</linearGradient>
<clipPath id="clip0_3744_46434">
<rect width="140" height="17.8571" fill="white" transform="translate(0.946777 0.0714111)"/>
</clipPath>
</defs>
</svg>
