<svg width="20" height="21" viewBox="0 0 20 21" fill="none" xmlns="http://www.w3.org/2000/svg">
<path fill-rule="evenodd" clip-rule="evenodd" d="M7.3329 0.546387C6.22733 0.547202 5.33258 1.44262 5.33339 2.54598C5.33258 3.64934 6.22815 4.54476 7.33372 4.54557H9.33405V2.5468C9.33487 1.44343 8.43929 0.548018 7.3329 0.546387C7.33372 0.546387 7.33372 0.546387 7.3329 0.546387ZM7.3329 5.87972H2.00033C0.894757 5.88054 -0.000814894 6.77595 2.23311e-06 7.87931C-0.00163202 8.98268 0.893939 9.87809 1.99951 9.87972H7.3329C8.43848 9.87891 9.33405 8.98349 9.33323 7.88013C9.33405 6.77595 8.43848 5.88054 7.3329 5.87972Z" fill="#515774"/>
<path fill-rule="evenodd" clip-rule="evenodd" d="M19.9999 7.87931C20.0007 6.77595 19.1052 5.88054 17.9996 5.87972C16.894 5.88054 15.9985 6.77595 15.9993 7.87931V9.87972H17.9996C19.1052 9.87891 20.0007 8.98349 19.9999 7.87931ZM14.6665 7.87931V2.54598C14.6674 1.44343 13.7726 0.548018 12.667 0.546387C11.5614 0.547202 10.6659 1.44262 10.6667 2.54598V7.87931C10.6651 8.98268 11.5606 9.87809 12.6662 9.87972C13.7718 9.87891 14.6674 8.98349 14.6665 7.87931Z" fill="#515774"/>
<path fill-rule="evenodd" clip-rule="evenodd" d="M12.6663 20.5461C13.7719 20.5453 14.6675 19.6499 14.6667 18.5465C14.6675 17.4431 13.7719 16.5477 12.6663 16.5469H10.666V18.5465C10.6652 19.649 11.5608 20.5445 12.6663 20.5461ZM12.6663 15.2119H17.9997C19.1053 15.2111 20.0009 14.3157 20.0001 13.2123C20.0017 12.109 19.1061 11.2135 18.0006 11.2119H12.6672C11.5616 11.2127 10.666 12.1081 10.6668 13.2115C10.666 14.3157 11.5608 15.2111 12.6663 15.2119Z" fill="#515774"/>
<path fill-rule="evenodd" clip-rule="evenodd" d="M-0.000121512 13.2125C-0.000938639 14.3159 0.894633 15.2113 2.00021 15.2121C3.10578 15.2113 4.00135 14.3159 4.00053 13.2125V11.2129H2.00021C0.894633 11.2137 -0.000938639 12.1091 -0.000121512 13.2125ZM5.33327 13.2125V18.5458C5.33163 19.6492 6.22721 20.5446 7.33278 20.5462C8.43835 20.5454 9.33392 19.65 9.33311 18.5466V13.2141C9.33474 12.1108 8.43917 11.2153 7.3336 11.2137C6.22721 11.2137 5.33245 12.1091 5.33327 13.2125C5.33327 13.2133 5.33327 13.2125 5.33327 13.2125Z" fill="#515774"/>
</svg>
