<svg width="49" height="57" viewBox="0 0 49 57" fill="none" xmlns="http://www.w3.org/2000/svg">
<g clip-path="url(#clip0_3744_28829)">
<path fill-rule="evenodd" clip-rule="evenodd" d="M43.8765 0.499969H4.38262C1.1815 0.499969 0.00012207 1.68135 0.00012207 4.88396V43.5285C0.00012207 43.8909 0.0147371 44.2275 0.0467523 44.5394C0.119632 45.2385 0.133353 45.9159 0.7835 46.6871C0.847033 46.7627 1.5108 47.2567 1.5108 47.2567C1.86784 47.4317 2.11163 47.5607 2.51431 47.7228L21.9616 55.8705C22.9712 56.3334 23.3934 56.5137 24.1266 56.4992V56.4993C24.1276 56.4993 24.1285 56.4993 24.1295 56.4993C24.1305 56.4993 24.1314 56.4993 24.1324 56.4993V56.4992C24.8657 56.5137 25.2878 56.3334 26.2975 55.8705L45.7447 47.7228C46.1475 47.5607 46.3912 47.4317 46.7484 47.2567C46.7484 47.2567 47.4121 46.7627 47.4756 46.6871C48.1257 45.9159 48.1394 45.2385 48.2123 44.5394C48.2443 44.2275 48.259 43.8909 48.259 43.5285V4.88396C48.259 1.68135 47.0776 0.499969 43.8765 0.499969Z" fill="#2F2D2E"/>
<path d="M41.2312 39.352L41.2223 39.4411L41.2134 39.5391L41.1955 39.6283L41.1689 39.7173L41.1516 39.7976L41.1248 39.8868L41.0892 39.967L41.0535 40.0384L41.0184 40.1185L40.9738 40.1898L40.9293 40.2612L40.8763 40.3325L40.8316 40.4038L40.7788 40.4661L40.7163 40.5286L40.6633 40.582L40.5921 40.6445L40.5302 40.698L40.4589 40.7515L40.3881 40.7954L40.3173 40.8489L40.2371 40.8935L40.1573 40.9291L40.0777 40.9737L39.9885 41.0094L39.8999 41.0451L39.8113 41.0717L39.7227 41.0986L39.6425 41.1252L39.5539 41.1431L39.4742 41.1609L39.3945 41.1787L39.3054 41.1966L39.2167 41.2055L39.137 41.2144L39.0478 41.2233L38.9504 41.2323L38.8617 41.2411H38.7731H38.6756H38.5776H38.489L38.4003 41.2323H38.3028L38.2142 41.2233L38.1251 41.2144L38.0275 41.2055L37.9389 41.1877L37.8504 41.1787L37.7612 41.1609L37.6725 41.1431L37.5839 41.1252L37.4953 41.1074L37.4062 41.0808L37.3265 41.0629L37.2379 41.0361L37.1492 41.0094L37.0691 40.9737L36.9805 40.9469L36.9007 40.9203L36.8121 40.8846L36.7319 40.8489L36.6522 40.8132L36.5724 40.7693L36.4923 40.7336L36.4126 40.6889L36.3418 40.6445L36.2615 40.5998L36.1907 40.5553L36.1195 40.5108L36.0487 40.4573L35.9779 40.4038L35.9066 40.3503L35.8357 40.2968L35.7733 40.2433L35.7026 40.181L35.756 40.1097L35.8179 40.0472L35.8714 39.9758L35.9333 39.9046L35.9868 39.8422L36.0397 39.7709L36.1021 39.6995L36.155 39.6372L36.2175 39.5659L36.2705 39.5035L36.3328 39.4322L36.3858 39.3608L36.4393 39.2985L36.5011 39.2272L36.5546 39.1558L36.6165 39.0934L36.67 39.0222L36.7408 39.0756L36.8205 39.1291L36.8918 39.1826L36.9715 39.2361L37.0428 39.2807L37.1226 39.3341L37.1933 39.3787L37.2736 39.4143L37.3443 39.4589L37.424 39.4946L37.5043 39.5302L37.5839 39.5659L37.6637 39.5927L37.7439 39.6283L37.8325 39.655L37.9211 39.6817L38.0008 39.7085L38.09 39.7264L38.1786 39.7442L38.2672 39.762L38.3647 39.7709L38.4538 39.7887H38.5425L38.6399 39.7976H38.7286H38.835L38.9325 39.7887L39.0217 39.7709L39.1013 39.753L39.1811 39.7352L39.2524 39.7085L39.3143 39.6729L39.3856 39.6194L39.4385 39.557L39.4742 39.4856L39.501 39.4054L39.5098 39.3163V39.2985L39.501 39.1915L39.4653 39.1023L39.4207 39.04L39.3588 38.9865L39.2875 38.933L39.2167 38.8974L39.137 38.8617L39.0478 38.826L38.9415 38.7815L38.8795 38.7636L38.8088 38.7458L38.7286 38.719L38.6488 38.7012L38.5603 38.6745L38.4711 38.6567L38.3736 38.6299L38.2849 38.6121L38.1874 38.5854L38.0988 38.5676L38.0096 38.5408L37.9211 38.5229L37.8325 38.4962L37.7522 38.4695L37.6637 38.4516L37.5839 38.4249L37.5043 38.3982L37.424 38.3714L37.3265 38.3357L37.2379 38.3L37.1492 38.2644L37.0601 38.2287L36.9805 38.1842L36.8918 38.1396L36.8205 38.0951L36.7408 38.0506L36.67 37.9971L36.5987 37.9525L36.5368 37.8989L36.4745 37.8366L36.4126 37.7742L36.3591 37.7117L36.3062 37.6494L36.2615 37.587L36.2175 37.5157L36.1729 37.4355L36.1372 37.3737L36.1105 37.3023L36.0844 37.222L36.0576 37.1508L36.0397 37.0616L36.0219 36.9813L36.013 36.8922L36.0041 36.8031L35.9952 36.7051V36.607V36.5892V36.5L36.0041 36.4109L36.013 36.3307L36.0219 36.2415L36.0397 36.1614L36.0576 36.0811L36.0844 36.0008L36.1021 35.9207L36.1372 35.8404L36.1729 35.7602L36.2085 35.68L36.2527 35.5997L36.2971 35.5196L36.3501 35.4482L36.4037 35.3769L36.4656 35.3056L36.5279 35.2433L36.5898 35.1719L36.6611 35.1094L36.723 35.0649L36.7943 35.0114L36.8651 34.9579L36.9358 34.9134L37.0161 34.8688L37.0958 34.8331L37.1755 34.7886L37.2557 34.753L37.3443 34.7262L37.4329 34.6906L37.5131 34.6638L37.5839 34.6459L37.6637 34.6281L37.7439 34.6103L37.8325 34.5925L37.9122 34.5746L38.0008 34.5658L38.09 34.5568L38.1786 34.5479L38.2672 34.539H38.3557H38.4538H38.5514H38.6488L38.7464 34.5479L38.8439 34.5568H38.9325L39.0305 34.5658L39.1191 34.5836L39.2167 34.5925L39.3054 34.6103L39.3856 34.6281L39.4742 34.6459L39.5628 34.6638L39.6425 34.6816L39.7316 34.7084L39.8113 34.7351L39.8911 34.753L39.9802 34.7886L40.0599 34.8153L40.1395 34.8509L40.2193 34.8866L40.3084 34.9223L40.3881 34.9669L40.4589 35.0026L40.5391 35.0471L40.6189 35.0916L40.6897 35.1363L40.7698 35.1898L40.8407 35.2342L40.912 35.2878L40.9828 35.3413L41.0535 35.3947L41.0006 35.4661L40.956 35.5374L40.903 35.6087L40.8495 35.68L40.7966 35.7602L40.752 35.8315L40.6985 35.9029L40.6455 35.9741L40.6011 36.0454L40.548 36.1168L40.4946 36.1881L40.45 36.2594L40.3971 36.3396L40.3435 36.4109L40.2906 36.4822L40.246 36.5535L40.193 36.6248L40.1217 36.5714L40.0421 36.5268L39.9712 36.4822L39.8999 36.4287L39.8203 36.3931L39.7489 36.3485L39.6693 36.3128L39.5985 36.2772L39.5182 36.2415L39.4474 36.2059L39.3678 36.1792L39.2965 36.1435L39.1989 36.1168L39.1103 36.09L39.0217 36.0633L38.9325 36.0454L38.8439 36.0276L38.7553 36.0097L38.6667 36.0008L38.5776 35.9919L38.4979 35.983H38.4092H38.3028L38.2053 36.0008L38.1161 36.0187L38.0365 36.0365L37.9657 36.0722L37.9033 36.1078L37.8235 36.1792L37.77 36.2594L37.735 36.3396L37.726 36.4287V36.4466L37.735 36.5625L37.779 36.6605L37.8147 36.714L37.8765 36.7764L37.9567 36.821L38.0275 36.8655L38.1161 36.9012L38.2142 36.9369L38.3206 36.9725L38.3914 36.9903L38.4622 37.017L38.5425 37.0348L38.6221 37.0616L38.7107 37.0795L38.8088 37.1062L38.9064 37.1329L39.0039 37.1597L39.1013 37.1775L39.1899 37.2042L39.2875 37.231L39.3766 37.2488L39.4653 37.2755L39.5539 37.3023L39.6336 37.329L39.7227 37.3558L39.8025 37.3825L39.8821 37.4093L39.9802 37.4444L40.0688 37.489L40.1573 37.5246L40.246 37.5691L40.3263 37.6138L40.406 37.6583L40.4767 37.7029L40.548 37.7564L40.6189 37.8009L40.6897 37.8633L40.761 37.9257L40.8228 37.9971L40.8851 38.0594L40.9381 38.1308L40.9916 38.2109L41.0357 38.2822L41.0803 38.3626L41.1159 38.4339L41.1427 38.514L41.1689 38.5942L41.1867 38.6745L41.2045 38.7636L41.2223 38.8528L41.2312 38.9419L41.2402 39.04V39.138V39.1558V39.2539L41.2312 39.352ZM35.0078 41.1343H34.9187H34.8301H34.7415H34.6529H34.5637H34.475H34.3866H34.2979H34.1998H34.1112H34.0227H33.9341H33.8448H33.7563H33.6676H33.579H33.4898H33.4012H33.3127H33.2241H33.1354H33.0463H32.9577H32.8691H32.7804H32.6912H32.6027H32.5141H32.4165H32.3274H32.2388H32.1502H32.0616H31.9725H31.8838H31.7952H31.7065H31.6174H31.5289H31.4403H31.3516H31.2624H31.1739H31.0852H30.9966H30.9075H30.8188H30.7213H30.6327H30.5441H30.4549H30.3664H30.2777H30.1892H30.1001H30.0114H29.9228V41.0451V40.9559V40.8668V40.7781V40.6889V40.5998V40.5108V40.4217V40.3325V40.2433V40.1542V40.065V39.9758V39.8868V39.7976V39.7085V39.6194V39.5302V39.45V39.3608V39.2717V39.1826V39.0934V39.0043V38.9152V38.826V38.7368V38.6477V38.5586V38.4695V38.3804V38.2912V38.2021V38.1129V38.0237V37.9346V37.8454V37.7564V37.6673V37.5781V37.489V37.4003V37.3112V37.222V37.1329V37.0438V36.9547V36.8655V36.7764V36.6872V36.598V36.509V36.4198V36.3307V36.2505V36.1614V36.0722V35.983V35.8939V35.8047V35.7156V35.6265V35.5374V35.4482V35.3591V35.2699V35.1807V35.0916V35.0026V34.9134V34.8243V34.7351V34.6459H30.0114H30.1001H30.1892H30.2777H30.3664H30.4549H30.5441H30.6327H30.7213H30.81H30.8991H30.9878H31.0763H31.165H31.2451H31.3338H31.4224H31.5111H31.6001H31.6887H31.7773H31.866H31.9551H32.0437H32.1323H32.221H32.3101H32.3987H32.4873H32.5759H32.6651H32.7538H32.8423H32.9309H33.0195H33.1087H33.1973H33.2859H33.3745H33.4637H33.5523H33.6409H33.7294H33.8098H33.8984H33.987H34.0756H34.1647H34.2533H34.3419H34.4305H34.5197H34.6083H34.6969H34.7855H34.8746H34.9633H35.0519V34.7351V34.8153V34.9044V34.9936V35.0827V35.1629V35.2521V35.3413V35.4214V35.5106V35.5997V35.68V35.7691V35.8582V35.9474V36.0276V36.1168H34.9633H34.8746H34.7855H34.6969H34.6083H34.5197H34.4394H34.3509H34.2623H34.1736H34.0845H33.9959H33.9072H33.8186H33.7294H33.6409H33.5523H33.4637H33.3745H33.2949H33.2062H33.1176H33.0284H32.9399H32.8512H32.7626H32.6734H32.5849H32.4963H32.4077H32.3185H32.2298H32.1502H32.0616H31.9725H31.8838H31.7952H31.7065H31.6174V36.2059V36.295V36.3841V36.4733V36.5625V36.6427V36.7318V36.821V36.91V36.9992V37.0883V37.1775H31.7065H31.7952H31.8838H31.9725H32.0616H32.1502H32.2388H32.3274H32.4077H32.4963H32.5849H32.6734H32.7626H32.8512H32.9399H33.0284H33.1176H33.2062H33.2949H33.3834H33.4725H33.5611H33.6498H33.7385H33.8276H33.9162H33.9959H34.0845H34.1736H34.2623H34.3509H34.4394H34.5285H34.6172H34.7058V37.2666V37.3468V37.4355V37.5246V37.6048V37.6939V37.7831V37.8633V37.9525V38.0416V38.1308V38.2109V38.3V38.3892V38.4695V38.5586H34.6172H34.5285H34.4394H34.3509H34.2623H34.1736H34.0845H33.9959H33.9162H33.8276H33.7385H33.6498H33.5611H33.4725H33.3834H33.2949H33.2062H33.1176H33.0284H32.9399H32.8512H32.7626H32.6734H32.5849H32.4963H32.4077H32.3274H32.2388H32.1502H32.0616H31.9725H31.8838H31.7952H31.7065H31.6174V38.6477V38.7458V38.8349V38.9241V39.0222V39.1113V39.2004V39.2985V39.3875V39.4767V39.5748V39.6638H31.7065H31.7952H31.8838H31.9725H32.0616H32.1502H32.2388H32.3274H32.4165H32.5141H32.6027H32.6912H32.7804H32.8691H32.9577H33.0463H33.1354H33.2241H33.3127H33.4012H33.4898H33.579H33.6676H33.7563H33.8448H33.9341H34.0227H34.1112H34.1998H34.2979H34.3866H34.475H34.5637H34.6529H34.7415H34.8301H34.9187H35.0078H35.0965V39.753V39.8333V39.9225V40.0115V40.1007V40.181V40.2701V40.3591V40.4395V40.5286V40.6176V40.698V40.7866V40.8757V40.9647V41.0451V41.1343H35.0078ZM28.5238 41.1343H28.4352H28.3465H28.2486H28.16H28.0713H27.9827H27.8935H27.8049H27.7074H27.6188H27.5301H27.441H27.3525H27.2639H27.1663H27.0771H26.9886H26.8999V41.0451V40.9559V40.8668V40.7776V40.6879V40.5989V40.5097V40.4205V40.3314V40.2423V40.1531V40.0635V39.9744V39.8852V39.7961V39.7069V39.6172V39.528V39.4389V39.3499V39.2607V39.1716V39.0819V38.9928V38.9036V38.8145V38.7254V38.6362V38.5465V38.4573V38.3682V38.2791V38.1901V38.1009V38.0112V37.9221V37.8329V37.7438V37.6546V37.565V37.4759V37.3867V37.2975L26.8554 37.3688L26.8024 37.4496L26.7578 37.5209L26.7049 37.5923L26.6604 37.6724L26.6068 37.7438L26.5628 37.8151L26.5182 37.8959L26.4653 37.9671L26.4206 38.0384L26.3672 38.1098L26.3232 38.1906L26.2697 38.2618L26.2257 38.3331L26.181 38.4134L26.1275 38.4852L26.0835 38.5565L26.03 38.6367L25.986 38.7081L25.9326 38.7794L25.8885 38.8601L25.8439 38.9315L25.7905 39.0028L25.7464 39.083L25.6929 39.1548L25.6489 39.2261L25.5954 39.2975L25.5508 39.3776L25.5067 39.4494L25.4533 39.5208L25.4093 39.601L25.3558 39.6723L25.3112 39.7436L25.2583 39.8244L25.2137 39.8957H25.1785L25.1251 39.8155L25.0805 39.7436L25.0275 39.6634L24.9829 39.5921L24.9299 39.5119L24.8854 39.44L24.8325 39.3598L24.7879 39.2884L24.7344 39.2083L24.6903 39.137L24.6368 39.0562L24.5929 38.9849L24.5394 38.9046L24.4948 38.8333L24.4419 38.7526L24.3972 38.6813L24.3443 38.6011L24.2908 38.5298L24.2463 38.4491L24.1933 38.3778L24.1488 38.2975L24.0958 38.2262L24.0512 38.1454L23.9982 38.0741L23.9537 37.9939L23.9002 37.9226L23.8561 37.8424L23.8027 37.7705L23.7586 37.6903L23.7051 37.619L23.6606 37.5387L23.6077 37.4675L23.5629 37.3867L23.51 37.3154V37.4045V37.4937V37.5829V37.6724V37.7616V37.8507V37.9399V38.0291V38.1187V38.2079V38.2881V38.3772V38.4664V38.5554V38.6451V38.7343V38.8234V38.9125V39.0017V39.0909V39.1804V39.2696V39.3588V39.4479V39.5371V39.6262V39.7158V39.8049V39.8941V39.9832V40.0724V40.162V40.2423V40.3314V40.4205V40.5097V40.5989V40.6879V40.7776V40.8668V40.9559V41.0451V41.1343H23.4215H23.3324H23.2437H23.1551H23.0665H22.9774H22.8887H22.8001H22.7115H22.6224H22.5338H22.4451H22.3565H22.2674H22.1788H22.0901H22.0015H21.9124H21.8238V41.0451V40.9559V40.8668V40.7781V40.6889V40.5998V40.5108V40.4217V40.3325V40.2433V40.1542V40.065V39.9758V39.8868V39.7976V39.7085V39.6194V39.5302V39.45V39.3608V39.2717V39.1826V39.0934V39.0043V38.9152V38.826V38.7368V38.6477V38.5586V38.4695V38.3804V38.2912V38.2021V38.1129V38.0237V37.9346V37.8454V37.7564V37.6673V37.5781V37.489V37.4003V37.3112V37.222V37.1329V37.0438V36.9547V36.8655V36.7764V36.6872V36.598V36.509V36.4198V36.3307V36.2505V36.1614V36.0722V35.983V35.8939V35.8047V35.7156V35.6265V35.5374V35.4482V35.3591V35.2699V35.1807V35.0916V35.0026V34.9134V34.8243V34.7351V34.6459H21.9124H22.0015H22.0813H22.1698H22.2585H22.3476H22.4273H22.5159H22.6051H22.6937H22.7734H22.862H22.9512H23.0398H23.1194H23.208H23.2972H23.3859H23.4655H23.5541H23.6433L23.6873 34.7173L23.7319 34.7974L23.7848 34.8682L23.8294 34.9485L23.8739 35.0198L23.918 35.1001L23.9625 35.1708L24.0156 35.2511L24.0601 35.3224L24.1047 35.3937L24.1488 35.4733L24.1933 35.5447L24.2463 35.6249L24.2908 35.6963L24.3354 35.7759L24.3794 35.8472L24.4329 35.9185L24.4776 35.9983L24.5215 36.0695L24.566 36.1497L24.6102 36.2211L24.6637 36.3008L24.7082 36.3722L24.7522 36.4523L24.7968 36.5231L24.8409 36.5944L24.8944 36.6746L24.9389 36.746L24.9829 36.8262L25.0275 36.897L25.0715 36.9773L25.1251 37.0485L25.1697 37.1282L25.2137 37.1996L25.2583 37.1282L25.3028 37.0485L25.3558 36.9773L25.4002 36.897L25.4444 36.8262L25.4889 36.746L25.5419 36.6746L25.5865 36.5944L25.6311 36.5231L25.675 36.4523L25.7285 36.3722L25.7726 36.3008L25.8172 36.2211L25.8617 36.1497L25.9147 36.0695L25.9592 35.9983L26.0038 35.9185L26.0478 35.8472L26.0925 35.7759L26.1454 35.6963L26.19 35.6249L26.2345 35.5447L26.2787 35.4733L26.3321 35.3937L26.3762 35.3224L26.4206 35.2511L26.4653 35.1708L26.5182 35.1001L26.5628 35.0198L26.6068 34.9485L26.6514 34.8682L26.7049 34.7974L26.7489 34.7173L26.7935 34.6459H26.8821H26.9708H27.0509H27.1396H27.2282H27.3168H27.397H27.4857H27.5742H27.6629H27.7431H27.8317H27.9203H28.009H28.0891H28.1778H28.2664H28.355H28.4352H28.5238H28.6124V34.7351V34.8243V34.9134V35.0026V35.0916V35.1807V35.2699V35.3591V35.4482V35.5374V35.6265V35.7156V35.8047V35.8939V35.983V36.0722V36.1614V36.2505V36.3307V36.4198V36.509V36.598V36.6872V36.7764V36.8655V36.9547V37.0438V37.1329V37.222V37.3112V37.4003V37.489V37.5781V37.6673V37.7564V37.8454V37.9346V38.0237V38.1129V38.2021V38.2912V38.3804V38.4695V38.5586V38.6477V38.7368V38.826V38.9152V39.0043V39.0934V39.1826V39.2717V39.3608V39.45V39.5302V39.6194V39.7085V39.7976V39.8868V39.9758V40.065V40.1542V40.2433V40.3325V40.4217V40.5108V40.5998V40.6889V40.7781V40.8668V40.9559V41.0451V41.1343H28.5238ZM18.2273 38.4606L18.2006 38.3799L18.1655 38.2907L18.1298 38.2104L18.1031 38.1297L18.068 38.0495L18.0324 37.9603L18.0055 37.8796L17.9698 37.7993L17.9348 37.7192L17.908 37.6384L17.8723 37.5493L17.8461 37.469L17.8104 37.3883L17.7748 37.308L17.7481 37.2278L17.7129 37.1382L17.6773 37.0579L17.6506 36.9778L17.6149 36.897L17.5798 36.8078L17.553 36.7271L17.5173 36.6469L17.4822 36.7271L17.4556 36.8078L17.4199 36.897L17.3842 36.9778L17.358 37.0579L17.3224 37.1382L17.2867 37.2278L17.2516 37.308L17.2247 37.3883L17.1891 37.469L17.1534 37.5493L17.1272 37.6384L17.0916 37.7192L17.0559 37.7993L17.0293 37.8796L16.9941 37.9603L16.9584 38.0495L16.9228 38.1297L16.8966 38.2104L16.8609 38.2907L16.8252 38.3799L16.7985 38.4606L16.7634 38.5408H16.852H16.9406H17.0293H17.1183H17.2069H17.2955H17.3842H17.4734H17.553H17.6416H17.7308H17.8194H17.908H17.9967H18.0853H18.1743H18.2629L18.2273 38.4606ZM21.0142 41.1343H20.9252H20.8453H20.7568H20.6677H20.5791H20.4904H20.4107H20.3215H20.233H20.1444H20.0557H19.9666H19.8869H19.7983H19.7096H19.6205H19.5319H19.4522H19.3636H19.2745L19.2393 41.0539L19.2126 40.9737L19.177 40.8935L19.1413 40.8044L19.115 40.7246L19.0794 40.6445L19.0437 40.5643L19.0175 40.484L18.9819 40.4038L18.9462 40.3235L18.9195 40.2433L18.8843 40.1542L18.8487 40.074L18.8219 39.9937L18.7862 39.9135H18.6976H18.609H18.5204H18.4319H18.3516H18.2629H18.1743H18.0853H17.9967H17.908H17.8194H17.7308H17.6416H17.553H17.4734H17.3842H17.2955H17.2069H17.1183H17.0293H16.9406H16.852H16.7634H16.6748H16.5945H16.506H16.4173H16.3281H16.2395L16.2044 39.9937L16.1777 40.074L16.142 40.1542L16.1064 40.2433L16.0801 40.3235L16.0445 40.4038L16.0088 40.484L15.9821 40.5643L15.947 40.6445L15.9113 40.7246L15.8846 40.8044L15.8494 40.8935L15.8138 40.9737L15.787 41.0539L15.7513 41.1343H15.6627H15.5742H15.4856H15.3964H15.3078H15.2103H15.1217H15.033H14.9439H14.8553H14.7667H14.678H14.5888H14.5004H14.4118H14.3142H14.225H14.1365H14.0478H13.9592L13.9943 41.0539L14.03 40.9737L14.0656 40.8935L14.1008 40.8044L14.1275 40.7246L14.1632 40.6445L14.1988 40.5643L14.2339 40.484L14.2696 40.4038L14.3053 40.3146L14.3404 40.2344L14.3761 40.1542L14.4027 40.074L14.4384 39.9937L14.4735 39.9135L14.5092 39.8244L14.5448 39.7442L14.58 39.6638L14.6157 39.5837L14.6513 39.5035L14.678 39.4232L14.7131 39.3341L14.7488 39.2539L14.7845 39.1737L14.8196 39.0934L14.8553 39.0132L14.891 38.933L14.9261 38.8438L14.9528 38.7636L14.9885 38.6834L15.0241 38.6032L15.0593 38.5229L15.0949 38.4427L15.1305 38.3536L15.1657 38.2734L15.2013 38.1931L15.2281 38.1129L15.2637 38.0328L15.2988 37.9525L15.3345 37.8633L15.3702 37.7831L15.4053 37.7029L15.4409 37.6226L15.4766 37.5425L15.5034 37.4622L15.5386 37.3825L15.5742 37.2933L15.6097 37.2132L15.6449 37.1329L15.6805 37.0526L15.7162 36.9725L15.7513 36.8922L15.7781 36.8031L15.8138 36.7229L15.8494 36.6427L15.8846 36.5625L15.9203 36.4822L15.9559 36.402L15.991 36.3128L16.0266 36.2327L16.0534 36.1524L16.089 36.0722L16.1242 35.9919L16.1598 35.9117L16.1955 35.8226L16.2306 35.7424L16.2663 35.6622L16.302 35.5819L16.3281 35.5018L16.3638 35.4214L16.3995 35.3324L16.4352 35.2521L16.4703 35.1719L16.506 35.0916L16.5416 35.0114L16.5767 34.9313L16.6035 34.8421L16.6391 34.7618L16.6748 34.6816L16.7099 34.6014H16.7985H16.8787H16.9673H17.0559H17.1451H17.2247H17.3133H17.402H17.4912H17.5709H17.6594H17.7481H17.8372H17.9169H18.0055H18.0941H18.1833H18.2629H18.3516L18.3872 34.6816L18.4229 34.7618L18.4581 34.8421L18.4937 34.9313L18.5204 35.0114L18.5555 35.0916L18.5912 35.1719L18.6268 35.2521L18.6625 35.3324L18.6976 35.4214L18.7333 35.5018L18.769 35.5819L18.7952 35.6622L18.8309 35.7424L18.8665 35.8226L18.9022 35.9117L18.9373 35.9919L18.9729 36.0722L19.0086 36.1524L19.0437 36.2327L19.0705 36.3128L19.1061 36.402L19.1413 36.4822L19.177 36.5625L19.2126 36.6427L19.2482 36.7229L19.2833 36.8031L19.3189 36.8922L19.3458 36.9725L19.3809 37.0526L19.4165 37.1329L19.4522 37.2132L19.4879 37.2933L19.523 37.3825L19.5587 37.4622L19.5942 37.5425L19.6205 37.6226L19.6561 37.7029L19.6918 37.7831L19.727 37.8633L19.7626 37.9525L19.7983 38.0328L19.834 38.1129L19.8691 38.1931L19.8958 38.2734L19.9314 38.3536L19.9666 38.4427L20.0022 38.5229L20.0379 38.6032L20.0735 38.6834L20.1087 38.7636L20.1444 38.8438L20.171 38.933L20.2062 39.0132L20.2418 39.0934L20.2775 39.1737L20.3126 39.2539L20.3483 39.3341L20.384 39.4232L20.4197 39.5035L20.4458 39.5837L20.4815 39.6638L20.5172 39.7442L20.5523 39.8244L20.5879 39.9135L20.6236 39.9937L20.6592 40.074L20.6943 40.1542L20.7211 40.2344L20.7568 40.3146L20.7919 40.4038L20.8275 40.484L20.8631 40.5643L20.8983 40.6445L20.9339 40.7246L20.9696 40.8044L20.9965 40.8935L21.0315 40.9737L21.0671 41.0539L21.1027 41.1343H21.0142ZM13.2398 40.3056L13.1685 40.3591L13.1066 40.4038L13.0353 40.4573L12.9645 40.5018L12.8937 40.5553L12.8224 40.5998L12.7516 40.6445L12.6714 40.6889L12.5917 40.7336L12.5119 40.7781L12.4318 40.8132L12.3521 40.8579L12.2635 40.8935L12.1838 40.9291L12.0946 40.9647L12.015 41.0004L11.9352 41.0272L11.855 41.0539L11.7753 41.0808L11.6867 41.1074L11.6071 41.1343L11.5179 41.1521L11.4381 41.1699L11.3495 41.1877L11.2605 41.2055L11.1718 41.2144L11.0742 41.2233L10.9856 41.2323L10.8881 41.2411L10.7989 41.2501L10.7015 41.2589H10.6039H10.5063H10.4089H10.3197L10.2311 41.2501L10.1336 41.2411L10.045 41.2323L9.95639 41.2233L9.8672 41.2144L9.77861 41.1966L9.68992 41.1787L9.61028 41.1609L9.5212 41.1431L9.44146 41.1164L9.35287 41.0986L9.27263 41.0717L9.19289 41.0361L9.11315 41.0094L9.02466 40.9737L8.94443 40.9381L8.86469 40.9025L8.78505 40.8668L8.70471 40.8223L8.63402 40.7781L8.55428 40.7336L8.48299 40.6889L8.4122 40.6445L8.34091 40.5909L8.27012 40.5375L8.19923 40.484L8.13689 40.4305L8.07504 40.377L8.01261 40.3146L7.95076 40.2612L7.88832 40.1988L7.82648 40.1363L7.77299 40.074L7.72 40.0027L7.6665 39.9403L7.62196 39.869L7.56897 39.7976L7.52452 39.7264L7.48038 39.655L7.43584 39.5748L7.39129 39.5035L7.3562 39.4232L7.3205 39.343L7.28491 39.2628L7.24971 39.1826L7.22297 39.1113L7.18727 39.031L7.16947 38.9508L7.14323 38.8706L7.12543 38.7815L7.09868 38.7012L7.08088 38.6121L7.07194 38.5319L7.05404 38.4427L7.04529 38.3626L7.03624 38.2734L7.02789 38.1842L7.01904 38.0951V37.9971V37.9079V37.8901V37.8009L7.02789 37.7029V37.6138L7.03624 37.5246L7.04529 37.4266L7.06309 37.338L7.07194 37.2488L7.08973 37.1686L7.11648 37.0795L7.13437 36.9903L7.16052 36.91L7.18727 36.821L7.21402 36.7407L7.24971 36.6515L7.28491 36.5714L7.3205 36.4912L7.3562 36.4109L7.39129 36.3307L7.43584 36.2505L7.48038 36.1792L7.52452 36.1078L7.56897 36.0365L7.61361 35.9652L7.6665 35.8939L7.72 35.8226L7.77299 35.7513L7.82648 35.6888L7.88832 35.6265L7.94181 35.564L8.00376 35.5018L8.0661 35.4392L8.12794 35.3858L8.19923 35.3234L8.26117 35.2699L8.33196 35.2164L8.40325 35.1719L8.47404 35.1184L8.54543 35.0738L8.61612 35.0293L8.69586 34.9847L8.7761 34.9401L8.85574 34.8956L8.93548 34.8599L9.01562 34.8243L9.1043 34.7796L9.1751 34.753L9.26368 34.7262L9.34402 34.6906L9.42366 34.6727L9.5033 34.6459L9.59239 34.6281L9.67213 34.6014L9.76071 34.5836L9.8494 34.5746L9.93849 34.5568L10.0272 34.5479L10.1157 34.539L10.2044 34.5301L10.2935 34.5211H10.3911H10.4797H10.5771H10.6746L10.7728 34.5301L10.8703 34.539H10.9589L11.0475 34.5479L11.145 34.5658L11.2253 34.5746L11.3138 34.5925L11.4025 34.6103L11.4827 34.6281L11.5623 34.6459L11.6422 34.6638L11.7224 34.6906L11.802 34.7084L11.8728 34.7351L11.9531 34.7618L12.0328 34.7974L12.1124 34.8331L12.1927 34.8688L12.2724 34.9134L12.3521 34.9491L12.4234 34.9936L12.5031 35.0382L12.5739 35.0827L12.6541 35.1273L12.7249 35.1807L12.7957 35.2254L12.867 35.2789L12.9378 35.3324L13.0091 35.3947L13.0799 35.4482L13.0264 35.5196L12.9645 35.5819L12.911 35.6532L12.8492 35.7245L12.7957 35.7959L12.7427 35.8582L12.6803 35.9295L12.6274 36.0008L12.5739 36.0633L12.5119 36.1346L12.4585 36.2059L12.3966 36.2772L12.3431 36.3396L12.2902 36.4109L12.2279 36.4822L12.1748 36.5535L12.1124 36.6159L12.0594 36.6872L11.9882 36.6337L11.9174 36.5714L11.8461 36.5268L11.7753 36.4733L11.7045 36.4287L11.6332 36.3841L11.5623 36.3396L11.4827 36.295L11.4114 36.2594L11.3406 36.2237L11.2693 36.197L11.1896 36.1702L11.1099 36.1435L11.0297 36.1257L10.9411 36.1078L10.8525 36.09L10.7638 36.0811L10.6663 36.0722L10.5683 36.0633H10.4707H10.3821L10.2935 36.0722L10.2133 36.0811L10.1247 36.0989L10.045 36.1168L9.96474 36.1435L9.8851 36.1702L9.80536 36.2059L9.72562 36.2415L9.65433 36.286L9.58364 36.3307L9.51225 36.3753L9.45041 36.4287L9.38797 36.4822L9.32612 36.5357L9.27263 36.598L9.21079 36.6605L9.1573 36.7318L9.11315 36.7942L9.06861 36.8655L9.02466 36.9457L8.98002 37.017L8.94443 37.0973L8.91768 37.1775L8.88248 37.2577L8.85574 37.3468L8.83794 37.4355L8.82014 37.5157L8.80225 37.6138L8.7934 37.7029L8.78505 37.792V37.8901V37.9079V37.9971L8.7934 38.0862L8.80225 38.1664L8.8112 38.2556L8.82899 38.3357L8.84689 38.4161L8.86469 38.4962L8.89143 38.5764L8.91768 38.6477L8.95338 38.7368L8.98897 38.8171L9.03301 38.8974L9.07756 38.9687L9.1221 39.04L9.1751 39.1113L9.22859 39.1737L9.29043 39.2361L9.34402 39.2985L9.40576 39.352L9.47715 39.4054L9.54794 39.4589L9.61864 39.5035L9.68992 39.548L9.76976 39.5837L9.8494 39.6194L9.92954 39.655L10.0182 39.6817L10.1068 39.7085L10.196 39.7264L10.2846 39.7442L10.3732 39.753L10.4707 39.762H10.5683H10.6746L10.7728 39.753L10.8703 39.7442L10.9589 39.7352L11.0475 39.7173L11.1367 39.6995L11.2253 39.6729L11.3049 39.655L11.3847 39.6194L11.456 39.5837L11.5357 39.548L11.598 39.5124L11.6689 39.4678V39.3787V39.2896V39.2004V39.1113V39.0132V38.9241V38.8349V38.7458V38.6567H11.5802H11.5001H11.4114H11.3228H11.2342H11.154H11.0653H10.9767H10.8881H10.808H10.7193H10.6307H10.542H10.4619H10.3732V38.5676V38.4873V38.3982V38.3091V38.2199V38.1396V38.0506V37.9614V37.8723V37.792V37.7029V37.6138V37.5246V37.4444V37.3558H10.4619H10.551H10.6396H10.7281H10.8168H10.9054H10.9946H11.0832H11.1718H11.2605H11.3495H11.4381H11.5267H11.6153H11.7045H11.7932H11.8818H11.9704H12.0594H12.1481H12.2367H12.3253H12.4144H12.5031H12.5917H12.6803H12.7694H12.858H12.9467H13.0353H13.1244H13.213H13.3017V37.4444V37.5334V37.6226V37.7029V37.792V37.8811V37.9702V38.0594V38.1486V38.2287V38.3179V38.4071V38.4962V38.5854V38.6745V38.7636V38.8438V38.933V39.0222V39.1113V39.2004V39.2896V39.3787V39.4589V39.548V39.6372V39.7264V39.8155V39.9046V39.9849V40.074V40.1631V40.2523L13.2398 40.3056Z" fill="white"/>
<path d="M10.3857 19.9654H14.2318V16.9904H10.3857V10.9169H14.3849V7.94184H7.11963V29.413H14.4457V26.4379H10.3857V19.9654Z" fill="white"/>
<path d="M37.9342 20.6099V25.4563C37.9342 26.3153 37.5372 26.7138 36.7134 26.7138H36.1026C35.248 26.7138 34.851 26.3153 34.851 25.4563V11.8984C34.851 11.0396 35.248 10.6411 36.1026 10.6411H36.6521C37.4763 10.6411 37.8733 11.0396 37.8733 11.8984V16.1011H41.0781V11.7144C41.0781 9.04608 39.796 7.75772 37.1409 7.75772H35.5531C32.8979 7.75772 31.5848 9.0765 31.5848 11.7453V25.6095C31.5848 28.2784 32.8979 29.597 35.5531 29.597H37.1712C39.8271 29.597 41.1394 28.2784 41.1394 25.6095V20.6099H37.9342Z" fill="white"/>
<path d="M26.5922 29.413H29.8587V7.94177H26.5922V29.413Z" fill="white"/>
<path d="M21.8526 17.4811C21.8526 18.34 21.4562 18.739 20.632 18.739H19.2886V10.8251H20.632C21.4562 10.8251 21.8526 11.2237 21.8526 12.0825V17.4811ZM21.1506 7.94178H16.0225V29.413H19.2886V21.6218H21.1506C23.8063 21.6218 25.1187 20.3031 25.1187 17.6348V11.9294C25.1187 9.26056 23.8063 7.94178 21.1506 7.94178Z" fill="white"/>
<path fill-rule="evenodd" clip-rule="evenodd" d="M14.8248 48.8273H33.5223L23.9788 51.9745L14.8248 48.8273Z" fill="white"/>
</g>
<defs>
<clipPath id="clip0_3744_28829">
<rect width="48.2589" height="56" fill="white" transform="translate(0 0.5)"/>
</clipPath>
</defs>
</svg>
