<svg width="398" height="324" viewBox="0 0 398 324" fill="none" xmlns="http://www.w3.org/2000/svg">
<path d="M22.5373 181.792C12.8528 165.018 18.6 143.569 35.3742 133.885L257.35 5.72728C274.124 -3.95727 295.573 1.78999 305.257 18.5641L376.426 141.832C386.11 158.606 380.363 180.055 363.589 189.739L141.614 317.897C124.839 327.581 103.39 321.834 93.7059 305.06L22.5373 181.792Z" fill="#EBF3F8"/>
<g filter="url(#filter0_d_3850_23950)">
<g clip-path="url(#clip0_3850_23950)">
<rect x="10.3827" y="26.4934" width="377.235" height="259.735" rx="3.25175" fill="#F5F5F5"/>
<rect x="10.3221" y="37.8583" width="377.235" height="294.367" fill="white"/>
<ellipse cx="18.8967" cy="32.5741" rx="2.02718" ry="2.02696" fill="#C4C4C4"/>
<ellipse cx="25.3832" cy="32.5741" rx="2.02718" ry="2.02696" fill="#C4C4C4"/>
<ellipse cx="31.4649" cy="32.5741" rx="2.02718" ry="2.02696" fill="#C4C4C4"/>
<rect width="377.235" height="17.3157" transform="translate(10.3221 38.4767)" fill="url(#paint0_linear_3850_23950)"/>
<path d="M18.1826 44.9701C18.7489 44.9701 19.2079 44.5111 19.2079 43.9448C19.2079 43.3786 18.7489 42.9196 18.1826 42.9196C17.6164 42.9196 17.1573 43.3786 17.1573 43.9448C17.1573 44.5111 17.6164 44.9701 18.1826 44.9701Z" fill="#63C740"/>
<path d="M21.2585 44.9701C21.8247 44.9701 22.2838 44.5111 22.2838 43.9448C22.2838 43.3786 21.8247 42.9196 21.2585 42.9196C20.6922 42.9196 20.2332 43.3786 20.2332 43.9448C20.2332 44.5111 20.6922 44.9701 21.2585 44.9701Z" fill="#5CABDF"/>
<path d="M24.3343 44.9701C24.9005 44.9701 25.3596 44.5111 25.3596 43.9448C25.3596 43.3786 24.9005 42.9196 24.3343 42.9196C23.7681 42.9196 23.309 43.3786 23.309 43.9448C23.309 44.5111 23.7681 44.9701 24.3343 44.9701Z" fill="#D66C7B"/>
<path d="M18.1826 48.0459C18.7489 48.0459 19.2079 47.5869 19.2079 47.0206C19.2079 46.4544 18.7489 45.9954 18.1826 45.9954C17.6164 45.9954 17.1573 46.4544 17.1573 47.0206C17.1573 47.5869 17.6164 48.0459 18.1826 48.0459Z" fill="#C98DEF"/>
<path d="M21.2585 48.0459C21.8247 48.0459 22.2838 47.5869 22.2838 47.0206C22.2838 46.4544 21.8247 45.9954 21.2585 45.9954C20.6922 45.9954 20.2332 46.4544 20.2332 47.0206C20.2332 47.5869 20.6922 48.0459 21.2585 48.0459Z" fill="#FAA669"/>
<path d="M18.1826 51.1218C18.7489 51.1218 19.2079 50.6628 19.2079 50.0966C19.2079 49.5303 18.7489 49.0713 18.1826 49.0713C17.6164 49.0713 17.1573 49.5303 17.1573 50.0966C17.1573 50.6628 17.6164 51.1218 18.1826 51.1218Z" fill="#3AEFC4"/>
<rect width="34.176" height="17.088" transform="translate(39.0295 38.4767)" fill="#192147"/>
<rect x="45.8643" y="45.4825" width="20.5056" height="3.07584" rx="1.53792" fill="#9190C5"/>
<rect x="39.0293" y="54.5392" width="34.176" height="1.02528" fill="#6A67FE"/>
<rect x="85.5082" y="45.4825" width="20.5056" height="3.07584" rx="1.53792" fill="#9190C5"/>
<rect x="125.153" y="45.4825" width="20.5056" height="3.07584" rx="1.53792" fill="#9190C5"/>
<rect x="164.797" y="45.4825" width="20.5056" height="3.07584" rx="1.53792" fill="#9190C5"/>
<ellipse cx="373.87" cy="47.0206" rx="5.46816" ry="5.46816" fill="#C98DEF"/>
<path d="M27.3314 77.4679C26.6916 77.4679 26.1503 77.3476 25.7073 77.107C25.2699 76.8664 24.9363 76.5246 24.7067 76.0817C24.477 75.6388 24.3622 75.1138 24.3622 74.5069C24.3622 73.8944 24.4797 73.3668 24.7149 72.9238C24.95 72.4755 25.289 72.131 25.7319 71.8904C26.1749 71.6443 26.7053 71.5213 27.3232 71.5213C27.7278 71.5213 28.1079 71.5814 28.4633 71.7017C28.8187 71.8165 29.114 71.9779 29.3491 72.1856L28.9964 73.0059C28.7394 72.8035 28.477 72.6586 28.209 72.5712C27.9411 72.4837 27.6458 72.4399 27.3232 72.4399C26.7107 72.4399 26.246 72.6176 25.9288 72.9731C25.6171 73.3285 25.4613 73.8398 25.4613 74.5069C25.4613 75.1795 25.6226 75.6907 25.9452 76.0407C26.2678 76.3907 26.7463 76.5656 27.3806 76.5656C27.561 76.5656 27.7442 76.552 27.9301 76.5246C28.1215 76.4918 28.3102 76.4453 28.4961 76.3852V75.04H27.1673V74.2608H29.3737V77.0414C29.1058 77.1726 28.7886 77.2765 28.4223 77.3531C28.0559 77.4296 27.6923 77.4679 27.3314 77.4679ZM32.4687 77.4679C32.0148 77.4679 31.6238 77.3831 31.2958 77.2136C30.9677 77.0441 30.7134 76.8035 30.5329 76.4918C30.358 76.1801 30.2705 75.811 30.2705 75.3845C30.2705 74.9689 30.3552 74.6053 30.5247 74.2936C30.6997 73.9819 30.9376 73.7386 31.2383 73.5636C31.5446 73.3832 31.8918 73.2929 32.28 73.2929C32.8487 73.2929 33.2971 73.4734 33.6252 73.8343C33.9587 74.1952 34.1255 74.6873 34.1255 75.3107V75.6142H31.2547C31.3313 76.3305 31.7414 76.6887 32.4851 76.6887C32.7093 76.6887 32.9335 76.6559 33.1577 76.5902C33.3819 76.5192 33.5869 76.4098 33.7728 76.2622L34.0599 76.9511C33.8685 77.1097 33.6279 77.2355 33.3381 77.3284C33.0483 77.4214 32.7585 77.4679 32.4687 77.4679ZM32.321 73.9901C32.0203 73.9901 31.7769 74.0831 31.591 74.269C31.4051 74.4549 31.293 74.7065 31.2547 75.0236H33.2725C33.2506 74.6901 33.1577 74.4358 32.9936 74.2608C32.835 74.0804 32.6108 73.9901 32.321 73.9901ZM36.7588 77.4679C35.6979 77.4679 35.1675 76.9429 35.1675 75.8931V74.146H34.3965V73.375H35.1675V72.1774H36.1928V73.375H37.4067V74.146H36.1928V75.8356C36.1928 76.0981 36.2502 76.295 36.3651 76.4262C36.4799 76.5574 36.6658 76.6231 36.9228 76.6231C36.9994 76.6231 37.0786 76.6149 37.1607 76.5984C37.2427 76.5766 37.3274 76.5547 37.4149 76.5328L37.5708 77.2874C37.4724 77.3421 37.3466 77.3859 37.1935 77.4187C37.0458 77.4515 36.9009 77.4679 36.7588 77.4679ZM41.8222 77.4679C41.4722 77.4679 41.1633 77.3831 40.8953 77.2136C40.6328 77.0441 40.4278 76.8035 40.2801 76.4918C40.1325 76.1747 40.0587 75.8028 40.0587 75.3763C40.0587 74.9443 40.1325 74.5752 40.2801 74.269C40.4278 73.9573 40.6328 73.7167 40.8953 73.5472C41.1633 73.3777 41.4722 73.2929 41.8222 73.2929C42.1065 73.2929 42.3635 73.3558 42.5932 73.4816C42.8228 73.6074 42.9951 73.7741 43.1099 73.9819V71.6033H44.1352V77.3859H43.1345V76.7215C43.0252 76.9511 42.8529 77.1343 42.6178 77.271C42.3827 77.4023 42.1174 77.4679 41.8222 77.4679ZM42.1092 76.6887C42.4155 76.6887 42.6615 76.5793 42.8474 76.3606C43.0334 76.1364 43.1263 75.8083 43.1263 75.3763C43.1263 74.9389 43.0334 74.6135 42.8474 74.4003C42.6615 74.1815 42.4155 74.0722 42.1092 74.0722C41.803 74.0722 41.557 74.1815 41.371 74.4003C41.1851 74.6135 41.0922 74.9389 41.0922 75.3763C41.0922 75.8083 41.1851 76.1364 41.371 76.3606C41.557 76.5793 41.803 76.6887 42.1092 76.6887ZM45.1327 72.5137V71.5131H46.281V72.5137H45.1327ZM45.1983 77.3859V73.375H46.2236V77.3859H45.1983ZM48.7571 77.4679C48.4181 77.4679 48.1009 77.4269 47.8056 77.3449C47.5104 77.2628 47.2643 77.1453 47.0674 76.9922L47.3299 76.3196C47.5322 76.4563 47.7592 76.5629 48.0107 76.6395C48.2622 76.7105 48.5138 76.7461 48.7653 76.7461C49.0278 76.7461 49.2219 76.7023 49.3477 76.6149C49.4789 76.5219 49.5445 76.4016 49.5445 76.254C49.5445 76.0243 49.375 75.8767 49.036 75.811L48.2157 75.6552C47.5213 75.524 47.1741 75.1631 47.1741 74.5725C47.1741 74.31 47.2451 74.0831 47.3873 73.8917C47.535 73.7003 47.7373 73.5527 47.9943 73.4488C48.2513 73.3449 48.5466 73.2929 48.8801 73.2929C49.1645 73.2929 49.4379 73.334 49.7003 73.416C49.9628 73.4925 50.187 73.6101 50.3729 73.7687L50.0941 74.4413C49.9355 74.31 49.7441 74.2061 49.5199 74.1296C49.3012 74.053 49.0906 74.0147 48.8883 74.0147C48.6204 74.0147 48.4208 74.0612 48.2896 74.1542C48.1638 74.2471 48.1009 74.3702 48.1009 74.5233C48.1009 74.7639 48.2568 74.9115 48.5684 74.9662L49.3887 75.122C49.7441 75.1877 50.012 75.308 50.1925 75.4829C50.3784 75.6579 50.4714 75.8931 50.4714 76.1883C50.4714 76.5875 50.3155 76.9019 50.0038 77.1316C49.6921 77.3558 49.2766 77.4679 48.7571 77.4679ZM51.2939 77.3859V71.6033H52.3192V75.081H52.3356L53.9514 73.375H55.1899L53.3691 75.2943L55.3048 77.3859H54.0498L52.3356 75.5978H52.3192V77.3859H51.2939ZM59.8789 77.4679C59.425 77.4679 59.034 77.3831 58.706 77.2136C58.3779 77.0441 58.1236 76.8035 57.9431 76.4918C57.7682 76.1801 57.6807 75.811 57.6807 75.3845C57.6807 74.9689 57.7654 74.6053 57.9349 74.2936C58.1099 73.9819 58.3478 73.7386 58.6485 73.5636C58.9548 73.3832 59.302 73.2929 59.6902 73.2929C60.2589 73.2929 60.7073 73.4734 61.0354 73.8343C61.3689 74.1952 61.5357 74.6873 61.5357 75.3107V75.6142H58.6649C58.7415 76.3305 59.1516 76.6887 59.8953 76.6887C60.1195 76.6887 60.3437 76.6559 60.5679 76.5902C60.7921 76.5192 60.9971 76.4098 61.183 76.2622L61.4701 76.9511C61.2787 77.1097 61.0381 77.2355 60.7483 77.3284C60.4585 77.4214 60.1687 77.4679 59.8789 77.4679ZM59.7312 73.9901C59.4305 73.9901 59.1872 74.0831 59.0012 74.269C58.8153 74.4549 58.7032 74.7065 58.6649 75.0236H60.6827C60.6608 74.6901 60.5679 74.4358 60.4038 74.2608C60.2452 74.0804 60.021 73.9901 59.7312 73.9901ZM62.3477 77.3859V73.375H63.3484V73.9983C63.4851 73.7687 63.6682 73.5937 63.8979 73.4734C64.133 73.3531 64.3955 73.2929 64.6853 73.2929C65.6313 73.2929 66.1043 73.8425 66.1043 74.9416V77.3859H65.079V74.9908C65.079 74.6791 65.0189 74.4522 64.8986 74.31C64.7837 74.1679 64.6033 74.0968 64.3572 74.0968C64.0565 74.0968 63.8159 74.1925 63.6354 74.3838C63.4604 74.5698 63.373 74.8186 63.373 75.1302V77.3859H62.3477ZM68.9994 77.4679C68.5783 77.4679 68.212 77.3831 67.9003 77.2136C67.5886 77.0386 67.348 76.7926 67.1785 76.4754C67.009 76.1583 66.9242 75.7864 66.9242 75.3599C66.9242 74.9334 67.009 74.567 67.1785 74.2608C67.348 73.9491 67.5886 73.7113 67.9003 73.5472C68.212 73.3777 68.5783 73.2929 68.9994 73.2929C69.2564 73.2929 69.5106 73.334 69.7622 73.416C70.0137 73.498 70.2215 73.6128 70.3855 73.7605L70.0821 74.4741C69.9399 74.3483 69.7786 74.2526 69.5981 74.187C69.4232 74.1214 69.2536 74.0886 69.0896 74.0886C68.7342 74.0886 68.458 74.2007 68.2612 74.4249C68.0698 74.6436 67.9741 74.958 67.9741 75.3681C67.9741 75.7728 68.0698 76.0926 68.2612 76.3278C68.458 76.5574 68.7342 76.6723 69.0896 76.6723C69.2482 76.6723 69.4177 76.6395 69.5981 76.5738C69.7786 76.5082 69.9399 76.4098 70.0821 76.2786L70.3855 77.0004C70.2215 77.1425 70.011 77.2574 69.754 77.3449C69.5024 77.4269 69.2509 77.4679 68.9994 77.4679ZM71.0145 77.3859V73.375H72.0152V74.0804C72.212 73.6046 72.6331 73.3422 73.2783 73.2929L73.59 73.2683L73.6556 74.1378L73.0651 74.1952C72.3925 74.2608 72.0562 74.6053 72.0562 75.2287V77.3859H71.0145ZM74.8357 78.8623L75.5739 77.2218L73.9089 73.375H74.9998L76.1235 76.1801L77.2718 73.375H78.3053L75.8938 78.8623H74.8357ZM78.7922 78.8623V73.375H79.7929V74.0147C79.9077 73.796 80.0799 73.621 80.3096 73.4898C80.5447 73.3586 80.8099 73.2929 81.1052 73.2929C81.4552 73.2929 81.7614 73.3777 82.0239 73.5472C82.2918 73.7167 82.4996 73.9573 82.6472 74.269C82.7949 74.5752 82.8687 74.9443 82.8687 75.3763C82.8687 75.8028 82.7949 76.1747 82.6472 76.4918C82.4996 76.8035 82.2946 77.0441 82.0321 77.2136C81.7696 77.3831 81.4607 77.4679 81.1052 77.4679C80.8209 77.4679 80.5639 77.4077 80.3342 77.2874C80.11 77.1617 79.9378 76.9949 79.8175 76.7871V78.8623H78.7922ZM80.8181 76.6887C81.1244 76.6887 81.3704 76.5793 81.5564 76.3606C81.7423 76.1364 81.8352 75.8083 81.8352 75.3763C81.8352 74.9389 81.7423 74.6135 81.5564 74.4003C81.3704 74.1815 81.1244 74.0722 80.8181 74.0722C80.5119 74.0722 80.2659 74.1815 80.0799 74.4003C79.894 74.6135 79.8011 74.9389 79.8011 75.3763C79.8011 75.8083 79.894 76.1364 80.0799 76.3606C80.2659 76.5793 80.5119 76.6887 80.8181 76.6887ZM85.5076 77.4679C84.4468 77.4679 83.9164 76.9429 83.9164 75.8931V74.146H83.1453V73.375H83.9164V72.1774H84.9416V73.375H86.1556V74.146H84.9416V75.8356C84.9416 76.0981 84.999 76.295 85.1139 76.4262C85.2287 76.5574 85.4146 76.6231 85.6716 76.6231C85.7482 76.6231 85.8275 76.6149 85.9095 76.5984C85.9915 76.5766 86.0763 76.5547 86.1638 76.5328L86.3196 77.2874C86.2212 77.3421 86.0954 77.3859 85.9423 77.4187C85.7947 77.4515 85.6498 77.4679 85.5076 77.4679ZM86.7526 72.5137V71.5131H87.9009V72.5137H86.7526ZM86.8182 77.3859V73.375H87.8435V77.3859H86.8182ZM90.7379 77.4679C90.3223 77.4679 89.9614 77.3831 89.6552 77.2136C89.349 77.0441 89.1111 76.8035 88.9416 76.4918C88.7721 76.1747 88.6874 75.8028 88.6874 75.3763C88.6874 74.9498 88.7721 74.5807 88.9416 74.269C89.1111 73.9573 89.349 73.7167 89.6552 73.5472C89.9614 73.3777 90.3223 73.2929 90.7379 73.2929C91.1535 73.2929 91.5144 73.3777 91.8206 73.5472C92.1268 73.7167 92.3647 73.9573 92.5342 74.269C92.7037 74.5807 92.7885 74.9498 92.7885 75.3763C92.7885 75.8028 92.7037 76.1747 92.5342 76.4918C92.3647 76.8035 92.1268 77.0441 91.8206 77.2136C91.5144 77.3831 91.1535 77.4679 90.7379 77.4679ZM90.7379 76.6887C91.0441 76.6887 91.2902 76.5793 91.4761 76.3606C91.662 76.1364 91.755 75.8083 91.755 75.3763C91.755 74.9389 91.662 74.6135 91.4761 74.4003C91.2902 74.1815 91.0441 74.0722 90.7379 74.0722C90.4317 74.0722 90.1856 74.1815 89.9997 74.4003C89.8138 74.6135 89.7208 74.9389 89.7208 75.3763C89.7208 75.8083 89.8138 76.1364 89.9997 76.3606C90.1856 76.5793 90.4317 76.6887 90.7379 76.6887ZM93.6347 77.3859V73.375H94.6354V73.9983C94.7721 73.7687 94.9553 73.5937 95.1849 73.4734C95.4201 73.3531 95.6825 73.2929 95.9724 73.2929C96.9183 73.2929 97.3913 73.8425 97.3913 74.9416V77.3859H96.3661V74.9908C96.3661 74.6791 96.3059 74.4522 96.1856 74.31C96.0708 74.1679 95.8903 74.0968 95.6443 74.0968C95.3435 74.0968 95.1029 74.1925 94.9225 74.3838C94.7475 74.5698 94.66 74.8186 94.66 75.1302V77.3859H93.6347ZM102.112 77.4679C101.773 77.4679 101.455 77.4269 101.16 77.3449C100.865 77.2628 100.619 77.1453 100.422 76.9922L100.684 76.3196C100.887 76.4563 101.114 76.5629 101.365 76.6395C101.617 76.7105 101.868 76.7461 102.12 76.7461C102.382 76.7461 102.576 76.7023 102.702 76.6149C102.833 76.5219 102.899 76.4016 102.899 76.254C102.899 76.0243 102.73 75.8767 102.391 75.811L101.57 75.6552C100.876 75.524 100.529 75.1631 100.529 74.5725C100.529 74.31 100.6 74.0831 100.742 73.8917C100.89 73.7003 101.092 73.5527 101.349 73.4488C101.606 73.3449 101.901 73.2929 102.235 73.2929C102.519 73.2929 102.792 73.334 103.055 73.416C103.317 73.4925 103.542 73.6101 103.728 73.7687L103.449 74.4413C103.29 74.31 103.099 74.2061 102.874 74.1296C102.656 74.053 102.445 74.0147 102.243 74.0147C101.975 74.0147 101.775 74.0612 101.644 74.1542C101.518 74.2471 101.455 74.3702 101.455 74.5233C101.455 74.7639 101.611 74.9115 101.923 74.9662L102.743 75.122C103.099 75.1877 103.367 75.308 103.547 75.4829C103.733 75.6579 103.826 75.8931 103.826 76.1883C103.826 76.5875 103.67 76.9019 103.358 77.1316C103.047 77.3558 102.631 77.4679 102.112 77.4679ZM106.446 77.4679C105.385 77.4679 104.854 76.9429 104.854 75.8931V74.146H104.083V73.375H104.854V72.1774H105.88V73.375H107.094V74.146H105.88V75.8356C105.88 76.0981 105.937 76.295 106.052 76.4262C106.167 76.5574 106.353 76.6231 106.61 76.6231C106.686 76.6231 106.766 76.6149 106.848 76.5984C106.93 76.5766 107.014 76.5547 107.102 76.5328L107.258 77.2874C107.159 77.3421 107.034 77.3859 106.88 77.4187C106.733 77.4515 106.588 77.4679 106.446 77.4679ZM109.077 77.4679C108.787 77.4679 108.527 77.4132 108.298 77.3038C108.073 77.189 107.896 77.0359 107.765 76.8445C107.639 76.6531 107.576 76.4371 107.576 76.1965C107.576 75.9013 107.652 75.6689 107.806 75.4994C107.959 75.3244 108.207 75.1986 108.552 75.122C108.896 75.0455 109.359 75.0072 109.938 75.0072H110.225V74.835C110.225 74.5616 110.165 74.3647 110.045 74.2444C109.924 74.1241 109.722 74.064 109.438 74.064C109.214 74.064 108.984 74.0995 108.749 74.1706C108.514 74.2362 108.276 74.3401 108.035 74.4823L107.74 73.7851C107.882 73.6867 108.049 73.6019 108.24 73.5308C108.437 73.4543 108.642 73.3968 108.855 73.3586C109.074 73.3148 109.279 73.2929 109.471 73.2929C110.056 73.2929 110.49 73.4297 110.775 73.7031C111.059 73.971 111.201 74.3893 111.201 74.958V77.3859H110.242V76.7461C110.149 76.9703 110.001 77.148 109.799 77.2792C109.596 77.405 109.356 77.4679 109.077 77.4679ZM109.29 76.7625C109.558 76.7625 109.78 76.6695 109.955 76.4836C110.135 76.2977 110.225 76.0626 110.225 75.7782V75.5978H109.946C109.432 75.5978 109.074 75.6388 108.872 75.7208C108.675 75.7974 108.577 75.9395 108.577 76.1473C108.577 76.3278 108.639 76.4754 108.765 76.5902C108.891 76.7051 109.066 76.7625 109.29 76.7625ZM114.079 77.4679C113.018 77.4679 112.488 76.9429 112.488 75.8931V74.146H111.717V73.375H112.488V72.1774H113.513V73.375H114.727V74.146H113.513V75.8356C113.513 76.0981 113.571 76.295 113.686 76.4262C113.8 76.5574 113.986 76.6231 114.243 76.6231C114.32 76.6231 114.399 76.6149 114.481 76.5984C114.563 76.5766 114.648 76.5547 114.735 76.5328L114.891 77.2874C114.793 77.3421 114.667 77.3859 114.514 77.4187C114.366 77.4515 114.221 77.4679 114.079 77.4679ZM116.842 77.4679C115.857 77.4679 115.365 76.9156 115.365 75.811V73.375H116.391V75.8274C116.391 76.1118 116.448 76.3223 116.563 76.459C116.678 76.5957 116.861 76.6641 117.112 76.6641C117.386 76.6641 117.61 76.5711 117.785 76.3852C117.96 76.1938 118.047 75.9423 118.047 75.6306V73.375H119.073V77.3859H118.072V76.7871C117.804 77.241 117.394 77.4679 116.842 77.4679ZM121.608 77.4679C121.269 77.4679 120.952 77.4269 120.657 77.3449C120.361 77.2628 120.115 77.1453 119.918 76.9922L120.181 76.3196C120.383 76.4563 120.61 76.5629 120.862 76.6395C121.113 76.7105 121.365 76.7461 121.616 76.7461C121.879 76.7461 122.073 76.7023 122.199 76.6149C122.33 76.5219 122.395 76.4016 122.395 76.254C122.395 76.0243 122.226 75.8767 121.887 75.811L121.067 75.6552C120.372 75.524 120.025 75.1631 120.025 74.5725C120.025 74.31 120.096 74.0831 120.238 73.8917C120.386 73.7003 120.588 73.5527 120.845 73.4488C121.102 73.3449 121.397 73.2929 121.731 73.2929C122.015 73.2929 122.289 73.334 122.551 73.416C122.814 73.4925 123.038 73.6101 123.224 73.7687L122.945 74.4413C122.786 74.31 122.595 74.2061 122.371 74.1296C122.152 74.053 121.942 74.0147 121.739 74.0147C121.471 74.0147 121.272 74.0612 121.14 74.1542C121.015 74.2471 120.952 74.3702 120.952 74.5233C120.952 74.7639 121.108 74.9115 121.419 74.9662L122.24 75.122C122.595 75.1877 122.863 75.308 123.043 75.4829C123.229 75.6579 123.322 75.8931 123.322 76.1883C123.322 76.5875 123.166 76.9019 122.855 77.1316C122.543 77.3558 122.127 77.4679 121.608 77.4679Z" fill="#192147"/>
<rect x="23.9193" y="82.9908" width="37.105" height="3.09209" rx="1.54604" fill="#C5C7D1"/>
<rect x="63.4981" y="82.9908" width="24.7367" height="3.09209" rx="1.54604" fill="#C5C7D1"/>
<rect x="24.418" y="107.353" width="246.749" height="20.4078" rx="2.16446" fill="#F9FAFC" stroke="#E2E4EA" stroke-width="0.618417"/>
<path d="M27.5998 104.31L26.9999 103.339C26.8804 103.15 26.6845 103.055 26.4124 103.055C25.9919 103.055 25.625 102.962 25.3116 102.777C24.9983 102.591 24.7551 102.331 24.5819 101.998C24.4087 101.659 24.3222 101.264 24.3222 100.81C24.3222 100.353 24.4087 99.9567 24.5819 99.6228C24.7551 99.2888 24.9983 99.0312 25.3116 98.8498C25.625 98.6642 25.994 98.5715 26.4186 98.5715C26.8432 98.5715 27.2122 98.6642 27.5256 98.8498C27.8389 99.0312 28.0821 99.2888 28.2553 99.6228C28.4285 99.9567 28.515 100.35 28.515 100.804C28.515 101.299 28.412 101.723 28.2058 102.078C28.0038 102.432 27.7235 102.692 27.3648 102.857C27.5421 102.915 27.6946 103.053 27.8224 103.271L28.2739 103.989L27.5998 104.31ZM26.4186 102.375C26.8185 102.375 27.1298 102.237 27.3524 101.96C27.575 101.684 27.6864 101.301 27.6864 100.81C27.6864 100.315 27.575 99.932 27.3524 99.6599C27.1339 99.3878 26.8226 99.2517 26.4186 99.2517C26.0187 99.2517 25.7074 99.3878 25.4848 99.6599C25.2622 99.932 25.1508 100.315 25.1508 100.81C25.1508 101.301 25.2622 101.684 25.4848 101.96C25.7074 102.237 26.0187 102.375 26.4186 102.375ZM30.3403 103.055C29.5982 103.055 29.2272 102.639 29.2272 101.806V99.9691H30.0002V101.818C30.0002 102.033 30.0435 102.191 30.1301 102.294C30.2166 102.397 30.3548 102.449 30.5444 102.449C30.7505 102.449 30.9196 102.379 31.0515 102.239C31.1834 102.094 31.2494 101.905 31.2494 101.67V99.9691H32.0224V102.993H31.268V102.542C31.0659 102.884 30.7567 103.055 30.3403 103.055ZM34.3174 103.055C33.9752 103.055 33.6804 102.991 33.433 102.863C33.1857 102.735 32.994 102.554 32.8579 102.319C32.726 102.084 32.66 101.806 32.66 101.484C32.66 101.171 32.7239 100.897 32.8517 100.662C32.9837 100.427 33.163 100.243 33.3898 100.111C33.6206 99.9753 33.8824 99.9073 34.1751 99.9073C34.6039 99.9073 34.942 100.043 35.1894 100.315C35.4408 100.588 35.5666 100.959 35.5666 101.429V101.657H33.4021C33.4598 102.197 33.7691 102.468 34.3298 102.468C34.4988 102.468 34.6678 102.443 34.8369 102.393C35.0059 102.34 35.1605 102.257 35.3007 102.146L35.5171 102.665C35.3728 102.785 35.1914 102.88 34.9729 102.95C34.7544 103.02 34.5359 103.055 34.3174 103.055ZM34.2061 100.433C33.9793 100.433 33.7959 100.503 33.6557 100.643C33.5155 100.783 33.431 100.973 33.4021 101.212H34.9234C34.9069 100.961 34.8369 100.769 34.7132 100.637C34.5936 100.501 34.4246 100.433 34.2061 100.433ZM36.1788 102.993V99.9691H36.9332V100.501C37.0817 100.142 37.3991 99.9444 37.8856 99.9073L38.1206 99.8887L38.1701 100.544L37.7248 100.588C37.2177 100.637 36.9642 100.897 36.9642 101.367V102.993H36.1788ZM39.0598 104.106L39.6164 102.869L38.361 99.9691H39.1835L40.0307 102.084L40.8965 99.9691H41.6757L39.8576 104.106H39.0598Z" fill="#3E4771"/>
<rect x="85.3321" y="112.003" width="59.9865" height="8.65784" rx="1.23683" fill="#AE6DDF"/>
<path d="M33.8837 118.066C33.5993 118.066 33.3272 118.014 33.0674 117.911C32.8077 117.808 32.5768 117.662 32.3748 117.472L32.7953 116.983C32.9479 117.119 33.121 117.231 33.3148 117.317C33.5086 117.4 33.7126 117.441 33.927 117.441C34.162 117.441 34.3414 117.396 34.465 117.305C34.5887 117.21 34.6506 117.093 34.6506 116.952C34.6506 116.833 34.6217 116.738 34.564 116.668C34.5063 116.594 34.4259 116.532 34.3228 116.482C34.2239 116.433 34.1064 116.381 33.9703 116.328L33.4199 116.087C33.2797 116.029 33.1416 115.955 33.0056 115.864C32.8737 115.773 32.7644 115.658 32.6778 115.518C32.5954 115.377 32.5541 115.208 32.5541 115.011C32.5541 114.796 32.6139 114.604 32.7335 114.435C32.853 114.262 33.0179 114.126 33.2282 114.027C33.4426 113.924 33.6858 113.873 33.9579 113.873C34.2053 113.873 34.4403 113.92 34.6629 114.015C34.8897 114.106 35.0876 114.229 35.2566 114.386L34.8856 114.844C34.7495 114.732 34.6052 114.648 34.4527 114.59C34.3043 114.528 34.127 114.497 33.9208 114.497C33.7312 114.497 33.5766 114.539 33.457 114.621C33.3375 114.703 33.2777 114.821 33.2777 114.973C33.2777 115.077 33.3107 115.161 33.3766 115.227C33.4426 115.293 33.5271 115.351 33.6302 115.4C33.7374 115.45 33.8508 115.497 33.9703 115.542L34.5022 115.771C34.6753 115.837 34.8279 115.918 34.9598 116.012C35.0917 116.107 35.1948 116.225 35.269 116.365C35.3432 116.501 35.3803 116.668 35.3803 116.866C35.3803 117.084 35.3205 117.284 35.201 117.466C35.0814 117.647 34.9103 117.793 34.6877 117.905C34.465 118.012 34.1971 118.066 33.8837 118.066ZM36.3612 117.991V113.947H38.9523V114.553H37.0785V115.586H38.6679V116.192H37.0785V117.385H39.0142V117.991H36.3612ZM40.1744 117.991V113.947H40.8856V117.385H42.7841V117.991H40.1744ZM43.7773 117.991V113.947H46.3685V114.553H44.4947V115.586H46.084V116.192H44.4947V117.385H46.4304V117.991H43.7773ZM49.0377 118.066C48.7862 118.066 48.5491 118.02 48.3265 117.929C48.108 117.839 47.9142 117.705 47.7452 117.528C47.5803 117.35 47.4504 117.132 47.3556 116.872C47.2649 116.612 47.2195 116.315 47.2195 115.981C47.2195 115.54 47.2999 115.163 47.4607 114.85C47.6256 114.532 47.8482 114.291 48.1286 114.126C48.4131 113.957 48.7326 113.873 49.0871 113.873C49.3386 113.873 49.5633 113.924 49.7612 114.027C49.9591 114.13 50.1199 114.248 50.2436 114.38L49.8478 114.825C49.7488 114.722 49.6375 114.642 49.5138 114.584C49.3902 114.526 49.2479 114.497 49.0871 114.497C48.8645 114.497 48.6666 114.557 48.4935 114.677C48.3244 114.792 48.1925 114.959 48.0977 115.178C48.0028 115.396 47.9554 115.658 47.9554 115.963C47.9554 116.268 48.0028 116.532 48.0977 116.754C48.1925 116.977 48.3265 117.148 48.4996 117.268C48.6728 117.383 48.8748 117.441 49.1057 117.441C49.2747 117.441 49.4252 117.406 49.5571 117.336C49.6891 117.262 49.8127 117.163 49.9282 117.039L50.324 117.478C50.1632 117.668 49.9756 117.814 49.7612 117.917C49.5468 118.016 49.3056 118.066 49.0377 118.066ZM52.0531 117.991V114.547H50.7792V113.947H54.0444V114.547H52.7705V117.991H52.0531ZM66.1248 117.991V113.947H68.7098V114.553H66.8422V115.697H68.4315V116.303H66.8422V117.991H66.1248ZM69.6165 117.991V113.947H70.9646C71.245 113.947 71.4965 113.984 71.7191 114.058C71.9458 114.132 72.1252 114.258 72.2571 114.435C72.389 114.609 72.455 114.846 72.455 115.147C72.455 115.435 72.389 115.672 72.2571 115.858C72.1252 116.043 71.9458 116.181 71.7191 116.272C71.4965 116.363 71.245 116.408 70.9646 116.408H70.3338V117.991H69.6165ZM70.3338 115.839H70.8904C71.1708 115.839 71.3831 115.782 71.5274 115.666C71.6758 115.551 71.75 115.377 71.75 115.147C71.75 114.916 71.6758 114.755 71.5274 114.664C71.3831 114.569 71.1708 114.522 70.8904 114.522H70.3338V115.839ZM70.8347 116.216L71.3542 115.79L72.6158 117.991H71.8057L70.8347 116.216ZM74.6603 118.066C74.347 118.066 74.0708 117.983 73.8317 117.818C73.5925 117.653 73.4049 117.414 73.2689 117.101C73.137 116.787 73.071 116.404 73.071 115.951C73.071 115.509 73.137 115.134 73.2689 114.825C73.4049 114.512 73.5925 114.275 73.8317 114.114C74.0708 113.953 74.347 113.873 74.6603 113.873C74.9737 113.873 75.2499 113.953 75.489 114.114C75.7281 114.275 75.9137 114.512 76.0456 114.825C76.1816 115.134 76.2497 115.509 76.2497 115.951C76.2497 116.404 76.1816 116.787 76.0456 117.101C75.9137 117.414 75.7281 117.653 75.489 117.818C75.2499 117.983 74.9737 118.066 74.6603 118.066ZM74.6603 117.441C74.8335 117.441 74.984 117.383 75.1118 117.268C75.2396 117.152 75.3385 116.983 75.4086 116.761C75.4787 116.538 75.5138 116.268 75.5138 115.951C75.5138 115.641 75.4787 115.38 75.4086 115.165C75.3385 114.947 75.2396 114.782 75.1118 114.67C74.984 114.555 74.8335 114.497 74.6603 114.497C74.4872 114.497 74.3367 114.555 74.2089 114.67C74.0811 114.782 73.9821 114.947 73.9121 115.165C73.842 115.38 73.8069 115.641 73.8069 115.951C73.8069 116.268 73.842 116.538 73.9121 116.761C73.9821 116.983 74.0811 117.152 74.2089 117.268C74.3367 117.383 74.4872 117.441 74.6603 117.441ZM76.9151 117.991V113.947H77.7067L78.1891 115.524L78.3561 116.13H78.3808L78.5416 115.524L79.0301 113.947H79.8217V117.991H79.1909V116.359C79.1909 116.252 79.193 116.126 79.1971 115.981C79.2054 115.833 79.2157 115.678 79.228 115.518C79.2404 115.357 79.2528 115.206 79.2651 115.066C79.2775 114.922 79.2878 114.8 79.2961 114.701H79.2775L79.0054 115.641L78.5601 116.921H78.152L77.7129 115.641L77.447 114.701H77.4284C77.4408 114.8 77.4532 114.922 77.4655 115.066C77.4779 115.206 77.4882 115.357 77.4965 115.518C77.5088 115.678 77.5171 115.833 77.5212 115.981C77.5294 116.126 77.5336 116.252 77.5336 116.359V117.991H76.9151Z" fill="#C98DEF"/>
<path d="M59.0983 117.367L58.7705 117.138L59.4075 116.142L58.4304 115.716L58.5479 115.351L59.5682 115.654L59.6301 114.522H60.0259L60.0877 115.654L61.1081 115.351L61.2256 115.716L60.2485 116.142L60.8855 117.138L60.5577 117.367L59.828 116.439L59.0983 117.367ZM148.822 115.963C148.649 115.963 148.503 115.903 148.383 115.784C148.268 115.664 148.21 115.516 148.21 115.338C148.21 115.157 148.268 115.008 148.383 114.893C148.503 114.774 148.649 114.714 148.822 114.714C148.999 114.714 149.146 114.774 149.261 114.893C149.377 115.008 149.434 115.157 149.434 115.338C149.434 115.516 149.377 115.664 149.261 115.784C149.146 115.903 148.999 115.963 148.822 115.963ZM148.321 119.321L148.136 118.894C148.408 118.787 148.608 118.651 148.736 118.486C148.867 118.325 148.931 118.132 148.927 117.905L148.853 117.249L149.218 117.806C149.164 117.859 149.105 117.897 149.039 117.917C148.977 117.938 148.911 117.948 148.841 117.948C148.738 117.948 148.641 117.927 148.55 117.886C148.463 117.845 148.393 117.783 148.34 117.701C148.286 117.618 148.259 117.517 148.259 117.398C148.259 117.229 148.317 117.095 148.432 116.996C148.552 116.897 148.692 116.847 148.853 116.847C149.076 116.847 149.243 116.93 149.354 117.095C149.465 117.26 149.521 117.486 149.521 117.775C149.521 118.15 149.416 118.47 149.206 118.733C148.999 118.997 148.705 119.193 148.321 119.321Z" fill="#8B8FA2"/>
<path d="M89.2639 118.066C88.8763 118.066 88.563 117.925 88.3239 117.645C88.0848 117.365 87.9652 116.975 87.9652 116.476C87.9652 116.146 88.0291 115.862 88.1569 115.623C88.2847 115.384 88.4517 115.2 88.6578 115.072C88.864 114.945 89.0804 114.881 89.3072 114.881C89.4803 114.881 89.6329 114.912 89.7648 114.973C89.9008 115.035 90.0266 115.124 90.142 115.239H90.1606L90.1235 114.726V113.625H90.8408V117.991H90.2533L90.1977 117.639H90.1791C90.0637 117.754 89.9256 117.855 89.7648 117.942C89.604 118.024 89.437 118.066 89.2639 118.066ZM89.437 117.478C89.5607 117.478 89.6803 117.449 89.7957 117.391C89.9112 117.33 90.0204 117.237 90.1235 117.113V115.746C90.0163 115.643 89.9091 115.571 89.8019 115.53C89.6947 115.489 89.5855 115.468 89.4741 115.468C89.334 115.468 89.2041 115.507 89.0845 115.586C88.9691 115.664 88.8763 115.777 88.8062 115.926C88.7362 116.074 88.7011 116.256 88.7011 116.47C88.7011 116.796 88.765 117.045 88.8928 117.218C89.0248 117.391 89.2062 117.478 89.437 117.478ZM93.1822 117.991V115.518H91.865V114.955H93.8934V117.991H93.1822ZM93.4853 114.398C93.341 114.398 93.2193 114.355 93.1204 114.268C93.0256 114.182 92.9781 114.066 92.9781 113.922C92.9781 113.778 93.0256 113.662 93.1204 113.576C93.2193 113.485 93.341 113.44 93.4853 113.44C93.6337 113.44 93.7553 113.485 93.8501 113.576C93.9449 113.662 93.9924 113.778 93.9924 113.922C93.9924 114.066 93.9449 114.182 93.8501 114.268C93.7553 114.355 93.6337 114.398 93.4853 114.398ZM96.9274 118.066C96.6429 118.066 96.3708 118.02 96.1111 117.929C95.8514 117.835 95.6267 117.723 95.437 117.596L95.7462 117.144C95.9276 117.264 96.1235 117.358 96.3337 117.429C96.544 117.495 96.7728 117.528 97.0202 117.528C97.2304 117.528 97.385 117.492 97.484 117.422C97.5871 117.348 97.6386 117.262 97.6386 117.163C97.6386 117.113 97.6262 117.068 97.6015 117.027C97.5809 116.985 97.5417 116.948 97.484 116.915C97.4263 116.878 97.3418 116.843 97.2304 116.81C97.1191 116.777 96.9748 116.742 96.7976 116.705C96.3935 116.618 96.0967 116.501 95.907 116.353C95.7174 116.204 95.6226 116.017 95.6226 115.79C95.6226 115.522 95.738 115.303 95.9689 115.134C96.2039 114.965 96.5337 114.881 96.9583 114.881C97.2098 114.881 97.4448 114.922 97.6633 115.004C97.886 115.087 98.0736 115.18 98.2261 115.283L97.8983 115.722C97.754 115.623 97.5953 115.549 97.4222 115.499C97.249 115.446 97.0738 115.419 96.8965 115.419C96.7604 115.419 96.6512 115.433 96.5687 115.462C96.4904 115.491 96.4306 115.532 96.3894 115.586C96.3523 115.635 96.3337 115.691 96.3337 115.753C96.3337 115.86 96.3956 115.94 96.5193 115.994C96.6429 116.047 96.845 116.105 97.1253 116.167C97.451 116.237 97.7025 116.317 97.8798 116.408C98.0571 116.495 98.1787 116.596 98.2446 116.711C98.3147 116.823 98.3498 116.961 98.3498 117.126C98.3498 117.299 98.2941 117.457 98.1828 117.602C98.0756 117.742 97.9169 117.855 97.7066 117.942C97.4964 118.024 97.2366 118.066 96.9274 118.066ZM99.3183 117.991V113.625H100.036V116.359H100.06L101.427 114.955H102.219L100.036 117.2V117.991H99.3183ZM101.569 117.991L100.537 116.495L100.951 116.05L102.349 117.991H101.569ZM102.841 118.931V118.375H105.809V118.931H102.841ZM108.219 118.066C107.909 118.066 107.629 118.004 107.378 117.88C107.126 117.752 106.926 117.571 106.778 117.336C106.629 117.097 106.555 116.808 106.555 116.47C106.555 116.14 106.629 115.858 106.778 115.623C106.926 115.384 107.12 115.2 107.359 115.072C107.598 114.945 107.854 114.881 108.126 114.881C108.427 114.881 108.68 114.943 108.887 115.066C109.097 115.19 109.256 115.361 109.363 115.58C109.474 115.794 109.53 116.041 109.53 116.322C109.53 116.392 109.526 116.46 109.517 116.526C109.513 116.588 109.507 116.639 109.499 116.68H107.068V116.173H109.041L108.905 116.334C108.905 116.033 108.837 115.808 108.701 115.66C108.569 115.507 108.384 115.431 108.144 115.431C107.975 115.431 107.823 115.47 107.687 115.549C107.555 115.627 107.45 115.744 107.371 115.901C107.293 116.054 107.254 116.243 107.254 116.47C107.254 116.705 107.297 116.899 107.384 117.051C107.474 117.204 107.598 117.319 107.755 117.398C107.916 117.476 108.101 117.515 108.311 117.515C108.472 117.515 108.621 117.492 108.757 117.447C108.893 117.402 109.029 117.34 109.165 117.262L109.406 117.707C109.245 117.81 109.064 117.897 108.862 117.967C108.66 118.033 108.445 118.066 108.219 118.066ZM110.393 117.991V114.955H110.981L111.036 115.413H111.061C111.205 115.264 111.364 115.138 111.537 115.035C111.714 114.932 111.921 114.881 112.156 114.881C112.506 114.881 112.764 114.988 112.929 115.202C113.093 115.417 113.176 115.72 113.176 116.111V117.991H112.459V116.204C112.459 115.961 112.415 115.782 112.329 115.666C112.242 115.551 112.096 115.493 111.89 115.493C111.741 115.493 111.609 115.528 111.494 115.598C111.378 115.668 111.251 115.775 111.11 115.92V117.991H110.393ZM115.721 118.066C115.404 118.066 115.117 118.004 114.862 117.88C114.61 117.752 114.41 117.571 114.262 117.336C114.118 117.097 114.045 116.81 114.045 116.476C114.045 116.138 114.124 115.852 114.28 115.617C114.441 115.377 114.654 115.196 114.917 115.072C115.181 114.945 115.466 114.881 115.771 114.881C116.018 114.881 116.237 114.922 116.426 115.004C116.616 115.083 116.773 115.184 116.896 115.307L116.556 115.753C116.437 115.658 116.315 115.586 116.191 115.536C116.072 115.487 115.944 115.462 115.808 115.462C115.606 115.462 115.427 115.505 115.27 115.592C115.117 115.674 114.998 115.792 114.911 115.944C114.825 116.097 114.781 116.274 114.781 116.476C114.781 116.678 114.823 116.856 114.905 117.008C114.992 117.161 115.109 117.278 115.258 117.361C115.41 117.443 115.587 117.484 115.789 117.484C115.963 117.484 116.121 117.451 116.266 117.385C116.41 117.319 116.54 117.241 116.655 117.15L116.952 117.608C116.779 117.756 116.585 117.87 116.371 117.948C116.156 118.026 115.94 118.066 115.721 118.066ZM118.106 117.991V114.955H118.694L118.755 115.641H118.774C118.927 115.394 119.114 115.206 119.337 115.079C119.563 114.947 119.807 114.881 120.066 114.881C120.19 114.881 120.297 114.891 120.388 114.912C120.479 114.932 120.567 114.963 120.654 115.004L120.506 115.604C120.407 115.571 120.318 115.549 120.24 115.536C120.165 115.52 120.071 115.511 119.955 115.511C119.749 115.511 119.547 115.571 119.349 115.691C119.155 115.81 118.98 116.019 118.823 116.315V117.991H118.106ZM121.857 119.241C121.779 119.241 121.701 119.234 121.622 119.222C121.548 119.21 121.482 119.195 121.425 119.179L121.561 118.622C121.602 118.634 121.643 118.645 121.684 118.653C121.73 118.661 121.773 118.665 121.814 118.665C122.008 118.665 122.163 118.616 122.278 118.517C122.393 118.418 122.482 118.294 122.544 118.146L122.618 117.954L121.258 114.955H121.969L122.593 116.445C122.647 116.581 122.703 116.726 122.76 116.878C122.818 117.031 122.874 117.183 122.927 117.336H122.952C123.002 117.192 123.051 117.043 123.1 116.891C123.154 116.734 123.206 116.585 123.255 116.445L123.805 114.955H124.48L123.212 118.127C123.129 118.354 123.028 118.55 122.909 118.715C122.789 118.884 122.645 119.014 122.476 119.104C122.307 119.195 122.101 119.241 121.857 119.241ZM125.225 119.191V114.955H125.813L125.869 115.301H125.887C126.019 115.178 126.17 115.077 126.339 114.998C126.512 114.92 126.685 114.881 126.858 114.881C127.126 114.881 127.351 114.945 127.532 115.072C127.714 115.2 127.854 115.38 127.953 115.61C128.052 115.841 128.101 116.113 128.101 116.427C128.101 116.773 128.037 117.068 127.909 117.311C127.782 117.554 127.615 117.742 127.408 117.874C127.206 118.002 126.988 118.066 126.753 118.066C126.617 118.066 126.475 118.035 126.326 117.973C126.182 117.911 126.048 117.822 125.924 117.707H125.906L125.943 118.239V119.191H125.225ZM126.604 117.478C126.749 117.478 126.879 117.439 126.994 117.361C127.11 117.282 127.2 117.167 127.266 117.014C127.332 116.858 127.365 116.664 127.365 116.433C127.365 116.231 127.34 116.058 127.291 115.913C127.241 115.769 127.165 115.66 127.062 115.586C126.963 115.507 126.829 115.468 126.66 115.468C126.545 115.468 126.427 115.497 126.308 115.555C126.188 115.612 126.066 115.705 125.943 115.833V117.2C126.054 117.299 126.17 117.371 126.289 117.416C126.409 117.457 126.514 117.478 126.604 117.478ZM130.844 118.066C130.535 118.066 130.29 118.012 130.109 117.905C129.927 117.793 129.797 117.641 129.719 117.447C129.641 117.253 129.601 117.029 129.601 116.773V115.518H128.791V114.986L129.632 114.955L129.725 114.003H130.313V114.955H131.698V115.518H130.313V116.767C130.313 116.932 130.335 117.07 130.381 117.181C130.426 117.288 130.5 117.369 130.603 117.422C130.706 117.472 130.842 117.497 131.011 117.497C131.143 117.497 131.263 117.486 131.37 117.466C131.477 117.445 131.58 117.416 131.679 117.379L131.815 117.892C131.679 117.938 131.533 117.977 131.376 118.01C131.22 118.047 131.042 118.066 130.844 118.066ZM133.971 117.991V115.518H132.654V114.955H134.682V117.991H133.971ZM134.274 114.398C134.13 114.398 134.008 114.355 133.909 114.268C133.815 114.182 133.767 114.066 133.767 113.922C133.767 113.778 133.815 113.662 133.909 113.576C134.008 113.485 134.13 113.44 134.274 113.44C134.423 113.44 134.544 113.485 134.639 113.576C134.734 113.662 134.781 113.778 134.781 113.922C134.781 114.066 134.734 114.182 134.639 114.268C134.544 114.355 134.423 114.398 134.274 114.398ZM137.698 118.066C137.43 118.066 137.18 118.004 136.95 117.88C136.719 117.752 136.531 117.571 136.387 117.336C136.243 117.097 136.17 116.81 136.17 116.476C136.17 116.138 136.243 115.852 136.387 115.617C136.531 115.377 136.719 115.196 136.95 115.072C137.18 114.945 137.43 114.881 137.698 114.881C137.966 114.881 138.215 114.945 138.446 115.072C138.677 115.196 138.865 115.377 139.009 115.617C139.153 115.852 139.225 116.138 139.225 116.476C139.225 116.81 139.153 117.097 139.009 117.336C138.865 117.571 138.677 117.752 138.446 117.88C138.215 118.004 137.966 118.066 137.698 118.066ZM137.698 117.484C137.863 117.484 138.005 117.443 138.125 117.361C138.244 117.278 138.335 117.161 138.397 117.008C138.458 116.856 138.489 116.678 138.489 116.476C138.489 116.274 138.458 116.097 138.397 115.944C138.335 115.792 138.244 115.674 138.125 115.592C138.005 115.505 137.863 115.462 137.698 115.462C137.533 115.462 137.391 115.505 137.271 115.592C137.156 115.674 137.065 115.792 136.999 115.944C136.937 116.097 136.906 116.274 136.906 116.476C136.906 116.678 136.937 116.856 136.999 117.008C137.065 117.161 137.156 117.278 137.271 117.361C137.391 117.443 137.533 117.484 137.698 117.484ZM140.058 117.991V114.955H140.645L140.701 115.413H140.726C140.87 115.264 141.029 115.138 141.202 115.035C141.379 114.932 141.585 114.881 141.82 114.881C142.171 114.881 142.428 114.988 142.593 115.202C142.758 115.417 142.841 115.72 142.841 116.111V117.991H142.123V116.204C142.123 115.961 142.08 115.782 141.993 115.666C141.907 115.551 141.76 115.493 141.554 115.493C141.406 115.493 141.274 115.528 141.159 115.598C141.043 115.668 140.915 115.775 140.775 115.92V117.991H140.058Z" fill="white"/>
<path d="M26.5534 141.63C26.0999 141.63 25.7102 141.539 25.3845 141.358C25.063 141.172 24.8156 140.912 24.6424 140.579C24.4693 140.24 24.3827 139.843 24.3827 139.385C24.3827 138.927 24.4693 138.532 24.6424 138.198C24.8156 137.864 25.063 137.606 25.3845 137.425C25.7102 137.239 26.0999 137.146 26.5534 137.146C26.8461 137.146 27.1223 137.192 27.382 137.282C27.6459 137.373 27.8623 137.503 28.0314 137.672L27.7716 138.303C27.5861 138.146 27.3965 138.033 27.2027 137.963C27.0089 137.888 26.8007 137.851 26.5781 137.851C26.137 137.851 25.8009 137.985 25.5701 138.253C25.3392 138.517 25.2238 138.894 25.2238 139.385C25.2238 139.876 25.3392 140.255 25.5701 140.523C25.8009 140.791 26.137 140.925 26.5781 140.925C26.8007 140.925 27.0089 140.89 27.2027 140.82C27.3965 140.745 27.5861 140.63 27.7716 140.473L28.0314 141.104C27.8623 141.269 27.6459 141.399 27.382 141.494C27.1223 141.584 26.8461 141.63 26.5534 141.63ZM29.8097 141.63C29.4963 141.63 29.2242 141.566 28.9934 141.438C28.7625 141.31 28.5831 141.129 28.4553 140.894C28.3275 140.655 28.2636 140.374 28.2636 140.053C28.2636 139.731 28.3275 139.453 28.4553 139.218C28.5831 138.983 28.7625 138.802 28.9934 138.674C29.2242 138.546 29.4963 138.482 29.8097 138.482C30.123 138.482 30.3951 138.546 30.626 138.674C30.8568 138.802 31.0362 138.983 31.164 139.218C31.2918 139.453 31.3557 139.731 31.3557 140.053C31.3557 140.374 31.2918 140.655 31.164 140.894C31.0362 141.129 30.8568 141.31 30.626 141.438C30.3951 141.566 30.123 141.63 29.8097 141.63ZM29.8097 141.042C30.0405 141.042 30.2261 140.96 30.3662 140.795C30.5064 140.626 30.5765 140.379 30.5765 140.053C30.5765 139.723 30.5064 139.478 30.3662 139.317C30.2261 139.152 30.0405 139.07 29.8097 139.07C29.5788 139.07 29.3933 139.152 29.2531 139.317C29.1129 139.478 29.0428 139.723 29.0428 140.053C29.0428 140.379 29.1129 140.626 29.2531 140.795C29.3933 140.96 29.5788 141.042 29.8097 141.042ZM32.0061 141.568V138.544H32.7606V139.008C32.8513 138.843 32.977 138.715 33.1378 138.624C33.2986 138.53 33.4841 138.482 33.6944 138.482C34.1479 138.482 34.4447 138.68 34.5849 139.076C34.6797 138.89 34.8158 138.746 34.9931 138.643C35.1703 138.536 35.3724 138.482 35.5991 138.482C36.2794 138.482 36.6195 138.896 36.6195 139.725V141.568H35.8465V139.756C35.8465 139.525 35.8073 139.356 35.729 139.249C35.6548 139.142 35.527 139.088 35.3456 139.088C35.1435 139.088 34.9848 139.16 34.8694 139.305C34.7539 139.445 34.6962 139.641 34.6962 139.892V141.568H33.9232V139.756C33.9232 139.525 33.884 139.356 33.8057 139.249C33.7315 139.142 33.6057 139.088 33.4285 139.088C33.2265 139.088 33.0677 139.16 32.9523 139.305C32.8368 139.445 32.7791 139.641 32.7791 139.892V141.568H32.0061ZM37.417 142.681V138.544H38.1714V139.026C38.258 138.861 38.3879 138.729 38.561 138.631C38.7383 138.532 38.9383 138.482 39.1609 138.482C39.4248 138.482 39.6556 138.546 39.8535 138.674C40.0555 138.802 40.2122 138.983 40.3235 139.218C40.4348 139.449 40.4905 139.727 40.4905 140.053C40.4905 140.374 40.4348 140.655 40.3235 140.894C40.2122 141.129 40.0576 141.31 39.8597 141.438C39.6618 141.566 39.4289 141.63 39.1609 141.63C38.9465 141.63 38.7528 141.584 38.5796 141.494C38.4106 141.399 38.2807 141.273 38.19 141.117V142.681H37.417ZM38.9445 141.042C39.1753 141.042 39.3609 140.96 39.501 140.795C39.6412 140.626 39.7113 140.379 39.7113 140.053C39.7113 139.723 39.6412 139.478 39.501 139.317C39.3609 139.152 39.1753 139.07 38.9445 139.07C38.7136 139.07 38.5281 139.152 38.3879 139.317C38.2477 139.478 38.1776 139.723 38.1776 140.053C38.1776 140.379 38.2477 140.626 38.3879 140.795C38.5281 140.96 38.7136 141.042 38.9445 141.042ZM42.1207 141.63C41.9022 141.63 41.7064 141.589 41.5332 141.506C41.3642 141.42 41.2302 141.304 41.1312 141.16C41.0364 141.016 40.989 140.853 40.989 140.671C40.989 140.449 41.0467 140.273 41.1622 140.146C41.2776 140.014 41.4652 139.919 41.7249 139.861C41.9847 139.803 42.333 139.775 42.77 139.775H42.9865V139.645C42.9865 139.439 42.9411 139.29 42.8504 139.199C42.7597 139.109 42.6072 139.063 42.3928 139.063C42.2238 139.063 42.0506 139.09 41.8733 139.144C41.6961 139.193 41.5167 139.272 41.3353 139.379L41.1127 138.853C41.2199 138.779 41.3456 138.715 41.4899 138.661C41.6383 138.604 41.7929 138.56 41.9537 138.532C42.1186 138.499 42.2733 138.482 42.4176 138.482C42.8587 138.482 43.1864 138.585 43.4008 138.791C43.6152 138.993 43.7224 139.309 43.7224 139.737V141.568H42.9989V141.086C42.9288 141.255 42.8175 141.389 42.6649 141.488C42.5124 141.582 42.331 141.63 42.1207 141.63ZM42.2815 141.098C42.4835 141.098 42.6505 141.028 42.7824 140.888C42.9185 140.748 42.9865 140.57 42.9865 140.356V140.22H42.7762C42.3887 140.22 42.1186 140.251 41.9661 140.313C41.8177 140.37 41.7435 140.478 41.7435 140.634C41.7435 140.77 41.7909 140.882 41.8857 140.968C41.9805 141.055 42.1125 141.098 42.2815 141.098ZM45.8923 141.63C45.0925 141.63 44.6926 141.234 44.6926 140.442V139.125H44.1112V138.544H44.6926V137.641H45.4656V138.544H46.3808V139.125H45.4656V140.399C45.4656 140.597 45.5089 140.745 45.5954 140.844C45.682 140.943 45.8222 140.993 46.016 140.993C46.0737 140.993 46.1335 140.987 46.1953 140.974C46.2571 140.958 46.3211 140.941 46.387 140.925L46.5045 141.494C46.4303 141.535 46.3355 141.568 46.22 141.593C46.1087 141.617 45.9995 141.63 45.8923 141.63ZM46.831 137.895V137.14H47.6968V137.895H46.831ZM46.8804 141.568V138.544H47.6535V141.568H46.8804ZM50.2006 141.63C49.978 141.63 49.778 141.58 49.6008 141.481C49.4276 141.382 49.2977 141.248 49.2112 141.079V141.568H48.4567V137.208H49.2297V138.989C49.3204 138.837 49.4503 138.715 49.6193 138.624C49.7925 138.53 49.9862 138.482 50.2006 138.482C50.4686 138.482 50.7015 138.546 50.8994 138.674C51.0973 138.802 51.2519 138.983 51.3632 139.218C51.4746 139.449 51.5302 139.727 51.5302 140.053C51.5302 140.374 51.4746 140.655 51.3632 140.894C51.2519 141.129 51.0953 141.31 50.8933 141.438C50.6954 141.566 50.4645 141.63 50.2006 141.63ZM49.9842 141.042C50.2151 141.042 50.4006 140.96 50.5408 140.795C50.6809 140.626 50.751 140.379 50.751 140.053C50.751 139.723 50.6809 139.478 50.5408 139.317C50.4006 139.152 50.2151 139.07 49.9842 139.07C49.7533 139.07 49.5678 139.152 49.4276 139.317C49.2874 139.478 49.2173 139.723 49.2173 140.053C49.2173 140.379 49.2874 140.626 49.4276 140.795C49.5678 140.96 49.7533 141.042 49.9842 141.042ZM53.2161 141.63C52.8574 141.63 52.5915 141.533 52.4183 141.339C52.2493 141.141 52.1648 140.853 52.1648 140.473V137.208H52.9378V140.436C52.9378 140.807 53.0945 140.993 53.4078 140.993C53.4531 140.993 53.4985 140.991 53.5438 140.987C53.5892 140.983 53.6325 140.974 53.6737 140.962L53.6613 141.574C53.5129 141.611 53.3645 141.63 53.2161 141.63ZM55.5998 141.63C55.2576 141.63 54.9628 141.566 54.7155 141.438C54.4681 141.31 54.2764 141.129 54.1403 140.894C54.0084 140.659 53.9424 140.381 53.9424 140.059C53.9424 139.746 54.0063 139.472 54.1341 139.237C54.2661 139.002 54.4454 138.818 54.6722 138.686C54.903 138.55 55.1648 138.482 55.4576 138.482C55.8863 138.482 56.2244 138.618 56.4718 138.89C56.7233 139.162 56.849 139.533 56.849 140.003V140.232H54.6845C54.7423 140.772 55.0515 141.042 55.6122 141.042C55.7812 141.042 55.9502 141.018 56.1193 140.968C56.2883 140.915 56.4429 140.832 56.5831 140.721L56.7995 141.24C56.6552 141.36 56.4738 141.455 56.2553 141.525C56.0368 141.595 55.8183 141.63 55.5998 141.63ZM55.4885 139.008C55.2617 139.008 55.0783 139.078 54.9381 139.218C54.7979 139.358 54.7134 139.548 54.6845 139.787H56.2058C56.1894 139.535 56.1193 139.344 55.9956 139.212C55.876 139.076 55.707 139.008 55.4885 139.008ZM59.9629 141.568L58.7693 138.544H59.5609L60.3339 140.671L61.1131 138.544H61.6573L62.4365 140.684L63.2096 138.544H63.9578L62.7705 141.568H62.0964L61.3605 139.62L60.6369 141.568H59.9629ZM64.3508 137.895V137.14H65.2166V137.895H64.3508ZM64.4003 141.568V138.544H65.1733V141.568H64.4003ZM67.3618 141.63C66.5619 141.63 66.162 141.234 66.162 140.442V139.125H65.5807V138.544H66.162V137.641H66.935V138.544H67.8503V139.125H66.935V140.399C66.935 140.597 66.9783 140.745 67.0649 140.844C67.1515 140.943 67.2917 140.993 67.4854 140.993C67.5432 140.993 67.6029 140.987 67.6648 140.974C67.7266 140.958 67.7905 140.941 67.8565 140.925L67.974 141.494C67.8998 141.535 67.805 141.568 67.6895 141.593C67.5782 141.617 67.4689 141.63 67.3618 141.63ZM68.3499 141.568V137.208H69.1229V138.983C69.226 138.818 69.3641 138.694 69.5373 138.612C69.7104 138.525 69.9021 138.482 70.1124 138.482C70.8256 138.482 71.1823 138.896 71.1823 139.725V141.568H70.4092V139.762C70.4092 139.527 70.3639 139.356 70.2732 139.249C70.1866 139.142 70.0506 139.088 69.865 139.088C69.6383 139.088 69.4569 139.16 69.3208 139.305C69.1889 139.445 69.1229 139.632 69.1229 139.867V141.568H68.3499ZM71.8994 139.397V138.544H72.7652V139.397H71.8994ZM71.8994 141.568V140.708H72.7652V141.568H71.8994Z" fill="#3E4771"/>
<path d="M81.4255 141.568V138.562H81.9141V139.07C82.0048 138.888 82.1305 138.75 82.2913 138.655C82.4521 138.556 82.6397 138.507 82.8541 138.507C83.3241 138.507 83.625 138.711 83.757 139.119C83.8477 138.929 83.9817 138.781 84.1589 138.674C84.3362 138.562 84.5403 138.507 84.7712 138.507C85.4391 138.507 85.773 138.903 85.773 139.694V141.568H85.2721V139.719C85.2721 139.443 85.2226 139.241 85.1237 139.113C85.0289 138.981 84.8701 138.915 84.6475 138.915C84.4043 138.915 84.2105 139.002 84.0662 139.175C83.9219 139.348 83.8497 139.579 83.8497 139.867V141.568H83.3488V139.719C83.3488 139.443 83.2993 139.241 83.2004 139.113C83.1056 138.981 82.9468 138.915 82.7242 138.915C82.4769 138.915 82.281 139.002 82.1367 139.175C81.9965 139.348 81.9265 139.579 81.9265 139.867V141.568H81.4255ZM87.6558 141.624C87.4496 141.624 87.2641 141.584 87.0992 141.506C86.9384 141.424 86.8106 141.312 86.7158 141.172C86.6209 141.032 86.5735 140.875 86.5735 140.702C86.5735 140.484 86.6292 140.311 86.7405 140.183C86.8559 140.055 87.0435 139.964 87.3033 139.911C87.5671 139.853 87.9258 139.824 88.3793 139.824H88.5772V139.632C88.5772 139.377 88.5236 139.193 88.4164 139.082C88.3133 138.967 88.1464 138.909 87.9155 138.909C87.7341 138.909 87.5589 138.936 87.3898 138.989C87.2208 139.039 87.0476 139.121 86.8704 139.237L86.6972 138.872C86.8539 138.76 87.0435 138.672 87.2662 138.606C87.4929 138.54 87.7094 138.507 87.9155 138.507C88.303 138.507 88.5896 138.602 88.7751 138.791C88.9647 138.981 89.0596 139.276 89.0596 139.676V141.568H88.5896V141.049C88.5112 141.226 88.3896 141.366 88.2247 141.469C88.0639 141.572 87.8743 141.624 87.6558 141.624ZM87.7362 141.246C87.9835 141.246 88.1855 141.162 88.3422 140.993C88.4989 140.82 88.5772 140.601 88.5772 140.337V140.152H88.3855C88.0515 140.152 87.7877 140.168 87.5939 140.201C87.4043 140.23 87.2703 140.284 87.1919 140.362C87.1177 140.436 87.0806 140.539 87.0806 140.671C87.0806 140.84 87.1383 140.978 87.2538 141.086C87.3733 141.193 87.5341 141.246 87.7362 141.246ZM91.2628 141.624C90.9619 141.624 90.7021 141.56 90.4836 141.432C90.2651 141.3 90.0961 141.117 89.9765 140.882C89.8611 140.642 89.8034 140.364 89.8034 140.047C89.8034 139.568 89.9332 139.193 90.193 138.921C90.4527 138.645 90.8093 138.507 91.2628 138.507C91.4483 138.507 91.6318 138.54 91.8132 138.606C91.9946 138.672 92.1451 138.765 92.2647 138.884L92.0915 139.249C91.9719 139.133 91.84 139.049 91.6957 138.995C91.5555 138.942 91.4215 138.915 91.2937 138.915C90.9804 138.915 90.7392 139.014 90.5702 139.212C90.4012 139.406 90.3166 139.686 90.3166 140.053C90.3166 140.412 90.4012 140.696 90.5702 140.906C90.7392 141.112 90.9804 141.215 91.2937 141.215C91.4215 141.215 91.5555 141.189 91.6957 141.135C91.84 141.082 91.9719 140.995 92.0915 140.875L92.2647 141.24C92.1451 141.36 91.9926 141.455 91.807 141.525C91.6256 141.591 91.4442 141.624 91.2628 141.624ZM94.75 141.624C94.346 141.624 93.9935 141.533 93.6925 141.352C93.3957 141.166 93.1648 140.906 92.9999 140.572C92.8391 140.238 92.7587 139.843 92.7587 139.385C92.7587 138.927 92.8391 138.532 92.9999 138.198C93.1607 137.864 93.3895 137.606 93.6863 137.425C93.9873 137.243 94.3419 137.152 94.75 137.152C95.1623 137.152 95.5169 137.243 95.8137 137.425C96.1147 137.606 96.3455 137.864 96.5063 138.198C96.6712 138.527 96.7537 138.921 96.7537 139.379C96.7537 139.836 96.6712 140.234 96.5063 140.572C96.3414 140.906 96.1085 141.166 95.8075 141.352C95.5107 141.533 95.1582 141.624 94.75 141.624ZM94.75 141.172C95.2159 141.172 95.5766 141.016 95.8323 140.702C96.0879 140.389 96.2157 139.95 96.2157 139.385C96.2157 138.82 96.0879 138.383 95.8323 138.074C95.5766 137.761 95.2159 137.604 94.75 137.604C94.2924 137.604 93.9358 137.761 93.6802 138.074C93.4245 138.383 93.2967 138.82 93.2967 139.385C93.2967 139.946 93.4245 140.385 93.6802 140.702C93.9358 141.016 94.2924 141.172 94.75 141.172ZM99.0703 141.624C98.7281 141.624 98.4189 141.58 98.1427 141.494C97.8664 141.403 97.6273 141.273 97.4253 141.104L97.6046 140.696C97.8149 140.857 98.0355 140.976 98.2664 141.055C98.4972 141.133 98.7652 141.172 99.0703 141.172C99.4413 141.172 99.7155 141.104 99.8928 140.968C100.074 140.828 100.165 140.644 100.165 140.418C100.165 140.236 100.099 140.092 99.967 139.985C99.8392 139.878 99.6227 139.793 99.3177 139.731L98.6745 139.601C98.287 139.519 97.9963 139.385 97.8025 139.199C97.6129 139.01 97.5181 138.758 97.5181 138.445C97.5181 138.185 97.584 137.958 97.716 137.765C97.852 137.571 98.0396 137.42 98.2787 137.313C98.5178 137.206 98.7941 137.152 99.1074 137.152C99.4001 137.152 99.6722 137.2 99.9237 137.295C100.175 137.385 100.388 137.517 100.561 137.691L100.381 138.086C100.196 137.917 100 137.796 99.7938 137.721C99.5877 137.643 99.3568 137.604 99.1012 137.604C98.7755 137.604 98.5158 137.68 98.322 137.833C98.1282 137.981 98.0314 138.179 98.0314 138.426C98.0314 138.624 98.0911 138.781 98.2107 138.896C98.3344 139.012 98.5343 139.096 98.8106 139.15L99.4537 139.286C99.8701 139.373 100.177 139.505 100.375 139.682C100.577 139.855 100.678 140.092 100.678 140.393C100.678 140.636 100.612 140.851 100.48 141.036C100.352 141.222 100.167 141.366 99.9237 141.469C99.6846 141.572 99.4001 141.624 99.0703 141.624Z" fill="#192147"/>
<g clip-path="url(#clip1_3850_23950)">
<path fill-rule="evenodd" clip-rule="evenodd" d="M104.298 140.044C104.287 140.044 104.276 140.044 104.255 140.054C104.212 140.044 104.18 140.033 104.137 140.011C104.169 139.99 104.223 140 104.298 140.044ZM109.74 137.156C109.46 137.006 109.149 137.296 108.966 137.468C108.548 137.875 108.194 138.348 107.797 138.777C107.357 139.249 106.949 139.722 106.498 140.183C106.24 140.441 105.962 140.72 105.79 141.042C105.403 140.666 105.071 140.258 104.641 139.926C104.33 139.689 103.815 139.517 103.825 140.086C103.847 140.827 104.502 141.621 104.985 142.126C105.189 142.34 105.457 142.566 105.768 142.576C106.144 142.598 106.53 142.147 106.756 141.9C107.153 141.471 107.475 140.988 107.84 140.548C108.312 139.969 108.795 139.399 109.256 138.809C109.546 138.444 110.458 137.543 109.74 137.156Z" fill="#3DB67B"/>
</g>
<path d="M119.143 141.568L117.615 137.208H118.147L119.378 140.826L120.639 137.208H121.047L122.297 140.857L123.552 137.208H124.059L122.532 141.568H122.08L120.837 137.981L119.582 141.568H119.143ZM124.644 137.814V137.251H125.263V137.814H124.644ZM124.706 141.568V138.562H125.207V141.568H124.706ZM126.143 141.568V138.562H126.632V139.076C126.731 138.886 126.871 138.744 127.052 138.649C127.234 138.554 127.438 138.507 127.665 138.507C128.378 138.507 128.734 138.903 128.734 139.694V141.568H128.234V139.725C128.234 139.445 128.178 139.241 128.067 139.113C127.959 138.981 127.786 138.915 127.547 138.915C127.271 138.915 127.05 139.002 126.885 139.175C126.725 139.344 126.644 139.571 126.644 139.855V141.568H126.143ZM130.802 141.624C130.534 141.624 130.299 141.56 130.097 141.432C129.899 141.304 129.745 141.125 129.633 140.894C129.526 140.659 129.473 140.383 129.473 140.065C129.473 139.744 129.526 139.467 129.633 139.237C129.745 139.002 129.899 138.822 130.097 138.699C130.299 138.571 130.534 138.507 130.802 138.507C131.037 138.507 131.243 138.558 131.421 138.661C131.602 138.765 131.736 138.907 131.823 139.088V137.208H132.324V141.568H131.835V141.018C131.748 141.207 131.614 141.356 131.433 141.463C131.252 141.57 131.041 141.624 130.802 141.624ZM130.907 141.222C131.188 141.222 131.412 141.123 131.581 140.925C131.75 140.723 131.835 140.436 131.835 140.065C131.835 139.69 131.75 139.404 131.581 139.206C131.412 139.008 131.188 138.909 130.907 138.909C130.623 138.909 130.396 139.008 130.227 139.206C130.062 139.404 129.98 139.69 129.98 140.065C129.98 140.436 130.062 140.723 130.227 140.925C130.396 141.123 130.623 141.222 130.907 141.222ZM134.513 141.624C134.22 141.624 133.966 141.56 133.752 141.432C133.538 141.304 133.371 141.125 133.251 140.894C133.136 140.659 133.078 140.383 133.078 140.065C133.078 139.748 133.136 139.474 133.251 139.243C133.371 139.008 133.538 138.826 133.752 138.699C133.966 138.571 134.22 138.507 134.513 138.507C134.801 138.507 135.053 138.571 135.267 138.699C135.486 138.826 135.653 139.008 135.768 139.243C135.888 139.474 135.947 139.748 135.947 140.065C135.947 140.383 135.888 140.659 135.768 140.894C135.653 141.125 135.486 141.304 135.267 141.432C135.053 141.56 134.801 141.624 134.513 141.624ZM134.513 141.222C134.793 141.222 135.018 141.123 135.187 140.925C135.356 140.723 135.44 140.436 135.44 140.065C135.44 139.69 135.356 139.404 135.187 139.206C135.018 139.008 134.793 138.909 134.513 138.909C134.228 138.909 134.002 139.008 133.832 139.206C133.668 139.404 133.585 139.69 133.585 140.065C133.585 140.436 133.668 140.723 133.832 140.925C134.002 141.123 134.228 141.222 134.513 141.222ZM137.455 141.568L136.336 138.562H136.862L137.709 140.98L138.587 138.562H139.014L139.88 140.987L140.739 138.562H141.24L140.115 141.568H139.638L138.791 139.237L137.938 141.568H137.455ZM142.811 141.624C142.576 141.624 142.354 141.591 142.143 141.525C141.933 141.459 141.76 141.366 141.624 141.246L141.785 140.894C141.933 141.013 142.096 141.102 142.273 141.16C142.455 141.213 142.638 141.24 142.824 141.24C143.059 141.24 143.236 141.197 143.355 141.11C143.475 141.024 143.535 140.906 143.535 140.758C143.535 140.642 143.496 140.552 143.417 140.486C143.339 140.416 143.215 140.362 143.046 140.325L142.483 140.201C141.972 140.09 141.717 139.826 141.717 139.41C141.717 139.138 141.824 138.919 142.038 138.754C142.257 138.589 142.541 138.507 142.892 138.507C143.098 138.507 143.294 138.54 143.479 138.606C143.669 138.668 143.825 138.76 143.949 138.884L143.782 139.237C143.663 139.125 143.522 139.041 143.362 138.983C143.205 138.921 143.048 138.89 142.892 138.89C142.661 138.89 142.485 138.936 142.366 139.026C142.246 139.117 142.187 139.237 142.187 139.385C142.187 139.616 142.339 139.764 142.644 139.83L143.207 139.948C143.471 140.005 143.671 140.098 143.807 140.226C143.943 140.35 144.011 140.519 144.011 140.733C144.011 141.009 143.902 141.228 143.683 141.389C143.465 141.545 143.174 141.624 142.811 141.624Z" fill="#192147"/>
<path fill-rule="evenodd" clip-rule="evenodd" d="M150.126 137.516L152.061 139.451L153.996 137.516C154.119 137.393 154.319 137.393 154.442 137.516C154.565 137.639 154.565 137.839 154.442 137.962L152.507 139.897L154.442 141.832C154.565 141.955 154.565 142.155 154.442 142.278C154.319 142.402 154.119 142.402 153.996 142.278L152.061 140.344L150.126 142.278C150.003 142.402 149.803 142.402 149.68 142.278C149.556 142.155 149.556 141.955 149.68 141.832L151.614 139.897L149.68 137.962C149.556 137.839 149.556 137.639 149.68 137.516C149.803 137.393 150.003 137.393 150.126 137.516Z" fill="#D66C7B" stroke="#D66C7B" stroke-width="0.618417"/>
<path d="M161.257 141.568V137.208H161.764V141.123H163.984V141.568H161.257ZM164.485 137.814V137.251H165.103V137.814H164.485ZM164.547 141.568V138.562H165.048V141.568H164.547ZM165.984 141.568V138.562H166.473V139.076C166.572 138.886 166.712 138.744 166.893 138.649C167.075 138.554 167.279 138.507 167.505 138.507C168.219 138.507 168.575 138.903 168.575 139.694V141.568H168.074V139.725C168.074 139.445 168.019 139.241 167.907 139.113C167.8 138.981 167.627 138.915 167.388 138.915C167.112 138.915 166.891 139.002 166.726 139.175C166.565 139.344 166.485 139.571 166.485 139.855V141.568H165.984ZM170.563 141.624C169.841 141.624 169.48 141.226 169.48 140.43V138.562H169.981V140.424C169.981 140.692 170.035 140.89 170.142 141.018C170.253 141.145 170.427 141.209 170.662 141.209C170.917 141.209 171.125 141.125 171.286 140.956C171.447 140.783 171.527 140.554 171.527 140.269V138.562H172.028V141.568H171.54V141.061C171.445 141.242 171.311 141.382 171.138 141.481C170.969 141.576 170.777 141.624 170.563 141.624ZM172.582 141.568L173.831 140.016L172.656 138.562H173.25L174.122 139.669L175 138.562H175.588L174.413 140.016L175.662 141.568H175.068L174.116 140.374L173.176 141.568H172.582Z" fill="#192147"/>
<g clip-path="url(#clip2_3850_23950)">
<path fill-rule="evenodd" clip-rule="evenodd" d="M179.125 139.734C179.115 139.734 179.104 139.734 179.083 139.744C179.04 139.734 179.007 139.723 178.964 139.702C178.997 139.68 179.05 139.691 179.125 139.734ZM184.567 136.847C184.288 136.696 183.976 136.986 183.794 137.158C183.376 137.566 183.022 138.038 182.624 138.467C182.184 138.939 181.776 139.412 181.326 139.873C181.068 140.131 180.789 140.41 180.617 140.732C180.231 140.356 179.898 139.949 179.469 139.616C179.158 139.38 178.643 139.208 178.653 139.777C178.674 140.517 179.33 141.312 179.812 141.816C180.016 142.031 180.284 142.256 180.596 142.267C180.971 142.288 181.358 141.837 181.583 141.59C181.98 141.161 182.303 140.678 182.667 140.238C183.139 139.659 183.623 139.09 184.084 138.5C184.374 138.134 185.286 137.233 184.567 136.847Z" fill="#3DB67B"/>
</g>
<rect x="24.6166" y="152.254" width="32.5809" height="14.0284" rx="2.47367" fill="#6A67FE"/>
<rect opacity="0.25" x="30.0849" y="157.722" width="21.6446" height="3.09209" rx="1.54604" fill="white"/>
<rect x="60.3547" y="152.254" width="40.1321" height="14.0284" rx="2.47367" fill="#3DB67B"/>
<rect opacity="0.25" x="65.8229" y="157.722" width="12.3683" height="3.09209" rx="1.54604" fill="white"/>
<rect opacity="0.25" x="79.5582" y="157.722" width="15.4604" height="3.09209" rx="1.54604" fill="white"/>
<rect width="102.528" height="304.166" transform="translate(285.029 55.7924)" fill="#F9FAFC"/>
<rect x="285.029" y="55.7924" width="0.34176" height="304" fill="#E2E4EA"/>
<path d="M298.237 73.9272V70.2291H296.741V69.5674H300.525V70.2291H299.029V73.9272H298.237ZM301.465 73.9891C301.247 73.9891 301.051 73.9479 300.878 73.8654C300.709 73.7788 300.575 73.6634 300.476 73.5191C300.381 73.3748 300.334 73.2119 300.334 73.0305C300.334 72.8079 300.391 72.6327 300.507 72.5049C300.622 72.373 300.81 72.2781 301.069 72.2204C301.329 72.1627 301.678 72.1338 302.115 72.1338H302.331V72.004C302.331 71.7978 302.286 71.6494 302.195 71.5587C302.104 71.468 301.952 71.4227 301.737 71.4227C301.568 71.4227 301.395 71.4495 301.218 71.503C301.041 71.5525 300.861 71.6309 300.68 71.738L300.457 71.2124C300.564 71.1382 300.69 71.0743 300.834 71.0207C300.983 70.963 301.138 70.9197 301.298 70.8908C301.463 70.8578 301.618 70.8413 301.762 70.8413C302.203 70.8413 302.531 70.9444 302.745 71.1506C302.96 71.3526 303.067 71.668 303.067 72.0967V73.9272H302.343V73.4449C302.273 73.6139 302.162 73.7479 302.009 73.8469C301.857 73.9417 301.676 73.9891 301.465 73.9891ZM301.626 73.4572C301.828 73.4572 301.995 73.3872 302.127 73.247C302.263 73.1068 302.331 72.9295 302.331 72.7151V72.5791H302.121C301.733 72.5791 301.463 72.61 301.311 72.6719C301.162 72.7296 301.088 72.8368 301.088 72.9934C301.088 73.1295 301.135 73.2408 301.23 73.3274C301.325 73.414 301.457 73.4572 301.626 73.4572ZM305.596 73.9891C305.373 73.9891 305.173 73.9396 304.996 73.8407C304.823 73.7417 304.693 73.6077 304.606 73.4387V73.9272H303.852V69.5674H304.625V71.3484C304.715 71.1959 304.845 71.0743 305.014 70.9836C305.187 70.8888 305.381 70.8413 305.596 70.8413C305.864 70.8413 306.096 70.9052 306.294 71.0331C306.492 71.1609 306.647 71.3423 306.758 71.5773C306.869 71.8081 306.925 72.0864 306.925 72.4121C306.925 72.7337 306.869 73.014 306.758 73.2532C306.647 73.4882 306.49 73.6696 306.288 73.7974C306.09 73.9252 305.859 73.9891 305.596 73.9891ZM305.379 73.4016C305.61 73.4016 305.795 73.3191 305.936 73.1542C306.076 72.9852 306.146 72.7378 306.146 72.4121C306.146 72.0823 306.076 71.837 305.936 71.6762C305.795 71.5113 305.61 71.4288 305.379 71.4288C305.148 71.4288 304.963 71.5113 304.823 71.6762C304.682 71.837 304.612 72.0823 304.612 72.4121C304.612 72.7378 304.682 72.9852 304.823 73.1542C304.963 73.3191 305.148 73.4016 305.379 73.4016ZM308.611 73.9891C308.252 73.9891 307.986 73.8922 307.813 73.6984C307.644 73.5005 307.56 73.2119 307.56 72.8326V69.5674H308.333V72.7955C308.333 73.1666 308.489 73.3521 308.803 73.3521C308.848 73.3521 308.893 73.3501 308.939 73.3459C308.984 73.3418 309.027 73.3336 309.069 73.3212L309.056 73.9334C308.908 73.9705 308.759 73.9891 308.611 73.9891ZM310.995 73.9891C310.653 73.9891 310.358 73.9252 310.11 73.7974C309.863 73.6696 309.671 73.4882 309.535 73.2532C309.403 73.0182 309.337 72.7399 309.337 72.4183C309.337 72.105 309.401 71.8308 309.529 71.5958C309.661 71.3608 309.84 71.1774 310.067 71.0454C310.298 70.9094 310.56 70.8413 310.852 70.8413C311.281 70.8413 311.619 70.9774 311.867 71.2495C312.118 71.5216 312.244 71.8927 312.244 72.3627V72.5915H310.079C310.137 73.1315 310.446 73.4016 311.007 73.4016C311.176 73.4016 311.345 73.3769 311.514 73.3274C311.683 73.2738 311.838 73.1913 311.978 73.08L312.194 73.5995C312.05 73.719 311.869 73.8139 311.65 73.884C311.432 73.954 311.213 73.9891 310.995 73.9891ZM310.883 71.367C310.657 71.367 310.473 71.4371 310.333 71.5773C310.193 71.7174 310.108 71.9071 310.079 72.1462H311.601C311.584 71.8947 311.514 71.703 311.39 71.5711C311.271 71.435 311.102 71.367 310.883 71.367ZM313.963 73.9891C313.707 73.9891 313.468 73.9582 313.246 73.8963C313.023 73.8345 312.838 73.7458 312.689 73.6304L312.887 73.1233C313.04 73.2264 313.211 73.3068 313.4 73.3645C313.59 73.4181 313.78 73.4449 313.969 73.4449C314.167 73.4449 314.313 73.4119 314.408 73.3459C314.507 73.2758 314.557 73.1851 314.557 73.0738C314.557 72.9007 314.429 72.7894 314.173 72.7399L313.555 72.6224C313.031 72.5234 312.77 72.2513 312.77 71.8061C312.77 71.6082 312.823 71.4371 312.93 71.2928C313.042 71.1485 313.194 71.0372 313.388 70.9588C313.582 70.8805 313.804 70.8413 314.056 70.8413C314.27 70.8413 314.476 70.8723 314.674 70.9341C314.872 70.9918 315.041 71.0805 315.181 71.2L314.971 71.7071C314.852 71.6082 314.707 71.5298 314.538 71.4721C314.373 71.4144 314.215 71.3856 314.062 71.3856C313.86 71.3856 313.71 71.4206 313.611 71.4907C313.516 71.5608 313.468 71.6535 313.468 71.769C313.468 71.9504 313.586 72.0617 313.821 72.1029L314.439 72.2204C314.707 72.2699 314.909 72.3606 315.045 72.4925C315.185 72.6244 315.256 72.8017 315.256 73.0244C315.256 73.3253 315.138 73.5624 314.903 73.7355C314.668 73.9046 314.355 73.9891 313.963 73.9891Z" fill="#3E4771"/>
<rect x="296.601" y="81.2245" width="30.3025" height="3.09209" rx="1.54604" fill="#C5C7D1"/>
<rect x="296.71" y="88.9535" width="42.6708" height="3.09209" rx="1.54604" fill="#C5C7D1"/>
<rect x="343.71" y="88.9535" width="24.7367" height="3.09209" rx="1.54604" fill="#C5C7D1"/>
<rect x="296.71" y="96.9928" width="24.7367" height="3.09209" rx="1.54604" fill="#C5C7D1"/>
<rect x="329.996" y="81.2246" width="30.3025" height="3.09209" rx="1.54604" fill="#C5C7D1"/>
<rect x="305.877" y="113.842" width="33.4925" height="3.07584" rx="1.53792" fill="#C5C7D1"/>
<path d="M302.071 128.967C301.794 127.872 301.212 127.305 300.885 127.063C300.868 127.039 300.85 127.016 300.833 126.993C300.885 126.833 300.914 126.663 300.914 126.488C300.914 125.517 300.049 124.731 298.979 124.731C297.91 124.731 297.042 125.519 297.042 126.488C297.042 126.663 297.071 126.833 297.123 126.993C297.1 127.021 297.08 127.05 297.059 127.078C296.73 127.328 296.167 127.895 295.894 128.967C295.882 129.013 295.902 129.065 295.943 129.096C295.987 129.127 296.045 129.132 296.095 129.114C296.246 129.052 296.447 128.959 296.634 128.83C296.733 129.426 297.059 129.943 297.525 130.296H297.176C296.983 130.296 296.826 130.436 296.826 130.606C296.826 130.776 296.983 130.915 297.176 130.915H300.766C300.958 130.915 301.115 130.776 301.115 130.606C301.115 130.436 300.958 130.296 300.766 130.296H300.428C300.894 129.943 301.223 129.42 301.319 128.823C301.509 128.954 301.713 129.049 301.867 129.111C301.917 129.132 301.975 129.124 302.019 129.093C302.062 129.065 302.083 129.016 302.071 128.967ZM298.977 130.072C298.064 130.072 297.324 129.346 297.324 128.452C297.324 127.993 297.52 127.413 297.831 126.96C297.668 126.833 297.566 126.648 297.566 126.444C297.566 126.063 297.916 125.756 298.344 125.756C298.604 125.756 298.831 125.867 298.974 126.04C299.116 125.867 299.344 125.756 299.603 125.756C300.034 125.756 300.381 126.065 300.381 126.444C300.381 126.65 300.279 126.833 300.116 126.96C300.428 127.413 300.623 127.99 300.623 128.452C300.629 129.348 299.889 130.072 298.977 130.072Z" fill="#3E4771"/>
<path d="M299.431 126.735L298.997 126.617C298.985 126.614 298.971 126.614 298.956 126.617L298.522 126.735C298.502 126.741 298.484 126.756 298.478 126.774C298.472 126.792 298.475 126.813 298.487 126.828L298.921 127.346C298.933 127.362 298.953 127.369 298.974 127.369C298.994 127.369 299.014 127.362 299.026 127.346L299.46 126.828C299.472 126.813 299.478 126.792 299.469 126.774C299.469 126.756 299.452 126.743 299.431 126.735Z" fill="#3E4771"/>
<path d="M298.723 126.455C298.723 126.545 298.641 126.617 298.539 126.617C298.437 126.617 298.356 126.545 298.356 126.455C298.356 126.364 298.437 126.292 298.539 126.292C298.641 126.29 298.723 126.364 298.723 126.455Z" fill="#3E4771"/>
<path d="M299.6 126.455C299.6 126.545 299.519 126.617 299.417 126.617C299.315 126.617 299.233 126.545 299.233 126.455C299.233 126.364 299.315 126.292 299.417 126.292C299.516 126.29 299.6 126.364 299.6 126.455Z" fill="#3E4771"/>
<path d="M296.404 143.198L298.411 143.599V141.334H296.404V143.198Z" fill="#3E4771"/>
<path d="M296.404 141.081H298.411V138.828L296.404 139.23V141.081Z" fill="#3E4771"/>
<path d="M298.73 141.081H301.97V138.119L298.73 138.767V141.081Z" fill="#3E4771"/>
<path d="M298.73 143.661L301.97 144.303V141.334H298.73V143.661Z" fill="#3E4771"/>
<path fill-rule="evenodd" clip-rule="evenodd" d="M300.197 112.201C300.429 111.94 300.604 111.582 300.56 111.218C300.211 111.231 299.797 111.426 299.55 111.686C299.324 111.914 299.135 112.285 299.186 112.637C299.564 112.663 299.957 112.467 300.197 112.201Z" fill="#3E4771"/>
<path fill-rule="evenodd" clip-rule="evenodd" d="M301.207 115.058H296.453H301.207V115.052C301.098 114.856 301.047 114.55 301.091 114.303V114.297C301.134 113.971 301.367 113.639 301.556 113.516C301.556 113.516 301.563 113.516 301.563 113.509C301.607 113.47 301.723 113.385 301.803 113.333C301.505 112.943 301.025 112.734 300.531 112.728C300.037 112.689 299.52 113.008 299.244 113.001C298.975 113.008 298.568 112.721 298.139 112.741H298.132C298.125 112.741 298.045 112.747 298.045 112.747C297.478 112.76 296.976 113.06 296.685 113.516C296.569 113.678 296.438 114.062 296.416 114.303V114.316C296.387 114.472 296.416 114.876 296.446 115.071C296.446 115.078 296.446 115.078 296.446 115.084C296.467 115.279 296.584 115.657 296.664 115.846C296.744 116.047 296.969 116.432 297.107 116.627C297.398 116.998 297.739 117.421 298.19 117.401C298.626 117.388 298.786 117.141 299.31 117.148C299.833 117.141 299.978 117.388 300.444 117.395C300.916 117.375 301.207 117.004 301.498 116.627C301.643 116.432 301.861 116.061 301.941 115.839C301.948 115.813 301.963 115.781 301.97 115.755C301.679 115.663 301.33 115.299 301.207 115.058Z" fill="#3E4771"/>
<rect x="305.877" y="126.829" width="33.4925" height="3.07584" rx="1.53792" fill="#C5C7D1"/>
<rect x="305.877" y="139.816" width="33.4925" height="3.07584" rx="1.53792" fill="#C5C7D1"/>
</g>
<rect x="10.1795" y="26.2902" width="377.641" height="260.142" rx="3.45498" stroke="#E2E4EA" stroke-width="0.406469"/>
</g>
<defs>
<filter id="filter0_d_3850_23950" x="0.731471" y="19.1534" width="396.537" height="279.038" filterUnits="userSpaceOnUse" color-interpolation-filters="sRGB">
<feFlood flood-opacity="0" result="BackgroundImageFix"/>
<feColorMatrix in="SourceAlpha" type="matrix" values="0 0 0 0 0 0 0 0 0 0 0 0 0 0 0 0 0 0 127 0" result="hardAlpha"/>
<feOffset dy="2.31118"/>
<feGaussianBlur stdDeviation="4.62236"/>
<feColorMatrix type="matrix" values="0 0 0 0 0 0 0 0 0 0 0 0 0 0 0 0 0 0 0.1 0"/>
<feBlend mode="normal" in2="BackgroundImageFix" result="effect1_dropShadow_3850_23950"/>
<feBlend mode="normal" in="SourceGraphic" in2="effect1_dropShadow_3850_23950" result="shape"/>
</filter>
<linearGradient id="paint0_linear_3850_23950" x1="377.235" y1="0" x2="1.59021e-10" y2="0.000244925" gradientUnits="userSpaceOnUse">
<stop stop-color="#201E43"/>
<stop offset="1" stop-color="#353D62"/>
</linearGradient>
<clipPath id="clip0_3850_23950">
<rect x="10.3827" y="26.4934" width="377.235" height="259.735" rx="3.25175" fill="white"/>
</clipPath>
<clipPath id="clip1_3850_23950">
<rect width="6.18417" height="5.56576" fill="white" transform="translate(103.825 137.114)"/>
</clipPath>
<clipPath id="clip2_3850_23950">
<rect width="6.80259" height="6.18417" fill="white" transform="translate(178.653 136.805)"/>
</clipPath>
</defs>
</svg>
