<svg width="160" height="121" viewBox="0 0 160 121" fill="none" xmlns="http://www.w3.org/2000/svg">
<path d="M118.919 64.7295C140.728 77.6026 140.845 98.4721 119.176 111.345C97.5048 124.218 62.2579 124.218 40.4482 111.345C18.6385 98.4721 18.5222 77.6026 40.1934 64.7295C61.8621 51.8564 97.109 51.8564 118.919 64.7295Z" fill="#C5C7D1"/>
<path d="M116.811 54.8649C138.135 67.1764 138.249 87.1404 117.063 99.4543C95.8743 111.768 61.4092 111.766 40.0844 99.4543C18.7596 87.1429 18.6458 67.1788 39.8345 54.8649C61.0208 42.5535 95.4858 42.5535 116.811 54.8649Z" fill="#624937" stroke="#192147" stroke-width="0.2" stroke-miterlimit="10"/>
<path d="M132.873 77.7929C132.843 78.837 132.725 79.8787 132.517 80.9153C132.311 81.9421 132.017 82.9664 131.638 83.9808C131.248 85.0224 130.765 86.0566 130.189 87.076C129.565 88.177 128.835 89.2631 127.999 90.327C127.022 91.5691 125.896 92.7814 124.624 93.9566C122.672 95.7578 120.376 97.47 117.731 99.0608C117.513 99.192 117.291 99.3231 117.068 99.4542C113.439 101.565 109.418 103.311 105.14 104.699C101.837 105.771 98.3832 106.624 94.8353 107.265C92.5541 107.676 90.2334 108 87.8928 108.233C85.8937 108.43 83.8772 108.567 81.8558 108.636C80.0002 108.7 78.1396 108.708 76.2816 108.661C74.4903 108.616 72.699 108.52 70.92 108.374C69.1436 108.228 67.377 108.03 65.6278 107.782C63.8093 107.525 62.0056 107.211 60.2317 106.845C58.3043 106.446 56.4091 105.981 54.5535 105.452C52.2822 104.806 50.0728 104.061 47.9425 103.22C45.1789 102.129 42.5464 100.874 40.0895 99.4542C29.3591 93.2589 23.9976 85.1264 24.0223 77.0062L24.0001 85.0744C23.9778 93.1946 29.3368 101.327 40.0673 107.522C42.5241 108.94 45.1541 110.195 47.9203 111.288C50.0505 112.129 52.2599 112.874 54.5312 113.52C56.3868 114.049 58.282 114.512 60.2094 114.913C61.9859 115.281 63.787 115.593 65.6056 115.851C67.3548 116.098 69.1213 116.296 70.8978 116.442C72.6767 116.588 74.468 116.684 76.2593 116.729C78.1174 116.776 79.9779 116.766 81.8336 116.704C83.855 116.635 85.8714 116.501 87.8705 116.301C90.2111 116.068 92.5318 115.744 94.813 115.333C98.361 114.693 101.815 113.839 105.118 112.768C109.396 111.38 113.416 109.633 117.046 107.522C117.269 107.391 117.491 107.263 117.709 107.129C120.351 105.538 122.65 103.829 124.602 102.025C125.874 100.85 126.999 99.6373 127.977 98.3953C128.815 97.3314 129.545 96.2452 130.166 95.1442C130.743 94.1249 131.225 93.0932 131.616 92.0491C131.997 91.0347 132.289 90.0128 132.494 88.9836C132.702 87.9469 132.821 86.9028 132.851 85.8612C132.856 85.7028 132.858 85.542 132.858 85.3837L132.88 77.3154C132.88 77.4738 132.878 77.6346 132.873 77.7929Z" fill="#F1EEEA"/>
<path d="M132.514 80.9178C132.309 81.9446 132.015 82.9689 131.636 83.9833C131.245 85.0249 130.763 86.0591 130.186 87.0785C129.563 88.1795 128.833 89.2656 127.996 90.3295C127.019 91.5716 125.893 92.7839 124.622 93.9591C122.67 95.7603 120.374 97.4724 117.729 99.0633C117.511 99.1945 117.288 99.3256 117.066 99.4567C113.436 101.567 109.416 103.314 105.138 104.702C103.71 105.165 102.255 105.585 100.776 105.966V114.027C102.248 113.646 103.695 113.228 105.115 112.768C109.393 111.38 113.414 109.633 117.043 107.522C117.266 107.391 117.489 107.263 117.706 107.129C120.349 105.538 122.647 103.829 124.599 102.025C125.871 100.85 126.997 99.6373 127.974 98.3953C128.813 97.3314 129.543 96.2453 130.164 95.1443C130.74 94.1249 131.223 93.0932 131.614 92.0491C131.995 91.0347 132.287 90.0128 132.492 88.9836C132.7 87.9469 132.819 86.9028 132.848 85.8612C132.853 85.7029 132.856 85.542 132.856 85.3837L132.878 77.3154C132.878 77.4738 132.876 77.6346 132.871 77.793C132.841 78.8371 132.722 79.8787 132.514 80.9153V80.9178Z" fill="#E2DED5"/>
<path d="M132.873 77.7929C132.843 78.837 132.725 79.8787 132.517 80.9153C132.311 81.9421 132.017 82.9664 131.638 83.9808C131.248 85.0224 130.765 86.0566 130.189 87.076C129.565 88.177 128.835 89.2631 127.999 90.327C127.022 91.5691 125.896 92.7814 124.624 93.9566C122.672 95.7578 120.376 97.47 117.731 99.0608C117.513 99.192 117.291 99.3231 117.068 99.4542C113.439 101.565 109.418 103.311 105.14 104.699C101.837 105.771 98.3832 106.624 94.8353 107.265C92.5541 107.676 90.2334 108 87.8928 108.233C85.8937 108.43 83.8772 108.567 81.8558 108.636C80.0002 108.7 78.1396 108.708 76.2816 108.661C74.4903 108.616 72.699 108.52 70.92 108.374C69.1436 108.228 67.377 108.03 65.6278 107.782C63.8093 107.525 62.0056 107.211 60.2317 106.845C58.3043 106.446 56.4091 105.981 54.5535 105.452C52.2822 104.806 50.0728 104.061 47.9425 103.22C45.1789 102.129 42.5464 100.874 40.0895 99.4542C29.3591 93.2589 23.9976 85.1264 24.0223 77.0062L24.0001 85.0744C23.9778 93.1946 29.3368 101.327 40.0673 107.522C42.5241 108.94 45.1541 110.195 47.9203 111.288C50.0505 112.129 52.2599 112.874 54.5312 113.52C56.3868 114.049 58.282 114.512 60.2094 114.913C61.9859 115.281 63.787 115.593 65.6056 115.851C67.3548 116.098 69.1213 116.296 70.8978 116.442C72.6767 116.588 74.468 116.684 76.2593 116.729C78.1174 116.776 79.9779 116.766 81.8336 116.704C83.855 116.635 85.8714 116.501 87.8705 116.301C90.2111 116.068 92.5318 115.744 94.813 115.333C98.361 114.693 101.815 113.839 105.118 112.768C109.396 111.38 113.416 109.633 117.046 107.522C117.269 107.391 117.491 107.263 117.709 107.129C120.351 105.538 122.65 103.829 124.602 102.025C125.874 100.85 126.999 99.6373 127.977 98.3953C128.815 97.3314 129.545 96.2452 130.166 95.1442C130.743 94.1249 131.225 93.0932 131.616 92.0491C131.997 91.0347 132.289 90.0128 132.494 88.9836C132.702 87.9469 132.821 86.9028 132.851 85.8612C132.856 85.7028 132.858 85.542 132.858 85.3837L132.88 77.3154C132.88 77.4738 132.878 77.6346 132.873 77.7929Z" stroke="#192147" stroke-width="0.2" stroke-miterlimit="10"/>
<path d="M132.873 69.6283C132.843 70.6724 132.725 71.7141 132.517 72.7507C132.311 73.7775 132.017 74.8018 131.638 75.8162C131.248 76.8578 130.765 77.892 130.189 78.9114C129.565 80.0124 128.835 81.0986 127.999 82.1624C127.022 83.4045 125.896 84.6168 124.624 85.792C122.672 87.5932 120.376 89.3054 117.731 90.8962C117.511 91.0274 117.291 91.1585 117.068 91.2896C113.439 93.4001 109.418 95.1468 105.14 96.5348C101.837 97.6062 98.3832 98.4597 94.8353 99.1006C92.5541 99.5113 90.2334 99.8354 87.8928 100.068C85.8937 100.266 83.8772 100.402 81.8558 100.471C80.0002 100.536 78.1396 100.543 76.2816 100.496C74.4903 100.451 72.699 100.355 70.92 100.209C69.1436 100.063 67.377 99.8651 65.6278 99.6177C63.8093 99.3603 62.0056 99.0461 60.2317 98.6799C58.3043 98.2816 56.4091 97.8165 54.5535 97.287C52.2822 96.6412 50.0728 95.8965 47.9425 95.0553C45.1789 93.9642 42.5464 92.7098 40.0895 91.2896C29.3591 85.0943 23.9976 76.9618 24.0223 68.8416L24.0001 76.9098C23.9778 85.03 29.3368 93.1626 40.0673 99.3579C42.5241 100.776 45.1541 102.03 47.9203 103.124C50.0505 103.965 52.2599 104.709 54.5312 105.355C56.3868 105.885 58.282 106.347 60.2094 106.748C61.9859 107.117 63.787 107.429 65.6056 107.686C67.3548 107.933 69.1213 108.131 70.8978 108.277C72.6767 108.423 74.468 108.52 76.2593 108.564C78.1174 108.611 79.9779 108.601 81.8336 108.539C83.855 108.47 85.8714 108.337 87.8705 108.136C90.2111 107.904 92.5318 107.58 94.813 107.169C98.361 106.528 101.815 105.674 105.118 104.603C109.396 103.218 113.414 101.468 117.046 99.3579C117.269 99.2267 117.491 99.0981 117.709 98.9645C120.354 97.3736 122.65 95.6615 124.602 93.8603C125.874 92.6851 126.999 91.4727 127.977 90.2307C128.815 89.1668 129.545 88.0806 130.166 86.9796C130.743 85.9603 131.225 84.9286 131.616 83.8845C131.997 82.8701 132.289 81.8482 132.494 80.819C132.702 79.7823 132.821 78.7382 132.851 77.6966C132.856 77.5382 132.858 77.3774 132.858 77.2191L132.88 69.1508C132.88 69.3092 132.878 69.47 132.873 69.6283Z" fill="#F1EEEA"/>
<path d="M132.514 72.7508C132.309 73.7776 132.015 74.8019 131.636 75.8163C131.245 76.8579 130.763 77.8921 130.186 78.9115C129.563 80.0125 128.833 81.0986 127.996 82.1625C127.019 83.4046 125.893 84.6169 124.622 85.7921C122.67 87.5933 120.374 89.3054 117.729 90.8963C117.509 91.0275 117.288 91.1586 117.066 91.2897C113.436 93.4002 109.416 95.1469 105.138 96.5349C103.71 96.9976 102.255 97.4182 100.776 97.7992V105.86C102.248 105.479 103.695 105.061 105.115 104.601C109.393 103.215 113.411 101.466 117.043 99.3555C117.266 99.2244 117.489 99.0957 117.706 98.9621C120.351 97.3712 122.647 95.6591 124.599 93.8579C125.871 92.6827 126.997 91.4703 127.974 90.2283C128.813 89.1644 129.543 88.0783 130.164 86.9773C130.74 85.9579 131.223 84.9262 131.614 83.8821C131.995 82.8677 132.287 81.8458 132.492 80.8166C132.7 79.7799 132.819 78.7358 132.848 77.6942C132.853 77.5359 132.856 77.375 132.856 77.2167L132.878 69.1484C132.878 69.3068 132.876 69.4676 132.871 69.6259C132.841 70.67 132.722 71.7117 132.514 72.7483V72.7508Z" fill="#E2DED5"/>
<path d="M132.873 69.6283C132.843 70.6724 132.725 71.7141 132.517 72.7507C132.311 73.7775 132.017 74.8018 131.638 75.8162C131.248 76.8578 130.765 77.892 130.189 78.9114C129.565 80.0124 128.835 81.0986 127.999 82.1624C127.022 83.4045 125.896 84.6168 124.624 85.792C122.672 87.5932 120.376 89.3054 117.731 90.8962C117.511 91.0274 117.291 91.1585 117.068 91.2896C113.439 93.4001 109.418 95.1468 105.14 96.5348C101.837 97.6062 98.3832 98.4597 94.8353 99.1006C92.5541 99.5113 90.2334 99.8354 87.8928 100.068C85.8937 100.266 83.8772 100.402 81.8558 100.471C80.0002 100.536 78.1396 100.543 76.2816 100.496C74.4903 100.451 72.699 100.355 70.92 100.209C69.1436 100.063 67.377 99.8651 65.6278 99.6177C63.8093 99.3603 62.0056 99.0461 60.2317 98.6799C58.3043 98.2816 56.4091 97.8165 54.5535 97.287C52.2822 96.6412 50.0728 95.8965 47.9425 95.0553C45.1789 93.9642 42.5464 92.7098 40.0895 91.2896C29.3591 85.0943 23.9976 76.9618 24.0223 68.8416L24.0001 76.9098C23.9778 85.03 29.3368 93.1626 40.0673 99.3579C42.5241 100.776 45.1541 102.03 47.9203 103.124C50.0505 103.965 52.2599 104.709 54.5312 105.355C56.3868 105.885 58.282 106.347 60.2094 106.748C61.9859 107.117 63.787 107.429 65.6056 107.686C67.3548 107.933 69.1213 108.131 70.8978 108.277C72.6767 108.423 74.468 108.52 76.2593 108.564C78.1174 108.611 79.9779 108.601 81.8336 108.539C83.855 108.47 85.8714 108.337 87.8705 108.136C90.2111 107.904 92.5318 107.58 94.813 107.169C98.361 106.528 101.815 105.674 105.118 104.603C109.396 103.218 113.414 101.468 117.046 99.3579C117.269 99.2267 117.491 99.0981 117.709 98.9645C120.354 97.3736 122.65 95.6615 124.602 93.8603C125.874 92.6851 126.999 91.4727 127.977 90.2307C128.815 89.1668 129.545 88.0806 130.166 86.9796C130.743 85.9603 131.225 84.9286 131.616 83.8845C131.997 82.8701 132.289 81.8482 132.494 80.819C132.702 79.7823 132.821 78.7382 132.851 77.6966C132.856 77.5382 132.858 77.3774 132.858 77.2191L132.88 69.1508C132.88 69.3092 132.878 69.47 132.873 69.6283Z" stroke="#192147" stroke-width="0.2" stroke-miterlimit="10"/>
<path d="M116.811 46.7002C138.135 59.0116 138.249 78.9756 117.061 91.2895C95.8743 103.601 61.4092 103.601 40.082 91.2895C18.7572 78.9781 18.6434 59.0141 39.8321 46.7027C61.0208 34.3887 95.4834 34.3887 116.811 46.7027V46.7002Z" fill="white" stroke="#192147" stroke-width="0.2" stroke-miterlimit="10"/>
<path opacity="0.5" d="M78.3091 14C49.9726 14 27 36.9726 27 65.3092C27 67.8947 27.193 70.4356 27.5616 72.9197C29.1302 79.0383 33.992 84.9318 42.1443 89.6376C62.2469 101.244 94.7326 101.244 114.707 89.6376C122.602 85.0505 127.357 79.3352 128.98 73.3848C129.396 70.7548 129.613 68.058 129.613 65.3117C129.613 36.9751 106.641 14.0025 78.3042 14.0025L78.3091 14Z" fill="#BEE8EE"/>
<mask id="path-11-inside-1_3133_20446" fill="white">
<path d="M78.4489 13.6233C106.785 13.6233 129.758 36.5959 129.758 64.9325C129.758 67.6788 129.54 70.3757 129.125 73.0057C127.499 78.9561 122.744 84.6714 114.851 89.2585C104.866 95.0628 91.75 97.9626 78.6196 97.9626C65.4892 97.9626 52.3416 95.0604 42.289 89.2585C34.1367 84.5501 29.2749 78.6567 27.7063 72.5406C27.3377 70.0565 27.1447 67.518 27.1447 64.93C27.1447 36.5935 50.1173 13.6209 78.4538 13.6209M78.4538 13.126C71.4619 13.126 64.6752 14.4967 58.2894 17.196C52.1214 19.8063 46.5817 23.5398 41.8239 28.2976C37.0661 33.0554 33.3326 38.595 30.7223 44.7631C28.0206 51.1489 26.6523 57.9331 26.6523 64.9276C26.6523 67.4908 26.8429 70.0738 27.2214 72.6098L27.2264 72.6346L27.2338 72.6593C28.9014 79.1639 34.0253 85.0499 42.049 89.684C51.8467 95.34 64.8361 98.4549 78.627 98.4549C92.418 98.4549 105.375 95.34 115.109 89.684C122.872 85.1711 127.888 79.4484 129.612 73.1343L129.619 73.1071L129.624 73.0799C130.05 70.3905 130.265 67.6491 130.265 64.9276C130.265 57.9356 128.895 51.1489 126.195 44.7631C123.585 38.595 119.852 33.0554 115.094 28.2976C110.336 23.5398 104.796 19.8063 98.6282 17.196C92.2423 14.4942 85.4582 13.126 78.4637 13.126H78.4538Z"/>
</mask>
<path d="M78.4489 13.6233C106.785 13.6233 129.758 36.5959 129.758 64.9325C129.758 67.6788 129.54 70.3757 129.125 73.0057C127.499 78.9561 122.744 84.6714 114.851 89.2585C104.866 95.0628 91.75 97.9626 78.6196 97.9626C65.4892 97.9626 52.3416 95.0604 42.289 89.2585C34.1367 84.5501 29.2749 78.6567 27.7063 72.5406C27.3377 70.0565 27.1447 67.518 27.1447 64.93C27.1447 36.5935 50.1173 13.6209 78.4538 13.6209M78.4538 13.126C71.4619 13.126 64.6752 14.4967 58.2894 17.196C52.1214 19.8063 46.5817 23.5398 41.8239 28.2976C37.0661 33.0554 33.3326 38.595 30.7223 44.7631C28.0206 51.1489 26.6523 57.9331 26.6523 64.9276C26.6523 67.4908 26.8429 70.0738 27.2214 72.6098L27.2264 72.6346L27.2338 72.6593C28.9014 79.1639 34.0253 85.0499 42.049 89.684C51.8467 95.34 64.8361 98.4549 78.627 98.4549C92.418 98.4549 105.375 95.34 115.109 89.684C122.872 85.1711 127.888 79.4484 129.612 73.1343L129.619 73.1071L129.624 73.0799C130.05 70.3905 130.265 67.6491 130.265 64.9276C130.265 57.9356 128.895 51.1489 126.195 44.7631C123.585 38.595 119.852 33.0554 115.094 28.2976C110.336 23.5398 104.796 19.8063 98.6282 17.196C92.2423 14.4942 85.4582 13.126 78.4637 13.126H78.4538Z" fill="white"/>
<path d="M129.125 73.0057L129.511 73.1111L129.516 73.0899L129.52 73.0681L129.125 73.0057ZM114.851 89.2585L114.65 88.9126L114.65 88.9126L114.851 89.2585ZM42.289 89.2585L42.089 89.6048L42.0891 89.6049L42.289 89.2585ZM27.7063 72.5406L27.3107 72.5993L27.3137 72.6198L27.3189 72.6399L27.7063 72.5406ZM58.2894 17.196L58.1337 16.8276L58.1335 16.8276L58.2894 17.196ZM30.7223 44.7631L30.354 44.6072L30.3539 44.6073L30.7223 44.7631ZM27.2214 72.6098L26.8258 72.6689L26.8272 72.6787L26.8292 72.6883L27.2214 72.6098ZM27.2264 72.6346L26.8341 72.7131L26.8378 72.7315L26.8432 72.7495L27.2264 72.6346ZM27.2338 72.6593L27.6212 72.56L27.6192 72.5521L27.6169 72.5444L27.2338 72.6593ZM42.049 89.684L41.849 90.0304L41.8491 90.0304L42.049 89.684ZM115.109 89.684L115.31 90.0299L115.31 90.0298L115.109 89.684ZM129.612 73.1343L129.998 73.2397L129.998 73.2395L129.612 73.1343ZM129.619 73.1071L130.005 73.2123L130.01 73.1957L130.013 73.1787L129.619 73.1071ZM129.624 73.0799L130.018 73.1515L130.02 73.1424L129.624 73.0799ZM126.195 44.7631L126.564 44.6074L126.564 44.6072L126.195 44.7631ZM98.6282 17.196L98.784 16.8276L98.784 16.8276L98.6282 17.196ZM78.4489 14.0233C106.565 14.0233 129.358 36.8168 129.358 64.9325H130.158C130.158 36.375 107.006 13.2233 78.4489 13.2233V14.0233ZM129.358 64.9325C129.358 67.6576 129.142 70.3336 128.73 72.9433L129.52 73.0681C129.939 70.4177 130.158 67.7 130.158 64.9325H129.358ZM128.739 72.9003C127.149 78.7192 122.483 84.3602 114.65 88.9126L115.052 89.6043C123.004 84.9825 127.849 79.1929 129.511 73.1111L128.739 72.9003ZM114.65 88.9126C104.74 94.6731 91.6983 97.5626 78.6196 97.5626V98.3626C91.8017 98.3626 104.991 95.4526 115.052 89.6043L114.65 88.9126ZM78.6196 97.5626C65.5411 97.5626 52.4666 94.6707 42.489 88.912L42.0891 89.6049C52.2165 95.45 65.4373 98.3626 78.6196 98.3626V97.5626ZM42.4891 88.9121C34.397 84.2386 29.6275 78.4214 28.0938 72.4412L27.3189 72.6399C28.9224 78.892 33.8763 84.8617 42.089 89.6048L42.4891 88.9121ZM28.102 72.4818C27.7362 70.0169 27.5447 67.4981 27.5447 64.93H26.7447C26.7447 67.538 26.9392 70.0961 27.3107 72.5993L28.102 72.4818ZM27.5447 64.93C27.5447 36.8144 50.3382 14.0209 78.4538 14.0209V13.2209C49.8964 13.2209 26.7447 36.3725 26.7447 64.93H27.5447ZM78.4538 12.726C71.4088 12.726 64.5692 14.1073 58.1337 16.8276L58.4452 17.5645C64.7813 14.8861 71.515 13.526 78.4538 13.526V12.726ZM58.1335 16.8276C51.9179 19.458 46.3352 23.2206 41.5411 28.0147L42.1067 28.5804C46.8283 23.8589 52.3248 20.1545 58.4453 17.5644L58.1335 16.8276ZM41.5411 28.0147C36.7469 32.8088 32.9843 38.3916 30.354 44.6072L31.0907 44.919C33.6808 38.7985 37.3852 33.3019 42.1067 28.5804L41.5411 28.0147ZM30.3539 44.6073C27.6311 51.0429 26.2523 57.8801 26.2523 64.9276H27.0523C27.0523 57.9861 28.41 51.255 31.0907 44.919L30.3539 44.6073ZM26.2523 64.9276C26.2523 67.5104 26.4443 70.1132 26.8258 72.6689L27.617 72.5508C27.2414 70.0344 27.0523 67.4711 27.0523 64.9276H26.2523ZM26.8292 72.6883L26.8341 72.7131L27.6186 72.5561L27.6136 72.5313L26.8292 72.6883ZM26.8432 72.7495L26.8506 72.7742L27.6169 72.5444L27.6095 72.5196L26.8432 72.7495ZM26.8463 72.7586C28.5495 79.402 33.7684 85.3635 41.849 90.0304L42.2491 89.3376C34.2822 84.7364 29.2532 78.9257 27.6212 72.56L26.8463 72.7586ZM41.8491 90.0304C51.7196 95.7284 64.7812 98.8549 78.627 98.8549V98.0549C64.891 98.0549 51.9739 94.9515 42.249 89.3376L41.8491 90.0304ZM78.627 98.8549C92.4728 98.8549 105.503 95.7285 115.31 90.0299L114.908 89.3382C105.248 94.9515 92.3632 98.0549 78.627 98.0549V98.8549ZM115.31 90.0298C123.13 85.4842 128.237 79.688 129.998 73.2397L129.226 73.029C127.538 79.2089 122.615 84.8581 114.908 89.3382L115.31 90.0298ZM129.998 73.2395L130.005 73.2123L129.234 73.002L129.226 73.0292L129.998 73.2395ZM130.013 73.1787L130.018 73.1515L129.231 73.0083L129.226 73.0355L130.013 73.1787ZM130.02 73.1424C130.448 70.4323 130.665 67.67 130.665 64.9276H129.865C129.865 67.6282 129.652 70.3487 129.229 73.0174L130.02 73.1424ZM130.665 64.9276C130.665 57.8825 129.284 51.0429 126.564 44.6074L125.827 44.9189C128.505 51.255 129.865 57.9887 129.865 64.9276H130.665ZM126.564 44.6072C123.933 38.3916 120.171 32.8088 115.377 28.0147L114.811 28.5804C119.532 33.3019 123.237 38.7985 125.827 44.919L126.564 44.6072ZM115.377 28.0147C110.582 23.2206 105 19.458 98.784 16.8276L98.4723 17.5644C104.593 20.1545 110.089 23.8589 114.811 28.5804L115.377 28.0147ZM98.784 16.8276C92.3484 14.1048 85.5112 12.726 78.4637 12.726V13.526C85.4052 13.526 92.1363 14.8837 98.4723 17.5644L98.784 16.8276ZM78.4637 12.726H78.4538V13.526H78.4637V12.726Z" fill="white" mask="url(#path-11-inside-1_3133_20446)"/>
<path opacity="0.5" d="M78.6148 98.4598C64.8238 98.4598 51.8345 95.3448 42.0368 89.6889C34.0131 85.0573 28.8891 79.1688 27.2215 72.6642L27.2141 72.6394L27.2092 72.6147C26.8331 70.0812 26.6426 67.4957 26.6426 64.9324C26.6426 36.3682 49.8824 13.1284 78.4466 13.1284C107.011 13.1284 130.251 36.3682 130.251 64.9324C130.251 67.654 130.035 70.3954 129.61 73.0848L129.605 73.112L129.597 73.1392C127.873 79.4558 122.858 85.1785 115.094 89.6889C105.36 95.3448 92.4033 98.4598 78.6123 98.4598H78.6148Z" stroke="#192147" stroke-width="0.2" stroke-miterlimit="10"/>
<path d="M114.609 47.2296C134.711 58.8359 134.818 77.6544 114.846 89.2607C94.8725 100.867 62.3867 100.867 42.2842 89.2607C22.1816 77.6544 22.0752 58.8384 42.0491 47.2296C62.0205 35.6233 94.5063 35.6233 114.609 47.2296Z" fill="#93CE9E" stroke="#192147" stroke-width="0.2" stroke-miterlimit="10"/>
<path d="M104.895 73.416C104.895 73.416 100.484 51.5914 95.9884 49.8199C91.4928 48.0484 81.1038 41.2667 72.3824 39.3591C63.661 37.4516 60.259 44.2901 60.259 44.2901C60.259 44.2901 51.5054 56.5892 48.5166 60.7879C45.8841 64.4867 45.0949 71.4688 44.9464 73.0795C44.9341 73.1859 44.9242 73.2923 44.9192 73.3987C44.9192 73.411 44.9192 73.4185 44.9192 73.4185C44.8499 74.9104 45.5526 76.4345 47.0297 77.288L69.8167 90.4432C73.0331 92.2988 76.9967 92.2938 80.2057 90.4283L102.79 77.3054C104.269 76.4468 104.967 74.9153 104.89 73.4185H104.898L104.895 73.416Z" fill="#51A27F"/>
<path d="M93.3853 76.5807C93.3853 76.5807 89.7581 73.2084 93.2789 70.8406C96.7996 68.4728 100.288 69.507 102.126 69.507C103.965 69.507 114.267 72.4884 114.609 75.7592C114.953 79.0697 111.283 83.9586 103.759 83.9512C95.4784 83.9438 92.6702 79.8119 93.3853 76.5782V76.5807Z" fill="#51A27F"/>
<path d="M56.4364 41.8258C54.3186 40.1632 54.0934 37.2165 55.3453 34.866C56.6195 32.716 58.3292 30.4645 61.1423 28.5346C64.7521 25.8873 70.262 23.0445 77.1476 26.0679C78.8474 26.773 76.3757 33.5126 77.3975 36.6796C78.4194 39.8465 73.7704 44.7033 65.4919 44.4979C61.4441 44.3989 58.3465 43.3252 56.4364 41.8258Z" fill="#FF5C83"/>
<path d="M76.0692 36.3135C76.0692 36.3135 73.7435 39.9208 66.8628 40.1781C59.9822 40.4355 56.0136 37.605 55.066 35.5341C55.066 35.5341 53.2079 39.1761 57.0528 42.3406C60.1059 44.8518 67.1498 46.0147 71.6404 43.496C76.1311 40.9798 76.0717 36.311 76.0717 36.311L76.0692 36.3135Z" fill="#E33D65"/>
<path d="M104.23 70.2146C104.23 70.2146 103.74 43.3798 99.2419 41.6083C94.7464 39.8368 80.4383 38.0653 71.7169 36.1577C62.9955 34.2501 59.5935 41.0887 59.5935 41.0887C59.5935 41.0887 50.8399 53.3878 47.8511 57.5864C45.2186 61.2853 44.4294 68.2674 44.2809 69.8781C44.2685 69.9845 44.2586 70.0909 44.2537 70.1973C44.2537 70.2096 44.2537 70.217 44.2537 70.217C44.1844 71.709 44.8871 73.233 46.3641 74.0866L69.1512 87.2418C72.3676 89.0974 76.3312 89.0924 79.5402 87.2269L102.124 74.104C103.604 73.2454 104.302 71.7139 104.225 70.217H104.232L104.23 70.2146Z" fill="#E33D65" stroke="#192147" stroke-width="0.2" stroke-miterlimit="10"/>
<path d="M69.4504 76.6375L49.8625 66.7755C46.7797 65.2242 45.8049 61.2878 47.8065 58.4771L60.9294 40.0397C62.5426 37.7734 65.5685 37.0237 68.0525 38.2756L87.6405 48.1376C90.7233 49.6889 91.6981 53.6253 89.6965 56.436L76.5736 74.8734C74.9604 77.1398 71.9345 77.8894 69.4504 76.6375Z" fill="#FF5C83" stroke="#192147" stroke-width="0.2" stroke-miterlimit="10"/>
<path d="M68.3719 69.3114C66.5237 69.3114 64.673 68.871 63.0178 68.0372C59.9103 66.4711 57.6464 63.6357 56.8101 60.2585C55.9739 56.8812 56.6518 53.316 58.6682 50.4806L58.9305 50.1144C61.1622 46.9796 64.7943 45.1067 68.6465 45.1067C70.4947 45.1067 72.3454 45.5471 74.0006 46.3809C77.1082 47.947 79.372 50.7824 80.2083 54.1597C81.0446 57.5369 80.3666 61.1022 78.3502 63.9376L78.0904 64.3037C75.8587 67.4385 72.2266 69.3114 68.3744 69.3114H68.3719Z" fill="#E33D65" stroke="#192147" stroke-width="0.2" stroke-miterlimit="10"/>
<path d="M63.6163 66.8447C57.8243 63.9277 55.9934 56.5373 59.7541 51.2525L60.0164 50.8863C63.0472 46.6283 68.7328 45.2205 73.3991 47.571C79.1911 50.488 81.022 57.8783 77.2613 63.1631L76.999 63.5293C73.9682 67.7873 68.2825 69.1951 63.6163 66.8447Z" fill="#847C89" stroke="#192147" stroke-width="0.2" stroke-miterlimit="10"/>
<path d="M63.4409 65.9366C57.7825 63.0864 55.9937 55.8643 59.6679 50.7032L59.9227 50.3444C62.8843 46.1854 68.4388 44.8073 72.9986 47.1058C78.657 49.956 80.4459 57.1781 76.7717 62.3392L76.5169 62.6979C73.5553 66.857 68.0008 68.2351 63.4409 65.9366Z" fill="white" stroke="#192147" stroke-width="0.2" stroke-miterlimit="10"/>
<path d="M73.0834 56.0983C73.7269 55.9341 74.1153 55.2793 73.9511 54.6358C73.7868 53.9924 73.132 53.6039 72.4886 53.7681C71.8451 53.9324 71.4566 54.5872 71.6209 55.2306C71.7851 55.8741 72.4399 56.2626 73.0834 56.0983Z" fill="#D66C7B"/>
<path d="M70.0143 54.5473C70.6577 54.383 71.0462 53.7282 70.882 53.0848C70.7177 52.4413 70.0629 52.0529 69.4195 52.2171C68.776 52.3814 68.3875 53.0361 68.5518 53.6796C68.7161 54.3231 69.3708 54.7115 70.0143 54.5473Z" fill="#5CABDF"/>
<path d="M66.9454 52.9995C67.5889 52.8352 67.9774 52.1804 67.8131 51.537C67.6489 50.8935 66.9941 50.5051 66.3506 50.6693C65.7072 50.8336 65.3187 51.4883 65.483 52.1318C65.6472 52.7752 66.302 53.1637 66.9454 52.9995Z" fill="#63C740"/>
<path d="M65.3969 56.0683C66.0403 55.904 66.4288 55.2493 66.2645 54.6058C66.1003 53.9623 65.4455 53.5739 64.8021 53.7381C64.1586 53.9024 63.7701 54.5572 63.9344 55.2006C64.0986 55.8441 64.7534 56.2326 65.3969 56.0683Z" fill="#C98DEF"/>
<path d="M68.4638 57.619C69.1072 57.4548 69.4957 56.8 69.3314 56.1565C69.1672 55.5131 68.5124 55.1246 67.8689 55.2889C67.2255 55.4531 66.837 56.1079 67.0013 56.7514C67.1655 57.3948 67.8203 57.7833 68.4638 57.619Z" fill="#FAA669"/>
<path d="M63.8466 59.1369C64.49 58.9727 64.8785 58.3179 64.7142 57.6744C64.55 57.031 63.8952 56.6425 63.2517 56.8068C62.6083 56.971 62.2198 57.6258 62.3841 58.2692C62.5483 58.9127 63.2031 59.3012 63.8466 59.1369Z" fill="#3AEFC3"/>
<path d="M69.0991 35.9943C69.0991 35.9943 83.2587 43.5108 87.1828 45.3145C92.9748 47.9767 92.668 50.0203 92.9748 51.9131C93.2816 53.8033 88.6722 68.777 104.059 65.4542L102.941 51.9626C102.941 51.9626 101.919 47.0563 90.5229 42.3059C79.1269 37.553 70.7469 33.5672 70.7469 33.5672L69.0991 35.9918V35.9943Z" fill="#BC2247"/>
<path d="M112.637 46.3513C114.54 50.1863 100.469 47.7418 100.469 47.7418L65.7441 29.2771L70.0838 26.7782C72.6693 25.2888 75.8412 25.2368 78.4762 26.6372C88.8083 31.6201 98.6455 36.6204 107.896 41.643C107.896 41.643 111.115 43.2784 112.639 46.3513H112.637Z" fill="#FF5C83"/>
<path d="M94.9145 56.3816C94.9145 56.3816 97.5396 49.8869 101.06 47.5216C104.581 45.1538 108.814 44.2854 110.655 44.2854C112.496 44.2854 115.799 52.2918 116.14 55.5601C116.484 58.8706 112.815 63.7595 105.291 63.7521C97.0101 63.7447 94.2019 59.6128 94.9169 56.3791L94.9145 56.3816Z" fill="#FF5C83"/>
<path d="M68.958 29.7866C68.958 29.7866 70.8309 33.1811 70.4227 34.3044L96.7651 49.0158C96.7651 49.0158 98.4921 47.7391 102.376 47.2616L68.958 29.7866Z" fill="#E33D65"/>
<path d="M102.129 47.2964C102.129 47.2964 97.4183 51.3515 97.0101 58.0466C96.8839 60.1051 92.1211 55.951 95.9882 49.82C95.9882 49.82 98.3065 46.7694 102.129 47.2988V47.2964Z" fill="#FF83A1"/>
<path d="M77.3678 38.1173C77.2886 36.5041 77.6474 34.4555 77.5756 33.8073C77.4742 32.8869 76.1109 32.2065 76.1109 32.2065L75.4404 37.1078L77.3653 38.1173H77.3678Z" fill="#BC2247"/>
<path d="M116.079 55.9189C116.079 55.9189 113.753 59.5263 106.872 59.7836C99.9916 60.0409 95.4367 56.8294 94.4817 54.761C94.4817 54.761 93.6429 59.2912 97.0845 61.6565C100.286 63.9748 106.843 65.6919 111.647 63.1014C116.18 60.6594 116.079 55.9165 116.079 55.9165V55.9189Z" fill="#E33D65"/>
<path d="M58.161 43.1002C58.161 43.1002 53.0024 40.4924 55.0658 35.5367C57.1293 30.5784 63.7773 26.4862 65.7443 25.8676C67.7113 25.2491 71.4101 23.6557 76.8261 25.9394C82.242 28.223 104.784 39.6017 107.503 41.445C110.222 43.2882 111.4 43.5158 113.58 48.1153C115.759 52.7148 116.497 55.3646 115.95 57.6408C115.403 59.9171 112.914 64.0959 107.112 64.4052C101.31 64.7169 96.8222 62.1463 95.3105 59.8527C93.7988 57.5592 94.2194 52.4822 95.6099 50.4658C97.0004 48.4468 96.7653 49.0184 96.7653 49.0184L90.2459 45.4061L75.8859 37.3774" stroke="#192147" stroke-width="0.2" stroke-miterlimit="10"/>
<path d="M94.4814 54.761C94.4814 54.761 97.7523 61.1122 110.066 59.3803C110.066 59.3803 113.332 59.123 116.078 55.9189" stroke="#192147" stroke-width="0.2" stroke-miterlimit="10"/>
<path d="M54.9893 35.6281C54.9893 35.6281 56.4589 38.2656 60.7169 39.4804" stroke="#192147" stroke-width="0.2" stroke-miterlimit="10"/>
<path d="M68.1665 37.5359C68.1665 37.5359 69.0894 33.7726 70.6555 31.9319C70.9771 31.5533 71.4868 31.1896 71.9668 30.8952C72.6893 30.4523 73.5923 30.4152 74.3544 30.7888L75.8785 31.5385C76.6752 31.9294 77.1007 32.8127 76.9151 33.6786L75.6162 39.7106C75.6162 39.7106 72.6299 41.4351 68.1665 37.5359Z" fill="#E33D65"/>
<path d="M71.3087 39.5596C72.0583 39.8688 72.7288 40.0173 73.3028 40.0693C73.5874 38.805 74.3915 34.6459 74.9902 33.4459C75.5147 32.3944 75.7646 31.8328 76.3263 31.8476C76.2966 31.8204 76.2644 31.7932 76.2322 31.7684C76.2248 31.7635 76.2199 31.7585 76.2124 31.7536C76.1852 31.7313 76.1555 31.7091 76.1259 31.6893C76.1085 31.6769 76.0937 31.667 76.0764 31.6571C76.0541 31.6423 76.0318 31.6274 76.0096 31.615C75.9675 31.5903 75.923 31.5656 75.8784 31.5433L74.3543 30.7936C74.0203 30.6303 73.6616 30.5437 73.3004 30.5388C72.8896 30.5314 72.4765 30.6254 72.1053 30.8208C72.0583 30.8456 72.0138 30.8703 71.9668 30.9C71.7862 31.0113 71.6031 31.1301 71.4274 31.2563C71.133 31.4691 70.8584 31.6992 70.658 31.9367C70.314 32.34 70.0023 32.8323 69.7252 33.3618C69.6856 33.436 69.646 33.5127 69.6089 33.5894C68.6885 35.4228 68.1689 37.5407 68.1689 37.5407C69.0374 38.3002 70.2398 39.0276 71.3087 39.5645V39.5596Z" fill="#FF5C83"/>
<path d="M82.4351 44.4709C82.4351 44.4709 83.3579 40.7077 84.9241 38.8669C85.2457 38.4884 85.7554 38.1247 86.2354 37.8302C86.9578 37.3874 87.8609 37.3502 88.6229 37.7238L90.147 38.4735C90.9437 38.8644 91.3693 39.7477 91.1837 40.6137L89.8848 46.6457C89.8848 46.6457 86.8984 48.3702 82.4351 44.4709Z" fill="#E33D65"/>
<path d="M85.5772 46.4946C86.3269 46.8039 86.9974 46.9523 87.5714 47.0043C87.8559 45.74 88.66 41.5809 89.2588 40.381C89.7833 39.3294 90.0332 38.7678 90.5948 38.7826C90.5651 38.7554 90.533 38.7282 90.5008 38.7035C90.4934 38.6985 90.4884 38.6936 90.481 38.6886C90.4538 38.6664 90.4241 38.6441 90.3944 38.6243C90.3771 38.6119 90.3622 38.602 90.3449 38.5921C90.3227 38.5773 90.3004 38.5624 90.2781 38.5501C90.2361 38.5253 90.1915 38.5006 90.147 38.4783L88.6229 37.7287C88.2889 37.5654 87.9302 37.4788 87.5689 37.4738C87.1582 37.4664 86.745 37.5604 86.3739 37.7559C86.3269 37.7806 86.2824 37.8054 86.2353 37.835C86.0547 37.9464 85.8716 38.0651 85.696 38.1913C85.4016 38.4041 85.1269 38.6342 84.9265 38.8717C84.5826 39.275 84.2709 39.7674 83.9938 40.2968C83.9542 40.3711 83.9146 40.4478 83.8775 40.5245C82.9571 42.3578 82.4375 44.4757 82.4375 44.4757C83.3059 45.2353 84.5084 45.9627 85.5772 46.4996V46.4946Z" fill="#FF5C83"/>
<path d="M82.4351 44.4709C82.4351 44.4709 83.3579 40.7077 84.9241 38.8669C85.2457 38.4884 85.7554 38.1247 86.2354 37.8302C86.9578 37.3874 87.8609 37.3502 88.6229 37.7238L90.147 38.4735C90.9437 38.8644 91.3693 39.7477 91.1837 40.6137L89.8848 46.6457C89.8848 46.6457 86.8984 48.3702 82.4351 44.4709Z" stroke="#192147" stroke-width="0.2" stroke-miterlimit="10"/>
<path d="M68.1665 37.5359C68.1665 37.5359 69.0894 33.7726 70.6555 31.9319C70.9771 31.5533 71.4868 31.1896 71.9668 30.8952C72.6893 30.4523 73.5923 30.4152 74.3544 30.7888L75.8785 31.5385C76.6752 31.9294 77.1007 32.8127 76.9151 33.6786L75.6162 39.7106C75.6162 39.7106 72.6299 41.4351 68.1665 37.5359Z" stroke="#192147" stroke-width="0.2" stroke-miterlimit="10"/>
<path d="M89.1224 14.2913C95.0554 17.718 95.0876 23.2725 89.1916 26.6968C83.2957 30.1235 73.7059 30.1235 67.7728 26.6968C61.8398 23.27 61.8076 17.7155 67.7035 14.2913C73.5995 10.8671 83.1868 10.8646 89.1199 14.2913H89.1224Z" fill="#FBE95A"/>
<path d="M89.1223 14.2912C84.1121 11.3989 76.4967 10.9486 70.6997 12.9403C79.9902 15.2017 87.2692 24.361 89.053 26.7734C89.1001 26.7461 89.1471 26.7239 89.1916 26.6967C95.0875 23.2699 95.0554 17.7154 89.1223 14.2912Z" fill="#EDB312"/>
<path d="M89.1224 14.2913C95.0554 17.718 95.0876 23.2725 89.1916 26.6968C83.2957 30.1235 73.7059 30.1235 67.7728 26.6968C61.8398 23.27 61.8076 17.7155 67.7035 14.2913C73.5995 10.8671 83.1868 10.8646 89.1199 14.2913H89.1224Z" stroke="#192147" stroke-width="0.2" stroke-miterlimit="10"/>
<path d="M85.9777 13.3954C90.1639 15.8127 90.1862 19.7293 86.0272 22.1466C81.8681 24.5638 75.1037 24.5638 70.9199 22.1466C66.7337 19.7293 66.7114 15.8127 70.8704 13.3954C75.0295 10.9782 81.7914 10.9782 85.9777 13.3954Z" fill="#FBE95A"/>
<path d="M85.9774 13.3956C84.9333 12.7944 83.7309 12.3416 82.4493 12.0398C79.8341 11.6216 77.0655 11.6167 74.4503 12.0249C73.3493 12.2798 72.3102 12.6459 71.3799 13.121C77.1966 14.7613 82.1747 19.0293 85.4282 22.4684C85.6335 22.3669 85.8339 22.2605 86.0294 22.1467C90.1885 19.7295 90.1662 15.8129 85.9799 13.3956H85.9774Z" fill="#EDB312"/>
<path d="M85.9777 13.3954C90.1639 15.8127 90.1862 19.7293 86.0272 22.1466C81.8681 24.5638 75.1037 24.5638 70.9199 22.1466C66.7337 19.7293 66.7114 15.8127 70.8704 13.3954C75.0295 10.9782 81.7914 10.9782 85.9777 13.3954Z" stroke="#192147" stroke-width="0.2" stroke-miterlimit="10"/>
<path d="M83.298 12.646C83.2956 12.7351 83.2857 12.8266 83.2683 12.9157C83.251 13.0048 83.2263 13.0938 83.1917 13.1804C83.157 13.2695 83.115 13.361 83.0655 13.4476C83.011 13.5441 82.9492 13.6357 82.875 13.7297C82.7908 13.8361 82.6919 13.9425 82.583 14.0439C82.4148 14.1998 82.2143 14.3482 81.9867 14.4843C81.9669 14.4967 81.9496 14.5066 81.9298 14.5189C81.6156 14.702 81.2692 14.853 80.9006 14.9717C80.616 15.0633 80.3167 15.1375 80.0099 15.1944C79.8119 15.229 79.6115 15.2587 79.4111 15.2785C79.2379 15.2958 79.0647 15.3082 78.8891 15.3132C78.7283 15.3181 78.5674 15.3206 78.4066 15.3132C78.2507 15.3082 78.0973 15.3008 77.944 15.2884C77.7906 15.276 77.6372 15.2587 77.4862 15.2365C77.3279 15.2142 77.172 15.187 77.0186 15.1548C76.8528 15.1202 76.6871 15.0806 76.5287 15.0336C76.3333 14.9767 76.1403 14.9123 75.9572 14.8406C75.7172 14.7466 75.4896 14.6377 75.2793 14.514C74.3515 13.9796 73.8888 13.2769 73.8913 12.5743L73.8789 16.5205C73.8789 17.2232 74.3391 17.9259 75.2669 18.4603C75.4797 18.584 75.7073 18.6904 75.9448 18.7869C76.1279 18.8586 76.3209 18.923 76.5164 18.9799C76.6772 19.0244 76.8405 19.0665 77.0062 19.1011C77.1596 19.1333 77.3155 19.1605 77.4739 19.1827C77.6248 19.205 77.7782 19.2223 77.9316 19.2347C78.085 19.2471 78.2409 19.2545 78.3942 19.2594C78.5551 19.2644 78.7159 19.2619 78.8767 19.2594C79.0524 19.2545 79.2256 19.2421 79.3988 19.2248C79.6016 19.205 79.802 19.1778 79.9975 19.1407C80.3043 19.0863 80.6037 19.012 80.8882 18.918C81.2569 18.7992 81.6057 18.6483 81.9175 18.4652C81.9372 18.4529 81.957 18.443 81.9744 18.4306C82.202 18.292 82.4024 18.1461 82.5706 17.9902C82.6795 17.8888 82.7785 17.7848 82.8626 17.676C82.9343 17.5844 82.9987 17.4904 83.0531 17.3939C83.1026 17.3049 83.1446 17.2158 83.1793 17.1267C83.2114 17.0401 83.2386 16.951 83.256 16.862C83.2733 16.7729 83.2832 16.6814 83.2857 16.5923C83.2857 16.5774 83.2857 16.5651 83.2857 16.5502L83.2956 12.6039C83.2956 12.6188 83.2956 12.6312 83.2956 12.646H83.298Z" fill="#FBE95A"/>
<path d="M83.2979 12.6458C83.2979 12.6755 83.2904 12.7052 83.288 12.7349C83.283 12.7943 83.2806 12.8561 83.2682 12.9155C83.2509 13.0046 83.2261 13.0937 83.1915 13.1803C83.1569 13.2693 83.1148 13.3609 83.0653 13.4475C83.0109 13.5415 82.949 13.6355 82.8773 13.727C82.8599 13.7493 82.8401 13.7691 82.8228 13.7914C82.7511 13.8755 82.6744 13.9596 82.5853 14.0413C82.4171 14.1971 82.2167 14.3456 81.989 14.4817C81.9692 14.494 81.9519 14.5039 81.9321 14.5163C81.6179 14.6994 81.2715 14.8503 80.9029 14.9691C80.6184 15.0606 80.319 15.1348 80.0122 15.1917C79.8143 15.2264 79.6138 15.2561 79.4134 15.2759C79.3194 15.2858 79.2229 15.2882 79.1289 15.2957V19.242C79.2205 19.237 79.312 19.2321 79.4035 19.2246C79.6064 19.2048 79.8068 19.1776 80.0023 19.1405C80.3091 19.0861 80.6085 19.0119 80.893 18.9178C81.2616 18.7991 81.6105 18.6482 81.9222 18.4651C81.9222 18.4651 81.9321 18.4601 81.9371 18.4576C81.9519 18.4502 81.9668 18.4403 81.9791 18.4329C82.2068 18.2944 82.4072 18.1484 82.5754 17.9925C82.6571 17.9158 82.7313 17.8366 82.7981 17.7575C82.8204 17.7302 82.8451 17.7055 82.8674 17.6783C82.9391 17.5867 83.0034 17.4927 83.0554 17.3962C83.1049 17.3072 83.1469 17.2181 83.1816 17.129C83.2137 17.0424 83.2385 16.9534 83.2583 16.8643C83.2707 16.8049 83.2731 16.7455 83.2781 16.6837C83.2806 16.654 83.288 16.6243 83.288 16.5946C83.288 16.5798 83.288 16.5674 83.288 16.5525L83.2979 12.6063C83.2979 12.6211 83.2979 12.6335 83.2979 12.6483V12.6458Z" fill="#EDB312"/>
<path d="M83.298 12.646C83.2956 12.7351 83.2857 12.8266 83.2684 12.9157C83.251 13.0048 83.2263 13.0938 83.1917 13.1804C83.157 13.2695 83.115 13.361 83.0655 13.4476C83.011 13.5441 82.9492 13.6357 82.875 13.7297C82.7908 13.8361 82.6919 13.9425 82.583 14.0439C82.4148 14.1998 82.2143 14.3482 81.9867 14.4843C81.9669 14.4967 81.9496 14.5066 81.9298 14.5189C81.6156 14.702 81.2692 14.853 80.9006 14.9717C80.616 15.0633 80.3167 15.1375 80.0099 15.1944C79.8119 15.229 79.6115 15.2587 79.4111 15.2785C79.2379 15.2958 79.0647 15.3082 78.8891 15.3132C78.7283 15.3181 78.5674 15.3206 78.4066 15.3132C78.2507 15.3082 78.0973 15.3008 77.944 15.2884C77.7906 15.276 77.6372 15.2587 77.4862 15.2365C77.3279 15.2142 77.172 15.187 77.0186 15.1548C76.8528 15.1202 76.6871 15.0806 76.5287 15.0336C76.3333 14.9767 76.1403 14.9123 75.9572 14.8406C75.7172 14.7466 75.4896 14.6377 75.2793 14.514C74.3515 13.9796 73.8888 13.2769 73.8913 12.5743L73.8789 16.5205C73.8789 17.2232 74.3391 17.9259 75.2669 18.4603C75.4797 18.584 75.7073 18.6904 75.9448 18.7869C76.1279 18.8586 76.3209 18.923 76.5164 18.9799C76.6772 19.0244 76.8405 19.0665 77.0062 19.1011C77.1596 19.1333 77.3155 19.1605 77.4739 19.1827C77.6248 19.205 77.7782 19.2223 77.9316 19.2347C78.085 19.2471 78.2409 19.2545 78.3942 19.2594C78.5551 19.2644 78.7159 19.2619 78.8767 19.2594C79.0524 19.2545 79.2256 19.2421 79.3988 19.2248C79.6016 19.205 79.802 19.1778 79.9975 19.1407C80.3043 19.0863 80.6037 19.012 80.8882 18.918C81.2569 18.7992 81.6057 18.6483 81.9175 18.4652C81.9372 18.4529 81.957 18.443 81.9744 18.4306C82.202 18.292 82.4024 18.1461 82.5706 17.9902C82.6795 17.8888 82.7785 17.7848 82.8626 17.676C82.9343 17.5844 82.9987 17.4904 83.0531 17.3939C83.1026 17.3049 83.1446 17.2158 83.1793 17.1267C83.2114 17.0401 83.2386 16.951 83.256 16.862C83.2733 16.7729 83.2832 16.6814 83.2857 16.5923C83.2857 16.5774 83.2857 16.5651 83.2857 16.5502L83.2956 12.6039C83.2956 12.6188 83.2956 12.6312 83.2956 12.646H83.298Z" stroke="#192147" stroke-width="0.2" stroke-miterlimit="10"/>
<path d="M81.9074 10.6641C83.7507 11.728 83.7606 13.4549 81.9297 14.5188C80.0988 15.5827 77.1199 15.5827 75.2766 14.5188C73.4334 13.4549 73.4235 11.7305 75.2544 10.6666C77.0853 9.60268 80.0666 9.60268 81.9074 10.6666V10.6641Z" fill="#EDB312" stroke="#192147" stroke-width="0.2" stroke-miterlimit="10"/>
<path d="M70.4155 7.03695C72.0825 7.03695 73.4339 5.68554 73.4339 4.01848C73.4339 2.35142 72.0825 1 70.4155 1C68.7484 1 67.397 2.35142 67.397 4.01848C67.397 5.68554 68.7484 7.03695 70.4155 7.03695Z" fill="#EDB312"/>
<path d="M69.7277 5.09456C70.702 5.09456 71.4918 4.30476 71.4918 3.33049C71.4918 2.35621 70.702 1.56641 69.7277 1.56641C68.7534 1.56641 67.9636 2.35621 67.9636 3.33049C67.9636 4.30476 68.7534 5.09456 69.7277 5.09456Z" fill="#FBE95A"/>
<path d="M73.1217 5.22481C73.5029 4.13343 73.0379 2.97845 72.0833 2.64508C71.1287 2.31171 70.0458 2.92618 69.6647 4.01756C69.2836 5.10893 69.7485 6.26393 70.7031 6.5973C71.6578 6.93067 72.7406 6.31618 73.1217 5.22481Z" fill="#EDB312"/>
<path d="M70.4155 7.03695C72.0825 7.03695 73.4339 5.68554 73.4339 4.01848C73.4339 2.35142 72.0825 1 70.4155 1C68.7484 1 67.397 2.35142 67.397 4.01848C67.397 5.68554 68.7484 7.03695 70.4155 7.03695Z" stroke="#192147" stroke-width="0.2" stroke-miterlimit="10"/>
<path d="M77.9713 6.49527C77.9713 6.49527 77.9886 6.50269 77.996 6.50764L72.3574 3.43968C70.858 2.66279 69.5022 5.25076 70.9397 6.04744L76.5783 9.11541C76.5734 9.11293 76.5684 9.10798 76.5635 9.10551C76.7713 9.22179 77.0187 9.27375 77.2835 9.23664C78.0133 9.1352 78.6071 8.41027 78.6071 7.62349C78.6071 7.10639 78.3523 6.69073 77.9688 6.49527H77.9713ZM77.8723 6.45073C77.8723 6.45073 77.85 6.44331 77.8401 6.43836C77.85 6.44331 77.8624 6.44578 77.8723 6.45073Z" fill="#FBE95A" stroke="#192147" stroke-width="0.2" stroke-miterlimit="10"/>
<path d="M78.7285 14.4422C81.7238 14.4422 84.1519 12.0141 84.1519 9.01885C84.1519 6.02361 81.7238 3.59549 78.7285 3.59549C75.7333 3.59549 73.3052 6.02361 73.3052 9.01885C73.3052 12.0141 75.7333 14.4422 78.7285 14.4422Z" fill="#EDB312"/>
<path d="M77.4914 10.9486C79.2404 10.9486 80.6583 9.53071 80.6583 7.78167C80.6583 6.03262 79.2404 4.61474 77.4914 4.61474C75.7423 4.61474 74.3245 6.03262 74.3245 7.78167C74.3245 9.53071 75.7423 10.9486 77.4914 10.9486Z" fill="#FBE95A"/>
<path d="M78.7285 14.4422C81.7238 14.4422 84.1519 12.0141 84.1519 9.01885C84.1519 6.02361 81.7238 3.59549 78.7285 3.59549C75.7333 3.59549 73.3052 6.02361 73.3052 9.01885C73.3052 12.0141 75.7333 14.4422 78.7285 14.4422Z" stroke="#192147" stroke-width="0.2" stroke-miterlimit="10"/>
<path d="M87.8409 12.099C87.8409 12.099 87.8582 12.1065 87.8656 12.1114L82.227 9.04345C80.7277 8.26657 79.3718 10.8545 80.8093 11.6512L86.4479 14.7192C86.443 14.7167 86.438 14.7118 86.4331 14.7093C86.6409 14.8256 86.8883 14.8775 87.1531 14.8404C87.8829 14.739 88.4768 14.014 88.4768 13.2273C88.4768 12.7102 88.2219 12.2945 87.8384 12.099H87.8409ZM87.7419 12.0545C87.7419 12.0545 87.7196 12.0471 87.7098 12.0421C87.7196 12.0471 87.732 12.0496 87.7419 12.0545Z" fill="#FBE95A" stroke="#192147" stroke-width="0.2" stroke-miterlimit="10"/>
<path d="M87.2397 16.4389C88.9067 16.4389 90.2581 15.0875 90.2581 13.4204C90.2581 11.7533 88.9067 10.4019 87.2397 10.4019C85.5726 10.4019 84.2212 11.7533 84.2212 13.4204C84.2212 15.0875 85.5726 16.4389 87.2397 16.4389Z" fill="#EDB312"/>
<path d="M86.5517 14.4967C87.5259 14.4967 88.3158 13.7069 88.3158 12.7326C88.3158 11.7584 87.5259 10.9686 86.5517 10.9686C85.5774 10.9686 84.7876 11.7584 84.7876 12.7326C84.7876 13.7069 85.5774 14.4967 86.5517 14.4967Z" fill="#FBE95A"/>
<path d="M87.2397 16.4389C88.9067 16.4389 90.2581 15.0875 90.2581 13.4204C90.2581 11.7533 88.9067 10.4019 87.2397 10.4019C85.5726 10.4019 84.2212 11.7533 84.2212 13.4204C84.2212 15.0875 85.5726 16.4389 87.2397 16.4389Z" stroke="#192147" stroke-width="0.2" stroke-miterlimit="10"/>
</svg>
