<svg width="160" height="131" viewBox="0 0 160 131" fill="none" xmlns="http://www.w3.org/2000/svg">
<path d="M53.8355 81.2284C36.0297 92.5049 37.7036 109.35 57.5554 118.661C77.4072 127.972 107.869 126.363 125.253 115.082C142.638 103.801 140.961 86.9553 121.534 77.6491C102.106 68.3428 71.6413 69.9519 53.8355 81.2284Z" fill="#C5C7D1"/>
<path d="M99.4499 52.57C117.234 62.8365 117.327 79.4831 99.6575 89.7518C81.9901 100.02 53.2495 100.02 35.4674 89.7518C17.6832 79.4831 17.5881 62.8365 35.2577 52.57C52.9272 42.3013 81.6657 42.3013 99.4499 52.57Z" fill="white" stroke="#192147" stroke-width="0.3" stroke-linecap="round" stroke-linejoin="round"/>
<path d="M67.6059 93.822C56.1087 93.822 45.3405 91.2592 37.2821 86.6071C29.8206 82.2989 25.705 76.7883 25.6963 71.0895C25.6877 65.4404 29.732 59.9795 37.0788 55.7081C45.0788 51.0582 55.8146 48.4975 67.3074 48.4975C78.8002 48.4975 89.5728 51.0603 97.6311 55.7124C105.093 60.0206 109.206 65.5312 109.215 71.2279C109.223 76.8769 105.179 82.34 97.8301 86.6114C89.8301 91.2613 79.0943 93.8198 67.6015 93.8198L67.6059 93.822Z" fill="#8C8679"/>
<path d="M97.6354 59.3459C89.577 54.6938 78.8087 52.131 67.3116 52.131C55.8145 52.131 45.083 54.6917 37.083 59.3416C30.5321 63.148 26.611 67.9038 25.8433 72.8933C26.6197 77.9433 30.6121 82.7554 37.2863 86.6094C45.3447 91.2614 56.1129 93.8242 67.6101 93.8242C79.1072 93.8242 89.8387 91.2636 97.8387 86.6158C104.39 82.8073 108.313 78.0536 109.081 73.0641C108.304 68.0163 104.312 63.202 97.6397 59.3502L97.6354 59.3459Z" fill="#B4B2FE" stroke="#192147" stroke-width="0.3" stroke-miterlimit="10"/>
<path opacity="0.75" d="M76.3529 86.1841L95.0026 70.4415L70.6512 64.1148L50.9521 78.8102L76.3529 86.1841Z" fill="#7F7DCE"/>
<mask id="mask0_3133_21011" style="mask-type:luminance" maskUnits="userSpaceOnUse" x="25" y="52" width="85" height="42">
<path d="M37.1584 59.4712L37.1584 59.4712C45.1305 54.8375 55.8346 52.281 67.3116 52.281C78.7804 52.281 89.5143 54.836 97.5432 59.4659L97.5476 59.4702L97.5647 59.4801C104.207 63.3148 108.154 68.0881 108.929 73.0641C108.162 77.9821 104.285 82.6948 97.7633 86.4861C89.7911 91.1177 79.087 93.6742 67.6101 93.6742C56.1331 93.6742 45.3921 91.1156 37.3613 86.4795C30.7167 82.6425 26.7702 77.8714 25.995 72.8933C26.7615 67.9753 30.6372 63.2604 37.1584 59.4712Z" fill="white" stroke="white" stroke-width="0.3"/>
</mask>
<g mask="url(#mask0_3133_21011)">
<path d="M12.8389 73.0508L67.5237 104.622" stroke="#F1F0FF" stroke-width="0.3" stroke-miterlimit="10"/>
<path d="M20.6506 68.5416L75.3355 100.113" stroke="#F1F0FF" stroke-width="0.3" stroke-miterlimit="10"/>
<path d="M28.4646 64.03L83.1473 95.6016" stroke="#F1F0FF" stroke-width="0.3" stroke-miterlimit="10"/>
<path d="M36.2764 59.5203L90.959 91.0919" stroke="#F1F0FF" stroke-width="0.3" stroke-miterlimit="10"/>
<path d="M44.0884 55.0092L98.7732 86.5808" stroke="#F1F0FF" stroke-width="0.3" stroke-miterlimit="10"/>
<path d="M51.8999 50.4999L106.585 82.0716" stroke="#F1F0FF" stroke-width="0.3" stroke-miterlimit="10"/>
<path d="M59.7119 45.9886L114.397 77.5625" stroke="#F1F0FF" stroke-width="0.3" stroke-miterlimit="10"/>
<path d="M67.5237 41.4791L122.209 73.0508" stroke="#F1F0FF" stroke-width="0.3" stroke-miterlimit="10"/>
<path d="M12.8389 73.0508L67.5237 41.4791" stroke="#F1F0FF" stroke-width="0.3" stroke-miterlimit="10"/>
<path d="M20.6506 77.5625L75.3355 45.9886" stroke="#F1F0FF" stroke-width="0.3" stroke-miterlimit="10"/>
<path d="M28.4646 82.0716L83.1473 50.4999" stroke="#F1F0FF" stroke-width="0.3" stroke-miterlimit="10"/>
<path d="M36.2766 86.583L90.9614 55.0092" stroke="#F1F0FF" stroke-width="0.3" stroke-miterlimit="10"/>
<path d="M44.0881 91.0919L98.773 59.5203" stroke="#F1F0FF" stroke-width="0.3" stroke-miterlimit="10"/>
<path d="M51.8999 95.6016L106.585 64.03" stroke="#F1F0FF" stroke-width="0.3" stroke-miterlimit="10"/>
<path d="M59.7119 100.113L114.397 68.5416" stroke="#F1F0FF" stroke-width="0.3" stroke-miterlimit="10"/>
<path d="M67.5237 104.622L122.209 73.0508" stroke="#F1F0FF" stroke-width="0.3" stroke-miterlimit="10"/>
</g>
<path d="M67.6059 93.822C56.1087 93.822 45.3405 91.2592 37.2821 86.6071C29.8206 82.2989 25.705 76.7883 25.6963 71.0895C25.6877 65.4404 29.732 59.9795 37.0788 55.7081C45.0788 51.0582 55.8146 48.4975 67.3074 48.4975C78.8002 48.4975 89.5728 51.0603 97.6311 55.7124C105.093 60.0206 109.206 65.5312 109.215 71.2279C109.223 76.8769 105.179 82.34 97.8301 86.6114C89.8301 91.2613 79.0943 93.8198 67.6015 93.8198L67.6059 93.822Z" stroke="#192147" stroke-width="0.3" stroke-linecap="round" stroke-linejoin="round"/>
<path d="M99.718 89.7192C99.6986 89.7301 99.6791 89.7409 99.6597 89.7538C97.9316 90.7573 96.0976 91.6635 94.1793 92.4724C92.5486 93.1602 90.8552 93.7744 89.112 94.3194C87.4618 94.8363 85.7684 95.2883 84.0425 95.6754C82.3037 96.0669 80.5324 96.3935 78.7395 96.6551C76.8082 96.9363 74.8509 97.1439 72.8806 97.278C70.5665 97.4337 68.2329 97.4878 65.9058 97.4359C62.2573 97.358 58.6195 97.025 55.0791 96.4389C50.8488 95.7381 46.7591 94.6762 42.9527 93.2531C40.3033 92.2626 37.7924 91.0947 35.4696 89.7538C35.13 89.5592 34.7991 89.3602 34.4726 89.1612C32.8462 88.1642 31.382 87.111 30.0757 86.0123C28.9468 85.0629 27.9368 84.081 27.0457 83.0731C26.1958 82.1107 25.4561 81.1245 24.8224 80.121C24.1779 79.098 23.6481 78.0577 23.2285 77.0067C22.7721 75.8604 22.4499 74.699 22.2639 73.5311C22.1298 72.7006 22.0649 71.868 22.0671 71.0353L22.0001 94.7173C21.9979 95.55 22.0628 96.3826 22.1969 97.2131C22.385 98.381 22.7073 99.5424 23.1614 100.689C23.5789 101.742 24.1109 102.782 24.7532 103.803C25.3847 104.807 26.1266 105.793 26.9765 106.755C27.8676 107.763 28.8776 108.745 30.0065 109.694C31.3128 110.793 32.7791 111.846 34.4034 112.843C34.7299 113.042 35.0608 113.241 35.4004 113.436C37.7232 114.777 40.2341 115.945 42.8835 116.935C46.6899 118.358 50.7796 119.42 55.0099 120.121C58.5503 120.707 62.1859 121.04 65.8366 121.118C68.1637 121.168 70.4973 121.116 72.8114 120.96C74.7817 120.828 76.739 120.62 78.6703 120.337C80.4654 120.075 82.2366 119.749 83.9733 119.357C85.6992 118.968 87.3926 118.516 89.0428 118.001C90.7859 117.456 92.4794 116.84 94.1101 116.154C96.0284 115.348 97.8624 114.441 99.5904 113.436C99.6099 113.425 99.6294 113.414 99.6488 113.401C108.388 108.304 112.762 101.645 112.781 94.9725L112.848 71.2905C112.829 77.9604 108.456 84.6217 99.7159 89.7192H99.718Z" fill="#F1EEEA"/>
<path d="M112.783 72.6595C112.21 78.8665 107.859 84.9698 99.7181 89.7192C90.2626 94.9508 79.3365 97.4358 68.3887 97.505V121.126C79.2564 121.053 90.1718 118.743 99.5927 113.434C117.28 104.441 112.232 87.5824 112.783 72.6595Z" fill="#E2DED5"/>
<path d="M112.783 72.6598C112.824 72.2034 112.848 71.7471 112.85 71.2908C112.822 71.7449 112.8 72.2013 112.783 72.6598Z" fill="#E2DED5"/>
<path d="M106.016 85.117V108.736C110.514 104.536 112.768 99.7566 112.783 94.9726L112.85 71.2906C112.837 76.0984 110.56 80.9018 106.016 85.117Z" fill="#8C8679"/>
<path d="M99.718 89.7192C99.6986 89.7301 99.6791 89.7409 99.6597 89.7538C97.9316 90.7573 96.0976 91.6635 94.1793 92.4724C92.5486 93.1602 90.8552 93.7744 89.112 94.3194C87.4618 94.8363 85.7684 95.2883 84.0425 95.6754C82.3037 96.0669 80.5324 96.3935 78.7395 96.6551C76.8082 96.9363 74.8509 97.1439 72.8806 97.278C70.5665 97.4337 68.2329 97.4878 65.9058 97.4359C62.2573 97.358 58.6195 97.025 55.0791 96.4389C50.8488 95.7381 46.7591 94.6762 42.9527 93.2531C40.3033 92.2626 37.7924 91.0947 35.4696 89.7538C35.13 89.5592 34.7991 89.3602 34.4726 89.1612C32.8462 88.1642 31.382 87.111 30.0757 86.0123C28.9468 85.0629 27.9368 84.081 27.0457 83.0731C26.1958 82.1107 25.4561 81.1245 24.8224 80.121C24.1779 79.098 23.6481 78.0577 23.2285 77.0067C22.7721 75.8604 22.4499 74.699 22.2639 73.5311C22.1298 72.7006 22.0649 71.868 22.0671 71.0353L22.0001 94.7173C21.9979 95.55 22.0628 96.3826 22.1969 97.2131C22.385 98.381 22.7073 99.5424 23.1614 100.689C23.5789 101.742 24.1109 102.782 24.7532 103.803C25.3847 104.807 26.1266 105.793 26.9765 106.755C27.8676 107.763 28.8776 108.745 30.0065 109.694C31.3128 110.793 32.7791 111.846 34.4034 112.843C34.7299 113.042 35.0608 113.241 35.4004 113.436C37.7232 114.777 40.2341 115.945 42.8835 116.935C46.6899 118.358 50.7796 119.42 55.0099 120.121C58.5503 120.707 62.1859 121.04 65.8366 121.118C68.1637 121.168 70.4973 121.116 72.8114 120.96C74.7817 120.828 76.739 120.62 78.6703 120.337C80.4654 120.075 82.2366 119.749 83.9733 119.357C85.6992 118.968 87.3926 118.516 89.0428 118.001C90.7859 117.456 92.4794 116.84 94.1101 116.154C96.0284 115.348 97.8624 114.441 99.5904 113.436C99.6099 113.425 99.6294 113.414 99.6488 113.401C108.388 108.304 112.762 101.645 112.781 94.9725L112.848 71.2905C112.829 77.9604 108.456 84.6217 99.7159 89.7192H99.718Z" stroke="#192147" stroke-width="0.3" stroke-linecap="round" stroke-linejoin="round"/>
<path d="M89.0429 117.999L89.0732 99.5014L97.6874 114.641V114.476C94.9969 115.895 92.1032 117.052 89.0408 117.997L89.0429 117.999Z" fill="#8C8679"/>
<path d="M22 90.3875C22.2098 101.768 33.1532 108.931 42.8834 112.607C55.7798 117.344 70.5232 117.984 83.9733 115.03C96.1192 112.954 113.475 102.713 112.783 90.6449" stroke="#192147" stroke-width="0.3" stroke-linecap="round" stroke-linejoin="round"/>
<path d="M99.4499 33.1051C117.234 43.3717 117.327 60.0182 99.6575 70.2869C81.9901 80.5556 53.2495 80.5556 35.4674 70.2869C17.6832 60.0182 17.5881 43.3717 35.2577 33.1051C52.9272 22.8365 81.6657 22.8365 99.4499 33.1051Z" stroke="#192147" stroke-width="0.162205" stroke-linecap="round" stroke-linejoin="round"/>
<path d="M45.7341 78.2068C47.6452 78.2068 49.1945 76.6576 49.1945 74.7465C49.1945 72.8353 47.6452 71.2861 45.7341 71.2861C43.8229 71.2861 42.2737 72.8353 42.2737 74.7465C42.2737 76.6576 43.8229 78.2068 45.7341 78.2068Z" fill="#ED6E85"/>
<path d="M96.1258 34.087C97.5591 34.087 98.7211 32.925 98.7211 31.4917C98.7211 30.0584 97.5591 28.8964 96.1258 28.8964C94.6925 28.8964 93.5305 30.0584 93.5305 31.4917C93.5305 32.925 94.6925 34.087 96.1258 34.087Z" fill="#3AEFC3"/>
<path opacity="0.75" d="M77.8983 72.7394L95.503 51.7609L68.5314 47.005L50.9268 67.9836L77.8983 72.7394Z" fill="#FF9901"/>
<path opacity="0.75" d="M95.5029 51.761L86.1014 25.9357L59.1321 21.1799L68.4989 46.9143L95.5029 51.761Z" fill="#FFE600"/>
<path opacity="0.75" d="M50.9266 67.9836L68.4989 46.9142L59.132 21.1798L41.5273 42.1584L50.9266 67.9836Z" fill="#FDFFAE"/>
<path opacity="0.75" d="M68.4989 46.9142L86.1014 25.9357L59.132 21.1798L41.5273 42.1584L68.4989 46.9142Z" fill="#FFF064"/>
<path opacity="0.75" d="M41.5273 42.1583L50.9266 67.9836L77.8981 72.7395L68.4989 46.9142L41.5273 42.1583Z" fill="#FFD600"/>
<path opacity="0.75" d="M77.898 72.7394L68.4988 46.9141L86.1013 25.9355L95.5027 51.7608L77.898 72.7394Z" fill="#EAB703"/>
<path d="M77.8981 72.7394L68.5312 47.0049L86.1013 25.9355" stroke="white" stroke-width="0.216274" stroke-miterlimit="10"/>
<path d="M41.5273 42.1583L68.5313 47.005" stroke="white" stroke-width="0.216274" stroke-miterlimit="10"/>
<path d="M82.1519 67.4692L77.5193 54.7415" stroke="white" stroke-width="0.216274" stroke-miterlimit="10"/>
<path d="M84.3582 55.8161L86.7004 62.2502" stroke="white" stroke-width="0.216274" stroke-miterlimit="10"/>
<path d="M83.6876 56.4522C83.2226 56.9929 82.6408 56.8869 82.3986 56.2164L81.7476 54.4257C81.5032 53.7552 81.6784 52.7582 82.1369 52.2132L83.4432 50.656C83.9017 50.1089 84.477 50.2105 84.7214 50.881L85.394 52.7301C85.6384 53.4006 85.4567 54.3933 84.9917 54.9339L83.6876 56.4522Z" stroke="white" stroke-width="0.216274" stroke-miterlimit="10"/>
<path d="M76.8533 55.5849C76.3884 56.1256 75.8066 56.0196 75.5644 55.3492L74.9134 53.5585C74.669 52.888 74.8442 51.891 75.3027 51.346L76.609 49.7888C77.0675 49.2416 77.6427 49.3433 77.8871 50.0137L78.5597 51.8629C78.8041 52.5333 78.6225 53.526 78.1575 54.0667L76.8533 55.5849Z" stroke="white" stroke-width="0.216274" stroke-miterlimit="10"/>
<path d="M41.5273 42.1583L50.9266 67.9836L77.8981 72.7394L95.5028 51.7609L86.1014 25.9356L59.1645 21.2684L41.5273 42.1583Z" stroke="#192147" stroke-width="0.216274" stroke-miterlimit="10"/>
<path d="M99.4499 15.8036C117.234 26.0701 117.327 42.7167 99.6575 52.9854C81.9901 63.254 53.2495 63.254 35.4674 52.9854C17.6832 42.7167 17.5881 26.0701 35.2577 15.8036C52.9272 5.53488 81.6657 5.53488 99.4499 15.8036Z" stroke="#192147" stroke-width="0.162205" stroke-linecap="round" stroke-linejoin="round"/>
<path d="M104.56 53.338C106.471 53.338 108.021 51.7887 108.021 49.8776C108.021 47.9665 106.471 46.4172 104.56 46.4172C102.649 46.4172 101.1 47.9665 101.1 49.8776C101.1 51.7887 102.649 53.338 104.56 53.338Z" fill="#5CABDF"/>
<path d="M31.2437 21.3271C32.6771 21.3271 33.839 20.1652 33.839 18.7318C33.839 17.2985 32.6771 16.1365 31.2437 16.1365C29.8104 16.1365 28.6484 17.2985 28.6484 18.7318C28.6484 20.1652 29.8104 21.3271 31.2437 21.3271Z" fill="#63C740"/>
<path d="M45.8203 123.724V127.684L97.6893 130.39V123.646L45.8203 123.724Z" fill="#C5C7D1"/>
<path d="M45.8203 99.5014H89.0751V123.724C89.0751 124.68 88.3008 125.454 87.3449 125.454H47.5505C46.5946 125.454 45.8203 124.68 45.8203 123.724V99.5014Z" fill="#F1EEEA" stroke="#192147" stroke-width="0.162205" stroke-linecap="round" stroke-linejoin="round"/>
<path d="M45.8203 99.5014H89.0751V115.073C89.0751 116.029 88.3008 116.803 87.3449 116.803H47.5505C46.5946 116.803 45.8203 116.029 45.8203 115.073V99.5014Z" fill="white" stroke="#192147" stroke-width="0.162205" stroke-linecap="round" stroke-linejoin="round"/>
<path d="M89.0751 99.5014H45.8203V116.803H89.0751V99.5014Z" fill="white" stroke="#192147" stroke-width="0.162205" stroke-linecap="round" stroke-linejoin="round"/>
<path d="M87.7776 114.641V101.664C87.7776 101.187 87.3903 100.799 86.9125 100.799H47.9832C47.5054 100.799 47.1181 101.187 47.1181 101.664V114.641C47.1181 115.119 47.5054 115.506 47.9832 115.506H86.9125C87.3903 115.506 87.7776 115.119 87.7776 114.641Z" fill="#F1EEEA" stroke="#192147" stroke-width="0.162205" stroke-linecap="round" stroke-linejoin="round"/>
<path d="M86.4797 114.208V102.097H48.4155V114.208H86.4797Z" fill="#8C8679"/>
<path d="M86.4797 114.208V103.178H48.4155V114.208H86.4797Z" fill="#3E4771"/>
<path d="M86.4797 114.208V102.097H48.4155V114.208H86.4797Z" stroke="#192147" stroke-width="0.162205" stroke-linecap="round" stroke-linejoin="round"/>
<path d="M62.5007 109.807C62.5007 108.709 63.1959 108.07 64.0849 108.07C64.5062 108.07 64.8499 108.272 65.0747 108.492L64.6612 108.957C64.5036 108.809 64.3253 108.719 64.0849 108.719C63.6146 108.719 63.2709 109.12 63.2709 109.784C63.2709 110.448 63.6146 110.861 64.1134 110.861C64.3537 110.861 64.5501 110.743 64.7104 110.569L65.1238 111.024C64.8525 111.345 64.4829 111.51 64.0358 111.51C63.2114 111.51 62.5007 110.929 62.5007 109.81V109.807Z" fill="#FF5C83"/>
<path d="M65.5039 108.132H66.6824C67.3853 108.132 67.9616 108.375 67.9616 109.166C67.9616 109.957 67.3827 110.256 66.6824 110.256H66.256V111.448H65.5039V108.132ZM66.6203 109.659C67.0157 109.659 67.2251 109.489 67.2251 109.166C67.2251 108.843 67.0132 108.729 66.6203 108.729H66.2534V109.659H66.6203ZM67.0623 109.577L68.1193 111.448H67.2793L66.5428 110.057L67.0623 109.577Z" fill="#FF5C83"/>
<path d="M68.4526 110.817H69.2279V108.76H68.4526V108.132H70.7501V108.76H69.9748V110.817H70.7501V111.445H68.4526V110.817Z" fill="#FF5C83"/>
<path d="M72.1506 108.76H71.1582V108.132H73.895V108.76H72.9V111.445H72.1506V108.76Z" fill="#FF5C83"/>
<path d="M74.3037 110.817H75.079V108.76H74.3037V108.132H76.6012V108.76H75.8259V110.817H76.6012V111.445H74.3037V110.817Z" fill="#FF5C83"/>
<path d="M77.1257 109.807C77.1257 108.709 77.8209 108.07 78.7099 108.07C79.1312 108.07 79.4749 108.272 79.6997 108.491L79.2862 108.957C79.1286 108.809 78.9503 108.719 78.7099 108.719C78.2396 108.719 77.8959 109.119 77.8959 109.784C77.8959 110.448 78.2396 110.861 78.7384 110.861C78.9787 110.861 79.1751 110.742 79.3353 110.569L79.7488 111.024C79.4775 111.345 79.1079 111.51 78.6608 111.51C77.8364 111.51 77.1257 110.928 77.1257 109.809V109.807Z" fill="#FF5C83"/>
<path d="M80.8518 108.132H81.7512L82.7849 111.448H81.989L81.56 109.771C81.4747 109.44 81.3739 109.052 81.2964 108.701H81.2757C81.1956 109.05 81.1025 109.44 81.0173 109.771L80.5857 111.448H79.8181L80.8518 108.132ZM80.503 110.073H82.0898V110.657H80.503V110.073Z" fill="#FF5C83"/>
<path d="M83.2424 108.132H83.9919V110.817H85.4675V111.445H83.2424V108.129V108.132Z" fill="#FF5C83"/>
<path d="M49.7861 110.784L50.4891 109.988C50.6751 110.158 51.0034 110.332 51.3161 110.332C51.8846 110.332 52.3782 109.941 52.3782 108.755C52.3782 107.569 51.9182 107.274 51.5823 107.274C51.2463 107.274 50.9439 107.437 50.9439 107.962C50.9439 108.398 51.2101 108.554 51.5512 108.554C51.8174 108.554 52.0965 108.429 52.3627 108.086L52.4248 108.928C52.081 109.287 51.59 109.489 51.254 109.489C50.4115 109.489 49.7241 109.021 49.7241 107.959C49.7241 106.897 50.5744 106.274 51.5487 106.274C52.523 106.274 53.5929 106.962 53.5929 108.755C53.5929 110.549 52.5411 111.407 51.4401 111.407C50.6984 111.407 50.1299 111.109 49.7861 110.781V110.784Z" fill="#FF5C83"/>
<path d="M54.575 110.394C54.575 109.841 54.9807 109.381 55.588 109.381C56.1953 109.381 56.6011 109.841 56.6011 110.394C56.6011 110.947 56.1953 111.407 55.588 111.407C54.9807 111.407 54.575 110.955 54.575 110.394Z" fill="#FF5C83"/>
<path d="M57.5548 110.551C58.8729 109.473 59.8394 108.649 59.8394 107.977C59.8394 107.533 59.5577 107.321 59.1209 107.321C58.754 107.321 58.4645 107.556 58.2009 107.788L57.4902 107.07C58.0278 106.525 58.5266 106.274 59.307 106.274C60.3666 106.274 61.1083 106.912 61.1083 107.897C61.1083 108.693 60.2813 109.566 59.4698 110.254C59.7438 110.223 60.1159 110.192 60.3588 110.192H61.3564V111.316H57.5497V110.551H57.5548Z" fill="#FF5C83"/>
</svg>
