<svg width="160" height="121" viewBox="0 0 160 121" fill="none" xmlns="http://www.w3.org/2000/svg">
<path d="M131.036 80.538L77.375 111.519C75.4255 112.645 73.0256 112.645 71.0762 111.519L27.8638 86.5716C26.1903 85.6066 26.1921 83.1907 27.8638 82.2275L81.0015 51.5986" fill="#C5C7D1"/>
<path d="M121.778 100.48C129.609 100.48 135.957 96.8146 135.957 92.2936C135.957 87.7726 129.609 84.1076 121.778 84.1076C113.948 84.1076 107.6 87.7726 107.6 92.2936C107.6 96.8146 113.948 100.48 121.778 100.48Z" fill="#C5C7D1"/>
<path d="M37.597 84.448L39.5714 85.5963L71.3344 104.055C72.2156 104.566 73.1984 104.824 74.1829 104.826L74.1028 88.322C74.0618 88.3273 74.0209 88.3345 73.9799 88.338C73.6933 88.3629 73.4067 88.3665 73.1183 88.3487C72.2566 88.2935 71.4002 88.0425 70.6204 87.5885L36.1798 67.574C35.9751 67.4547 35.7953 67.314 35.6351 67.1609L34.7627 65.2702V79.5236C34.7627 81.5532 35.8416 83.4296 37.597 84.4498V84.448Z" fill="#E2DED5"/>
<path d="M74.1829 104.891C73.1717 104.89 72.1747 104.619 71.3006 104.111L37.5632 84.5047C35.7935 83.4774 34.6951 81.5671 34.6951 79.5215V65.2681C34.6951 65.2361 34.7164 65.2094 34.7467 65.2022C34.777 65.1951 34.809 65.2111 34.8215 65.2396L35.6885 67.1197C35.8523 67.2746 36.0285 67.4081 36.2119 67.5149L70.6525 87.5294C71.4038 87.9656 72.2566 88.2256 73.1218 88.2808C73.4049 88.2986 73.6916 88.295 73.9729 88.2701C73.9942 88.2683 74.0174 88.2647 74.0387 88.2629L74.0939 88.2558C74.1135 88.2558 74.1313 88.2594 74.1455 88.2718C74.1598 88.2843 74.1669 88.3021 74.1669 88.3217L74.247 104.825C74.247 104.843 74.2399 104.861 74.2274 104.873C74.215 104.886 74.1972 104.893 74.1794 104.893L74.1829 104.891ZM37.6291 84.3889L71.3664 103.996C72.2014 104.48 73.1503 104.744 74.1153 104.758L74.0369 88.3983C74.0209 88.4 74.0031 88.4018 73.9871 88.4036C73.6987 88.4285 73.4049 88.4321 73.1147 88.4143C72.2299 88.3573 71.3558 88.092 70.5867 87.6452L36.146 67.6306C35.9484 67.5167 35.7615 67.3743 35.5888 67.2069C35.5835 67.2016 35.5781 67.1944 35.5746 67.1873L34.8304 65.5726V79.5215C34.8304 81.519 35.9039 83.3848 37.6308 84.3889H37.6291Z" fill="#192147"/>
<path d="M98.9599 68.2715L57.5528 44.2085C57.3161 44.5841 56.992 44.9634 56.6075 45.339L35.774 62.9341C35.5853 63.0925 35.425 63.2688 35.2897 63.4575C35.0868 63.7406 34.9443 64.0521 34.8589 64.3744C34.8019 64.5898 34.7699 64.8088 34.7645 65.0295C34.7556 65.3909 34.8162 65.7523 34.9408 66.0942C34.9924 66.2366 35.0565 66.3737 35.1313 66.5072C35.2043 66.639 35.2862 66.7671 35.3823 66.8864C35.5959 67.1535 35.8612 67.3885 36.1817 67.5736L70.6223 87.5882C71.4021 88.0422 72.2584 88.2932 73.1201 88.3484C73.4067 88.3662 73.6951 88.3626 73.9818 88.3377C74.2684 88.3128 74.5515 88.2665 74.831 88.197C75.6695 87.9923 76.4689 87.5971 77.1597 87.0149L98.0145 69.402C98.3955 69.0798 98.7142 68.697 98.9599 68.2715Z" fill="#F1EEEA"/>
<path d="M118.743 25.2978C118.743 24.769 118.599 24.2598 118.344 23.8165L105.725 31.1017L105.309 31.342C105.531 31.8476 105.608 32.4173 105.506 32.987L102.108 52.0527L99.4639 66.8846C99.3553 67.4971 99.1132 68.0739 98.7625 68.5777C98.7625 68.5777 98.7625 68.5777 98.7625 68.5795C98.7019 68.6668 98.6343 68.7522 98.5666 68.8359C98.5559 68.8484 98.5488 68.8608 98.5381 68.8733C98.4794 68.9445 98.4153 69.0121 98.3512 69.078C98.3298 69.1012 98.3103 69.1243 98.2889 69.1475C98.2408 69.1973 98.1874 69.2418 98.1358 69.2881C98.0948 69.3255 98.0575 69.3647 98.0147 69.4003L77.1599 87.0131C76.4709 87.5953 75.6715 87.9923 74.8312 88.1953C74.5908 88.254 74.3469 88.2932 74.103 88.3199V88.4071L74.176 104.824C75.1677 104.827 76.1593 104.574 77.0459 104.062L94.6481 93.8995L117.468 80.7232C117.744 80.563 117.988 80.3618 118.191 80.1286C118.232 80.0823 118.271 80.0342 118.309 79.9844C118.384 79.8864 118.453 79.7832 118.514 79.6764C118.544 79.623 118.574 79.5678 118.601 79.5126C118.656 79.4022 118.702 79.2882 118.743 79.1707C118.843 78.877 118.895 78.5654 118.895 78.2468L118.745 25.296L118.743 25.2978Z" fill="#8C8679"/>
<path d="M74.1972 104.891C74.1527 104.891 74.1082 104.868 74.1082 104.826L74.0352 88.3218C74.0352 88.288 74.0601 88.2595 74.0939 88.2542C74.3556 88.2257 74.5906 88.1847 74.8132 88.1313C75.6553 87.9266 76.4511 87.5225 77.1134 86.9616L97.9682 69.3488C97.9931 69.3274 98.0181 69.3043 98.043 69.2811L98.132 69.1992C98.1676 69.1672 98.2032 69.1351 98.2388 69.1013C98.2495 69.0906 98.2602 69.0782 98.2691 69.0675C98.2798 69.0568 98.2887 69.0443 98.2994 69.0337C98.3617 68.9678 98.4258 68.9019 98.4827 68.8325L98.5112 68.7951C98.5896 68.699 98.6519 68.6171 98.7035 68.5423C99.0542 68.0384 99.2874 67.4776 99.3943 66.8741L105.437 32.9747C105.533 32.4317 105.467 31.8762 105.243 31.3689C105.228 31.3368 105.243 31.3012 105.271 31.2834L118.307 23.7561C118.339 23.7383 118.38 23.749 118.398 23.7811C118.663 24.2404 118.804 24.7638 118.805 25.2961L118.955 78.2469C118.955 78.5691 118.903 78.8878 118.8 79.1923C118.759 79.3115 118.711 79.429 118.654 79.543C118.625 79.6 118.597 79.6551 118.565 79.7103C118.503 79.8189 118.431 79.9258 118.355 80.0255C118.316 80.0753 118.277 80.1252 118.236 80.1732C118.024 80.4153 117.776 80.6201 117.497 80.7821L77.0724 104.121C76.1983 104.626 75.2013 104.891 74.19 104.891H74.1972ZM74.1705 88.3806V88.4073L74.2417 104.756C75.2137 104.749 76.1698 104.489 77.0119 104.003L117.436 80.6646C117.703 80.5115 117.94 80.3157 118.141 80.0842C118.18 80.0379 118.22 79.9916 118.255 79.9436C118.328 79.8474 118.396 79.7477 118.455 79.6427C118.485 79.5911 118.513 79.5376 118.54 79.4842C118.593 79.3756 118.64 79.2635 118.679 79.1495C118.777 78.8593 118.827 78.5549 118.827 78.2469L118.677 25.2961C118.677 24.8101 118.552 24.3312 118.319 23.9057L105.392 31.3689C105.608 31.8869 105.67 32.4477 105.572 32.9979L99.5296 66.8973C99.4192 67.5186 99.1788 68.0972 98.8174 68.6171C98.7623 68.6972 98.6982 68.7791 98.618 68.8788L98.6074 68.893C98.6074 68.893 98.5949 68.909 98.5896 68.9162C98.529 68.9874 98.4649 69.0568 98.4008 69.1245C98.3919 69.1351 98.383 69.144 98.3741 69.1547C98.3617 69.169 98.351 69.1814 98.3367 69.1939C98.3011 69.2295 98.2638 69.2633 98.2246 69.2971L98.1374 69.3773C98.1106 69.4022 98.0857 69.4271 98.0572 69.4503L77.2024 87.0631C76.5241 87.6364 75.7087 88.0512 74.847 88.2595C74.6351 88.3111 74.4144 88.3503 74.1705 88.3788V88.3806Z" fill="#192147"/>
<path d="M57.5527 44.2069L98.9598 68.2699C99.2055 67.8444 99.3764 67.378 99.4636 66.8866L105.506 32.989C105.533 32.8412 105.547 32.6935 105.551 32.5475C105.556 32.3285 105.535 32.1113 105.49 31.8994C105.46 31.7588 105.421 31.6217 105.371 31.4882C105.321 31.3547 105.26 31.2247 105.191 31.1001C104.947 30.6639 104.587 30.2882 104.135 30.0265L66.2105 7.98774C65.3559 7.49103 64.2664 7.99486 64.0919 8.96871L58.0566 42.8236C57.9693 43.315 57.7966 43.7814 57.5527 44.2069Z" fill="#E2DED5"/>
<path d="M98.9597 68.3374C98.9473 68.3374 98.9366 68.3338 98.9259 68.3285L57.5189 44.2655C57.4868 44.2477 57.4761 44.2067 57.4939 44.1747C57.7378 43.751 57.9052 43.2934 57.9906 42.8127L64.026 8.95784C64.1132 8.47181 64.4194 8.07479 64.8663 7.8665C65.3149 7.6582 65.8152 7.68134 66.2425 7.93059L104.167 29.9694C104.619 30.2329 104.993 30.6121 105.248 31.0696C105.319 31.196 105.381 31.3296 105.433 31.4666C105.485 31.6037 105.526 31.7461 105.556 31.8886C105.602 32.1058 105.624 32.3283 105.618 32.5509C105.615 32.7022 105.6 32.8535 105.574 33.0013L99.5312 66.8989C99.4422 67.3956 99.2713 67.8674 99.0185 68.3036C99.0096 68.3196 98.9954 68.3303 98.9776 68.3338C98.9722 68.3338 98.9669 68.3356 98.9597 68.3356V68.3374ZM57.6435 44.1818L98.9348 68.179C99.1609 67.7713 99.3158 67.3333 99.3977 66.8757L105.44 32.9781C105.465 32.8357 105.479 32.6915 105.483 32.5473C105.488 32.3354 105.467 32.1236 105.424 31.9153C105.396 31.78 105.356 31.6447 105.307 31.5129C105.257 31.383 105.198 31.2548 105.13 31.1337C104.886 30.6975 104.53 30.3361 104.1 30.0851L66.1749 8.04631C65.7867 7.82021 65.3292 7.80062 64.9215 7.98756C64.5138 8.17627 64.2343 8.53946 64.1559 8.98099L58.1206 42.8359C58.0369 43.3094 57.8749 43.7634 57.6417 44.1836L57.6435 44.1818Z" fill="#192147"/>
<path d="M61.9894 41.0447L66.791 14.1029C66.921 13.373 67.7381 12.9938 68.3791 13.3676L100.619 32.1039C101.395 32.5543 101.807 33.4427 101.648 34.3257L96.8466 61.2676C96.7167 61.9975 95.8995 62.3767 95.2586 62.0028L63.0185 43.2666C62.2422 42.8162 61.831 41.9278 61.9894 41.0447Z" fill="#8C8679"/>
<path d="M95.7963 62.2168C95.6004 62.2168 95.4046 62.1652 95.2283 62.0619L62.9882 43.3257C62.1906 42.8628 61.7651 41.9424 61.9272 41.0344L66.7287 14.0926C66.7946 13.7222 67.0278 13.4196 67.3696 13.2611C67.7115 13.1027 68.0925 13.1205 68.4165 13.3092L100.657 32.0455C101.454 32.5084 101.88 33.4288 101.719 34.3368L96.9179 61.2786C96.852 61.6489 96.6188 61.9515 96.2787 62.11C96.1239 62.1812 95.9618 62.2168 95.7998 62.2168H95.7963ZM67.845 13.2896C67.7026 13.2896 67.5584 13.3217 67.4231 13.384C67.1222 13.5228 66.9157 13.7899 66.8587 14.1175L62.0571 41.0593C61.9058 41.9121 62.3064 42.7773 63.0541 43.2117L95.2942 61.948C95.5809 62.1153 95.9173 62.1296 96.2182 61.9907C96.5191 61.8518 96.7256 61.5848 96.7826 61.2572L101.584 34.3154C101.735 33.4626 101.335 32.5974 100.587 32.163L68.347 13.4267C68.1904 13.3359 68.0177 13.2896 67.845 13.2896Z" fill="#192147"/>
<path d="M63.3734 41.5738L68.296 13.4L100.563 32.1772C101.341 32.6294 101.75 33.5214 101.59 34.4062L96.776 60.903L63.3716 41.5738H63.3734Z" fill="#192147"/>
<path d="M65.9951 38.586L69.8976 14.2897L100.562 32.1768C101.34 32.629 101.75 33.5209 101.589 34.4058L97.1314 58.232L67.4069 41.406C66.3779 40.8666 65.81 39.7325 65.9933 38.586H65.9951Z" fill="#3E4771"/>
<path d="M69.782 25.992L70.2965 26.3053C70.8377 26.6347 71.1421 27.183 71.0282 27.9308C70.9143 28.6785 70.503 28.8138 69.9867 28.4987L69.4473 28.1694L69.782 25.992ZM70.001 28.0732C70.2912 28.2495 70.5155 28.1889 70.5956 27.6673C70.6757 27.1457 70.503 26.8644 70.2128 26.6881L70.1434 26.6454L69.9315 28.0305L70.001 28.0732Z" fill="#3DB67B"/>
<path d="M71.2387 28.8102L71.6748 29.0754L71.8831 27.7242L71.447 27.4589L71.511 27.0458L72.8036 27.8345L72.7395 28.2476L72.3033 27.9823L72.095 29.3336L72.5312 29.5988L72.4671 30.0119L71.1746 29.2232L71.2387 28.8102Z" fill="#3DB67B"/>
<path d="M72.8692 29.9552L73.163 29.7647C73.284 29.9855 73.4425 30.1831 73.6241 30.2935C73.8057 30.4038 73.8982 30.3718 73.9143 30.265C73.9392 30.1083 73.8342 30.0033 73.6704 29.8092L73.446 29.5404C73.2538 29.3232 73.0935 29.0223 73.1416 28.7054C73.1968 28.344 73.519 28.2265 73.925 28.4722C74.1493 28.6093 74.3611 28.846 74.5 29.1345L74.2401 29.316C74.1261 29.1255 74.0193 28.9956 73.8359 28.8834C73.6971 28.798 73.592 28.8087 73.5724 28.9351C73.5529 29.0615 73.6704 29.1896 73.8377 29.3766L74.0478 29.6294C74.2757 29.8858 74.4021 30.1564 74.3558 30.4644C74.3006 30.8258 73.9926 30.9807 73.5297 30.6994C73.2769 30.5463 73.033 30.2792 72.8674 29.9516L72.8692 29.9552Z" fill="#3DB67B"/>
<path d="M74.9271 29.1271L75.3543 29.387L75.2173 30.2754L75.2279 30.2825L75.9134 29.7288L76.3816 30.0137L75.1087 30.9697L75.0179 31.5644L74.5906 31.3044L74.9253 29.1271H74.9271ZM75.3543 30.6635L75.6606 30.4303L76.1003 32.2249L75.6321 31.94L75.3543 30.6653V30.6635Z" fill="#3DB67B"/>
<path d="M78.4363 31.2655L79.6737 32.0185L79.6096 32.4316L78.796 31.9349L78.7283 32.371L79.4209 32.793L79.3568 33.206L78.6642 32.7841L78.5877 33.2861L79.4298 33.7989L79.3657 34.2119L78.0999 33.441L78.4346 31.2637L78.4363 31.2655Z" fill="#3DB67B"/>
<path d="M80.0797 32.2659L80.5123 32.5294L80.7384 33.8504L80.8256 34.4273L80.8345 34.4326C80.8505 34.1923 80.8577 33.8629 80.8986 33.6047L81.0161 32.8356L81.4185 33.0813L81.0838 35.2587L80.6511 34.9952L80.425 33.6706L80.3378 33.0973L80.3271 33.092C80.3093 33.3448 80.304 33.6599 80.2648 33.9163L80.1455 34.689L79.7432 34.4433L80.0779 32.2659H80.0797Z" fill="#3DB67B"/>
<path d="M81.5945 34.3934C81.7049 33.6706 82.1607 33.4908 82.661 33.7952C82.8977 33.9394 83.0704 34.1887 83.1755 34.4112L82.896 34.575C82.8212 34.4237 82.7304 34.3026 82.5951 34.2207C82.3298 34.0587 82.0966 34.2047 82.0289 34.6409C81.9613 35.0771 82.1144 35.4669 82.3957 35.6379C82.531 35.7198 82.6538 35.7109 82.7607 35.6503L82.9476 36.0901C82.7624 36.2076 82.5381 36.1898 82.2871 36.0367C81.8224 35.7536 81.4824 35.1287 81.5945 34.3934Z" fill="#3DB67B"/>
<path d="M83.5242 34.3647L84.1865 34.7689C84.5817 35.0092 84.8826 35.3689 84.8025 35.8869C84.7224 36.405 84.3681 36.405 83.9729 36.1647L83.7325 36.0187L83.6115 36.802L83.1877 36.5439L83.5224 34.3665L83.5242 34.3647ZM83.9996 35.7516C84.2203 35.8869 84.3574 35.8478 84.3895 35.6341C84.4215 35.4205 84.3147 35.2745 84.0921 35.1392L83.8856 35.0146L83.7913 35.627L83.9978 35.7516H83.9996ZM84.2577 35.8495L84.6636 37.4412L84.1918 37.1528L83.9177 35.9866L84.2577 35.8495Z" fill="#3DB67B"/>
<path d="M85.4708 37.128L85.0916 35.321L85.542 35.5952L85.6506 36.2343C85.6791 36.4355 85.7111 36.6278 85.7432 36.8361L85.7538 36.8432C85.8393 36.7043 85.923 36.5832 86.0049 36.4497L86.2719 36.0402L86.7117 36.3091L85.8891 37.3844L85.7752 38.1215L85.3533 37.8633L85.4672 37.1262L85.4708 37.128Z" fill="#3DB67B"/>
<path d="M86.9765 36.4674L87.6388 36.8698C88.043 37.1172 88.3439 37.4858 88.262 38.0163C88.1801 38.5468 87.8133 38.5504 87.4181 38.3101L87.1777 38.1641L87.0638 38.9029L86.6418 38.6465L86.9765 36.4692V36.4674ZM87.4519 37.9041C87.6833 38.0448 87.8115 37.9914 87.8471 37.7653C87.8827 37.5392 87.7759 37.3843 87.5534 37.2472L87.338 37.1155L87.2365 37.7724L87.4519 37.9041Z" fill="#3DB67B"/>
<path d="M89.0649 38.1925L88.5059 37.8525L88.5699 37.4395L90.1099 38.3777L90.0458 38.7907L89.4868 38.4507L89.2162 40.215L88.7943 39.9586L89.0649 38.1943V38.1925Z" fill="#3DB67B"/>
<path d="M90.1403 40.3255L90.5764 40.5908L90.7847 39.2395L90.3486 38.9743L90.4126 38.5612L91.7052 39.3499L91.6411 39.7629L91.2049 39.4977L90.9966 40.8489L91.4328 41.1142L91.3687 41.5273L90.0762 40.7386L90.1403 40.3255Z" fill="#3DB67B"/>
<path d="M91.8602 40.6226C91.9723 39.8945 92.3373 39.6897 92.7824 39.9603C93.2274 40.231 93.4731 40.8096 93.361 41.5359C93.2488 42.2623 92.8803 42.4884 92.4352 42.2178C91.9901 41.9472 91.7462 41.3668 91.8602 40.6208V40.6226ZM92.9284 41.2724C92.9978 40.8202 92.9123 40.5051 92.7165 40.3858C92.5207 40.2666 92.3622 40.4339 92.2928 40.8861C92.2233 41.3383 92.3052 41.6748 92.5011 41.7923C92.6969 41.9098 92.8554 41.7425 92.9284 41.2724Z" fill="#3DB67B"/>
<path d="M93.8255 40.6404L94.2581 40.9039L94.4842 42.2249L94.5697 42.8018L94.5786 42.8071C94.5946 42.5668 94.6017 42.2374 94.6427 41.9793L94.7602 41.2102L95.1625 41.4558L94.8278 43.6332L94.3952 43.3697L94.1691 42.0451L94.0819 41.4719L94.073 41.4665C94.0552 41.7193 94.0498 42.0344 94.0107 42.2908L93.8914 43.0635L93.489 42.8178L93.8237 40.6404H93.8255Z" fill="#3DB67B"/>
<path d="M69.2283 30.0441L70.4657 30.7972L70.4016 31.2102L69.588 30.7135L69.5203 31.1497L70.2129 31.5716L70.1488 31.9846L69.4562 31.5627L69.3797 32.0648L70.2218 32.5775L70.1577 32.9905L68.8918 32.2197L69.2265 30.0423L69.2283 30.0441Z" fill="#3DB67B"/>
<path d="M70.8717 31.0446L71.3043 31.308L71.5304 32.6291L71.6159 33.2059L71.6248 33.2112C71.6408 32.9709 71.6479 32.6415 71.6889 32.3834L71.8064 31.6143L72.2087 31.8599L71.874 34.0373L71.4414 33.7738L71.2153 32.4492L71.1281 31.876L71.1174 31.8706C71.0996 32.1234 71.0943 32.4386 71.0551 32.6949L70.9358 33.4676L70.5334 33.2219L70.8682 31.0446H70.8717Z" fill="#3DB67B"/>
<path d="M73.0062 32.346L73.5118 32.654L73.7575 35.1856L73.3106 34.9132L73.2394 33.6634C73.2251 33.4177 73.2073 33.1275 73.1984 32.8694L73.1877 32.8623C73.1076 33.0652 73.0151 33.2878 72.9349 33.4765L72.5237 34.4307L72.0911 34.1673L73.0062 32.3424V32.346ZM72.6145 33.5014L73.5064 34.0444L73.4477 34.429L72.5557 33.886L72.6145 33.5014Z" fill="#3DB67B"/>
<path d="M74.3288 33.1525L74.9555 33.5352C75.3436 33.772 75.6196 34.0747 75.5555 34.4913C75.5252 34.6871 75.3935 34.8349 75.1638 34.7672V34.7797C75.4202 34.9987 75.5341 35.2479 75.4896 35.5399C75.422 35.9832 75.0801 35.9921 74.6742 35.7446L73.9941 35.3298L74.3288 33.1525ZM74.8024 34.3969C75.0071 34.5215 75.1086 34.4735 75.1335 34.3079C75.1585 34.1423 75.0766 34.0266 74.8807 33.9073L74.6902 33.7916L74.6155 34.283L74.8024 34.3969ZM74.6991 35.3405C74.9288 35.4811 75.0534 35.4509 75.0837 35.2515C75.114 35.0521 75.0178 34.9168 74.7864 34.7743L74.5621 34.6373L74.4748 35.2034L74.6991 35.3405Z" fill="#3DB67B"/>
<path d="M76.1418 34.2563L76.5638 34.5127L76.2932 36.277L77.1228 36.7826L77.0587 37.1957L75.8071 36.4337L76.1418 34.2563Z" fill="#3DB67B"/>
<path d="M77.8184 35.2783L79.0558 36.0314L78.9917 36.4444L78.1781 35.9477L78.1104 36.3839L78.803 36.8058L78.7389 37.2188L78.0463 36.7969L77.9698 37.299L78.8119 37.8117L78.7478 38.2247L77.4819 37.4538L77.8166 35.2765L77.8184 35.2783Z" fill="#3DB67B"/>
<path d="M79.4745 36.2861L79.9908 36.5994C80.532 36.9288 80.8365 37.4771 80.7225 38.2249C80.6086 38.9726 80.1973 39.1079 79.681 38.7928L79.1416 38.4634L79.4763 36.2861H79.4745ZM79.6935 38.3673C79.9837 38.5435 80.208 38.483 80.2881 37.9614C80.3683 37.4415 80.1956 37.1584 79.9054 36.9822L79.8359 36.9395L79.6241 38.3246L79.6935 38.3673Z" fill="#3DB67B"/>
<path d="M81.9327 38.3369C81.9541 38.1998 81.8722 38.0716 81.7529 37.9986C81.6336 37.9256 81.5375 37.9381 81.436 37.9737L81.2402 37.582C81.4057 37.4877 81.6158 37.4805 81.8419 37.6176C82.1695 37.817 82.4009 38.1517 82.344 38.5203C82.2763 38.96 81.801 38.7303 81.776 39.138L81.4075 38.9137C81.4146 38.4312 81.8918 38.5861 81.9309 38.3369H81.9327ZM81.2348 39.4122C81.2651 39.2128 81.4075 39.1523 81.5731 39.252C81.7387 39.3517 81.8384 39.5617 81.8081 39.7611C81.7778 39.9605 81.6336 40.0264 81.4698 39.9267C81.306 39.827 81.2046 39.6116 81.2366 39.4122H81.2348Z" fill="#3DB67B"/>
<path d="M66.9211 22.1039C79.047 24.5911 90.2133 30.6923 100.313 40.8224L101.593 34.4915C101.766 33.5319 101.319 32.5687 100.477 32.0791L68.4344 13.5031L66.9229 22.1057L66.9211 22.1039Z" fill="#192147"/>
<path d="M96.8324 61.0721C96.8217 61.0721 96.8092 61.0686 96.7985 61.0632L63.3941 41.7341C63.3692 41.7199 63.3567 41.6932 63.3621 41.6647L68.2847 13.4909C68.2918 13.4553 68.3239 13.4286 68.3612 13.4375C68.3968 13.4446 68.4218 13.4784 68.4147 13.514L63.5009 41.6415L96.8644 60.9475C96.8965 60.9653 96.9072 61.0063 96.8894 61.0383C96.8769 61.0597 96.8537 61.0721 96.8324 61.0721Z" fill="#192147"/>
<path d="M62.1674 42.4104C62.1443 42.4104 62.1211 42.3979 62.1087 42.3747C62.0909 42.3427 62.1033 42.3018 62.1372 42.284L63.3976 41.6145C63.4297 41.5967 63.4706 41.6092 63.4884 41.643C63.5062 41.6751 63.4938 41.716 63.46 41.7338L62.1995 42.4032C62.1888 42.4086 62.1781 42.4104 62.1674 42.4104Z" fill="#192147"/>
<path d="M117.262 22.7305L109.177 18.0322L79.791 0.955207C78.9079 0.44247 77.8166 0.44069 76.9317 0.953427L64.8433 7.95371C65.3346 7.81128 65.7957 7.80416 66.2088 7.98754L104.134 30.0263C104.668 30.3361 105.072 30.8025 105.309 31.3438L118.344 23.8165C118.088 23.3732 117.719 22.9958 117.262 22.7305Z" fill="#F1EEEA"/>
<path d="M105.309 31.4097C105.309 31.4097 105.294 31.4097 105.287 31.4061C105.269 31.4008 105.255 31.3865 105.246 31.3687C105.008 30.824 104.611 30.3789 104.098 30.0816L66.1732 8.04278C65.7994 7.87721 65.3668 7.86831 64.8594 8.01608C64.8273 8.02498 64.7935 8.00895 64.7792 7.97869C64.7668 7.94842 64.7792 7.91103 64.8077 7.89501L76.8962 0.89473C77.7988 0.373092 78.9204 0.373091 79.8213 0.89651L117.292 22.6718C117.751 22.9389 118.134 23.3234 118.399 23.7827C118.417 23.8148 118.407 23.8557 118.374 23.8735L105.339 31.4008C105.328 31.4061 105.317 31.4097 105.305 31.4097H105.309ZM65.527 7.77929C65.7798 7.77929 66.0148 7.82736 66.2356 7.92528L104.166 29.9676C104.68 30.2667 105.084 30.7082 105.337 31.2477L118.252 23.7916C117.999 23.3768 117.646 23.0314 117.226 22.7875L79.7554 1.01223C78.8955 0.511959 77.8255 0.511957 76.9639 1.01045L65.2403 7.79887C65.3383 7.78641 65.4326 7.77929 65.5252 7.77929H65.527Z" fill="#192147"/>
<path d="M73.4814 88.4481C73.3585 88.4481 73.2357 88.4446 73.1128 88.4357C72.2245 88.3787 71.3467 88.1116 70.5759 87.6648L36.1353 67.6502C34.3603 66.4788 34.5027 65.3055 34.5098 65.2557L34.6861 65.2806C34.6861 65.2913 34.5597 66.3969 36.2296 67.4989L70.6667 87.5117C71.4144 87.9461 72.2654 88.2042 73.1271 88.2594C73.4084 88.2772 73.695 88.2736 73.9745 88.2487C73.9959 88.2469 74.0173 88.2434 74.0404 88.2416L74.0956 88.2345L74.1152 88.4107L74.0653 88.4179C74.0404 88.4214 74.0155 88.425 73.9905 88.4268C73.8232 88.441 73.6523 88.4481 73.4832 88.4481H73.4814Z" fill="#192147"/>
<path d="M74.1134 88.411L74.0938 88.2347C74.3555 88.2062 74.5887 88.1671 74.8112 88.1119C75.6498 87.9071 76.442 87.5048 77.1025 86.9475L97.9574 69.3346C97.9823 69.3133 98.0073 69.2901 98.0304 69.267L98.1194 69.1851C98.155 69.1531 98.1906 69.121 98.2244 69.0872C98.2351 69.0765 98.244 69.0658 98.2547 69.0534C98.2654 69.0409 98.2761 69.0302 98.2868 69.0178C98.3491 68.9519 98.4114 68.886 98.4701 68.8166L98.4986 68.7792C98.577 68.683 98.6375 68.6029 98.6909 68.5282L98.7016 68.5139C99.0398 68.0261 99.2713 67.4689 99.3781 66.8689L105.298 33.0336C105.495 31.9031 104.963 30.7548 103.973 30.1762L66.7695 8.42756C65.8864 7.92195 65.1992 7.76172 64.7274 7.95399C64.3981 8.08752 64.1613 8.40086 64.0242 8.88689L63.8533 8.83882C64.0064 8.29938 64.2788 7.94509 64.6616 7.7902C65.1868 7.57656 65.9256 7.73857 66.8603 8.27445L104.066 30.0248C105.12 30.6408 105.686 31.8639 105.476 33.0656L99.5561 66.9009C99.444 67.5258 99.2036 68.108 98.8404 68.6296C98.7853 68.7098 98.7212 68.7934 98.6393 68.8931C98.6232 68.9145 98.6161 68.9234 98.609 68.9323C98.5485 69.0035 98.4844 69.0729 98.4185 69.1406L98.3918 69.1709C98.3793 69.1851 98.3669 69.1993 98.3544 69.2118C98.3188 69.2474 98.2796 69.283 98.2423 69.3168L98.1568 69.3952C98.1301 69.4201 98.1034 69.445 98.0767 69.47L77.2218 87.0828C76.54 87.6579 75.7228 88.0745 74.8575 88.2845C74.6279 88.3397 74.3857 88.3807 74.1169 88.411H74.1134Z" fill="#192147"/>
<path d="M78.3595 0.568973C78.8544 0.568973 79.3475 0.697157 79.7908 0.955306L109.177 18.0323L117.262 22.7306C117.719 22.9959 118.089 23.3733 118.344 23.8166C118.6 24.2599 118.741 24.7691 118.743 25.2978L118.892 78.2486C118.892 78.5673 118.841 78.8789 118.741 79.1726C118.702 79.2901 118.654 79.4041 118.599 79.5144C118.572 79.5696 118.542 79.6248 118.511 79.6782C118.449 79.785 118.381 79.8883 118.307 79.9862C118.269 80.0361 118.23 80.0824 118.189 80.1304C117.986 80.3637 117.742 80.5648 117.466 80.7251L94.646 93.9013L77.0438 104.063C76.1625 104.573 75.1798 104.825 74.1953 104.825C74.1899 104.825 74.1863 104.825 74.181 104.825C74.181 104.825 74.1757 104.825 74.1721 104.825C73.1911 104.822 72.2102 104.566 71.3325 104.055L39.5695 85.5961L37.5951 84.4477C35.8397 83.4276 34.7608 81.5511 34.7608 79.5216L34.7679 65.3483V65.2824C34.7626 65.1988 34.7608 65.1133 34.7626 65.0278C34.7679 64.8071 34.8 64.5881 34.8569 64.3727C34.9424 64.0504 35.0848 63.7389 35.2878 63.4558C35.4231 63.2671 35.5833 63.0908 35.772 62.9324L56.6055 45.3373C56.9901 44.9617 57.3141 44.5807 57.5509 44.2068C57.7966 43.7813 57.9675 43.3149 58.0547 42.8235L64.0901 8.9686C64.1737 8.50215 64.4675 8.14608 64.8431 7.95381L64.9945 7.86479L76.9316 0.951744C77.3732 0.695376 77.8663 0.568973 78.3595 0.568973ZM78.3595 0.39094C77.8271 0.39094 77.3037 0.531585 76.8426 0.798635L64.9055 7.71168L64.7577 7.79892C64.3108 8.03036 64.0028 8.44518 63.9156 8.93833L57.8802 42.7932C57.7966 43.2614 57.6346 43.7065 57.3978 44.1196C57.1841 44.4578 56.8761 44.8264 56.4862 45.2073L35.6581 62.7971C35.4623 62.9627 35.2896 63.1496 35.1436 63.3525C34.9317 63.6481 34.7786 63.9757 34.6842 64.3264C34.6237 64.5525 34.5899 64.7875 34.5845 65.0225C34.5828 65.1062 34.5845 65.1916 34.5899 65.286V65.3465L34.5828 79.5198C34.5828 81.6046 35.7026 83.5522 37.5061 84.5991L39.4805 85.7474L71.2435 104.206C72.1318 104.722 73.1449 104.996 74.1721 105.002H74.181H74.359V104.998C75.3329 104.971 76.2889 104.701 77.1328 104.215L94.735 94.0527L117.555 80.8764C117.846 80.709 118.104 80.4972 118.323 80.2444C118.365 80.1945 118.408 80.1429 118.447 80.0913C118.527 79.988 118.6 79.8776 118.664 79.7637C118.697 79.7067 118.729 79.648 118.757 79.591C118.814 79.4735 118.866 79.3506 118.907 79.2278C119.013 78.9109 119.069 78.5815 119.067 78.2468L118.917 25.2961C118.917 24.7459 118.77 24.2029 118.494 23.7258C118.218 23.2487 117.821 22.8517 117.345 22.5739L109.261 17.8756L79.8745 0.798635C79.4134 0.529805 78.8882 0.38916 78.3541 0.38916L78.3595 0.39094Z" fill="#192147"/>
<path d="M91.9844 70.2517C91.9684 69.8938 91.8794 69.536 91.7191 69.187C91.5821 68.8879 91.3916 68.596 91.1476 68.3147C90.9287 68.0619 90.667 67.8179 90.3625 67.5883C90.1756 67.4476 89.9726 67.3105 89.7536 67.1788C89.6326 67.1076 89.5097 67.0382 89.3833 66.9705C89.0291 66.7836 88.6534 66.6198 88.2599 66.4773C87.8505 66.3296 87.4232 66.205 86.9834 66.1035C86.5045 65.9931 86.0114 65.9112 85.5111 65.8578C84.9183 65.7937 84.3147 65.7706 83.713 65.7866C82.7142 65.8115 81.7208 65.9468 80.7932 66.1925C79.9992 66.4026 79.2532 66.6928 78.5909 67.0649C78.5429 67.0916 78.4966 67.1183 78.4503 67.145C77.6491 67.6168 77.0616 68.1669 76.6878 68.7526C76.4563 69.114 76.3068 69.4897 76.2391 69.8707C76.1821 70.1876 76.1839 70.508 76.2409 70.8249C76.2943 71.1133 76.394 71.3982 76.54 71.6777C76.6789 71.9412 76.8587 72.1976 77.0812 72.4468C77.2984 72.6907 77.5566 72.9257 77.8557 73.1483C78.0337 73.28 78.2242 73.4082 78.4307 73.5328C78.5803 73.6218 78.7334 73.7073 78.8918 73.7874C79.3049 73.9975 79.7464 74.1791 80.2093 74.3322C80.7505 74.5102 81.322 74.6491 81.9077 74.747C82.6804 74.877 83.4797 74.9375 84.2773 74.9286C86.1983 74.9055 88.1086 74.48 89.5952 73.6468C90.6225 73.0699 91.3203 72.3703 91.6853 71.6279C91.9061 71.1792 92.0058 70.7163 91.9844 70.2534V70.2517Z" fill="#E2DED5"/>
<path d="M84.1152 74.9965C83.3639 74.9965 82.618 74.936 81.8951 74.8132C81.3005 74.7135 80.7255 74.5728 80.1878 74.3948C79.716 74.2399 79.2691 74.0547 78.8614 73.8464C78.7012 73.7645 78.5445 73.6791 78.395 73.5901C78.1885 73.4672 77.9944 73.3373 77.8146 73.202C77.5173 72.9794 77.252 72.7409 77.0295 72.4916C76.8069 72.2424 76.6218 71.9789 76.4794 71.71C76.3298 71.427 76.2265 71.1332 76.1731 70.8377C76.1144 70.5136 76.1126 70.1843 76.1714 69.8585C76.2408 69.4668 76.3939 69.0823 76.6289 68.7173C77.0206 68.1049 77.6206 67.5565 78.4146 67.0883C78.4609 67.0616 78.5089 67.0349 78.5552 67.0064C79.2086 66.6396 79.9546 66.3441 80.7735 66.1269C81.6993 65.8812 82.6856 65.7441 83.7093 65.7174C84.3146 65.7014 84.9217 65.7263 85.5163 65.7904C86.022 65.8438 86.5205 65.9275 86.9976 66.0361C87.4427 66.1376 87.8753 66.264 88.283 66.4118C88.6836 66.556 89.0646 66.7233 89.4153 66.9085C89.5399 66.9743 89.6663 67.0438 89.7891 67.1185C90.0081 67.2485 90.2147 67.3892 90.4051 67.5316C90.7096 67.7612 90.9766 68.0087 91.201 68.2686C91.4466 68.5499 91.6407 68.849 91.7831 69.1552C91.9469 69.5095 92.0377 69.8763 92.0537 70.2448C92.0751 70.7219 91.9718 71.1955 91.7475 71.6513C91.3647 72.4293 90.633 73.1361 89.6307 73.7005C88.1886 74.5105 86.289 74.9681 84.2808 74.9912C84.2274 74.9912 84.1722 74.9912 84.1188 74.9912L84.1152 74.9965ZM84.0636 65.8492C83.9461 65.8492 83.8304 65.8492 83.7129 65.8545C82.7016 65.8812 81.7242 66.0165 80.8091 66.2586C80.0009 66.4723 79.2656 66.7643 78.6211 67.1257C78.5748 67.1524 78.5285 67.1791 78.4822 67.2058C77.7078 67.6633 77.1221 68.1956 76.7428 68.7921C76.5185 69.1428 76.3708 69.5113 76.3049 69.8852C76.2497 70.195 76.2515 70.5083 76.3067 70.8163C76.3583 71.0994 76.4562 71.3789 76.6004 71.6513C76.7375 71.9112 76.9155 72.164 77.131 72.4061C77.3482 72.6483 77.6045 72.8815 77.8965 73.0987C78.0728 73.2304 78.265 73.3586 78.4662 73.4779C78.6122 73.5651 78.7671 73.6506 78.9238 73.7307C79.3261 73.9355 79.7659 74.1171 80.2305 74.2702C80.7628 74.4446 81.3308 74.5835 81.9201 74.6832C82.6874 74.8114 83.4832 74.8719 84.279 74.863C86.2641 74.8399 88.1423 74.3877 89.5648 73.5883C90.544 73.0382 91.2579 72.351 91.6282 71.5979C91.8437 71.1617 91.9416 70.7095 91.9202 70.2555C91.9042 69.9048 91.817 69.5558 91.6621 69.2158C91.5268 68.9202 91.338 68.6318 91.1013 68.3594C90.8823 68.1084 90.6223 67.8663 90.325 67.642C90.1399 67.5013 89.9369 67.3642 89.7215 67.2361C89.6004 67.1631 89.4776 67.0954 89.3547 67.0295C89.0094 66.8479 88.6337 66.6824 88.2385 66.5399C87.8361 66.394 87.4088 66.2693 86.9691 66.1678C86.4973 66.0592 86.0042 65.9774 85.5039 65.9239C85.0303 65.8723 84.5478 65.8474 84.0654 65.8474L84.0636 65.8492Z" fill="#192147"/>
<path d="M91.2062 68.8185C91.2027 68.9556 91.1866 69.0909 91.1599 69.2262C91.1332 69.3615 91.0941 69.4951 91.0442 69.6268C90.9926 69.7621 90.9303 69.8974 90.8555 70.0309C90.7736 70.1751 90.6775 70.3176 90.5689 70.4564C90.4425 70.6167 90.2965 70.7751 90.1327 70.9264C89.8745 71.165 89.5701 71.3929 89.2194 71.603C89.1642 71.6368 89.109 71.6689 89.0502 71.7009C88.5945 71.9555 88.096 72.1691 87.569 72.34C87.1399 72.4789 86.6931 72.5893 86.2338 72.6712C85.9347 72.7246 85.632 72.7673 85.324 72.7976C85.0605 72.8243 84.7952 72.8421 84.53 72.851C84.2878 72.8599 84.0457 72.8599 83.8036 72.8546C83.5686 72.8492 83.3354 72.8367 83.1021 72.8172C82.8689 72.7976 82.6392 72.7727 82.4096 72.7406C82.171 72.7068 81.936 72.6658 81.7028 72.6178C81.4482 72.5644 81.199 72.5038 80.9551 72.4344C80.6577 72.3489 80.3693 72.2528 80.0916 72.1424C79.6981 71.9875 79.3243 71.8059 78.9789 71.5994C77.6312 70.7929 76.9618 69.7532 76.9635 68.7153L76.96 69.9241C76.9564 70.9621 77.6258 72.0036 78.9753 72.8083C79.3207 73.0148 79.6928 73.1946 80.088 73.3513C80.3658 73.4616 80.6542 73.5578 80.9515 73.6432C81.1954 73.7127 81.4446 73.7732 81.6992 73.8266C81.9307 73.8747 82.1675 73.9156 82.406 73.9495C82.6357 73.9815 82.8654 74.0082 83.0986 74.026C83.3318 74.0456 83.565 74.0581 83.8 74.0634C84.0422 74.0687 84.2843 74.0687 84.5264 74.0598C84.7917 74.0509 85.0569 74.0331 85.3204 74.0064C85.6267 73.9762 85.9311 73.9334 86.2302 73.88C86.6895 73.7964 87.1364 73.686 87.5654 73.5489C88.0942 73.378 88.5927 73.1661 89.0467 72.9097C89.1037 72.8777 89.1606 72.8457 89.2158 72.8118C89.5665 72.6017 89.871 72.3756 90.1291 72.1353C90.2929 71.984 90.4389 71.8255 90.5653 71.6653C90.6757 71.5264 90.7701 71.384 90.8519 71.2398C90.9267 71.1063 90.9908 70.971 91.0407 70.8356C91.0905 70.7021 91.1297 70.5686 91.1564 70.4351C91.1831 70.2998 91.1991 70.1627 91.2027 70.0274C91.2027 70.006 91.2027 69.9847 91.2027 69.9633L91.2062 68.7544C91.2062 68.7758 91.2062 68.7972 91.2062 68.8185Z" fill="#BC3857"/>
<path d="M91.2044 68.6403C91.1901 68.3181 91.11 67.9941 90.9658 67.6807C90.8412 67.4119 90.6703 67.1484 90.4513 66.8956C90.2537 66.6677 90.0169 66.4487 89.7427 66.2404C89.5736 66.1122 89.3902 65.9894 89.1926 65.8719C89.084 65.8078 88.9718 65.7437 88.8579 65.6849C88.5392 65.5176 88.1992 65.3681 87.8449 65.2399C87.4763 65.1063 87.09 64.9942 86.693 64.9034C86.2622 64.8037 85.8171 64.7307 85.3649 64.6826C84.8308 64.6257 84.286 64.6043 83.7447 64.6185C82.8439 64.6417 81.9484 64.7645 81.1116 64.9853C80.3959 65.174 79.723 65.4375 79.1248 65.7722C79.0821 65.7953 79.0393 65.8203 78.9984 65.8452C78.2756 66.2707 77.7468 66.7656 77.4085 67.2944C77.2002 67.6202 77.0649 67.9602 77.0044 68.302C76.9528 68.5887 76.9545 68.8771 77.0062 69.1637C77.0542 69.4237 77.1433 69.6818 77.2768 69.9328C77.4014 70.1696 77.5634 70.4028 77.7646 70.6254C77.9604 70.8444 78.1937 71.0562 78.4625 71.2574C78.6227 71.3767 78.7954 71.4924 78.9806 71.6028C79.1159 71.6829 79.2547 71.7595 79.3972 71.8325C79.7693 72.023 80.1681 72.185 80.5846 72.3238C81.0725 72.4841 81.587 72.6105 82.1157 72.6977C82.8119 72.8152 83.5329 72.8686 84.2539 72.8615C85.9862 72.8419 87.7096 72.4573 89.0502 71.7043C89.9759 71.1844 90.6062 70.5542 90.9355 69.883C91.1349 69.4788 91.2239 69.0605 91.2061 68.6439L91.2044 68.6403Z" fill="#D66C7B"/>
<path d="M83.7944 71.6741C83.7713 71.6741 83.7464 71.6723 83.7214 71.6687C83.4793 71.6296 83.3137 71.3999 83.3529 71.1578L84.2395 65.7117C84.2787 65.4696 84.5066 65.3058 84.7505 65.3432C84.9926 65.3824 85.1582 65.612 85.119 65.8542L84.2324 71.3002C84.1968 71.5192 84.0081 71.6741 83.7944 71.6741Z" fill="white"/>
<path d="M80.3887 69.4719C80.1679 69.4719 79.9775 69.3081 79.9472 69.0838C79.9151 68.8399 80.0878 68.6173 80.3317 68.5853L88.1884 67.5616C88.4323 67.5295 88.6548 67.7022 88.6869 67.9461C88.7189 68.19 88.5462 68.4126 88.3023 68.4446L80.4457 69.4683C80.4261 69.4701 80.4065 69.4719 80.3869 69.4719H80.3887Z" fill="white"/>
<path d="M84.1257 74.1487C82.1567 74.1487 80.1805 73.6876 78.7954 72.7689C77.2785 71.7648 76.6234 70.3583 76.9011 68.7026L77.0329 68.724C76.6946 70.7465 77.8447 71.9785 78.8702 72.6568C81.5549 74.4353 86.4811 74.4763 89.205 72.7422C90.2501 72.0764 91.4304 70.8568 91.1509 68.813H91.142V68.7507L91.2755 68.7418C91.5284 70.4403 90.8358 71.8627 89.2762 72.8544C87.9196 73.7161 86.0271 74.1451 84.1275 74.1451L84.1257 74.1487Z" fill="#192147"/>
<path d="M84.1845 72.9506C81.0031 72.9506 77.6382 71.724 76.9403 69.1763C76.8228 66.1747 80.0809 64.8234 82.908 64.5742C86.6966 64.2412 90.8608 65.6655 91.2703 68.6315V68.6387V68.6458C91.1136 70.4546 89.4543 72.5216 85.2705 72.9026C84.9145 72.9346 84.5495 72.9506 84.1845 72.9506ZM84.0065 64.6596C83.6433 64.6596 83.2801 64.6756 82.9205 64.7077C80.1521 64.9516 76.9599 66.2637 77.0739 69.1567C77.8305 71.9127 81.8558 73.0788 85.2599 72.7708C89.3564 72.3987 90.9819 70.3976 91.1385 68.644C90.7718 66.0412 87.3998 64.6614 84.0065 64.6614V64.6596Z" fill="#192147"/>
<path d="M79.522 62.9524C79.506 62.5946 79.417 62.2367 79.2567 61.8878C79.1197 61.5887 78.9292 61.2967 78.6852 61.0154C78.4663 60.7626 78.2046 60.5187 77.9001 60.289C77.7132 60.1484 77.5102 60.0113 77.2912 59.8795C77.1702 59.8083 77.0473 59.7389 76.9209 59.6712C76.5667 59.4843 76.191 59.3205 75.7975 59.1781C75.3881 59.0303 74.9608 58.9057 74.521 58.8042C74.0421 58.6938 73.549 58.6119 73.0487 58.5585C72.4559 58.4944 71.8523 58.4713 71.2506 58.4873C70.2518 58.5122 69.2584 58.6476 68.3308 58.8932C67.5368 59.1033 66.7908 59.3935 66.1285 59.7656C66.0805 59.7923 66.0342 59.819 65.9879 59.8457C65.1867 60.3175 64.5992 60.8676 64.2254 61.4534C63.9939 61.8148 63.8444 62.1904 63.7767 62.5714C63.7197 62.8883 63.7215 63.2088 63.7785 63.5257C63.8319 63.8141 63.9316 64.0989 64.0776 64.3785C64.2165 64.6419 64.3963 64.8983 64.6188 65.1476C64.836 65.3915 65.0942 65.6265 65.3933 65.849C65.5713 65.9808 65.7618 66.1089 65.9683 66.2336C66.1179 66.3226 66.271 66.408 66.4294 66.4882C66.8425 66.6982 67.284 66.8798 67.7469 67.0329C68.2881 67.211 68.8596 67.3498 69.4453 67.4478C70.218 67.5777 71.0173 67.6383 71.8149 67.6294C73.7359 67.6062 75.6462 67.1807 77.1328 66.3475C78.1601 65.7707 78.8579 65.071 79.2229 64.3286C79.4437 63.88 79.5434 63.4171 79.522 62.9542V62.9524Z" fill="#E2DED5"/>
<path d="M71.6528 67.6971C70.9015 67.6971 70.1556 67.6366 69.4327 67.5137C68.8381 67.414 68.2631 67.2734 67.7254 67.0953C67.2536 66.9405 66.8067 66.7553 66.399 66.547C66.2388 66.4651 66.0821 66.3796 65.9326 66.2906C65.7261 66.1678 65.532 66.0378 65.3522 65.9025C65.0549 65.68 64.7896 65.4414 64.5671 65.1922C64.3445 64.9429 64.1594 64.6794 64.0169 64.4106C63.8674 64.1275 63.7641 63.8338 63.7107 63.5382C63.652 63.2142 63.6502 62.8848 63.709 62.559C63.7784 62.1674 63.9315 61.7828 64.1665 61.4179C64.5582 60.8054 65.1582 60.2571 65.9522 59.7888C65.9985 59.7621 66.0465 59.7354 66.0928 59.7069C66.7462 59.3402 67.4922 59.0447 68.3111 58.8275C69.2369 58.5818 70.2232 58.4447 71.2469 58.418C71.8522 58.4037 72.4593 58.4269 73.0539 58.491C73.5596 58.5444 74.058 58.6281 74.5352 58.7367C74.9803 58.8381 75.4129 58.9645 75.8206 59.1123C76.2212 59.2565 76.6022 59.4239 76.9529 59.609C77.0775 59.6749 77.2039 59.7443 77.3267 59.8191C77.5457 59.9491 77.7522 60.0897 77.9427 60.2321C78.2472 60.4618 78.5142 60.7093 78.7386 60.9692C78.9842 61.2505 79.1783 61.5496 79.3207 61.8558C79.4845 62.2101 79.5753 62.5768 79.5913 62.9454C79.6127 63.4225 79.5094 63.8961 79.2851 64.3518C78.9023 65.1299 78.1706 65.8366 77.1683 66.401C75.7262 67.2111 73.8266 67.6686 71.8184 67.6918C71.765 67.6918 71.7098 67.6918 71.6564 67.6918L71.6528 67.6971ZM71.6012 58.5497C71.4837 58.5497 71.368 58.5497 71.2505 58.5551C70.2392 58.5818 69.2618 58.7171 68.3467 58.9592C67.5385 59.1728 66.8032 59.4648 66.1587 59.8262C66.1124 59.8529 66.0661 59.8796 66.0198 59.9063C65.2454 60.3639 64.6597 60.8962 64.2804 61.4926C64.0561 61.8434 63.9084 62.2119 63.8425 62.5858C63.7873 62.8955 63.7891 63.2089 63.8443 63.5169C63.8959 63.7999 63.9938 64.0795 64.138 64.3518C64.2751 64.6118 64.4531 64.8646 64.6686 65.1067C64.8858 65.3488 65.1421 65.5821 65.4341 65.7993C65.6104 65.931 65.8026 66.0592 66.0038 66.1785C66.1498 66.2657 66.3047 66.3512 66.4614 66.4313C66.8637 66.636 67.3035 66.8176 67.7681 66.9707C68.3004 67.1452 68.8684 67.2841 69.4577 67.3838C70.225 67.5119 71.0208 67.5725 71.8166 67.5636C73.8017 67.5404 75.6799 67.0882 77.1024 66.2889C78.0816 65.7387 78.7955 65.0515 79.1658 64.2984C79.3813 63.8623 79.4792 63.41 79.4578 62.9561C79.4418 62.6053 79.3546 62.2564 79.1997 61.9163C79.0644 61.6208 78.8756 61.3324 78.6389 61.06C78.4199 60.809 78.1599 60.5669 77.8626 60.3425C77.6775 60.2019 77.4745 60.0648 77.2591 59.9366C77.138 59.8636 77.0152 59.796 76.8923 59.7301C76.547 59.5485 76.1713 59.3829 75.7761 59.2405C75.3737 59.0945 74.9464 58.9699 74.5067 58.8684C74.0349 58.7598 73.5417 58.6779 73.0415 58.6245C72.5679 58.5729 72.0854 58.5479 71.603 58.5479L71.6012 58.5497Z" fill="#192147"/>
<path d="M78.7492 61.5372C78.7456 61.6742 78.7296 61.8095 78.7029 61.9449C78.6762 62.0802 78.637 62.2137 78.5872 62.3454C78.5356 62.4807 78.4732 62.616 78.3985 62.7496C78.3166 62.8938 78.2204 63.0362 78.1118 63.1751C77.9854 63.3353 77.8394 63.4937 77.6757 63.6451C77.4175 63.8836 77.1131 64.1115 76.7623 64.3216C76.7071 64.3554 76.652 64.3875 76.5932 64.4195C76.1374 64.6741 75.6389 64.8877 75.112 65.0587C74.6829 65.1975 74.236 65.3079 73.7767 65.3898C73.4776 65.4432 73.175 65.4859 72.867 65.5162C72.6035 65.5429 72.3382 65.5607 72.0729 65.5696C71.8308 65.5785 71.5887 65.5785 71.3466 65.5732C71.1116 65.5678 70.8783 65.5554 70.6451 65.5358C70.4119 65.5162 70.1822 65.4913 69.9526 65.4592C69.714 65.4254 69.479 65.3845 69.2458 65.3364C68.9912 65.283 68.7419 65.2225 68.498 65.153C68.2007 65.0676 67.9123 64.9714 67.6345 64.861C67.2411 64.7062 66.8672 64.5246 66.5218 64.318C65.1741 63.5115 64.5047 62.4718 64.5065 61.4339L64.5029 62.6427C64.4994 63.6807 65.1688 64.7222 66.5183 65.5269C66.8637 65.7334 67.2358 65.9132 67.631 66.0699C67.9087 66.1803 68.1971 66.2764 68.4945 66.3619C68.7384 66.4313 68.9876 66.4918 69.2422 66.5452C69.4736 66.5933 69.7104 66.6343 69.949 66.6681C70.1787 66.7001 70.4083 66.7268 70.6415 66.7446C70.8748 66.7642 71.108 66.7767 71.343 66.782C71.5851 66.7874 71.8272 66.7874 72.0694 66.7785C72.3346 66.7696 72.5999 66.7518 72.8634 66.7251C73.1696 66.6948 73.4741 66.6521 73.7732 66.5987C74.2325 66.515 74.6793 66.4046 75.1084 66.2675C75.6372 66.0966 76.1357 65.8847 76.5897 65.6284C76.6466 65.5963 76.7036 65.5643 76.7588 65.5304C77.1095 65.3204 77.4139 65.0943 77.6721 64.8539C77.8359 64.7026 77.9819 64.5441 78.1083 64.3839C78.2187 64.245 78.313 64.1026 78.3949 63.9584C78.4697 63.8249 78.5338 63.6896 78.5836 63.5543C78.6335 63.4208 78.6726 63.2872 78.6993 63.1537C78.726 63.0184 78.7421 62.8813 78.7456 62.746C78.7456 62.7246 78.7456 62.7033 78.7456 62.6819L78.7492 61.4731C78.7492 61.4944 78.7492 61.5158 78.7492 61.5372Z" fill="#336C42"/>
<path d="M78.7473 61.3607C78.7331 61.0385 78.653 60.7144 78.5088 60.4011C78.3841 60.1323 78.2132 59.8688 77.9942 59.616C77.7966 59.3881 77.5598 59.1691 77.2857 58.9608C77.1165 58.8326 76.9332 58.7098 76.7355 58.5923C76.6269 58.5282 76.5148 58.4641 76.4008 58.4053C76.0822 58.238 75.7421 58.0884 75.3878 57.9603C75.0193 57.8267 74.633 57.7146 74.236 57.6238C73.8051 57.5241 73.36 57.4511 72.9078 57.403C72.3737 57.346 71.8289 57.3247 71.2877 57.3389C70.3869 57.3621 69.4914 57.4849 68.6546 57.7057C67.9389 57.8944 67.2659 58.1579 66.6677 58.4926C66.625 58.5157 66.5823 58.5407 66.5413 58.5656C65.8185 58.9911 65.2898 59.486 64.9515 60.0148C64.7432 60.3406 64.6079 60.6806 64.5474 61.0224C64.4957 61.3091 64.4975 61.5975 64.5491 61.8841C64.5972 62.1441 64.6862 62.4022 64.8198 62.6532C64.9444 62.89 65.1064 63.1232 65.3076 63.3458C65.5034 63.5648 65.7366 63.7766 66.0055 63.9778C66.1657 64.0971 66.3384 64.2128 66.5235 64.3232C66.6588 64.4033 66.7977 64.4799 66.9401 64.5528C67.3122 64.7433 67.711 64.9054 68.1276 65.0442C68.6154 65.2045 69.1299 65.3309 69.6587 65.4181C70.3548 65.5356 71.0759 65.589 71.7969 65.5819C73.5292 65.5623 75.2525 65.1777 76.5931 64.4247C77.5189 63.9048 78.1491 63.2746 78.4785 62.6034C78.6779 62.1992 78.7669 61.7809 78.7491 61.3643L78.7473 61.3607Z" fill="#3DB67B"/>
<path d="M71.6687 66.8691C69.6996 66.8691 67.7235 66.408 66.3384 65.4893C64.8215 64.4852 64.1664 63.0787 64.4441 61.423L64.5758 61.4444C64.2376 63.4669 65.3877 64.6989 66.4131 65.3772C69.0979 67.1557 74.0241 67.1967 76.748 65.4626C77.793 64.7968 78.9734 63.5772 78.6939 61.5334H78.685V61.4711L78.8185 61.4622C79.0713 63.1606 78.3788 64.5831 76.8192 65.5748C75.4626 66.4365 73.5683 66.8655 71.6705 66.8655L71.6687 66.8691Z" fill="#192147"/>
<path d="M71.7275 65.671C68.546 65.671 65.183 64.4444 64.4833 61.8967C64.3658 58.8951 67.6238 57.5438 70.4492 57.2946C74.2395 56.9616 78.402 58.3859 78.8115 61.3519V61.3591V61.3662C78.6548 63.175 76.9955 65.242 72.8117 65.623C72.4557 65.655 72.0907 65.671 71.7257 65.671H71.7275ZM71.5495 57.3782C71.1863 57.3782 70.8231 57.3943 70.4635 57.4263C67.695 57.6702 64.5029 58.9823 64.6168 61.8754C65.3735 64.6313 69.4006 65.7974 72.8046 65.4895C76.9012 65.1174 78.5266 63.1145 78.6833 61.3626C78.3165 58.7598 74.9446 57.38 71.5512 57.38L71.5495 57.3782Z" fill="#192147"/>
<path d="M69.1811 62.9578C69.1045 62.9578 69.028 62.9382 68.9603 62.8991C68.8535 62.8385 68.777 62.7353 68.7485 62.6142L68.2037 60.2873C68.1485 60.0487 68.2963 59.8084 68.5348 59.7532C68.7752 59.6962 69.0137 59.8458 69.0689 60.0843L69.5051 61.9466L75.0918 60.2125C75.3268 60.1395 75.5761 60.2713 75.6491 60.5063C75.7221 60.7413 75.5903 60.9905 75.3553 61.0635L69.3128 62.94C69.2701 62.9542 69.2256 62.9596 69.1811 62.9596V62.9578Z" fill="white"/>
<path d="M39.6176 67.049L38.0812 66.1571C37.2284 65.6621 37.1251 64.4711 37.88 63.8355L56.2531 48.3733C57.1735 47.5988 58.4785 47.4867 59.5182 48.0902L61.0546 48.9822C61.9074 49.4771 62.0107 50.6681 61.2558 51.3037L42.8827 66.7659C41.9623 67.5404 40.6573 67.6526 39.6176 67.049Z" fill="#E2DED5"/>
<path d="M41.047 67.5011C40.5432 67.5011 40.0375 67.3711 39.5836 67.1076L38.0471 66.2157C37.6216 65.9682 37.3528 65.5463 37.3101 65.0549C37.2673 64.5635 37.4596 64.1024 37.8353 63.7855L56.2083 48.3233C57.1466 47.5328 58.4907 47.4171 59.55 48.0331L61.0865 48.9251C61.512 49.1725 61.7808 49.5945 61.8235 50.0858C61.8662 50.5772 61.674 51.0383 61.2983 51.3552L42.9252 66.8175C42.3876 67.2697 41.72 67.5011 41.047 67.5011ZM58.0884 47.7732C57.4457 47.7732 56.8083 47.994 56.2956 48.4248L37.9225 63.887C37.5807 64.1754 37.4062 64.5974 37.4436 65.0425C37.4828 65.4893 37.7267 65.8739 38.1148 66.0982L39.6512 66.9901C40.6624 67.5777 41.9443 67.4673 42.8398 66.7142L61.2129 51.252C61.5547 50.9636 61.7292 50.5416 61.6918 50.0965C61.6544 49.6514 61.4087 49.2651 61.0206 49.0408L59.4842 48.1488C59.0515 47.8978 58.5691 47.7732 58.0884 47.7732Z" fill="#192147"/>
<path d="M41.0488 65.6552C40.8601 65.6552 40.6749 65.6054 40.5129 65.511L39.8524 65.1265C39.6388 65.0018 39.6138 64.7045 39.8026 64.5461L57.4012 49.7355C57.5935 49.5735 57.8374 49.4844 58.0902 49.4844C58.2789 49.4844 58.464 49.5343 58.626 49.6286L59.2866 50.0132C59.5002 50.1378 59.5251 50.4351 59.3364 50.5936L41.7378 65.4042C41.5455 65.5662 41.3016 65.6552 41.0488 65.6552Z" fill="#8C8679"/>
<path d="M41.0489 65.7227C40.8495 65.7227 40.6519 65.6693 40.4792 65.5696L39.8187 65.185C39.6976 65.1156 39.6228 64.9945 39.6104 64.8557C39.5979 64.7168 39.6531 64.5851 39.7599 64.496L57.3586 49.6854C57.7164 49.3846 58.2558 49.3383 58.66 49.5733L59.3205 49.9578C59.4415 50.0273 59.5163 50.1483 59.5288 50.2872C59.5412 50.4261 59.486 50.5578 59.3792 50.6468L41.7824 65.4574C41.5776 65.6301 41.3177 65.7245 41.0507 65.7245L41.0489 65.7227ZM58.0885 49.5537C57.8517 49.5537 57.6238 49.6374 57.4422 49.7887L39.8436 64.5993C39.7706 64.6598 39.7332 64.7506 39.7421 64.845C39.751 64.9394 39.8026 65.0212 39.8845 65.0693L40.5451 65.4539C40.9029 65.6622 41.3782 65.6194 41.6934 65.3542L59.292 50.5436C59.365 50.483 59.4024 50.3922 59.3935 50.2979C59.3846 50.2035 59.3329 50.1216 59.251 50.0735L58.5905 49.689C58.4374 49.6 58.2647 49.5537 58.0885 49.5537Z" fill="#192147"/>
<path d="M41.1503 65.7936L40.1836 65.2399L58.0297 50.0269C58.2237 50.1213 59.2065 50.6109 59.2065 50.6109L41.1503 65.7936Z" fill="#192147"/>
<path d="M54.6003 54.4141L52.3286 56.3725L54.6431 36.7211H56.9148L54.6003 54.4141Z" fill="#E2DED5"/>
<path d="M52.3288 56.44C52.3181 56.44 52.3074 56.4382 52.2968 56.4329C52.2718 56.4204 52.2594 56.3937 52.2612 56.3652L54.5756 36.7138C54.5792 36.68 54.6076 36.6551 54.6415 36.6551H56.9132C56.9328 36.6551 56.9506 36.664 56.963 36.6782C56.9755 36.6925 56.9808 36.7121 56.979 36.7316L54.6646 54.4246C54.6628 54.4407 54.6539 54.4549 54.6415 54.4674L52.3698 56.4257C52.3573 56.4364 52.3413 56.4418 52.327 56.4418L52.3288 56.44ZM54.702 36.7886L52.4143 56.2121L54.5364 54.3819L56.8384 36.7886H54.702Z" fill="#192147"/>
<path d="M54.2445 40.8193C54.7412 41.0472 55.2914 41.0187 55.7329 40.9974L53.908 54.9285L52.4197 56.1979L54.2445 40.8193Z" fill="white"/>
<path d="M55.3404 40.0028C57.7002 40.0028 59.6132 38.0898 59.6132 35.73C59.6132 33.3702 57.7002 31.4572 55.3404 31.4572C52.9806 31.4572 51.0676 33.3702 51.0676 35.73C51.0676 38.0898 52.9806 40.0028 55.3404 40.0028Z" fill="#6A67FE"/>
<path d="M55.3405 40.0706C52.9477 40.0706 51 38.1247 51 35.7302C51 33.3356 52.9459 31.3897 55.3405 31.3897C57.735 31.3897 59.6809 33.3356 59.6809 35.7302C59.6809 38.1247 57.735 40.0706 55.3405 40.0706ZM55.3405 31.525C53.0207 31.525 51.1353 33.4122 51.1353 35.7302C51.1353 38.0482 53.0225 39.9353 55.3405 39.9353C57.6585 39.9353 59.5456 38.0482 59.5456 35.7302C59.5456 33.4122 57.6585 31.525 55.3405 31.525Z" fill="#192147"/>
<path d="M54.7912 37.7303C56.3644 37.7303 57.6397 36.4549 57.6397 34.8817C57.6397 33.3085 56.3644 32.0332 54.7912 32.0332C53.218 32.0332 51.9426 33.3085 51.9426 34.8817C51.9426 36.4549 53.218 37.7303 54.7912 37.7303Z" fill="#B4B2FE"/>
<path d="M46.1547 70.8183L44.6183 69.9264C43.7655 69.4314 43.6622 68.2404 44.4171 67.6048L62.7902 52.1426C63.7106 51.3681 65.0156 51.256 66.0553 51.8595L67.5917 52.7515C68.4445 53.2464 68.5478 54.4374 67.7929 55.073L49.4198 70.5352C48.4994 71.3097 47.1944 71.4218 46.1547 70.8183Z" fill="#E2DED5"/>
<path d="M47.5841 71.2687C47.0803 71.2687 46.5747 71.1387 46.1207 70.8752L44.5842 69.9833C44.1587 69.7358 43.8899 69.3139 43.8472 68.8225C43.8044 68.3311 43.9967 67.87 44.3724 67.5531L62.7454 52.0909C63.6837 51.3004 65.0278 51.1847 66.0871 51.8007L67.6236 52.6926C68.0491 52.9401 68.3179 53.3621 68.3588 53.8534C68.4016 54.343 68.2093 54.8059 67.8336 55.1228L49.4606 70.585C48.9229 71.0372 48.2553 71.2687 47.5823 71.2687H47.5841ZM64.6255 51.5408C63.9828 51.5408 63.3454 51.7615 62.8327 52.1924L44.4596 67.6546C44.116 67.943 43.9433 68.3649 43.9807 68.81C44.0199 69.2569 44.2638 69.6415 44.6519 69.8658L46.1883 70.7577C47.1995 71.3452 48.4814 71.2348 49.3769 70.4818L67.75 55.0195C68.0918 54.7311 68.2663 54.3092 68.2289 53.8641C68.1915 53.419 67.9458 53.0327 67.5595 52.8084L66.023 51.9164C65.5904 51.6654 65.108 51.5408 64.6273 51.5408H64.6255Z" fill="#192147"/>
<path d="M47.5864 69.424C47.3977 69.424 47.2125 69.3741 47.0505 69.2798L46.39 68.8952C46.1764 68.7706 46.1514 68.4733 46.3401 68.3148L63.9388 53.5042C64.131 53.3422 64.375 53.2532 64.6278 53.2532C64.8165 53.2532 65.0016 53.303 65.1636 53.3974L65.8242 53.7819C66.0378 53.9066 66.0627 54.2039 65.874 54.3623L48.2754 69.1729C48.0831 69.335 47.8392 69.424 47.5864 69.424Z" fill="#8C8679"/>
<path d="M47.5862 69.49C47.3868 69.49 47.1892 69.4366 47.0165 69.3369L46.356 68.9523C46.235 68.8829 46.1584 68.7618 46.1477 68.6229C46.1353 68.4841 46.1905 68.3523 46.2973 68.2633L63.8959 53.4527C64.2537 53.1518 64.7914 53.1055 65.1973 53.3405L65.8578 53.7251C65.9789 53.7945 66.0554 53.9156 66.0661 54.0545C66.0786 54.1933 66.0234 54.3251 65.9166 54.4141L48.3197 69.2247C48.115 69.3974 47.8551 69.4918 47.588 69.4918L47.5862 69.49ZM64.6258 53.321C64.3891 53.321 64.1612 53.4046 63.9796 53.556L46.3827 68.3666C46.3097 68.4271 46.2724 68.5179 46.2813 68.6123C46.2902 68.7066 46.3418 68.7903 46.4237 68.8384L47.0842 69.2229C47.442 69.4294 47.9174 69.3885 48.2325 69.1232L65.8311 54.3126C65.9041 54.2521 65.9415 54.1613 65.9326 54.0669C65.9237 53.9726 65.8721 53.8889 65.7902 53.8408L65.1297 53.4563C64.9766 53.3672 64.8039 53.321 64.6276 53.321H64.6258Z" fill="#192147"/>
<path d="M47.6877 69.5627L46.7209 69.009L64.567 53.796C64.7611 53.8904 65.7438 54.38 65.7438 54.38L47.6877 69.5627Z" fill="#192147"/>
<path d="M55.4768 63.111L53.9421 64.4035L41.3694 49.8421L42.904 48.1668L55.4768 63.111Z" fill="#E2DED5"/>
<path d="M53.942 64.4691C53.9242 64.4691 53.9046 64.462 53.8922 64.446L41.3212 49.8846C41.2998 49.8597 41.2998 49.8205 41.3212 49.7956L42.8558 48.1203C42.8683 48.1061 42.8861 48.0989 42.9057 48.0989C42.9253 48.0989 42.9431 48.1078 42.9555 48.1221L55.5265 63.068C55.5496 63.0965 55.5461 63.1374 55.5176 63.1624L53.9829 64.4531C53.9705 64.4638 53.9545 64.4691 53.9402 64.4691H53.942ZM41.4601 49.8419L53.9491 64.3071L55.3823 63.1001L42.9021 48.2645L41.4601 49.8401V49.8419Z" fill="#192147"/>
<path d="M44.1233 52.9043C44.6253 52.6924 44.9778 52.2669 45.2591 51.9269L54.9762 63.4421L53.9454 64.3002L44.1233 52.9025V52.9043Z" fill="white"/>
<path d="M44.3911 51.4569C46.0598 49.7882 46.0598 47.0829 44.3911 45.4142C42.7225 43.7456 40.0171 43.7456 38.3485 45.4142C36.6798 47.0829 36.6798 49.7882 38.3485 51.4569C40.0171 53.1255 42.7225 53.1255 44.3911 51.4569Z" fill="#AE6DDF"/>
<path d="M41.3673 52.7743C40.3204 52.7743 39.27 52.3986 38.4386 51.6366C37.5841 50.8533 37.0856 49.7851 37.0339 48.6279C36.9823 47.4706 37.3864 46.3615 38.168 45.5069C39.7846 43.7426 42.5334 43.6216 44.2995 45.2363C45.1541 46.0197 45.6525 47.0879 45.7042 48.2451C45.7558 49.4023 45.3517 50.5115 44.5701 51.366C43.7155 52.2989 42.5441 52.7725 41.3673 52.7725V52.7743ZM41.3708 44.2322C40.2314 44.2322 39.0956 44.6915 38.2677 45.5959C37.5093 46.4238 37.1176 47.4991 37.1675 48.6207C37.2173 49.7424 37.6998 50.7785 38.5294 51.5369C40.2403 53.1036 42.9055 52.9861 44.4722 51.2752C45.2306 50.4474 45.6223 49.372 45.5724 48.2504C45.5226 47.1288 45.0401 46.0927 44.2105 45.3342C43.404 44.5972 42.3874 44.2322 41.3726 44.2322H41.3708Z" fill="#192147"/>
<path d="M41.7783 50.2574C43.1784 49.54 43.7319 47.8235 43.0145 46.4233C42.2971 45.0232 40.5805 44.4698 39.1804 45.1872C37.7803 45.9046 37.2268 47.6212 37.9442 49.0213C38.6616 50.4214 40.3782 50.9748 41.7783 50.2574Z" fill="#C98DEF"/>
<path d="M21.6948 110.752L39.1653 120.389L63.6075 106.661L45.562 96.5983L21.6948 110.752Z" fill="#C5C7D1"/>
<path d="M57.909 67.4131C58.6798 66.8096 60.0062 66.717 60.8536 67.2066L79.3246 77.869C80.1721 78.3586 80.2433 79.263 79.4813 79.8772L76.7734 82.0617C76.0114 82.6759 74.6922 82.781 73.843 82.2949L55.1993 71.6218C54.3501 71.1358 54.286 70.2438 55.0569 69.6403L57.9072 67.4131H57.909Z" fill="#8C8679"/>
<path d="M75.0981 82.6674C74.637 82.6674 74.1812 82.5641 73.8109 82.3522L55.1672 71.6791C54.7364 71.4317 54.4836 71.0774 54.4551 70.6786C54.4266 70.2798 54.626 69.8935 55.0177 69.5872L57.868 67.36C58.6602 66.7405 60.0151 66.6461 60.8874 67.1482L79.3584 77.8106C79.7875 78.0581 80.0421 78.4177 80.0741 78.8201C80.1062 79.2224 79.9103 79.6159 79.524 79.9274L76.8161 82.1119C76.3639 82.4769 75.7265 82.6656 75.0981 82.6656V82.6674ZM57.9089 67.4117L57.9499 67.4651L55.0996 69.6923C54.7453 69.97 54.5637 70.3172 54.5886 70.6697C54.6135 71.0222 54.8432 71.3391 55.2349 71.5634L73.8785 82.2365C74.7082 82.7119 75.99 82.6104 76.7342 82.0086L79.4421 79.8242C79.7928 79.5411 79.9708 79.1886 79.9424 78.8307C79.9139 78.4729 79.6842 78.1524 79.2943 77.9263L60.8233 67.2639C59.9955 66.785 58.7065 66.8758 57.9534 67.4651L57.9125 67.4117H57.9089Z" fill="#192147"/>
<path d="M58.3842 71.3925C57.5349 70.9064 57.4299 70.0465 58.1509 69.4839C58.872 68.9214 60.1556 68.859 61.003 69.3486L76.1875 78.1132C77.035 78.6028 77.1649 79.4592 76.4742 80.0164C75.7834 80.5737 74.5229 80.6324 73.6737 80.1446L58.3859 71.3925H58.3842Z" fill="#192147"/>
<path d="M65.5035 100.665L69.6036 86.997L66.2477 85.0457L61.3643 98.0956L65.5035 100.665Z" fill="#847C89"/>
<path opacity="0.25" d="M69.6036 86.9026C69.6036 86.9026 71.6332 80.6661 76.1001 79.8329L72.4148 78.0829C72.4148 78.0829 67.2518 76.5696 66.6287 85.263L69.6036 86.9026Z" fill="#8C8679"/>
<path d="M58.8363 69.8648L76.102 79.8329C76.102 79.8329 74.9572 79.1724 73.2268 79.3469C70.4548 79.6264 67.8555 83.6571 66.2995 86.6302C65.4431 88.2681 64.7808 89.9986 64.3126 91.7861C63.3103 95.6031 60.9798 103.812 58.8363 106.376C57.1022 108.45 45.1615 115.009 41.6133 116.725C40.6377 117.197 39.4929 117.158 38.5529 116.618C34.467 114.275 25.2698 108.911 22.7222 107.533C26.2739 105.854 39.646 98.6991 41.5261 96.447C43.6785 93.8691 46.0197 85.5941 47.0149 81.7966C47.4777 80.0269 48.1329 78.3143 48.975 76.6906C50.5346 73.6818 53.1588 69.5871 55.9557 69.3805C57.7663 69.247 58.8345 69.8648 58.8345 69.8648H58.8363Z" fill="white"/>
<path d="M53.5629 70.4418C52.3433 71.4014 51.2182 72.8844 50.2764 74.3959L67.6436 84.2821C68.5978 82.7706 69.7372 81.2929 70.9674 80.3493L53.5611 70.4418H53.5629Z" fill="#F1EEEA"/>
<path d="M42.3521 95.2117L59.6302 105.196C61.2165 102.415 62.8028 97.2716 63.7944 93.6985L46.5091 83.6769C45.5246 87.2323 43.9401 92.3935 42.3521 95.21V95.2117Z" fill="#F1EEEA"/>
<path d="M73.7877 78.4979L58.1475 69.5944C57.6526 69.4484 56.9084 69.3113 55.9559 69.3808C55.1245 69.4413 54.3073 69.849 53.5293 70.4668L70.9339 80.3743C71.6709 79.8046 72.44 79.4254 73.2234 79.3453C74.9556 79.1708 76.0986 79.8313 76.0986 79.8313L73.786 78.4961L73.7877 78.4979Z" fill="#E2DED5"/>
<path d="M39.6817 114.619L39.6194 114.501C39.7761 114.418 55.3736 106.091 56.6109 104.608C57.8981 103.068 59.8262 97.8035 61.6457 90.8708C62.162 88.9036 62.8902 87.0146 63.8124 85.2539C65.2188 82.5638 67.8377 77.5593 72.3598 77.5593V77.6928C67.9196 77.6928 65.3239 82.6528 63.9299 85.3162C63.013 87.068 62.2884 88.9481 61.7739 90.9047C59.949 97.8551 58.0103 103.139 56.7124 104.693C55.4573 106.196 40.3244 114.275 39.6799 114.619H39.6817Z" fill="#646F71"/>
<path d="M37.2 113.234L37.1377 113.116C39.0249 112.128 52.607 104.804 53.912 103.243C55.2953 101.587 57.243 96.3224 59.1213 89.1619C59.5788 87.4189 60.2625 85.644 61.2132 83.7337C63.6416 78.8502 66.6824 76.274 70.0116 76.274C70.049 76.274 70.0846 76.274 70.1202 76.274V76.4076C70.0828 76.4076 70.049 76.4076 70.0134 76.4076C67.7043 76.4076 64.3573 77.7108 61.3307 83.7942C60.3853 85.6956 59.7035 87.4635 59.2495 89.1957C57.3659 96.374 55.4093 101.656 54.0135 103.328C52.5697 105.059 37.3513 113.155 37.2 113.236V113.234Z" fill="#646F71"/>
<path d="M34.72 111.847L34.6577 111.729C37.0897 110.456 49.7496 103.625 51.2131 101.873C52.6961 100.098 54.6562 94.8411 56.595 87.451C57.0081 85.8789 57.6294 84.2642 58.6121 82.2114C59.9474 79.4252 62.9259 74.7839 67.8806 74.9886L67.8752 75.1221C67.7702 75.1168 67.6652 75.115 67.5619 75.115C62.8707 75.115 60.0257 79.5712 58.7332 82.2684C57.754 84.3122 57.1345 85.9199 56.725 87.483C54.7826 94.8928 52.81 100.168 51.3163 101.957C49.8386 103.727 37.1573 110.57 34.72 111.845V111.847Z" fill="#646F71"/>
<path d="M32.2396 110.462L32.1772 110.344C35.2252 108.749 46.9273 102.407 48.5136 100.508C50.65 97.9476 52.911 90.1568 54.0683 85.7416C54.5472 83.915 55.3216 82.1773 56.0106 80.6908C59.484 73.1973 64.1165 73.5801 65.6405 73.7047L65.6298 73.8382C64.1307 73.7136 59.5659 73.338 56.1317 80.746C55.4462 82.2254 54.6736 83.9577 54.1982 85.7736C53.0374 90.2013 50.7693 98.0116 48.6169 100.591C47.0431 102.475 35.9889 108.5 32.2396 110.46V110.462Z" fill="#646F71"/>
<path d="M29.7579 109.075L29.6956 108.957C34.5612 106.412 44.1911 101.085 45.8129 99.1406C48.0579 96.4523 50.3653 88.5209 51.5421 84.0309C51.9871 82.3342 52.71 80.7266 53.4096 79.1706C56.9436 71.3104 61.4817 72.092 63.1908 72.3857C63.2674 72.3982 63.3386 72.4106 63.4044 72.4213L63.3831 72.5531C63.3172 72.5424 63.246 72.5299 63.1677 72.5175C61.487 72.229 57.0237 71.4599 53.5325 79.224C52.8346 80.7764 52.1136 82.3787 51.672 84.0647C50.4934 88.5636 48.1772 96.5164 45.9162 99.2261C44.2801 101.186 34.6307 106.527 29.7579 109.077V109.075Z" fill="#646F71"/>
<path d="M27.2779 107.69L27.2156 107.572C30.4309 105.89 41.0808 100.211 43.1158 97.7735C45.3501 95.0958 47.5595 87.8926 49.0176 82.3219C49.3986 80.8638 50.0092 79.4734 50.6003 78.131L50.8104 77.6503C53.3936 71.7307 56.9312 69.4626 61.042 71.0916C61.0954 71.1129 61.1399 71.1307 61.1755 71.1432L61.1292 71.2678C61.0918 71.2536 61.0473 71.2358 60.9939 71.2144C58.1827 70.1017 54.1556 70.3225 50.9332 77.7037L50.7214 78.1844C50.1338 79.5232 49.525 80.9083 49.1458 82.3558C47.6841 87.9407 45.4676 95.1635 43.2172 97.8589C41.1663 100.316 30.4985 106.004 27.2779 107.69Z" fill="#646F71"/>
<path d="M40.6659 114.097C40.6143 114.097 40.568 114.062 40.5573 114.008L39.012 106.618L46.9932 107.508L47.9742 104.122L54.7181 105.518L50.1782 97.3763H56.6106L50.1587 89.0462L56.648 88.2681L54.3638 84.7075L53.5253 78.6792L60.6715 78.7683V74.7162L61.9 72.2451L64.3853 73.1299C64.4441 73.1513 64.4726 73.2136 64.453 73.2724C64.4334 73.3311 64.3693 73.3596 64.3105 73.34L62.0121 72.5211L60.8941 74.7679V78.9944L53.7816 78.9054L54.5792 84.6274L57.0272 88.4444L50.5752 89.2171L57.0646 97.5953H50.5574L55.1489 105.831L48.1308 104.378L47.1534 107.747L39.2897 106.869L40.7709 113.958C40.7834 114.019 40.7442 114.078 40.6855 114.09C40.6784 114.09 40.6695 114.092 40.6623 114.092L40.6659 114.097Z" fill="#6A67FE"/>
<path d="M40.1838 117.12C39.6087 117.12 39.0337 116.973 38.5192 116.677C37.207 115.924 35.3519 114.852 33.3882 113.716C29.1831 111.284 24.4171 108.527 22.6902 107.592L22.5745 107.53L22.6937 107.473C25.9571 105.929 39.5927 98.66 41.4763 96.4044C43.6412 93.8104 46.0268 85.3129 46.9508 81.7807C47.4173 79.9986 48.0778 78.277 48.9163 76.6622C50.597 73.4238 53.1802 69.5195 55.9522 69.3165C57.761 69.183 58.8257 69.783 58.8702 69.8097L76.1359 79.7778L76.0682 79.8935C76.0575 79.8864 74.9217 79.2455 73.2322 79.4164C71.7473 79.5659 69.351 80.9457 66.3583 86.6659C65.5162 88.2753 64.8503 90.0041 64.3768 91.8075C63.451 95.3344 61.0636 103.819 58.888 106.424C57.1664 108.486 45.3467 114.998 41.6436 116.789C41.1825 117.012 40.684 117.124 40.1855 117.124L40.1838 117.12ZM22.87 107.537C24.6877 108.528 29.3397 111.22 33.4559 113.601C35.4196 114.736 37.2729 115.808 38.5868 116.561C39.5072 117.09 40.6289 117.129 41.5849 116.666C45.2827 114.877 57.0738 108.384 58.7847 106.335C60.9425 103.752 63.3228 95.2899 64.2468 91.7701C64.7221 89.9578 65.3933 88.2184 66.239 86.6018C67.9054 83.415 70.4691 79.5588 73.2179 79.2829C74.0832 79.1956 74.8006 79.3113 75.3062 79.4538L58.8025 69.9254C58.7883 69.9183 57.7254 69.3219 55.9611 69.4501C54.4656 69.5604 52.0497 70.9117 49.0338 76.7245C48.2006 78.3304 47.5437 80.0431 47.079 81.8163C46.1515 85.3574 43.7587 93.8781 41.5778 96.4916C39.6693 98.7775 26.436 105.835 22.8682 107.539L22.87 107.537Z" fill="#192147"/>
<path d="M42.1063 116.485C39.3575 117.884 37.5059 115.317 37.5059 115.317L20.2402 105.349C20.2402 105.349 21.223 106.7 22.722 107.533C24.2211 108.366 36.3274 115.522 36.3274 115.522C39.0566 117.16 40.4987 117.542 42.1063 116.485Z" fill="#8C8679"/>
<path d="M40.2727 117.144C39.16 117.144 37.9387 116.565 36.2936 115.579C36.1726 115.507 24.1713 108.415 22.6901 107.59C21.1946 106.759 20.1958 105.4 20.1852 105.386L20 105.132L37.5595 115.276C37.5773 115.301 39.411 117.781 42.0762 116.424L42.1438 116.54C41.5154 116.953 40.9118 117.144 40.2727 117.144ZM20.5145 105.582C20.883 106.018 21.6931 106.882 22.756 107.473C24.239 108.299 36.242 115.392 36.3631 115.463C38.5493 116.775 39.8436 117.218 40.9991 116.925C38.9517 117.249 37.5862 115.529 37.4633 115.367L20.5163 105.582H20.5145Z" fill="#192147"/>
<path d="M138.47 72.2532C138.367 71.1244 137.945 70.3767 137.506 70.1203L133.599 68.0516C136.542 71.2277 132.038 79.4119 129.28 81.9186L133.044 84.1067C136.096 81.0017 138.47 75.9331 138.47 72.2532Z" fill="#8C8679"/>
<path d="M135.387 69.2673C143.21 66.2194 137.869 81.9629 132.98 85.2459L133.042 84.1064C136.389 80.6081 138.1 76.4136 138.451 72.6393C138.495 72.1657 138.462 71.6868 138.321 71.2328C137.441 68.4039 134.329 71.1171 132.944 72.7443L132.941 71.475C133.834 70.4299 134.653 69.6911 135.385 69.2691L135.387 69.2673Z" fill="#F1EEEA"/>
<path d="M132.907 85.3759L132.978 84.0781L132.996 84.0603C136.088 80.8272 138.002 76.7698 138.387 72.6323C138.433 72.1374 138.39 71.6727 138.259 71.2525C138.05 70.5831 137.701 70.1932 137.219 70.0935C135.921 69.83 133.954 71.6602 132.998 72.7854L132.88 72.9225L132.877 71.4466L132.893 71.427C133.79 70.3784 134.618 69.6324 135.355 69.2051L135.364 69.2016C136.61 68.7155 138.257 68.4432 139.017 69.8977C139.791 71.3807 139.421 74.4411 138.048 77.8843C136.694 81.2829 134.767 84.1244 133.019 85.2976L132.909 85.3724L132.907 85.3759ZM133.11 84.135L133.056 85.1142C134.753 83.9107 136.608 81.1423 137.926 77.838C139.284 74.4304 139.656 71.4128 138.899 69.9618C138.326 68.8651 137.155 68.6515 135.419 69.3262C134.7 69.7428 133.89 70.4727 133.012 71.4964L133.015 72.5629C133.582 71.9237 135.72 69.6502 137.249 69.96C137.783 70.0686 138.166 70.4888 138.39 71.2098C138.526 71.6478 138.572 72.1302 138.524 72.643C138.137 76.8018 136.217 80.8806 133.113 84.1333L133.11 84.135Z" fill="#192147"/>
<path d="M135.595 69.2193C136.295 68.9309 137.47 68.7066 138.153 69.1018C134.025 66.7536 132.937 64.959 129.179 69.287L132.942 71.475C133.777 70.5261 134.427 69.7392 135.595 69.2211V69.2193Z" fill="white"/>
<path d="M132.957 71.5587L129.076 69.303L129.129 69.2425C132.38 65.5002 133.692 66.3067 136.567 68.0746C137.043 68.3665 137.582 68.6995 138.175 69.0359C138.179 69.0377 138.182 69.0413 138.187 69.0431L138.122 69.1588C138.122 69.1588 138.114 69.1534 138.109 69.1517C137.475 68.7956 136.379 68.9683 135.622 69.2798C134.531 69.7659 133.909 70.4727 133.126 71.3664L132.957 71.5587ZM129.282 69.2692L132.928 71.3878L133.024 71.2792C133.788 70.4086 134.449 69.6555 135.569 69.1588C136.154 68.9167 136.945 68.7564 137.586 68.849C137.194 68.6176 136.829 68.3932 136.496 68.1885C133.619 66.4188 132.417 65.6818 129.28 69.2692H129.282Z" fill="#192147"/>
<path d="M134.039 88.8975C134.039 88.9242 134.039 88.9492 134.039 88.9759C134.036 89.2002 134.013 89.4245 133.972 89.647C133.931 89.8678 133.87 90.0886 133.792 90.3058C133.712 90.5301 133.612 90.7526 133.491 90.9716C133.363 91.2066 133.211 91.4398 133.039 91.6659C132.836 91.9312 132.603 92.1911 132.339 92.4439C131.953 92.8125 131.501 93.165 130.984 93.4944C130.806 93.6083 130.619 93.7205 130.425 93.8273C129.642 94.2635 128.78 94.6267 127.87 94.9133C127.197 95.1251 126.498 95.296 125.78 95.426C125.296 95.5132 124.805 95.5827 124.308 95.6343C123.881 95.6788 123.45 95.7073 123.017 95.7251C122.62 95.7394 122.223 95.7429 121.826 95.7358C121.442 95.7269 121.059 95.7091 120.678 95.6788C120.297 95.6486 119.918 95.6076 119.542 95.5578C119.152 95.5044 118.766 95.4385 118.385 95.3619C117.966 95.2782 117.553 95.1786 117.151 95.0664C116.663 94.9293 116.19 94.7726 115.734 94.5964C115.05 94.3311 114.406 94.0196 113.813 93.6635C111.632 92.3514 110.546 90.6601 110.541 88.9687L110.544 90.2274C110.55 91.9188 111.636 93.6083 113.816 94.9222C114.409 95.28 115.054 95.5898 115.737 95.8551C116.193 96.0331 116.669 96.1898 117.155 96.3251C117.557 96.4373 117.97 96.5369 118.388 96.6206C118.769 96.6972 119.156 96.763 119.546 96.8165C119.921 96.8681 120.3 96.909 120.681 96.9375C121.062 96.9678 121.445 96.9856 121.83 96.9945C122.227 97.0034 122.624 96.9998 123.021 96.9838C123.453 96.9678 123.884 96.9375 124.312 96.893C124.808 96.8414 125.3 96.7737 125.784 96.6847C126.501 96.5547 127.201 96.3838 127.874 96.172C128.786 95.8853 129.645 95.5239 130.429 95.086C130.623 94.9774 130.81 94.867 130.988 94.7531C131.504 94.4237 131.956 94.0712 132.343 93.7026C132.606 93.4498 132.839 93.1917 133.042 92.9246C133.215 92.6968 133.366 92.4653 133.495 92.2303C133.614 92.0113 133.714 91.7888 133.795 91.5645C133.874 91.3455 133.934 91.1265 133.975 90.9057C134.016 90.6832 134.039 90.4589 134.043 90.2346C134.043 90.2079 134.043 90.1829 134.043 90.1562L134.039 88.8975Z" fill="#F1EEEA"/>
<path d="M122.254 97.0639C122.111 97.0639 121.969 97.0639 121.826 97.0585C121.44 97.0496 121.052 97.0318 120.674 97.0016C120.293 96.9713 119.909 96.9304 119.533 96.8787C119.14 96.8253 118.748 96.7594 118.371 96.6829C117.949 96.5974 117.532 96.4977 117.132 96.3856C116.64 96.2485 116.161 96.0883 115.707 95.912C115.013 95.6414 114.363 95.3263 113.776 94.9738C111.65 93.6955 110.477 92.0077 110.471 90.222L110.468 88.9651H110.601C110.607 90.701 111.757 92.3478 113.84 93.6011C114.42 93.9501 115.063 94.2616 115.75 94.5287C116.199 94.7032 116.674 94.8598 117.162 94.9969C117.561 95.1091 117.974 95.207 118.39 95.2924C118.768 95.369 119.156 95.4349 119.544 95.4865C119.918 95.5381 120.299 95.5791 120.676 95.6076C121.055 95.6378 121.44 95.6556 121.821 95.6645C122.214 95.6734 122.613 95.6699 123.008 95.6556C123.438 95.6396 123.87 95.6093 124.296 95.5666C124.791 95.5168 125.284 95.4455 125.763 95.3601C126.482 95.2301 127.183 95.0574 127.846 94.8491C128.768 94.5589 129.624 94.1958 130.388 93.7685C130.58 93.6617 130.767 93.5495 130.943 93.4373C131.449 93.1151 131.901 92.7644 132.289 92.3941C132.548 92.1466 132.781 91.8884 132.982 91.6249C133.151 91.4024 133.302 91.171 133.429 90.9377C133.546 90.7241 133.646 90.5033 133.724 90.2826C133.801 90.0689 133.861 89.85 133.901 89.6328C133.942 89.4138 133.965 89.1912 133.968 88.9722V88.8957H134.102L134.105 90.1526C134.105 90.1793 134.105 90.2042 134.105 90.2309C134.102 90.457 134.079 90.6867 134.036 90.9128C133.995 91.1371 133.933 91.3615 133.852 91.5822C133.771 91.8083 133.669 92.0362 133.548 92.257C133.418 92.4938 133.265 92.7305 133.091 92.9602C132.884 93.229 132.647 93.4943 132.384 93.7453C131.99 94.121 131.531 94.477 131.018 94.8046C130.838 94.9186 130.65 95.0325 130.456 95.1393C129.685 95.5702 128.819 95.9369 127.888 96.2307C127.221 96.4408 126.516 96.6135 125.789 96.7452C125.309 96.8324 124.81 96.9019 124.312 96.9535C123.886 96.998 123.45 97.0283 123.016 97.0443C122.761 97.0532 122.503 97.0585 122.246 97.0585L122.254 97.0639ZM110.608 90.0048V90.2256C110.614 91.9614 111.764 93.6082 113.849 94.8634C114.429 95.2123 115.072 95.5239 115.759 95.7909C116.208 95.9654 116.683 96.1239 117.171 96.2592C117.568 96.3696 117.981 96.4692 118.399 96.5547C118.775 96.6295 119.163 96.6954 119.553 96.7488C119.927 96.8004 120.308 96.8413 120.685 96.8698C121.061 96.9001 121.447 96.9179 121.83 96.9268C122.223 96.9357 122.624 96.9321 123.017 96.9161C123.448 96.9001 123.881 96.8698 124.305 96.8271C124.799 96.7755 125.293 96.706 125.772 96.6206C126.491 96.4906 127.192 96.3179 127.855 96.1096C128.779 95.8194 129.633 95.4562 130.397 95.029C130.589 94.9221 130.776 94.81 130.952 94.6978C131.458 94.3756 131.91 94.0248 132.296 93.6545C132.555 93.4089 132.788 93.1489 132.989 92.8854C133.16 92.6611 133.309 92.4297 133.436 92.1982C133.553 91.9828 133.653 91.762 133.731 91.5431C133.808 91.3294 133.869 91.1104 133.908 90.8932C133.949 90.6743 133.972 90.4517 133.975 90.2327C133.975 90.2078 133.975 90.1811 133.975 90.1562V89.9336C133.94 90.0672 133.901 90.1989 133.852 90.3289C133.771 90.5568 133.667 90.7829 133.548 91.0036C133.418 91.2422 133.263 91.479 133.089 91.7068C132.884 91.9757 132.647 92.2409 132.382 92.492C131.988 92.8676 131.529 93.2237 131.016 93.5513C130.837 93.6652 130.648 93.7792 130.454 93.886C129.681 94.3168 128.818 94.6836 127.887 94.9773C127.219 95.1874 126.514 95.3601 125.788 95.4918C125.305 95.5791 124.808 95.6503 124.31 95.7001C123.881 95.7447 123.446 95.7749 123.014 95.7909C122.617 95.8052 122.214 95.8087 121.819 95.7998C121.436 95.7927 121.048 95.7731 120.667 95.7429C120.286 95.7126 119.902 95.6717 119.526 95.62C119.136 95.5666 118.745 95.5007 118.364 95.4242C117.943 95.3387 117.527 95.239 117.124 95.1269C116.633 94.9898 116.154 94.8296 115.7 94.6551C115.006 94.3845 114.356 94.0694 113.769 93.7168C112.061 92.6896 110.966 91.3971 110.601 90.0031L110.608 90.0048Z" fill="#192147"/>
<path d="M133.489 86.7222C133.475 81.9064 133.462 77.2757 133.448 72.4706C133.445 71.0089 133.439 69.3603 133.436 67.8506C133.567 65.627 130.959 63.3321 128.477 62.4793C128.036 62.3102 127.587 62.1607 127.131 62.0325C126.742 61.9239 126.348 61.8295 125.951 61.7494C125.584 61.6764 125.214 61.6141 124.844 61.5625C124.484 61.5126 124.121 61.477 123.759 61.4467C123.395 61.4183 123.03 61.4022 122.665 61.3933C122.284 61.3862 121.904 61.3898 121.523 61.4022C121.112 61.4183 120.701 61.4485 120.29 61.4877C119.816 61.5358 119.346 61.6052 118.878 61.6871C118.203 61.8099 117.537 61.9719 116.884 62.1767C116.884 62.1767 116.884 62.1767 116.884 62.1785C115.812 62.5203 114.838 62.944 113.928 63.5244C113.928 63.5244 113.928 63.5244 113.928 63.5226C113.467 63.8217 113.022 64.1529 112.627 64.5303C112.387 64.7617 112.164 65.0056 111.963 65.2691C111.803 65.4792 111.655 65.7017 111.527 65.935C111.416 66.1397 111.32 66.3516 111.238 66.5706C111.165 66.7771 111.107 66.9889 111.067 67.2061C111.067 67.2044 111.067 67.2026 111.067 67.2008C110.97 67.7064 111.009 68.2245 111.003 68.739C111.007 69.9728 111.01 71.3525 111.014 72.5365C111.028 77.5712 111.043 82.5313 111.057 87.5572C111.317 83.174 116.914 81.4381 120.617 81.1034C125.093 80.6281 133.135 82.2233 133.489 87.4913C133.489 87.2545 133.489 86.991 133.487 86.7204L133.489 86.7222Z" fill="#E2DED5"/>
<path d="M133.5 90.5299C133.486 85.7141 133.473 81.0835 133.459 76.2783C133.455 74.8167 133.45 73.1681 133.447 71.6584C133.578 69.4347 130.97 67.1399 128.488 66.2871C128.047 66.1179 127.598 65.9684 127.142 65.8402C126.753 65.7316 126.359 65.6373 125.962 65.5571C125.595 65.4842 125.225 65.4218 124.855 65.3702C124.495 65.3204 124.132 65.2848 123.77 65.2545C123.405 65.226 123.041 65.21 122.676 65.2011C122.295 65.194 121.915 65.1975 121.534 65.21C121.123 65.226 120.712 65.2563 120.301 65.2954C119.827 65.3435 119.357 65.4129 118.889 65.4948C118.214 65.6177 117.548 65.7797 116.895 65.9844C116.895 65.9844 116.895 65.9844 116.895 65.9862C115.823 66.328 114.849 66.7517 113.939 67.3321C113.939 67.3321 113.939 67.3321 113.939 67.3304C113.478 67.6295 113.033 67.9606 112.638 68.338C112.398 68.5695 112.175 68.8134 111.974 69.0769C111.814 69.2869 111.666 69.5095 111.538 69.7427C111.427 69.9475 111.331 70.1593 111.249 70.3783C111.176 70.5848 111.118 70.7967 111.078 71.0139C111.078 71.0121 111.078 71.0103 111.078 71.0085C110.981 71.5142 111.02 72.0322 111.014 72.5467C111.018 73.7805 111.021 75.1603 111.025 76.3442C111.039 81.379 111.054 86.339 111.068 91.3649C111.328 86.9817 116.925 85.2459 120.628 84.9112C125.104 84.4358 133.146 86.031 133.5 91.299C133.5 91.0622 133.5 90.7988 133.498 90.5281L133.5 90.5299Z" fill="#BD707E"/>
<path d="M124.208 72.7604C127.822 72.7604 130.751 71.3982 130.751 69.7178C130.751 68.0374 127.822 66.6752 124.208 66.6752C120.595 66.6752 117.666 68.0374 117.666 69.7178C117.666 71.3982 120.595 72.7604 124.208 72.7604Z" fill="#C67F8F"/>
<path d="M134.344 90.2805C134.41 90.0811 134.465 89.8781 134.502 89.6716C134.502 89.6734 134.502 89.6752 134.502 89.6787C134.689 82.4363 134.468 75.2936 134.515 68.0939C133.596 77.681 110.763 77.5529 109.944 68.1651C109.958 73.0842 109.971 77.8502 109.985 82.8191C110.108 88.3915 108.703 92.2762 115.433 94.8506C115.915 95.0375 116.409 95.1996 116.907 95.3402C117.334 95.4577 117.765 95.5627 118.2 95.65C118.602 95.7301 119.006 95.7977 119.414 95.8547C119.809 95.9099 120.204 95.9491 120.601 95.9829C121 96.0149 121.401 96.031 121.801 96.0416C122.218 96.0488 122.634 96.0452 123.051 96.031C123.501 96.0132 123.952 95.9811 124.402 95.9366C124.92 95.8832 125.435 95.8066 125.948 95.7176C126.686 95.5841 127.416 95.4061 128.132 95.1817C128.132 95.1817 128.132 95.1818 128.132 95.18C129.307 94.8061 130.373 94.3414 131.369 93.7058C131.369 93.7058 131.369 93.7076 131.369 93.7094C131.873 93.3818 132.362 93.0204 132.795 92.6056C133.058 92.3528 133.302 92.0857 133.521 91.7956C133.521 91.7956 133.521 91.7956 133.521 91.7973C133.696 91.5641 133.858 91.3202 133.998 91.0656C134.119 90.8413 134.224 90.6098 134.313 90.3695C134.322 90.341 134.333 90.3125 134.344 90.2823V90.2805Z" fill="white"/>
<path d="M122.234 96.1128C122.09 96.1128 121.946 96.1128 121.8 96.1092C121.367 96.0985 121.006 96.0807 120.667 96.054L120.594 96.0487C120.165 96.0131 119.809 95.9757 119.478 95.9312L119.401 95.9223C119.015 95.8689 118.632 95.8048 118.264 95.7318L118.184 95.7158C117.748 95.6267 117.311 95.5217 116.886 95.4042C116.378 95.2618 115.88 95.0962 115.406 94.9128C109.725 92.7391 109.797 89.6591 109.896 85.3969C109.916 84.5744 109.935 83.7216 109.916 82.8208L109.875 68.1651L110.008 68.1597C110.425 72.947 116.578 75.1547 122.12 75.1778C122.15 75.1778 122.181 75.1778 122.211 75.1778C127.794 75.1778 133.979 72.9666 134.445 68.0867L134.579 68.0939C134.559 70.9513 134.584 73.8479 134.607 76.6502C134.643 80.9087 134.679 85.3115 134.566 89.6786H134.543L134.565 89.6822C134.529 89.8798 134.476 90.081 134.404 90.3L134.392 90.3374C134.387 90.3534 134.381 90.3694 134.376 90.3854L134.246 90.802V90.7077C134.189 90.8376 134.125 90.9676 134.057 91.094L133.931 91.3272V91.3094C133.826 91.4821 133.708 91.6548 133.575 91.8329L133.455 91.9931V91.9842C133.274 92.2085 133.073 92.4275 132.841 92.6483L132.729 92.7568V92.7533C132.359 93.0933 131.924 93.4245 131.406 93.7592L131.303 93.8251V93.8197C130.391 94.3894 129.361 94.8523 128.157 95.2351L128.152 95.2386C127.461 95.4558 126.742 95.6321 126.015 95.7656L125.96 95.7763C125.394 95.876 124.887 95.9472 124.41 95.9953C123.945 96.0398 123.523 96.0701 123.119 96.0861L123.055 96.0896C122.789 96.0985 122.515 96.1039 122.236 96.1039L122.234 96.1128ZM120.555 95.9116L120.607 95.9152C120.961 95.9436 121.34 95.9632 121.803 95.9757C122.209 95.9828 122.608 95.9793 122.991 95.9668L123.048 95.9632C123.466 95.949 123.907 95.9187 124.393 95.8707C124.855 95.8244 125.346 95.7549 125.893 95.6606L125.935 95.6517C126.66 95.5199 127.376 95.3455 128.066 95.1318V95.1194L128.111 95.1158C129.352 94.7206 130.404 94.2416 131.331 93.6488L131.413 93.5972C131.94 93.2518 132.377 92.91 132.747 92.5557L132.781 92.5236C133.044 92.2673 133.268 92.0144 133.468 91.7545L133.53 91.6744C133.689 91.4554 133.824 91.2453 133.94 91.0335L133.961 90.9961C134.075 90.7807 134.171 90.5635 134.251 90.3463C134.257 90.3285 134.262 90.3124 134.267 90.2964L134.28 90.2608C134.349 90.0507 134.401 89.8549 134.435 89.6644C134.547 85.3026 134.509 80.9051 134.476 76.6537C134.454 74.1238 134.433 71.5157 134.443 68.9288C133.391 73.3156 127.532 75.3131 122.213 75.3131C122.182 75.3131 122.152 75.3131 122.122 75.3131C116.856 75.29 111.039 73.3031 110.014 69.0143L110.053 82.8208C110.072 83.7252 110.053 84.578 110.033 85.4023C109.935 89.611 109.862 92.65 115.456 94.79C115.928 94.9716 116.421 95.1354 116.925 95.2778C117.333 95.39 117.751 95.4915 118.168 95.5787L118.212 95.5876C118.581 95.6606 118.963 95.7264 119.352 95.7816L119.421 95.7905C119.756 95.8368 120.117 95.8778 120.553 95.9134L120.555 95.9116Z" fill="#192147"/>
<path d="M131.219 73.1023C132.896 72.0466 133.988 70.6775 134.42 69.1001C134.411 71.63 134.433 74.1776 134.454 76.6523C134.49 80.9037 134.525 85.3012 134.413 89.6612C134.379 89.8499 134.328 90.0422 134.258 90.2523L134.23 90.336C134.146 90.5656 134.041 90.7953 133.92 91.0214C133.801 91.2386 133.664 91.4522 133.498 91.6765L133.45 91.7389C133.244 92.0095 133.009 92.2712 132.733 92.5382C132.371 92.8854 131.944 93.2201 131.431 93.5601L131.321 93.6296C131.287 93.6509 131.253 93.6723 131.219 93.6919V73.1023Z" fill="#F1EEEA"/>
<path d="M131.095 63.1875C135.791 66.0147 135.631 70.519 130.735 73.25C125.839 75.981 118.063 75.9009 113.366 73.0737C108.67 70.2466 108.83 65.7423 113.726 63.0113C118.622 60.282 126.398 60.3604 131.095 63.1875ZM130.324 63.6184C126.035 61.0369 118.935 60.9657 114.465 63.4581C109.994 65.9506 109.848 70.0632 114.135 72.6447C118.424 75.2262 125.524 75.2974 129.994 72.8049C134.465 70.3124 134.611 66.1999 130.324 63.6184Z" fill="white"/>
<path d="M122.191 75.308C118.96 75.308 115.738 74.5799 113.33 73.1307C111.073 71.7723 109.846 69.9795 109.878 68.0852C109.91 66.1286 111.265 64.3073 113.692 62.9543C118.599 60.2179 126.421 60.298 131.129 63.1305C133.386 64.4889 134.613 66.2817 134.581 68.176C134.549 70.1326 133.194 71.9539 130.767 73.3069C128.371 74.6439 125.277 75.308 122.191 75.308ZM122.268 61.0831C119.206 61.0831 116.136 61.7436 113.758 63.07C111.374 64.3999 110.044 66.1802 110.012 68.087C109.982 69.9332 111.183 71.6832 113.4 73.0167C118.072 75.8279 125.834 75.9062 130.703 73.1912C133.087 71.8631 134.417 70.0809 134.449 68.1742C134.479 66.328 133.277 64.5779 131.061 63.2445C128.672 61.8059 125.474 61.0831 122.27 61.0831H122.268ZM122.195 74.6885C119.243 74.6885 116.3 74.0226 114.101 72.6998C112.038 71.4589 110.918 69.821 110.947 68.0887C110.977 66.3013 112.214 64.6349 114.431 63.3993C118.912 60.8997 126.056 60.9727 130.356 63.5613C132.419 64.8022 133.539 66.4402 133.511 68.1724C133.48 69.9599 132.243 71.6263 130.026 72.8618C127.837 74.0831 125.013 74.6902 122.195 74.6902V74.6885ZM122.264 61.7009C119.469 61.7009 116.669 62.3027 114.497 63.5133C112.323 64.7257 111.109 66.3511 111.08 68.0887C111.052 69.7712 112.15 71.3681 114.169 72.5841C118.433 75.1496 125.517 75.2208 129.961 72.7443C132.134 71.5319 133.349 69.9065 133.377 68.1689C133.406 66.4864 132.307 64.8895 130.286 63.6735C128.106 62.3614 125.188 61.7009 122.262 61.7009H122.264Z" fill="#192147"/>
<path d="M126.411 82.0537C127.099 82.0537 127.657 81.4957 127.657 80.8075C127.657 80.1192 127.099 79.5612 126.411 79.5612C125.722 79.5612 125.164 80.1192 125.164 80.8075C125.164 81.4957 125.722 82.0537 126.411 82.0537Z" fill="#D66C7B"/>
<path d="M122.85 82.0537C123.538 82.0537 124.096 81.4957 124.096 80.8075C124.096 80.1192 123.538 79.5612 122.85 79.5612C122.162 79.5612 121.604 80.1192 121.604 80.8075C121.604 81.4957 122.162 82.0537 122.85 82.0537Z" fill="#5CABDF"/>
<path d="M119.289 82.0539C119.978 82.0539 120.536 81.4959 120.536 80.8076C120.536 80.1194 119.978 79.5614 119.289 79.5614C118.601 79.5614 118.043 80.1194 118.043 80.8076C118.043 81.4959 118.601 82.0539 119.289 82.0539Z" fill="#63C740"/>
<path d="M119.289 85.6144C119.978 85.6144 120.536 85.0565 120.536 84.3682C120.536 83.6799 119.978 83.1219 119.289 83.1219C118.601 83.1219 118.043 83.6799 118.043 84.3682C118.043 85.0565 118.601 85.6144 119.289 85.6144Z" fill="#C98DEF"/>
<path d="M122.85 85.6144C123.538 85.6144 124.096 85.0565 124.096 84.3682C124.096 83.6799 123.538 83.1219 122.85 83.1219C122.162 83.1219 121.604 83.6799 121.604 84.3682C121.604 85.0565 122.162 85.6144 122.85 85.6144Z" fill="#FAA669"/>
<path d="M119.289 89.1749C119.978 89.1749 120.536 88.6169 120.536 87.9287C120.536 87.2404 119.978 86.6824 119.289 86.6824C118.601 86.6824 118.043 87.2404 118.043 87.9287C118.043 88.6169 118.601 89.1749 119.289 89.1749Z" fill="#3AEFC3"/>
</svg>
