<svg width="160" height="119" viewBox="0 0 160 119" fill="none" xmlns="http://www.w3.org/2000/svg">
<path d="M157.65 72.0811C159.234 72.9956 159.236 74.4962 157.654 75.4149L85.9298 117.096C84.3481 118.014 81.7584 118.019 80.1746 117.104L7.95328 75.4066C6.36952 74.4921 6.36744 72.9914 7.94913 72.0728L47.9922 48.8027C49.5739 47.884 52.1844 47.8424 53.7952 48.7092L80.5176 63.1189C82.1283 63.9877 84.7451 63.9565 86.333 63.0503L111.455 48.7237C113.043 47.8175 115.639 47.8237 117.225 48.7382L157.654 72.079L157.65 72.0811Z" fill="#C5C7D1"/>
<path d="M9.68064 100.256C13.3948 102.443 19.4638 102.48 23.1676 100.344C26.8713 98.2071 26.8713 94.6966 23.1676 92.5475C19.4638 90.3963 13.3948 90.3589 9.68064 92.4602C5.96648 94.5636 5.96648 98.072 9.68064 100.256Z" fill="#C5C7D1"/>
<path d="M156.561 58.9954C158.145 59.9099 158.147 61.4105 156.565 62.3292L84.8407 104.01C83.259 104.929 80.6693 104.933 79.0855 104.018L6.86416 62.3209C5.28039 61.4064 5.27831 59.9078 6.86208 58.9913L43.0538 38.0116C44.6355 37.095 47.2211 37.1012 48.7986 38.0261L78.94 55.7073C80.5175 56.6322 83.101 56.6364 84.6806 55.7136L114.737 38.1799C116.316 37.2592 118.906 37.253 120.49 38.1675L156.561 58.9933V58.9954Z" fill="white"/>
<path d="M157.673 61.0321L157.737 64.9583C157.625 65.534 157.374 66.0515 156.931 66.4859L85.2418 108.102C84.24 108.709 83.1426 108.982 81.96 108.975L81.9641 104.667C82.9888 104.64 84.0093 104.403 85.0236 103.904L156.858 62.1358C157.208 61.8136 157.476 61.4437 157.671 61.0321H157.673Z" fill="#8C8679"/>
<path d="M81.9662 104.667L81.962 109.002C81.1099 109.046 80.1767 108.851 79.1645 108.431L7.02629 66.7852C6.34664 66.4526 5.90186 65.9205 5.7439 65.1495L5.79793 60.6372C5.7439 61.2399 6.07229 61.8281 6.98472 62.3955L79.4638 104.23C80.3388 104.521 81.166 104.644 81.9662 104.667Z" fill="#F1EEEA"/>
<path d="M84.6808 55.8278C83.1012 56.7486 80.5177 56.7402 78.9443 55.8091L48.7655 37.9886C47.19 37.0596 44.6086 37.0492 43.0269 37.9679L6.85806 58.987C5.27638 59.9057 5.27845 61.4063 6.86222 62.3208L79.0835 104.018C80.6673 104.933 83.257 104.929 84.8387 104.01L156.563 62.3291C158.145 61.4105 158.143 59.9098 156.559 58.9953L120.617 38.2443C119.033 37.3298 116.443 37.3339 114.864 38.2547L84.6808 55.8278Z" stroke="#192147" stroke-width="0.155882" stroke-miterlimit="10"/>
<path d="M5.76671 64.8626C5.69396 65.5485 6.10757 66.2469 7.00753 66.7665L78.9441 108.3C80.6069 109.26 83.3234 109.256 84.984 108.291L156.424 66.7748C157.293 66.2697 157.706 65.5984 157.665 64.9354" stroke="#192147" stroke-width="0.155882" stroke-miterlimit="10"/>
<path d="M5.75635 60.5958V65.0062" stroke="#192147" stroke-width="0.155882" stroke-miterlimit="10"/>
<path d="M157.654 60.868L157.663 65.081" stroke="#192147" stroke-width="0.155882" stroke-miterlimit="10"/>
<path d="M80.63 100.14C81.2244 100.483 82.1971 100.483 82.7915 100.14L113.428 82.5022C114.022 82.1592 114.022 81.6001 113.428 81.2572L82.7915 63.6196C82.1971 63.2767 81.2244 63.2788 80.63 63.6196L50.0874 81.253C49.493 81.596 49.493 82.1572 50.0874 82.5001L80.63 100.136V100.14Z" fill="#8C8679"/>
<path d="M82.935 99.868L112.162 82.9828L82.378 65.5697C81.9665 65.3286 81.4573 65.3307 81.0478 65.576L51.6006 83.1283L80.6633 99.9407C81.2806 100.296 82.2637 100.286 82.935 99.868Z" fill="#F1EEEA"/>
<path d="M51.4553 83.1278L81.0376 65.6337C81.445 65.3926 81.9521 65.3905 82.3616 65.6295L112.268 83.0551" stroke="black" stroke-width="0.155882" stroke-miterlimit="10"/>
<path d="M81.7128 63.5222C82.0953 63.5222 82.4507 63.6053 82.7146 63.757L113.351 81.3946C113.588 81.5317 113.719 81.7043 113.719 81.8809C113.719 82.0576 113.588 82.2322 113.351 82.3673L82.7146 100.005C82.4507 100.157 82.0953 100.24 81.7128 100.24C81.3304 100.24 80.9729 100.157 80.709 100.003L50.1664 82.3673C49.9295 82.2301 49.7985 82.0576 49.7985 81.8789C49.7985 81.7001 49.9295 81.5276 50.1664 81.3904L80.709 63.757C80.9729 63.6053 81.3304 63.5201 81.7128 63.5201M81.7128 63.3642C81.32 63.3642 80.9293 63.4494 80.63 63.6219L50.0874 81.2553C49.493 81.5983 49.493 82.1594 50.0874 82.5024L80.63 100.138C80.9272 100.31 81.32 100.396 81.7128 100.396C82.1057 100.396 82.4943 100.31 82.7915 100.14L113.428 82.5024C114.022 82.1594 114.022 81.6003 113.428 81.2574L82.7915 63.6198C82.4943 63.4494 82.1036 63.3642 81.7128 63.3642Z" fill="black"/>
<path d="M43.7713 78.9837C44.3658 79.3267 45.3385 79.3267 45.9329 78.9837L76.569 61.3462C77.1634 61.0032 77.1634 60.4441 76.569 60.1012L45.9329 42.4636C45.3385 42.1207 44.3658 42.1228 43.7713 42.4636L13.2288 60.097C12.6344 60.44 12.6344 61.0012 13.2288 61.3441L43.7713 78.9796V78.9837Z" fill="#8C8679"/>
<path d="M46.0742 78.7116L75.3011 61.8264L45.5172 44.4133C45.1056 44.1722 44.5964 44.1743 44.187 44.4196L14.7397 61.9719L43.8025 78.7843C44.4197 79.1398 45.4028 79.1294 46.0742 78.7116Z" fill="#F1EEEA"/>
<path d="M14.5942 61.9718L44.1765 44.4777C44.5839 44.2366 45.0911 44.2345 45.5005 44.4735L75.4071 61.8991" stroke="black" stroke-width="0.155882" stroke-miterlimit="10"/>
<path d="M44.852 42.3661C45.2344 42.3661 45.5898 42.4492 45.8538 42.6009L76.4899 60.2385C76.7268 60.3757 76.8577 60.5482 76.8577 60.7249C76.8577 60.9015 76.7268 61.0761 76.4899 61.2112L45.8538 78.8488C45.5898 79.0005 45.2344 79.0836 44.852 79.0836C44.4696 79.0836 44.1121 79.0005 43.8481 78.8467L13.3056 61.2112C13.0686 61.074 12.9377 60.9015 12.9377 60.7228C12.9377 60.544 13.0686 60.3715 13.3056 60.2344L43.8481 42.6009C44.1121 42.4492 44.4696 42.364 44.852 42.364M44.852 42.2081C44.4592 42.2081 44.0684 42.2933 43.7691 42.4659L13.2266 60.0993C12.6322 60.4422 12.6322 61.0034 13.2266 61.3463L43.7691 78.9818C44.0663 79.1543 44.4592 79.2395 44.852 79.2395C45.2448 79.2395 45.6335 79.1543 45.9307 78.9839L76.5668 61.3463C77.1612 61.0034 77.1612 60.4443 76.5668 60.1013L45.9307 42.4638C45.6335 42.2933 45.2427 42.2081 44.852 42.2081Z" fill="black"/>
<path d="M117.709 78.7655C118.304 79.1085 119.276 79.1085 119.871 78.7655L150.507 61.1279C151.101 60.785 151.101 60.2259 150.507 59.883L119.871 42.2454C119.276 41.9025 118.304 41.9045 117.709 42.2454L87.1668 59.8788C86.5723 60.2218 86.5723 60.7829 87.1668 61.1259L117.709 78.7613V78.7655Z" fill="#8C8679"/>
<path d="M120.012 78.4932L149.239 61.608L119.455 44.1949C119.044 43.9538 118.534 43.9559 118.125 44.2011L88.6777 61.7535L117.74 78.5659C118.358 78.9213 119.341 78.9109 120.012 78.4932Z" fill="#F1EEEA"/>
<path d="M88.532 61.7534L118.114 44.2592C118.522 44.0181 119.029 44.0161 119.438 44.2551L149.345 61.6806" stroke="black" stroke-width="0.155882" stroke-miterlimit="10"/>
<path d="M118.79 42.1477C119.173 42.1477 119.528 42.2308 119.792 42.3825L150.428 60.0201C150.665 60.1573 150.796 60.3298 150.796 60.5065C150.796 60.6831 150.665 60.8577 150.428 60.9928L119.792 78.6304C119.528 78.7821 119.173 78.8652 118.79 78.8652C118.408 78.8652 118.05 78.7821 117.786 78.6283L87.2438 60.9928C87.0069 60.8556 86.8759 60.6831 86.8759 60.5044C86.8759 60.3256 87.0069 60.1531 87.2438 60.0159L117.786 42.3825C118.05 42.2308 118.408 42.1456 118.79 42.1456M118.79 41.9897C118.397 41.9897 118.007 42.0749 117.707 42.2474L87.1648 59.8808C86.5704 60.2238 86.5704 60.785 87.1648 61.1279L117.707 78.7634C118.005 78.9359 118.397 79.0211 118.79 79.0211C119.183 79.0211 119.572 78.9359 119.869 78.7655L150.505 61.1279C151.099 60.785 151.099 60.2259 150.505 59.8829L119.869 42.2454C119.572 42.0749 119.181 41.9897 118.79 41.9897Z" fill="black"/>
<g opacity="0.51">
<path d="M15.2864 19.7318L104.927 47.032C107.872 48.0733 112.056 47.6244 115.07 45.8328C118.599 51.6544 123.059 53.1634 127.393 53.2486C139.934 51.721 142.443 38.4169 135.027 31.4376C139.498 20.9685 131.425 14.6376 124.666 13.8811L15.5774 12.0271L15.2864 19.7339V19.7318Z" fill="#BEE8EE"/>
<path d="M15.3007 19.3183L15.2861 19.7319L15.6831 19.8545" stroke="black" stroke-width="0.155882" stroke-miterlimit="10" stroke-dasharray="1.48 1.48"/>
<path d="M16.4751 20.0957L104.927 47.0343C107.641 47.9945 111.407 47.6869 114.34 46.2299" stroke="black" stroke-width="0.155882" stroke-miterlimit="10" stroke-dasharray="1.48 1.48"/>
<path d="M114.708 46.0386C114.831 45.972 114.951 45.9035 115.07 45.8328C115.142 45.9533 115.215 46.0697 115.288 46.1861" stroke="black" stroke-width="0.155882" stroke-miterlimit="10" stroke-dasharray="1.48 1.48"/>
<path d="M115.741 46.8741C119.154 51.8374 123.329 53.1675 127.392 53.2486C139.591 51.7625 142.297 39.1361 135.611 32.0237" stroke="black" stroke-width="0.155882" stroke-miterlimit="10" stroke-dasharray="1.48 1.48"/>
<path d="M135.324 31.7266C135.226 31.6289 135.126 31.5333 135.025 31.4377C135.079 31.3088 135.133 31.1821 135.185 31.0532" stroke="black" stroke-width="0.155882" stroke-miterlimit="10" stroke-dasharray="1.48 1.48"/>
<path d="M135.478 30.2737C138.893 20.4989 131.171 14.6086 124.666 13.8791L16.4087 12.0396" stroke="black" stroke-width="0.155882" stroke-miterlimit="10" stroke-dasharray="1.48 1.48"/>
<path d="M15.9929 12.0334L15.5772 12.0272L15.5605 12.4429" stroke="black" stroke-width="0.155882" stroke-miterlimit="10" stroke-dasharray="1.48 1.48"/>
<path d="M15.5313 13.2055L15.3152 18.9358" stroke="black" stroke-width="0.155882" stroke-miterlimit="10" stroke-dasharray="1.48 1.48"/>
</g>
<path opacity="0.5" d="M131.221 60.9052C130.714 60.6101 130.157 60.3606 129.567 60.1549C131.419 58.2677 130.959 55.8089 128.185 54.196C124.857 52.2631 119.401 52.2277 116.063 54.1191C115.122 54.6512 114.446 55.2851 114.037 55.9627C111.056 55.3807 107.633 55.7528 105.27 57.0913C101.932 58.9806 101.932 62.1356 105.27 64.0997C108.358 65.9184 113.259 66.0826 116.612 64.5736C116.722 65.7542 117.551 66.9222 119.102 67.8368C122.44 69.8009 127.896 69.8362 131.223 67.9137C134.551 65.9911 134.551 62.8381 131.223 60.9052H131.221Z" fill="#8C8679"/>
<g clip-path="url(#clip0_3133_20615)">
<path d="M131.35 33.1345C127.586 37.457 121.007 37.9113 116.685 34.1472C112.362 30.3831 111.908 23.8039 115.672 19.4814C119.436 15.159 126.015 14.7047 130.338 18.4688C134.66 22.2329 135.114 28.8121 131.35 33.1345Z" fill="#3E4771" stroke="#192147" stroke-width="0.179265" stroke-miterlimit="10"/>
<path d="M134.232 24.5222C133.817 22.1638 132.62 19.9238 130.673 18.2285C126.151 14.2936 119.299 14.7667 115.362 19.2875C113.431 21.5046 112.561 24.2838 112.712 27.0044L114.982 26.7442C115.002 25.6044 115.404 24.4653 116.21 23.5406C118.023 21.4586 121.193 21.2397 123.274 23.0527C124.077 23.7512 124.603 24.6534 124.842 25.6128L134.232 24.5222Z" fill="#F1EEEA"/>
<path d="M134.232 24.5222C133.817 22.1638 132.62 19.9238 130.673 18.2285C126.151 14.2936 119.299 14.7667 115.362 19.2875C113.431 21.5046 112.561 24.2838 112.712 27.0044L114.982 26.7442C115.002 25.6044 115.404 24.4653 116.21 23.5406C118.023 21.4586 121.193 21.2397 123.274 23.0527C124.077 23.7512 124.603 24.6534 124.842 25.6128L134.232 24.5222Z" fill="#ED6E85" stroke="#192147" stroke-width="0.179265" stroke-miterlimit="10"/>
<path d="M123.581 15.5636C124.648 16.0049 125.665 16.6175 126.584 17.418C128.879 19.4162 130.132 22.1623 130.299 24.9766L134.23 24.5205C133.815 22.1621 132.619 19.922 130.672 18.2268C128.624 16.4436 126.099 15.5693 123.583 15.5618L123.581 15.5636Z" fill="#BC3857"/>
<path d="M124.992 26.7985C125 27.9754 124.596 29.1604 123.763 30.1176C121.95 32.1995 118.78 32.4184 116.698 30.6054C115.865 29.8802 115.331 28.9362 115.104 27.9337L112.841 28.1882C113.235 30.5886 114.438 32.8723 116.419 34.594C120.938 38.5292 127.794 38.0558 131.729 33.5369C133.688 31.2873 134.555 28.4609 134.375 25.7017L124.994 26.7967L124.992 26.7985Z" fill="#F1EEEA"/>
<path d="M127.646 32.7806C125.53 35.2104 122.573 36.4734 119.586 36.5154C123.737 38.1431 128.635 37.0933 131.731 33.5387C133.69 31.2892 134.557 28.4628 134.376 25.7036L130.308 26.1794C130.191 28.5338 129.315 30.8678 127.648 32.7821L127.646 32.7806Z" fill="#E2DED5"/>
<path d="M124.992 26.7985C125 27.9754 124.596 29.1604 123.763 30.1176C121.95 32.1995 118.78 32.4184 116.698 30.6054C115.865 29.8802 115.331 28.9362 115.104 27.9337L112.841 28.1882C113.235 30.5886 114.438 32.8723 116.419 34.594C120.938 38.5292 127.794 38.0558 131.729 33.5369C133.688 31.2873 134.555 28.4609 134.375 25.7017L124.994 26.7967L124.992 26.7985Z" stroke="#192147" stroke-width="0.179265" stroke-miterlimit="10"/>
<path d="M123.041 29.4898C121.574 31.1752 119.011 31.3522 117.326 29.8845C115.64 28.4169 115.463 25.854 116.931 24.1686C118.399 22.4832 120.963 22.3078 122.647 23.7739C124.33 25.24 124.508 27.8063 123.041 29.4898Z" fill="#E2DED5"/>
<path d="M117.324 29.8831C117.841 30.3336 118.439 30.6261 119.064 30.771C120.145 30.6573 121.188 30.1584 121.958 29.2751C123.521 27.4798 123.379 24.779 121.679 23.1497C120.086 22.416 118.136 22.7811 116.929 24.1672C115.461 25.8526 115.64 28.417 117.324 29.8831Z" fill="#F1EEEA"/>
<path d="M123.041 29.4898C121.574 31.1752 119.011 31.3522 117.326 29.8845C115.64 28.4169 115.463 25.854 116.931 24.1686C118.399 22.4832 120.963 22.3078 122.647 23.7739C124.33 25.24 124.508 27.8063 123.041 29.4898Z" stroke="#192147" stroke-width="0.179265" stroke-miterlimit="10"/>
<path d="M121.501 24.3576C121.2 24.0955 120.862 23.9054 120.506 23.7792C119.477 23.6062 118.385 23.951 117.65 24.7946C116.529 26.0816 116.665 28.0409 117.952 29.1616C118.253 29.4238 118.591 29.6139 118.947 29.7401C119.976 29.913 121.068 29.5682 121.803 28.7246C122.924 27.4376 122.788 25.4784 121.501 24.3576Z" fill="white"/>
<path d="M121.944 24.4323C121.412 23.998 120.778 23.769 120.135 23.7388C119.324 23.7898 118.532 24.146 117.956 24.8076C116.816 26.1162 116.954 28.1092 118.263 29.2488C118.569 29.5156 118.913 29.7104 119.274 29.8379C120.321 30.0147 121.432 29.6635 122.178 28.8073C123.297 27.5221 123.182 25.5835 121.942 24.4341L121.944 24.4323Z" fill="#F1EEEA"/>
<path d="M120.624 23.7998C120.83 23.9093 121.027 24.043 121.211 24.2032C122.532 25.3537 122.671 27.3669 121.521 28.6882C120.875 29.429 119.959 29.7973 119.048 29.7772C120.188 30.139 121.487 29.8188 122.32 28.8617C123.441 27.5747 123.306 25.6154 122.019 24.4947C121.606 24.1352 121.124 23.9059 120.622 23.8016L120.624 23.7998Z" fill="#E2DED5"/>
<path d="M122.32 28.8617C121.2 30.1487 119.24 30.284 117.953 29.1633C116.666 28.0425 116.531 26.0833 117.652 24.7962C118.773 23.5092 120.732 23.3739 122.019 24.4947C123.306 25.6155 123.441 27.5747 122.32 28.8617Z" stroke="#192147" stroke-width="0.179265" stroke-miterlimit="10"/>
</g>
<g clip-path="url(#clip1_3133_20615)">
<path d="M113.034 44.3846C107.945 47.0214 101.659 45.0262 99.0224 39.9371C96.3855 34.848 98.3807 28.5621 103.47 25.9253C108.559 23.2885 114.845 25.2837 117.482 30.3728C120.119 35.4619 118.123 41.7478 113.034 44.3846Z" fill="#3E4771" stroke="#192147" stroke-width="0.179265" stroke-miterlimit="10"/>
<path d="M118.879 37.4341C119.36 35.0881 119.07 32.5651 117.882 30.2731C115.122 24.9516 108.576 22.8736 103.253 25.6314C100.643 26.9839 98.812 29.2488 97.9523 31.8343L100.16 32.4269C100.597 31.374 101.39 30.4624 102.479 29.8983C104.93 28.6283 107.958 29.5896 109.228 32.0408C109.718 32.9852 109.876 34.0177 109.746 34.9978L118.879 37.4341Z" fill="#F1EEEA"/>
<path d="M118.879 37.4341C119.36 35.0881 119.07 32.5651 117.882 30.2731C115.122 24.9516 108.576 22.8736 103.253 25.6314C100.643 26.9839 98.812 29.2488 97.9523 31.8343L100.16 32.4269C100.597 31.374 101.39 30.4624 102.479 29.8983C104.93 28.6283 107.958 29.5896 109.228 32.0408C109.718 32.9852 109.876 34.0177 109.746 34.9978L118.879 37.4341Z" fill="#ED6E85" stroke="#192147" stroke-width="0.179265" stroke-miterlimit="10"/>
<path d="M112.265 25.1884C113.095 25.9911 113.816 26.9343 114.376 28.0166C115.776 30.7183 115.933 33.7328 115.054 36.4117L118.878 37.4321C119.358 35.0861 119.069 32.563 117.881 30.271C116.632 27.8602 114.605 26.119 112.267 25.1873L112.265 25.1884Z" fill="#BC3857"/>
<path d="M109.449 36.1553C109.024 37.2529 108.213 38.2064 107.086 38.7903C104.635 40.0604 101.606 39.0991 100.336 36.6479C99.8281 35.6674 99.6779 34.593 99.8354 33.5773L97.6375 32.9825C97.1222 35.36 97.4018 37.9259 98.6113 40.2551C101.368 45.5755 107.918 47.6546 113.238 44.8979C115.887 43.5256 117.732 41.2155 118.578 38.5832L109.451 36.1542L109.449 36.1553Z" fill="#F1EEEA"/>
<path d="M109.72 42.6938C106.859 44.176 103.644 44.264 100.851 43.2053C104.113 46.2446 109.055 47.0682 113.24 44.8998C115.888 43.5275 117.733 41.2175 118.579 38.5851L114.621 37.5324C113.647 39.6792 111.974 41.5281 109.721 42.6959L109.72 42.6938Z" fill="#E2DED5"/>
<path d="M109.449 36.1553C109.024 37.2529 108.213 38.2064 107.086 38.7903C104.635 40.0604 101.606 39.0991 100.336 36.6479C99.8281 35.6674 99.6779 34.593 99.8354 33.5773L97.6375 32.9825C97.1222 35.36 97.4018 37.9259 98.6113 40.2551C101.368 45.5755 107.918 47.6546 113.238 44.8979C115.887 43.5256 117.732 41.2155 118.578 38.5832L109.451 36.1542L109.449 36.1553Z" stroke="#192147" stroke-width="0.179265" stroke-miterlimit="10"/>
<path d="M106.646 37.9417C104.662 38.9698 102.213 38.1926 101.185 36.2083C100.157 34.224 100.934 31.7754 102.918 30.7473C104.903 29.7192 107.352 30.4985 108.38 32.4807C109.407 34.4629 108.628 36.9147 106.646 37.9417Z" fill="#E2DED5"/>
<path d="M101.184 36.2058C101.499 36.8149 101.948 37.3066 102.476 37.671C103.524 37.9627 104.677 37.882 105.717 37.3432C107.831 36.248 108.691 33.6838 107.708 31.5438C106.497 30.2763 104.549 29.8992 102.917 30.7448C100.933 31.7729 100.157 34.2236 101.184 36.2058Z" fill="#F1EEEA"/>
<path d="M106.646 37.9417C104.662 38.9698 102.213 38.1926 101.185 36.2083C100.157 34.224 100.934 31.7754 102.918 30.7473C104.903 29.7192 107.352 30.4985 108.38 32.4807C109.407 34.4629 108.628 36.9147 106.646 37.9417Z" stroke="#192147" stroke-width="0.179265" stroke-miterlimit="10"/>
<path d="M107.1 32.6027C106.916 32.2483 106.671 31.9471 106.386 31.6989C105.493 31.1602 104.351 31.0794 103.357 31.594C101.842 32.3791 101.248 34.251 102.033 35.7662C102.217 36.1207 102.461 36.4218 102.746 36.67C103.639 37.2088 104.782 37.2896 105.775 36.775C107.291 35.9899 107.885 34.118 107.1 32.6027Z" fill="white"/>
<path d="M107.483 32.8342C107.149 32.235 106.643 31.789 106.056 31.5248C105.283 31.2741 104.416 31.3144 103.637 31.7179C102.096 32.5162 101.492 34.4203 102.29 35.9611C102.477 36.3219 102.725 36.6294 103.014 36.8807C103.923 37.4299 105.085 37.5115 106.093 36.9892C107.607 36.2052 108.212 34.3599 107.481 32.8353L107.483 32.8342Z" fill="#F1EEEA"/>
<path d="M106.489 31.7616C106.64 31.939 106.774 32.1359 106.886 32.3524C107.692 33.908 107.082 35.8315 105.526 36.6375C104.654 37.0894 103.666 37.0951 102.826 36.7416C103.753 37.4968 105.079 37.6766 106.206 37.0927C107.722 36.3076 108.316 34.4357 107.531 32.9204C107.279 32.4344 106.915 32.0441 106.487 31.7627L106.489 31.7616Z" fill="#E2DED5"/>
<path d="M106.206 37.0925C104.691 37.8776 102.819 37.2834 102.034 35.7681C101.249 34.2529 101.843 32.381 103.358 31.5959C104.873 30.8107 106.745 31.4049 107.53 32.9202C108.316 34.4355 107.721 36.3074 106.206 37.0925Z" stroke="#192147" stroke-width="0.179265" stroke-miterlimit="10"/>
</g>
<g clip-path="url(#clip2_3133_20615)">
<path d="M126.757 50.8789C121.026 50.8789 116.362 46.2156 116.362 40.4839C116.362 34.7522 121.026 30.089 126.757 30.089C132.489 30.089 137.152 34.7522 137.152 40.4839C137.152 46.2156 132.489 50.8789 126.757 50.8789Z" fill="#3E4771" stroke="#192147" stroke-width="0.179265" stroke-miterlimit="10"/>
<path d="M135.144 47.3963C136.65 45.5343 137.554 43.1609 137.554 40.5794C137.551 34.5848 132.694 29.728 126.7 29.728C123.76 29.728 121.092 30.8968 119.14 32.797L120.827 34.3387C121.7 33.6049 122.823 33.1603 124.049 33.1603C126.81 33.1603 129.057 35.4071 129.057 38.1677C129.057 39.2314 128.722 40.2209 128.155 41.0312L135.144 47.3963Z" fill="#F1EEEA"/>
<path d="M135.144 47.3963C136.65 45.5343 137.554 43.1609 137.554 40.5794C137.551 34.5848 132.694 29.728 126.7 29.728C123.76 29.728 121.092 30.8968 119.14 32.797L120.827 34.3387C121.7 33.6049 122.823 33.1603 124.049 33.1603C126.81 33.1603 129.057 35.4071 129.057 38.1677C129.057 39.2314 128.722 40.2209 128.155 41.0312L135.144 47.3963Z" fill="#ED6E85" stroke="#192147" stroke-width="0.179265" stroke-miterlimit="10"/>
<path d="M134.905 33.481C135.274 34.5757 135.479 35.7445 135.479 36.9635C135.479 40.0062 134.231 42.755 132.219 44.7293L135.144 47.3943C136.65 45.5324 137.554 43.1589 137.554 40.5775C137.554 37.8622 136.555 35.3836 134.908 33.481H134.905Z" fill="#BC3857"/>
<path d="M127.36 41.923C126.478 42.7022 125.319 43.1755 124.049 43.1755C121.289 43.1755 119.042 40.9287 119.042 38.168C119.042 37.0637 119.403 36.0407 120.01 35.2113L118.332 33.6721C116.781 35.546 115.849 37.9529 115.851 40.5773C115.851 46.5695 120.71 51.4288 126.703 51.4288C129.686 51.4288 132.386 50.2265 134.349 48.2785L127.362 41.923H127.36Z" fill="#F1EEEA"/>
<path d="M124.592 47.8528C121.37 47.8528 118.475 46.4521 116.482 44.2269C117.98 48.4264 121.989 51.4309 126.702 51.4309C129.685 51.4309 132.386 50.2286 134.349 48.2806L131.318 45.5247C129.465 46.9828 127.13 47.8552 124.592 47.8552V47.8528Z" fill="#E2DED5"/>
<path d="M127.36 41.923C126.478 42.7022 125.319 43.1755 124.049 43.1755C121.289 43.1755 119.042 40.9287 119.042 38.168C119.042 37.0637 119.403 36.0407 120.01 35.2113L118.332 33.6721C116.781 35.546 115.849 37.9529 115.851 40.5773C115.851 46.5695 120.71 51.4288 126.703 51.4288C129.686 51.4288 132.386 50.2265 134.349 48.2785L127.362 41.923H127.36Z" stroke="#192147" stroke-width="0.179265" stroke-miterlimit="10"/>
<path d="M124.049 42.2192C121.814 42.2192 119.998 40.4027 119.998 38.1678C119.998 35.933 121.814 34.1165 124.049 34.1165C126.284 34.1165 128.101 35.9354 128.101 38.1678C128.101 40.4003 126.282 42.2192 124.049 42.2192Z" fill="#E2DED5"/>
<path d="M119.998 38.1655C119.998 38.8515 120.17 39.4944 120.471 40.0609C121.267 40.8019 122.328 41.2608 123.5 41.2608C125.88 41.2608 127.823 39.3797 127.936 37.0278C127.443 35.3451 125.887 34.1141 124.049 34.1141C121.814 34.1141 119.998 35.933 119.998 38.1655Z" fill="#F1EEEA"/>
<path d="M124.049 42.2192C121.814 42.2192 119.998 40.4027 119.998 38.1678C119.998 35.933 121.814 34.1165 124.049 34.1165C126.284 34.1165 128.101 35.9354 128.101 38.1678C128.101 40.4003 126.282 42.2192 124.049 42.2192Z" stroke="#192147" stroke-width="0.179265" stroke-miterlimit="10"/>
<path d="M126.908 37.6874C126.908 37.2883 126.829 36.9082 126.691 36.5569C126.146 35.6677 125.168 35.0702 124.049 35.0702C122.343 35.0702 120.954 36.4589 120.954 38.1655C120.954 38.5646 121.033 38.9447 121.172 39.296C121.717 40.1852 122.694 40.7827 123.813 40.7827C125.519 40.7827 126.908 39.394 126.908 37.6874Z" fill="white"/>
<path d="M127.142 38.0698C127.121 37.3838 126.877 36.7552 126.478 36.2508C125.907 35.6724 125.118 35.3091 124.241 35.3091C122.505 35.3091 121.093 36.7217 121.093 38.457C121.093 38.8633 121.172 39.2505 121.313 39.6067C121.867 40.5126 122.861 41.1197 123.997 41.1197C125.701 41.1197 127.087 39.7597 127.14 38.0698H127.142Z" fill="#F1EEEA"/>
<path d="M126.753 36.6596C126.805 36.8866 126.834 37.1233 126.834 37.3671C126.834 39.1191 125.407 40.546 123.655 40.546C122.673 40.546 121.793 40.0967 121.21 39.3963C121.685 40.4934 122.78 41.2631 124.049 41.2631C125.756 41.2631 127.145 39.8744 127.145 38.1678C127.145 37.6204 127.001 37.1065 126.75 36.6596H126.753Z" fill="#E2DED5"/>
<path d="M124.049 41.2631C122.343 41.2631 120.954 39.8744 120.954 38.1678C120.954 36.4612 122.343 35.0725 124.049 35.0725C125.756 35.0725 127.145 36.4612 127.145 38.1678C127.145 39.8744 125.756 41.2631 124.049 41.2631Z" stroke="#192147" stroke-width="0.179265" stroke-miterlimit="10"/>
</g>
<path opacity="0.5" d="M71.4705 88.4507L81.3201 85.8901L95.9107 90.0844L106.673 82.4752L90.2408 78.8775L80.6093 79.6382L71.4705 88.4507Z" fill="#8C8679"/>
<g clip-path="url(#clip3_3133_20615)">
<path d="M72.5032 75.0715L83.3463 68.4796L94.2872 75.0715L83.3952 81.3605L72.5032 75.0715Z" fill="#02BE9E"/>
<path opacity="0.75" d="M83.3698 57.3939L83.3952 68.4793L72.5032 75.0712L83.3698 57.3939Z" fill="#02BE9E"/>
<path opacity="0.75" d="M83.3696 57.3939L83.395 68.4793L94.287 75.0712L83.3696 57.3939Z" fill="#02BE9E"/>
<path opacity="0.5" d="M83.3696 57.3939L83.395 81.3602L94.287 75.0712L83.3696 57.3939Z" fill="#02BE9E"/>
<path opacity="0.25" d="M83.3698 57.3939L83.3952 81.3602L72.5032 75.0712L83.3698 57.3939Z" fill="#02BE9E"/>
<path d="M83.3931 81.2258L83.3462 57.5896" stroke="white" stroke-width="0.146529" stroke-miterlimit="10"/>
<path d="M72.5032 75.0712L83.3463 57.3939L94.2872 75.0712L83.3952 81.3602L72.5032 75.0712Z" stroke="#192147" stroke-width="0.146529" stroke-miterlimit="10"/>
</g>
<g clip-path="url(#clip4_3133_20615)">
<path d="M60.5273 82.049L71.3705 75.4571L82.3114 82.049L71.4194 88.338L60.5273 82.049Z" fill="#02BE9E"/>
<path opacity="0.5" d="M71.394 64.3716L71.4194 75.457L60.5273 82.0489L71.394 64.3716Z" fill="#02BE9E"/>
<path opacity="0.75" d="M71.3938 64.3717L71.4192 75.4571L82.3112 82.049L71.3938 64.3717Z" fill="#02BE9E"/>
<path opacity="0.5" d="M71.3938 64.3717L71.4192 88.338L82.3112 82.049L71.3938 64.3717Z" fill="#02BE9E"/>
<path opacity="0.25" d="M71.394 64.3716L71.4194 88.3379L60.5273 82.0489L71.394 64.3716Z" fill="#02BE9E"/>
<path d="M71.4173 88.2032L71.3704 64.5671" stroke="white" stroke-width="0.146529" stroke-miterlimit="10"/>
<path d="M60.5273 82.0489L71.3705 64.3716L82.3114 82.0489L71.4194 88.3379L60.5273 82.0489Z" stroke="#192147" stroke-width="0.146529" stroke-miterlimit="10"/>
</g>
<path d="M103.019 81.6623L90.2407 78.8772L81.3201 85.8898L95.9107 90.0841L103.019 81.6623Z" fill="#02BE9E"/>
<path opacity="0.75" d="M92.0759 66.5791L95.9106 90.084L103.019 81.6622L92.0759 66.5791Z" fill="#02BE9E"/>
<path opacity="0.5" d="M92.0757 66.5791L103.019 81.6622L90.2405 78.8771L92.0757 66.5791Z" fill="#02BE9E"/>
<path opacity="0.75" d="M92.076 66.5791L81.3201 85.8898L90.2407 78.8771L92.076 66.5791Z" fill="#02BE9E"/>
<path opacity="0.5" d="M92.076 66.5791L95.9107 90.084L81.3201 85.8898L92.076 66.5791Z" fill="#02BE9E"/>
<path d="M95.9106 90.084L92.0759 66.5791" stroke="white" stroke-width="0.155882" stroke-linejoin="round"/>
<path d="M92.076 66.5791L103.019 81.6622L95.9107 90.084L81.3201 85.8898L92.076 66.5791Z" stroke="black" stroke-width="0.155882" stroke-linejoin="round"/>
<path d="M29.9431 64.809L43.9663 60.7727L54.109 66.9893L67.4131 59.2471L47.1297 50.3036L29.9431 64.809Z" fill="#A49DD4"/>
<g clip-path="url(#clip5_3133_20615)">
<path d="M52.7036 51.8037L41.8376 58.0103V55.828L52.7036 50.3219V51.8037Z" fill="#7067AB"/>
<path d="M41.8374 58.0102L31.9427 52.0917L31.875 50.0664L41.8374 55.8278V58.0102Z" fill="#A49DD4"/>
<path d="M42.4966 56.2079L53.5677 49.8224V39.2358L42.5075 45.6192L42.4966 56.2079Z" fill="#9A97F1"/>
<path d="M43.3803 46.1231L52.6946 40.7458V49.3181L43.3716 54.6954L43.3803 46.1231Z" fill="#7067AB" stroke="black" stroke-width="0.163676" stroke-linejoin="round"/>
<path d="M43.3803 46.123L51.8784 41.2192L51.8217 48.9513L43.3716 53.6433L43.3803 46.123Z" fill="#323A60"/>
<path d="M43.3803 46.123L51.8784 41.217L51.8238 42.8385C49.0195 43.7551 46.2021 45.3766 43.3716 47.5306L43.3803 46.1208V46.123Z" fill="#192147"/>
<path d="M43.3803 46.123L51.8784 41.2192L51.8217 48.9513L43.3716 53.6433L43.3803 46.123Z" stroke="black" stroke-width="0.163676" stroke-linejoin="round"/>
<path d="M31.4932 49.8461L42.4966 56.2077L42.5075 45.6189L32.7808 39.9579C32.2919 39.469 31.5324 40.1543 31.5303 40.7959L31.4932 49.8461Z" fill="#DECEFD"/>
<path d="M40.9712 55.3499L42.4967 56.2076L42.5076 45.6188L40.9712 44.7066V55.3499Z" fill="#B3B1FD"/>
<path d="M43.8191 33.6595L53.5699 39.2333L42.5097 45.6166L32.2483 39.7046L42.5097 33.6639C42.9134 33.4282 43.4132 33.426 43.8191 33.6595Z" fill="#EAE0FF"/>
<path d="M51.9223 38.3298L53.5699 39.2333L42.5098 45.6166L40.9734 44.7066C40.9734 44.7066 48.8517 40.1193 51.9223 38.3298Z" fill="#DECEFD"/>
<path d="M31.5352 41.1974L31.5024 49.8461L31.8756 50.0665L31.9433 52.0917L41.8381 58.0103L52.704 51.8058V50.324L53.5682 49.8243V39.2355M53.5682 39.2355L42.508 45.6189L32.814 39.9775M53.5682 39.2355L43.9026 33.653C43.4945 33.4174 42.9903 33.4195 42.5844 33.6574L31.9913 39.8858" stroke="black" stroke-width="0.163676" stroke-linejoin="round"/>
<path d="M31.4932 49.8461L42.4966 56.2077V45.6189" stroke="black" stroke-width="0.163676" stroke-linejoin="round"/>
<path d="M53.5679 49.8221L42.4968 56.2076" stroke="black" stroke-width="0.163676" stroke-linejoin="round"/>
<path d="M51.9222 38.3298L40.9712 44.7066V55.3499" stroke="black" stroke-width="0.163676" stroke-linejoin="round"/>
<path d="M41.8376 55.828V58.0104" stroke="black" stroke-width="0.163676" stroke-linejoin="round"/>
<path d="M52.695 49.3182L51.822 48.9516" stroke="black" stroke-width="0.163676" stroke-linejoin="round"/>
<path d="M31.5282 41.4877C31.5282 41.4877 31.4496 39.1351 32.8136 39.9775" stroke="black" stroke-width="0.163676" stroke-linejoin="round"/>
<path d="M39.293 45.6189V52.6046L34.6555 49.9443V43L39.293 45.6189Z" fill="#C6B4EB"/>
<path d="M39.293 52.1812V52.6046L34.6555 49.9443V43L35.0287 43.2204V49.8221L39.293 52.1812Z" fill="#A49DD4"/>
<path d="M39.293 45.6189V52.6046L34.6555 49.9443V43L39.293 45.6189Z" stroke="black" stroke-width="0.163676" stroke-miterlimit="10"/>
<path d="M35.0286 43.1682V49.8221L39.2449 52.1485" stroke="black" stroke-width="0.163676" stroke-miterlimit="10"/>
<path d="M34.6555 49.9443L35.0287 49.8221" stroke="black" stroke-width="0.163676" stroke-miterlimit="10"/>
<path d="M36.2901 50.0578L35.4456 49.6039V48.3491L36.2901 48.803V50.0578Z" fill="#F9AE3B" stroke="black" stroke-width="0.163676" stroke-linejoin="round"/>
<path d="M36.2901 48.5301L35.4456 48.0761V46.8213L36.2901 47.2752V48.5301Z" fill="#F5911E" stroke="black" stroke-width="0.163676" stroke-linejoin="round"/>
<path d="M37.3901 44.543V51.125" stroke="black" stroke-width="0.163676" stroke-miterlimit="10"/>
<path d="M39.2451 50.3219L37.3901 49.3595" stroke="black" stroke-width="0.163676" stroke-miterlimit="10"/>
</g>
<g clip-path="url(#clip6_3133_20615)">
<path d="M40.8147 58.6189L29.9487 64.8255V62.6432L40.8147 57.1371V58.6189Z" fill="#7067AB"/>
<path d="M29.949 64.8254L20.0542 58.9069L19.9866 56.8817L29.949 62.6431V64.8254Z" fill="#A49DD4"/>
<path d="M30.6079 63.0229L41.679 56.6373V46.0507L30.6188 52.4341L30.6079 63.0229Z" fill="#9A97F1"/>
<path d="M31.4919 52.9383L40.8062 47.561V56.1333L31.4832 61.5106L31.4919 52.9383Z" fill="#7067AB" stroke="black" stroke-width="0.163676" stroke-linejoin="round"/>
<path d="M31.4919 52.9383L39.99 48.0346L39.9332 55.7666L31.4832 60.4587L31.4919 52.9383Z" fill="#323A60"/>
<path d="M31.4919 52.9383L39.99 48.0324L39.9354 49.6539C37.1311 50.5705 34.3137 52.192 31.4832 54.346L31.4919 52.9362V52.9383Z" fill="#192147"/>
<path d="M31.4919 52.9383L39.99 48.0346L39.9332 55.7666L31.4832 60.4587L31.4919 52.9383Z" stroke="black" stroke-width="0.163676" stroke-linejoin="round"/>
<path d="M19.6045 56.6613L30.6079 63.0228L30.6188 52.4341L20.8921 46.7731C20.4032 46.2842 19.6438 46.9695 19.6416 47.6111L19.6045 56.6613Z" fill="#DECEFD"/>
<path d="M29.0825 62.1651L30.608 63.0228L30.6189 52.434L29.0825 51.5218V62.1651Z" fill="#B3B1FD"/>
<path d="M31.9302 40.4749L41.681 46.0487L30.6208 52.432L20.3594 46.52L30.6208 40.4793C31.0245 40.2436 31.5243 40.2414 31.9302 40.4749Z" fill="#EAE0FF"/>
<path d="M40.0336 45.145L41.6813 46.0485L30.6211 52.4318L29.0847 51.5218C29.0847 51.5218 36.963 46.9345 40.0336 45.145Z" fill="#DECEFD"/>
<path d="M19.6463 48.0127L19.6135 56.6613L19.9867 56.8817L20.0544 58.9069L29.9491 64.8255L40.8151 58.6211V57.1392L41.6793 56.6395V46.0507M41.6793 46.0507L30.6191 52.4341L20.9251 46.7927M41.6793 46.0507L32.0137 40.4683C31.6056 40.2326 31.1014 40.2348 30.6955 40.4726L20.1024 46.7011" stroke="black" stroke-width="0.163676" stroke-linejoin="round"/>
<path d="M19.6045 56.6613L30.6079 63.0229V52.4341" stroke="black" stroke-width="0.163676" stroke-linejoin="round"/>
<path d="M41.679 56.6373L30.6079 63.0228" stroke="black" stroke-width="0.163676" stroke-linejoin="round"/>
<path d="M40.0336 45.145L29.0825 51.5218V62.1651" stroke="black" stroke-width="0.163676" stroke-linejoin="round"/>
<path d="M29.9487 62.6432V64.8255" stroke="black" stroke-width="0.163676" stroke-linejoin="round"/>
<path d="M40.8063 56.1332L39.9333 55.7666" stroke="black" stroke-width="0.163676" stroke-linejoin="round"/>
<path d="M19.6398 48.3029C19.6398 48.3029 19.5612 45.9503 20.9252 46.7927" stroke="black" stroke-width="0.163676" stroke-linejoin="round"/>
<path d="M27.4043 52.434V59.4197L22.7668 56.7595V49.8152L27.4043 52.434Z" fill="#C6B4EB"/>
<path d="M27.4043 58.9964V59.4197L22.7668 56.7595V49.8152L23.14 50.0356V56.6372L27.4043 58.9964Z" fill="#A49DD4"/>
<path d="M27.4043 52.434V59.4197L22.7668 56.7595V49.8152L27.4043 52.434Z" stroke="black" stroke-width="0.163676" stroke-miterlimit="10"/>
<path d="M23.1401 49.9833V56.6373L27.3564 58.9637" stroke="black" stroke-width="0.163676" stroke-miterlimit="10"/>
<path d="M22.7668 56.7595L23.14 56.6373" stroke="black" stroke-width="0.163676" stroke-miterlimit="10"/>
<path d="M24.4015 56.873L23.5569 56.4191V55.1642L24.4015 55.6182V56.873Z" fill="#F9AE3B" stroke="black" stroke-width="0.163676" stroke-linejoin="round"/>
<path d="M24.4015 55.3453L23.5569 54.8913V53.6365L24.4015 54.0904V55.3453Z" fill="#F5911E" stroke="black" stroke-width="0.163676" stroke-linejoin="round"/>
<path d="M25.5012 51.3582V57.9402" stroke="black" stroke-width="0.163676" stroke-miterlimit="10"/>
<path d="M27.3562 57.1371L25.5012 56.1747" stroke="black" stroke-width="0.163676" stroke-miterlimit="10"/>
</g>
<g clip-path="url(#clip7_3133_20615)">
<path d="M65.1342 58.3466L54.2683 64.5532V62.3709L65.1342 56.8648V58.3466Z" fill="#7067AB"/>
<path d="M54.2681 64.5531L44.3733 58.6346L44.3057 56.6094L54.2681 62.3708V64.5531Z" fill="#A49DD4"/>
<path d="M54.9275 62.7506L65.9986 56.365V45.7784L54.9384 52.1618L54.9275 62.7506Z" fill="#9A97F1"/>
<path d="M55.8112 52.666L65.1255 47.2887V55.861L55.8025 61.2383L55.8112 52.666Z" fill="#7067AB" stroke="black" stroke-width="0.163676" stroke-linejoin="round"/>
<path d="M55.8112 52.666L64.3093 47.7623L64.2526 55.4943L55.8025 60.1864L55.8112 52.666Z" fill="#323A60"/>
<path d="M55.8112 52.666L64.3093 47.7601L64.2547 49.3816C61.4504 50.2982 58.633 51.9197 55.8025 54.0736L55.8112 52.6638V52.666Z" fill="#192147"/>
<path d="M55.8112 52.666L64.3093 47.7623L64.2526 55.4943L55.8025 60.1864L55.8112 52.666Z" stroke="black" stroke-width="0.163676" stroke-linejoin="round"/>
<path d="M43.9241 56.389L54.9275 62.7506L54.9384 52.1618L45.2117 46.5008C44.7228 46.0119 43.9634 46.6972 43.9612 47.3388L43.9241 56.389Z" fill="#DECEFD"/>
<path d="M53.4021 61.8928L54.9276 62.7505L54.9385 52.1617L53.4021 51.2495V61.8928Z" fill="#B3B1FD"/>
<path d="M56.25 40.2026L66.0008 45.7763L54.9406 52.1597L44.6792 46.2477L54.9406 40.207C55.3444 39.9713 55.8441 39.9691 56.25 40.2026Z" fill="#EAE0FF"/>
<path d="M64.3529 44.8727L66.0006 45.7761L54.9404 52.1595L53.4041 51.2495C53.4041 51.2495 61.2823 46.6622 64.3529 44.8727Z" fill="#DECEFD"/>
<path d="M43.9654 47.7403L43.9326 56.389L44.3058 56.6094L44.3735 58.6346L54.2682 64.5532L65.1342 58.3488V56.8669L65.9984 56.3672V45.7784M65.9984 45.7784L54.9382 52.1618L45.2442 46.5204M65.9984 45.7784L56.3327 40.196C55.9246 39.9603 55.4205 39.9624 55.0146 40.2003L44.4215 46.4287" stroke="black" stroke-width="0.163676" stroke-linejoin="round"/>
<path d="M43.9241 56.389L54.9275 62.7506V52.1618" stroke="black" stroke-width="0.163676" stroke-linejoin="round"/>
<path d="M65.9986 56.365L54.9275 62.7505" stroke="black" stroke-width="0.163676" stroke-linejoin="round"/>
<path d="M64.3531 44.8727L53.4021 51.2495V61.8928" stroke="black" stroke-width="0.163676" stroke-linejoin="round"/>
<path d="M54.2683 62.3709V64.5532" stroke="black" stroke-width="0.163676" stroke-linejoin="round"/>
<path d="M65.1254 55.8609L64.2524 55.4943" stroke="black" stroke-width="0.163676" stroke-linejoin="round"/>
<path d="M43.9588 48.0306C43.9588 48.0306 43.8803 45.678 45.2443 46.5204" stroke="black" stroke-width="0.163676" stroke-linejoin="round"/>
<path d="M51.7237 52.1618V59.1475L47.0862 56.4872V49.5429L51.7237 52.1618Z" fill="#C6B4EB"/>
<path d="M51.7237 58.7241V59.1475L47.0862 56.4872V49.5429L47.4594 49.7634V56.365L51.7237 58.7241Z" fill="#A49DD4"/>
<path d="M51.7237 52.1618V59.1475L47.0862 56.4872V49.5429L51.7237 52.1618Z" stroke="black" stroke-width="0.163676" stroke-miterlimit="10"/>
<path d="M47.4595 49.7111V56.365L51.6758 58.6914" stroke="black" stroke-width="0.163676" stroke-miterlimit="10"/>
<path d="M47.0862 56.4872L47.4594 56.365" stroke="black" stroke-width="0.163676" stroke-miterlimit="10"/>
<path d="M48.7205 56.6007L47.876 56.1468V54.892L48.7205 55.3459V56.6007Z" fill="#F9AE3B" stroke="black" stroke-width="0.163676" stroke-linejoin="round"/>
<path d="M48.7205 55.0732L47.876 54.6192V53.3644L48.7205 53.8183V55.0732Z" fill="#F5911E" stroke="black" stroke-width="0.163676" stroke-linejoin="round"/>
<path d="M49.8208 51.0859V57.6679" stroke="black" stroke-width="0.163676" stroke-miterlimit="10"/>
<path d="M51.6758 56.8648L49.8208 55.9024" stroke="black" stroke-width="0.163676" stroke-miterlimit="10"/>
</g>
<path d="M16.4002 31.8138C24.9129 31.8138 31.8139 24.9129 31.8139 16.4002C31.8139 7.88749 24.9129 0.986572 16.4002 0.986572C7.8875 0.986572 0.986572 7.88749 0.986572 16.4002C0.986572 24.9129 7.8875 31.8138 16.4002 31.8138Z" fill="#F1EEEA" stroke="#192147" stroke-width="0.155882" stroke-miterlimit="10"/>
<path d="M13.5091 28.5382C20.2977 28.5382 25.801 22.9093 25.801 15.9657C25.801 9.02217 20.2977 3.39331 13.5091 3.39331C6.72053 3.39331 1.21729 9.02217 1.21729 15.9657C1.21729 22.9093 6.72053 28.5382 13.5091 28.5382Z" fill="white"/>
<path d="M13.6722 15.1865C14.1438 14.7149 14.1787 13.9852 13.7501 13.5566C13.3215 13.128 12.5918 13.1629 12.1202 13.6345C11.6487 14.1061 11.6138 14.8358 12.0423 15.2644C12.4709 15.6929 13.2006 15.6581 13.6722 15.1865Z" fill="#D66C7B"/>
<path d="M10.7048 14.1609C10.9287 13.5327 10.6755 12.8684 10.1392 12.6773C9.60288 12.4861 8.98659 12.8404 8.76266 13.4686C8.53872 14.0968 8.79193 14.761 9.32822 14.9522C9.86452 15.1434 10.4808 14.7891 10.7048 14.1609Z" fill="#5CABDF"/>
<path d="M7.83996 13.5183C8.04798 12.8955 7.84591 12.2668 7.38863 12.1141C6.93135 11.9613 6.39203 12.3424 6.18401 12.9651C5.976 13.5879 6.17807 14.2166 6.63535 14.3693C7.09263 14.5221 7.63195 14.141 7.83996 13.5183Z" fill="#63C740"/>
<path d="M6.51182 17.7764C6.983 17.7526 7.33808 17.2008 7.30492 16.5439C7.27176 15.887 6.86291 15.3737 6.39173 15.3975C5.92055 15.4213 5.56546 15.9731 5.59862 16.63C5.63178 17.2869 6.04064 17.8002 6.51182 17.7764Z" fill="#C98DEF"/>
<path d="M9.30561 18.4199C9.86763 18.3537 10.2601 17.764 10.1822 17.1028C10.1043 16.4416 9.5855 15.9593 9.02348 16.0255C8.46146 16.0917 8.06902 16.6814 8.14692 17.3426C8.22483 18.0038 8.74359 18.4861 9.30561 18.4199Z" fill="#FAA669"/>
<path d="M6.70387 20.945C7.13529 20.7947 7.31907 20.1965 7.11436 19.609C6.90965 19.0215 6.39397 18.6671 5.96255 18.8174C5.53113 18.9677 5.34735 19.5659 5.55205 20.1534C5.75676 20.7409 6.27245 21.0953 6.70387 20.945Z" fill="#3AEFC3"/>
<defs>
<clipPath id="clip0_3133_20615">
<rect width="21.8822" height="21.8822" fill="white" transform="translate(108.109 27.4781) rotate(-48.95)"/>
</clipPath>
<clipPath id="clip1_3133_20615">
<rect width="21.8822" height="21.8822" fill="white" transform="translate(93.4976 30.583) rotate(-27.39)"/>
</clipPath>
<clipPath id="clip2_3133_20615">
<rect width="21.8822" height="21.8822" fill="white" transform="translate(115.76 29.6376)"/>
</clipPath>
<clipPath id="clip3_3133_20615">
<rect width="21.9872" height="24.1891" fill="white" transform="translate(72.4016 57.2556)"/>
</clipPath>
<clipPath id="clip4_3133_20615">
<rect width="21.9872" height="24.1891" fill="white" transform="translate(60.4255 64.2329)"/>
</clipPath>
<clipPath id="clip5_3133_20615">
<rect width="22.2316" height="24.6955" fill="white" transform="translate(31.4189 33.3958)"/>
</clipPath>
<clipPath id="clip6_3133_20615">
<rect width="22.2316" height="24.6955" fill="white" transform="translate(19.5305 40.2107)"/>
</clipPath>
<clipPath id="clip7_3133_20615">
<rect width="22.2316" height="24.6955" fill="white" transform="translate(43.8501 39.9388)"/>
</clipPath>
</defs>
</svg>
