<svg width="117" height="123" viewBox="0 0 117 123" fill="none" xmlns="http://www.w3.org/2000/svg">
<path d="M32.8355 73.2284C15.0297 84.5049 16.7036 101.35 36.5554 110.661C56.4072 119.972 86.8693 118.363 104.253 107.082C121.638 95.8009 119.961 78.9553 100.534 69.6491C81.1056 60.3428 50.6413 61.9519 32.8355 73.2284Z" fill="#C5C7D1"/>
<path d="M78.4499 44.57C96.2341 54.8365 96.3271 71.4831 78.6575 81.7518C60.9901 92.0205 32.2495 92.0205 14.4674 81.7518C-3.31676 71.4831 -3.41192 54.8365 14.2577 44.57C31.9272 34.3013 60.6657 34.3013 78.4499 44.57Z" fill="white" stroke="#192147" stroke-width="0.3" stroke-linecap="round" stroke-linejoin="round"/>
<path d="M46.6059 85.822C35.1087 85.822 24.3405 83.2592 16.2821 78.6071C8.82065 74.2989 4.70495 68.7883 4.6963 63.0895C4.68765 57.4404 8.73197 51.9795 16.0788 47.7081C24.0788 43.0582 34.8146 40.4975 46.3074 40.4975C57.8002 40.4975 68.5728 43.0603 76.6311 47.7124C84.0926 52.0206 88.2061 57.5312 88.2148 63.2279C88.2234 68.8769 84.1791 74.34 76.8301 78.6114C68.8301 83.2613 58.0943 85.8198 46.6015 85.8198L46.6059 85.822Z" fill="#8C8679"/>
<path d="M76.6354 51.3459C68.577 46.6938 57.8087 44.131 46.3116 44.131C34.8145 44.131 24.083 46.6917 16.083 51.3416C9.53208 55.148 5.61103 59.9038 4.84326 64.8933C5.61968 69.9433 9.6121 74.7554 16.2863 78.6094C24.3447 83.2614 35.1129 85.8243 46.6101 85.8243C58.1072 85.8243 68.8387 83.2636 76.8387 78.6158C83.3896 74.8073 87.3128 70.0536 88.0806 65.0641C87.3041 60.0163 83.3117 55.202 76.6397 51.3502L76.6354 51.3459Z" fill="#B4B2FE" stroke="#192147" stroke-width="0.3" stroke-miterlimit="10"/>
<path opacity="0.75" d="M55.3529 78.1841L74.0026 62.4415L49.6512 56.1148L29.9521 70.8102L55.3529 78.1841Z" fill="#7F7DCE"/>
<mask id="mask0_3141_17502" style="mask-type:luminance" maskUnits="userSpaceOnUse" x="4" y="44" width="85" height="42">
<path d="M16.1584 51.4712L16.1584 51.4712C24.1305 46.8375 34.8346 44.281 46.3116 44.281C57.7804 44.281 68.5143 46.836 76.5433 51.4659L76.5476 51.4702L76.5647 51.4801C83.2071 55.3149 87.1536 60.0882 87.9288 65.0641C87.1623 69.9821 83.2845 74.6948 76.7633 78.4861C68.7911 83.1177 58.087 85.6743 46.6101 85.6743C35.1331 85.6743 24.3921 83.1156 16.3613 78.4795C9.71668 74.6425 5.7702 69.8714 4.99505 64.8933C5.76154 59.9753 9.63717 55.2604 16.1584 51.4712Z" fill="white" stroke="white" stroke-width="0.3"/>
</mask>
<g mask="url(#mask0_3141_17502)">
<path d="M-8.16113 65.0508L46.5237 96.6224" stroke="#F1F0FF" stroke-width="0.3" stroke-miterlimit="10"/>
<path d="M-0.349365 60.5416L54.3355 92.1132" stroke="#F1F0FF" stroke-width="0.3" stroke-miterlimit="10"/>
<path d="M7.4646 56.03L62.1473 87.6016" stroke="#F1F0FF" stroke-width="0.3" stroke-miterlimit="10"/>
<path d="M15.2764 51.5203L69.959 83.0919" stroke="#F1F0FF" stroke-width="0.3" stroke-miterlimit="10"/>
<path d="M23.0884 47.0092L77.7732 78.5808" stroke="#F1F0FF" stroke-width="0.3" stroke-miterlimit="10"/>
<path d="M30.8999 42.4999L85.5847 74.0716" stroke="#F1F0FF" stroke-width="0.3" stroke-miterlimit="10"/>
<path d="M38.7119 37.9886L93.3967 69.5625" stroke="#F1F0FF" stroke-width="0.3" stroke-miterlimit="10"/>
<path d="M46.5237 33.4791L101.209 65.0508" stroke="#F1F0FF" stroke-width="0.3" stroke-miterlimit="10"/>
<path d="M-8.16113 65.0508L46.5237 33.4791" stroke="#F1F0FF" stroke-width="0.3" stroke-miterlimit="10"/>
<path d="M-0.349365 69.5625L54.3355 37.9886" stroke="#F1F0FF" stroke-width="0.3" stroke-miterlimit="10"/>
<path d="M7.4646 74.0716L62.1473 42.4999" stroke="#F1F0FF" stroke-width="0.3" stroke-miterlimit="10"/>
<path d="M15.2766 78.583L69.9614 47.0092" stroke="#F1F0FF" stroke-width="0.3" stroke-miterlimit="10"/>
<path d="M23.0881 83.0919L77.773 51.5203" stroke="#F1F0FF" stroke-width="0.3" stroke-miterlimit="10"/>
<path d="M30.8999 87.6016L85.5847 56.03" stroke="#F1F0FF" stroke-width="0.3" stroke-miterlimit="10"/>
<path d="M38.7119 92.1132L93.3967 60.5416" stroke="#F1F0FF" stroke-width="0.3" stroke-miterlimit="10"/>
<path d="M46.5237 96.6224L101.209 65.0508" stroke="#F1F0FF" stroke-width="0.3" stroke-miterlimit="10"/>
</g>
<path d="M46.6059 85.822C35.1087 85.822 24.3405 83.2592 16.2821 78.6071C8.82065 74.2989 4.70495 68.7883 4.6963 63.0895C4.68765 57.4404 8.73197 51.9795 16.0788 47.7081C24.0788 43.0582 34.8146 40.4975 46.3074 40.4975C57.8002 40.4975 68.5728 43.0603 76.6311 47.7124C84.0926 52.0206 88.2061 57.5312 88.2148 63.2279C88.2234 68.8769 84.1791 74.34 76.8301 78.6114C68.8301 83.2613 58.0943 85.8198 46.6015 85.8198L46.6059 85.822Z" stroke="#192147" stroke-width="0.3" stroke-linecap="round" stroke-linejoin="round"/>
<path d="M78.718 81.7192C78.6986 81.7301 78.6791 81.7409 78.6597 81.7538C76.9316 82.7573 75.0976 83.6635 73.1793 84.4724C71.5486 85.1602 69.8552 85.7744 68.112 86.3194C66.4618 86.8363 64.7684 87.2883 63.0425 87.6754C61.3037 88.0669 59.5324 88.3935 57.7395 88.6551C55.8082 88.9363 53.8509 89.1439 51.8806 89.278C49.5665 89.4337 47.2329 89.4878 44.9058 89.4359C41.2573 89.358 37.6195 89.025 34.0791 88.4389C29.8488 87.7381 25.7591 86.6762 21.9527 85.2531C19.3033 84.2626 16.7924 83.0947 14.4696 81.7538C14.13 81.5592 13.7991 81.3602 13.4726 81.1612C11.8462 80.1642 10.382 79.111 9.07572 78.0123C7.94677 77.0629 6.93677 76.081 6.04572 75.0731C5.19576 74.1107 4.45611 73.1245 3.82242 72.121C3.17793 71.098 2.64806 70.0577 2.22849 69.0067C1.77215 67.8604 1.4499 66.699 1.26391 65.5311C1.12982 64.7006 1.06493 63.868 1.0671 63.0353L1.00005 86.7173C0.99789 87.55 1.06277 88.3826 1.19686 89.2131C1.38502 90.381 1.70727 91.5424 2.16144 92.6886C2.57885 93.7419 3.11089 94.7822 3.75322 95.803C4.38474 96.8065 5.12656 97.7927 5.97651 98.7551C6.86756 99.763 7.87756 100.745 9.00651 101.694C10.3128 102.793 11.7791 103.846 13.4034 104.843C13.7299 105.042 14.0608 105.241 14.4004 105.436C16.7232 106.777 19.2341 107.945 21.8835 108.935C25.6899 110.358 29.7796 111.42 34.0099 112.121C37.5503 112.707 41.1859 113.04 44.8366 113.118C47.1637 113.168 49.4973 113.116 51.8114 112.96C53.7817 112.828 55.739 112.62 57.6703 112.337C59.4654 112.075 61.2366 111.749 62.9733 111.357C64.6992 110.968 66.3926 110.516 68.0428 110.001C69.7859 109.456 71.4794 108.84 73.1101 108.154C75.0284 107.348 76.8624 106.441 78.5904 105.436C78.6099 105.425 78.6294 105.414 78.6488 105.401C87.3885 100.304 91.7615 93.6446 91.781 86.9725L91.848 63.2905C91.8286 69.9604 87.4555 76.6217 78.7159 81.7192H78.718Z" fill="#F1EEEA"/>
<path d="M91.7832 64.6595C91.2101 70.8665 86.8586 76.9698 78.7181 81.7192C69.2626 86.9508 58.3365 89.4358 47.3887 89.505V113.126C58.2564 113.053 69.1718 110.743 78.5927 105.434C96.2795 96.4409 91.2317 79.5824 91.7832 64.6595Z" fill="#E2DED5"/>
<path d="M91.7831 64.6598C91.8242 64.2034 91.848 63.7471 91.8501 63.2908C91.822 63.7449 91.8004 64.2013 91.7831 64.6598Z" fill="#E2DED5"/>
<path d="M85.016 77.117V100.736C89.5145 96.5362 91.7681 91.7566 91.7832 86.9726L91.8502 63.2906C91.8373 68.0984 89.5599 72.9018 85.016 77.117Z" fill="#8C8679"/>
<path d="M78.718 81.7192C78.6986 81.7301 78.6791 81.7409 78.6597 81.7538C76.9316 82.7573 75.0976 83.6635 73.1793 84.4724C71.5486 85.1602 69.8552 85.7744 68.112 86.3194C66.4618 86.8363 64.7684 87.2883 63.0425 87.6754C61.3037 88.0669 59.5324 88.3935 57.7395 88.6551C55.8082 88.9363 53.8509 89.1439 51.8806 89.278C49.5665 89.4337 47.2329 89.4878 44.9058 89.4359C41.2573 89.358 37.6195 89.025 34.0791 88.4389C29.8488 87.7381 25.7591 86.6762 21.9527 85.2531C19.3033 84.2626 16.7924 83.0947 14.4696 81.7538C14.13 81.5592 13.7991 81.3602 13.4726 81.1612C11.8462 80.1642 10.382 79.111 9.07572 78.0123C7.94677 77.0629 6.93677 76.081 6.04572 75.0731C5.19576 74.1107 4.45611 73.1245 3.82242 72.121C3.17793 71.098 2.64806 70.0577 2.22849 69.0067C1.77215 67.8604 1.4499 66.699 1.26391 65.5311C1.12982 64.7006 1.06493 63.868 1.0671 63.0353L1.00005 86.7173C0.99789 87.55 1.06277 88.3826 1.19686 89.2131C1.38502 90.381 1.70727 91.5424 2.16144 92.6886C2.57885 93.7419 3.11089 94.7822 3.75322 95.803C4.38474 96.8065 5.12656 97.7927 5.97651 98.7551C6.86756 99.763 7.87756 100.745 9.00651 101.694C10.3128 102.793 11.7791 103.846 13.4034 104.843C13.7299 105.042 14.0608 105.241 14.4004 105.436C16.7232 106.777 19.2341 107.945 21.8835 108.935C25.6899 110.358 29.7796 111.42 34.0099 112.121C37.5503 112.707 41.1859 113.04 44.8366 113.118C47.1637 113.168 49.4973 113.116 51.8114 112.96C53.7817 112.828 55.739 112.62 57.6703 112.337C59.4654 112.075 61.2366 111.749 62.9733 111.357C64.6992 110.968 66.3926 110.516 68.0428 110.001C69.7859 109.456 71.4794 108.84 73.1101 108.154C75.0284 107.348 76.8624 106.441 78.5904 105.436C78.6099 105.425 78.6294 105.414 78.6488 105.401C87.3885 100.304 91.7615 93.6446 91.781 86.9725L91.848 63.2905C91.8286 69.9604 87.4555 76.6217 78.7159 81.7192H78.718Z" stroke="#192147" stroke-width="0.3" stroke-linecap="round" stroke-linejoin="round"/>
<path d="M68.0429 109.999L68.0732 91.5014L76.6874 106.641V106.476C73.9969 107.895 71.1032 109.052 68.0408 109.997L68.0429 109.999Z" fill="#8C8679"/>
<path d="M1 82.3875C1.20979 93.7678 12.1532 100.931 21.8834 104.607C34.7798 109.344 49.5232 109.984 62.9733 107.03C75.1192 104.954 92.4752 94.713 91.7831 82.6449" stroke="#192147" stroke-width="0.3" stroke-linecap="round" stroke-linejoin="round"/>
<path d="M78.4499 25.1051C96.2341 35.3717 96.3271 52.0182 78.6575 62.2869C60.9901 72.5556 32.2495 72.5556 14.4674 62.2869C-3.31676 52.0182 -3.41192 35.3717 14.2577 25.1051C31.9272 14.8365 60.6657 14.8365 78.4499 25.1051Z" stroke="#192147" stroke-width="0.162205" stroke-linecap="round" stroke-linejoin="round"/>
<path d="M24.7341 70.2068C26.6452 70.2068 28.1945 68.6576 28.1945 66.7465C28.1945 64.8353 26.6452 63.2861 24.7341 63.2861C22.8229 63.2861 21.2737 64.8353 21.2737 66.7465C21.2737 68.6576 22.8229 70.2068 24.7341 70.2068Z" fill="#ED6E85"/>
<path d="M75.1258 26.087C76.5591 26.087 77.7211 24.925 77.7211 23.4917C77.7211 22.0584 76.5591 20.8964 75.1258 20.8964C73.6925 20.8964 72.5305 22.0584 72.5305 23.4917C72.5305 24.925 73.6925 26.087 75.1258 26.087Z" fill="#3AEFC3"/>
<path opacity="0.75" d="M56.8983 64.7394L74.503 43.7609L47.5314 39.005L29.9268 59.9836L56.8983 64.7394Z" fill="#FF9901"/>
<path opacity="0.75" d="M74.5029 43.761L65.1014 17.9357L38.1321 13.1799L47.4989 38.9143L74.5029 43.761Z" fill="#FFE600"/>
<path opacity="0.75" d="M29.9266 59.9836L47.4989 38.9142L38.132 13.1798L20.5273 34.1584L29.9266 59.9836Z" fill="#FDFFAE"/>
<path opacity="0.75" d="M47.4989 38.9142L65.1014 17.9357L38.132 13.1798L20.5273 34.1584L47.4989 38.9142Z" fill="#FFF064"/>
<path opacity="0.75" d="M20.5273 34.1583L29.9266 59.9836L56.8981 64.7395L47.4989 38.9142L20.5273 34.1583Z" fill="#FFD600"/>
<path opacity="0.75" d="M56.898 64.7394L47.4988 38.9141L65.1013 17.9355L74.5027 43.7608L56.898 64.7394Z" fill="#EAB703"/>
<path d="M56.8981 64.7394L47.5312 39.0049L65.1013 17.9355" stroke="white" stroke-width="0.216274" stroke-miterlimit="10"/>
<path d="M20.5273 34.1583L47.5313 39.005" stroke="white" stroke-width="0.216274" stroke-miterlimit="10"/>
<path d="M61.1519 59.4692L56.5193 46.7415" stroke="white" stroke-width="0.216274" stroke-miterlimit="10"/>
<path d="M63.3582 47.8161L65.7004 54.2502" stroke="white" stroke-width="0.216274" stroke-miterlimit="10"/>
<path d="M62.6876 48.4522C62.2226 48.9929 61.6408 48.8869 61.3986 48.2164L60.7476 46.4257C60.5032 45.7552 60.6784 44.7582 61.1369 44.2132L62.4432 42.656C62.9017 42.1089 63.477 42.2105 63.7214 42.881L64.394 44.7301C64.6384 45.4006 64.4567 46.3933 63.9917 46.9339L62.6876 48.4522Z" stroke="white" stroke-width="0.216274" stroke-miterlimit="10"/>
<path d="M55.8533 47.5849C55.3884 48.1256 54.8066 48.0196 54.5644 47.3492L53.9134 45.5585C53.669 44.888 53.8442 43.891 54.3027 43.346L55.609 41.7888C56.0675 41.2416 56.6427 41.3433 56.8871 42.0137L57.5597 43.8629C57.8041 44.5333 57.6225 45.526 57.1575 46.0667L55.8533 47.5849Z" stroke="white" stroke-width="0.216274" stroke-miterlimit="10"/>
<path d="M20.5273 34.1583L29.9266 59.9836L56.8981 64.7394L74.5028 43.7609L65.1014 17.9356L38.1645 13.2684L20.5273 34.1583Z" stroke="#192147" stroke-width="0.216274" stroke-miterlimit="10"/>
<path d="M78.4499 7.80356C96.2341 18.0701 96.3271 34.7167 78.6575 44.9854C60.9901 55.254 32.2495 55.254 14.4674 44.9854C-3.31676 34.7167 -3.41192 18.0701 14.2577 7.80356C31.9272 -2.46512 60.6657 -2.46512 78.4499 7.80356Z" stroke="#192147" stroke-width="0.162205" stroke-linecap="round" stroke-linejoin="round"/>
<path d="M83.5604 45.338C85.4715 45.338 87.0207 43.7887 87.0207 41.8776C87.0207 39.9665 85.4715 38.4172 83.5604 38.4172C81.6492 38.4172 80.1 39.9665 80.1 41.8776C80.1 43.7887 81.6492 45.338 83.5604 45.338Z" fill="#5CABDF"/>
<path d="M10.2437 13.3271C11.6771 13.3271 12.839 12.1652 12.839 10.7318C12.839 9.29848 11.6771 8.13654 10.2437 8.13654C8.81039 8.13654 7.64844 9.29848 7.64844 10.7318C7.64844 12.1652 8.81039 13.3271 10.2437 13.3271Z" fill="#63C740"/>
<path d="M24.8203 115.724V119.684L76.6893 122.39V115.646L24.8203 115.724Z" fill="#C5C7D1"/>
<path d="M24.8203 91.5014H68.0751V115.724C68.0751 116.68 67.3008 117.454 66.3449 117.454H26.5505C25.5946 117.454 24.8203 116.68 24.8203 115.724V91.5014Z" fill="#F1EEEA" stroke="#192147" stroke-width="0.162205" stroke-linecap="round" stroke-linejoin="round"/>
<path d="M24.8203 91.5014H68.0751V107.073C68.0751 108.029 67.3008 108.803 66.3449 108.803H26.5505C25.5946 108.803 24.8203 108.029 24.8203 107.073V91.5014Z" fill="white" stroke="#192147" stroke-width="0.162205" stroke-linecap="round" stroke-linejoin="round"/>
<path d="M68.0751 91.5014H24.8203V108.803H68.0751V91.5014Z" fill="white" stroke="#192147" stroke-width="0.162205" stroke-linecap="round" stroke-linejoin="round"/>
<path d="M66.7776 106.641V93.6645C66.7776 93.1867 66.3903 92.7994 65.9125 92.7994H26.9832C26.5054 92.7994 26.1181 93.1867 26.1181 93.6645V106.641C26.1181 107.119 26.5054 107.506 26.9832 107.506H65.9125C66.3903 107.506 66.7776 107.119 66.7776 106.641Z" fill="#F1EEEA" stroke="#192147" stroke-width="0.162205" stroke-linecap="round" stroke-linejoin="round"/>
<path d="M65.4797 106.208V94.0967H27.4155V106.208H65.4797Z" fill="#8C8679"/>
<path d="M65.4797 106.208V95.1784H27.4155V106.208H65.4797Z" fill="#3E4771"/>
<path d="M65.4797 106.208V94.0967H27.4155V106.208H65.4797Z" stroke="#192147" stroke-width="0.162205" stroke-linecap="round" stroke-linejoin="round"/>
<path d="M41.5007 101.807C41.5007 100.709 42.1959 100.07 43.0849 100.07C43.5062 100.07 43.8499 100.272 44.0747 100.492L43.6612 100.957C43.5036 100.809 43.3253 100.719 43.0849 100.719C42.6146 100.719 42.2709 101.12 42.2709 101.784C42.2709 102.448 42.6146 102.861 43.1134 102.861C43.3537 102.861 43.5501 102.743 43.7104 102.569L44.1238 103.024C43.8525 103.345 43.4829 103.51 43.0358 103.51C42.2114 103.51 41.5007 102.929 41.5007 101.81V101.807Z" fill="#FF5C83"/>
<path d="M44.5039 100.132H45.6824C46.3853 100.132 46.9616 100.375 46.9616 101.166C46.9616 101.957 46.3827 102.256 45.6824 102.256H45.256V103.448H44.5039V100.132ZM45.6203 101.659C46.0157 101.659 46.2251 101.489 46.2251 101.166C46.2251 100.843 46.0132 100.729 45.6203 100.729H45.2534V101.659H45.6203ZM46.0623 101.577L47.1193 103.448H46.2793L45.5428 102.057L46.0623 101.577Z" fill="#FF5C83"/>
<path d="M47.4526 102.817H48.2279V100.76H47.4526V100.132H49.7501V100.76H48.9748V102.817H49.7501V103.445H47.4526V102.817Z" fill="#FF5C83"/>
<path d="M51.1506 100.76H50.1582V100.132H52.895V100.76H51.9V103.445H51.1506V100.76Z" fill="#FF5C83"/>
<path d="M53.3037 102.817H54.079V100.76H53.3037V100.132H55.6012V100.76H54.8259V102.817H55.6012V103.445H53.3037V102.817Z" fill="#FF5C83"/>
<path d="M56.1257 101.807C56.1257 100.709 56.8209 100.07 57.7099 100.07C58.1312 100.07 58.4749 100.272 58.6997 100.491L58.2862 100.957C58.1286 100.809 57.9503 100.719 57.7099 100.719C57.2396 100.719 56.8959 101.119 56.8959 101.784C56.8959 102.448 57.2396 102.861 57.7384 102.861C57.9787 102.861 58.1751 102.742 58.3353 102.569L58.7488 103.024C58.4775 103.345 58.1079 103.51 57.6608 103.51C56.8364 103.51 56.1257 102.928 56.1257 101.809V101.807Z" fill="#FF5C83"/>
<path d="M59.8518 100.132H60.7512L61.7849 103.448H60.989L60.56 101.771C60.4747 101.44 60.3739 101.052 60.2964 100.701H60.2757C60.1956 101.05 60.1025 101.44 60.0173 101.771L59.5857 103.448H58.8181L59.8518 100.132ZM59.503 102.073H61.0898V102.657H59.503V102.073Z" fill="#FF5C83"/>
<path d="M62.2424 100.132H62.9919V102.817H64.4675V103.445H62.2424V100.129V100.132Z" fill="#FF5C83"/>
<path d="M28.7861 102.784L29.4891 101.988C29.6751 102.158 30.0034 102.332 30.3161 102.332C30.8846 102.332 31.3782 101.941 31.3782 100.755C31.3782 99.5689 30.9182 99.2743 30.5823 99.2743C30.2463 99.2743 29.9439 99.4371 29.9439 99.9617C29.9439 100.398 30.2101 100.554 30.5512 100.554C30.8174 100.554 31.0965 100.429 31.3627 100.086L31.4248 100.928C31.081 101.287 30.59 101.489 30.254 101.489C29.4115 101.489 28.7241 101.021 28.7241 99.9591C28.7241 98.8969 29.5744 98.2741 30.5487 98.2741C31.523 98.2741 32.5929 98.9615 32.5929 100.755C32.5929 102.549 31.5411 103.407 30.4401 103.407C29.6984 103.407 29.1299 103.109 28.7861 102.781V102.784Z" fill="#FF5C83"/>
<path d="M33.575 102.394C33.575 101.841 33.9807 101.381 34.588 101.381C35.1953 101.381 35.6011 101.841 35.6011 102.394C35.6011 102.947 35.1953 103.407 34.588 103.407C33.9807 103.407 33.575 102.955 33.575 102.394Z" fill="#FF5C83"/>
<path d="M36.5548 102.551C37.8729 101.473 38.8394 100.649 38.8394 99.9771C38.8394 99.5326 38.5577 99.3206 38.1209 99.3206C37.754 99.3206 37.4645 99.5558 37.2009 99.7884L36.4902 99.07C37.0278 98.5247 37.5266 98.274 38.307 98.274C39.3666 98.274 40.1083 98.9123 40.1083 99.897C40.1083 100.693 39.2813 101.566 38.4698 102.254C38.7438 102.223 39.1159 102.192 39.3588 102.192H40.3564V103.316H36.5497V102.551H36.5548Z" fill="#FF5C83"/>
</svg>
