<svg width="120" height="120" viewBox="0 0 120 120" fill="none" xmlns="http://www.w3.org/2000/svg">
<path d="M111.036 80.1482L57.3752 111.13C55.4258 112.255 53.0259 112.255 51.0764 111.13L7.86409 86.1818C6.19057 85.2169 6.19235 82.8009 7.86409 81.8378L61.0018 51.2089" fill="#C5C7D1"/>
<path d="M101.779 100.09C109.609 100.09 115.957 96.4249 115.957 91.9039C115.957 87.3829 109.609 83.7179 101.779 83.7179C93.9479 83.7179 87.5999 87.3829 87.5999 91.9039C87.5999 96.4249 93.9479 100.09 101.779 100.09Z" fill="#C5C7D1"/>
<path d="M17.5973 84.0582L19.5717 85.2065L51.3347 103.665C52.2159 104.176 53.1987 104.434 54.1832 104.436L54.1031 87.9322C54.0621 87.9375 54.0212 87.9446 53.9802 87.9482C53.6936 87.9731 53.407 87.9767 53.1186 87.9589C52.2569 87.9037 51.4005 87.6527 50.6208 87.1987L16.1801 67.1841C15.9754 67.0648 15.7956 66.9242 15.6354 66.7711L14.763 64.8804V79.1337C14.763 81.1633 15.8419 83.0398 17.5973 84.0599V84.0582Z" fill="#E2DED5"/>
<path d="M54.1831 104.502C53.1719 104.5 52.1749 104.229 51.3008 103.722L17.5634 84.1149C15.7937 83.0876 14.6953 81.1773 14.6953 79.1317V64.8783C14.6953 64.8463 14.7166 64.8196 14.7469 64.8125C14.7771 64.8054 14.8092 64.8214 14.8217 64.8499L15.6887 66.7299C15.8525 66.8848 16.0287 67.0183 16.2121 67.1251L50.6527 87.1397C51.404 87.5759 52.2568 87.8358 53.122 87.891C53.4051 87.9088 53.6917 87.9052 53.973 87.8803C53.9944 87.8785 54.0175 87.875 54.0389 87.8732L54.0941 87.8661C54.1137 87.8661 54.1315 87.8696 54.1457 87.8821C54.16 87.8945 54.1671 87.9123 54.1671 87.9319L54.2472 104.436C54.2472 104.453 54.2401 104.471 54.2276 104.484C54.2152 104.496 54.1974 104.503 54.1796 104.503L54.1831 104.502ZM17.6292 83.9992L51.3666 103.606C52.2016 104.09 53.1505 104.354 54.1155 104.368L54.0371 88.0085C54.0211 88.0103 54.0033 88.012 53.9873 88.0138C53.6989 88.0387 53.4051 88.0423 53.1149 88.0245C52.2301 87.9675 51.3559 87.7023 50.5868 87.2554L16.1462 67.2409C15.9486 67.1269 15.7617 66.9845 15.589 66.8171C15.5836 66.8118 15.5783 66.8047 15.5747 66.7975L14.8306 65.1828V79.1317C14.8306 81.1293 15.9041 82.995 17.631 83.9992H17.6292Z" fill="#192147"/>
<path d="M78.96 67.8818L37.553 43.8187C37.3162 44.1944 36.9922 44.5736 36.6076 44.9492L15.7741 62.5443C15.5854 62.7028 15.4252 62.879 15.2898 63.0677C15.0869 63.3508 14.9445 63.6624 14.859 63.9846C14.802 64.2 14.77 64.419 14.7647 64.6398C14.7557 65.0012 14.8163 65.3626 14.9409 65.7044C14.9925 65.8468 15.0566 65.9839 15.1314 66.1174C15.2044 66.2492 15.2863 66.3774 15.3824 66.4966C15.5961 66.7637 15.8613 66.9987 16.1818 67.1839L50.6224 87.1984C51.4022 87.6524 52.2585 87.9034 53.1202 87.9586C53.4069 87.9764 53.6953 87.9728 53.9819 87.9479C54.2685 87.923 54.5516 87.8767 54.8311 87.8073C55.6697 87.6025 56.469 87.2073 57.1598 86.6251L78.0147 69.0123C78.3957 68.69 78.7143 68.3073 78.96 67.8818Z" fill="#F1EEEA"/>
<path d="M98.7433 24.908C98.7433 24.3792 98.5991 23.8701 98.3445 23.4268L85.7255 30.7119L85.3089 30.9522C85.5314 31.4579 85.608 32.0276 85.5065 32.5973L82.1078 51.6629L79.464 66.4949C79.3554 67.1073 79.1133 67.6841 78.7626 68.188C78.7626 68.188 78.7626 68.188 78.7626 68.1898C78.7021 68.277 78.6344 68.3624 78.5667 68.4461C78.5561 68.4586 78.5489 68.4711 78.5383 68.4835C78.4795 68.5547 78.4154 68.6224 78.3513 68.6882C78.33 68.7114 78.3104 68.7345 78.289 68.7577C78.2409 68.8075 78.1875 68.852 78.1359 68.8983C78.095 68.9357 78.0576 68.9749 78.0148 69.0105L57.16 86.6234C56.471 87.2055 55.6716 87.6025 54.8313 87.8055C54.591 87.8643 54.3471 87.9034 54.1031 87.9301V88.0174L54.1761 104.434C55.1678 104.437 56.1594 104.185 57.0461 103.672L74.6482 93.5097L97.4686 80.3334C97.7445 80.1732 97.9884 79.972 98.1914 79.7388C98.2323 79.6925 98.2715 79.6444 98.3089 79.5946C98.3837 79.4967 98.4531 79.3934 98.5136 79.2866C98.5439 79.2332 98.5742 79.178 98.6009 79.1228C98.6561 79.0124 98.7024 78.8985 98.7433 78.781C98.843 78.4872 98.8946 78.1757 98.8946 77.857L98.7451 24.9062L98.7433 24.908Z" fill="#8C8679"/>
<path d="M54.1974 104.502C54.1529 104.502 54.1084 104.479 54.1084 104.436L54.0354 87.9321C54.0354 87.8982 54.0603 87.8697 54.0942 87.8644C54.3559 87.8359 54.5909 87.795 54.8134 87.7416C55.6555 87.5368 56.4513 87.1327 57.1136 86.5719L77.9685 68.959C77.9934 68.9376 78.0183 68.9145 78.0432 68.8913L78.1323 68.8095C78.1679 68.7774 78.2035 68.7454 78.2391 68.7115C78.2498 68.7009 78.2604 68.6884 78.2693 68.6777C78.28 68.667 78.2889 68.6546 78.2996 68.6439C78.3619 68.578 78.426 68.5121 78.483 68.4427L78.5115 68.4053C78.5898 68.3092 78.6521 68.2273 78.7037 68.1525C79.0545 67.6487 79.2877 67.0879 79.3945 66.4843L85.437 32.5849C85.5331 32.0419 85.4672 31.4865 85.2429 30.9791C85.2287 30.947 85.2429 30.9114 85.2714 30.8936L98.307 23.3664C98.3391 23.3486 98.38 23.3592 98.3978 23.3913C98.6631 23.8506 98.8037 24.374 98.8055 24.9064L98.9551 77.8571C98.9551 78.1794 98.9034 78.498 98.8002 78.8025C98.7592 78.9218 98.7112 79.0393 98.6542 79.1532C98.6257 79.2102 98.5972 79.2654 98.5652 79.3206C98.5029 79.4292 98.4316 79.536 98.3551 79.6357C98.3159 79.6855 98.2768 79.7354 98.2358 79.7835C98.024 80.0256 97.7765 80.2303 97.497 80.3923L57.0727 103.731C56.1985 104.236 55.2015 104.502 54.1903 104.502H54.1974ZM54.1707 87.9908V88.0175L54.2419 104.366C55.214 104.359 56.17 104.099 57.0121 103.613L97.4364 80.2748C97.7035 80.1217 97.9403 79.9259 98.1415 79.6944C98.1806 79.6481 98.2198 79.6019 98.2554 79.5538C98.3284 79.4577 98.396 79.358 98.4548 79.2529C98.4851 79.2013 98.5135 79.1479 98.5402 79.0945C98.5937 78.9859 98.6399 78.8737 98.6791 78.7598C98.777 78.4696 98.8269 78.1651 98.8269 77.8571L98.6773 24.9064C98.6773 24.4203 98.5527 23.9414 98.3195 23.5159L85.3925 30.9791C85.6079 31.4972 85.6702 32.058 85.5723 32.6081L79.5298 66.5075C79.4194 67.1288 79.1791 67.7074 78.8177 68.2273C78.7625 68.3074 78.6984 68.3893 78.6183 68.489L78.6076 68.5032C78.6076 68.5032 78.5951 68.5193 78.5898 68.5264C78.5293 68.5976 78.4652 68.667 78.4011 68.7347C78.3922 68.7454 78.3833 68.7543 78.3744 68.7649C78.3619 68.7792 78.3512 68.7917 78.337 68.8041C78.3014 68.8397 78.264 68.8736 78.2248 68.9074L78.1376 68.9875C78.1109 69.0124 78.086 69.0373 78.0575 69.0605L57.2026 86.6734C56.5243 87.2466 55.7089 87.6614 54.8472 87.8697C54.6354 87.9214 54.4146 87.9605 54.1707 87.989V87.9908Z" fill="#192147"/>
<path d="M37.5531 43.8171L78.9602 67.8801C79.2058 67.4546 79.3768 66.9881 79.464 66.4968L85.5065 32.5992C85.5332 32.4514 85.5474 32.3036 85.551 32.1577C85.5563 31.9387 85.5349 31.7215 85.4904 31.5096C85.4602 31.369 85.421 31.2319 85.3712 31.0984C85.3213 30.9648 85.2608 30.8349 85.1913 30.7102C84.9474 30.2741 84.5878 29.8984 84.1356 29.6367L46.2109 7.59791C45.3563 7.1012 44.2668 7.60503 44.0923 8.57888L38.0569 42.4338C37.9697 42.9251 37.797 43.3916 37.5531 43.8171Z" fill="#E2DED5"/>
<path d="M78.96 67.9476C78.9475 67.9476 78.9368 67.944 78.9262 67.9387L37.5191 43.8756C37.4871 43.8578 37.4764 43.8169 37.4942 43.7848C37.7381 43.3611 37.9054 42.9036 37.9909 42.4229L44.0262 8.56801C44.1135 8.08198 44.4197 7.68496 44.8665 7.47666C45.3152 7.26836 45.8155 7.29151 46.2427 7.54076L84.1675 29.5795C84.6197 29.843 84.9935 30.2222 85.2481 30.6798C85.3194 30.8062 85.3817 30.9397 85.4333 31.0768C85.4849 31.2139 85.5259 31.3563 85.5561 31.4987C85.6024 31.7159 85.6238 31.9385 85.6185 32.161C85.6149 32.3124 85.6006 32.4637 85.5739 32.6115L79.5315 66.5091C79.4425 67.0058 79.2716 67.4776 79.0187 67.9137C79.0098 67.9298 78.9956 67.9404 78.9778 67.944C78.9725 67.944 78.9671 67.9458 78.96 67.9458V67.9476ZM37.6437 43.792L78.9351 67.7891C79.1612 67.3814 79.3161 66.9435 79.398 66.4859L85.4404 32.5883C85.4653 32.4459 85.4796 32.3017 85.4831 32.1575C85.4885 31.9456 85.4671 31.7337 85.4244 31.5254C85.3959 31.3901 85.3567 31.2548 85.3069 31.1231C85.257 30.9931 85.1983 30.8649 85.1306 30.7439C84.8867 30.3077 84.5307 29.9463 84.0998 29.6953L46.1751 7.65648C45.787 7.43037 45.3294 7.41079 44.9217 7.59773C44.514 7.78644 44.2345 8.14963 44.1562 8.59115L38.1209 42.446C38.0372 42.9196 37.8752 43.3736 37.6419 43.7937L37.6437 43.792Z" fill="#192147"/>
<path d="M41.9897 40.655L46.7913 13.7131C46.9213 12.9832 47.7384 12.604 48.3794 12.9779L80.6195 31.7141C81.3957 32.1645 81.807 33.0529 81.6485 33.936L76.847 60.8778C76.717 61.6077 75.8998 61.9869 75.2589 61.6131L43.0188 42.8768C42.2425 42.4264 41.8313 41.538 41.9897 40.655Z" fill="#8C8679"/>
<path d="M75.7965 61.827C75.6007 61.827 75.4048 61.7754 75.2286 61.6722L42.9885 42.9359C42.1909 42.473 41.7654 41.5526 41.9274 40.6446L46.729 13.7028C46.7948 13.3325 47.0281 13.0298 47.3699 12.8714C47.7117 12.7129 48.0927 12.7307 48.4167 12.9194L80.6568 31.6557C81.4544 32.1186 81.8799 33.039 81.7197 33.947L76.9181 60.8888C76.8523 61.2591 76.619 61.5618 76.279 61.7202C76.1241 61.7914 75.9621 61.827 75.8001 61.827H75.7965ZM47.8452 12.8998C47.7028 12.8998 47.5586 12.9319 47.4233 12.9942C47.1224 13.1331 46.9159 13.4001 46.8589 13.7277L42.0574 40.6695C41.906 41.5223 42.3066 42.3876 43.0544 42.822L75.2945 61.5582C75.5811 61.7256 75.9176 61.7398 76.2185 61.6009C76.5193 61.4621 76.7259 61.195 76.7828 60.8674L81.5844 33.9256C81.7357 33.0728 81.3352 32.2076 80.5874 31.7732L48.3473 13.0369C48.1906 12.9461 48.0179 12.8998 47.8452 12.8998Z" fill="#192147"/>
<path d="M43.3735 41.1841L48.2961 13.0103L80.5629 31.7875C81.3409 32.2397 81.7504 33.1316 81.5902 34.0164L76.7761 60.5132L43.3717 41.1841H43.3735Z" fill="#192147"/>
<path d="M45.9954 38.1963L49.8979 13.9L80.5624 31.7871C81.3404 32.2393 81.7499 33.1312 81.5897 34.016L77.1317 57.8423L47.4072 41.0163C46.3782 40.4769 45.8103 39.3428 45.9936 38.1963H45.9954Z" fill="#3E4771"/>
<path d="M49.7824 25.6022L50.2969 25.9155C50.8381 26.2449 51.1426 26.7932 51.0286 27.541C50.9147 28.2887 50.5034 28.424 49.9871 28.1089L49.4477 27.7795L49.7824 25.6022ZM50.0014 27.6834C50.2916 27.8596 50.5159 27.7991 50.596 27.2775C50.6761 26.7558 50.5034 26.4745 50.2132 26.2983L50.1438 26.2556L49.932 27.6407L50.0014 27.6834Z" fill="#3DB67B"/>
<path d="M51.2391 28.4203L51.6753 28.6856L51.8836 27.3343L51.4474 27.069L51.5115 26.656L52.8041 27.4447L52.74 27.8577L52.3038 27.5925L52.0955 28.9437L52.5317 29.209L52.4676 29.622L51.175 28.8334L51.2391 28.4203Z" fill="#3DB67B"/>
<path d="M52.8696 29.5654L53.1633 29.3749C53.2844 29.5956 53.4428 29.7932 53.6244 29.9036C53.806 30.014 53.8986 29.982 53.9146 29.8751C53.9396 29.7185 53.8345 29.6134 53.6707 29.4194L53.4464 29.1505C53.2541 28.9333 53.0939 28.6325 53.142 28.3156C53.1972 27.9542 53.5194 27.8366 53.9253 28.0823C54.1496 28.2194 54.3615 28.4562 54.5004 28.7446L54.2404 28.9262C54.1265 28.7357 54.0197 28.6058 53.8363 28.4936C53.6974 28.4081 53.5924 28.4188 53.5728 28.5452C53.5532 28.6716 53.6707 28.7998 53.8381 28.9868L54.0482 29.2396C54.276 29.4959 54.4024 29.7665 54.3562 30.0745C54.301 30.4359 53.993 30.5908 53.5301 30.3095C53.2773 30.1564 53.0334 29.8894 52.8678 29.5618L52.8696 29.5654Z" fill="#3DB67B"/>
<path d="M54.9276 28.7372L55.3548 28.9971L55.2177 29.8855L55.2284 29.8926L55.9139 29.3389L56.3821 29.6238L55.1091 30.5798L55.0183 31.1745L54.5911 30.9145L54.9258 28.7372H54.9276ZM55.3548 30.2736L55.661 30.0404L56.1008 31.835L55.6326 31.5501L55.3548 30.2754V30.2736Z" fill="#3DB67B"/>
<path d="M58.4367 30.8757L59.674 31.6288L59.6099 32.0418L58.7963 31.5451L58.7287 31.9813L59.4212 32.4032L59.3571 32.8162L58.6646 32.3943L58.588 32.8964L59.4301 33.4091L59.366 33.8221L58.1002 33.0513L58.4349 30.8739L58.4367 30.8757Z" fill="#3DB67B"/>
<path d="M60.08 31.8761L60.5126 32.1396L60.7387 33.4606L60.8259 34.0374L60.8348 34.0428C60.8508 33.8024 60.858 33.4731 60.8989 33.2149L61.0164 32.4458L61.4188 32.6915L61.0841 34.8688L60.6514 34.6054L60.4253 33.2808L60.3381 32.7075L60.3274 32.7022C60.3096 32.955 60.3043 33.2701 60.2651 33.5265L60.1458 34.2991L59.7435 34.0535L60.0782 31.8761H60.08Z" fill="#3DB67B"/>
<path d="M61.5949 34.0035C61.7053 33.2807 62.161 33.1009 62.6613 33.4053C62.8981 33.5495 63.0708 33.7988 63.1758 34.0213L62.8963 34.1851C62.8216 34.0338 62.7308 33.9127 62.5954 33.8308C62.3302 33.6688 62.097 33.8148 62.0293 34.251C61.9616 34.6872 62.1148 35.0771 62.3961 35.248C62.5314 35.3299 62.6542 35.321 62.761 35.2604L62.948 35.7002C62.7628 35.8177 62.5385 35.7999 62.2875 35.6468C61.8228 35.3637 61.4827 34.7388 61.5949 34.0035Z" fill="#3DB67B"/>
<path d="M63.5247 33.975L64.187 34.3791C64.5822 34.6195 64.8831 34.9791 64.803 35.4972C64.7229 36.0152 64.3686 36.0152 63.9734 35.7749L63.733 35.6289L63.6119 36.4123L63.1882 36.1541L63.5229 33.9768L63.5247 33.975ZM64.0001 35.3619C64.2208 35.4972 64.3579 35.458 64.39 35.2444C64.422 35.0307 64.3152 34.8847 64.0926 34.7494L63.8861 34.6248L63.7918 35.2372L63.9983 35.3619H64.0001ZM64.2582 35.4598L64.6641 37.0514L64.1923 36.763L63.9182 35.5969L64.2582 35.4598Z" fill="#3DB67B"/>
<path d="M65.4711 36.7382L65.0919 34.9312L65.5423 35.2053L65.6509 35.8445C65.6794 36.0456 65.7115 36.2379 65.7435 36.4462L65.7542 36.4533C65.8397 36.3145 65.9233 36.1934 66.0052 36.0599L66.2723 35.6504L66.712 35.9192L65.8895 36.9946L65.7756 37.7316L65.3536 37.4735L65.4676 36.7364L65.4711 36.7382Z" fill="#3DB67B"/>
<path d="M66.977 36.0775L67.6393 36.4799C68.0435 36.7273 68.3443 37.0959 68.2624 37.6264C68.1806 38.1569 67.8138 38.1605 67.4186 37.9202L67.1782 37.7742L67.0643 38.513L66.6423 38.2566L66.977 36.0793V36.0775ZM67.4524 37.5142C67.6838 37.6549 67.812 37.6015 67.8476 37.3754C67.8832 37.1493 67.7764 36.9944 67.5539 36.8573L67.3385 36.7256L67.237 37.3825L67.4524 37.5142Z" fill="#3DB67B"/>
<path d="M69.0652 37.8028L68.5062 37.4627L68.5703 37.0497L70.1102 37.9879L70.0461 38.401L69.4871 38.0609L69.2165 39.8252L68.7946 39.5689L69.0652 37.8045V37.8028Z" fill="#3DB67B"/>
<path d="M70.1406 39.9357L70.5768 40.201L70.785 38.8497L70.3489 38.5844L70.413 38.1714L71.7055 38.9601L71.6414 39.3731L71.2052 39.1078L70.9969 40.4591L71.4331 40.7244L71.369 41.1374L70.0765 40.3487L70.1406 39.9357Z" fill="#3DB67B"/>
<path d="M71.8604 40.2328C71.9726 39.5046 72.3375 39.2999 72.7826 39.5705C73.2277 39.8411 73.4734 40.4197 73.3612 41.1461C73.2491 41.8725 72.8805 42.0986 72.4355 41.828C71.9904 41.5574 71.7465 40.977 71.8604 40.231V40.2328ZM72.9286 40.8826C72.998 40.4304 72.9126 40.1153 72.7167 39.996C72.5209 39.8767 72.3625 40.0441 72.293 40.4963C72.2236 40.9485 72.3055 41.285 72.5013 41.4025C72.6972 41.52 72.8556 41.3526 72.9286 40.8826Z" fill="#3DB67B"/>
<path d="M73.8258 40.2506L74.2584 40.5141L74.4845 41.8351L74.57 42.4119L74.5789 42.4173C74.5949 42.1769 74.602 41.8476 74.6429 41.5894L74.7605 40.8203L75.1628 41.066L74.8281 43.2434L74.3955 42.9799L74.1694 41.6553L74.0821 41.082L74.0732 41.0767C74.0554 41.3295 74.0501 41.6446 74.0109 41.901L73.8916 42.6736L73.4893 42.428L73.824 40.2506H73.8258Z" fill="#3DB67B"/>
<path d="M49.2287 29.6542L50.466 30.4073L50.4019 30.8204L49.5883 30.3237L49.5207 30.7598L50.2132 31.1818L50.1491 31.5948L49.4566 31.1729L49.38 31.6749L50.2221 32.1877L50.158 32.6007L48.8922 31.8298L49.2269 29.6525L49.2287 29.6542Z" fill="#3DB67B"/>
<path d="M50.8719 30.6547L51.3046 30.9181L51.5307 32.2392L51.6161 32.816L51.625 32.8213C51.6411 32.581 51.6482 32.2516 51.6891 31.9935L51.8066 31.2244L52.209 31.4701L51.8743 33.6474L51.4417 33.3839L51.2156 32.0593L51.1283 31.4861L51.1176 31.4807C51.0998 31.7335 51.0945 32.0487 51.0553 32.305L50.936 33.0777L50.5337 32.832L50.8684 30.6547H50.8719Z" fill="#3DB67B"/>
<path d="M53.0065 31.9561L53.5121 32.2641L53.7578 34.7957L53.311 34.5233L53.2397 33.2735C53.2255 33.0278 53.2077 32.7376 53.1988 32.4795L53.1881 32.4724C53.108 32.6753 53.0154 32.8979 52.9353 33.0866L52.5241 34.0409L52.0914 33.7774L53.0065 31.9525V31.9561ZM52.6148 33.1115L53.5068 33.6545L53.448 34.0391L52.5561 33.4961L52.6148 33.1115Z" fill="#3DB67B"/>
<path d="M54.3293 32.7626L54.9559 33.1453C55.3441 33.3821 55.62 33.6848 55.5559 34.1014C55.5256 34.2972 55.3939 34.445 55.1643 34.3773V34.3898C55.4206 34.6088 55.5346 34.858 55.49 35.15C55.4224 35.5933 55.0806 35.6022 54.6747 35.3547L53.9946 34.9399L54.3293 32.7626ZM54.8028 34.007C55.0076 34.1317 55.1091 34.0836 55.134 33.918C55.1589 33.7524 55.077 33.6367 54.8812 33.5174L54.6907 33.4017L54.6159 33.8931L54.8028 34.007ZM54.6996 34.9506C54.9292 35.0913 55.0539 35.061 55.0841 34.8616C55.1144 34.6622 55.0183 34.5269 54.7868 34.3845L54.5625 34.2474L54.4753 34.8135L54.6996 34.9506Z" fill="#3DB67B"/>
<path d="M56.1421 33.8666L56.5641 34.1229L56.2935 35.8873L57.1231 36.3929L57.059 36.8059L55.8074 36.0439L56.1421 33.8666Z" fill="#3DB67B"/>
<path d="M57.8188 34.8884L59.0562 35.6415L58.9921 36.0545L58.1785 35.5578L58.1108 35.994L58.8034 36.4159L58.7393 36.8289L58.0467 36.407L57.9702 36.9091L58.8123 37.4218L58.7482 37.8348L57.4824 37.064L57.8171 34.8866L57.8188 34.8884Z" fill="#3DB67B"/>
<path d="M59.475 35.8962L59.9913 36.2096C60.5325 36.5389 60.8369 37.0873 60.723 37.835C60.609 38.5828 60.1978 38.7181 59.6815 38.403L59.142 38.0736L59.4767 35.8962H59.475ZM59.6939 37.9775C59.9841 38.1537 60.2085 38.0932 60.2886 37.5715C60.3687 37.0517 60.196 36.7686 59.9058 36.5924L59.8364 36.5496L59.6245 37.9347L59.6939 37.9775Z" fill="#3DB67B"/>
<path d="M61.9332 37.9471C61.9546 37.81 61.8727 37.6818 61.7534 37.6088C61.6341 37.5358 61.538 37.5483 61.4365 37.5839L61.2407 37.1922C61.4062 37.0979 61.6163 37.0908 61.8424 37.2278C62.17 37.4272 62.4014 37.762 62.3445 38.1305C62.2768 38.5702 61.8015 38.3406 61.7765 38.7483L61.408 38.5239C61.4151 38.0415 61.8923 38.1964 61.9314 37.9471H61.9332ZM61.2353 39.0224C61.2656 38.823 61.408 38.7625 61.5736 38.8622C61.7392 38.9619 61.8389 39.172 61.8086 39.3714C61.7783 39.5708 61.6341 39.6366 61.4703 39.5369C61.3065 39.4372 61.2051 39.2218 61.2371 39.0224H61.2353Z" fill="#3DB67B"/>
<path d="M46.9213 21.7142C59.0472 24.2013 70.2135 30.3026 80.3133 40.4327L81.5934 34.1018C81.7661 33.1422 81.3192 32.179 80.4771 31.6894L48.4346 13.1134L46.9231 21.716L46.9213 21.7142Z" fill="#192147"/>
<path d="M76.8327 60.6824C76.8221 60.6824 76.8096 60.6789 76.7989 60.6735L43.3945 41.3444C43.3695 41.3302 43.3571 41.3035 43.3624 41.275L48.2851 13.1012C48.2922 13.0655 48.3242 13.0388 48.3616 13.0477C48.3972 13.0549 48.4221 13.0887 48.415 13.1243L43.5013 41.2518L76.8648 60.5578C76.8968 60.5756 76.9075 60.6166 76.8897 60.6486C76.8773 60.67 76.8541 60.6824 76.8327 60.6824Z" fill="#192147"/>
<path d="M42.1677 42.0206C42.1445 42.0206 42.1214 42.0081 42.1089 41.985C42.0911 41.9529 42.1036 41.912 42.1374 41.8942L43.3979 41.2248C43.4299 41.207 43.4709 41.2194 43.4887 41.2533C43.5065 41.2853 43.494 41.3262 43.4602 41.3441L42.1997 42.0135C42.189 42.0188 42.1784 42.0206 42.1677 42.0206Z" fill="#192147"/>
<path d="M97.2621 22.3407L89.1776 17.6424L59.7913 0.565375C58.9083 0.0526382 57.8169 0.0508589 56.9321 0.563596L44.8436 7.56388C45.335 7.42145 45.7961 7.41433 46.2091 7.5977L84.1339 29.6365C84.668 29.9463 85.0721 30.4127 85.3089 30.9539L98.3445 23.4267C98.0881 22.9834 97.7196 22.6059 97.2621 22.3407Z" fill="#F1EEEA"/>
<path d="M85.3088 31.0199C85.3088 31.0199 85.2946 31.0199 85.2875 31.0163C85.2697 31.011 85.2554 30.9967 85.2465 30.9789C85.008 30.4341 84.6109 29.989 84.0982 29.6917L46.1735 7.65295C45.7996 7.48738 45.367 7.47848 44.8596 7.62624C44.8276 7.63515 44.7937 7.61912 44.7795 7.58886C44.767 7.55859 44.7795 7.5212 44.808 7.50518L56.8965 0.504899C57.7991 -0.0167398 58.9207 -0.0167408 59.8215 0.506678L97.2923 22.282C97.7516 22.549 98.1344 22.9336 98.3997 23.3929C98.4175 23.4249 98.4068 23.4659 98.3747 23.4837L85.3391 31.011C85.3284 31.0163 85.3177 31.0199 85.3053 31.0199H85.3088ZM45.5272 7.38946C45.78 7.38946 46.015 7.43753 46.2358 7.53545L84.1659 29.5778C84.6804 29.8769 85.0845 30.3184 85.3373 30.8579L98.2519 23.4018C97.9991 22.987 97.6466 22.6416 97.2264 22.3977L59.7557 0.622402C58.8958 0.122127 57.8258 0.122125 56.9641 0.62062L45.2406 7.40904C45.3385 7.39658 45.4329 7.38946 45.5254 7.38946H45.5272Z" fill="#192147"/>
<path d="M53.4815 88.0583C53.3587 88.0583 53.2358 88.0547 53.113 88.0458C52.2246 87.9889 51.3469 87.7218 50.576 87.2749L16.1354 67.2604C14.3604 66.0889 14.5028 64.9157 14.5099 64.8658L14.6862 64.8908C14.6862 64.9014 14.5598 66.007 16.2297 67.1091L50.6668 87.1218C51.4145 87.5562 52.2655 87.8144 53.1272 87.8696C53.4085 87.8874 53.6951 87.8838 53.9747 87.8589C53.996 87.8571 54.0174 87.8535 54.0405 87.8518L54.0957 87.8446L54.1153 88.0209L54.0654 88.028C54.0405 88.0316 54.0156 88.0351 53.9907 88.0369C53.8233 88.0512 53.6524 88.0583 53.4833 88.0583H53.4815Z" fill="#192147"/>
<path d="M54.1137 88.0211L54.0941 87.8449C54.3558 87.8164 54.589 87.7772 54.8115 87.722C55.6501 87.5173 56.4423 87.1149 57.1028 86.5577L77.9577 68.9448C77.9826 68.9235 78.0076 68.9003 78.0307 68.8772L78.1197 68.7953C78.1553 68.7632 78.1909 68.7312 78.2248 68.6973C78.2354 68.6867 78.2443 68.676 78.255 68.6635C78.2657 68.6511 78.2764 68.6404 78.2871 68.6279C78.3494 68.562 78.4117 68.4962 78.4704 68.4267L78.4989 68.3894C78.5773 68.2932 78.6378 68.2131 78.6912 68.1383L78.7019 68.1241C79.0401 67.6363 79.2716 67.079 79.3784 66.4791L85.298 32.6438C85.4957 31.5132 84.9633 30.3649 83.9735 29.7863L46.7698 8.03773C45.8867 7.53212 45.1995 7.37189 44.7277 7.56416C44.3984 7.69769 44.1616 8.01103 44.0245 8.49706L43.8536 8.44899C44.0067 7.90955 44.2791 7.55526 44.6619 7.40037C45.1871 7.18673 45.9259 7.34874 46.8606 7.88462L84.066 29.635C85.12 30.251 85.6861 31.4741 85.4761 32.6758L79.5564 66.5111C79.4443 67.136 79.2039 67.7182 78.8408 68.2398C78.7856 68.3199 78.7215 68.4036 78.6396 68.5033C78.6236 68.5247 78.6164 68.5336 78.6093 68.5425C78.5488 68.6137 78.4847 68.6831 78.4188 68.7508L78.3921 68.781C78.3796 68.7953 78.3672 68.8095 78.3547 68.822C78.3191 68.8576 78.2799 68.8932 78.2426 68.927L78.1571 69.0054C78.1304 69.0303 78.1037 69.0552 78.077 69.0801L57.2221 86.693C56.5403 87.268 55.7231 87.6846 54.8578 87.8947C54.6282 87.9499 54.3861 87.9909 54.1172 88.0211H54.1137Z" fill="#192147"/>
<path d="M58.3598 0.179203C58.8547 0.179203 59.3479 0.307387 59.7912 0.565535L89.1774 17.6425L97.2619 22.3408C97.7194 22.6061 98.0897 22.9835 98.3443 23.4268C98.6007 23.8701 98.7413 24.3793 98.7431 24.9081L98.8927 77.8588C98.8927 78.1775 98.841 78.4891 98.7413 78.7828C98.7022 78.9003 98.6541 79.0143 98.5989 79.1247C98.5722 79.1798 98.542 79.235 98.5117 79.2885C98.4494 79.3953 98.3817 79.4985 98.3069 79.5965C98.2696 79.6463 98.2304 79.6926 98.1894 79.7407C97.9865 79.9739 97.7426 80.1751 97.4666 80.3353L74.6463 93.5116L57.0441 103.674C56.1628 104.183 55.1801 104.436 54.1956 104.436C54.1902 104.436 54.1867 104.436 54.1813 104.436C54.1813 104.436 54.176 104.436 54.1724 104.436C53.1914 104.432 52.2105 104.176 51.3328 103.665L19.5698 85.2063L17.5954 84.058C15.84 83.0378 14.7611 81.1614 14.7611 79.1318L14.7682 64.9585V64.8927C14.7629 64.809 14.7611 64.7235 14.7629 64.6381C14.7682 64.4173 14.8003 64.1983 14.8572 63.9829C14.9427 63.6607 15.0851 63.3491 15.2881 63.066C15.4234 62.8773 15.5836 62.7011 15.7723 62.5426L36.6058 44.9475C36.9904 44.5719 37.3144 44.1909 37.5512 43.817C37.7969 43.3915 37.9678 42.9251 38.055 42.4337L44.0904 8.57883C44.174 8.11238 44.4678 7.75631 44.8434 7.56404L44.9948 7.47502L56.9319 0.561974C57.3735 0.305605 57.8666 0.179203 58.3598 0.179203ZM58.3598 0.00116901C57.8274 0.00116901 57.304 0.141814 56.8429 0.408865L44.9058 7.32191L44.758 7.40915C44.3111 7.64059 44.0031 8.05541 43.9159 8.54856L37.8806 42.4034C37.7969 42.8717 37.6349 43.3168 37.3981 43.7298C37.1844 44.0681 36.8764 44.4366 36.4865 44.8176L15.6584 62.4073C15.4626 62.5729 15.2899 62.7598 15.1439 62.9628C14.932 63.2583 14.7789 63.5859 14.6845 63.9366C14.624 64.1627 14.5902 64.3977 14.5849 64.6327C14.5831 64.7164 14.5849 64.8019 14.5902 64.8962V64.9567L14.5831 79.13C14.5831 81.2148 15.7029 83.1625 17.5064 84.2093L19.4808 85.3576L51.2438 103.816C52.1321 104.332 53.1452 104.607 54.1724 104.612H54.1813H54.3593V104.608C55.3332 104.582 56.2892 104.311 57.1331 103.825L74.7353 93.6629L97.5556 80.4866C97.8458 80.3193 98.104 80.1074 98.323 79.8546C98.3657 79.8048 98.4084 79.7531 98.4476 79.7015C98.5277 79.5982 98.6007 79.4879 98.6648 79.3739C98.6968 79.3169 98.7289 79.2582 98.7574 79.2012C98.8143 79.0837 98.866 78.9609 98.9069 78.838C99.0137 78.5211 99.0689 78.1918 99.0672 77.8571L98.9176 24.9063C98.9176 24.3562 98.7698 23.8132 98.4939 23.336C98.2179 22.8589 97.8209 22.4619 97.3456 22.1842L89.2611 17.4859L59.8748 0.408865C59.4137 0.140034 58.8885 -0.000610352 58.3544 -0.000610352L58.3598 0.00116901Z" fill="#192147"/>
<path d="M71.9845 69.862C71.9685 69.5041 71.8795 69.1463 71.7193 68.7973C71.5822 68.4982 71.3917 68.2062 71.1478 67.9249C70.9288 67.6721 70.6671 67.4282 70.3626 67.1986C70.1757 67.0579 69.9727 66.9208 69.7538 66.7891C69.6327 66.7179 69.5099 66.6484 69.3835 66.5808C69.0292 66.3939 68.6535 66.2301 68.2601 66.0876C67.8506 65.9399 67.4233 65.8152 66.9836 65.7138C66.5047 65.6034 66.0115 65.5215 65.5112 65.4681C64.9184 65.404 64.3148 65.3808 63.7131 65.3969C62.7143 65.4218 61.7209 65.5571 60.7933 65.8028C59.9993 66.0129 59.2533 66.3031 58.5911 66.6751C58.543 66.7019 58.4967 66.7286 58.4504 66.7553C57.6493 67.2271 57.0618 67.7772 56.6879 68.3629C56.4564 68.7243 56.3069 69.1 56.2392 69.481C56.1823 69.7979 56.184 70.1183 56.241 70.4352C56.2944 70.7236 56.3941 71.0085 56.5401 71.288C56.679 71.5515 56.8588 71.8079 57.0813 72.0571C57.2985 72.301 57.5567 72.536 57.8558 72.7586C58.0338 72.8903 58.2243 73.0185 58.4308 73.1431C58.5804 73.2321 58.7335 73.3176 58.8919 73.3977C59.305 73.6078 59.7465 73.7894 60.2094 73.9425C60.7506 74.1205 61.3221 74.2594 61.9078 74.3573C62.6805 74.4873 63.4799 74.5478 64.2775 74.5389C66.1984 74.5158 68.1087 74.0903 69.5953 73.2571C70.6226 72.6802 71.3205 71.9806 71.6854 71.2382C71.9062 70.7895 72.0059 70.3266 71.9845 69.8637V69.862Z" fill="#E2DED5"/>
<path d="M64.1152 74.6068C63.3639 74.6068 62.618 74.5463 61.8951 74.4235C61.3005 74.3238 60.7255 74.1831 60.1878 74.0051C59.716 73.8502 59.2691 73.665 58.8614 73.4567C58.7012 73.3748 58.5445 73.2894 58.395 73.2004C58.1885 73.0775 57.9944 72.9476 57.8146 72.8122C57.5173 72.5897 57.252 72.3511 57.0295 72.1019C56.8069 71.8527 56.6218 71.5892 56.4794 71.3203C56.3298 71.0373 56.2265 70.7435 56.1731 70.448C56.1144 70.1239 56.1126 69.7946 56.1714 69.4688C56.2408 69.0771 56.3939 68.6926 56.6289 68.3276C57.0206 67.7151 57.6206 67.1668 58.4146 66.6986C58.4609 66.6719 58.5089 66.6452 58.5552 66.6167C59.2086 66.2499 59.9546 65.9544 60.7735 65.7372C61.6993 65.4915 62.6856 65.3544 63.7093 65.3277C64.3146 65.3117 64.9217 65.3366 65.5163 65.4007C66.022 65.4541 66.5205 65.5378 66.9976 65.6464C67.4427 65.7479 67.8753 65.8743 68.283 66.022C68.6836 66.1663 69.0646 66.3336 69.4153 66.5188C69.5399 66.5846 69.6663 66.6541 69.7891 66.7288C70.0081 66.8588 70.2147 66.9995 70.4051 67.1419C70.7096 67.3715 70.9766 67.619 71.201 67.8789C71.4466 68.1602 71.6407 68.4593 71.7831 68.7655C71.9469 69.1198 72.0377 69.4866 72.0537 69.8551C72.0751 70.3322 71.9718 70.8058 71.7475 71.2616C71.3647 72.0396 70.633 72.7464 69.6307 73.3107C68.1886 74.1208 66.289 74.5783 64.2808 74.6015C64.2274 74.6015 64.1722 74.6015 64.1188 74.6015L64.1152 74.6068ZM64.0636 65.4595C63.9461 65.4595 63.8304 65.4595 63.7129 65.4648C62.7016 65.4915 61.7242 65.6268 60.8091 65.8689C60.0009 66.0826 59.2656 66.3746 58.6211 66.736C58.5748 66.7627 58.5285 66.7894 58.4822 66.8161C57.7078 67.2736 57.1221 67.8059 56.7428 68.4024C56.5185 68.7531 56.3708 69.1216 56.3049 69.4955C56.2497 69.8053 56.2515 70.1186 56.3067 70.4266C56.3583 70.7097 56.4562 70.9892 56.6004 71.2616C56.7375 71.5215 56.9155 71.7743 57.131 72.0164C57.3482 72.2586 57.6045 72.4918 57.8965 72.709C58.0728 72.8407 58.265 72.9689 58.4662 73.0882C58.6122 73.1754 58.7671 73.2609 58.9238 73.341C59.3261 73.5457 59.7659 73.7273 60.2305 73.8805C60.7628 74.0549 61.3308 74.1938 61.9201 74.2935C62.6874 74.4217 63.4832 74.4822 64.279 74.4733C66.2641 74.4502 68.1423 73.998 69.5648 73.1986C70.544 72.6485 71.2579 71.9612 71.6282 71.2082C71.8437 70.772 71.9416 70.3198 71.9202 69.8658C71.9042 69.5151 71.817 69.1661 71.6621 68.8261C71.5268 68.5305 71.338 68.2421 71.1013 67.9697C70.8823 67.7187 70.6223 67.4766 70.325 67.2523C70.1399 67.1116 69.9369 66.9745 69.7215 66.8463C69.6004 66.7733 69.4776 66.7057 69.3547 66.6398C69.0094 66.4582 68.6337 66.2927 68.2385 66.1502C67.8361 66.0042 67.4088 65.8796 66.9691 65.7781C66.4973 65.6695 66.0042 65.5876 65.5039 65.5342C65.0303 65.4826 64.5478 65.4577 64.0654 65.4577L64.0636 65.4595Z" fill="#192147"/>
<path d="M71.2063 68.4288C71.2027 68.5659 71.1867 68.7012 71.16 68.8365C71.1333 68.9718 71.0941 69.1053 71.0443 69.2371C70.9926 69.3724 70.9303 69.5077 70.8556 69.6412C70.7737 69.7854 70.6775 69.9279 70.5689 70.0667C70.4425 70.227 70.2965 70.3854 70.1327 70.5367C69.8746 70.7753 69.5702 71.0032 69.2194 71.2133C69.1642 71.2471 69.1091 71.2791 69.0503 71.3112C68.5945 71.5658 68.096 71.7794 67.5691 71.9503C67.14 72.0892 66.6931 72.1996 66.2338 72.2815C65.9347 72.3349 65.6321 72.3776 65.3241 72.4079C65.0606 72.4346 64.7953 72.4524 64.53 72.4613C64.2879 72.4702 64.0458 72.4702 63.8037 72.4648C63.5686 72.4595 63.3354 72.447 63.1022 72.4275C62.869 72.4079 62.6393 72.3829 62.4096 72.3509C62.1711 72.3171 61.9361 72.2761 61.7029 72.2281C61.4483 72.1746 61.199 72.1141 60.9551 72.0447C60.6578 71.9592 60.3694 71.8631 60.0917 71.7527C59.6982 71.5978 59.3243 71.4162 58.9789 71.2097C57.6312 70.4032 56.9618 69.3635 56.9636 68.3256L56.96 69.5344C56.9565 70.5723 57.6259 71.6138 58.9754 72.4186C59.3208 72.6251 59.6929 72.8049 60.0881 72.9616C60.3658 73.0719 60.6542 73.1681 60.9516 73.2535C61.1955 73.323 61.4447 73.3835 61.6993 73.4369C61.9307 73.485 62.1675 73.5259 62.4061 73.5598C62.6358 73.5918 62.8654 73.6185 63.0986 73.6363C63.3319 73.6559 63.5651 73.6683 63.8001 73.6737C64.0422 73.679 64.2843 73.679 64.5265 73.6701C64.7917 73.6612 65.057 73.6434 65.3205 73.6167C65.6267 73.5865 65.9312 73.5437 66.2302 73.4903C66.6896 73.4066 67.1364 73.2963 67.5655 73.1592C68.0943 72.9883 68.5928 72.7764 69.0467 72.52C69.1037 72.488 69.1607 72.4559 69.2159 72.4221C69.5666 72.212 69.871 71.9859 70.1292 71.7456C70.293 71.5943 70.439 71.4358 70.5654 71.2756C70.6758 71.1367 70.7701 70.9943 70.852 70.8501C70.9268 70.7166 70.9909 70.5812 71.0407 70.4459C71.0906 70.3124 71.1297 70.1789 71.1564 70.0454C71.1831 69.9101 71.1992 69.773 71.2027 69.6377C71.2027 69.6163 71.2027 69.5949 71.2027 69.5736L71.2063 68.3647C71.2063 68.3861 71.2063 68.4075 71.2063 68.4288Z" fill="#BC3857"/>
<path d="M71.2046 68.2507C71.1904 67.9284 71.1103 67.6044 70.966 67.2911C70.8414 67.0222 70.6705 66.7587 70.4515 66.5059C70.2539 66.2781 70.0171 66.0591 69.7429 65.8508C69.5738 65.7226 69.3904 65.5997 69.1928 65.4822C69.0842 65.4181 68.9721 65.3541 68.8581 65.2953C68.5394 65.128 68.1994 64.9784 67.8451 64.8502C67.4766 64.7167 67.0903 64.6045 66.6932 64.5137C66.2624 64.414 65.8173 64.341 65.3651 64.293C64.831 64.236 64.2862 64.2146 63.745 64.2289C62.8441 64.252 61.9486 64.3749 61.1119 64.5956C60.3962 64.7843 59.7232 65.0478 59.125 65.3825C59.0823 65.4057 59.0396 65.4306 58.9986 65.4555C58.2758 65.881 57.747 66.376 57.4088 66.9047C57.2005 67.2305 57.0652 67.5706 57.0046 67.9124C56.953 68.199 56.9548 68.4875 57.0064 68.7741C57.0545 69.034 57.1435 69.2922 57.277 69.5432C57.4017 69.78 57.5637 70.0132 57.7648 70.2357C57.9607 70.4547 58.1939 70.6666 58.4627 70.8678C58.623 70.987 58.7957 71.1028 58.9808 71.2131C59.1161 71.2933 59.255 71.3698 59.3974 71.4428C59.7695 71.6333 60.1683 71.7953 60.5849 71.9342C61.0727 72.0944 61.5872 72.2208 62.116 72.308C62.8121 72.4256 63.5331 72.479 64.2542 72.4718C65.9864 72.4523 67.7098 72.0677 69.0504 71.3146C69.9762 70.7948 70.6064 70.1645 70.9358 69.4933C71.1352 69.0892 71.2242 68.6708 71.2064 68.2542L71.2046 68.2507Z" fill="#D66C7B"/>
<path d="M63.7946 71.2844C63.7715 71.2844 63.7465 71.2826 63.7216 71.2791C63.4795 71.2399 63.3139 71.0103 63.3531 70.7681L64.2397 65.3221C64.2789 65.08 64.5067 64.9162 64.7506 64.9536C64.9928 64.9927 65.1583 65.2224 65.1192 65.4645L64.2326 70.9106C64.197 71.1295 64.0082 71.2844 63.7946 71.2844Z" fill="white"/>
<path d="M60.389 69.0821C60.1683 69.0821 59.9778 68.9183 59.9475 68.694C59.9154 68.4501 60.0881 68.2275 60.332 68.1955L68.1887 67.1718C68.4326 67.1398 68.6551 67.3124 68.6872 67.5564C68.7192 67.8003 68.5465 68.0228 68.3026 68.0548L60.446 69.0785C60.4264 69.0803 60.4068 69.0821 60.3872 69.0821H60.389Z" fill="white"/>
<path d="M64.1259 73.759C62.1568 73.759 60.1807 73.2979 58.7956 72.3793C57.2787 71.3752 56.6236 69.9687 56.9013 68.313L57.033 68.3344C56.6948 70.3568 57.8449 71.5888 58.8704 72.2671C61.5551 74.0457 66.4813 74.0866 69.2052 72.3526C70.2503 71.6867 71.4306 70.4672 71.1511 68.4234H71.1422V68.3611L71.2757 68.3522C71.5285 70.0506 70.836 71.4731 69.2764 72.4647C67.9198 73.3264 66.0273 73.7555 64.1277 73.7555L64.1259 73.759Z" fill="#192147"/>
<path d="M64.1848 72.5609C61.0033 72.5609 57.6385 71.3343 56.9406 68.7866C56.8231 65.785 60.0811 64.4337 62.9083 64.1845C66.6968 63.8515 70.861 65.2758 71.2705 68.2418V68.249V68.2561C71.1138 70.0649 69.4546 72.1319 65.2708 72.5129C64.9147 72.5449 64.5497 72.5609 64.1848 72.5609ZM64.0067 64.2699C63.6436 64.2699 63.2804 64.2859 62.9207 64.318C60.1523 64.5619 56.9602 65.874 57.0741 68.767C57.8308 71.523 61.8561 72.6891 65.2601 72.3811C69.3567 72.009 70.9821 70.0079 71.1388 68.2543C70.772 65.6514 67.4001 64.2717 64.0067 64.2717V64.2699Z" fill="#192147"/>
<path d="M59.5221 62.5628C59.506 62.2049 59.417 61.8471 59.2568 61.4981C59.1197 61.199 58.9292 60.907 58.6853 60.6258C58.4663 60.3729 58.2046 60.129 57.9002 59.8994C57.7132 59.7587 57.5103 59.6216 57.2913 59.4899C57.1702 59.4187 57.0474 59.3492 56.921 59.2816C56.5667 59.0947 56.1911 58.9309 55.7976 58.7884C55.3881 58.6407 54.9608 58.5161 54.5211 58.4146C54.0422 58.3042 53.549 58.2223 53.0488 58.1689C52.4559 58.1048 51.8524 58.0817 51.2506 58.0977C50.2519 58.1226 49.2584 58.2579 48.3309 58.5036C47.5368 58.7137 46.7909 59.0039 46.1286 59.376C46.0805 59.4027 46.0342 59.4294 45.9879 59.4561C45.1868 59.9279 44.5993 60.478 44.2254 61.0637C43.994 61.4251 43.8444 61.8008 43.7768 62.1818C43.7198 62.4987 43.7216 62.8191 43.7786 63.136C43.832 63.4244 43.9317 63.7093 44.0776 63.9888C44.2165 64.2523 44.3963 64.5087 44.6189 64.7579C44.8361 65.0018 45.0942 65.2368 45.3933 65.4594C45.5714 65.5911 45.7618 65.7193 45.9684 65.8439C46.1179 65.9329 46.271 66.0184 46.4295 66.0985C46.8425 66.3086 47.284 66.4902 47.7469 66.6433C48.2881 66.8213 48.8596 66.9602 49.4454 67.0581C50.218 67.1881 51.0174 67.2486 51.815 67.2397C53.736 67.2166 55.6463 66.7911 57.1329 65.9579C58.1601 65.381 58.858 64.6814 59.223 63.939C59.4437 63.4903 59.5434 63.0274 59.5221 62.5645V62.5628Z" fill="#E2DED5"/>
<path d="M51.6529 67.3074C50.9016 67.3074 50.1557 67.2469 49.4329 67.1241C48.8382 67.0244 48.2632 66.8837 47.7255 66.7057C47.2537 66.5508 46.8069 66.3657 46.3992 66.1574C46.2389 66.0755 46.0823 65.99 45.9327 65.901C45.7262 65.7781 45.5321 65.6482 45.3523 65.5129C45.055 65.2903 44.7897 65.0518 44.5672 64.8025C44.3447 64.5533 44.1595 64.2898 44.0171 64.0209C43.8675 63.7379 43.7643 63.4441 43.7109 63.1486C43.6521 62.8246 43.6503 62.4952 43.7091 62.1694C43.7785 61.7777 43.9316 61.3932 44.1666 61.0282C44.5583 60.4158 45.1583 59.8674 45.9523 59.3992C45.9986 59.3725 46.0467 59.3458 46.0929 59.3173C46.7463 58.9505 47.4923 58.655 48.3113 58.4378C49.237 58.1921 50.2233 58.055 51.247 58.0283C51.8523 58.0141 52.4594 58.0372 53.0541 58.1013C53.5597 58.1547 54.0582 58.2384 54.5353 58.347C54.9804 58.4485 55.413 58.5749 55.8207 58.7227C56.2213 58.8669 56.6023 59.0342 56.953 59.2194C57.0776 59.2853 57.204 59.3547 57.3269 59.4295C57.5458 59.5594 57.7524 59.7001 57.9429 59.8425C58.2473 60.0722 58.5143 60.3196 58.7387 60.5796C58.9844 60.8608 59.1784 61.1599 59.3208 61.4662C59.4846 61.8205 59.5754 62.1872 59.5915 62.5557C59.6128 63.0329 59.5096 63.5064 59.2852 63.9622C58.9025 64.7402 58.1708 65.447 57.1684 66.0114C55.7264 66.8214 53.8267 67.279 51.8185 67.3021C51.7651 67.3021 51.7099 67.3021 51.6565 67.3021L51.6529 67.3074ZM51.6013 58.1601C51.4838 58.1601 51.3681 58.1601 51.2506 58.1654C50.2393 58.1921 49.2619 58.3274 48.3468 58.5696C47.5386 58.7832 46.8033 59.0752 46.1588 59.4366C46.1125 59.4633 46.0662 59.49 46.0199 59.5167C45.2455 59.9742 44.6598 60.5066 44.2806 61.103C44.0562 61.4537 43.9085 61.8222 43.8426 62.1961C43.7874 62.5059 43.7892 62.8192 43.8444 63.1272C43.896 63.4103 43.9939 63.6898 44.1381 63.9622C44.2752 64.2221 44.4533 64.4749 44.6687 64.7171C44.8859 64.9592 45.1422 65.1924 45.4342 65.4096C45.6105 65.5414 45.8028 65.6695 46.0039 65.7888C46.1499 65.8761 46.3048 65.9615 46.4615 66.0416C46.8638 66.2464 47.3036 66.428 47.7682 66.5811C48.3006 66.7555 48.8685 66.8944 49.4578 66.9941C50.2251 67.1223 51.0209 67.1828 51.8167 67.1739C53.8018 67.1508 55.6801 66.6986 57.1025 65.8992C58.0817 65.3491 58.7956 64.6619 59.166 63.9088C59.3814 63.4726 59.4793 63.0204 59.4579 62.5664C59.4419 62.2157 59.3547 61.8667 59.1998 61.5267C59.0645 61.2312 58.8758 60.9427 58.639 60.6704C58.42 60.4193 58.1601 60.1772 57.8628 59.9529C57.6776 59.8122 57.4746 59.6751 57.2592 59.547C57.1382 59.474 57.0153 59.4063 56.8925 59.3404C56.5471 59.1588 56.1714 58.9933 55.7762 58.8509C55.3738 58.7049 54.9466 58.5802 54.5068 58.4788C54.035 58.3702 53.5419 58.2883 53.0416 58.2349C52.568 58.1832 52.0856 58.1583 51.6031 58.1583L51.6013 58.1601Z" fill="#192147"/>
<path d="M58.7492 61.1473C58.7457 61.2844 58.7297 61.4197 58.703 61.555C58.6763 61.6903 58.6371 61.8239 58.5872 61.9556C58.5356 62.0909 58.4733 62.2262 58.3985 62.3597C58.3166 62.5039 58.2205 62.6464 58.1119 62.7852C57.9855 62.9455 57.8395 63.1039 57.6757 63.2552C57.4176 63.4938 57.1131 63.7217 56.7624 63.9318C56.7072 63.9656 56.652 63.9976 56.5933 64.0297C56.1375 64.2843 55.639 64.4979 55.112 64.6688C54.683 64.8077 54.2361 64.9181 53.7768 65C53.4777 65.0534 53.175 65.0961 52.867 65.1264C52.6035 65.1531 52.3383 65.1709 52.073 65.1798C51.8309 65.1887 51.5887 65.1887 51.3466 65.1833C51.1116 65.178 50.8784 65.1655 50.6452 65.146C50.4119 65.1264 50.1823 65.1015 49.9526 65.0694C49.714 65.0356 49.479 64.9946 49.2458 64.9466C48.9912 64.8932 48.742 64.8326 48.4981 64.7632C48.2008 64.6777 47.9123 64.5816 47.6346 64.4712C47.2412 64.3163 46.8673 64.1347 46.5219 63.9282C45.1742 63.1217 44.5048 62.082 44.5066 61.0441L44.503 62.2529C44.4994 63.2908 45.1689 64.3323 46.5183 65.1371C46.8637 65.3436 47.2358 65.5234 47.6311 65.6801C47.9088 65.7904 48.1972 65.8866 48.4945 65.972C48.7384 66.0415 48.9877 66.102 49.2423 66.1554C49.4737 66.2035 49.7105 66.2444 49.949 66.2783C50.1787 66.3103 50.4084 66.337 50.6416 66.3548C50.8748 66.3744 51.1081 66.3869 51.3431 66.3922C51.5852 66.3975 51.8273 66.3975 52.0694 66.3886C52.3347 66.3797 52.6 66.3619 52.8635 66.3352C53.1697 66.305 53.4741 66.2622 53.7732 66.2088C54.2325 66.1251 54.6794 66.0148 55.1085 65.8777C55.6372 65.7068 56.1357 65.4949 56.5897 65.2385C56.6467 65.2065 56.7036 65.1744 56.7588 65.1406C57.1096 64.9305 57.414 64.7044 57.6721 64.4641C57.8359 64.3128 57.9819 64.1543 58.1083 63.9941C58.2187 63.8552 58.3131 63.7128 58.395 63.5686C58.4697 63.4351 58.5338 63.2998 58.5837 63.1644C58.6335 63.0309 58.6727 62.8974 58.6994 62.7639C58.7261 62.6286 58.7421 62.4915 58.7457 62.3562C58.7457 62.3348 58.7457 62.3134 58.7457 62.2921L58.7492 61.0832C58.7492 61.1046 58.7492 61.126 58.7492 61.1473Z" fill="#336C42"/>
<path d="M58.7476 60.971C58.7333 60.6488 58.6532 60.3247 58.509 60.0114C58.3844 59.7426 58.2135 59.4791 57.9945 59.2263C57.7969 58.9984 57.5601 58.7794 57.2859 58.5711C57.1168 58.4429 56.9334 58.3201 56.7358 58.2026C56.6272 58.1385 56.515 58.0744 56.4011 58.0156C56.0824 57.8483 55.7424 57.6987 55.3881 57.5706C55.0196 57.437 54.6332 57.3249 54.2362 57.2341C53.8054 57.1344 53.3603 57.0614 52.9081 57.0133C52.374 56.9563 51.8292 56.935 51.288 56.9492C50.3871 56.9724 49.4916 57.0952 48.6548 57.316C47.9392 57.5047 47.2662 57.7682 46.668 58.1029C46.6253 58.126 46.5825 58.1509 46.5416 58.1759C45.8188 58.6014 45.29 59.0963 44.9517 59.6251C44.7434 59.9509 44.6081 60.2909 44.5476 60.6327C44.496 60.9194 44.4978 61.2078 44.5494 61.4944C44.5975 61.7543 44.6865 62.0125 44.82 62.2635C44.9446 62.5003 45.1066 62.7335 45.3078 62.9561C45.5036 63.1751 45.7369 63.3869 46.0057 63.5881C46.1659 63.7074 46.3386 63.8231 46.5238 63.9335C46.6591 64.0136 46.798 64.0901 46.9404 64.1631C47.3125 64.3536 47.7113 64.5156 48.1279 64.6545C48.6157 64.8147 49.1302 64.9411 49.6589 65.0284C50.3551 65.1459 51.0761 65.1993 51.7971 65.1922C53.5294 65.1726 55.2528 64.788 56.5934 64.035C57.5191 63.5151 58.1494 62.8849 58.4787 62.2137C58.6781 61.8095 58.7671 61.3912 58.7493 60.9746L58.7476 60.971Z" fill="#3DB67B"/>
<path d="M51.6689 66.4794C49.6998 66.4794 47.7237 66.0183 46.3385 65.0996C44.8217 64.0955 44.1665 62.689 44.4443 61.0333L44.576 61.0547C44.2377 63.0772 45.3878 64.3091 46.4133 64.9875C49.0981 66.766 54.0243 66.807 56.7482 65.0729C57.7932 64.4071 58.9736 63.1875 58.6941 61.1437H58.6852V61.0814L58.8187 61.0725C59.0715 62.7709 58.379 64.1934 56.8194 65.1851C55.4628 66.0467 53.5685 66.4758 51.6707 66.4758L51.6689 66.4794Z" fill="#192147"/>
<path d="M51.7277 65.2813C48.5463 65.2813 45.1832 64.0546 44.4836 61.507C44.3661 58.5053 47.6241 57.154 50.4495 56.9048C54.2398 56.5719 58.4022 57.9961 58.8117 60.9622V60.9693V60.9764C58.655 62.7852 56.9958 64.8522 52.812 65.2332C52.4559 65.2653 52.0909 65.2813 51.726 65.2813H51.7277ZM51.5497 56.9885C51.1865 56.9885 50.8233 57.0045 50.4637 57.0365C47.6953 57.2804 44.5031 58.5925 44.6171 61.4856C45.3737 64.2416 49.4008 65.4077 52.8048 65.0997C56.9014 64.7276 58.5268 62.7247 58.6835 60.9729C58.3168 58.37 54.9448 56.9902 51.5515 56.9902L51.5497 56.9885Z" fill="#192147"/>
<path d="M49.1813 62.568C49.1048 62.568 49.0282 62.5485 48.9606 62.5093C48.8538 62.4488 48.7772 62.3455 48.7487 62.2244L48.2039 59.8975C48.1487 59.659 48.2965 59.4186 48.5351 59.3634C48.7754 59.3065 49.014 59.456 49.0692 59.6946L49.5054 61.5568L55.0921 59.8228C55.3271 59.7498 55.5763 59.8815 55.6493 60.1165C55.7223 60.3515 55.5906 60.6008 55.3555 60.6738L49.3131 62.5502C49.2704 62.5645 49.2258 62.5698 49.1813 62.5698V62.568Z" fill="white"/>
<path d="M19.6177 66.6593L18.0813 65.7674C17.2285 65.2724 17.1252 64.0814 17.8801 63.4458L36.2532 47.9836C37.1736 47.2091 38.4786 47.097 39.5183 47.7005L41.0547 48.5925C41.9075 49.0874 42.0108 50.2784 41.2559 50.914L22.8829 66.3762C21.9624 67.1507 20.6574 67.2628 19.6177 66.6593Z" fill="#E2DED5"/>
<path d="M21.0472 67.1114C20.5433 67.1114 20.0377 66.9814 19.5837 66.7179L18.0473 65.826C17.6218 65.5785 17.353 65.1566 17.3102 64.6652C17.2675 64.1738 17.4598 63.7127 17.8354 63.3958L36.2085 47.9336C37.1468 47.1431 38.4909 47.0274 39.5502 47.6434L41.0866 48.5354C41.5121 48.7828 41.781 49.2048 41.8237 49.6961C41.8664 50.1875 41.6742 50.6486 41.2985 50.9655L22.9254 66.4277C22.3878 66.8799 21.7201 67.1114 21.0472 67.1114ZM38.0886 47.3835C37.4459 47.3835 36.8085 47.6042 36.2958 48.0351L17.9227 63.4973C17.5809 63.7857 17.4064 64.2077 17.4438 64.6527C17.4829 65.0996 17.7269 65.4842 18.115 65.7085L19.6514 66.6004C20.6626 67.1879 21.9445 67.0776 22.84 66.3245L41.213 50.8623C41.5549 50.5738 41.7293 50.1519 41.692 49.7068C41.6546 49.2617 41.4089 48.8754 41.0208 48.6511L39.4843 47.7591C39.0517 47.5081 38.5692 47.3835 38.0886 47.3835Z" fill="#192147"/>
<path d="M21.0491 65.2655C20.8604 65.2655 20.6752 65.2157 20.5132 65.1213L19.8527 64.7368C19.6391 64.6121 19.6141 64.3148 19.8029 64.1564L37.4015 49.3458C37.5938 49.1837 37.8377 49.0947 38.0905 49.0947C38.2792 49.0947 38.4643 49.1446 38.6264 49.2389L39.2869 49.6235C39.5005 49.7481 39.5254 50.0454 39.3367 50.2039L21.7381 65.0145C21.5458 65.1765 21.3019 65.2655 21.0491 65.2655Z" fill="#8C8679"/>
<path d="M21.0491 65.333C20.8497 65.333 20.6521 65.2796 20.4794 65.1799L19.8189 64.7953C19.6979 64.7259 19.6231 64.6048 19.6106 64.466C19.5982 64.3271 19.6533 64.1954 19.7602 64.1063L37.3588 49.2957C37.7166 48.9948 38.2561 48.9486 38.6602 49.1836L39.3207 49.5681C39.4418 49.6375 39.5166 49.7586 39.529 49.8975C39.5415 50.0363 39.4863 50.1681 39.3795 50.2571L21.7826 65.0677C21.5779 65.2404 21.318 65.3348 21.0509 65.3348L21.0491 65.333ZM38.0887 49.164C37.8519 49.164 37.6241 49.2477 37.4425 49.399L19.8438 64.2096C19.7709 64.2701 19.7335 64.3609 19.7424 64.4553C19.7513 64.5496 19.8029 64.6315 19.8848 64.6796L20.5453 65.0642C20.9031 65.2725 21.3785 65.2297 21.6936 64.9645L39.2922 50.1538C39.3652 50.0933 39.4026 50.0025 39.3937 49.9082C39.3848 49.8138 39.3332 49.7319 39.2513 49.6838L38.5908 49.2993C38.4377 49.2103 38.265 49.164 38.0887 49.164Z" fill="#192147"/>
<path d="M21.1504 65.4039L20.1837 64.8502L38.0297 49.6372C38.2238 49.7316 39.2066 50.2212 39.2066 50.2212L21.1504 65.4039Z" fill="#192147"/>
<path d="M34.6006 54.0244L32.3289 55.9828L34.6434 36.3314H36.9151L34.6006 54.0244Z" fill="#E2DED5"/>
<path d="M32.3291 56.0503C32.3184 56.0503 32.3077 56.0485 32.297 56.0431C32.2721 56.0307 32.2596 56.004 32.2614 55.9755L34.5758 36.3241C34.5794 36.2903 34.6079 36.2654 34.6417 36.2654H36.9134C36.933 36.2654 36.9508 36.2743 36.9633 36.2885C36.9757 36.3028 36.9811 36.3224 36.9793 36.3419L34.6649 54.0349C34.6631 54.0509 34.6542 54.0652 34.6417 54.0777L32.37 56.036C32.3575 56.0467 32.3415 56.052 32.3273 56.052L32.3291 56.0503ZM34.7022 36.3989L32.4145 55.8224L34.5367 53.9922L36.8386 36.3989H34.7022Z" fill="#192147"/>
<path d="M34.2449 40.4296C34.7416 40.6574 35.2917 40.629 35.7333 40.6076L33.9084 54.5387L32.42 55.8081L34.2449 40.4296Z" fill="white"/>
<path d="M35.3406 39.6131C37.7004 39.6131 39.6134 37.7001 39.6134 35.3403C39.6134 32.9805 37.7004 31.0675 35.3406 31.0675C32.9808 31.0675 31.0678 32.9805 31.0678 35.3403C31.0678 37.7001 32.9808 39.6131 35.3406 39.6131Z" fill="#6A67FE"/>
<path d="M35.3407 39.6809C32.9479 39.6809 31.0002 37.735 31.0002 35.3405C31.0002 32.9459 32.9461 31 35.3407 31C37.7353 31 39.6812 32.9459 39.6812 35.3405C39.6812 37.735 37.7353 39.6809 35.3407 39.6809ZM35.3407 31.1353C33.0209 31.1353 31.1355 33.0225 31.1355 35.3405C31.1355 37.6585 33.0227 39.5456 35.3407 39.5456C37.6587 39.5456 39.5459 37.6585 39.5459 35.3405C39.5459 33.0225 37.6587 31.1353 35.3407 31.1353Z" fill="#192147"/>
<path d="M34.7913 37.3405C36.3645 37.3405 37.6398 36.0652 37.6398 34.492C37.6398 32.9188 36.3645 31.6434 34.7913 31.6434C33.2181 31.6434 31.9427 32.9188 31.9427 34.492C31.9427 36.0652 33.2181 37.3405 34.7913 37.3405Z" fill="#B4B2FE"/>
<path d="M26.1548 70.4286L24.6184 69.5366C23.7656 69.0417 23.6624 67.8507 24.4172 67.2151L42.7903 51.7529C43.7107 50.9784 45.0157 50.8663 46.0554 51.4698L47.5919 52.3617C48.4446 52.8567 48.5479 54.0477 47.793 54.6833L29.42 70.1455C28.4995 70.92 27.1945 71.0321 26.1548 70.4286Z" fill="#E2DED5"/>
<path d="M27.5843 70.879C27.0805 70.879 26.5749 70.749 26.1209 70.4855L24.5845 69.5936C24.159 69.3461 23.8901 68.9242 23.8474 68.4328C23.8047 67.9414 23.997 67.4803 24.3726 67.1634L42.7457 51.7012C43.6839 50.9107 45.0281 50.795 46.0874 51.411L47.6238 52.3029C48.0493 52.5504 48.3181 52.9723 48.3591 53.4637C48.4018 53.9533 48.2095 54.4162 47.8339 54.7331L29.4608 70.1953C28.9232 70.6475 28.2555 70.879 27.5826 70.879H27.5843ZM44.6257 51.1511C43.983 51.1511 43.3457 51.3718 42.8329 51.8027L24.4599 67.2649C24.1162 67.5533 23.9436 67.9752 23.9809 68.4203C24.0201 68.8672 24.264 69.2517 24.6521 69.4761L26.1886 70.368C27.1998 70.9555 28.4816 70.8451 29.3771 70.0921L47.7502 54.6298C48.092 54.3414 48.2665 53.9195 48.2291 53.4744C48.1917 53.0293 47.9461 52.643 47.5597 52.4187L46.0233 51.5267C45.5907 51.2757 45.1082 51.1511 44.6275 51.1511H44.6257Z" fill="#192147"/>
<path d="M27.5864 69.0343C27.3977 69.0343 27.2125 68.9845 27.0505 68.8901L26.39 68.5056C26.1764 68.3809 26.1514 68.0836 26.3401 67.9252L43.9388 53.1146C44.131 52.9525 44.375 52.8635 44.6278 52.8635C44.8165 52.8635 45.0016 52.9134 45.1636 53.0077L45.8242 53.3923C46.0378 53.5169 46.0627 53.8142 45.874 53.9727L28.2754 68.7833C28.0831 68.9453 27.8392 69.0343 27.5864 69.0343Z" fill="#8C8679"/>
<path d="M27.5862 69.1003C27.3868 69.1003 27.1892 69.0469 27.0165 68.9472L26.356 68.5627C26.235 68.4932 26.1584 68.3722 26.1477 68.2333C26.1353 68.0944 26.1905 67.9627 26.2973 67.8737L43.8959 53.0631C44.2537 52.7622 44.7914 52.7159 45.1973 52.9509L45.8578 53.3354C45.9789 53.4049 46.0554 53.5259 46.0661 53.6648C46.0786 53.8037 46.0234 53.9354 45.9166 54.0244L28.3197 68.8351C28.115 69.0077 27.8551 69.1021 27.588 69.1021L27.5862 69.1003ZM44.6258 52.9313C44.3891 52.9313 44.1612 53.015 43.9796 53.1663L26.3827 67.9769C26.3097 68.0375 26.2724 68.1283 26.2813 68.2226C26.2902 68.317 26.3418 68.4007 26.4237 68.4487L27.0842 68.8333C27.442 69.0398 27.9174 68.9988 28.2325 68.7336L45.8311 53.923C45.9041 53.8624 45.9415 53.7716 45.9326 53.6773C45.9237 53.5829 45.8721 53.4992 45.7902 53.4512L45.1297 53.0666C44.9766 52.9776 44.8039 52.9313 44.6276 52.9313H44.6258Z" fill="#192147"/>
<path d="M27.6879 69.1729L26.7211 68.6192L44.5672 53.4062C44.7613 53.5006 45.744 53.9902 45.744 53.9902L27.6879 69.1729Z" fill="#192147"/>
<path d="M35.4768 62.7212L33.9421 64.0138L21.3694 49.4524L22.904 47.7771L35.4768 62.7212Z" fill="#E2DED5"/>
<path d="M33.9421 64.0794C33.9243 64.0794 33.9047 64.0723 33.8923 64.0563L21.3213 49.4949C21.3 49.47 21.3 49.4308 21.3213 49.4059L22.856 47.7306C22.8684 47.7164 22.8862 47.7092 22.9058 47.7092C22.9254 47.7092 22.9432 47.7181 22.9557 47.7324L35.5266 62.6783C35.5498 62.7068 35.5462 62.7477 35.5177 62.7727L33.9831 64.0634C33.9706 64.0741 33.9546 64.0794 33.9403 64.0794H33.9421ZM21.4602 49.4522L33.9492 63.9174L35.3824 62.7103L22.9023 47.8748L21.4602 49.4504V49.4522Z" fill="#192147"/>
<path d="M24.1234 52.5145C24.6254 52.3027 24.9779 51.8772 25.2592 51.5371L34.9763 63.0523L33.9455 63.9104L24.1234 52.5127V52.5145Z" fill="white"/>
<path d="M24.3913 51.0671C26.0599 49.3985 26.0599 46.6931 24.3913 45.0244C22.7226 43.3558 20.0172 43.3558 18.3486 45.0244C16.68 46.6931 16.68 49.3985 18.3486 51.0671C20.0172 52.7357 22.7226 52.7357 24.3913 51.0671Z" fill="#AE6DDF"/>
<path d="M21.3675 52.3845C20.3206 52.3845 19.2702 52.0088 18.4388 51.2469C17.5842 50.4635 17.0858 49.3953 17.0341 48.2381C16.9825 47.0809 17.3866 45.9717 18.1682 45.1172C19.7847 43.3528 22.5336 43.2318 24.2997 44.8466C25.1542 45.6299 25.6527 46.6981 25.7044 47.8553C25.756 49.0125 25.3519 50.1217 24.5703 50.9762C23.7157 51.9091 22.5443 52.3827 21.3675 52.3827V52.3845ZM21.371 43.8424C20.2316 43.8424 19.0958 44.3018 18.2679 45.2062C17.5095 46.034 17.1178 47.1094 17.1677 48.231C17.2175 49.3526 17.7 50.3887 18.5296 51.1472C20.2405 52.7139 22.9057 52.5964 24.4724 50.8855C25.2308 50.0576 25.6225 48.9823 25.5726 47.8607C25.5228 46.739 25.0403 45.7029 24.2107 44.9445C23.4042 44.2074 22.3876 43.8424 21.3728 43.8424H21.371Z" fill="#192147"/>
<path d="M21.7784 49.8677C23.1785 49.1503 23.7319 47.4337 23.0145 46.0336C22.2971 44.6335 20.5806 44.0801 19.1804 44.7975C17.7803 45.5149 17.2269 47.2314 17.9443 48.6316C18.6617 50.0317 20.3783 50.5851 21.7784 49.8677Z" fill="#C98DEF"/>
<path d="M1.69507 110.362L19.1655 119.999L43.6077 106.271L25.5623 96.2086L1.69507 110.362Z" fill="#C5C7D1"/>
<path d="M37.9089 67.0234C38.6798 66.4199 40.0061 66.3273 40.8536 66.8169L59.3246 77.4793C60.172 77.9689 60.2432 78.8733 59.4812 79.4875L56.7733 81.672C56.0114 82.2862 54.6921 82.3913 53.8429 81.9052L35.1992 71.2321C34.35 70.7461 34.2859 69.8541 35.0568 69.2506L37.9071 67.0234H37.9089Z" fill="#8C8679"/>
<path d="M55.0981 82.2776C54.637 82.2776 54.1813 82.1743 53.8109 81.9625L35.1673 71.2894C34.7364 71.0419 34.4836 70.6876 34.4551 70.2888C34.4266 69.89 34.626 69.5037 35.0177 69.1975L37.868 66.9703C38.6603 66.3507 40.0151 66.2563 40.8875 66.7584L59.3585 77.4208C59.7875 77.6683 60.0421 78.0279 60.0742 78.4303C60.1062 78.8326 59.9104 79.2261 59.524 79.5377L56.8162 81.7221C56.3639 82.0871 55.7266 82.2758 55.0981 82.2758V82.2776ZM37.909 67.0219L37.9499 67.0753L35.0996 69.3025C34.7453 69.5802 34.5637 69.9274 34.5887 70.2799C34.6136 70.6324 34.8432 70.9493 35.2349 71.1736L53.8786 81.8468C54.7082 82.3221 55.9901 82.2206 56.7343 81.6189L59.4421 79.4344C59.7929 79.1513 59.9709 78.7988 59.9424 78.441C59.9139 78.0831 59.6843 77.7627 59.2944 77.5366L40.8234 66.8741C39.9955 66.3952 38.7066 66.486 37.9535 67.0753L37.9125 67.0219H37.909Z" fill="#192147"/>
<path d="M38.3842 71.0028C37.5349 70.5167 37.4299 69.6568 38.1509 69.0942C38.872 68.5316 40.1556 68.4693 41.003 68.9589L56.1875 77.7235C57.035 78.2131 57.1649 79.0695 56.4742 79.6267C55.7834 80.1839 54.5229 80.2427 53.6737 79.7549L38.3859 71.0028H38.3842Z" fill="#192147"/>
<path d="M45.5038 100.275L49.6039 86.6073L46.248 84.656L41.3645 97.7059L45.5038 100.275Z" fill="#847C89"/>
<path opacity="0.25" d="M49.6038 86.5129C49.6038 86.5129 51.6334 80.2764 56.1002 79.4432L52.4149 77.6931C52.4149 77.6931 47.252 76.1798 46.6288 84.8732L49.6038 86.5129Z" fill="#8C8679"/>
<path d="M38.8363 69.4751L56.102 79.4432C56.102 79.4432 54.9572 78.7827 53.2268 78.9571C50.4548 79.2367 47.8555 83.2673 46.2995 86.2405C45.4431 87.8784 44.7808 89.6089 44.3126 91.3964C43.3103 95.2134 40.9798 103.423 38.8363 105.986C37.1022 108.06 25.1615 114.619 21.6133 116.335C20.6377 116.807 19.4929 116.768 18.5529 116.228C14.467 113.886 5.26983 108.521 2.72217 107.143C6.27394 105.465 19.646 98.3094 21.5261 96.0573C23.6785 93.4794 26.0197 85.2043 27.0149 81.4069C27.4777 79.6372 28.1329 77.9246 28.975 76.3009C30.5346 73.2921 33.1588 69.1973 35.9557 68.9908C37.7663 68.8573 38.8345 69.4751 38.8345 69.4751H38.8363Z" fill="white"/>
<path d="M33.563 70.0521C32.3435 71.0117 31.2183 72.4947 30.2765 74.0062L47.6437 83.8925C48.5979 82.381 49.7373 80.9033 50.9676 79.9597L33.5612 70.0521H33.563Z" fill="#F1EEEA"/>
<path d="M22.3523 94.822L39.6305 104.806C41.2167 102.025 42.803 96.8819 43.7947 93.3088L26.5094 83.2872C25.5249 86.8426 23.9404 92.0038 22.3523 94.8203V94.822Z" fill="#F1EEEA"/>
<path d="M53.7877 78.1082L38.1475 69.2048C37.6526 69.0588 36.9084 68.9217 35.9559 68.9911C35.1245 69.0516 34.3073 69.4593 33.5293 70.0771L50.9339 79.9847C51.6709 79.415 52.44 79.0358 53.2234 78.9557C54.9556 78.7812 56.0986 79.4417 56.0986 79.4417L53.786 78.1064L53.7877 78.1082Z" fill="#E2DED5"/>
<path d="M19.6818 114.229L19.6195 114.112C19.7762 114.028 35.3737 105.701 36.611 104.218C37.8982 102.678 39.8263 97.4138 41.6458 90.4811C42.1621 88.5139 42.8903 86.6249 43.8125 84.8642C45.219 82.1741 47.8378 77.1696 52.3599 77.1696V77.3031C47.9197 77.3031 45.324 82.2631 43.93 84.9265C43.0131 86.6783 42.2885 88.5584 41.774 90.515C39.9492 97.4654 38.0104 102.749 36.7125 104.304C35.4574 105.806 20.3245 113.885 19.68 114.229H19.6818Z" fill="#646F71"/>
<path d="M17.2001 112.844L17.1378 112.727C19.0249 111.738 32.6071 104.414 33.9121 102.853C35.2954 101.197 37.2431 95.9326 39.1214 88.7721C39.5789 87.0292 40.2625 85.2542 41.2132 83.3439C43.6416 78.4604 46.6824 75.8843 50.0117 75.8843C50.0491 75.8843 50.0847 75.8843 50.1203 75.8843V76.0178C50.0829 76.0178 50.0491 76.0178 50.0135 76.0178C47.7044 76.0178 44.3573 77.321 41.3307 83.4044C40.3854 85.3058 39.7035 87.0737 39.2495 88.806C37.3659 95.9843 35.4093 101.267 34.0136 102.938C32.5697 104.669 17.3514 112.766 17.2001 112.846V112.844Z" fill="#646F71"/>
<path d="M14.7201 111.457L14.6578 111.34C17.0897 110.067 29.7497 103.236 31.2131 101.484C32.6961 99.7087 34.6563 94.4514 36.5951 87.0612C37.0081 85.4892 37.6295 83.8744 38.6122 81.8217C39.9475 79.0354 42.926 74.3941 47.8806 74.5988L47.8753 74.7324C47.7703 74.727 47.6652 74.7252 47.562 74.7252C42.8708 74.7252 40.0258 79.1814 38.7333 81.8786C37.7541 83.9225 37.1345 85.5301 36.725 87.0932C34.7827 94.503 32.8101 99.7781 31.3164 101.567C29.8387 103.337 17.1574 110.181 14.7201 111.455V111.457Z" fill="#646F71"/>
<path d="M12.2399 110.072L12.1776 109.954C15.2255 108.359 26.9276 102.018 28.5139 100.118C30.6503 97.5579 32.9113 89.7671 34.0686 85.3519C34.5475 83.5252 35.3219 81.7876 36.0109 80.3011C39.4844 72.8076 44.1168 73.1904 45.6408 73.315L45.6301 73.4485C44.131 73.3239 39.5662 72.9483 36.132 80.3562C35.4465 81.8357 34.6739 83.568 34.1985 85.3839C33.0378 89.8116 30.7696 97.6219 28.6172 100.202C27.0434 102.085 15.9893 108.11 12.2399 110.07V110.072Z" fill="#646F71"/>
<path d="M9.75811 108.685L9.6958 108.568C14.5615 106.022 24.1913 100.695 25.8132 98.7508C28.0582 96.0625 30.3655 88.1311 31.5423 83.6411C31.9874 81.9444 32.7102 80.3368 33.4099 78.7807C36.9438 70.9206 41.4819 71.7021 43.191 71.9959C43.2676 72.0083 43.3388 72.0208 43.4047 72.0315L43.3833 72.1632C43.3175 72.1526 43.2462 72.1401 43.1679 72.1276C41.4873 71.8392 37.024 71.0701 33.5327 78.8342C32.8348 80.3866 32.1138 81.9889 31.6723 83.6749C30.4937 88.1738 28.1775 96.1266 25.9164 98.8362C24.2803 100.796 14.6309 106.137 9.75811 108.687V108.685Z" fill="#646F71"/>
<path d="M7.27807 107.3L7.21576 107.183C10.431 105.5 21.081 99.821 23.1159 97.3837C25.3503 94.7061 27.5597 87.5028 29.0178 81.9322C29.3987 80.4741 30.0094 79.0836 30.6005 77.7413L30.8106 77.2606C33.3938 71.3409 36.9314 69.0728 41.0421 70.7018C41.0956 70.7232 41.1401 70.741 41.1757 70.7534L41.1294 70.8781C41.092 70.8638 41.0475 70.846 40.9941 70.8246C38.1829 69.7119 34.1558 69.9327 30.9334 77.314L30.7215 77.7947C30.134 79.1335 29.5252 80.5186 29.1459 81.966C27.6843 87.5509 25.4678 94.7737 23.2174 97.4692C21.1665 99.926 10.4987 105.614 7.27807 107.3Z" fill="#646F71"/>
<path d="M20.6661 113.707C20.6145 113.707 20.5682 113.672 20.5575 113.618L19.0122 106.228L26.9935 107.118L27.9744 103.732L34.7183 105.128L30.1785 96.9866H36.6108L30.1589 88.6564L36.6482 87.8784L34.364 84.3177L33.5255 78.2895L40.6718 78.3785V74.3265L41.9002 71.8553L44.3856 72.7402C44.4443 72.7615 44.4728 72.8238 44.4532 72.8826C44.4336 72.9413 44.3695 72.9698 44.3108 72.9502L42.0124 72.1313L40.8943 74.3781V78.6046L33.7819 78.5156L34.5795 84.2376L37.0274 88.0546L30.5755 88.8273L37.0648 97.2055H30.5577L35.1492 105.441L28.1311 103.989L27.1537 107.357L19.2899 106.479L20.7712 113.569C20.7836 113.629 20.7445 113.688 20.6857 113.7C20.6786 113.7 20.6697 113.702 20.6626 113.702L20.6661 113.707Z" fill="#6A67FE"/>
<path d="M20.1838 116.731C19.6088 116.731 19.0337 116.583 18.5192 116.287C17.2071 115.534 15.352 114.462 13.3883 113.327C9.18313 110.895 4.41717 108.137 2.69024 107.202L2.57452 107.14L2.6938 107.083C5.95716 105.539 19.5928 98.2703 21.4764 96.0146C23.6412 93.4207 26.0269 84.9232 26.9509 81.391C27.4173 79.6089 28.0778 77.8873 28.9164 76.2725C30.597 73.0341 33.1803 69.1298 35.9523 68.9268C37.7611 68.7933 38.8257 69.3933 38.8702 69.42L56.1359 79.3881L56.0683 79.5038C56.0576 79.4967 54.9217 78.8558 53.2322 79.0267C51.7474 79.1762 49.3511 80.556 46.3583 86.2762C45.5162 87.8856 44.8504 89.6143 44.3768 91.4178C43.451 94.9447 41.0636 103.43 38.888 106.034C37.1665 108.096 25.3468 114.608 21.6437 116.399C21.1826 116.622 20.6841 116.734 20.1856 116.734L20.1838 116.731ZM2.87006 107.147C4.68778 108.139 9.3398 110.831 13.4559 113.211C15.4197 114.347 17.273 115.419 18.5869 116.172C19.5073 116.7 20.6289 116.74 21.585 116.277C25.2827 114.487 37.0739 107.995 38.7848 105.945C40.9426 103.362 43.3229 94.9002 44.2469 91.3804C44.7222 89.5681 45.3934 87.8287 46.2391 86.2121C47.9054 83.0253 50.4691 79.1691 53.218 78.8932C54.0832 78.8059 54.8007 78.9216 55.3063 79.0641L38.8026 69.5357C38.7883 69.5286 37.7255 68.9322 35.9612 69.0604C34.4657 69.1707 32.0498 70.522 29.0339 76.3348C28.2007 77.9407 27.5437 79.6534 27.0791 81.4266C26.1515 84.9677 23.7587 93.4884 21.5778 96.1019C19.6693 98.3878 6.43607 105.445 2.86828 107.149L2.87006 107.147Z" fill="#192147"/>
<path d="M22.1067 116.095C19.3579 117.494 17.5063 114.927 17.5063 114.927L0.240601 104.959C0.240601 104.959 1.22335 106.31 2.72239 107.144C4.22143 107.977 16.3277 115.132 16.3277 115.132C19.057 116.77 20.4991 117.153 22.1067 116.095Z" fill="#8C8679"/>
<path d="M20.2729 116.754C19.1602 116.754 17.9389 116.175 16.2939 115.189C16.1728 115.118 4.17157 108.025 2.69033 107.201C1.19485 106.369 0.196077 105.011 0.185395 104.997L0.000244141 104.742L17.5597 114.886C17.5775 114.911 19.4112 117.391 22.0764 116.035L22.1441 116.15C21.5156 116.563 20.9121 116.754 20.2729 116.754ZM0.514758 105.192C0.883288 105.629 1.69334 106.492 2.7562 107.083C4.23922 107.909 16.2422 115.002 16.3633 115.073C18.5496 116.385 19.8439 116.829 20.9993 116.535C18.9519 116.859 17.5864 115.139 17.4636 114.977L0.516541 105.192H0.514758Z" fill="#192147"/>
<path d="M118.471 71.8633C118.367 70.7346 117.945 69.9869 117.506 69.7305L113.6 67.6617C116.543 70.8379 112.038 79.0221 109.281 81.5288L113.044 83.7168C116.096 80.6119 118.471 75.5433 118.471 71.8633Z" fill="#8C8679"/>
<path d="M115.387 68.8774C123.21 65.8295 117.869 81.573 112.98 84.856L113.042 83.7166C116.389 80.2182 118.1 76.0237 118.451 72.2494C118.495 71.7758 118.462 71.2969 118.321 70.8429C117.441 68.014 114.329 70.7272 112.944 72.3544L112.941 71.0851C113.835 70.04 114.653 69.3012 115.385 68.8792L115.387 68.8774Z" fill="#F1EEEA"/>
<path d="M112.907 84.986L112.978 83.6882L112.996 83.6704C116.088 80.4373 118.002 76.3799 118.387 72.2424C118.433 71.7475 118.39 71.2828 118.259 70.8626C118.05 70.1932 117.701 69.8033 117.219 69.7036C115.921 69.4401 113.954 71.2703 112.998 72.3955L112.88 72.5326L112.877 71.0567L112.893 71.0371C113.79 69.9885 114.618 69.2425 115.355 68.8153L115.364 68.8117C116.61 68.3257 118.257 68.0533 119.017 69.5078C119.792 70.9908 119.421 74.0512 118.049 77.4944C116.694 80.8931 114.767 83.7345 113.019 84.9077L112.909 84.9825L112.907 84.986ZM113.11 83.7451L113.057 84.7243C114.753 83.5208 116.608 80.7524 117.926 77.4481C119.284 74.0405 119.656 71.0229 118.9 69.5719C118.326 68.4752 117.155 68.2616 115.419 68.9363C114.7 69.3529 113.89 70.0828 113.012 71.1065L113.016 72.173C113.582 71.5338 115.72 69.2603 117.249 69.5701C117.783 69.6787 118.166 70.0989 118.39 70.8199C118.526 71.2579 118.572 71.7403 118.524 72.2531C118.138 76.4119 116.217 80.4907 113.114 83.7434L113.11 83.7451Z" fill="#192147"/>
<path d="M115.595 68.8295C116.295 68.5411 117.47 68.3168 118.154 68.712C114.025 66.3637 112.937 64.5692 109.179 68.8972L112.943 71.0852C113.778 70.1363 114.427 69.3494 115.595 68.8313V68.8295Z" fill="white"/>
<path d="M112.957 71.1688L109.076 68.9131L109.129 68.8526C112.38 65.1103 113.692 65.9168 116.567 67.6847C117.043 67.9766 117.582 68.3096 118.175 68.646C118.179 68.6478 118.182 68.6514 118.188 68.6532L118.122 68.7689C118.122 68.7689 118.115 68.7635 118.109 68.7618C117.475 68.4057 116.379 68.5784 115.622 68.8899C114.531 69.376 113.909 70.0828 113.126 70.9765L112.957 71.1688ZM109.282 68.8793L112.928 70.9979L113.025 70.8893C113.788 70.0187 114.449 69.2656 115.569 68.7689C116.154 68.5268 116.945 68.3665 117.586 68.4591C117.194 68.2277 116.829 68.0033 116.496 67.7986C113.619 66.029 112.417 65.2919 109.281 68.8793H109.282Z" fill="#192147"/>
<path d="M114.039 88.5077C114.039 88.5344 114.039 88.5593 114.039 88.586C114.036 88.8103 114.013 89.0347 113.972 89.2572C113.931 89.478 113.87 89.6987 113.792 89.9159C113.712 90.1403 113.612 90.3628 113.491 90.5818C113.363 90.8168 113.212 91.05 113.039 91.2761C112.836 91.5414 112.603 91.8013 112.339 92.0541C111.953 92.4226 111.501 92.7752 110.984 93.1045C110.806 93.2185 110.619 93.3306 110.425 93.4374C109.642 93.8736 108.78 94.2368 107.871 94.5235C107.198 94.7353 106.498 94.9062 105.78 95.0362C105.296 95.1234 104.805 95.1929 104.308 95.2445C103.881 95.289 103.45 95.3175 103.017 95.3353C102.62 95.3495 102.223 95.3531 101.826 95.346C101.442 95.3371 101.059 95.3193 100.678 95.289C100.297 95.2587 99.9178 95.2178 99.5422 95.1679C99.1523 95.1145 98.766 95.0486 98.385 94.9721C97.9666 94.8884 97.5535 94.7887 97.1512 94.6766C96.6634 94.5395 96.1898 94.3828 95.7341 94.2065C95.0504 93.9413 94.4059 93.6297 93.8131 93.2737C91.6321 91.9615 90.5461 90.2702 90.5408 88.5789L90.5444 89.8376C90.5497 91.5289 91.6357 93.2185 93.8166 94.5324C94.4095 94.8902 95.054 95.2 95.7376 95.4652C96.1934 95.6433 96.6687 95.8 97.1548 95.9353C97.5571 96.0474 97.9701 96.1471 98.3885 96.2308C98.7695 96.3073 99.1559 96.3732 99.5457 96.4266C99.9214 96.4783 100.301 96.5192 100.682 96.5477C101.063 96.578 101.445 96.5958 101.83 96.6047C102.227 96.6136 102.624 96.61 103.021 96.594C103.454 96.578 103.884 96.5477 104.312 96.5032C104.808 96.4516 105.3 96.3839 105.784 96.2949C106.502 96.1649 107.201 95.994 107.874 95.7821C108.786 95.4955 109.646 95.1341 110.429 94.6961C110.623 94.5875 110.81 94.4772 110.988 94.3632C111.504 94.0339 111.956 93.6813 112.343 93.3128C112.606 93.06 112.84 92.8019 113.042 92.5348C113.215 92.3069 113.366 92.0755 113.495 91.8405C113.614 91.6215 113.714 91.399 113.796 91.1746C113.874 90.9556 113.934 90.7367 113.975 90.5159C114.016 90.2934 114.039 90.069 114.043 89.8447C114.043 89.818 114.043 89.7931 114.043 89.7664L114.039 88.5077Z" fill="#F1EEEA"/>
<path d="M102.254 96.674C102.111 96.674 101.969 96.674 101.826 96.6687C101.44 96.6598 101.052 96.642 100.675 96.6117C100.294 96.5815 99.909 96.5405 99.5334 96.4889C99.1399 96.4355 98.7482 96.3696 98.3708 96.293C97.9489 96.2076 97.5323 96.1079 97.1317 95.9957C96.6403 95.8586 96.1614 95.6984 95.7074 95.5222C95.0131 95.2516 94.3633 94.9364 93.7758 94.5839C91.65 93.3056 90.4768 91.6179 90.4715 89.8322L90.4679 88.5753H90.6014C90.6068 90.3111 91.7569 91.9579 93.8399 93.2113C94.4202 93.5602 95.0629 93.8718 95.7502 94.1388C96.1988 94.3133 96.6741 94.47 97.162 94.6071C97.5608 94.7192 97.9738 94.8172 98.3904 94.9026C98.7678 94.9792 99.1559 95.045 99.544 95.0967C99.9179 95.1483 100.299 95.1892 100.676 95.2177C101.056 95.248 101.44 95.2658 101.821 95.2747C102.215 95.2836 102.613 95.28 103.009 95.2658C103.438 95.2498 103.87 95.2195 104.296 95.1768C104.791 95.1269 105.284 95.0557 105.763 94.9703C106.482 94.8403 107.183 94.6676 107.846 94.4593C108.768 94.1691 109.624 93.8059 110.388 93.3786C110.58 93.2718 110.767 93.1597 110.944 93.0475C111.449 92.7253 111.901 92.3745 112.289 92.0042C112.548 91.7568 112.781 91.4986 112.982 91.2351C113.151 91.0126 113.302 90.7811 113.429 90.5479C113.546 90.3343 113.646 90.1135 113.724 89.8927C113.801 89.6791 113.862 89.4601 113.901 89.2429C113.942 89.0239 113.965 88.8014 113.968 88.5824V88.5059H114.102L114.105 89.7628C114.105 89.7895 114.105 89.8144 114.105 89.8411C114.102 90.0672 114.079 90.2969 114.036 90.523C113.995 90.7473 113.933 90.9716 113.853 91.1924C113.771 91.4185 113.669 91.6464 113.548 91.8671C113.418 92.1039 113.265 92.3407 113.091 92.5704C112.884 92.8392 112.647 93.1045 112.384 93.3555C111.99 93.7311 111.531 94.0872 111.018 94.4148C110.839 94.5287 110.65 94.6427 110.456 94.7495C109.685 95.1803 108.82 95.5471 107.888 95.8408C107.221 96.0509 106.516 96.2236 105.789 96.3554C105.309 96.4426 104.81 96.512 104.312 96.5637C103.886 96.6082 103.45 96.6384 103.016 96.6545C102.761 96.6634 102.503 96.6687 102.247 96.6687L102.254 96.674ZM90.6085 89.615V89.8358C90.6139 91.5716 91.764 93.2184 93.8488 94.4736C94.4291 94.8225 95.0718 95.1341 95.7591 95.4011C96.2077 95.5756 96.683 95.734 97.1709 95.8693C97.5679 95.9797 97.9809 96.0794 98.3993 96.1649C98.7749 96.2396 99.1631 96.3055 99.5529 96.3589C99.9268 96.4106 100.308 96.4515 100.685 96.48C101.061 96.5103 101.447 96.5281 101.83 96.537C102.223 96.5459 102.624 96.5423 103.017 96.5263C103.448 96.5103 103.881 96.48 104.305 96.4373C104.8 96.3856 105.293 96.3162 105.772 96.2307C106.491 96.1008 107.192 95.9281 107.855 95.7198C108.779 95.4296 109.633 95.0664 110.397 94.6391C110.589 94.5323 110.776 94.4201 110.952 94.308C111.458 93.9857 111.91 93.635 112.297 93.2647C112.555 93.019 112.788 92.7591 112.989 92.4956C113.16 92.2713 113.31 92.0398 113.436 91.8084C113.554 91.593 113.653 91.3722 113.732 91.1532C113.808 90.9396 113.869 90.7206 113.908 90.5034C113.949 90.2844 113.972 90.0619 113.975 89.8429C113.975 89.818 113.975 89.7913 113.975 89.7663V89.5438C113.94 89.6773 113.901 89.8091 113.853 89.939C113.771 90.1669 113.667 90.393 113.548 90.6138C113.418 90.8523 113.263 91.0891 113.089 91.317C112.884 91.5858 112.647 91.8511 112.382 92.1021C111.989 92.4778 111.529 92.8339 111.017 93.1614C110.837 93.2754 110.648 93.3893 110.454 93.4961C109.681 93.927 108.818 94.2937 107.887 94.5875C107.219 94.7976 106.514 94.9703 105.788 95.102C105.305 95.1893 104.809 95.2605 104.31 95.3103C103.881 95.3548 103.447 95.3851 103.014 95.4011C102.617 95.4154 102.215 95.4189 101.819 95.41C101.437 95.4029 101.048 95.3833 100.667 95.353C100.286 95.3228 99.9019 95.2818 99.5262 95.2302C99.1364 95.1768 98.7447 95.1109 98.3637 95.0344C97.9435 94.9489 97.5269 94.8492 97.1246 94.737C96.6332 94.6 96.1543 94.4397 95.7003 94.2653C95.006 93.9946 94.3561 93.6795 93.7686 93.327C92.0613 92.2998 90.9664 91.0072 90.6014 89.6132L90.6085 89.615Z" fill="#192147"/>
<path d="M113.489 86.3323C113.475 81.5165 113.462 76.8859 113.448 72.0808C113.445 70.6191 113.439 68.9705 113.436 67.4608C113.567 65.2371 110.959 62.9423 108.477 62.0895C108.036 61.9204 107.587 61.7708 107.131 61.6426C106.742 61.534 106.348 61.4397 105.951 61.3596C105.584 61.2866 105.214 61.2243 104.844 61.1726C104.484 61.1228 104.121 61.0872 103.76 61.0569C103.395 61.0284 103.03 61.0124 102.665 61.0035C102.284 60.9964 101.904 60.9999 101.523 61.0124C101.112 61.0284 100.701 61.0587 100.29 61.0979C99.8161 61.1459 99.3461 61.2154 98.8779 61.2973C98.2031 61.4201 97.5373 61.5821 96.8839 61.7869C96.8839 61.7869 96.8839 61.7869 96.8839 61.7886C95.8121 62.1305 94.8383 62.5542 93.9285 63.1346C93.9285 63.1346 93.9285 63.1346 93.9285 63.1328C93.4674 63.4319 93.0223 63.763 92.6271 64.1405C92.3868 64.3719 92.1642 64.6158 91.963 64.8793C91.8028 65.0894 91.655 65.3119 91.5269 65.5451C91.4165 65.7499 91.3203 65.9617 91.2384 66.1807C91.1654 66.3872 91.1067 66.5991 91.0675 66.8163C91.0675 66.8145 91.0675 66.8127 91.0675 66.811C90.9696 67.3166 91.0088 67.8347 91.0034 68.3492C91.007 69.5829 91.0106 70.9627 91.0141 72.1466C91.0284 77.1814 91.0426 82.1414 91.0568 87.1673C91.3168 82.7841 96.9141 81.0483 100.617 80.7136C105.093 80.2383 113.135 81.8334 113.489 87.1014C113.489 86.8647 113.489 86.6012 113.487 86.3306L113.489 86.3323Z" fill="#E2DED5"/>
<path d="M113.5 90.1401C113.486 85.3243 113.473 80.6936 113.459 75.8885C113.456 74.4268 113.45 72.7782 113.447 71.2685C113.578 69.0449 110.97 66.75 108.488 65.8972C108.047 65.7281 107.598 65.5786 107.142 65.4504C106.753 65.3418 106.359 65.2474 105.962 65.1673C105.595 65.0943 105.225 65.032 104.855 64.9804C104.495 64.9305 104.132 64.8949 103.771 64.8647C103.406 64.8362 103.041 64.8201 102.676 64.8112C102.295 64.8041 101.915 64.8077 101.534 64.8201C101.123 64.8362 100.712 64.8664 100.301 64.9056C99.8271 64.9537 99.3571 65.0231 98.8888 65.105C98.2141 65.2278 97.5482 65.3899 96.8949 65.5946C96.8949 65.5946 96.8949 65.5946 96.8949 65.5964C95.8231 65.9382 94.8493 66.3619 93.9395 66.9423C93.9395 66.9423 93.9395 66.9423 93.9395 66.9405C93.4784 67.2396 93.0333 67.5708 92.6381 67.9482C92.3977 68.1796 92.1752 68.4235 91.974 68.687C91.8138 68.8971 91.666 69.1197 91.5378 69.3529C91.4275 69.5576 91.3313 69.7695 91.2494 69.9885C91.1764 70.195 91.1177 70.4068 91.0785 70.624C91.0785 70.6223 91.0785 70.6205 91.0785 70.6187C90.9806 71.1243 91.0198 71.6424 91.0144 72.1569C91.018 73.3907 91.0215 74.7704 91.0251 75.9544C91.0393 80.9892 91.0536 85.9492 91.0678 90.9751C91.3278 86.5919 96.9251 84.856 100.628 84.5213C105.104 84.046 113.146 85.6412 113.5 90.9092C113.5 90.6724 113.5 90.4089 113.498 90.1383L113.5 90.1401Z" fill="#BD707E"/>
<path d="M104.208 72.3706C107.822 72.3706 110.751 71.0084 110.751 69.328C110.751 67.6476 107.822 66.2854 104.208 66.2854C100.595 66.2854 97.6655 67.6476 97.6655 69.328C97.6655 71.0084 100.595 72.3706 104.208 72.3706Z" fill="#C67F8F"/>
<path d="M114.344 89.8907C114.41 89.6913 114.465 89.4883 114.502 89.2818C114.502 89.2836 114.502 89.2853 114.502 89.2889C114.689 82.0465 114.468 74.9038 114.515 67.7041C113.596 77.2912 90.7631 77.163 89.9442 67.7753C89.9584 72.6944 89.9709 77.4603 89.9851 82.4293C90.108 88.0017 88.7033 91.8864 95.433 94.4608C95.9154 94.6477 96.4086 94.8097 96.9071 94.9504C97.3344 95.0679 97.7652 95.1729 98.1996 95.2601C98.602 95.3403 99.0061 95.4079 99.4138 95.4649C99.809 95.5201 100.204 95.5592 100.601 95.5931C101 95.6251 101.401 95.6411 101.801 95.6518C102.218 95.6589 102.634 95.6554 103.051 95.6411C103.501 95.6233 103.952 95.5913 104.402 95.5468C104.92 95.4934 105.435 95.4168 105.948 95.3278C106.686 95.1943 107.416 95.0162 108.132 94.7919C108.132 94.7919 108.132 94.7919 108.132 94.7901C109.307 94.4163 110.374 93.9516 111.369 93.316C111.369 93.316 111.369 93.3178 111.369 93.3196C111.873 92.992 112.362 92.6306 112.795 92.2158C113.058 91.963 113.302 91.6959 113.521 91.4057C113.521 91.4057 113.521 91.4057 113.521 91.4075C113.696 91.1743 113.858 90.9304 113.998 90.6758C114.119 90.4515 114.224 90.22 114.313 89.9797C114.322 89.9512 114.333 89.9227 114.344 89.8924V89.8907Z" fill="white"/>
<path d="M102.234 95.723C102.09 95.723 101.946 95.723 101.8 95.7194C101.367 95.7087 101.006 95.6909 100.667 95.6642L100.594 95.6589C100.165 95.6232 99.8092 95.5859 99.4781 95.5414L99.4015 95.5325C99.0152 95.479 98.6324 95.415 98.2639 95.342L98.1837 95.3259C97.7476 95.2369 97.3114 95.1319 96.8859 95.0144C96.3785 94.8719 95.88 94.7064 95.4064 94.523C89.7254 92.3492 89.7966 89.2692 89.8963 85.0071C89.9159 84.1846 89.9354 83.3318 89.9159 82.431L89.8749 67.7752L90.0084 67.7699C90.425 72.5572 96.5779 74.7648 102.12 74.788C102.15 74.788 102.181 74.788 102.211 74.788C107.794 74.788 113.979 72.5768 114.445 67.6969L114.579 67.704C114.559 70.5615 114.584 73.4581 114.607 76.2603C114.643 80.5189 114.679 84.9217 114.566 89.2888H114.543L114.565 89.2924C114.529 89.49 114.476 89.6912 114.404 89.9102L114.392 89.9475C114.387 89.9636 114.381 89.9796 114.376 89.9956L114.246 90.4122V90.3178C114.189 90.4478 114.125 90.5778 114.057 90.7042L113.931 90.9374V90.9196C113.826 91.0923 113.708 91.265 113.575 91.443L113.455 91.6033V91.5944C113.274 91.8187 113.073 92.0377 112.841 92.2584L112.729 92.367V92.3635C112.359 92.7035 111.924 93.0346 111.406 93.3693L111.303 93.4352V93.4299C110.392 93.9996 109.361 94.4625 108.157 94.8453L108.152 94.8488C107.461 95.066 106.742 95.2423 106.015 95.3758L105.96 95.3865C105.394 95.4862 104.887 95.5574 104.41 95.6054C103.945 95.65 103.523 95.6802 103.119 95.6962L103.055 95.6998C102.789 95.7087 102.515 95.714 102.236 95.714L102.234 95.723ZM100.555 95.5218L100.607 95.5253C100.961 95.5538 101.34 95.5734 101.803 95.5859C102.209 95.593 102.608 95.5894 102.991 95.577L103.048 95.5734C103.466 95.5592 103.908 95.5289 104.394 95.4808C104.855 95.4345 105.346 95.3651 105.893 95.2707L105.935 95.2618C106.66 95.1301 107.376 94.9556 108.066 94.742V94.7295L108.111 94.726C109.352 94.3307 110.404 93.8518 111.332 93.259L111.413 93.2073C111.94 92.862 112.377 92.5201 112.747 92.1658L112.781 92.1338C113.044 91.8774 113.269 91.6246 113.468 91.3647L113.53 91.2846C113.689 91.0656 113.824 90.8555 113.94 90.6437L113.961 90.6063C114.075 90.3909 114.171 90.1736 114.251 89.9564C114.257 89.9386 114.262 89.9226 114.267 89.9066L114.28 89.871C114.349 89.6609 114.401 89.4651 114.435 89.2746C114.547 84.9127 114.509 80.5153 114.476 76.2639C114.454 73.734 114.433 71.1258 114.444 68.539C113.391 72.9257 107.532 74.9233 102.213 74.9233C102.182 74.9233 102.152 74.9233 102.122 74.9233C96.8556 74.9001 91.0393 72.9133 90.0138 68.6245L90.053 82.431C90.0725 83.3354 90.053 84.1882 90.0334 85.0124C89.9355 89.2212 89.8625 92.2602 95.4563 94.4002C95.9281 94.5818 96.4212 94.7456 96.9251 94.888C97.3328 95.0001 97.7511 95.1016 98.1677 95.1889L98.2122 95.1978C98.5808 95.2707 98.9635 95.3366 99.3516 95.3918L99.4211 95.4007C99.7558 95.447 100.117 95.488 100.553 95.5236L100.555 95.5218Z" fill="#192147"/>
<path d="M111.219 72.7125C112.897 71.6568 113.988 70.2877 114.42 68.7103C114.412 71.2402 114.433 73.7879 114.454 76.2625C114.49 80.514 114.526 84.9114 114.413 89.2714C114.38 89.4602 114.328 89.6524 114.258 89.8625L114.23 89.9462C114.146 90.1758 114.041 90.4055 113.92 90.6316C113.801 90.8488 113.664 91.0625 113.498 91.2868L113.45 91.3491C113.244 91.6197 113.009 91.8814 112.733 92.1485C112.371 92.4956 111.944 92.8303 111.431 93.1704L111.321 93.2398C111.287 93.2612 111.253 93.2825 111.219 93.3021V72.7125Z" fill="#F1EEEA"/>
<path d="M111.095 62.7978C115.791 65.6249 115.631 70.1292 110.735 72.8602C105.839 75.5913 98.0626 75.5111 93.3661 72.684C88.6696 69.8568 88.8298 65.3525 93.7257 62.6215C98.6217 59.8923 106.398 59.9706 111.095 62.7978ZM110.324 63.2286C106.035 60.6471 98.935 60.5759 94.4646 63.0684C89.9942 65.5608 89.8482 69.6734 94.1352 72.2549C98.424 74.8364 105.524 74.9076 109.994 72.4151C114.465 69.9227 114.611 65.8101 110.324 63.2286Z" fill="white"/>
<path d="M102.191 74.9182C98.9599 74.9182 95.7375 74.19 93.3305 72.7408C91.0731 71.3824 89.8464 69.5896 89.8785 67.6954C89.9105 65.7388 91.2653 63.9175 93.6919 62.5644C98.5985 59.828 106.421 59.9082 111.129 62.7407C113.386 64.0991 114.613 65.8919 114.581 67.7862C114.549 69.7427 113.194 71.564 110.767 72.9171C108.371 74.2541 105.277 74.9182 102.191 74.9182ZM102.268 60.6933C99.2056 60.6933 96.1363 61.3538 93.7578 62.6801C91.3739 64.0101 90.044 65.7904 90.012 67.6971C89.9817 69.5433 91.1834 71.2934 93.4 72.6269C98.0716 75.438 105.834 75.5164 110.703 72.8014C113.087 71.4732 114.417 69.6911 114.449 67.7844C114.479 65.9382 113.277 64.1881 111.061 62.8546C108.672 61.4161 105.474 60.6933 102.27 60.6933H102.268ZM102.195 74.2986C99.243 74.2986 96.3001 73.6328 94.1014 72.31C92.038 71.0691 90.9182 69.4312 90.9467 67.6989C90.9769 65.9115 92.2143 64.2451 94.4308 63.0095C98.9119 60.5099 106.056 60.5829 110.356 63.1715C112.419 64.4124 113.539 66.0503 113.511 67.7826C113.48 69.57 112.243 71.2364 110.027 72.472C107.837 73.6933 105.013 74.3004 102.195 74.3004V74.2986ZM102.264 61.3111C99.4691 61.3111 96.6687 61.9128 94.4966 63.1235C92.3229 64.3359 91.1087 65.9613 91.0802 67.6989C91.0517 69.3813 92.1502 70.9783 94.1691 72.1943C98.433 74.7597 105.517 74.8309 109.961 72.3545C112.134 71.1421 113.349 69.5166 113.377 67.779C113.406 66.0966 112.307 64.4997 110.286 63.2837C108.106 61.9716 105.188 61.3111 102.262 61.3111H102.264Z" fill="#192147"/>
<path d="M106.411 81.6639C107.099 81.6639 107.657 81.1059 107.657 80.4176C107.657 79.7293 107.099 79.1714 106.411 79.1714C105.722 79.1714 105.164 79.7293 105.164 80.4176C105.164 81.1059 105.722 81.6639 106.411 81.6639Z" fill="#D66C7B"/>
<path d="M102.85 81.6639C103.538 81.6639 104.096 81.1059 104.096 80.4176C104.096 79.7293 103.538 79.1714 102.85 79.1714C102.162 79.1714 101.604 79.7293 101.604 80.4176C101.604 81.1059 102.162 81.6639 102.85 81.6639Z" fill="#5CABDF"/>
<path d="M99.2894 81.6641C99.9777 81.6641 100.536 81.1061 100.536 80.4179C100.536 79.7296 99.9777 79.1716 99.2894 79.1716C98.6011 79.1716 98.0432 79.7296 98.0432 80.4179C98.0432 81.1061 98.6011 81.6641 99.2894 81.6641Z" fill="#63C740"/>
<path d="M99.2895 85.2246C99.9778 85.2246 100.536 84.6667 100.536 83.9784C100.536 83.2901 99.9778 82.7322 99.2895 82.7322C98.6012 82.7322 98.0432 83.2901 98.0432 83.9784C98.0432 84.6667 98.6012 85.2246 99.2895 85.2246Z" fill="#C98DEF"/>
<path d="M102.85 85.2246C103.538 85.2246 104.096 84.6667 104.096 83.9784C104.096 83.2901 103.538 82.7322 102.85 82.7322C102.162 82.7322 101.604 83.2901 101.604 83.9784C101.604 84.6667 102.162 85.2246 102.85 85.2246Z" fill="#FAA669"/>
<path d="M99.2895 88.7851C99.9778 88.7851 100.536 88.2271 100.536 87.5388C100.536 86.8506 99.9778 86.2926 99.2895 86.2926C98.6012 86.2926 98.0432 86.8506 98.0432 87.5388C98.0432 88.2271 98.6012 88.7851 99.2895 88.7851Z" fill="#3AEFC3"/>
</svg>
