<svg width="1400" height="360" viewBox="0 0 1400 360" fill="none" xmlns="http://www.w3.org/2000/svg">
<path opacity="0.4" fill-rule="evenodd" clip-rule="evenodd" d="M-0.950195 483.854C289.869 602.336 489.801 614.03 598.845 518.938C762.4 376.299 664.298 296.177 787.421 112.199C910.544 -71.7784 1147.75 68.8201 1299.56 -44.0934C1400.79 -119.367 1418.61 -224.411 1353.02 -359.226L-0.950195 -317.251V483.854Z" fill="url(#paint0_linear_4053_14565)"/>
<path opacity="0.6" fill-rule="evenodd" clip-rule="evenodd" d="M1449.05 -582.05C1118.88 -716.583 891.893 -729.862 768.079 -621.887C582.376 -459.925 693.771 -368.946 553.984 -160.045C414.198 48.8561 144.908 -110.789 -27.4706 17.4192C-142.39 102.894 -162.616 282.17 -88.1501 435.249L1449.05 437.586V-582.05Z" fill="url(#paint1_linear_4053_14565)"/>
<path fill-rule="evenodd" clip-rule="evenodd" d="M1675.15 -315C1344.98 -449.533 1117.99 -462.812 994.18 -354.837C808.477 -192.875 919.871 -101.892 780.085 107.005C640.298 315.903 371.008 156.261 198.629 284.455C83.7105 369.939 63.484 489.22 137.95 642.299L1675.15 594.636V-315Z" fill="url(#paint2_linear_4053_14565)"/>
<path opacity="0.1" fill-rule="evenodd" clip-rule="evenodd" d="M2243.2 -398.475C1913.03 -533.008 1686.04 -546.287 1562.23 -438.312C1376.53 -276.35 1487.92 -185.371 1348.13 23.5301C1208.35 232.431 939.058 72.7856 766.68 200.98C651.761 286.464 631.534 405.745 706 558.824L2243.2 511.161V-398.475Z" fill="url(#paint3_linear_4053_14565)"/>
<path fill-rule="evenodd" clip-rule="evenodd" d="M-652 308.473C-321.833 443.006 -94.8431 456.285 28.9705 348.31C214.674 186.358 103.279 95.3575 243.065 -113.533C382.852 -322.423 652.142 -162.788 824.52 -291C939.439 -376.47 959.671 -495.746 885.214 -648.826L-651.986 -601.163L-652 308.473Z" fill="url(#paint4_linear_4053_14565)"/>
<path opacity="0.25" d="M1998.87 -427.185L1998.42 -427.797L-34.9502 -385.769V417.061L-33.9702 417.327C402.725 535.944 703.141 547.579 867.28 452.232C911.576 426.476 944.668 401.867 969.084 377.136C990.749 355.191 1005.61 333.232 1016.5 308.592C1020.68 299.017 1024.32 289.215 1027.41 279.231L1027.73 278.212C1030.11 270.575 1032.19 263.162 1035.19 251.889L1038.96 237.658C1040.05 233.552 1040.97 230.119 1041.88 226.808L1042.35 225.058C1044.38 217.746 1046.29 211.236 1048.3 204.901L1048.42 204.527C1053.78 187.702 1059.77 172.397 1067.21 157.105C1085.18 120.191 1111.47 84.0636 1150.4 45.2871C1175.35 20.4371 1204.14 0.79514 1237.03 -14.3179C1267.28 -28.2199 1300.94 -38.3034 1338.88 -45.2789C1372.3 -51.4249 1408.73 -55.1454 1451.19 -57.1789L1452.42 -57.2384C1470 -58.0574 1488.59 -58.5964 1509.73 -58.9429L1513.14 -58.9954C1526.62 -59.2054 1538.81 -59.3139 1561.4 -59.4609L1580.39 -59.5799C1620.03 -59.8389 1643.37 -60.1889 1668.35 -61.0604L1670.3 -61.1304C1702.19 -62.2784 1730.32 -64.2104 1756.66 -67.2379C1819.98 -74.5109 1872.65 -88.1714 1918.21 -110.757C2070.68 -186.348 2097.56 -291.824 1998.87 -427.185ZM-31.8002 -383.732L1996.48 -425.655L1996.04 -426.268C2094.08 -291.884 2067.51 -187.273 1916.33 -112.433C1871.21 -90.0614 1819 -76.5199 1756.13 -69.2924C1729.65 -66.2509 1701.34 -64.3189 1669.16 -63.1779L1668.18 -63.1429C1643.77 -62.2924 1620.91 -61.9389 1582.78 -61.6799L1555.95 -61.5119C1535 -61.3719 1523.47 -61.2529 1509.67 -61.0289L1507.46 -60.9904C1486.7 -60.6404 1468.37 -60.0874 1450.98 -59.2614C1408.33 -57.2279 1371.7 -53.4864 1338.06 -47.3019C1299.81 -40.2634 1265.82 -30.0854 1235.28 -16.0434C1202.06 -0.776379 1172.98 19.0441 1147.81 44.1216C1108.71 83.0556 1082.29 119.358 1064.23 156.458C1056.84 171.637 1050.88 186.824 1045.55 203.473L1045.35 204.089C1043.25 210.687 1041.26 217.459 1039.14 225.107L1038.6 227.091C1037.93 229.52 1037.25 232.03 1036.5 234.837L1032.3 250.755C1029.2 262.459 1027.08 270.005 1024.65 277.789L1024.49 278.303C1021.39 288.406 1017.72 298.323 1013.49 308.008C1002.69 332.455 987.935 354.208 966.466 375.988C942.215 400.555 909.315 425.02 865.225 450.654L860.294 453.454C697.894 544.22 404.546 532.701 -19.7497 418.895L-31.8002 415.647V-383.732Z" fill="#6468B0"/>
<path opacity="0.25" d="M507.55 778.879L508.04 779.376L2095.15 405.964C2167.72 179.726 2190.49 -110.91 2163.47 -205.944C2136.46 -300.978 1999.7 -383.311 1753.2 -452.942L1752.41 -452.995C1402.94 -476.968 1181.66 -426.158 1088.57 -300.566C1063.45 -266.651 1046.16 -236.149 1035.2 -207.319C1025.47 -181.741 1020.69 -157.553 1019.52 -131.604C1019.09 -121.979 1019.15 -112.081 1019.63 -101.108L1019.68 -100.058C1020.03 -92.2184 1020.55 -84.6584 1021.46 -73.1959L1022.63 -58.7164C1022.96 -54.5409 1023.23 -51.0479 1023.47 -47.6739L1023.6 -45.9064C1024.13 -38.4584 1024.52 -31.7979 1024.79 -25.2879V-24.9064C1025.49 -7.6164 1025.33 8.34363 1024.11 24.5871C1021.16 63.7871 1011.95 103.978 994.295 149.313C982.976 178.363 967.439 203.213 947.696 224.528C929.541 244.128 907.859 260.788 882.246 275.327C859.667 288.134 834.24 299.232 803.965 309.942L803.09 310.25C790.553 314.667 777.19 319.021 761.944 323.718L759.494 324.474C749.764 327.456 740.944 330.074 724.581 334.883L710.826 338.915C682.126 347.347 665.277 352.502 647.382 358.494L645.982 358.963C623.144 366.663 603.257 374.314 584.956 382.662C540.968 402.72 506.468 426.73 479.571 457.856C389.551 562.041 398.877 669.049 507.55 778.879ZM2198.11 415.079L508.862 776.916L509.349 777.413C401.416 668.376 392.099 562.269 481.398 459.091C508.04 428.256 542.238 404.456 585.904 384.541C604.297 376.141 624.32 368.441 647.371 360.71L648.071 360.475C665.571 354.62 682.063 349.562 709.671 341.442L729.11 335.737C744.279 331.278 752.616 328.786 762.57 325.724L764.166 325.23C779.15 320.596 792.31 316.288 804.7 311.902C835.111 301.143 860.679 289.985 883.408 277.095C909.255 262.43 931.144 245.623 949.481 225.816C969.431 204.27 985.111 179.203 996.528 149.887C1014.26 104.366 1023.51 63.9971 1026.48 24.5871C1027.69 8.46263 1027.88 -7.37838 1027.18 -24.4934L1027.15 -25.1269C1026.88 -31.9064 1026.47 -38.8329 1025.91 -46.6204L1025.77 -48.6469C1025.59 -51.1179 1025.39 -53.6729 1025.17 -56.5254L1023.87 -72.7059C1022.92 -84.6059 1022.39 -92.3059 1022.03 -100.286L1022 -100.814C1021.5 -111.937 1021.44 -121.937 1021.87 -131.656C1023.03 -157.399 1027.77 -181.377 1037.42 -206.749C1048.31 -235.386 1065.5 -265.71 1090.5 -299.467L1093.3 -303.188C1186.37 -424.017 1402.48 -473.484 1741.65 -451.588L1751.29 -450.947C1937.13 -447.844 2043.45 -399.185 2070.24 -304.969C2097.03 -210.754 2139.65 109.258 2198.1 395.065L2198.11 415.079Z" fill="#6468B0"/>
<defs>
<linearGradient id="paint0_linear_4053_14565" x1="44.5884" y1="-181.499" x2="647.605" y2="328.615" gradientUnits="userSpaceOnUse">
<stop stop-color="#3F2B6F" stop-opacity="0"/>
<stop offset="1" stop-color="#3F2B6F"/>
</linearGradient>
<linearGradient id="paint1_linear_4053_14565" x1="1383.08" y1="370.212" x2="728.999" y2="-597.789" gradientUnits="userSpaceOnUse">
<stop stop-color="#3F2B6F" stop-opacity="0"/>
<stop offset="1" stop-color="#3F2B6F"/>
</linearGradient>
<linearGradient id="paint2_linear_4053_14565" x1="1606.65" y1="637.533" x2="951.587" y2="-330.694" gradientUnits="userSpaceOnUse">
<stop stop-color="#3F2B6F" stop-opacity="0"/>
<stop offset="1" stop-color="#3F2B6F"/>
</linearGradient>
<linearGradient id="paint3_linear_4053_14565" x1="1452.64" y1="-510.425" x2="1452.64" y2="558.824" gradientUnits="userSpaceOnUse">
<stop stop-color="#AE6DDF"/>
<stop offset="1" stop-color="#6A67FE"/>
</linearGradient>
<linearGradient id="paint4_linear_4053_14565" x1="929.125" y1="-648.826" x2="-652" y2="-648.826" gradientUnits="userSpaceOnUse">
<stop stop-color="#201E43" stop-opacity="0"/>
<stop offset="1" stop-color="#272A5E"/>
</linearGradient>
</defs>
</svg>
