<svg width="1280" height="454" viewBox="0 0 1280 454" fill="none" xmlns="http://www.w3.org/2000/svg">
<g clip-path="url(#clip0)">
<g clip-path="url(#clip1)">
<rect width="1280" height="840" fill="white"/>
<rect width="1280" height="378" fill="white"/>
<rect x="-5" width="1285" height="406" fill="url(#paint0_linear)"/>
<g opacity="0.5">
<path d="M158.5 455.085C91.3 501.085 62.1667 602.252 56 647.085H1508.5L1531.5 -118.915C1187.33 -136.082 496.1 -169.915 484.5 -167.915C470 -165.415 437 -141.915 440 -0.4151C443 141.085 242.5 397.585 158.5 455.085Z" fill="white" fill-opacity="0.1" style="mix-blend-mode:soft-light"/>
<path d="M343 501.585C270.2 552.385 220.667 626.418 205 657.085L1477 625.585C1505.33 418.752 1545 -8.71502 1477 -63.915C1392 -132.915 774.5 -164.915 680.5 120.585C586.5 406.085 434 438.085 343 501.585Z" fill="white" fill-opacity="0.1" style="mix-blend-mode:soft-light"/>
<g style="mix-blend-mode:soft-light">
<path d="M499.344 529.088C395.422 556.207 317.814 625.719 292 657.085L1440.64 623.771C1570.71 497.332 1825.17 64.2933 1513 -26.415C1122.79 -139.8 810.61 208.803 730.171 294.719C649.731 380.635 629.247 495.189 499.344 529.088Z" fill="white" fill-opacity="0.1"/>
</g>
</g>
<circle cx="188.5" cy="414.5" r="91.5" fill="#E6EDEF"/>
<circle cx="111.5" cy="391.5" r="72.5" fill="#E6EDEF"/>
<circle cx="197.5" cy="455.5" r="85.5" fill="#E6EDEF"/>
<circle cx="1230.5" cy="364.5" r="109.5" fill="#E6EDEF"/>
<circle cx="1158.5" cy="448.5" r="72.5" fill="#E6EDEF"/>
<circle cx="1279.5" cy="399.5" r="94.5" fill="#E6EDEF"/>
<circle cx="1086.5" cy="428.5" r="43.5" fill="#E6EDEF"/>
<circle cx="1085.5" cy="406.5" r="77.5" fill="#E6EDEF"/>
<circle cx="988.5" cy="433.5" r="62.5" fill="#E6EDEF"/>
<circle cx="20.5" cy="388.5" r="91.5" fill="#F2F7F9"/>
<circle cx="111.5" cy="368.5" r="72.5" fill="#F2F7F9"/>
<circle cx="188.5" cy="438.5" r="85.5" fill="#F2F7F9"/>
<circle cx="396.5" cy="431.5" r="72.5" fill="#F2F7F9"/>
<circle cx="515.5" cy="453.5" r="72.5" fill="#F2F7F9"/>
<circle cx="712.5" cy="433.5" r="72.5" fill="#F2F7F9"/>
<circle cx="903.5" cy="430.5" r="72.5" fill="#F2F7F9"/>
<circle cx="1142.5" cy="393.5" r="109.5" fill="#F2F7F9"/>
<circle cx="1158.5" cy="425.5" r="72.5" fill="#F2F7F9"/>
<circle cx="1279.5" cy="376.5" r="94.5" fill="#F2F7F9"/>
<circle cx="1086.5" cy="405.5" r="43.5" fill="#F2F7F9"/>
<circle cx="296" cy="408" r="52" fill="#F2F7F9"/>
<circle cx="609.5" cy="443.5" r="62.5" fill="#F2F7F9"/>
<circle cx="1018.5" cy="411.5" r="77.5" fill="#F2F7F9"/>
<circle cx="812.5" cy="441.5" r="62.5" fill="#F2F7F9"/>
<circle cx="20.5" cy="474.5" r="91.5" fill="white"/>
<circle cx="97.5" cy="443.5" r="72.5" fill="white"/>
<circle cx="188.5" cy="464.5" r="85.5" fill="white"/>
<circle cx="356.5" cy="424.5" r="72.5" fill="white"/>
<circle cx="501.5" cy="426.5" r="72.5" fill="white"/>
<circle cx="677.5" cy="426.5" r="72.5" fill="white"/>
<circle cx="853.5" cy="414.5" r="72.5" fill="white"/>
<circle cx="1050.5" cy="451.5" r="109.5" fill="white"/>
<circle cx="1158.5" cy="421.5" r="72.5" fill="white"/>
<circle cx="1279.5" cy="462.5" r="94.5" fill="white"/>
<circle cx="438.5" cy="392.5" r="43.5" fill="white"/>
<circle cx="257.5" cy="410.5" r="43.5" fill="white"/>
<circle cx="591.5" cy="420.5" r="62.5" fill="white"/>
<circle cx="935.5" cy="410.5" r="62.5" fill="white"/>
<circle cx="762.5" cy="415.5" r="62.5" fill="white"/>
<rect y="397" width="1280" height="523" fill="white"/>
<ellipse cx="571.435" cy="409.628" rx="97.0295" ry="6.08812" fill="#E6EDEF"/>
<path d="M527.285 391.885L520.211 408.832C520.211 408.832 519.838 410.958 525.195 410.958C530.552 410.958 559.311 408.382 559.311 408.382C559.311 408.382 542.786 406.081 541.613 401.388C540.44 396.695 527.285 391.885 527.285 391.885Z" fill="#63C740"/>
<path d="M541.613 401.388C540.934 398.691 536.296 395.949 532.476 394.111C530.978 394.338 529.63 395.145 528.723 396.358L523.806 407.933C523.806 407.933 522.984 410.383 525.195 410.958C530.548 410.958 559.311 408.382 559.311 408.382C559.311 408.382 542.786 406.081 541.613 401.388Z" fill="#39AE10"/>
<path d="M683.907 310.264H637.751C637.027 310.264 636.321 310.492 635.733 310.914C635.145 311.337 634.705 311.933 634.474 312.62L609.198 384.109C609.198 384.109 668.523 379.614 686.918 313.932C687.44 312.067 685.84 310.264 683.907 310.264Z" fill="#63C740"/>
<path d="M494.207 362.533C505.716 387.665 536.97 405.685 573.724 405.685C610.479 405.685 641.732 387.665 653.242 362.533H494.207Z" fill="#4BBA24"/>
<path d="M504.593 378.05C523.806 381.497 577.05 388.294 646.105 374.22C648.694 370.917 650.925 367.349 652.762 363.576C641.8 364.331 632.119 365.23 632.119 365.23L496.84 365.72V367.581C499.055 371.329 501.653 374.838 504.593 378.05Z" fill="#39AE10"/>
<path d="M467.627 362.533C467.627 362.533 465.829 377.816 569.199 377.816C640.658 377.816 680.712 362.533 686.95 354.891C688.986 352.401 664.928 348.598 644.254 346.8C623.58 345.002 509.424 348.148 494.593 349.047C479.762 349.946 469.874 357.139 467.627 362.533Z" fill="#63C740"/>
<path d="M588.43 404.153L585.378 393.549L578.219 391.885L575.329 405.582C579.722 405.391 584.099 404.914 588.43 404.153Z" fill="#39AE10"/>
<path d="M578.219 391.885C578.219 391.885 585.859 410.958 593.558 410.958C601.257 410.958 628.164 408.76 634.191 407.663C637.485 405.465 632.843 406.562 625.553 405.465C618.263 404.368 603.841 401.374 603.081 391.885C594.106 391.751 578.219 391.885 578.219 391.885Z" fill="#4BBA24"/>
<path d="M627.175 347.699H662.591L668.523 338.259L630.542 338.115L627.175 347.699Z" fill="#63C740"/>
<path d="M627.175 347.699L638.937 314.215C639.103 313.737 639.113 313.219 638.966 312.734C638.82 312.249 638.523 311.824 638.119 311.518C637.315 310.943 636.101 310.817 634.474 312.633C632.119 320.275 622.02 347.695 622.02 347.695L627.175 347.699Z" fill="#7EE45A"/>
<path d="M653.242 350.846C653.242 347.699 617.629 346.8 573.693 346.8C528.3 346.8 494.144 349.358 494.144 350.846C494.144 355.79 529.761 358.038 573.693 358.038C617.625 358.038 653.242 352.333 653.242 350.846Z" fill="#39AE10"/>
<path d="M645.126 342.498C634.991 334.969 600.245 338.156 595.32 340.763C590.102 343.523 586.92 351.623 586.92 351.623V355.705C593.846 356.213 602.511 356.518 612.088 356.635C628.47 355.439 641.301 353.713 648.043 352.392C647.674 348.701 646.843 343.874 645.126 342.498Z" fill="#5B6C70"/>
<path d="M648.06 352.392C647.674 348.701 646.842 343.874 645.126 342.503C645 342.413 644.874 342.323 644.744 342.238C640.384 343.137 639.288 349.542 639.054 353.866C642.708 353.349 645.746 352.846 648.06 352.392Z" fill="#4D5C5E"/>
<path d="M573.693 358.038C589.037 358.038 603.356 357.341 615.517 356.375C615.225 351.43 614.137 338.884 610.546 336.012C594.816 324.325 540.885 329.269 533.244 333.315C525.154 337.603 520.211 350.176 520.211 350.176V356.509C534.336 357.543 553.1 358.038 573.693 358.038Z" fill="#5B6C70"/>
<path d="M610.546 336.012C610.358 335.873 610.155 335.733 609.958 335.598C601.773 337.289 601 351.47 601.036 357.323C606.124 357.058 610.973 356.734 615.517 356.375C615.225 351.434 614.142 338.884 610.546 336.012Z" fill="#4D5C5E"/>
<path d="M573.693 358.038C575.11 358.038 576.517 358.038 577.913 358.038C574.463 354.322 570.283 351.358 565.634 349.334C560.985 347.31 555.968 346.268 550.898 346.274H517.065C517.065 346.274 504.93 346.351 494.144 350.846C494.144 355.79 529.761 358.038 573.693 358.038Z" fill="#39AE10"/>
<mask id="mask0" mask-type="alpha" maskUnits="userSpaceOnUse" x="490" y="256" width="166" height="103">
<path d="M491.622 352.644C491.622 352.644 543.581 366.578 654.456 351.021C663.579 314.885 629.31 256 575.041 256C520.772 256 481.56 313.537 491.622 352.644Z" fill="#799EAA"/>
</mask>
<g mask="url(#mask0)">
<path d="M573.019 420.069C616.58 420.069 651.894 384.75 651.894 341.181C651.894 297.612 616.58 262.293 573.019 262.293C529.457 262.293 494.144 297.612 494.144 341.181C494.144 384.75 529.457 420.069 573.019 420.069Z" stroke="white" stroke-width="4" stroke-miterlimit="10"/>
<path opacity="0.5" d="M573.019 420.069C616.58 420.069 651.894 384.75 651.894 341.181C651.894 297.612 616.58 262.293 573.019 262.293C529.457 262.293 494.144 297.612 494.144 341.181C494.144 384.75 529.457 420.069 573.019 420.069Z" fill="#A6D3DD" fill-opacity="0.6"/>
</g>
<ellipse cx="770.614" cy="432.253" rx="91.6395" ry="6.74647" fill="#E6EDEF"/>
<path d="M730.831 224.66C730.831 224.66 702.94 219.657 692.109 217.56C681.278 215.463 661.949 212.525 661.949 212.525C661.949 212.525 662.05 216.993 660.745 218.452C665.965 219.44 689.093 225.841 696.306 226.637C703.518 227.432 721.634 233.037 721.634 233.037L726.453 237.457L730.831 224.66Z" fill="#E5BCFF"/>
<path d="M727.06 226.283C727.06 226.283 713.333 227.918 700.868 225.696C688.402 223.474 665.608 216.455 665.608 216.455L663.222 219.015C671.114 220.867 689.916 225.95 696.289 226.649C703.518 227.452 721.618 233.049 721.618 233.049L726.437 237.469L727.039 235.713L727.06 226.283Z" fill="#C98DEF"/>
<path d="M732.879 418.708L717.618 285.62C717.618 285.62 738.617 283.009 752.958 286.689C754.187 305.899 748.942 418.708 748.942 418.708H732.879Z" fill="#AE69DB"/>
<path d="M738.445 376.6L734.429 298.55H726.457L730.875 302.701C730.875 302.701 734.369 358.74 732.999 362.633C730.875 363.409 726.509 363.264 726.509 363.264L727.762 374.173L738.445 376.6Z" fill="#A459D3"/>
<path d="M753.111 286.722C752.103 271.453 751.998 260.287 751.998 260.287C751.998 260.287 758.067 235.32 756.745 225.331C752.143 223.551 730.835 224.652 730.835 224.652L727.148 232.157C727.148 232.157 723.052 243.227 723.052 246.1C723.052 248.973 722.65 256.213 722.65 256.213C720.394 265.904 718.718 275.722 717.63 285.613C729.497 285.343 741.212 285.878 753.111 286.722Z" fill="#C98DEF"/>
<path d="M730.83 224.66C730.489 225.355 730.292 225.753 730.184 225.982L730.116 226.118L730.063 226.223L730.035 226.279C730.035 226.279 748.713 227.115 749.898 228.167C748.183 233.628 741.232 254.184 741.75 265.683C742.268 277.183 748.175 276.934 748.175 276.934V286.4C749.814 286.504 751.456 286.614 753.103 286.729C752.095 271.461 751.99 260.295 751.99 260.295C751.99 260.295 754.914 248.241 756.259 237.557L756.725 225.339L756.175 225.162C750.661 223.639 730.835 224.66 730.83 224.66Z" fill="#B974E6"/>
<path d="M743.015 235.504H751.85L750.549 241.386L741.661 240.848L743.015 235.504Z" fill="#E3ECF2"/>
<path d="M740.26 211.867L741.348 224.692C741.348 224.692 743.384 228.477 748.175 224.379C748.039 219.047 746.617 208.508 746.617 208.508L740.26 211.867Z" fill="#E3ECF2"/>
<path d="M748.179 224.378C748.083 220.602 747.34 214.221 746.918 210.814L741.517 211.216L740.26 211.866L741.079 220.15C742.204 220.508 743.918 220.882 745.436 220.5C747.207 220.058 746.019 222.301 745.436 226.05C746.449 225.672 747.38 225.105 748.179 224.378Z" fill="#D1DBE0"/>
<path d="M752.958 202.547C752.958 202.547 752.978 217.309 744.364 218.128C735.75 218.948 735.441 215.782 733.433 211.362C731.393 206.866 729.212 193.711 732.899 184.803C736.585 175.896 747.035 174.891 749.589 176.209C752.143 177.527 755.858 186.427 755.023 192.024L753.914 196.359C753.863 198.454 753.542 200.534 752.958 202.547Z" fill="#F1D3BD"/>
<path d="M734.618 200.514C735.039 200.514 735.381 199.94 735.381 199.232C735.381 198.524 735.039 197.95 734.618 197.95C734.196 197.95 733.855 198.524 733.855 199.232C733.855 199.94 734.196 200.514 734.618 200.514Z" fill="#4D5C5E"/>
<path d="M743.051 200.514C743.472 200.514 743.814 199.94 743.814 199.232C743.814 198.524 743.472 197.95 743.051 197.95C742.63 197.95 742.288 198.524 742.288 199.232C742.288 199.94 742.63 200.514 743.051 200.514Z" fill="#4D5C5E"/>
<path d="M736.706 204.053C736.706 204.053 738.686 204.54 740.276 204.053C741.866 203.567 738.798 207.581 736.706 204.053Z" fill="#E5C2B1"/>
<path d="M732.228 196.492C733.379 195.806 734.688 195.429 736.027 195.399C738.135 195.399 735.597 194.33 734.766 194.559C733.935 194.788 732.228 195.194 732.228 196.492Z" fill="#E2601E"/>
<path d="M741.027 195.254C742.363 195.155 743.702 195.403 744.914 195.973C746.802 196.918 745.007 194.828 744.159 194.664C743.312 194.499 741.621 194.101 741.027 195.254Z" fill="#E2601E"/>
<path d="M738.836 209.271L744.305 206.185C744.305 206.185 746.796 213.596 738.836 209.271Z" fill="white"/>
<path d="M752.958 202.547C753.538 200.533 753.855 198.454 753.902 196.359L755.023 192.032C755.424 189.368 754.786 185.957 753.737 182.971C750.854 180.733 746.312 180.223 738.445 180.347C737.452 180.364 736.464 180.477 735.493 180.685C734.388 181.895 733.504 183.289 732.879 184.803C731.865 187.389 731.246 190.113 731.043 192.884C741.184 193.964 745.32 190.071 747.533 188.203C748.195 190.951 751.083 196.998 751.85 198.71C751.501 200.956 750.549 206.77 748.179 211.893C745.81 217.016 738.814 217.92 738.79 217.92C740.127 218.269 741.911 218.362 744.364 218.129C752.978 217.309 752.958 202.547 752.958 202.547Z" fill="#E5C2B1"/>
<path d="M747.633 173.798C747.633 173.798 746.404 166.815 752.549 166.405C758.693 165.995 763.681 170.331 766.516 174.517C769.351 178.704 764.91 188.649 760.171 188.179C755.432 187.708 747.633 173.798 747.633 173.798Z" fill="#FB7C3C"/>
<path d="M766.516 174.517C764.785 171.962 762.251 169.354 759.147 167.799C761.496 173.826 756.235 176.169 756.235 176.169C756.235 176.169 753.625 178.27 752.147 180.85C754.681 184.377 757.802 187.953 760.179 188.187C764.922 188.665 769.351 178.704 766.516 174.517Z" fill="#E2601E"/>
<path d="M743.123 175.426C743.525 175.024 744.766 172.613 747.633 172.991C750.501 173.368 763.613 175.426 759.938 185.266C755.006 181.573 743.123 175.426 743.123 175.426Z" fill="#63C740"/>
<path d="M758.119 176.892C757.039 177.889 755.143 178.375 755.143 178.375C755.946 179.942 757.601 183.196 759.159 184.719C759.424 184.904 759.677 185.089 759.914 185.266C761.376 181.392 760.223 178.724 758.119 176.892Z" fill="#39AE10"/>
<path d="M753.368 198.794C753.368 198.794 748.452 189.774 748.452 184.036C745.175 186.495 743.328 191.698 729.397 190.465C728.192 185.241 731.65 167.727 753.778 177.109C764.432 183.618 761.103 197.428 755.902 200.51L753.368 198.794Z" fill="#FB7C3C"/>
<path d="M748.452 184.036C748.452 189.773 753.368 198.794 753.368 198.794L755.902 200.514C760.348 197.878 763.42 187.411 757.565 180.359C758.553 186.788 748.452 184.036 748.452 184.036Z" fill="#E2601E"/>
<path d="M752.958 202.547C752.958 202.547 756.802 200.891 756.93 197.416C757.059 193.94 754.187 194.76 753.368 195.58C752.549 196.399 752.958 202.547 752.958 202.547Z" fill="#E5C2B1"/>
<path d="M724.999 238.337C724.999 238.337 722.634 228.477 729.188 219.452C735.742 210.428 734.276 224.511 734.276 224.511L730.827 224.656C728.216 228.901 726.252 233.512 724.999 238.337Z" fill="#E3ECF2"/>
<path d="M733.031 219.268C728.706 219.778 727.445 227.424 727.08 232.125C728.118 229.532 729.379 227.034 730.851 224.66L733.859 224.531C733.895 222.261 733.834 219.268 733.031 219.268Z" fill="#D1DBE0"/>
<path d="M756.283 237.441C756.283 237.441 755.95 221.506 757.018 219.252C758.087 216.998 758.826 226.283 758.826 226.283C758.826 226.283 758.175 236.569 756.283 237.441Z" fill="#E3ECF2"/>
<path d="M640.886 217.211L645.56 212.019H649.118L649.379 215.635C649.379 215.635 643.259 222.896 640.886 217.211Z" fill="#C5CFD3"/>
<path d="M654.178 216.25C654.178 216.25 654.793 221.072 653.199 221.176C651.604 221.281 649.508 219.264 649.628 219.002C649.749 218.741 649.379 215.631 649.379 215.631L654.178 216.25Z" fill="#C5CFD3"/>
<path d="M663.901 210.693C663.901 210.693 667.114 210.938 666.969 212.385C666.825 213.831 664.596 220.357 661.748 220.562C658.901 220.766 659.186 217.934 659.186 217.934C659.186 217.934 662.323 217.584 663.266 211.409C663.255 211.319 663.263 211.227 663.29 211.141C663.316 211.054 663.361 210.975 663.421 210.907C663.481 210.839 663.555 210.785 663.638 210.748C663.721 210.711 663.81 210.693 663.901 210.693Z" fill="#E3ECF2"/>
<path d="M647.319 212.887C647.319 212.887 644.749 214.414 644.179 215.796C643.608 217.178 649.343 217.769 651.672 217.6L657.367 217.199L659.202 217.942C659.202 217.942 663.443 216.564 663.909 212.196C663.935 211.967 663.885 211.736 663.765 211.539C663.646 211.342 663.465 211.19 663.25 211.107C658.283 209.175 656.327 206.868 650.243 206.985C643.89 207.105 633.488 206.844 631.135 206.679C629.613 208.801 631.705 209.978 634.777 210.782C637.85 211.585 647.319 212.887 647.319 212.887Z" fill="white"/>
<path d="M727.774 374.173L732.879 418.708C732.879 418.708 717.618 426.037 715.293 429.601H741.939L740.396 418.708L738.441 374.173C734.899 373.734 731.316 373.734 727.774 374.173Z" fill="#4D5C5E"/>
<path d="M752.958 286.689C738.617 283.009 717.618 285.62 717.618 285.62L717.911 288.18L747.284 290.647C747.284 290.647 751.344 334.134 748.657 362.521C745.975 363.529 739.762 362.521 739.762 362.521C739.762 362.521 740.433 373.417 743.959 373.847C746.258 374.096 748.578 374.096 750.878 373.847C752.227 340.076 753.669 297.779 752.958 286.689Z" fill="#A459D3"/>
<path d="M738.441 374.173C742.556 373.49 746.745 373.379 750.89 373.843C750.513 383.173 748.97 418.708 748.97 418.708C750.199 422.473 750.629 423.759 750.826 429.601H731.24C731.485 424.968 738.328 421.042 740.396 418.708L738.441 374.173Z" fill="#4D5C5E"/>
<path d="M727.176 429.601L736.525 418.821L733.011 373.847L738.441 374.173L740.397 418.708L736.393 429.601H727.176Z" fill="#3A4647"/>
<path d="M736.987 429.601H715.293V431.903H736.987V429.601Z" fill="#5B6C70"/>
<path d="M750.878 429.601H735.381V431.903H750.878V429.601Z" fill="#5B6C70"/>
<path d="M817.057 428.556L799.595 416.747C799.595 416.747 798.636 398.666 797.804 374.836C793.668 374.836 789.535 375.189 785.66 376.628C788.331 394.21 790.808 410.909 792.065 418.511C791.32 421.955 790.244 425.319 788.853 428.556H817.057Z" fill="#4D5C5E"/>
<path d="M745.882 418.511C745.882 418.511 732.228 425.342 728.212 430.967C735.842 430.967 755.488 429.573 755.488 429.573L751.505 416.904C751.505 416.904 755.424 398.188 760.958 375.957C757.344 374.968 753.798 373.892 749.914 373.867C748.051 389.309 746.561 404.75 745.882 418.511Z" fill="#4D5C5E"/>
<path d="M797.688 279.087L764.356 280.293C764.356 280.293 755.52 327.078 749.898 373.868C753.782 373.892 757.32 374.968 760.942 375.957C765.528 357.55 771.219 336.737 776.713 322.148C778.556 330.437 782.263 354.244 785.664 376.628C789.539 375.189 793.672 374.82 797.808 374.836C796.712 343.552 795.844 302.347 797.688 279.087Z" fill="#C44052"/>
<path d="M776.709 322.148C778.552 330.437 782.259 354.244 785.66 376.628C789.535 375.189 793.668 374.82 797.804 374.836C796.712 343.552 795.844 302.347 797.668 279.087L790.037 279.365L786.985 280.482V297.168C786.985 297.168 779.006 297.904 773.865 297.168C776.725 300.708 778.439 301.777 778.439 301.777C778.439 301.777 766.974 340.257 761.171 362.971C758.842 365.912 751.268 362.971 751.268 362.971L749.898 373.868C753.782 373.892 757.32 374.968 760.942 375.957C765.524 357.55 771.215 336.737 776.709 322.148Z" fill="#AB3444"/>
<path d="M760.95 212.791C760.95 212.791 776.962 200.632 799.764 203.899C800.499 210.782 802.507 239.309 800.499 256.185C798.491 273.06 797.688 279.087 797.688 279.087C797.688 279.087 774.395 281.096 764.356 280.293L758.733 238.104L760.95 212.791Z" fill="#D66C7B"/>
<path d="M761.412 212.457C761.255 212.594 761.095 212.734 760.942 212.859L760.817 214.269L762.693 214.968L773.849 210.677C773.849 210.677 784.973 214.956 789.752 211.995C794.531 209.034 799.764 203.883 799.764 203.883C779.214 200.958 764.191 210.533 761.412 212.457Z" fill="#CD5A6A"/>
<path d="M758.733 238.104L764.356 280.293C774.395 281.096 797.688 279.087 797.688 279.087C797.688 279.087 798.491 273.06 800.499 256.185C801.736 245.798 801.451 230.996 800.88 219.545L774.604 245.569L764.356 229.128L759.5 229.172L758.733 238.104Z" fill="#CD5A6A"/>
<path d="M890.086 188.884L884.03 183.058L879.765 183.383V187.731C879.765 187.731 887.729 195.915 890.086 188.884Z" fill="#841D2B"/>
<path d="M874.063 188.884C874.063 188.884 873.741 194.71 875.669 194.71C877.597 194.71 879.93 192.098 879.765 191.797C879.601 191.495 879.765 187.73 879.765 187.73L874.063 188.884Z" fill="#841D2B"/>
<path d="M767.167 246.811L755.52 252.97L763.424 226.392C763.424 226.392 763.022 215.852 759.866 213.936C757.528 216.005 753.914 218.818 753.914 221.63C753.914 224.443 751.906 232.077 751.906 232.077C751.906 232.077 740.493 262.087 741.782 268.375C743.071 274.664 747.304 271.22 747.304 271.22L769.295 252.223L767.167 246.811Z" fill="#D1DBE0"/>
<path d="M750.814 257.209C750.814 257.209 753.914 253.818 755.52 252.97L763.424 226.392C763.424 226.392 763.339 224.29 762.97 221.795C762.485 220.961 761.88 220.203 761.175 219.545C760.97 224.475 760.28 229.372 759.115 234.166C757.223 241.515 750.814 257.209 750.814 257.209Z" fill="#C5CFD3"/>
<path d="M767.624 254.003C767.624 254.003 764.355 248.149 765.159 246.14C765.962 244.131 767.97 239.711 773.592 242.122C779.214 244.533 775.199 252.167 775.199 252.167C775.199 252.167 772.118 256.245 767.624 254.003Z" fill="#E3ECF2"/>
<path d="M786.969 221.18L797.804 220.573V229.18H786.969V221.18Z" fill="#E3ECF2"/>
<path d="M771.845 249.668C769.106 253.408 766.384 251.516 766.384 251.516C767.014 252.914 767.624 254.003 767.624 254.003C772.118 256.245 775.199 252.167 775.199 252.167C775.199 252.167 775.259 252.05 775.355 251.841C774.676 249.688 773.508 247.397 771.845 249.668Z" fill="#D1DBE0"/>
<path d="M765.159 262.975L781.72 245.553L803.864 216.543C803.864 216.543 806.76 224.845 822.988 227.034C810.719 239.743 791.005 266.045 791.005 266.045C791.005 266.045 773.464 267.359 765.159 262.975Z" fill="#E7F2E3"/>
<path d="M773.592 242.122L776.002 241.318C776.002 241.318 782.026 236.095 785.64 236.899C789.254 237.702 796.081 242.122 796.081 242.122C796.081 242.122 796.483 243.564 796.081 244.653C795.68 245.742 792.065 246.943 792.065 246.943C792.065 246.943 793.672 248.551 793.27 248.952C792.869 249.354 787.648 253.774 787.648 253.774H784.933L781.793 256.812C781.793 256.812 776.002 256.587 776.002 254.578C776.002 252.569 776.729 252.267 776.729 252.267C776.729 252.267 773.191 253.774 772.387 251.765C771.584 249.756 767.97 245.336 773.592 242.122Z" fill="#AB3444"/>
<path d="M794.073 287.388C794.073 287.388 789.692 280.51 791.005 266.045C800.206 251.58 822.988 227.034 822.988 227.034C822.988 227.034 817.731 241.499 820.358 249.828C812.896 260.347 794.073 287.388 794.073 287.388Z" fill="#D4E2CF"/>
<path d="M820.779 276.126L794.057 287.389L820.342 249.828L840.06 238.867L820.779 276.126Z" fill="#C3D3BD"/>
<path d="M833.924 297.168C833.924 297.168 821.659 294.979 820.783 276.126C826.916 264.731 840.06 238.867 840.06 238.867C840.06 238.867 840.935 248.949 841.373 254.212C841.811 259.476 847.425 265.977 854.714 266.23C848.385 273.498 838.305 287.525 833.924 297.168Z" fill="#D4E2CF"/>
<path d="M800.9 204.353C800.9 204.353 819.775 202.344 833.831 202.344C838.65 199.531 851.1 189.084 860.738 185.067C870.376 181.049 864.754 192.701 864.754 192.701L836.241 211.585L800.9 215.88C800.9 215.88 796.483 208.371 800.9 204.353Z" fill="#D1DBE0"/>
<path d="M798.985 210.255C799.268 212.231 799.91 214.137 800.88 215.881L836.241 211.585L864.324 192.986L862.043 191.737C862.043 191.737 844.775 207.266 833.53 209.046C822.285 210.826 799.599 207.893 799.599 207.893L798.985 210.255Z" fill="#C5CFD3"/>
<path d="M861.943 183.058C861.943 183.058 858.095 183.628 858.413 185.352C858.73 187.076 861.943 194.71 865.336 194.71C868.73 194.71 868.187 191.339 868.187 191.339C868.187 191.339 864.396 191.19 862.726 183.861C862.733 183.756 862.717 183.65 862.681 183.551C862.644 183.451 862.587 183.361 862.513 183.285C862.439 183.209 862.35 183.15 862.252 183.111C862.154 183.072 862.048 183.054 861.943 183.058Z" fill="#E3ECF2"/>
<path d="M882.022 184.263C882.022 184.263 885.235 185.87 886.038 187.478C886.841 189.085 880.014 190.29 877.203 190.29H870.324L868.187 191.339C868.187 191.339 862.967 190.049 862.043 184.854C861.993 184.581 862.035 184.3 862.161 184.054C862.288 183.808 862.492 183.61 862.742 183.492C868.537 180.772 870.689 177.834 878.006 177.433C885.637 177.031 898.086 175.825 900.897 175.424C902.905 177.834 900.496 179.442 896.881 180.647C893.267 181.852 882.022 184.263 882.022 184.263Z" fill="#AB3444"/>
<path d="M761.974 231.197C761.974 231.197 764.886 229.855 765.014 227.147C765.143 224.439 762.584 211.593 759.846 208.576C757.107 205.558 756.954 213.345 757.633 215.881C759.918 213.996 760.785 218.263 761.155 219.545C761.524 220.827 763.227 226.705 761.974 231.197Z" fill="#E3ECF2"/>
<path d="M800.86 219.545C800.86 219.545 802.065 203.071 800.86 199.499C799.656 195.927 797.804 203.654 797.804 203.654C797.804 203.654 799.234 217.058 800.86 219.545Z" fill="#E3ECF2"/>
<path d="M755.468 429.573L756.304 432.172L728.192 433.378V430.967" fill="#5B6C70"/>
<path d="M817.057 428.556H788.833V431.477H817.057V428.556Z" fill="#5B6C70"/>
<path d="M784.034 191.897L783.23 206.764C783.23 206.764 779.459 208.773 776.729 206.764C776.805 201.541 776.729 191.339 776.729 191.339L784.034 191.897Z" fill="#E3ECF2"/>
<path d="M784.034 191.897L776.729 191.339C776.729 191.339 776.729 198.14 776.729 200C778.082 200.663 780.917 202.009 781.869 202.053C782.222 205.697 782.319 204.851 782.347 207.138C782.649 207.031 782.944 206.907 783.23 206.764L784.034 191.897Z" fill="#D1DBE0"/>
<path d="M759.932 164.021C759.932 167.17 763.305 173.579 764.992 176.39C768.927 178.639 770.614 176.952 794.227 171.33C796.476 166.383 794.039 163.647 792.54 162.897C795.164 158.962 798.162 150.416 789.167 147.717C777.923 144.344 773.987 153.339 772.301 156.151C767.803 155.251 765.929 158.399 765.554 160.086C763.68 160.086 759.932 160.873 759.932 164.021Z" fill="#46353B"/>
<path fill-rule="evenodd" clip-rule="evenodd" d="M770.655 177.123L771.739 166.833L762.378 171.513C763.299 173.432 764.291 175.222 764.992 176.39C766.666 177.347 767.934 177.591 770.655 177.123Z" fill="#614952"/>
<path d="M770.464 186.185L768.773 186.852C768.773 186.852 766.926 187.391 766.444 186.519C765.962 185.647 762.749 179.218 763.552 177.611C764.355 176.004 767.371 174.851 770.484 176.43C773.596 178.009 770.464 186.185 770.464 186.185Z" fill="#D18E6E"/>
<path d="M770.464 187.387L772.829 193.08C773.675 195.107 775.177 196.79 777.094 197.859C779.011 198.928 781.232 199.321 783.399 198.975C785.728 198.609 787.817 197.942 788.833 197.299C792.66 194.888 796.463 177.611 793.25 164.754C790.037 151.896 772.769 161.539 771.564 166.361C770.359 171.182 767.753 180.689 770.464 187.387Z" fill="#D18E6E"/>
<path fill-rule="evenodd" clip-rule="evenodd" d="M772.435 164.72C777.972 165.108 785.856 165.363 788.806 164.369C790.308 163.863 791.472 163.108 792.348 162.314C791.593 160.865 790.576 159.869 789.395 159.236C785.996 159.275 782.116 159.505 778.65 160.076C775.982 161.345 773.665 163.115 772.435 164.72Z" fill="#AB6E58"/>
<path d="M781.296 163.459C788.492 163.459 791.041 161.211 791.416 160.086C786.356 152.778 777.923 157.275 772.863 160.648C767.803 164.022 770.614 169.082 771.176 166.833C771.738 164.584 772.301 163.459 781.296 163.459Z" fill="#46353B"/>
<path d="M787.016 189.334L778.625 188.272C778.625 188.272 780.22 186.165 782.61 186.468C785.001 186.771 787.016 189.334 787.016 189.334Z" fill="white"/>
<path d="M780.419 178.716C780.887 178.716 781.266 178.036 781.266 177.197C781.266 176.358 780.887 175.678 780.419 175.678C779.951 175.678 779.572 176.358 779.572 177.197C779.572 178.036 779.951 178.716 780.419 178.716Z" fill="#46353B"/>
<path d="M789.254 178.314C789.722 178.314 790.102 177.634 790.102 176.795C790.102 175.957 789.722 175.277 789.254 175.277C788.786 175.277 788.407 175.957 788.407 176.795C788.407 177.634 788.786 178.314 789.254 178.314Z" fill="#46353B"/>
<path d="M784.226 182.24C784.226 182.24 786.202 182.726 787.792 182.24C789.383 181.754 786.315 185.768 784.226 182.24Z" fill="#96594E" fill-opacity="0.5"/>
<path d="M774.089 173.203C775.57 171.885 777.367 170.974 779.305 170.558C782.361 169.968 778.378 169.129 777.24 169.697C776.103 170.265 773.727 171.325 774.089 173.203Z" fill="#46353B"/>
<path d="M793.658 170.765C792.19 170.236 790.611 170.094 789.072 170.352C786.662 170.817 789.329 169.035 790.328 169.118C791.328 169.2 793.348 169.289 793.658 170.765Z" fill="#46353B"/>
<path d="M729.188 246.811H744.228C744.228 246.811 739.694 251.002 736.706 251.002C733.718 251.002 729.188 246.811 729.188 246.811Z" fill="#B974E6"/>
<ellipse cx="453.625" cy="409" rx="35" ry="4" fill="#E6EDEF"/>
<rect x="425.974" y="244.92" width="7.51521" height="167.005" transform="rotate(-8.01581 425.974 244.92)" fill="#C4C4C4"/>
<rect x="430.662" y="244.26" width="2.78113" height="167.005" transform="rotate(-8.01581 430.662 244.26)" fill="#A4A9AB"/>
<rect x="425.974" y="244.92" width="7.51521" height="26.9202" transform="rotate(-8.01581 425.974 244.92)" fill="#A4A9AB"/>
<circle cx="429.541" cy="219.541" r="43.0037" transform="rotate(-18.7417 429.541 219.541)" fill="#E3ECF2"/>
<path d="M470.264 205.724C477.895 228.214 465.849 252.633 443.358 260.264C420.867 267.895 450.566 250.323 446.584 221.694C440.795 200.732 439.439 194.138 415.724 178.817C438.215 171.186 462.633 183.233 470.264 205.724Z" fill="#D1DBE0"/>
<circle cx="429.541" cy="219.541" r="41.0037" transform="rotate(-18.7417 429.541 219.541)" stroke="#D66C7B" stroke-width="4"/>
<path d="M417.458 224.588L419.858 224.234L420.529 228.784L418.128 229.138L419.026 235.237L413.546 236.044L412.648 229.945L403.316 231.319L402.542 227.813L409.376 207.855L414.874 207.046L417.458 224.588ZM407.718 226.022L411.978 225.394L410.59 215.965L410.505 216.195L407.718 226.022Z" fill="#D66C7B"/>
<path d="M437.322 220.634C437.896 224.532 437.625 227.618 436.509 229.893C435.407 232.165 433.545 233.494 430.925 233.88C428.33 234.262 426.176 233.557 424.461 231.766C422.758 229.959 421.604 227.188 421.002 223.452L420.217 218.128C419.645 214.243 419.912 211.17 421.016 208.911C422.119 206.638 423.987 205.308 426.621 204.92C429.254 204.532 431.424 205.255 433.131 207.087C434.839 208.919 435.984 211.725 436.566 215.503L437.322 220.634ZM430.982 215.732C430.655 213.511 430.19 211.879 429.588 210.833C428.986 209.788 428.22 209.333 427.291 209.47C425.548 209.727 424.944 211.893 425.478 215.968L426.513 222.997C426.847 225.269 427.316 226.927 427.918 227.973C428.534 229.016 429.312 229.469 430.255 229.33C431.145 229.199 431.727 228.586 432.001 227.49C432.286 226.38 432.284 224.752 431.994 222.605L430.982 215.732Z" fill="#D66C7B"/>
<path d="M453.61 219.264L456.011 218.91L456.681 223.46L454.28 223.814L455.179 229.913L449.699 230.72L448.801 224.621L439.468 225.995L438.695 222.489L445.528 202.532L451.027 201.722L453.61 219.264ZM443.871 220.698L448.131 220.071L446.742 210.641L446.658 210.871L443.871 220.698Z" fill="#D66C7B"/>
</g>
</g>
<defs>
<linearGradient id="paint0_linear" x1="637.5" y1="0" x2="669.104" y2="582.618" gradientUnits="userSpaceOnUse">
<stop stop-color="#1F1D42"/>
<stop offset="1" stop-color="#00FFF0"/>
</linearGradient>
<clipPath id="clip0">
<rect width="1280" height="454" fill="white"/>
</clipPath>
<clipPath id="clip1">
<rect width="1280" height="840" fill="white"/>
</clipPath>
</defs>
</svg>
