<svg width="1280" height="454" viewBox="0 0 1280 454" fill="none" xmlns="http://www.w3.org/2000/svg">
<g clip-path="url(#clip0)">
<g clip-path="url(#clip1)">
<rect width="1280" height="840" fill="white"/>
<rect width="1280" height="378" fill="white"/>
<rect x="-5" width="1285" height="406" fill="url(#paint0_linear)"/>
<g opacity="0.5">
<path d="M158.5 455.085C91.3 501.085 62.1667 602.252 56 647.085H1508.5L1531.5 -118.915C1187.33 -136.082 496.1 -169.915 484.5 -167.915C470 -165.415 437 -141.915 440 -0.4151C443 141.085 242.5 397.585 158.5 455.085Z" fill="white" fill-opacity="0.1" style="mix-blend-mode:soft-light"/>
<path d="M343 501.585C270.2 552.385 220.667 626.418 205 657.085L1477 625.585C1505.33 418.752 1545 -8.71502 1477 -63.915C1392 -132.915 774.5 -164.915 680.5 120.585C586.5 406.085 434 438.085 343 501.585Z" fill="white" fill-opacity="0.1" style="mix-blend-mode:soft-light"/>
<g style="mix-blend-mode:soft-light">
<path d="M499.344 529.088C395.422 556.207 317.814 625.719 292 657.085L1440.64 623.771C1570.71 497.332 1825.17 64.2933 1513 -26.415C1122.79 -139.8 810.61 208.803 730.171 294.719C649.731 380.635 629.247 495.189 499.344 529.088Z" fill="white" fill-opacity="0.1"/>
</g>
</g>
<circle cx="188.5" cy="414.5" r="91.5" fill="#E6EDEF"/>
<circle cx="111.5" cy="391.5" r="72.5" fill="#E6EDEF"/>
<circle cx="197.5" cy="455.5" r="85.5" fill="#E6EDEF"/>
<circle cx="1230.5" cy="364.5" r="109.5" fill="#E6EDEF"/>
<circle cx="1158.5" cy="448.5" r="72.5" fill="#E6EDEF"/>
<circle cx="1279.5" cy="399.5" r="94.5" fill="#E6EDEF"/>
<circle cx="1086.5" cy="428.5" r="43.5" fill="#E6EDEF"/>
<circle cx="1085.5" cy="406.5" r="77.5" fill="#E6EDEF"/>
<circle cx="988.5" cy="433.5" r="62.5" fill="#E6EDEF"/>
<circle cx="20.5" cy="388.5" r="91.5" fill="#F2F7F9"/>
<circle cx="111.5" cy="368.5" r="72.5" fill="#F2F7F9"/>
<circle cx="188.5" cy="438.5" r="85.5" fill="#F2F7F9"/>
<circle cx="396.5" cy="431.5" r="72.5" fill="#F2F7F9"/>
<circle cx="515.5" cy="453.5" r="72.5" fill="#F2F7F9"/>
<circle cx="712.5" cy="433.5" r="72.5" fill="#F2F7F9"/>
<circle cx="903.5" cy="430.5" r="72.5" fill="#F2F7F9"/>
<circle cx="1142.5" cy="393.5" r="109.5" fill="#F2F7F9"/>
<circle cx="1158.5" cy="425.5" r="72.5" fill="#F2F7F9"/>
<circle cx="1279.5" cy="376.5" r="94.5" fill="#F2F7F9"/>
<circle cx="1086.5" cy="405.5" r="43.5" fill="#F2F7F9"/>
<circle cx="296" cy="408" r="52" fill="#F2F7F9"/>
<circle cx="609.5" cy="443.5" r="62.5" fill="#F2F7F9"/>
<circle cx="1018.5" cy="411.5" r="77.5" fill="#F2F7F9"/>
<circle cx="812.5" cy="441.5" r="62.5" fill="#F2F7F9"/>
<circle cx="20.5" cy="474.5" r="91.5" fill="white"/>
<circle cx="97.5" cy="443.5" r="72.5" fill="white"/>
<circle cx="188.5" cy="464.5" r="85.5" fill="white"/>
<circle cx="356.5" cy="424.5" r="72.5" fill="white"/>
<circle cx="501.5" cy="426.5" r="72.5" fill="white"/>
<circle cx="677.5" cy="426.5" r="72.5" fill="white"/>
<circle cx="853.5" cy="414.5" r="72.5" fill="white"/>
<circle cx="1050.5" cy="451.5" r="109.5" fill="white"/>
<circle cx="1158.5" cy="421.5" r="72.5" fill="white"/>
<circle cx="1279.5" cy="462.5" r="94.5" fill="white"/>
<circle cx="438.5" cy="392.5" r="43.5" fill="white"/>
<circle cx="257.5" cy="410.5" r="43.5" fill="white"/>
<circle cx="591.5" cy="420.5" r="62.5" fill="white"/>
<circle cx="935.5" cy="410.5" r="62.5" fill="white"/>
<circle cx="762.5" cy="415.5" r="62.5" fill="white"/>
<rect y="397" width="1280" height="523" fill="white"/>
<ellipse cx="666.029" cy="426.088" rx="97.0295" ry="6.08812" fill="#E6EDEF"/>
<ellipse cx="543.692" cy="415.695" rx="40.1818" ry="4.59221" fill="#E6EDEF"/>
<rect x="511.948" y="227.323" width="8.62786" height="191.73" transform="rotate(-8.01581 511.948 227.323)" fill="#C4C4C4"/>
<rect x="517.33" y="226.565" width="3.19289" height="191.73" transform="rotate(-8.01581 517.33 226.565)" fill="#A4A9AB"/>
<rect x="511.948" y="227.323" width="8.62786" height="30.9058" transform="rotate(-8.01581 511.948 227.323)" fill="#A4A9AB"/>
<circle cx="516.042" cy="198.186" r="49.3705" transform="rotate(-18.7417 516.042 198.186)" fill="#E3ECF2"/>
<path d="M562.795 182.322C571.556 208.143 557.726 236.177 531.905 244.938C506.084 253.699 540.181 233.525 535.609 200.657C528.962 176.592 527.406 169.022 500.18 151.433C526 142.672 554.034 156.502 562.795 182.322Z" fill="#D1DBE0"/>
<circle cx="516.042" cy="198.186" r="47.3705" transform="rotate(-18.7417 516.042 198.186)" stroke="#D66C7B" stroke-width="4"/>
<circle cx="728" cy="396" r="41" fill="#F2F7F9"/>
<path d="M603.36 404.866L598.286 425.329C598.286 425.329 598.233 427.807 604.312 426.873C610.391 425.939 642.577 418.004 642.577 418.004C642.577 418.004 623.423 418.273 621.274 413.152C619.125 408.031 603.36 404.866 603.36 404.866Z" fill="#63C740"/>
<path d="M621.274 413.152C620.034 410.21 614.293 407.907 609.637 406.486C607.978 407.006 606.589 408.157 605.771 409.691L602.209 423.682C602.209 423.682 601.702 426.605 604.312 426.873C610.386 425.94 642.576 418.004 642.576 418.004C642.576 418.004 623.423 418.273 621.274 413.152Z" fill="#39AE10"/>
<path d="M766.86 284.949L714.484 292.994C713.663 293.12 712.901 293.501 712.308 294.083C711.715 294.665 711.319 295.419 711.177 296.238L694.955 381.765C694.955 381.765 761.49 366.325 770.916 288.587C771.183 286.379 769.053 284.613 766.86 284.949Z" fill="#63C740"/>
<path d="M560.708 377.323C578.149 403.836 616.755 418.837 658.462 412.431C700.169 406.026 732.493 380.13 741.173 349.605L560.708 377.323Z" fill="#4BBA24"/>
<path d="M575.198 393.121C597.601 393.685 659.205 392.117 735.112 364.111C737.474 359.912 739.384 355.475 740.809 350.873C728.502 353.64 717.674 356.347 717.674 356.347L564.252 380.481L564.576 382.593C567.743 386.461 571.303 389.989 575.198 393.121V393.121Z" fill="#39AE10"/>
<path d="M530.547 381.956C530.547 381.956 531.171 399.612 648.469 381.596C729.558 369.141 772.344 344.817 778.091 335.059C779.967 331.878 752.005 331.756 728.232 333.319C704.459 334.882 575.47 358.349 558.797 361.954C542.124 365.559 532.157 375.443 530.547 381.956Z" fill="#63C740"/>
<path d="M674.882 408.129L669.571 396.628L661.157 395.989L660.265 412.034C665.217 411.052 670.099 409.748 674.882 408.129Z" fill="#39AE10"/>
<path d="M661.156 395.989C661.156 395.989 673.15 416.3 681.887 414.958C690.623 413.616 720.773 406.432 727.421 404.137C730.776 401.069 725.699 403.122 717.235 403.148C708.772 403.174 691.885 402.291 689.369 391.656C679.161 393.067 661.156 395.989 661.156 395.989Z" fill="#4BBA24"/>
<path d="M709.009 337.316L749.196 331.143L754.283 319.398L711.158 325.854L709.009 337.316Z" fill="#63C740"/>
<path d="M709.009 337.316L716.519 297.271C716.624 296.699 716.546 296.109 716.295 295.584C716.043 295.06 715.633 294.629 715.121 294.353C714.108 293.84 712.709 293.909 711.179 296.253C709.839 305.335 703.158 338.209 703.158 338.209L709.009 337.316Z" fill="#7EE45A"/>
<path d="M739.137 336.344C738.588 332.773 698.02 337.96 648.163 345.618C596.654 353.529 558.341 362.385 558.6 364.073C559.462 369.684 600.27 366.026 650.122 358.369C699.973 350.713 739.396 338.032 739.137 336.344Z" fill="#39AE10"/>
<path d="M728.471 328.286C715.659 321.509 676.787 331.181 671.652 334.998C666.212 339.039 664.013 348.785 664.013 348.785L664.724 353.417C672.671 352.786 682.557 351.623 693.446 350.086C711.826 345.874 726.086 341.679 733.505 339.004C732.444 334.881 730.659 329.548 728.471 328.286Z" fill="#5B6C70"/>
<path d="M733.526 339.001C732.444 334.881 730.659 329.548 728.472 328.291C728.313 328.211 728.155 328.131 727.992 328.057C723.202 329.837 723.074 337.296 723.562 342.244C727.619 341.021 730.978 339.92 733.526 339.001Z" fill="#4D5C5E"/>
<path d="M650.122 358.369C667.533 355.695 683.66 352.409 697.291 349.192C696.098 343.632 692.677 329.586 688.102 326.952C668.215 316.432 607.878 331.443 599.914 337.365C591.481 343.641 588.062 358.769 588.062 358.769L589.166 365.956C605.376 364.668 626.754 361.958 650.122 358.369Z" fill="#5B6C70"/>
<path d="M688.102 326.952C687.864 326.827 687.61 326.704 687.362 326.586C678.37 329.93 679.964 346.158 681.025 352.793C686.752 351.605 692.198 350.392 697.292 349.192C696.099 343.638 692.683 329.585 688.102 326.952Z" fill="#4D5C5E"/>
<path d="M650.122 358.369C651.73 358.122 653.326 357.877 654.911 357.634C650.348 354.018 645.088 351.384 639.46 349.897C633.832 348.41 627.957 348.103 622.205 348.993L583.813 354.89C583.813 354.89 570.056 357.092 558.6 364.072C559.462 369.683 600.27 366.026 650.122 358.369Z" fill="#39AE10"/>
<mask id="mask0" mask-type="alpha" maskUnits="userSpaceOnUse" x="537" y="228" width="207" height="146">
<path d="M556.052 366.552C556.052 366.552 617.441 373.309 740.544 336.331C744.599 293.736 695.449 232.889 633.868 242.347C572.286 251.806 537.818 323.93 556.052 366.552Z" fill="#799EAA"/>
</mask>
<g mask="url(#mask0)">
<path d="M660.168 428.877C709.599 421.284 743.516 375.051 735.922 325.612C728.329 276.172 682.101 242.248 632.669 249.841C583.238 257.433 549.322 303.666 556.915 353.106C564.509 402.545 610.737 436.469 660.168 428.877Z" stroke="white" stroke-width="4" stroke-miterlimit="10"/>
<path opacity="0.5" d="M660.168 428.877C709.599 421.284 743.516 375.051 735.922 325.612C728.329 276.172 682.101 242.248 632.669 249.841C583.238 257.433 549.322 303.666 556.915 353.106C564.509 402.545 610.737 436.469 660.168 428.877Z" fill="#A6D3DD" fill-opacity="0.6"/>
</g>
<circle cx="586.5" cy="464.5" r="72.5" fill="white"/>
<circle cx="656.5" cy="452.5" r="49.5" fill="white"/>
<circle cx="730.5" cy="421.5" r="49.5" fill="white"/>
<path d="M484.661 205.217L483.547 187.827L499.856 185.178L500.766 190.777L489.823 192.554L490.394 199.87C491.521 198.816 492.755 198.18 494.097 197.962C496.873 197.511 499.169 198.151 500.986 199.883C502.818 201.611 504.027 204.28 504.613 207.889C505.162 211.267 504.71 214.134 503.256 216.491C501.803 218.849 499.58 220.27 496.588 220.756C494.814 221.044 493.104 220.895 491.458 220.307C489.808 219.704 488.423 218.726 487.301 217.373C486.194 216.017 485.479 214.392 485.155 212.498L491.633 211.446C491.969 212.832 492.492 213.863 493.204 214.539C493.915 215.215 494.733 215.477 495.659 215.327C496.738 215.152 497.487 214.5 497.906 213.371C498.321 212.227 498.361 210.622 498.026 208.555C497.71 206.612 497.117 205.204 496.248 204.333C495.393 203.458 494.334 203.124 493.069 203.329C491.835 203.53 490.948 204.109 490.407 205.068L490.085 205.714L484.661 205.217ZM525.589 201.277C526.345 205.934 526.076 209.635 524.78 212.378C523.5 215.119 521.294 216.743 518.163 217.252C515.063 217.755 512.471 216.95 510.386 214.835C508.314 212.702 506.884 209.404 506.096 204.941L505.063 198.579C504.309 193.937 504.573 190.253 505.856 187.528C507.136 184.787 509.35 183.161 512.496 182.65C515.642 182.139 518.254 182.966 520.331 185.13C522.407 187.293 523.828 190.632 524.593 195.146L525.589 201.277ZM517.91 195.519C517.479 192.866 516.894 190.919 516.154 189.678C515.414 188.437 514.489 187.907 513.379 188.087C511.297 188.425 510.612 191.03 511.324 195.9L512.688 204.298C513.128 207.013 513.719 208.99 514.459 210.232C515.214 211.47 516.154 211.998 517.28 211.815C518.344 211.643 519.031 210.898 519.339 209.581C519.661 208.247 519.629 206.297 519.244 203.732L517.91 195.519ZM547.187 197.769C547.944 202.426 547.674 206.127 546.378 208.87C545.098 211.611 542.892 213.235 539.761 213.744C536.661 214.247 534.069 213.442 531.984 211.327C529.912 209.194 528.482 205.896 527.694 201.433L526.661 195.071C525.907 190.429 526.171 186.745 527.454 184.02C528.734 181.279 530.948 179.654 534.094 179.142C537.24 178.631 539.852 179.458 541.929 181.622C544.006 183.785 545.426 187.124 546.191 191.638L547.187 197.769ZM539.508 192.011C539.078 189.359 538.492 187.412 537.752 186.17C537.013 184.929 536.087 184.399 534.977 184.579C532.895 184.917 532.21 187.522 532.922 192.392L534.286 200.79C534.727 203.505 535.317 205.482 536.057 206.724C536.812 207.962 537.753 208.49 538.878 208.307C539.943 208.135 540.629 207.39 540.938 206.073C541.259 204.739 541.227 202.789 540.842 200.224L539.508 192.011Z" fill="#D66C7B"/>
</g>
</g>
<defs>
<linearGradient id="paint0_linear" x1="637.5" y1="0" x2="669.104" y2="582.618" gradientUnits="userSpaceOnUse">
<stop stop-color="#1F1D42"/>
<stop offset="1" stop-color="#00FFF0"/>
</linearGradient>
<clipPath id="clip0">
<rect width="1280" height="454" fill="white"/>
</clipPath>
<clipPath id="clip1">
<rect width="1280" height="840" fill="white"/>
</clipPath>
</defs>
</svg>
