<svg width="120" height="49" viewBox="0 0 120 49" fill="none" xmlns="http://www.w3.org/2000/svg">
<g clip-path="url(#clip0)">
<path d="M4.06297 9.10273C6.30689 9.10273 8.12595 7.26987 8.12595 5.00892C8.12595 2.74796 6.30689 0.9151 4.06297 0.9151C1.81905 0.9151 0 2.74796 0 5.00892C0 7.26987 1.81905 9.10273 4.06297 9.10273Z" fill="#63C740"/>
<path d="M16.2519 9.10273C18.4959 9.10273 20.3149 7.26987 20.3149 5.00892C20.3149 2.74796 18.4959 0.9151 16.2519 0.9151C14.008 0.9151 12.189 2.74796 12.189 5.00892C12.189 7.26987 14.008 9.10273 16.2519 9.10273Z" fill="#5CABDF"/>
<path d="M28.4408 9.10273C30.6847 9.10273 32.5037 7.26987 32.5037 5.00892C32.5037 2.74796 30.6847 0.9151 28.4408 0.9151C26.1969 0.9151 24.3778 2.74796 24.3778 5.00892C24.3778 7.26987 26.1969 9.10273 28.4408 9.10273Z" fill="#D66C7B"/>
<path d="M4.06297 21.3842C6.30689 21.3842 8.12595 19.5513 8.12595 17.2903C8.12595 15.0294 6.30689 13.1965 4.06297 13.1965C1.81905 13.1965 0 15.0294 0 17.2903C0 19.5513 1.81905 21.3842 4.06297 21.3842Z" fill="#C98DEF"/>
<path d="M16.2519 21.3842C18.4959 21.3842 20.3149 19.5513 20.3149 17.2903C20.3149 15.0294 18.4959 13.1965 16.2519 13.1965C14.008 13.1965 12.189 15.0294 12.189 17.2903C12.189 19.5513 14.008 21.3842 16.2519 21.3842Z" fill="#FAA669"/>
<path d="M4.06297 33.6657C6.30689 33.6657 8.12595 31.8328 8.12595 29.5718C8.12595 27.3109 6.30689 25.478 4.06297 25.478C1.81905 25.478 0 27.3109 0 29.5718C0 31.8328 1.81905 33.6657 4.06297 33.6657Z" fill="#3AEFC4"/>
<path d="M36.2113 31.8746C34.8401 31.8746 33.5602 31.8746 32.2397 31.8746C32.2397 30.4724 32.2397 29.101 32.2397 27.6784C33.5399 27.6784 34.8299 27.6784 36.2012 27.6784C36.2012 27.2383 36.2012 26.8596 36.2012 26.4707C36.2012 24.8741 36.2824 23.2776 36.77 21.7424C37.7959 18.498 40.0102 16.6968 43.3317 16.2464C43.7685 16.185 44.2052 16.1441 44.642 16.1441C48.1057 16.1339 51.5795 16.1339 55.0432 16.1339C55.1854 16.1339 55.3175 16.1441 55.4902 16.1543C55.4902 27.0541 55.4902 37.9334 55.4902 48.8537C53.804 48.8537 52.1179 48.8537 50.381 48.8537C50.381 39.6119 50.381 30.3701 50.381 21.1692C50.2997 21.0976 50.2692 21.0567 50.2388 21.0567C48.451 21.0771 46.643 20.9953 44.8655 21.1488C42.834 21.3228 41.6963 22.5509 41.4932 24.5978C41.4018 25.5803 41.4729 26.5731 41.4729 27.6272C42.9863 27.6272 44.5099 27.6272 46.0742 27.6272C46.0742 29.0601 46.0742 30.4315 46.0742 31.8541C44.5404 31.8541 43.0168 31.8541 41.4424 31.8541C41.4424 37.5445 41.4424 43.1735 41.4424 48.8434C39.675 48.8434 37.9685 48.8434 36.2113 48.8434C36.2113 43.2042 36.2113 37.5752 36.2113 31.8746Z" fill="white"/>
<path d="M74.7588 41.403C75.9675 42.3241 77.1051 43.194 78.2834 44.0844C77.4505 45.4251 76.3535 46.4281 75.0533 47.2059C70.838 49.7543 65.1803 49.4166 61.5439 46.3565C59.2788 44.4528 58.1107 41.9659 57.8263 39.0285C57.5622 36.3164 58.0092 33.7578 59.5226 31.455C61.4525 28.5074 64.2458 26.9825 67.7095 26.6652C70.7263 26.3889 73.4789 27.0951 75.8354 29.0806C77.938 30.8409 79.1061 33.1437 79.3804 35.8661C79.5023 37.0737 79.4007 38.3019 79.4007 39.571C73.9868 39.571 68.5932 39.571 63.1285 39.571C63.5145 41.3927 64.4185 42.7232 66.0437 43.4908C68.9182 44.8418 72.514 44.0639 74.6064 41.6383C74.6572 41.5769 74.6978 41.4951 74.7588 41.403ZM74.2814 35.8968C74.2103 33.2256 71.6811 31.1991 68.644 31.281C65.2514 31.3731 63.4028 33.6452 63.1996 35.8968C66.8766 35.8968 70.5637 35.8968 74.2814 35.8968Z" fill="white"/>
<path d="M103.362 39.6119C97.8161 39.6119 92.4225 39.6119 87.0289 39.6119C87.2727 41.6793 88.9588 43.4806 91.0716 43.9207C94.0477 44.545 96.6074 43.8388 98.6795 41.4439C99.8171 42.3138 100.965 43.1838 102.143 44.0844C101.442 45.2512 100.508 46.1416 99.4311 46.8887C95.0127 49.9181 88.5932 49.5087 84.9162 45.9266C82.3971 43.4703 81.4626 40.4 81.6455 36.9407C81.7978 34.1467 82.7831 31.6802 84.7943 29.7254C87.1711 27.4123 90.066 26.481 93.3265 26.655C96.4753 26.829 99.1163 28.0571 101.097 30.5646C102.742 32.6524 103.382 35.078 103.362 37.7083C103.362 38.3224 103.362 38.9364 103.362 39.6119ZM87.0188 35.8865C90.7465 35.8865 94.4438 35.8865 98.1411 35.8865C98.0396 33.8908 96.4753 31.4857 92.9913 31.2912C89.9136 31.1275 87.4251 32.9902 87.0188 35.8865Z" fill="white"/>
<path d="M120 43.9309C118.883 43.9309 117.755 43.9309 116.648 43.8285C114.617 43.6545 113.479 42.4264 113.276 40.3795C113.184 39.397 113.255 32.417 113.255 31.3731C114.769 31.3731 116.293 31.3731 117.857 31.3731C117.857 29.9403 117.857 28.5688 117.857 27.1462C116.323 27.1462 114.799 27.1462 113.225 27.1462C113.225 21.4558 113.225 21.814 113.225 16.1441C111.458 16.1441 109.751 16.1441 107.994 16.1441C107.994 21.7936 107.994 21.4456 107.994 27.1462C106.623 27.1462 105.343 27.1462 104.022 27.1462C104.022 28.5484 104.022 29.9198 104.022 31.3424C105.322 31.3424 106.612 31.3424 107.984 31.3424C107.984 31.7825 107.984 38.1484 107.984 38.527C107.984 40.1236 108.065 41.7202 108.553 43.2554C109.578 46.4997 111.793 48.301 115.114 48.7513C115.551 48.8127 115.988 48.8537 116.425 48.8537C117.613 48.8537 118.801 48.8537 120 48.8537V43.9309Z" fill="white"/>
</g>
<defs>
<clipPath id="clip0">
<rect width="120" height="48" fill="white" transform="translate(0 0.9151)"/>
</clipPath>
</defs>
</svg>
