<svg width="187" height="75" viewBox="0 0 187 75" fill="none" xmlns="http://www.w3.org/2000/svg">
<path d="M6.33147 12.7932C9.82824 12.7932 12.6629 9.92933 12.6629 6.39659C12.6629 2.86385 9.82824 0 6.33147 0C2.83469 0 0 2.86385 0 6.39659C0 9.92933 2.83469 12.7932 6.33147 12.7932Z" fill="#63C740"/>
<path d="M25.3261 12.7932C28.8229 12.7932 31.6576 9.92933 31.6576 6.39659C31.6576 2.86385 28.8229 0 25.3261 0C21.8293 0 18.9946 2.86385 18.9946 6.39659C18.9946 9.92933 21.8293 12.7932 25.3261 12.7932Z" fill="#5CABDF"/>
<path d="M44.3202 12.7932C47.817 12.7932 50.6517 9.92933 50.6517 6.39659C50.6517 2.86385 47.817 0 44.3202 0C40.8235 0 37.9888 2.86385 37.9888 6.39659C37.9888 9.92933 40.8235 12.7932 44.3202 12.7932Z" fill="#D66C7B"/>
<path d="M6.33147 31.9829C9.82824 31.9829 12.6629 29.119 12.6629 25.5863C12.6629 22.0535 9.82824 19.1897 6.33147 19.1897C2.83469 19.1897 0 22.0535 0 25.5863C0 29.119 2.83469 31.9829 6.33147 31.9829Z" fill="#C98DEF"/>
<path d="M25.3261 31.9829C28.8229 31.9829 31.6576 29.119 31.6576 25.5863C31.6576 22.0535 28.8229 19.1897 25.3261 19.1897C21.8293 19.1897 18.9946 22.0535 18.9946 25.5863C18.9946 29.119 21.8293 31.9829 25.3261 31.9829Z" fill="#FAA669"/>
<path d="M6.33147 51.1726C9.82824 51.1726 12.6629 48.3087 12.6629 44.776C12.6629 41.2432 9.82824 38.3794 6.33147 38.3794C2.83469 38.3794 0 41.2432 0 44.776C0 48.3087 2.83469 51.1726 6.33147 51.1726Z" fill="#3AEFC4"/>
<path d="M56.4293 48.3742C54.2924 48.3742 52.298 48.3742 50.2402 48.3742C50.2402 46.1833 50.2402 44.0405 50.2402 41.8177C52.2663 41.8177 54.2766 41.8177 56.4134 41.8177C56.4134 41.13 56.4134 40.5384 56.4134 39.9307C56.4134 37.436 56.5401 34.9413 57.2998 32.5426C58.8985 27.4733 62.3492 24.6588 67.5252 23.9552C68.2058 23.8593 68.8864 23.7953 69.5671 23.7953C74.9647 23.7793 80.3781 23.7793 85.7757 23.7793C85.9973 23.7793 86.203 23.7953 86.4721 23.8113C86.4721 40.8422 86.4721 57.8411 86.4721 74.904C83.8446 74.904 81.217 74.904 78.5103 74.904C78.5103 60.4637 78.5103 46.0234 78.5103 31.6471C78.3837 31.5352 78.3362 31.4712 78.2887 31.4712C75.5028 31.5032 72.6853 31.3752 69.9153 31.6151C66.7496 31.887 64.9768 33.8059 64.6602 37.0042C64.5177 38.5394 64.6285 40.0906 64.6285 41.7377C66.987 41.7377 69.3613 41.7377 71.7989 41.7377C71.7989 43.9765 71.7989 46.1194 71.7989 48.3422C69.4088 48.3422 67.0345 48.3422 64.581 48.3422C64.581 57.2334 64.581 66.0287 64.581 74.888C61.8268 74.888 59.1676 74.888 56.4293 74.888C56.4293 66.0767 56.4293 57.2814 56.4293 48.3742Z" fill="#333333"/>
<path d="M116.499 63.2623C118.383 64.7015 120.156 66.0608 121.992 67.4521C120.694 69.547 118.984 71.1141 116.958 72.3295C110.389 76.3113 101.573 75.7836 95.9061 71.0022C92.3763 68.0278 90.556 64.1418 90.1128 59.5523C89.7012 55.3146 90.3977 51.3167 92.7562 47.7186C95.7636 43.1131 100.116 40.7303 105.514 40.2346C110.215 39.8028 114.505 40.9062 118.177 44.0086C121.454 46.7591 123.274 50.3572 123.701 54.6109C123.891 56.4979 123.733 58.4169 123.733 60.3998C115.296 60.3998 106.891 60.3998 98.3754 60.3998C98.9768 63.2463 100.386 65.3252 102.918 66.5246C107.398 68.6354 113.001 67.4201 116.262 63.6301C116.341 63.5342 116.404 63.4062 116.499 63.2623ZM115.755 54.6589C115.644 50.4851 111.703 47.3188 106.97 47.4468C101.684 47.5907 98.8027 51.1408 98.4862 54.6589C104.216 54.6589 109.962 54.6589 115.755 54.6589Z" fill="#333333"/>
<path d="M161.073 60.4639C152.43 60.4639 144.025 60.4639 135.62 60.4639C136 63.6941 138.627 66.5086 141.92 67.1963C146.558 68.1717 150.546 67.0683 153.776 63.3263C155.548 64.6856 157.337 66.0449 159.173 67.4521C158.081 69.2752 156.625 70.6664 154.947 71.8338C148.061 76.5673 138.058 75.9276 132.328 70.3306C128.402 66.4926 126.946 61.6952 127.231 56.2901C127.468 51.9244 129.004 48.0705 132.138 45.0161C135.842 41.402 140.353 39.9468 145.434 40.2187C150.341 40.4905 154.456 42.4095 157.543 46.3274C160.107 49.5897 161.104 53.3796 161.073 57.4894C161.073 58.4489 161.073 59.4084 161.073 60.4639ZM135.604 54.643C141.413 54.643 147.175 54.643 152.937 54.643C152.778 51.5246 150.341 47.7666 144.911 47.4628C140.115 47.2069 136.237 50.1174 135.604 54.643Z" fill="#333333"/>
<path d="M187 67.2122C185.258 67.2122 183.501 67.2122 181.776 67.0523C178.61 66.7805 176.838 64.8615 176.521 61.6632C176.379 60.128 176.489 49.2218 176.489 47.5907C178.848 47.5907 181.222 47.5907 183.66 47.5907C183.66 45.3519 183.66 43.209 183.66 40.9862C181.27 40.9862 178.895 40.9862 176.442 40.9862C176.442 32.095 176.442 32.6547 176.442 23.7954C173.688 23.7954 171.028 23.7954 168.29 23.7954C168.29 32.6227 168.29 32.079 168.29 40.9862C166.153 40.9862 164.159 40.9862 162.101 40.9862C162.101 43.1771 162.101 45.3199 162.101 47.5427C164.127 47.5427 166.137 47.5427 168.274 47.5427C168.274 48.2304 168.274 58.1771 168.274 58.7687C168.274 61.2634 168.401 63.7581 169.161 66.1568C170.759 71.2261 174.21 74.0406 179.386 74.7442C180.067 74.8402 180.747 74.9041 181.428 74.9041C183.28 74.9041 185.132 74.9041 187 74.9041V67.2122Z" fill="#333333"/>
</svg>
