<svg width="156" height="40" viewBox="0 0 156 40" xmlns="http://www.w3.org/2000/svg"><title>Kolide Icon Footer</title><g fill="#B4B4B4" fill-rule="evenodd"><path d="M73.396 13.867c0-2.503 2.564-3.754 7.694-3.754s7.696 1.252 7.696 3.754v11.259c0 2.502-2.565 3.753-7.696 3.753-5.13 0-7.694-1.25-7.694-3.753v-11.26zm7.694 11.259c2.566 0 3.848-.417 3.848-1.251v-8.758c0-.834-1.282-1.25-3.848-1.25-2.565.083-3.847.5-3.847 1.25v8.758c0 .834 1.282 1.251 3.847 1.251zM97.81 11.364v12.511c0 .834 1.283 1.251 3.848 1.251h2.566c.854 0 1.282.417 1.282 1.251v1.251c0 .835-.428 1.251-1.282 1.251h-2.566c-5.13 0-7.695-1.251-7.695-3.753V11.364c0-.834.428-1.25 1.283-1.25h1.282c.855 0 1.283.417 1.283 1.25M111.967 28.879c-.855 0-1.282-.417-1.282-1.251V11.364c0-.834.427-1.25 1.282-1.25h1.283c.854 0 1.282.416 1.282 1.25v16.264c0 .834-.428 1.25-1.282 1.25h-1.283v.001zM119.711 11.364c0-.834.428-1.25 1.282-1.25h6.412c5.13 0 7.696 1.25 7.696 3.752v11.26c0 2.502-2.565 3.753-7.696 3.753h-6.412c-.854 0-1.282-.417-1.282-1.25V11.363zm7.694 13.762c2.566 0 3.848-.417 3.848-1.251v-8.633c0-.834-1.282-1.25-3.848-1.25h-2.566c-.854 0-1.282.416-1.282 1.25v8.633c0 .834.428 1.251 1.282 1.251h2.566zM154.386 28.879h-6.413c-5.13 0-7.695-1.251-7.695-3.753v-11.26c0-2.502 2.565-3.752 7.695-3.752h6.413c.855 0 1.282.416 1.282 1.25v1.252c0 .834-.427 1.25-1.282 1.25h-6.413c-2.565 0-3.848.417-3.848 1.252v1.25c0 .835.428 1.252 1.283 1.252h2.565c.855 0 1.283.416 1.283 1.251v1.251c0 .834-.428 1.251-1.283 1.251h-2.565c-.855 0-1.283.417-1.283 1.251v1.251c0 .834 1.283 1.251 3.848 1.251h6.413c.855 0 1.282.418 1.282 1.251v1.251c0 .834-.427 1.251-1.282 1.251M70.316 25.786l-6.468-6.308 6.412-6.254.007-.007c.005-.006.006-.012.011-.017.583-.584.58-1.168-.018-1.753l-.91-.876c-.607-.592-1.211-.592-1.809 0l-6.558 6.398a2.317 2.317 0 0 1-1.616.653h-.056c-.855 0-1.282-.416-1.282-1.251v-5.005c0-.834-.428-1.251-1.283-1.251h-1.283c-.854 0-1.282.417-1.282 1.251V27.63c0 .834.428 1.251 1.282 1.251h1.283c.855 0 1.282-.417 1.282-1.251v-5.004c0-.835.428-1.251 1.283-1.251h.085c.606 0 1.183.232 1.612.648l5.456 5.312 1.132 1.104c.607.591 1.215.591 1.822 0l.897-.888c.608-.593.608-1.181 0-1.765M33.25 4.598a2.472 2.472 0 0 0-1.75-1.754L21.348.125a2.482 2.482 0 0 0-2.394.641l-9.06 9.059-9.128 9.129a2.48 2.48 0 0 0-.641 2.395l2.72 10.152c.23.855.897 1.523 1.753 1.752l24.844 6.658a2.479 2.479 0 0 0 2.395-.643l7.432-7.431a2.48 2.48 0 0 0 .642-2.394L33.25 4.598zm-.73 27.947h-6.498l-5.013-8.08-3.628.003 2.964 1.577.01 6.5h-5.582l-.021-15.388-3.612-1.926-.003-2.11h9.192l.009 6.955h1.28l4.404-6.954h6.497l-5.938 9.718 5.938 9.705z"/></g></svg>