<svg width="286" height="69" viewBox="0 0 286 69" xmlns="http://www.w3.org/2000/svg" xmlns:xlink="http://www.w3.org/1999/xlink"><title>Kolide Float</title><defs><path d="M47.954 9.153C47.954 3.05 54.354 0 67.156 0c12.805 0 19.206 3.051 19.206 9.153v27.46c0 6.103-6.4 9.154-19.206 9.154-12.802 0-19.202-3.051-19.202-9.154V9.153zm19.202 27.46c6.404 0 9.605-1.017 9.605-3.051V12.204c0-2.034-3.201-3.051-9.605-3.051-6.401.204-9.602 1.22-9.602 3.05v21.359c0 2.034 3.201 3.05 9.602 3.05z" id="b"/><filter x="-50%" y="-50%" width="200%" height="200%" filterUnits="objectBoundingBox" id="a"><feOffset in="SourceAlpha" result="shadowOffsetOuter1"/><feGaussianBlur stdDeviation="5" in="shadowOffsetOuter1" result="shadowBlurOuter1"/><feColorMatrix values="0 0 0 0 0 0 0 0 0 0 0 0 0 0 0 0 0 0 0.12 0" in="shadowBlurOuter1"/></filter><path d="M108.887 3.051v30.51c0 2.035 3.2 3.052 9.601 3.052h6.404c2.133 0 3.2 1.017 3.2 3.05v3.052c0 2.036-1.067 3.05-3.2 3.05h-6.404c-12.802 0-19.203-3.05-19.203-9.152V3.05c0-2.034 1.068-3.051 3.2-3.051h3.201c2.134.001 3.2 1.018 3.2 3.051" id="d"/><filter x="-50%" y="-50%" width="200%" height="200%" filterUnits="objectBoundingBox" id="c"><feOffset in="SourceAlpha" result="shadowOffsetOuter1"/><feGaussianBlur stdDeviation="5" in="shadowOffsetOuter1" result="shadowBlurOuter1"/><feColorMatrix values="0 0 0 0 0 0 0 0 0 0 0 0 0 0 0 0 0 0 0.12 0" in="shadowBlurOuter1"/></filter><path d="M144.217 45.766c-2.133 0-3.2-1.017-3.2-3.051V3.05c0-2.034 1.067-3.051 3.2-3.051h3.2c2.132 0 3.202 1.017 3.202 3.051v39.663c0 2.033-1.07 3.05-3.201 3.05h-3.2v.002z" id="f"/><filter x="-50%" y="-50%" width="200%" height="200%" filterUnits="objectBoundingBox" id="e"><feOffset in="SourceAlpha" result="shadowOffsetOuter1"/><feGaussianBlur stdDeviation="5" in="shadowOffsetOuter1" result="shadowBlurOuter1"/><feColorMatrix values="0 0 0 0 0 0 0 0 0 0 0 0 0 0 0 0 0 0 0.12 0" in="shadowBlurOuter1"/></filter><path d="M163.544 3.051c0-2.035 1.067-3.051 3.2-3.051h16.002c12.805 0 19.206 3.051 19.206 9.153v27.46c0 6.103-6.401 9.154-19.206 9.154h-16.002c-2.133 0-3.2-1.018-3.2-3.051V3.051zm19.2 33.562c6.404 0 9.605-1.017 9.605-3.051V12.509c0-2.034-3.2-3.051-9.604-3.051h-6.403c-2.131 0-3.2 1.017-3.2 3.05v21.054c0 2.034 1.069 3.05 3.2 3.05h6.403z" id="h"/><filter x="-50%" y="-50%" width="200%" height="200%" filterUnits="objectBoundingBox" id="g"><feOffset in="SourceAlpha" result="shadowOffsetOuter1"/><feGaussianBlur stdDeviation="5" in="shadowOffsetOuter1" result="shadowBlurOuter1"/><feColorMatrix values="0 0 0 0 0 0 0 0 0 0 0 0 0 0 0 0 0 0 0.12 0" in="shadowBlurOuter1"/></filter><path d="M250.083 45.766h-16.006c-12.802 0-19.204-3.051-19.204-9.153V9.153c0-6.102 6.402-9.153 19.204-9.153h16.006c2.133 0 3.2 1.017 3.2 3.051v3.05c0 2.035-1.067 3.052-3.2 3.052h-16.006c-6.401 0-9.602 1.016-9.602 3.05v3.052c0 2.035 1.067 3.052 3.2 3.052h6.402c2.134 0 3.203 1.016 3.203 3.051v3.05c0 2.035-1.07 3.052-3.203 3.052h-6.401c-2.134 0-3.2 1.017-3.2 3.05v3.052c0 2.034 3.2 3.05 9.601 3.05h16.006c2.133 0 3.2 1.02 3.2 3.052v3.05c0 2.035-1.067 3.052-3.2 3.052" id="j"/><filter x="-50%" y="-50%" width="200%" height="200%" filterUnits="objectBoundingBox" id="i"><feOffset in="SourceAlpha" result="shadowOffsetOuter1"/><feGaussianBlur stdDeviation="5" in="shadowOffsetOuter1" result="shadowBlurOuter1"/><feColorMatrix values="0 0 0 0 0 0 0 0 0 0 0 0 0 0 0 0 0 0 0.12 0" in="shadowBlurOuter1"/></filter><path d="M40.267 38.222L24.126 22.838 40.128 7.586l.016-.016c.013-.015.017-.03.03-.043 1.454-1.424 1.448-2.848-.046-4.275l-2.272-2.136c-1.515-1.445-3.022-1.445-4.513 0L16.975 16.719a5.854 5.854 0 0 1-4.034 1.593h-.139c-2.133 0-3.2-1.016-3.2-3.051V3.055c0-2.034-1.067-3.051-3.2-3.051H3.198C1.067.004 0 1.02 0 3.054V42.72c0 2.034 1.067 3.05 3.2 3.05h3.2c2.134 0 3.2-1.016 3.2-3.05V30.516c0-2.035 1.067-3.051 3.201-3.051h.212c1.512 0 2.954.564 4.024 1.58L30.654 42l2.826 2.691c1.514 1.444 3.031 1.444 4.546 0l2.24-2.164c1.516-1.446 1.516-2.88.001-4.305" id="l"/><filter x="-50%" y="-50%" width="200%" height="200%" filterUnits="objectBoundingBox" id="k"><feOffset in="SourceAlpha" result="shadowOffsetOuter1"/><feGaussianBlur stdDeviation="5" in="shadowOffsetOuter1" result="shadowBlurOuter1"/><feColorMatrix values="0 0 0 0 0 0 0 0 0 0 0 0 0 0 0 0 0 0 0.12 0" in="shadowBlurOuter1"/></filter></defs><g fill="none" fill-rule="evenodd"><g fill="#000" transform="translate(16 13)"><use filter="url(#a)" xlink:href="#b"/><use filter="url(#c)" xlink:href="#d"/><use filter="url(#e)" xlink:href="#f"/><use filter="url(#g)" xlink:href="#h"/><use filter="url(#i)" xlink:href="#j"/><use filter="url(#k)" xlink:href="#l"/></g><path d="M54.634 10.472c0-6.897 7.18-10.346 21.546-10.346 14.367 0 21.55 3.449 21.55 10.346v31.042c0 6.9-7.183 10.348-21.55 10.348-14.365 0-21.546-3.449-21.546-10.348V10.472zM76.18 41.514c7.185 0 10.776-1.15 10.776-3.449V13.921c0-2.299-3.591-3.449-10.776-3.449-7.183.23-10.774 1.379-10.774 3.45v24.143c0 2.3 3.591 3.449 10.774 3.449zm46.823-37.939v34.49c0 2.3 3.591 3.449 10.774 3.449h7.185c2.393 0 3.59 1.15 3.59 3.449v3.449c0 2.302-1.197 3.449-3.59 3.449h-7.185c-14.365 0-21.548-3.45-21.548-10.347V3.574c0-2.299 1.199-3.448 3.592-3.448h3.59c2.395.001 3.592 1.15 3.592 3.449m39.643 48.285c-2.394 0-3.591-1.149-3.591-3.448V3.575c0-2.3 1.197-3.45 3.59-3.45h3.592c2.391 0 3.591 1.15 3.591 3.45V48.41c0 2.3-1.2 3.45-3.591 3.45h-3.591zM184.33 3.575c0-2.301 1.198-3.45 3.592-3.45h17.955c14.367 0 21.55 3.45 21.55 10.347v31.042c0 6.9-7.183 10.348-21.55 10.348h-17.955c-2.394 0-3.591-1.15-3.591-3.449V3.575zm21.545 37.939c7.186 0 10.777-1.15 10.777-3.449v-23.8c0-2.298-3.591-3.448-10.777-3.448h-7.184c-2.39 0-3.59 1.15-3.59 3.449v23.8c0 2.298 1.2 3.448 3.59 3.448h7.184zm75.556 10.346h-17.958c-14.365 0-21.548-3.448-21.548-10.346V10.472c0-6.897 7.183-10.346 21.548-10.346h17.958c2.395 0 3.592 1.15 3.592 3.449v3.448c0 2.3-1.197 3.45-3.592 3.45h-17.958c-7.183 0-10.774 1.148-10.774 3.448v3.45c0 2.3 1.197 3.45 3.591 3.45h7.183c2.394 0 3.594 1.148 3.594 3.448v3.45c0 2.299-1.2 3.448-3.594 3.448h-7.183c-2.394 0-3.591 1.15-3.591 3.45v3.448c0 2.3 3.591 3.449 10.774 3.449h17.958c2.395 0 3.592 1.152 3.592 3.449v3.449c0 2.3-1.197 3.449-3.592 3.449M46.009 43.334L27.898 25.943 45.852 8.7l.019-.018c.014-.016.019-.034.033-.048 1.632-1.61 1.625-3.22-.052-4.833l-2.549-2.415c-1.7-1.634-3.39-1.634-5.064 0l-18.365 17.64a6.542 6.542 0 0 1-4.527 1.8h-.155c-2.394 0-3.591-1.148-3.591-3.449V3.58c0-2.3-1.197-3.45-3.591-3.45H4.417C2.024.13.827 1.28.827 3.58v44.838c0 2.3 1.197 3.45 3.59 3.45h3.591c2.394 0 3.591-1.15 3.591-3.45V34.622c0-2.301 1.197-3.45 3.592-3.45h.238a6.52 6.52 0 0 1 4.514 1.787c3.482 3.336 10.992 10.537 15.28 14.645 1.9 1.825 3.17 3.042 3.17 3.042 1.7 1.632 3.402 1.632 5.101 0l2.513-2.446c1.701-1.635 1.701-3.256.002-4.866" fill="#9651CA"/></g></svg>