<svg xmlns="http://www.w3.org/2000/svg" width="160" height="141">
  <path d="M77.445 1.744A5.96 5.96 0 0 1 83.197.203l24.394 6.537a5.96 5.96 0 0 1 4.21 4.21l15.996 59.696a5.961 5.961 0 0 1-1.541 5.755l-17.857 17.854a5.957 5.957 0 0 1-5.754 1.542L42.95 79.801a5.951 5.951 0 0 1-4.21-4.21l-6.537-24.394a5.953 5.953 0 0 1 1.542-5.751l43.7-43.702zM81.997 58l12 20h16l-15-24 15-22h-16l-10 16h-4V32h-22v4l8 4v38h14V62l-6-4h8zm-37.998 76.4c4.335 0 6.501-.733 6.501-2.2v-15.4c0-1.467-2.166-2.2-6.501-2.2-4.333.147-6.5.88-6.5 2.2v15.4c0 1.467 2.167 2.2 6.5 2.2zM31 114.6c0-4.4 4.332-6.6 12.999-6.6C52.667 108 57 110.2 57 114.6v19.8c0 4.4-4.333 6.6-13.001 6.6C35.332 141 31 138.8 31 134.4v-19.8zm38.666-4.4v22c0 1.467 2.222 2.2 6.666 2.2h4.446c1.48 0 2.222.733 2.222 2.2v2.2c0 1.468-.742 2.2-2.222 2.2h-4.446C67.444 141 63 138.8 63 134.4v-24.2c0-1.467.742-2.2 2.222-2.2h2.222c1.481 0 2.222.733 2.222 2.2M90.333 141c-1.555 0-2.333-.733-2.333-2.2v-28.6c0-1.467.778-2.2 2.333-2.2h2.334c1.554 0 2.333.733 2.333 2.2v28.6c0 1.467-.779 2.2-2.333 2.2h-2.334zM115 134.052c4.045 0 6.067-.715 6.067-2.147v-14.811c0-1.431-2.022-2.147-6.068-2.147h-4.044c-1.347 0-2.022.716-2.022 2.147v14.811c0 1.432.675 2.147 2.022 2.147H115zM102 110.2c0-1.468.722-2.2 2.167-2.2h10.832c8.668 0 13.001 2.2 13.001 6.6v19.8c0 4.4-4.333 6.6-13.001 6.6h-10.832c-1.445 0-2.167-.734-2.167-2.2v-28.6zm55.833 30.8H147c-8.666 0-12.999-2.2-12.999-6.6v-19.8c0-4.4 4.333-6.6 12.999-6.6h10.834c1.445 0 2.167.733 2.167 2.2v2.2c0 1.467-.722 2.2-2.167 2.2H147c-4.333 0-6.5.732-6.5 2.2v2.2c0 1.467.723 2.2 2.167 2.2H147c1.444 0 2.168.733 2.168 2.2v2.2c0 1.466-.724 2.2-2.168 2.2h-4.333c-1.444 0-2.166.734-2.166 2.2v2.2c0 1.467 2.166 2.2 6.499 2.2h10.834c1.445 0 2.167.734 2.167 2.2v2.2c0 1.467-.722 2.2-2.167 2.2m-130.602-5.445l-10.916-11.092 10.821-10.997.012-.011c.008-.01.011-.022.02-.031.983-1.027.979-2.054-.032-3.082l-1.536-1.54c-1.024-1.042-2.043-1.042-3.052 0l-11.07 11.248a3.826 3.826 0 0 1-2.728 1.149h-.094c-1.443 0-2.164-.733-2.164-2.2v-8.8c0-1.466-.722-2.199-2.165-2.199H2.164C.722 108 0 108.733 0 110.199v28.599c0 1.466.722 2.2 2.164 2.2h2.164c1.443 0 2.165-.734 2.165-2.2v-8.8c0-1.467.721-2.2 2.164-2.2h.144c1.023 0 1.998.408 2.72 1.14 2.1 2.128 6.626 6.72 9.21 9.34l1.911 1.941c1.025 1.041 2.05 1.041 3.075 0l1.515-1.561c1.024-1.042 1.024-2.076 0-3.103" fill="#b8c2e3" fill-rule="evenodd"/>
</svg>
