<?xml version="1.0" encoding="utf-8"?>
<svg xmlns="http://www.w3.org/2000/svg" viewBox="0 0 174 48"><defs><style>.cls-1{fill:#995ecc;}.cls-1,.cls-2,.cls-3,.cls-4,.cls-5{fill-rule:evenodd;}.cls-2{fill:#fff;}.cls-3{fill:#c482f9;}.cls-4{fill:#ae6ddf;}.cls-5{fill:#66696f;}</style></defs><title>Asset 3</title><g id="Layer_2" data-name="Layer 2"><g id="Layer_1-2" data-name="Layer 1"><g id="light-facet-logo"><path class="cls-1" d="M22.72.87.87,22.72A3,3,0,0,0,.1,25.6L3.37,37.8A3,3,0,0,0,5.48,39.9l29.85,8a3,3,0,0,0,2.88-.77l8.93-8.93a3,3,0,0,0,.77-2.88l-8-29.85A3,3,0,0,0,37.8,3.37L25.6.1a3,3,0,0,0-2.88.77"/><polygon class="cls-2" points="25.19 29.34 20.83 29.35 24.39 31.24 24.41 39.05 17.7 39.05 17.67 20.56 13.33 18.25 13.33 15.71 24.37 15.71 24.39 24.07 25.92 24.07 31.21 15.71 39.02 15.71 31.88 27.39 31.86 27.39 39.02 39.05 31.21 39.05 25.19 29.34"/><polygon class="cls-1" points="24.37 15.71 24.37 0.04 31.21 15.71 25.92 24.07 24.38 24.07 24.37 15.71"/><polygon class="cls-3" points="39.02 15.71 39.02 4.04 31.21 15.71 39.02 15.71"/><polygon class="cls-3" points="31.86 27.39 39.02 39.05 48 36.66 31.86 27.39"/><polygon class="cls-4" points="39.02 39.05 31.21 39.05 36.55 47.96 39.02 39.05"/><polygon class="cls-3" points="17.67 20.56 17.7 39.05 4.06 39.05 17.67 20.56"/><polygon class="cls-1" points="17.67 20.56 13.33 18.25 4.06 39.05 17.67 20.56"/><polygon class="cls-4" points="24.37 0.04 24.37 15.71 13.33 15.71 24.37 0.04"/><path class="cls-4" d="M47.9,35.32l-8-29.85A3,3,0,0,0,39,4V15.71L48,36.56a3,3,0,0,0-.06-1.24"/><path class="cls-4" d="M31.21,15.71,39,4a3,3,0,0,0-1.22-.67L25.6.1A3,3,0,0,0,24.37,0Z"/><path class="cls-4" d="M4.06,39l9.27-20.8V15.71L0,24.49A3,3,0,0,0,.1,25.6L3.37,37.8A3,3,0,0,0,4.06,39"/><path class="cls-4" d="M24.41,39H4.07a3,3,0,0,0,1.41.85l29.85,8a3,3,0,0,0,1.23.06Z"/><path class="cls-1" d="M39,39,36.55,48a3,3,0,0,0,1.64-.83l8.93-8.93A3,3,0,0,0,48,36.57Z"/></g><g id="kolide-text"><path class="cls-5" d="M141.58,15.87h-7.9a1.38,1.38,0,0,0-1.58,1.54v20A1.38,1.38,0,0,0,133.67,39h7.9q9.49,0,9.49-4.63V20.49Q151.06,15.86,141.58,15.87Zm4.74,17q0,1.54-4.74,1.54h-3.16a1.38,1.38,0,0,1-1.58-1.54V22.19a1.38,1.38,0,0,1,1.58-1.54h3.16q4.74,0,4.74,1.54Z"/><path class="cls-5" d="M79.89,35.18l-8-7.78,7.9-7.71h0v0a1.34,1.34,0,0,0,0-2.16L78.7,16.43a1.41,1.41,0,0,0-2.23,0l-8.08,7.89a2.86,2.86,0,0,1-2,.8h-.07a1.38,1.38,0,0,1-1.58-1.54V17.41a1.38,1.38,0,0,0-1.58-1.54H61.58A1.38,1.38,0,0,0,60,17.41v20A1.38,1.38,0,0,0,61.58,39h1.58a1.38,1.38,0,0,0,1.58-1.54V31.29a1.38,1.38,0,0,1,1.58-1.54h.1a2.85,2.85,0,0,1,2,.8l6.73,6.55,1.4,1.36a1.43,1.43,0,0,0,2.25,0l1.11-1.09a1.33,1.33,0,0,0,0-2.18Z"/><path class="cls-5" d="M172.42,39h-7.9Q155,39,155,34.37V20.49q0-4.63,9.48-4.62h7.9A1.38,1.38,0,0,1,174,17.41V19a1.38,1.38,0,0,1-1.58,1.54h-7.9q-4.74,0-4.74,1.54v1.54a1.38,1.38,0,0,0,1.58,1.54h3.16a1.38,1.38,0,0,1,1.58,1.54V28.2a1.38,1.38,0,0,1-1.58,1.54h-3.16a1.38,1.38,0,0,0-1.58,1.54v1.54q0,1.54,4.74,1.54h7.9A1.38,1.38,0,0,1,174,35.91v1.54A1.38,1.38,0,0,1,172.42,39Z"/><path class="cls-5" d="M124,39a1.38,1.38,0,0,1-1.58-1.54v-20A1.38,1.38,0,0,1,124,15.87h1.58a1.38,1.38,0,0,1,1.58,1.54v20A1.38,1.38,0,0,1,125.58,39H124Z"/><path class="cls-5" d="M110.28,17.41V32.83q0,1.54,4.74,1.54h3.16a1.38,1.38,0,0,1,1.58,1.54v1.54A1.38,1.38,0,0,1,118.19,39H115q-9.48,0-9.48-4.63v-17a1.38,1.38,0,0,1,1.58-1.54h1.58a1.38,1.38,0,0,1,1.58,1.54Z"/><path class="cls-5" d="M91.79,15.86q-9.48,0-9.48,4.63V34.37q0,4.63,9.48,4.63t9.49-4.63V20.49Q101.28,15.87,91.79,15.86Zm4.74,17q0,1.54-4.74,1.54T87,32.83V22q0-1.39,4.74-1.54,4.74,0,4.74,1.54Z"/></g></g></g></svg>
