<svg xmlns="http://www.w3.org/2000/svg" viewBox="0 0 82 53"><defs><style>.cls-1{fill:#4a90e2;fill-rule:evenodd;}</style></defs><title>Asset 1</title><g id="Layer_2" data-name="Layer 2"><g id="Layer_1-2" data-name="Layer 1"><polygon class="cls-1" points="40 13 40 21 32 21 32 23 40 23 40 31 42 31 42 23 50 23 50 21 42 21 42 13 40 13"/><path class="cls-1" d="M74,45V2a2,2,0,0,0-2-2H10A2,2,0,0,0,8,2V45H0v7a1,1,0,0,0,1,1H81a1,1,0,0,0,1-1V45ZM53,46a1,1,0,0,1-1,1H30a1,1,0,0,1-1-1V45H53Zm18-5H11V3H71Z"/></g></g></svg>