<svg width="323" height="143" viewBox="0 0 323 143" fill="none" xmlns="http://www.w3.org/2000/svg">
<rect x="162" y="39" width="1" height="17" fill="#C5C7D1"/>
<circle cx="163" cy="24" r="24" fill="#8B8FA2"/>
<g clip-path="url(#clip0_2902:71050)">
<path d="M173.066 20.2939V20.2941C173.066 21.7474 172.849 23.5519 172.427 25.3048C172.003 27.0663 171.388 28.7066 170.63 29.8693C169.914 30.9677 168.545 32.0283 166.906 32.9952C165.432 33.8648 163.835 34.6053 162.5 35.1982C161.165 34.6052 159.568 33.8648 158.094 32.9951C156.455 32.0282 155.086 30.9676 154.37 29.8692C153.612 28.7065 152.997 27.0662 152.573 25.3048C152.151 23.5519 151.934 21.7474 151.934 20.2941V20.2939V16.3705L162.5 12.7682L173.066 16.3705V20.2939Z" stroke="white" stroke-width="1.86875"/>
<path d="M166.608 19.3127L161.552 24.9189L158.234 22.7627C157.76 22.4752 157.286 22.4752 156.97 22.9064C156.654 23.3377 156.654 23.7689 157.128 24.0564L161.868 27.2189L168.03 20.3189C168.346 19.8877 168.346 19.4564 167.872 19.1689C167.556 18.8814 166.924 18.8814 166.608 19.3127Z" fill="white"/>
</g>
<g filter="url(#filter0_d_2902:71050)">
<rect x="1.5" y="57" width="320" height="80" rx="8" fill="white"/>
<rect x="1" y="56.5" width="321" height="81" rx="8.5" stroke="#C5C7D1"/>
</g>
<rect x="14" y="96.5" width="11" height="11" rx="3.5" fill="white" stroke="#C5C7D1"/>
<rect x="14" y="116.5" width="11" height="11" rx="3.5" fill="white" stroke="#C5C7D1"/>
<rect x="37.5" y="99" width="132" height="6" rx="3" fill="#C5C7D1"/>
<rect x="37.5" y="119" width="44" height="6" rx="3" fill="#E2E4EA"/>
<rect x="85.5" y="119" width="72" height="6" rx="3" fill="#E2E4EA"/>
<rect x="251.5" y="99" width="58" height="6" rx="3" fill="#C5C7D1"/>
<rect x="251.5" y="119" width="34" height="6" rx="3" fill="#E2E4EA"/>
<rect x="181.5" y="99" width="58" height="6" rx="3" fill="#C5C7D1"/>
<rect x="181.5" y="119" width="46" height="6" rx="3" fill="#E2E4EA"/>
<path d="M321.5 87.5H322V87V65C322 60.3056 318.194 56.5 313.5 56.5H9.5C4.80558 56.5 1 60.3056 1 65V87V87.5H1.5H321.5Z" fill="#F9FAFC" stroke="#C5C7D1"/>
<rect x="14" y="66.5" width="11" height="11" rx="3.5" fill="white" stroke="#C5C7D1"/>
<path d="M44.1 67.54H45.552V76H44.388L39.852 70.096V76H38.412V67.54H39.564L44.1 73.432V67.54ZM49.7648 69.988C50.5888 69.988 51.2008 70.188 51.6008 70.588C52.0008 70.988 52.2008 71.604 52.2008 72.436V76H50.7728V75.1C50.6368 75.412 50.4208 75.656 50.1248 75.832C49.8368 76.008 49.5008 76.096 49.1168 76.096C48.7248 76.096 48.3688 76.016 48.0488 75.856C47.7288 75.696 47.4768 75.476 47.2928 75.196C47.1088 74.916 47.0168 74.604 47.0168 74.26C47.0168 73.828 47.1248 73.488 47.3408 73.24C47.5648 72.992 47.9248 72.812 48.4208 72.7C48.9168 72.588 49.6008 72.532 50.4728 72.532H50.7728V72.256C50.7728 71.856 50.6848 71.568 50.5088 71.392C50.3408 71.216 50.0568 71.128 49.6568 71.128C49.3448 71.128 49.0168 71.184 48.6728 71.296C48.3368 71.4 48.0048 71.548 47.6768 71.74L47.2568 70.708C47.5848 70.5 47.9808 70.328 48.4448 70.192C48.9088 70.056 49.3488 69.988 49.7648 69.988ZM49.4168 75.016C49.8168 75.016 50.1408 74.884 50.3888 74.62C50.6448 74.348 50.7728 74 50.7728 73.576V73.324H50.5568C50.0208 73.324 49.6048 73.348 49.3088 73.396C49.0128 73.444 48.8008 73.528 48.6728 73.648C48.5448 73.768 48.4808 73.932 48.4808 74.14C48.4808 74.396 48.5688 74.608 48.7448 74.776C48.9208 74.936 49.1448 75.016 49.4168 75.016ZM60.6973 69.988C61.3613 69.988 61.8573 70.188 62.1853 70.588C62.5133 70.98 62.6773 71.584 62.6773 72.4V76H61.1773V72.46C61.1773 72.012 61.1013 71.688 60.9493 71.488C60.7973 71.28 60.5533 71.176 60.2173 71.176C59.8173 71.176 59.5053 71.312 59.2813 71.584C59.0573 71.856 58.9453 72.236 58.9453 72.724V76H57.4453V72.46C57.4453 72.012 57.3693 71.688 57.2173 71.488C57.0733 71.28 56.8293 71.176 56.4853 71.176C56.0933 71.176 55.7853 71.312 55.5613 71.584C55.3373 71.856 55.2253 72.236 55.2253 72.724V76H53.7253V70.132H55.1893V70.96C55.3653 70.64 55.6093 70.4 55.9213 70.24C56.2333 70.072 56.5893 69.988 56.9893 69.988C57.8773 69.988 58.4653 70.356 58.7533 71.092C58.9373 70.748 59.2013 70.48 59.5453 70.288C59.8893 70.088 60.2733 69.988 60.6973 69.988ZM69.3499 73.336H65.3539C65.4019 73.88 65.5659 74.284 65.8459 74.548C66.1259 74.812 66.5259 74.944 67.0459 74.944C67.6939 74.944 68.2859 74.736 68.8219 74.32L69.2539 75.352C68.9819 75.576 68.6379 75.756 68.2219 75.892C67.8139 76.028 67.4019 76.096 66.9859 76.096C66.0259 76.096 65.2659 75.824 64.7059 75.28C64.1539 74.736 63.8779 73.992 63.8779 73.048C63.8779 72.448 63.9979 71.916 64.2379 71.452C64.4779 70.988 64.8139 70.628 65.2459 70.372C65.6859 70.116 66.1819 69.988 66.7339 69.988C67.5419 69.988 68.1779 70.248 68.6419 70.768C69.1139 71.288 69.3499 72.004 69.3499 72.916V73.336ZM66.7699 71.044C66.3699 71.044 66.0459 71.172 65.7979 71.428C65.5579 71.684 65.4099 72.052 65.3539 72.532H68.0659C68.0499 72.044 67.9299 71.676 67.7059 71.428C67.4819 71.172 67.1699 71.044 66.7699 71.044Z" fill="#8B8FA2"/>
<path fill-rule="evenodd" clip-rule="evenodd" d="M181.5 72C181.5 76.42 185.08 80 189.5 80C193.92 80 197.5 76.42 197.5 72C197.5 67.58 193.92 64 189.5 64C185.08 64 181.5 67.58 181.5 72ZM192.79 69.29C192.97 69.11 193.22 69 193.5 69C194.05 69 194.5 69.45 194.5 70C194.5 70.28 194.39 70.53 194.21 70.71L189.21 75.71C189.03 75.89 188.78 76 188.5 76C188.22 76 187.97 75.89 187.79 75.71L184.79 72.71C184.61 72.53 184.5 72.28 184.5 72C184.5 71.45 184.95 71 185.5 71C185.78 71 186.03 71.11 186.21 71.29L188.5 73.59L192.79 69.29Z" fill="#C5C7D1"/>
<path d="M209.444 67.54L206.012 72.1V76H204.464V72.1L201.044 67.54H202.784L205.232 70.864L207.692 67.54H209.444ZM213.967 73.336H209.971C210.019 73.88 210.183 74.284 210.463 74.548C210.743 74.812 211.143 74.944 211.663 74.944C212.311 74.944 212.903 74.736 213.439 74.32L213.871 75.352C213.599 75.576 213.255 75.756 212.839 75.892C212.431 76.028 212.019 76.096 211.603 76.096C210.643 76.096 209.883 75.824 209.323 75.28C208.771 74.736 208.495 73.992 208.495 73.048C208.495 72.448 208.615 71.916 208.855 71.452C209.095 70.988 209.431 70.628 209.863 70.372C210.303 70.116 210.799 69.988 211.351 69.988C212.159 69.988 212.795 70.248 213.259 70.768C213.731 71.288 213.967 72.004 213.967 72.916V73.336ZM211.387 71.044C210.987 71.044 210.663 71.172 210.415 71.428C210.175 71.684 210.027 72.052 209.971 72.532H212.683C212.667 72.044 212.547 71.676 212.323 71.428C212.099 71.172 211.787 71.044 211.387 71.044ZM217.354 76.096C216.834 76.096 216.354 76.032 215.914 75.904C215.482 75.776 215.114 75.592 214.81 75.352L215.23 74.308C215.854 74.764 216.57 74.992 217.378 74.992C217.722 74.992 217.982 74.936 218.158 74.824C218.342 74.712 218.434 74.552 218.434 74.344C218.434 74.168 218.37 74.032 218.242 73.936C218.122 73.84 217.902 73.752 217.582 73.672L216.622 73.456C216.078 73.336 215.674 73.14 215.41 72.868C215.146 72.596 215.014 72.244 215.014 71.812C215.014 71.452 215.114 71.136 215.314 70.864C215.522 70.584 215.806 70.368 216.166 70.216C216.534 70.064 216.958 69.988 217.438 69.988C217.854 69.988 218.254 70.052 218.638 70.18C219.03 70.308 219.374 70.488 219.67 70.72L219.25 71.74C218.642 71.3 218.034 71.08 217.426 71.08C217.098 71.08 216.842 71.14 216.658 71.26C216.474 71.38 216.382 71.548 216.382 71.764C216.382 71.924 216.438 72.056 216.55 72.16C216.67 72.264 216.858 72.344 217.114 72.4L218.11 72.628C218.694 72.756 219.122 72.96 219.394 73.24C219.666 73.512 219.802 73.872 219.802 74.32C219.802 74.864 219.582 75.296 219.142 75.616C218.702 75.936 218.106 76.096 217.354 76.096Z" fill="#8B8FA2"/>
<path fill-rule="evenodd" clip-rule="evenodd" d="M251.5 72C251.5 76.4183 255.082 80 259.5 80C263.918 80 267.5 76.4183 267.5 72C267.5 67.5817 263.918 64 259.5 64C255.082 64 251.5 67.5817 251.5 72ZM265.5 72C265.5 75.3137 262.814 78 259.5 78C256.186 78 253.5 75.3137 253.5 72C253.5 68.6863 256.186 66 259.5 66C262.814 66 265.5 68.6863 265.5 72ZM258.5 76V74H260.5V76H258.5ZM258.5 68V73H260.5V68H258.5Z" fill="#C5C7D1"/>
<path d="M278.1 67.54H279.552V76H278.388L273.852 70.096V76H272.412V67.54H273.564L278.1 73.432V67.54ZM283.921 76.096C283.321 76.096 282.793 75.972 282.337 75.724C281.889 75.476 281.541 75.12 281.293 74.656C281.045 74.192 280.921 73.652 280.921 73.036C280.921 72.42 281.045 71.884 281.293 71.428C281.541 70.964 281.889 70.608 282.337 70.36C282.793 70.112 283.321 69.988 283.921 69.988C284.521 69.988 285.045 70.112 285.493 70.36C285.949 70.608 286.297 70.964 286.537 71.428C286.785 71.884 286.909 72.42 286.909 73.036C286.909 73.652 286.785 74.192 286.537 74.656C286.297 75.12 285.949 75.476 285.493 75.724C285.045 75.972 284.521 76.096 283.921 76.096ZM283.909 74.932C284.397 74.932 284.769 74.772 285.025 74.452C285.281 74.132 285.409 73.66 285.409 73.036C285.409 72.42 285.281 71.952 285.025 71.632C284.769 71.304 284.401 71.14 283.921 71.14C283.441 71.14 283.069 71.304 282.805 71.632C282.549 71.952 282.421 72.42 282.421 73.036C282.421 73.66 282.549 74.132 282.805 74.452C283.061 74.772 283.429 74.932 283.909 74.932Z" fill="#8B8FA2"/>
<defs>
<filter id="filter0_d_2902:71050" x="0.5" y="56" width="322" height="87" filterUnits="userSpaceOnUse" color-interpolation-filters="sRGB">
<feFlood flood-opacity="0" result="BackgroundImageFix"/>
<feColorMatrix in="SourceAlpha" type="matrix" values="0 0 0 0 0 0 0 0 0 0 0 0 0 0 0 0 0 0 127 0" result="hardAlpha"/>
<feMorphology radius="5" operator="erode" in="SourceAlpha" result="effect1_dropShadow_2902:71050"/>
<feOffset dy="7"/>
<feGaussianBlur stdDeviation="1.5"/>
<feColorMatrix type="matrix" values="0 0 0 0 0.0980392 0 0 0 0 0.129412 0 0 0 0 0.278431 0 0 0 0.1 0"/>
<feBlend mode="normal" in2="BackgroundImageFix" result="effect1_dropShadow_2902:71050"/>
<feBlend mode="normal" in="SourceGraphic" in2="effect1_dropShadow_2902:71050" result="shape"/>
</filter>
<clipPath id="clip0_2902:71050">
<rect width="23" height="26" fill="white" transform="translate(151 11)"/>
</clipPath>
</defs>
</svg>
