<svg width="323" height="143" viewBox="0 0 323 143" fill="none" xmlns="http://www.w3.org/2000/svg">
<g filter="url(#filter0_d_3080:66106)">
<rect x="1.5" y="57" width="320" height="80" rx="8" fill="white"/>
<rect x="1" y="56.5" width="321" height="81" rx="8.5" stroke="#C5C7D1"/>
</g>
<rect x="14" y="96.5" width="11" height="11" rx="3.5" fill="white" stroke="#C5C7D1"/>
<rect x="14" y="116.5" width="11" height="11" rx="3.5" fill="white" stroke="#C5C7D1"/>
<rect x="37.5" y="99" width="120" height="6" rx="3" fill="#C5C7D1"/>
<rect x="37.5" y="119" width="44" height="6" rx="3" fill="#E2E4EA"/>
<rect x="85.5" y="119" width="60" height="6" rx="3" fill="#E2E4EA"/>
<rect x="239.5" y="99" width="58" height="6" rx="3" fill="#C5C7D1"/>
<rect x="239.5" y="119" width="58" height="6" rx="3" fill="#E2E4EA"/>
<rect x="169.5" y="99" width="58" height="6" rx="3" fill="#C5C7D1"/>
<rect x="169.5" y="119" width="46" height="6" rx="3" fill="#E2E4EA"/>
<path d="M321.5 87.5H322V87V65C322 60.3056 318.194 56.5 313.5 56.5H9.5C4.80558 56.5 1 60.3056 1 65V87V87.5H1.5H321.5Z" fill="#F9FAFC" stroke="#C5C7D1"/>
<rect x="14" y="66.5" width="11" height="11" rx="3.5" fill="white" stroke="#C5C7D1"/>
<path d="M43.34 77.13L42.37 75.56C42.1767 75.2533 41.86 75.1 41.42 75.1C40.74 75.1 40.1467 74.95 39.64 74.65C39.1333 74.35 38.74 73.93 38.46 73.39C38.18 72.8433 38.04 72.2033 38.04 71.47C38.04 70.73 38.18 70.09 38.46 69.55C38.74 69.01 39.1333 68.5933 39.64 68.3C40.1467 68 40.7433 67.85 41.43 67.85C42.1167 67.85 42.7133 68 43.22 68.3C43.7267 68.5933 44.12 69.01 44.4 69.55C44.68 70.09 44.82 70.7267 44.82 71.46C44.82 72.26 44.6533 72.9467 44.32 73.52C43.9933 74.0933 43.54 74.5133 42.96 74.78C43.2467 74.8733 43.4933 75.0967 43.7 75.45L44.43 76.61L43.34 77.13ZM41.43 74C42.0767 74 42.58 73.7767 42.94 73.33C43.3 72.8833 43.48 72.2633 43.48 71.47C43.48 70.67 43.3 70.05 42.94 69.61C42.5867 69.17 42.0833 68.95 41.43 68.95C40.7833 68.95 40.28 69.17 39.92 69.61C39.56 70.05 39.38 70.67 39.38 71.47C39.38 72.2633 39.56 72.8833 39.92 73.33C40.28 73.7767 40.7833 74 41.43 74ZM47.7716 75.1C46.5716 75.1 45.9716 74.4267 45.9716 73.08V70.11H47.2216V73.1C47.2216 73.4467 47.2916 73.7033 47.4316 73.87C47.5716 74.0367 47.7949 74.12 48.1016 74.12C48.4349 74.12 48.7082 74.0067 48.9216 73.78C49.1349 73.5467 49.2416 73.24 49.2416 72.86V70.11H50.4916V75H49.2716V74.27C48.9449 74.8233 48.4449 75.1 47.7716 75.1ZM54.2026 75.1C53.6492 75.1 53.1726 74.9967 52.7726 74.79C52.3726 74.5833 52.0626 74.29 51.8426 73.91C51.6292 73.53 51.5226 73.08 51.5226 72.56C51.5226 72.0533 51.6259 71.61 51.8326 71.23C52.0459 70.85 52.3359 70.5533 52.7026 70.34C53.0759 70.12 53.4992 70.01 53.9726 70.01C54.6659 70.01 55.2126 70.23 55.6126 70.67C56.0192 71.11 56.2226 71.71 56.2226 72.47V72.84H52.7226C52.8159 73.7133 53.3159 74.15 54.2226 74.15C54.4959 74.15 54.7692 74.11 55.0426 74.03C55.3159 73.9433 55.5659 73.81 55.7926 73.63L56.1426 74.47C55.9092 74.6633 55.6159 74.8167 55.2626 74.93C54.9092 75.0433 54.5559 75.1 54.2026 75.1ZM54.0226 70.86C53.6559 70.86 53.3592 70.9733 53.1326 71.2C52.9059 71.4267 52.7692 71.7333 52.7226 72.12H55.1826C55.1559 71.7133 55.0426 71.4033 54.8426 71.19C54.6492 70.97 54.3759 70.86 54.0226 70.86ZM57.2125 75V70.11H58.4325V70.97C58.6725 70.39 59.1858 70.07 59.9725 70.01L60.3525 69.98L60.4325 71.04L59.7125 71.11C58.8925 71.19 58.4825 71.61 58.4825 72.37V75H57.2125ZM61.8713 76.8L62.7713 74.8L60.7412 70.11H62.0713L63.4413 73.53L64.8413 70.11H66.1013L63.1613 76.8H61.8713Z" fill="#8B8FA2"/>
<path d="M170.27 75V67.95H174.88V68.97H171.55V70.96H174.67V71.98H171.55V75H170.27ZM175.668 75V70.11H176.888V70.97C177.128 70.39 177.641 70.07 178.428 70.01L178.808 69.98L178.888 71.04L178.168 71.11C177.348 71.19 176.938 71.61 176.938 72.37V75H175.668ZM181.915 75.1C181.362 75.1 180.885 74.9967 180.485 74.79C180.085 74.5833 179.775 74.29 179.555 73.91C179.342 73.53 179.235 73.08 179.235 72.56C179.235 72.0533 179.339 71.61 179.545 71.23C179.759 70.85 180.049 70.5533 180.415 70.34C180.789 70.12 181.212 70.01 181.685 70.01C182.379 70.01 182.925 70.23 183.325 70.67C183.732 71.11 183.935 71.71 183.935 72.47V72.84H180.435C180.529 73.7133 181.029 74.15 181.935 74.15C182.209 74.15 182.482 74.11 182.755 74.03C183.029 73.9433 183.279 73.81 183.505 73.63L183.855 74.47C183.622 74.6633 183.329 74.8167 182.975 74.93C182.622 75.0433 182.269 75.1 181.915 75.1ZM181.735 70.86C181.369 70.86 181.072 70.9733 180.845 71.2C180.619 71.4267 180.482 71.7333 180.435 72.12H182.895C182.869 71.7133 182.755 71.4033 182.555 71.19C182.362 70.97 182.089 70.86 181.735 70.86ZM188.375 76.8V74.26C188.235 74.5133 188.025 74.7167 187.745 74.87C187.465 75.0233 187.152 75.1 186.805 75.1C186.379 75.1 186.002 74.9967 185.675 74.79C185.355 74.5833 185.105 74.29 184.925 73.91C184.745 73.5233 184.655 73.07 184.655 72.55C184.655 72.0233 184.745 71.5733 184.925 71.2C185.105 70.82 185.355 70.5267 185.675 70.32C186.002 70.1133 186.379 70.01 186.805 70.01C187.165 70.01 187.489 70.0933 187.775 70.26C188.062 70.42 188.272 70.6367 188.405 70.91V70.11H189.625V76.8H188.375ZM187.155 74.15C187.529 74.15 187.829 74.0167 188.055 73.75C188.282 73.4767 188.395 73.0767 188.395 72.55C188.395 72.0167 188.282 71.62 188.055 71.36C187.829 71.0933 187.529 70.96 187.155 70.96C186.782 70.96 186.482 71.0933 186.255 71.36C186.029 71.62 185.915 72.0167 185.915 72.55C185.915 73.0767 186.029 73.4767 186.255 73.75C186.482 74.0167 186.782 74.15 187.155 74.15ZM192.691 75.1C191.491 75.1 190.891 74.4267 190.891 73.08V70.11H192.141V73.1C192.141 73.4467 192.211 73.7033 192.351 73.87C192.491 74.0367 192.715 74.12 193.021 74.12C193.355 74.12 193.628 74.0067 193.841 73.78C194.055 73.5467 194.161 73.24 194.161 72.86V70.11H195.411V75H194.191V74.27C193.865 74.8233 193.365 75.1 192.691 75.1ZM199.123 75.1C198.569 75.1 198.093 74.9967 197.693 74.79C197.293 74.5833 196.983 74.29 196.763 73.91C196.549 73.53 196.443 73.08 196.443 72.56C196.443 72.0533 196.546 71.61 196.753 71.23C196.966 70.85 197.256 70.5533 197.623 70.34C197.996 70.12 198.419 70.01 198.893 70.01C199.586 70.01 200.133 70.23 200.533 70.67C200.939 71.11 201.143 71.71 201.143 72.47V72.84H197.643C197.736 73.7133 198.236 74.15 199.143 74.15C199.416 74.15 199.689 74.11 199.963 74.03C200.236 73.9433 200.486 73.81 200.713 73.63L201.062 74.47C200.829 74.6633 200.536 74.8167 200.183 74.93C199.829 75.0433 199.476 75.1 199.123 75.1ZM198.943 70.86C198.576 70.86 198.279 70.9733 198.053 71.2C197.826 71.4267 197.689 71.7333 197.643 72.12H200.103C200.076 71.7133 199.963 71.4033 199.763 71.19C199.569 70.97 199.296 70.86 198.943 70.86ZM202.132 75V70.11H203.352V70.87C203.519 70.59 203.742 70.3767 204.022 70.23C204.309 70.0833 204.629 70.01 204.982 70.01C206.136 70.01 206.712 70.68 206.712 72.02V75H205.462V72.08C205.462 71.7 205.389 71.4233 205.242 71.25C205.102 71.0767 204.882 70.99 204.582 70.99C204.216 70.99 203.922 71.1067 203.702 71.34C203.489 71.5667 203.382 71.87 203.382 72.25V75H202.132ZM210.242 75.1C209.729 75.1 209.282 74.9967 208.902 74.79C208.522 74.5767 208.229 74.2767 208.022 73.89C207.815 73.5033 207.712 73.05 207.712 72.53C207.712 72.01 207.815 71.5633 208.022 71.19C208.229 70.81 208.522 70.52 208.902 70.32C209.282 70.1133 209.729 70.01 210.242 70.01C210.555 70.01 210.865 70.06 211.172 70.16C211.479 70.26 211.732 70.4 211.932 70.58L211.562 71.45C211.389 71.2967 211.192 71.18 210.972 71.1C210.759 71.02 210.552 70.98 210.352 70.98C209.919 70.98 209.582 71.1167 209.342 71.39C209.109 71.6567 208.992 72.04 208.992 72.54C208.992 73.0333 209.109 73.4233 209.342 73.71C209.582 73.99 209.919 74.13 210.352 74.13C210.545 74.13 210.752 74.09 210.972 74.01C211.192 73.93 211.389 73.81 211.562 73.65L211.932 74.53C211.732 74.7033 211.475 74.8433 211.162 74.95C210.855 75.05 210.549 75.1 210.242 75.1ZM213.217 76.8L214.117 74.8L212.087 70.11H213.417L214.787 73.53L216.187 70.11H217.447L214.507 76.8H213.217Z" fill="#8B8FA2"/>
<path d="M240.27 75V67.95H243.33C244.103 67.95 244.7 68.1433 245.12 68.53C245.54 68.9167 245.75 69.4567 245.75 70.15C245.75 70.8433 245.54 71.3867 245.12 71.78C244.7 72.1667 244.103 72.36 243.33 72.36H241.55V75H240.27ZM241.55 71.35H243.13C244.05 71.35 244.51 70.95 244.51 70.15C244.51 69.3567 244.05 68.96 243.13 68.96H241.55V71.35ZM248.83 75.1C248.276 75.1 247.8 74.9967 247.4 74.79C247 74.5833 246.69 74.29 246.47 73.91C246.256 73.53 246.15 73.08 246.15 72.56C246.15 72.0533 246.253 71.61 246.46 71.23C246.673 70.85 246.963 70.5533 247.33 70.34C247.703 70.12 248.126 70.01 248.6 70.01C249.293 70.01 249.84 70.23 250.24 70.67C250.646 71.11 250.85 71.71 250.85 72.47V72.84H247.35C247.443 73.7133 247.943 74.15 248.85 74.15C249.123 74.15 249.396 74.11 249.67 74.03C249.943 73.9433 250.193 73.81 250.42 73.63L250.77 74.47C250.536 74.6633 250.243 74.8167 249.89 74.93C249.536 75.0433 249.183 75.1 248.83 75.1ZM248.65 70.86C248.283 70.86 247.986 70.9733 247.76 71.2C247.533 71.4267 247.396 71.7333 247.35 72.12H249.81C249.783 71.7133 249.67 71.4033 249.47 71.19C249.276 70.97 249.003 70.86 248.65 70.86ZM251.839 75V70.11H253.059V70.97C253.299 70.39 253.813 70.07 254.599 70.01L254.979 69.98L255.059 71.04L254.339 71.11C253.519 71.19 253.109 71.61 253.109 72.37V75H251.839ZM256.369 75V71.05H255.429V70.11H256.369V70.1C256.369 69.4067 256.549 68.8833 256.909 68.53C257.275 68.1767 257.842 67.9767 258.609 67.93L259.099 67.9L259.179 68.82L258.719 68.85C258.319 68.8767 258.035 68.9767 257.869 69.15C257.702 69.3167 257.619 69.5667 257.619 69.9V70.11H258.949V71.05H257.619V75H256.369ZM261.784 75.1C261.278 75.1 260.838 74.9967 260.464 74.79C260.091 74.5833 259.801 74.29 259.594 73.91C259.388 73.5233 259.284 73.07 259.284 72.55C259.284 72.03 259.388 71.58 259.594 71.2C259.801 70.82 260.091 70.5267 260.464 70.32C260.838 70.1133 261.278 70.01 261.784 70.01C262.291 70.01 262.731 70.1133 263.104 70.32C263.478 70.5267 263.768 70.82 263.974 71.2C264.181 71.58 264.284 72.03 264.284 72.55C264.284 73.07 264.181 73.5233 263.974 73.91C263.768 74.29 263.478 74.5833 263.104 74.79C262.731 74.9967 262.291 75.1 261.784 75.1ZM261.784 74.15C262.158 74.15 262.458 74.0167 262.684 73.75C262.911 73.4767 263.024 73.0767 263.024 72.55C263.024 72.0167 262.911 71.62 262.684 71.36C262.458 71.0933 262.158 70.96 261.784 70.96C261.411 70.96 261.111 71.0933 260.884 71.36C260.658 71.62 260.544 72.0167 260.544 72.55C260.544 73.0767 260.658 73.4767 260.884 73.75C261.111 74.0167 261.411 74.15 261.784 74.15ZM265.316 75V70.11H266.536V70.97C266.776 70.39 267.289 70.07 268.076 70.01L268.456 69.98L268.536 71.04L267.816 71.11C266.996 71.19 266.586 71.61 266.586 72.37V75H265.316ZM269.252 75V70.11H270.472V70.86C270.619 70.5933 270.822 70.3867 271.082 70.24C271.342 70.0867 271.642 70.01 271.982 70.01C272.715 70.01 273.195 70.33 273.422 70.97C273.575 70.67 273.795 70.4367 274.082 70.27C274.369 70.0967 274.695 70.01 275.062 70.01C276.162 70.01 276.712 70.68 276.712 72.02V75H275.462V72.07C275.462 71.6967 275.399 71.4233 275.272 71.25C275.152 71.0767 274.945 70.99 274.652 70.99C274.325 70.99 274.069 71.1067 273.882 71.34C273.695 71.5667 273.602 71.8833 273.602 72.29V75H272.352V72.07C272.352 71.6967 272.289 71.4233 272.162 71.25C272.042 71.0767 271.839 70.99 271.552 70.99C271.225 70.99 270.969 71.1067 270.782 71.34C270.595 71.5667 270.502 71.8833 270.502 72.29V75H269.252ZM279.612 75.1C279.258 75.1 278.942 75.0333 278.662 74.9C278.388 74.76 278.172 74.5733 278.012 74.34C277.858 74.1067 277.782 73.8433 277.782 73.55C277.782 73.19 277.875 72.9067 278.062 72.7C278.248 72.4867 278.552 72.3333 278.972 72.24C279.392 72.1467 279.955 72.1 280.662 72.1H281.012V71.89C281.012 71.5567 280.938 71.3167 280.792 71.17C280.645 71.0233 280.398 70.95 280.052 70.95C279.778 70.95 279.498 70.9933 279.212 71.08C278.925 71.16 278.635 71.2867 278.342 71.46L277.982 70.61C278.155 70.49 278.358 70.3867 278.592 70.3C278.832 70.2067 279.082 70.1367 279.342 70.09C279.608 70.0367 279.858 70.01 280.092 70.01C280.805 70.01 281.335 70.1767 281.682 70.51C282.028 70.8367 282.202 71.3467 282.202 72.04V75H281.032V74.22C280.918 74.4933 280.738 74.71 280.492 74.87C280.245 75.0233 279.952 75.1 279.612 75.1ZM279.872 74.24C280.198 74.24 280.468 74.1267 280.682 73.9C280.902 73.6733 281.012 73.3867 281.012 73.04V72.82H280.672C280.045 72.82 279.608 72.87 279.362 72.97C279.122 73.0633 279.002 73.2367 279.002 73.49C279.002 73.71 279.078 73.89 279.232 74.03C279.385 74.17 279.598 74.24 279.872 74.24ZM283.47 75V70.11H284.69V70.87C284.857 70.59 285.08 70.3767 285.36 70.23C285.647 70.0833 285.967 70.01 286.32 70.01C287.474 70.01 288.05 70.68 288.05 72.02V75H286.8V72.08C286.8 71.7 286.727 71.4233 286.58 71.25C286.44 71.0767 286.22 70.99 285.92 70.99C285.554 70.99 285.26 71.1067 285.04 71.34C284.827 71.5667 284.72 71.87 284.72 72.25V75H283.47ZM291.58 75.1C291.067 75.1 290.62 74.9967 290.24 74.79C289.86 74.5767 289.567 74.2767 289.36 73.89C289.153 73.5033 289.05 73.05 289.05 72.53C289.05 72.01 289.153 71.5633 289.36 71.19C289.567 70.81 289.86 70.52 290.24 70.32C290.62 70.1133 291.067 70.01 291.58 70.01C291.893 70.01 292.203 70.06 292.51 70.16C292.817 70.26 293.07 70.4 293.27 70.58L292.9 71.45C292.727 71.2967 292.53 71.18 292.31 71.1C292.097 71.02 291.89 70.98 291.69 70.98C291.257 70.98 290.92 71.1167 290.68 71.39C290.447 71.6567 290.33 72.04 290.33 72.54C290.33 73.0333 290.447 73.4233 290.68 73.71C290.92 73.99 291.257 74.13 291.69 74.13C291.883 74.13 292.09 74.09 292.31 74.01C292.53 73.93 292.727 73.81 292.9 73.65L293.27 74.53C293.07 74.7033 292.813 74.8433 292.5 74.95C292.193 75.05 291.887 75.1 291.58 75.1ZM296.349 75.1C295.796 75.1 295.319 74.9967 294.919 74.79C294.519 74.5833 294.209 74.29 293.989 73.91C293.776 73.53 293.669 73.08 293.669 72.56C293.669 72.0533 293.772 71.61 293.979 71.23C294.192 70.85 294.482 70.5533 294.849 70.34C295.222 70.12 295.646 70.01 296.119 70.01C296.812 70.01 297.359 70.23 297.759 70.67C298.166 71.11 298.369 71.71 298.369 72.47V72.84H294.869C294.962 73.7133 295.462 74.15 296.369 74.15C296.642 74.15 296.916 74.11 297.189 74.03C297.462 73.9433 297.712 73.81 297.939 73.63L298.289 74.47C298.056 74.6633 297.762 74.8167 297.409 74.93C297.056 75.0433 296.702 75.1 296.349 75.1ZM296.169 70.86C295.802 70.86 295.506 70.9733 295.279 71.2C295.052 71.4267 294.916 71.7333 294.869 72.12H297.329C297.302 71.7133 297.189 71.4033 296.989 71.19C296.796 70.97 296.522 70.86 296.169 70.86Z" fill="#8B8FA2"/>
<rect x="162" y="40" width="1" height="17" fill="#C5C7D1"/>
<circle cx="163" cy="24" r="24" fill="#8B8FA2"/>
<g clip-path="url(#clip0_3080:66106)">
<path d="M174.158 24.15V15.15L162.829 12L151.5 15.3V31.65L162.829 34.95L163.425 34.65C164.618 35.4 166.109 36 167.748 36C171.922 36 175.5 32.55 175.5 28.35C175.351 26.7 174.904 25.35 174.158 24.15ZM163.724 19.65L172.37 17.1V22.2C171.028 21.15 169.388 20.55 167.599 20.55C166.258 20.55 164.916 21 163.724 21.75V19.65ZM169.984 15.9L162.829 18L155.674 15.9L162.829 13.8L169.984 15.9ZM153.289 17.1L161.935 19.65V23.25C160.742 24.6 159.997 26.4 159.997 28.35C159.997 30 160.444 31.35 161.339 32.7L153.289 30.45V17.1ZM167.599 34.2C164.32 34.2 161.637 31.5 161.637 28.35C161.637 25.05 164.32 22.5 167.599 22.5C170.879 22.5 173.562 25.2 173.562 28.35C173.562 31.5 170.879 34.2 167.599 34.2Z" fill="white"/>
<path d="M169.95 28.35H168.6V25.5C168.6 25.05 168.15 24.6 167.7 24.6C167.25 24.6 166.8 24.9 166.8 25.5V30H169.95C170.4 30 170.85 29.55 170.85 29.1C170.85 28.65 170.55 28.35 169.95 28.35Z" fill="white"/>
</g>
<defs>
<filter id="filter0_d_3080:66106" x="0.5" y="56" width="322" height="87" filterUnits="userSpaceOnUse" color-interpolation-filters="sRGB">
<feFlood flood-opacity="0" result="BackgroundImageFix"/>
<feColorMatrix in="SourceAlpha" type="matrix" values="0 0 0 0 0 0 0 0 0 0 0 0 0 0 0 0 0 0 127 0" result="hardAlpha"/>
<feMorphology radius="5" operator="erode" in="SourceAlpha" result="effect1_dropShadow_3080:66106"/>
<feOffset dy="7"/>
<feGaussianBlur stdDeviation="1.5"/>
<feColorMatrix type="matrix" values="0 0 0 0 0.0980392 0 0 0 0 0.129412 0 0 0 0 0.278431 0 0 0 0.1 0"/>
<feBlend mode="normal" in2="BackgroundImageFix" result="effect1_dropShadow_3080:66106"/>
<feBlend mode="normal" in="SourceGraphic" in2="effect1_dropShadow_3080:66106" result="shape"/>
</filter>
<clipPath id="clip0_3080:66106">
<rect width="24" height="24" fill="white" transform="translate(151.5 12)"/>
</clipPath>
</defs>
</svg>
