<?xml version="1.0" encoding="UTF-8"?>
<svg width="84px" height="79px" viewBox="0 0 84 79" version="1.1" xmlns="http://www.w3.org/2000/svg" xmlns:xlink="http://www.w3.org/1999/xlink">
    <!-- Generator: Sketch 41.2 (35397) - http://www.bohemiancoding.com/sketch -->
    <title>Page 1</title>
    <desc>Created with Sketch.</desc>
    <defs>
        <path d="M72,52.4009 L2,52.4009 C0.896,52.4009 0,51.5049 0,50.4009 L0,2.4009 C0,1.2969 0.896,0.4009 2,0.4009 L72,0.4009 C73.104,0.4009 74,1.2969 74,2.4009 L74,50.4009 C74,51.5049 73.104,52.4009 72,52.4009" id="path-1"></path>
        <filter x="-50%" y="-50%" width="200%" height="200%" filterUnits="objectBoundingBox" id="filter-2">
            <feOffset dx="0" dy="2" in="SourceAlpha" result="shadowOffsetOuter1"></feOffset>
            <feGaussianBlur stdDeviation="2.5" in="shadowOffsetOuter1" result="shadowBlurOuter1"></feGaussianBlur>
            <feColorMatrix values="0 0 0 0 0.00784313725   0 0 0 0 0.062745098   0 0 0 0 0.129411765  0 0 0 0.16 0" type="matrix" in="shadowBlurOuter1" result="shadowMatrixOuter1"></feColorMatrix>
            <feOffset dx="0" dy="2" in="SourceAlpha" result="shadowOffsetOuter2"></feOffset>
            <feColorMatrix values="0 0 0 0 0.831372549   0 0 0 0 0.847058824   0 0 0 0 0.874509804  0 0 0 1 0" type="matrix" in="shadowOffsetOuter2" result="shadowMatrixOuter2"></feColorMatrix>
            <feMerge>
                <feMergeNode in="shadowMatrixOuter1"></feMergeNode>
                <feMergeNode in="shadowMatrixOuter2"></feMergeNode>
            </feMerge>
        </filter>
        <path d="M44,50 L44,69.099 C44,69.491 44.432,69.73 44.765,69.522 L52,65 L59.235,69.522 C59.568,69.73 60,69.491 60,69.099 L60,50 L44,50 Z" id="path-3"></path>
        <filter x="-50%" y="-50%" width="200%" height="200%" filterUnits="objectBoundingBox" id="filter-4">
            <feOffset dx="0" dy="4" in="SourceAlpha" result="shadowOffsetOuter1"></feOffset>
            <feGaussianBlur stdDeviation="1.5" in="shadowOffsetOuter1" result="shadowBlurOuter1"></feGaussianBlur>
            <feColorMatrix values="0 0 0 0 0.00784313725   0 0 0 0 0.062745098   0 0 0 0 0.129411765  0 0 0 0.16 0" type="matrix" in="shadowBlurOuter1" result="shadowMatrixOuter1"></feColorMatrix>
            <feOffset dx="0" dy="1" in="SourceAlpha" result="shadowOffsetOuter2"></feOffset>
            <feColorMatrix values="0 0 0 0 0.790603741   0 0 0 0 0.190195709   0 0 0 0 0.161433648  0 0 0 1 0" type="matrix" in="shadowOffsetOuter2" result="shadowMatrixOuter2"></feColorMatrix>
            <feMerge>
                <feMergeNode in="shadowMatrixOuter1"></feMergeNode>
                <feMergeNode in="shadowMatrixOuter2"></feMergeNode>
            </feMerge>
        </filter>
        <path d="M58.7383,27.1787 L59.3163,27.9857 C59.8073,28.6727 60.5053,29.1857 61.3063,29.4517 L62.2483,29.7647 C63.8923,30.3117 64.9993,31.8547 64.9873,33.5877 L64.9803,34.5807 C64.9743,35.4247 65.2373,36.2497 65.7283,36.9367 L66.3063,37.7427 C67.3163,39.1527 67.3033,41.0507 66.2753,42.4467 L65.6863,43.2447 C65.1853,43.9257 64.9133,44.7467 64.9073,45.5917 L64.9003,46.5837 C64.8893,48.3177 63.7633,49.8457 62.1113,50.3697 L61.1653,50.6707 C60.3603,50.9257 59.6573,51.4307 59.1563,52.1107 L58.5673,52.9087 C57.5393,54.3047 55.7293,54.8797 54.0853,54.3327 L53.1433,54.0197 C52.3423,53.7537 51.4753,53.7477 50.6713,54.0037 L49.7243,54.3037 C48.0733,54.8277 46.2713,54.2297 45.2613,52.8217 L44.6833,52.0147 C44.1923,51.3267 43.4953,50.8147 42.6933,50.5477 L41.7523,50.2357 C40.1073,49.6887 39.0013,48.1457 39.0123,46.4117 L39.0193,45.4197 C39.0253,44.5747 38.7623,43.7497 38.2713,43.0637 L37.6933,42.2567 C36.6833,40.8477 36.6963,38.9497 37.7243,37.5537 L38.3133,36.7547 C38.8143,36.0747 39.0873,35.2527 39.0923,34.4087 L39.0993,33.4157 C39.1103,31.6827 40.2363,30.1547 41.8883,29.6297 L42.8353,29.3297 C43.6393,29.0737 44.3423,28.5697 44.8433,27.8897 L45.4323,27.0907 C46.4613,25.6957 48.2703,25.1207 49.9153,25.6667 L50.8563,25.9797 C51.6583,26.2467 52.5243,26.2517 53.3293,25.9967 L54.2753,25.6957 C55.9263,25.1717 57.7283,25.7697 58.7383,27.1787" id="path-5"></path>
        <filter x="-50%" y="-50%" width="200%" height="200%" filterUnits="objectBoundingBox" id="filter-6">
            <feOffset dx="0" dy="1" in="SourceAlpha" result="shadowOffsetOuter1"></feOffset>
            <feColorMatrix values="0 0 0 0 0.916985544   0 0 0 0 0.551468378   0 0 0 0 0  0 0 0 1 0" type="matrix" in="shadowOffsetOuter1"></feColorMatrix>
        </filter>
        <polygon id="path-7" points="0.0002 9.81989 12.819 9.81989 12.819 -0.00011 0.0002 -0.00011 0.0002 9.81989"></polygon>
    </defs>
    <g id="Page-1" stroke="none" stroke-width="1" fill="none" fill-rule="evenodd">
        <g id="add-hosts" transform="translate(-664.000000, -480.000000)">
            <g id="dialog" transform="translate(390.000000, 58.000000)">
                <g id="Group-27" transform="translate(28.000000, 193.000000)">
                    <g id="Group-10">
                        <g id="Group-30" transform="translate(212.000000, 231.000000)">
                            <g id="Group-28">
                                <g id="Page-1" transform="translate(39.000000, 0.000000)">
                                    <g id="Group-3" transform="translate(0.000000, 0.599100)">
                                        <g id="Fill-1">
                                            <use fill="black" fill-opacity="1" filter="url(#filter-2)" xlink:href="#path-1"></use>
                                            <use fill="#F9FAFC" fill-rule="evenodd" xlink:href="#path-1"></use>
                                        </g>
                                    </g>
                                    <g id="Fill-4">
                                        <use fill="black" fill-opacity="1" filter="url(#filter-4)" xlink:href="#path-3"></use>
                                        <use fill="#FF5850" fill-rule="evenodd" xlink:href="#path-3"></use>
                                    </g>
                                    <g id="Fill-6">
                                        <use fill="black" fill-opacity="1" filter="url(#filter-6)" xlink:href="#path-5"></use>
                                        <use fill="#FFAD00" fill-rule="evenodd" xlink:href="#path-5"></use>
                                    </g>
                                    <path d="M62,12 L10,12 C9.448,12 9,11.552 9,11 L9,9 C9,8.448 9.448,8 10,8 L62,8 C62.553,8 63,8.448 63,9 L63,11 C63,11.552 62.553,12 62,12" id="Fill-8" fill-opacity="0.1" fill="#202532"></path>
                                    <path d="M62,21 L10,21 C9.448,21 9,20.552 9,20 L9,18 C9,17.448 9.448,17 10,17 L62,17 C62.553,17 63,17.448 63,18 L63,20 C63,20.552 62.553,21 62,21" id="Fill-10" fill-opacity="0.1" fill="#202532"></path>
                                    <path d="M27,46 L10,46 C9.448,46 9,45.553 9,45 L9,43 C9,42.447 9.448,42 10,42 L27,42 C27.552,42 28,42.447 28,43 L28,45 C28,45.553 27.552,46 27,46" id="Fill-12" fill="#4A90E2"></path>
                                    <path d="M61,40 C61,35.029 56.971,31 52,31 C47.029,31 43,35.029 43,40 C43,44.971 47.029,49 52,49 C56.971,49 61,44.971 61,40" id="Fill-14" fill="#E08F00"></path>
                                    <path d="M58,40 C58,36.687 55.313,34 52,34 C48.687,34 46,36.687 46,40 C46,43.313 48.687,46 52,46 C55.313,46 58,43.313 58,40" id="Fill-16" fill="#FFDA8C"></path>
                                    <g transform="translate(13.000000, 29.000000)">
                                        <mask id="mask-8" fill="white">
                                            <use xlink:href="#path-7"></use>
                                        </mask>
                                        <g id="Clip-2"></g>
                                        <path d="M12.5672,0.79959 L12.0202,0.25259 C11.8572,0.08959 11.6402,-0.00041 11.4102,-0.00041 C11.1792,-0.00041 10.9622,0.08959 10.7992,0.25259 L4.4102,6.64259 L2.0212,4.25259 C1.8572,4.08959 1.6402,3.99959 1.4102,3.99959 C1.1792,3.99959 0.9622,4.08959 0.7992,4.25259 L0.2522,4.79959 C0.0892,4.96259 0.0002,5.17959 0.0002,5.40959 C0.0002,5.64059 0.0892,5.85759 0.2522,6.02059 L2.9962,8.76359 L3.7992,9.56759 C3.9622,9.73059 4.1792,9.82059 4.4102,9.82059 C4.6402,9.82059 4.8572,9.73059 5.0212,9.56759 L5.8242,8.76359 L12.5672,2.02059 C12.9042,1.68359 12.9042,1.13559 12.5672,0.79959 L12.5672,0.79959 Z" id="Fill-1" fill="#4FD061" mask="url(#mask-8)"></path>
                                    </g>
                                </g>
                            </g>
                        </g>
                    </g>
                </g>
            </g>
        </g>
    </g>
</svg>