<svg preserveAspectRatio="none" width="100%" height="100%" overflow="visible" style="display: block;" viewBox="0 0 40 40" fill="none" xmlns="http://www.w3.org/2000/svg">
<g id="icon">
<path id="Vector" d="M11.9352 23.076H6.97168C6.64358 23.076 6.33231 22.9035 6.18088 22.6091C6.00842 22.2725 6.07152 21.8687 6.33652 21.6037L9.78994 18.1501H7.3166C6.63517 18.1501 6.08414 17.599 6.08414 16.9175H10.6564C10.9845 16.9175 11.2958 17.09 11.4472 17.3845C11.6197 17.721 11.5566 18.1248 11.2916 18.3898L7.83819 21.8434H10.7027C11.3841 21.8434 11.9352 22.3945 11.9352 23.076ZM31.5789 16.825C30.8681 16.825 30.2286 17.1321 29.7911 17.6242C29.3495 17.1321 28.7101 16.825 28.0035 16.825C26.6826 16.825 25.6058 17.9524 25.6058 19.269V23.076C26.2872 23.076 26.8383 22.5249 26.8383 21.8434V19.2564C26.8383 18.6212 27.3304 18.0828 27.9613 18.0575C28.626 18.0323 29.177 18.5665 29.177 19.227V21.8434C29.177 22.5249 29.728 23.076 30.4094 23.076V19.2564C30.4094 18.6212 30.9016 18.0828 31.5325 18.0575C32.1972 18.0323 32.7482 18.5665 32.7482 19.227V21.8434C32.7482 22.5249 33.2993 23.076 33.9805 23.076V19.269C33.9763 17.9524 32.8996 16.825 31.5789 16.825ZM18.1522 19.9967C18.1522 21.7467 16.7304 23.1685 14.9806 23.1685C13.2307 23.1685 11.809 21.7467 11.809 19.9967C11.809 18.2468 13.2349 16.825 14.9806 16.825C16.7262 16.825 18.1522 18.2468 18.1522 19.9967ZM16.9197 19.9967C16.9197 18.9283 16.049 18.0575 14.9806 18.0575C13.9122 18.0575 13.0414 18.9283 13.0414 19.9967C13.0414 21.0652 13.9122 21.936 14.9806 21.936C16.049 21.936 16.9197 21.0652 16.9197 19.9967ZM24.9875 19.9967C24.9875 21.7467 23.5658 23.1685 21.816 23.1685C20.066 23.1685 18.6443 21.7467 18.6443 19.9967C18.6443 18.2468 20.0703 16.825 21.816 16.825C23.5615 16.825 24.9875 18.2468 24.9875 19.9967ZM23.755 19.9967C23.755 18.9283 22.8844 18.0575 21.816 18.0575C20.7475 18.0575 19.8768 18.9283 19.8768 19.9967C19.8768 21.0652 20.7475 21.936 21.816 21.936C22.8844 21.936 23.755 21.0652 23.755 19.9967Z" fill="var(--fill-0, #EEEEEE)"/>
</g>
</svg>
