<?xml version="1.0" encoding="utf-8"?>
<!-- Generator: Adobe Illustrator 18.1.1, SVG Export Plug-In . SVG Version: 6.00 Build 0)  -->
<svg version="1.1" id="Layer_1" xmlns="http://www.w3.org/2000/svg" xmlns:xlink="http://www.w3.org/1999/xlink" x="0px" y="0px"
	 viewBox="0 0 97.8 97.8" enable-background="new 0 0 97.8 97.8" xml:space="preserve">
<g>
	<g>
		<path fill="#8431A6" d="M46.3,1.8L1.8,46.3c-1.5,1.5-2.1,3.8-1.6,5.9L6.9,77c0.6,2.1,2.2,3.7,4.3,4.3L72,97.6
			c2.1,0.6,4.3,0,5.9-1.6L96,77.8c1.5-1.5,2.1-3.8,1.6-5.9L81.3,11.2c-0.6-2.1-2.2-3.7-4.3-4.3L52.2,0.2C50.1-0.4,47.8,0.2,46.3,1.8
			z"/>
	</g>
	<polygon fill="#FFFFFF" points="51.3,59.8 42.5,59.8 49.7,63.7 49.7,79.6 36.1,79.6 36,41.9 27.2,37.2 27.2,32 49.7,32 49.7,49.1 
		52.8,49.1 63.6,32 79.5,32 65,55.8 64.9,55.8 79.5,79.6 63.6,79.6 	"/>
</g>
<g>
</g>
<g>
</g>
<g>
</g>
<g>
</g>
<g>
</g>
<g>
</g>
</svg>
